<svg width="10" height="10" viewBox="0 0 10 10" fill="none" xmlns="http://www.w3.org/2000/svg">
<g clip-path="url(#clip0_7637_24234)">
<path fill-rule="evenodd" clip-rule="evenodd" d="M3.75 8.75C3.75 8.99723 3.82331 9.2389 3.96066 9.44446C4.09801 9.65002 4.29324 9.81024 4.52165 9.90485C4.75005 9.99946 5.00139 10.0242 5.24386 9.97598C5.48634 9.92775 5.70907 9.8087 5.88388 9.63388C6.0587 9.45907 6.17775 9.23634 6.22598 8.99386C6.27421 8.75139 6.24946 8.50005 6.15485 8.27165C6.06024 8.04324 5.90002 7.84802 5.69446 7.71066C5.4889 7.57331 5.24723 7.5 5 7.5C4.83582 7.49991 4.67323 7.53217 4.52153 7.59496C4.36984 7.65774 4.232 7.74982 4.11591 7.86591C3.99982 7.982 3.90774 8.11984 3.84496 8.27153C3.78217 8.42323 3.74991 8.58582 3.75 8.75ZM3.75 5C3.75 5.24723 3.82331 5.4889 3.96066 5.69446C4.09801 5.90002 4.29324 6.06024 4.52165 6.15485C4.75005 6.24946 5.00139 6.27421 5.24386 6.22598C5.48634 6.17775 5.70907 6.0587 5.88388 5.88388C6.0587 5.70907 6.17775 5.48634 6.22598 5.24386C6.27421 5.00139 6.24946 4.75005 6.15485 4.52165C6.06024 4.29324 5.90002 4.09802 5.69446 3.96066C5.4889 3.82331 5.24723 3.75 5 3.75C4.83582 3.74991 4.67323 3.78217 4.52153 3.84496C4.36984 3.90774 4.232 3.99982 4.11591 4.11591C3.99982 4.232 3.90774 4.36984 3.84496 4.52154C3.78217 4.67323 3.74991 4.83582 3.75 5ZM3.75 1.25C3.75 1.49723 3.82331 1.7389 3.96066 1.94446C4.09801 2.15002 4.29324 2.31024 4.52165 2.40485C4.75005 2.49946 5.00139 2.52421 5.24386 2.47598C5.48634 2.42775 5.70907 2.3087 5.88388 2.13388C6.0587 1.95907 6.17775 1.73634 6.22598 1.49386C6.27421 1.25139 6.24946 1.00005 6.15485 0.771646C6.06024 0.543238 5.90002 0.348015 5.69446 0.210663C5.4889 0.0733114 5.24723 2.04334e-07 5 2.04334e-07C4.83582 -9.36926e-05 4.67323 0.0321744 4.52153 0.0949595C4.36984 0.157745 4.232 0.249815 4.11591 0.365907C3.99982 0.481999 3.90774 0.619835 3.84496 0.771535C3.78217 0.923234 3.74991 1.08582 3.75 1.25Z" fill="#8C9FCD"/>
</g>
<defs>
<clipPath id="clip0_7637_24234">
<rect width="10" height="10" fill="white"/>
</clipPath>
</defs>
</svg>
