<svg width="29" height="29" viewBox="0 0 29 29" fill="none" xmlns="http://www.w3.org/2000/svg">
    <circle opacity="0.1" cx="14.5" cy="14.5" r="14.5" fill="#6557FF"/>
    <path fill-rule="evenodd" clip-rule="evenodd" d="M11.6961 9.38379H11.7115H11.7269H11.7269C11.9975 9.38379 12.2234 9.38378 12.409 9.39612C12.6021 9.40896 12.7847 9.43664 12.9622 9.50808C13.3962 9.68276 13.7403 10.0268 13.9149 10.4608C13.9864 10.6383 14.0141 10.8209 14.0269 11.014C14.0392 11.1996 14.0392 11.4255 14.0392 11.6961V11.6961V11.6961V11.6961V11.6962V11.7115V11.7269V11.7269V11.7269V11.7269V11.7269C14.0392 11.9975 14.0392 12.2234 14.0269 12.409C14.0141 12.6021 13.9864 12.7847 13.9149 12.9622C13.7403 13.3962 13.3962 13.7403 12.9622 13.9149C12.7847 13.9864 12.6021 14.0141 12.409 14.0269C12.2234 14.0392 11.9975 14.0392 11.7269 14.0392H11.7269H11.7269H11.7269H11.7269H11.7115H11.6962H11.6961H11.6961H11.6961H11.6961C11.4255 14.0392 11.1996 14.0392 11.014 14.0269C10.8209 14.0141 10.6383 13.9864 10.4608 13.9149C10.0268 13.7403 9.68276 13.3962 9.50808 12.9622C9.43664 12.7847 9.40896 12.6021 9.39612 12.409C9.38378 12.2234 9.38379 11.9975 9.38379 11.7269V11.7269V11.7115V11.6961V11.6961C9.38379 11.4255 9.38378 11.1996 9.39612 11.014C9.40896 10.8209 9.43664 10.6383 9.50808 10.4608C9.68276 10.0268 10.0268 9.68276 10.4608 9.50808C10.6383 9.43664 10.8209 9.40896 11.014 9.39612C11.1996 9.38378 11.4255 9.38379 11.6961 9.38379H11.6961ZM11.7115 14.9607H11.6961C11.4255 14.9607 11.1996 14.9607 11.014 14.973C10.8209 14.9859 10.6383 15.0136 10.4608 15.085C10.0268 15.2597 9.68276 15.6037 9.50808 16.0377C9.43664 16.2152 9.40896 16.3978 9.39612 16.591C9.38378 16.7765 9.38379 17.0024 9.38379 17.2731V17.2731V17.2884V17.3038V17.3038C9.38379 17.5744 9.38378 17.8003 9.39612 17.9859C9.40896 18.1791 9.43664 18.3616 9.50808 18.5391C9.68276 18.9731 10.0268 19.3172 10.4608 19.4919C10.6383 19.5633 10.8209 19.591 11.014 19.6038C11.1996 19.6162 11.4255 19.6162 11.6961 19.6162H11.6962H11.7115H11.7269H11.7269C11.9975 19.6162 12.2234 19.6162 12.409 19.6038C12.6021 19.591 12.7847 19.5633 12.9622 19.4919C13.3962 19.3172 13.7403 18.9731 13.9149 18.5391C13.9864 18.3616 14.0141 18.1791 14.0269 17.9859C14.0392 17.8004 14.0392 17.5744 14.0392 17.3038V17.3038V17.3038V17.3038V17.2884V17.2731V17.2731V17.2731V17.273C14.0392 17.0024 14.0392 16.7765 14.0269 16.591C14.0141 16.3978 13.9864 16.2152 13.9149 16.0377C13.7403 15.6037 13.3962 15.2597 12.9622 15.085C12.7847 15.0136 12.6021 14.9859 12.409 14.973C12.2234 14.9607 11.9975 14.9607 11.7269 14.9607H11.7115ZM17.2731 14.9607H17.2884H17.3038C17.5744 14.9607 17.8003 14.9607 17.9859 14.973C18.1791 14.9859 18.3616 15.0136 18.5391 15.085C18.9731 15.2597 19.3172 15.6037 19.4919 16.0377C19.5633 16.2152 19.591 16.3978 19.6038 16.591C19.6162 16.7765 19.6162 17.0024 19.6162 17.273V17.2731V17.2884V17.3038V17.3038C19.6162 17.5744 19.6162 17.8004 19.6038 17.9859C19.591 18.1791 19.5633 18.3616 19.4919 18.5391C19.3172 18.9731 18.9731 19.3172 18.5391 19.4919C18.3616 19.5633 18.1791 19.591 17.9859 19.6038C17.8004 19.6162 17.5744 19.6162 17.3038 19.6162H17.3038H17.2884H17.2731H17.273C17.0024 19.6162 16.7765 19.6162 16.591 19.6038C16.3978 19.591 16.2152 19.5633 16.0377 19.4919C15.6037 19.3172 15.2597 18.9731 15.085 18.5391C15.0136 18.3616 14.9859 18.1791 14.973 17.9859C14.9607 17.8003 14.9607 17.5744 14.9607 17.3038V17.2884V17.2731C14.9607 17.0024 14.9607 16.7765 14.973 16.591C14.9859 16.3978 15.0136 16.2152 15.085 16.0377C15.2597 15.6037 15.6037 15.2597 16.0377 15.085C16.2152 15.0136 16.3978 14.9859 16.591 14.973C16.7765 14.9607 17.0024 14.9607 17.2731 14.9607ZM17.7572 9.85254C17.7572 9.59366 17.5473 9.38379 17.2884 9.38379C17.0296 9.38379 16.8197 9.59366 16.8197 9.85254V11.2428H15.4295C15.1706 11.2428 14.9607 11.4526 14.9607 11.7115C14.9607 11.9704 15.1706 12.1803 15.4295 12.1803H16.8197V13.5705C16.8197 13.8294 17.0296 14.0392 17.2884 14.0392C17.5473 14.0392 17.7572 13.8294 17.7572 13.5705V12.1803H19.1474C19.4063 12.1803 19.6162 11.9704 19.6162 11.7115C19.6162 11.4526 19.4063 11.2428 19.1474 11.2428H17.7572V9.85254Z" fill="#6557FF"/>
</svg>
