<svg xmlns="http://www.w3.org/2000/svg" width="14" height="14" viewBox="0 0 14 14" fill="none">
    <path d="M9.91667 8.65084C9.80738 8.75948 9.65953 8.82047 9.50542 8.82047C9.35131 8.82047 9.20347 8.75948 9.09417 8.65084L7.00001 6.58584L4.93501 8.65084C4.82571 8.75948 4.67786 8.82047 4.52376 8.82047C4.36965 8.82047 4.2218 8.75948 4.11251 8.65084C4.05783 8.59661 4.01443 8.53209 3.98482 8.46101C3.9552 8.38992 3.93996 8.31368 3.93996 8.23667C3.93996 8.15966 3.9552 8.08342 3.98482 8.01233C4.01443 7.94125 4.05783 7.87673 4.11251 7.8225L6.58584 5.34917C6.64007 5.29449 6.70458 5.2511 6.77567 5.22148C6.84675 5.19187 6.923 5.17662 7.00001 5.17662C7.07701 5.17662 7.15326 5.19187 7.22434 5.22148C7.29543 5.2511 7.35994 5.29449 7.41417 5.34917L9.91667 7.8225C9.97135 7.87673 10.0147 7.94125 10.0444 8.01233C10.074 8.08342 10.0892 8.15966 10.0892 8.23667C10.0892 8.31368 10.074 8.38992 10.0444 8.46101C10.0147 8.53209 9.97135 8.59661 9.91667 8.65084Z" fill="#A6A5B3" fill-opacity="0.8"/>
</svg>