<svg width="50" height="50" viewBox="0 0 50 50" fill="none" xmlns="http://www.w3.org/2000/svg">
<circle cx="25" cy="25" r="25" fill="#6557FF" fill-opacity="0.1"/>
<g filter="url(#filter0_b_1827_9711)">
<path d="M12.4653 24.0235C12.4653 21.4239 12.4653 20.124 13.1873 19.1669C13.9093 18.2097 15.1591 17.8526 17.6588 17.1385L22.0456 15.8851C23.5114 15.4663 24.2442 15.2569 24.9964 15.2569C25.7485 15.2569 26.4814 15.4663 27.9471 15.8851L32.334 17.1385C34.8337 17.8526 36.0835 18.2097 36.8055 19.1669C37.5274 20.124 37.5274 21.4239 37.5274 24.0235V27.573C37.5274 32.6364 37.5274 35.168 35.9545 36.741C34.3815 38.3139 31.8498 38.3139 26.7865 38.3139H23.2062C18.1429 38.3139 15.6113 38.3139 14.0383 36.741C12.4653 35.168 12.4653 32.6364 12.4653 27.573V24.0235Z" fill="#6557FF"/>
</g>
<path fill-rule="evenodd" clip-rule="evenodd" d="M17.1528 11.7437C15.7031 11.7437 14.5278 13.3444 14.5278 15.319V23.1436C19.6688 26.9929 22.3747 30.7245 25.0278 30.7436C27.7372 30.7631 30.3915 26.9894 35.5278 23.1436V15.319C35.5278 13.3444 34.3526 11.7437 32.9028 11.7437H17.1528Z" fill="#FFC633"/>
<path d="M29.4028 16.9251C29.8861 16.9251 30.2778 17.3118 30.2778 17.7888C30.2778 18.2658 29.8861 18.6524 29.4028 18.6524L20.6528 18.6524C20.1696 18.6524 19.7778 18.2658 19.7778 17.7888C19.7778 17.3118 20.1696 16.9251 20.6528 16.9251L29.4028 16.9251Z" fill="#FFC633"/>
<path d="M29.4028 22.1066C29.8861 22.1066 30.2778 22.4933 30.2778 22.9703C30.2778 23.4473 29.8861 23.8339 29.4028 23.8339H20.6528C20.1696 23.8339 19.7778 23.4473 19.7778 22.9703C19.7778 22.4933 20.1696 22.1066 20.6528 22.1066H29.4028Z" fill="#FFC633"/>
<g clip-path="url(#clip0_1827_9711)">
<path d="M22.0182 18.599L20.0442 20.2438L22.0182 21.8886C22.0837 21.9422 22.1379 22.0083 22.1777 22.083C22.2175 22.1577 22.2421 22.2395 22.2501 22.3238C22.2581 22.408 22.2494 22.4931 22.2244 22.5739C22.1994 22.6548 22.1586 22.7299 22.1045 22.7949C22.0503 22.86 21.9838 22.9136 21.9088 22.9528C21.8337 22.9921 21.7517 23.016 21.6674 23.0234C21.5831 23.0307 21.4981 23.0213 21.4175 22.9956C21.3368 22.97 21.262 22.9286 21.1974 22.8739L18.6324 20.7365C18.5602 20.6763 18.5021 20.6009 18.4622 20.5158C18.4223 20.4307 18.4016 20.3378 18.4016 20.2438C18.4016 20.1497 18.4223 20.0569 18.4622 19.9717C18.5021 19.8866 18.5602 19.8113 18.6324 19.7511L21.1974 17.6136C21.3283 17.5063 21.4962 17.4552 21.6646 17.4712C21.833 17.4872 21.9883 17.5692 22.0966 17.6991C22.2049 17.8291 22.2574 17.9967 22.2427 18.1652C22.228 18.3337 22.1473 18.4897 22.0182 18.599ZM31.4232 19.7511L28.8582 17.6136C28.7936 17.5589 28.7188 17.5175 28.6381 17.4919C28.5575 17.4662 28.4725 17.4568 28.3882 17.4642C28.3039 17.4715 28.2218 17.4955 28.1468 17.5347C28.0718 17.5739 28.0053 17.6275 27.9511 17.6926C27.897 17.7576 27.8562 17.8327 27.8312 17.9136C27.8062 17.9945 27.7975 18.0795 27.8055 18.1637C27.8135 18.248 27.8381 18.3298 27.8779 18.4045C27.9177 18.4792 27.9719 18.5453 28.0374 18.599L30.0114 20.2438L28.0374 21.8886C27.9719 21.9422 27.9177 22.0083 27.8779 22.083C27.8381 22.1577 27.8135 22.2395 27.8055 22.3238C27.7975 22.408 27.8062 22.4931 27.8312 22.5739C27.8562 22.6548 27.897 22.7299 27.9511 22.7949C28.0053 22.86 28.0718 22.9136 28.1468 22.9528C28.2218 22.9921 28.3039 23.016 28.3882 23.0234C28.4725 23.0307 28.5575 23.0213 28.6381 22.9956C28.7188 22.97 28.7936 22.9286 28.8582 22.8739L31.4232 20.7365C31.4954 20.6763 31.5535 20.6009 31.5934 20.5158C31.6333 20.4307 31.654 20.3378 31.654 20.2438C31.654 20.1497 31.6333 20.0569 31.5934 19.9717C31.5535 19.8866 31.4954 19.8113 31.4232 19.7511ZM26.9569 14.9385C26.8777 14.9097 26.7937 14.8968 26.7095 14.9005C26.6254 14.9042 26.5428 14.9245 26.4665 14.9601C26.3901 14.9957 26.3216 15.046 26.2647 15.1082C26.2079 15.1703 26.1638 15.243 26.135 15.3222L22.715 24.7271C22.6571 24.8869 22.6649 25.0632 22.7369 25.2172C22.8088 25.3712 22.939 25.4904 23.0987 25.5485C23.1688 25.5744 23.243 25.5876 23.3178 25.5875C23.4495 25.5875 23.5779 25.547 23.6858 25.4715C23.7936 25.396 23.8756 25.2891 23.9206 25.1653L27.3406 15.7604C27.3693 15.6812 27.3823 15.5972 27.3786 15.513C27.3748 15.4289 27.3546 15.3463 27.319 15.27C27.2833 15.1936 27.233 15.1251 27.1709 15.0682C27.1088 15.0113 27.036 14.9673 26.9569 14.9385Z" fill="#6557FF"/>
</g>
<path fill-rule="evenodd" clip-rule="evenodd" d="M37.4173 20.8013C37.5086 21.3932 37.5361 22.1091 37.5443 23.0046L25.5596 32.7421C25.2308 33.0093 24.7596 33.0093 24.4308 32.7421L12.4556 23.0123C12.4637 22.1166 12.4908 21.4004 12.5816 20.8081L24.9952 30.8942L37.4173 20.8013Z" fill="#5345F0"/>
<defs>
<filter id="filter0_b_1827_9711" x="8.88503" y="11.6765" width="32.2227" height="30.2177" filterUnits="userSpaceOnUse" color-interpolation-filters="sRGB">
<feFlood flood-opacity="0" result="BackgroundImageFix"/>
<feGaussianBlur in="BackgroundImageFix" stdDeviation="1.79015"/>
<feComposite in2="SourceAlpha" operator="in" result="effect1_backgroundBlur_1827_9711"/>
<feBlend mode="normal" in="SourceGraphic" in2="effect1_backgroundBlur_1827_9711" result="shape"/>
</filter>
<clipPath id="clip0_1827_9711">
<rect width="13.6799" height="13.6799" fill="white" transform="translate(18.1879 13.4038)"/>
</clipPath>
</defs>
</svg>
