<svg width="31" height="30" viewBox="0 0 31 30" fill="none" xmlns="http://www.w3.org/2000/svg">
<path d="M19.0382 2.40161C19.086 2.01454 19.1099 1.82101 18.9988 1.69456C18.8876 1.5681 18.6938 1.56703 18.3062 1.56488C17.8748 1.56249 17.4214 1.56249 16.9455 1.5625H13.0498C12.5751 1.56249 12.1229 1.56249 11.6924 1.56486C11.307 1.56698 11.1143 1.56805 11.0032 1.69362C10.8921 1.81919 10.9146 2.01179 10.9597 2.39699L11.0286 2.98483C11.1551 3.74398 11.2385 4.23104 11.3448 4.58816C11.4447 4.92369 11.5339 5.03035 11.6047 5.09033C11.6755 5.15031 11.7954 5.22081 12.1428 5.26418C12.5162 5.3108 13.0164 5.3125 13.7991 5.3125H16.1956C16.9783 5.3125 17.4785 5.3108 17.8519 5.26418C18.1993 5.22081 18.3191 5.15031 18.3899 5.09033C18.4607 5.03035 18.55 4.92369 18.6499 4.58816C18.7563 4.23059 18.8397 3.74273 18.9666 2.98191L19.0382 2.40161Z" fill="#FFC633"/>
<path fill-rule="evenodd" clip-rule="evenodd" d="M8.88435 1.76208C9.00854 1.8585 9.0287 2.03069 9.06903 2.37508L9.16887 3.22774L9.17481 3.26339L9.17481 3.2634L9.17482 3.26341C9.28974 3.9533 9.40537 4.64743 9.54765 5.12537C9.7036 5.64919 9.93897 6.13884 10.3927 6.5232C10.8464 6.90756 11.3681 7.05923 11.9104 7.12694C12.4138 7.18978 13.0324 7.18975 13.7437 7.18971H16.2509C16.9621 7.18975 17.5807 7.18978 18.0841 7.12694C18.6264 7.05923 19.1481 6.90756 19.6018 6.5232C20.0555 6.13884 20.2909 5.64919 20.4469 5.12537C20.5897 4.64552 20.7051 3.95323 20.8204 3.26076L20.8249 3.2336L20.9314 2.37117C20.9737 2.02886 20.9949 1.85771 21.1189 1.7621C21.2429 1.66649 21.4071 1.68866 21.7355 1.73302L21.8045 1.74256C23.1089 1.92717 24.1792 2.31943 25.0208 3.20536C25.856 4.08451 26.22 5.19117 26.3923 6.54073C26.5601 7.85422 26.5601 9.53164 26.5601 11.6458V18.3586C26.5601 20.4728 26.5601 22.1502 26.3923 23.4637C26.22 24.8133 25.856 25.9199 25.0208 26.7991C24.1792 27.685 23.1089 28.0773 21.8045 28.2619C20.5474 28.4398 18.946 28.4397 16.9455 28.4397H16.9455H13.0497H13.0496C11.0491 28.4397 9.44768 28.4398 8.19063 28.2619C6.88623 28.0773 5.81591 27.685 4.97428 26.7991C4.13909 25.9199 3.77516 24.8133 3.60279 23.4637C3.43503 22.1502 3.43504 20.4728 3.43506 18.3586V18.3586V11.6458V11.6458V11.6458C3.43504 9.53162 3.43503 7.85421 3.60279 6.54073C3.77516 5.19117 4.13909 4.08451 4.97428 3.20536C5.81591 2.31943 6.88623 1.92717 8.19063 1.74256L8.26484 1.73232C8.59506 1.68788 8.76017 1.66565 8.88435 1.76208ZM15.9375 13.7498C15.9375 13.232 16.3572 12.8123 16.875 12.8123H21.25C21.7678 12.8123 22.1875 13.232 22.1875 13.7498C22.1875 14.2676 21.7678 14.6873 21.25 14.6873H16.875C16.3572 14.6873 15.9375 14.2676 15.9375 13.7498ZM16.875 20.3123C16.3572 20.3123 15.9375 20.732 15.9375 21.2498C15.9375 21.7676 16.3572 22.1873 16.875 22.1873H21.25C21.7678 22.1873 22.1875 21.7676 22.1875 21.2498C22.1875 20.732 21.7678 20.3123 21.25 20.3123H16.875ZM8.75019 21.2496C8.75019 20.5593 9.30983 19.9996 10.0002 19.9996H11.2502C11.9405 19.9996 12.5002 20.5593 12.5002 21.2496C12.5002 21.94 11.9405 22.4996 11.2502 22.4996H10.0002C9.30983 22.4996 8.75019 21.94 8.75019 21.2496ZM10.0002 12.6923C9.30983 12.6923 8.75019 13.252 8.75019 13.9423C8.75019 14.6327 9.30983 15.1923 10.0002 15.1923H11.2502C11.9405 15.1923 12.5002 14.6327 12.5002 13.9423C12.5002 13.252 11.9405 12.6923 11.2502 12.6923H10.0002Z" fill="#6557FF"/>
<circle cx="25.5" cy="24.5" r="4.90404" fill="#F0EFFF" stroke="#F0EFFF" stroke-width="1.19191"/>
<path d="M25.4955 20C23.0115 20 21 22.016 21 24.5C21 26.984 23.0115 29 25.4955 29C27.984 29 30 26.984 30 24.5C30 22.016 27.984 20 25.4955 20ZM26.9805 26.6195L25.05 24.6845V22.25H25.95V24.3155L27.6195 25.985L26.9805 26.6195Z" fill="#6557FF"/>
</svg>
