<svg width="50" height="50" viewBox="0 0 50 50" fill="none" xmlns="http://www.w3.org/2000/svg">
<circle cx="25" cy="25" r="25" fill="#6557FF" fill-opacity="0.1"/>
<path d="M29.0385 12.4016C29.0863 12.0145 29.1102 11.821 28.999 11.6946C28.8878 11.5681 28.694 11.567 28.3065 11.5649C27.875 11.5625 27.4217 11.5625 26.9458 11.5625H23.05C22.5754 11.5625 22.1231 11.5625 21.6926 11.5649C21.3072 11.567 21.1145 11.568 21.0034 11.6936C20.8923 11.8192 20.9149 12.0118 20.96 12.397L21.0288 12.9848C21.1554 13.744 21.2387 14.231 21.345 14.5882C21.4449 14.9237 21.5342 15.0304 21.605 15.0903C21.6758 15.1503 21.7956 15.2208 22.143 15.2642C22.5164 15.3108 23.0166 15.3125 23.7993 15.3125H26.1958C26.9785 15.3125 27.4787 15.3108 27.8521 15.2642C28.1995 15.2208 28.3194 15.1503 28.3902 15.0903C28.461 15.0304 28.5502 14.9237 28.6501 14.5882C28.7566 14.2306 28.84 13.7427 28.9668 12.9819L29.0385 12.4016Z" fill="#FFC633"/>
<path fill-rule="evenodd" clip-rule="evenodd" d="M18.8844 11.7621C19.0085 11.8585 19.0287 12.0307 19.069 12.3751L19.1689 13.2277L19.1748 13.2634L19.1748 13.2634L19.1748 13.2634C19.2897 13.9533 19.4054 14.6474 19.5477 15.1254C19.7036 15.6492 19.939 16.1388 20.3927 16.5232C20.8464 16.9076 21.3681 17.0592 21.9104 17.1269C22.4138 17.1898 23.0324 17.1897 23.7437 17.1897H26.2509C26.9621 17.1897 27.5807 17.1898 28.0841 17.1269C28.6264 17.0592 29.1481 16.9076 29.6018 16.5232C30.0555 16.1388 30.2909 15.6492 30.4469 15.1254C30.5897 14.6455 30.7051 13.9532 30.8204 13.2608L30.8249 13.2336L30.9314 12.3712C30.9737 12.0289 30.9949 11.8577 31.1189 11.7621C31.2429 11.6665 31.4071 11.6887 31.7355 11.733L31.8045 11.7426C33.1089 11.9272 34.1792 12.3194 35.0208 13.2054C35.856 14.0845 36.22 15.1912 36.3923 16.5407C36.5601 17.8542 36.5601 19.5316 36.5601 21.6458V28.3586C36.5601 30.4728 36.5601 32.1502 36.3923 33.4637C36.22 34.8133 35.856 35.9199 35.0208 36.7991C34.1792 37.685 33.1089 38.0773 31.8045 38.2619C30.5474 38.4398 28.946 38.4397 26.9455 38.4397H26.9455H23.0497H23.0496C21.0491 38.4397 19.4477 38.4398 18.1906 38.2619C16.8862 38.0773 15.8159 37.685 14.9743 36.7991C14.1391 35.9199 13.7752 34.8133 13.6028 33.4637C13.435 32.1502 13.435 30.4728 13.4351 28.3586V28.3586V21.6458V21.6458V21.6458C13.435 19.5316 13.435 17.8542 13.6028 16.5407C13.7752 15.1912 14.1391 14.0845 14.9743 13.2054C15.8159 12.3194 16.8862 11.9272 18.1906 11.7426L18.2648 11.7323C18.5951 11.6879 18.7602 11.6657 18.8844 11.7621ZM25.9375 23.7498C25.9375 23.232 26.3572 22.8123 26.875 22.8123H31.25C31.7678 22.8123 32.1875 23.232 32.1875 23.7498C32.1875 24.2676 31.7678 24.6873 31.25 24.6873H26.875C26.3572 24.6873 25.9375 24.2676 25.9375 23.7498ZM26.875 30.3123C26.3572 30.3123 25.9375 30.732 25.9375 31.2498C25.9375 31.7676 26.3572 32.1873 26.875 32.1873H31.25C31.7678 32.1873 32.1875 31.7676 32.1875 31.2498C32.1875 30.732 31.7678 30.3123 31.25 30.3123H26.875ZM18.7502 31.2496C18.7502 30.5593 19.3098 29.9996 20.0002 29.9996H21.2502C21.9405 29.9996 22.5002 30.5593 22.5002 31.2496C22.5002 31.94 21.9405 32.4996 21.2502 32.4996H20.0002C19.3098 32.4996 18.7502 31.94 18.7502 31.2496ZM20.0002 22.6923C19.3098 22.6923 18.7502 23.252 18.7502 23.9423C18.7502 24.6327 19.3098 25.1923 20.0002 25.1923H21.2502C21.9405 25.1923 22.5002 24.6327 22.5002 23.9423C22.5002 23.252 21.9405 22.6923 21.2502 22.6923H20.0002Z" fill="#6557FF"/>
<circle cx="35.5" cy="34.5" r="4.90404" fill="#F0EFFF" stroke="#F0EFFF" stroke-width="1.19191"/>
<path d="M35.4955 30C33.0115 30 31 32.016 31 34.5C31 36.984 33.0115 39 35.4955 39C37.984 39 40 36.984 40 34.5C40 32.016 37.984 30 35.4955 30ZM36.9805 36.6195L35.05 34.6845V32.25H35.95V34.3155L37.6195 35.985L36.9805 36.6195Z" fill="#6557FF"/>
</svg>
