<svg width="309" height="326" viewBox="0 0 309 326" fill="none" xmlns="http://www.w3.org/2000/svg">
<g opacity="0.5">
<rect width="330" height="325.417" fill="white" fill-opacity="0.1"/>
<path d="M316.042 234.197C311.961 230.298 303.574 230.183 296.818 231.477C288.34 233.736 281.703 238.381 273.287 242.698" stroke="black" stroke-width="1.08811" stroke-linecap="round"/>
<path d="M147.091 51.482C253.108 67.9318 192.492 89.7292 185.92 91.6778C178.049 94.0119 170.063 96.447 160.742 99.5442C124.627 111.544 94.1855 129.551 89.5403 146.842" stroke="black" stroke-width="1.0605" stroke-linecap="round"/>
<path d="M143.72 11.3086C143.995 10.85 144.641 10.842 144.927 11.2937L168.441 48.3709C168.749 48.856 168.417 49.4994 167.854 49.5082L144.69 49.8684L121.851 49.8977C121.29 49.8984 120.946 49.2658 121.241 48.7753L143.72 11.3086Z" fill="#44E2C3"/>
<path fill-rule="evenodd" clip-rule="evenodd" d="M264.254 320.008C292.902 320.008 316.126 296.668 316.126 267.877C316.126 234.773 292.902 215.747 264.254 215.747C235.606 215.747 212.382 237.436 212.382 267.877C212.382 296.668 235.606 320.008 264.254 320.008Z" fill="#FFCE20"/>
<path d="M310.901 240.468C312.804 244.979 310.556 251.685 304.961 255.677C298.73 260.509 293.595 262.681 288.101 264.85C274.043 270.398 259.55 273.991 244.205 275.155C236.344 275.751 223.312 275.645 215.307 274.758C210.089 274.18 203.061 272.793 198.37 270.24C187.155 264.138 193.344 254.403 199.646 247.252" stroke="black" stroke-width="1.08811" stroke-linecap="round"/>
<path d="M89.5403 146.842C86.9595 157.681 92.7129 161.734 98.1863 166.622C113.274 180.097 132.117 185.204 148.708 188.602C169.809 192.923 234.442 196.943 203.731 243.103" stroke="black" stroke-width="1.08811" stroke-linecap="round"/>
<path d="M150.517 47.8146C128.413 41.6961 123.349 37.364 129.368 34.5776" stroke="black" stroke-width="1.08811" stroke-linecap="round"/>
<path d="M143.67 57.7492C139.181 49.4213 169.205 48.6137 165.561 43.0576" stroke="black" stroke-width="1.08811" stroke-linecap="round"/>
</g>
</svg>
