<svg width="12" height="12" viewBox="0 0 12 12" fill="none" xmlns="http://www.w3.org/2000/svg">
<path d="M2.024 4.02446L2.01875 3.97473H1.96875H1.625C1.47343 3.97473 1.3284 3.91633 1.22173 3.81289C1.11512 3.70951 1.05556 3.56967 1.05556 3.42423C1.05556 3.27879 1.11512 3.13895 1.22173 3.03557C1.3284 2.93213 1.47343 2.87373 1.625 2.87373H10.375C10.5266 2.87373 10.6716 2.93213 10.7783 3.03557C10.8849 3.13895 10.9444 3.27879 10.9444 3.42423C10.9444 3.56967 10.8849 3.70951 10.7783 3.81289C10.6716 3.91633 10.5266 3.97473 10.375 3.97473H10.0312H9.98125L9.976 4.02446L9.41358 9.35702C9.29192 10.2686 8.53424 10.9444 7.59375 10.9444L4.40625 10.9444L4.40583 10.9444C3.95241 10.9478 3.51434 10.7866 3.17775 10.4928C2.8412 10.1991 2.63049 9.79424 2.58653 9.35802L2.5865 9.35776L2.024 4.02446ZM8.27388 9.24926L8.27389 9.24926L8.27398 9.24834L8.83648 4.03625L8.84312 3.97473H8.78125H3.21875H3.15688L3.16352 4.03625L3.72601 9.24834L3.72612 9.24926C3.74641 9.41188 3.82674 9.56151 3.95175 9.6706C4.07671 9.77966 4.2379 9.8409 4.40543 9.84339H4.40625L7.59375 9.84339L7.59457 9.84338C7.7621 9.8409 7.92329 9.77966 8.04825 9.6706C8.17326 9.56151 8.25359 9.41188 8.27388 9.24926ZM5.46577 8.66135C5.3591 8.76479 5.21407 8.82319 5.0625 8.82319C4.91093 8.82319 4.7659 8.76479 4.65923 8.66135C4.55262 8.55797 4.49306 8.41813 4.49306 8.27269V5.39392C4.49306 5.24847 4.55262 5.10863 4.65923 5.00525C4.7659 4.90182 4.91093 4.84341 5.0625 4.84341C5.21407 4.84341 5.3591 4.90182 5.46577 5.00525C5.57238 5.10863 5.63194 5.24847 5.63194 5.39392V8.27269C5.63194 8.41813 5.57238 8.55797 5.46577 8.66135ZM7.34077 8.66135C7.2341 8.76479 7.08907 8.82319 6.9375 8.82319C6.78593 8.82319 6.6409 8.76479 6.53423 8.66135C6.42762 8.55797 6.36806 8.41813 6.36806 8.27269V5.39392C6.36806 5.24847 6.42762 5.10863 6.53423 5.00525C6.6409 4.90182 6.78593 4.84341 6.9375 4.84341C7.08907 4.84341 7.2341 4.90182 7.34077 5.00525C7.44738 5.10863 7.50694 5.24847 7.50694 5.39392V8.27269C7.50694 8.41813 7.44738 8.55797 7.34077 8.66135ZM6.78125 2.15656H5.0625C4.91093 2.15656 4.7659 2.09816 4.65923 1.99472C4.55262 1.89134 4.49306 1.7515 4.49306 1.60606C4.49306 1.46062 4.55262 1.32077 4.65923 1.21739C4.7659 1.11396 4.91093 1.05556 5.0625 1.05556H6.78125C6.93282 1.05556 7.07785 1.11396 7.18452 1.21739C7.29113 1.32077 7.35069 1.46062 7.35069 1.60606C7.35069 1.7515 7.29113 1.89134 7.18452 1.99472C7.07785 2.09816 6.93282 2.15656 6.78125 2.15656Z" fill="#5C5F62" stroke="white" stroke-width="0.111111"/>
</svg>
