<svg xmlns="http://www.w3.org/2000/svg" width="16" height="16" viewBox="0 0 16 16" fill="none">
    <path fill-rule="evenodd" clip-rule="evenodd" d="M4.45724 4.84819C4.72535 5.10054 4.73814 5.52245 4.48579 5.79057L2.24916 8.16699L4.48579 10.5434C4.73814 10.8115 4.72535 11.2334 4.45724 11.4858C4.18912 11.7381 3.7672 11.7254 3.51486 11.4572L0.848192 8.6239C0.606592 8.3672 0.606592 7.96678 0.848192 7.71008L3.51486 4.87675C3.7672 4.60864 4.18912 4.59585 4.45724 4.84819ZM11.5434 4.8482C11.2753 5.10054 11.2625 5.52246 11.5149 5.79057L13.7515 8.167L11.5149 10.5434C11.2625 10.8115 11.2753 11.2335 11.5434 11.4858C11.8115 11.7381 12.2335 11.7254 12.4858 11.4572L15.1525 8.62391C15.3941 8.36721 15.3941 7.96679 15.1525 7.71009L12.4858 4.87675C12.2335 4.60864 11.8115 4.59585 11.5434 4.8482Z" fill="black"/>
    <rect opacity="0.3" x="8.73633" y="2.67578" width="1.33333" height="10.6667" rx="0.666667" transform="rotate(15 8.73633 2.67578)" fill="black"/>
</svg>
