<svg width="76" height="70" viewBox="0 0 76 70" fill="none" xmlns="http://www.w3.org/2000/svg">
<path d="M37.6982 60.1385C52.3529 60.1385 64.2336 48.2577 64.2336 33.5507C64.2336 18.8437 52.3005 6.96289 37.6982 6.96289C23.0435 6.96289 11.1627 18.8437 11.1627 33.5507C11.1627 48.2577 23.0435 60.1385 37.6982 60.1385Z" fill="#EAEEF9"/>
<path d="M12.3665 16.1223C13.1758 16.1223 13.8319 15.4662 13.8319 14.6569C13.8319 13.8475 13.1758 13.1914 12.3665 13.1914C11.5571 13.1914 10.901 13.8475 10.901 14.6569C10.901 15.4662 11.5571 16.1223 12.3665 16.1223Z" fill="#F1F3F9"/>
<path d="M72.5834 32.6342C72.5272 32.5778 72.5272 32.5778 72.5834 32.6342C72.4711 32.7471 72.3589 32.8599 72.2467 32.8599C70.5635 32.5778 70.4513 32.4085 70.283 33.1421C70.283 33.1985 70.2269 33.2549 70.1147 33.2549C69.6097 33.1421 69.3292 33.1985 69.3292 32.9728C69.8342 30.1512 72.0784 32.5778 72.3028 31.2234C72.3028 31.167 72.3589 31.167 72.415 31.167L73.2566 31.3363C73.3127 31.3363 73.3127 31.3927 73.3127 31.4491C73.2005 32.1263 73.6494 32.1263 74.3787 32.2392C75.2764 32.4085 75.7253 33.0292 75.557 33.9321C75.5008 34.1014 75.5008 34.2707 75.3886 34.2707C74.547 34.1014 74.547 34.2143 74.6593 33.8192C74.7715 32.8035 72.5834 33.4242 72.5834 32.6342Z" fill="#D6DCE8"/>
<path d="M25.9428 0.23189C25.5466 0.628282 25.49 1.30781 25.8862 1.7042C26.1126 1.98734 26.5089 2.1006 26.9051 1.98734C27.0749 2.21385 27.0749 2.49699 26.9617 2.7235L26.3391 3.62954C26.2825 3.68617 26.2259 3.79942 26.2259 3.85605L25.6032 3.17652C25.773 2.61024 25.49 2.04397 24.924 1.87409C24.3579 1.7042 23.7919 1.98734 23.6221 2.55362C23.4523 3.11989 23.7353 3.68617 24.3013 3.85605C24.4711 3.91268 24.6975 3.91268 24.8674 3.85605L26.5089 5.6115C26.3391 6.17778 26.6221 6.74405 27.1881 6.91393C27.7542 7.08382 28.3202 6.80068 28.49 6.2344C28.49 6.17778 28.49 6.17778 28.5466 6.12115C28.5466 6.00789 28.5466 5.89464 28.5466 5.83801C28.49 5.27174 27.9806 4.81872 27.3579 4.93197C27.3013 4.93197 27.3013 4.93197 27.2447 4.93197C27.0749 4.70546 27.0183 4.42232 27.1881 4.19581L27.8108 3.28977C28.207 2.66687 28.1504 1.87409 27.6976 1.30781C27.6976 1.25118 27.6976 1.19456 27.7542 1.19456C27.7542 1.0813 27.7542 0.968047 27.7542 0.91142C27.6976 0.345145 27.1881 -0.0512474 26.6221 0.00538006C26.2825 0.00538006 26.1126 0.0620073 25.9428 0.23189ZM24.3579 2.61024C24.5277 2.49699 24.6975 2.49699 24.8674 2.61024C24.9806 2.78013 24.9806 2.95001 24.8674 3.11989C24.6975 3.23315 24.5277 3.23315 24.3579 3.11989C24.1881 3.00664 24.1881 2.78013 24.3579 2.61024ZM27.7542 5.78138C27.8108 5.83801 27.8108 5.89464 27.8108 5.95127C27.8108 6.12115 27.641 6.29103 27.4145 6.29103C27.2447 6.29103 27.0749 6.12115 27.0749 5.89464C27.0749 5.83801 27.1315 5.72476 27.1315 5.66813C27.1881 5.55487 27.3013 5.55487 27.4145 5.55487C27.5843 5.6115 27.6976 5.66813 27.7542 5.78138ZM26.3391 0.741537C26.4523 0.571654 26.6787 0.571655 26.8485 0.68491C26.9051 0.68491 26.9051 0.741537 26.9051 0.798165C26.9051 0.854792 26.9051 0.854792 26.9617 0.91142C26.9617 0.968047 26.9617 0.968047 26.9617 1.02467C26.9617 1.0813 26.9617 1.0813 26.9617 1.0813C26.9051 1.13793 26.8485 1.19456 26.7919 1.25118C26.6221 1.36444 26.3957 1.25118 26.3391 1.0813C26.2825 1.02467 26.2825 0.854792 26.3391 0.741537Z" fill="#D6DCE8"/>
<path d="M50.9142 7.07573L50.0558 7.53859C49.1973 6.67073 47.8811 6.67073 47.0227 7.53859C46.5648 8.00145 46.3359 8.69573 46.4504 9.39002L45.5347 9.79502C45.363 9.85288 45.3058 10.0843 45.4203 10.2L45.7636 10.8943C45.8209 11.0679 46.0498 11.1257 46.1642 11.01L47.0227 10.5472C47.8811 11.415 49.1973 11.415 50.0558 10.5472C50.5136 10.0843 50.7425 9.39002 50.6281 8.69573L51.4865 8.23288C51.6582 8.17502 51.7154 7.94359 51.6009 7.82788L51.2576 7.13359C51.2576 7.07573 51.0287 7.01787 50.9142 7.07573ZM49.0257 10.0265C48.5106 10.3157 47.8811 10.0843 47.5949 9.56359C47.3088 9.04288 47.5377 8.40645 48.0528 8.11716C48.5678 7.82788 49.1973 8.0593 49.4835 8.58002C49.7124 9.10073 49.5407 9.73716 49.0257 10.0265Z" fill="#C5CCDA"/>
<path d="M12.0143 51.1651L11.0098 49.3338C10.6331 48.6391 9.81685 48.3865 9.12621 48.7654L8.93785 48.8286L8.74949 48.5128C8.68671 48.3865 8.56114 48.3865 8.43557 48.4497C8.37278 48.4497 8.37278 48.5128 8.31 48.576L7.80771 49.839C7.74493 49.9653 7.80771 50.0916 7.93329 50.1547C7.93329 50.1547 7.93328 50.1547 7.99607 50.1547L9.31456 50.4073C9.44014 50.4073 9.56571 50.3442 9.56571 50.2179C9.56571 50.1547 9.56571 50.0916 9.56571 50.0916L9.37735 49.7758L9.56571 49.6495C9.75406 49.5232 10.068 49.5864 10.1308 49.839L11.1353 51.6703C10.947 51.9861 10.947 52.365 11.1353 52.6807C11.3865 53.1859 11.9516 53.3122 12.4538 53.0596C12.6422 52.9333 12.7678 52.807 12.8933 52.6175C12.9561 52.5544 12.9561 52.4281 12.9561 52.365C13.0189 51.7966 12.6422 51.2914 12.0771 51.2283C12.0771 51.1651 12.0143 51.1651 12.0143 51.1651ZM11.8888 52.4281C11.826 52.4281 11.826 52.4281 11.8888 52.4281C11.7004 52.3018 11.6376 52.1124 11.7632 51.9229C11.826 51.7966 11.9516 51.7335 12.0771 51.7335C12.1399 51.7335 12.2655 51.7966 12.3283 51.8598C12.4538 51.9861 12.4538 52.1755 12.3283 52.3018C12.1399 52.4913 12.0143 52.4912 11.8888 52.4281Z" fill="#D6DCE8"/>
<path d="M6.4892 49.5233C6.0497 49.7759 5.86134 50.4074 6.11249 50.8494C6.30084 51.1652 6.61477 51.3546 6.99148 51.3546L8.74947 54.5121C8.87505 54.7647 9.12619 54.8278 9.37733 54.7015C9.62847 54.5753 9.69126 54.3227 9.56569 54.0701L7.80769 50.9126C7.99605 50.5968 7.99605 50.2179 7.80769 49.9022C7.55655 49.4601 6.9287 49.2707 6.4892 49.5233ZM7.11705 50.66C6.9287 50.7231 6.74034 50.7231 6.67756 50.5337C6.61477 50.3442 6.61477 50.1548 6.80313 50.0916C6.99148 50.0285 7.17984 50.0285 7.24263 50.2179C7.30541 50.4074 7.24262 50.5968 7.11705 50.66Z" fill="#D6DCE8"/>
<path d="M37.0916 58.1945L37.1482 58.0829C37.318 57.7484 37.318 57.4139 37.1482 57.0793L36.6387 56.02C36.5821 55.9642 36.5821 55.8527 36.6387 55.797L36.8085 55.4067L37.0916 55.5739C37.2048 55.6297 37.318 55.5739 37.3746 55.4624C37.3746 55.4067 37.3746 55.3509 37.3746 55.3509L37.1482 54.1243C37.1482 54.0128 37.0349 53.957 36.9217 53.957H36.8651L35.7329 54.4588C35.6197 54.5146 35.5631 54.6261 35.6197 54.7376C35.6197 54.7934 35.6763 54.7934 35.7329 54.8491L36.016 55.0164L35.8462 55.4067C35.7895 55.4624 35.7329 55.5182 35.6763 55.5182L34.4875 55.6855C34.1479 55.7412 33.8082 55.9642 33.695 56.243L33.6384 56.3545C33.1289 56.3545 32.7327 56.7448 32.7327 57.2466C32.7327 57.7484 33.1289 58.1387 33.6384 58.1387C34.1479 58.1387 34.5442 57.7484 34.5442 57.2466C34.5442 57.0793 34.4875 56.9121 34.3743 56.8006L34.4309 56.6891C34.4875 56.6333 34.5442 56.5775 34.6008 56.5775L35.6197 56.4103C35.7329 56.4103 35.8462 56.466 35.9028 56.5775L36.3556 57.5254C36.4122 57.5811 36.4122 57.6927 36.3556 57.7484L36.299 57.8599C35.7895 57.8599 35.3933 58.306 35.4499 58.752C35.4499 59.2538 35.9028 59.6441 36.3556 59.5883C36.8651 59.5883 37.2614 59.1423 37.2048 58.6963C37.2614 58.529 37.2048 58.3617 37.0916 58.1945ZM33.5252 57.5811C33.3554 57.5254 33.2988 57.3024 33.412 57.1909C33.4686 57.0236 33.695 56.9678 33.8082 57.0793C33.9781 57.1351 34.0347 57.3581 33.9215 57.4696C33.8648 57.5811 33.6384 57.6369 33.5252 57.5811ZM36.1858 58.975C36.016 58.9193 35.9594 58.6963 36.0726 58.5847C36.1292 58.4175 36.3556 58.3617 36.4689 58.4732C36.5821 58.5847 36.6953 58.752 36.5821 58.8635C36.5255 58.975 36.3556 59.0308 36.1858 58.975Z" fill="#C5CCDA"/>
<g filter="url(#filter0_d_4655_12426)">
<path d="M39.0982 46.7283L12.9057 48.4499L10.7876 16.2263C10.7186 15.1773 11.507 14.2658 12.5607 14.1965L31.394 12.9586L37.2151 18.0796L39.0982 46.7283Z" fill="url(#paint0_linear_4655_12426)"/>
</g>
<path d="M31.4089 13.1865L31.5795 15.7812C31.6842 17.3747 33.0609 18.5816 34.6544 18.4768L37.2301 18.3075" fill="#D5DDEA"/>
<g opacity="0.5">
<path d="M23.2701 24.5451L18.7549 25.3135C18.561 25.3468 18.4213 25.3367 18.4201 25.3029C18.4187 25.2635 18.5839 25.2069 18.7501 25.1784L23.2653 24.4099C23.4592 24.3766 23.5989 24.3867 23.6001 24.4205C23.6013 24.4543 23.464 24.5118 23.2701 24.5451Z" fill="#D6DCE8"/>
<path d="M23.8464 33.3117L19.3312 34.0801C19.1373 34.1134 18.9976 34.1033 18.9964 34.0695C18.995 34.0301 19.1602 33.9735 19.3264 33.945L23.8416 33.1765C24.0355 33.1432 24.1752 33.1533 24.1764 33.1871C24.1776 33.2209 24.0403 33.2784 23.8464 33.3117Z" fill="#D6DCE8"/>
<path d="M33.9065 23.8299L28.7037 24.663C28.51 24.6942 28.3704 24.6851 28.3691 24.6537C28.3676 24.617 28.5326 24.5641 28.6987 24.5373L33.8738 23.7087C34.0675 23.6775 34.2071 23.6866 34.2084 23.718C34.2373 23.745 34.1002 23.7987 33.9065 23.8299Z" fill="#EAECF3"/>
<path d="M34.4828 32.5975L29.28 33.4306C29.0863 33.4618 28.9467 33.4527 28.9454 33.4213C28.9439 33.3846 29.1089 33.3316 29.2749 33.3049L34.4501 32.4762C34.6438 32.445 34.7834 32.4542 34.7847 32.4856C34.8136 32.5126 34.6765 32.5663 34.4828 32.5975Z" fill="#EAECF3"/>
<path d="M30.8979 30.5532L25.6953 31.3845C25.5016 31.4156 25.362 31.4065 25.3607 31.3752C25.3592 31.3386 25.5242 31.2858 25.6902 31.2591L30.8929 30.4278C31.0866 30.3966 31.2262 30.4057 31.2275 30.4371C31.2289 30.4737 31.064 30.5265 30.8979 30.5532Z" fill="#D6DCE8"/>
<path d="M31.4743 39.3207L26.2717 40.1521C26.078 40.1832 25.9384 40.1741 25.9371 40.1428C25.9356 40.1062 26.1006 40.0534 26.2666 40.0267L31.4693 39.1953C31.663 39.1641 31.8026 39.1732 31.8039 39.2046C31.8054 39.2412 31.6404 39.294 31.4743 39.3207Z" fill="#D6DCE8"/>
<path d="M27.279 24.3196L24.7452 24.8732C24.5503 24.9164 24.4101 24.9018 24.4092 24.8564C24.408 24.8035 24.5743 24.7286 24.7413 24.6916L27.2752 24.138C27.4701 24.0948 27.6103 24.1094 27.6112 24.1548C27.6402 24.2016 27.4739 24.2764 27.279 24.3196Z" fill="#AAB2C5"/>
<path d="M27.8554 33.0862L25.3215 33.6398C25.1266 33.683 24.9864 33.6684 24.9855 33.623C24.9843 33.5701 25.1506 33.4952 25.3176 33.4582L27.8515 32.9046C28.0464 32.8615 28.1866 32.876 28.1875 32.9214C28.2165 32.9682 28.0503 33.0431 27.8554 33.0862Z" fill="#AAB2C5"/>
<path d="M16.9976 25.0172L15.1267 25.4764C14.9312 25.5244 14.7907 25.5076 14.7899 25.4566C14.7888 25.397 14.9277 25.3202 15.1232 25.2722L16.994 24.8131C17.1895 24.7651 17.33 24.7819 17.3309 24.8329C17.3319 24.8924 17.193 24.9692 16.9976 25.0172Z" fill="#AAB2C5"/>
<path d="M17.574 33.7848L15.7031 34.244C15.5077 34.2919 15.3672 34.2752 15.3663 34.2241C15.3652 34.1646 15.5041 34.0878 15.6996 34.0398L17.5704 33.5806C17.7659 33.5327 17.9064 33.5494 17.9073 33.6005C17.9083 33.66 17.7694 33.7368 17.574 33.7848Z" fill="#AAB2C5"/>
<path d="M24.2898 26.6995L21.5632 27.2773C21.3684 27.3191 21.2283 27.3052 21.2273 27.2614C21.2262 27.2103 21.3923 27.138 21.5592 27.1022L24.2858 26.5243C24.4806 26.4825 24.6207 26.4965 24.6217 26.5402C24.6505 26.5781 24.4845 26.6577 24.2898 26.6995Z" fill="#D6DCE8"/>
<path d="M24.8661 35.467L22.1395 36.0449C21.9447 36.0868 21.8046 36.0728 21.8036 36.029C21.8025 35.9779 21.9686 35.9056 22.1355 35.8697L24.8621 35.2918C25.0569 35.25 25.197 35.264 25.198 35.3078C25.2268 35.3456 25.0608 35.4252 24.8661 35.467Z" fill="#D6DCE8"/>
<path d="M32.6504 26.0719L25.7673 27.0721C25.5738 27.1006 25.4343 27.0927 25.4329 27.0644C25.4313 27.0314 25.596 26.9834 25.7619 26.9589L32.645 25.9587C32.8385 25.9302 32.978 25.9381 32.9794 25.9664C32.9808 25.9947 32.8163 26.0474 32.6504 26.0719Z" fill="#D6DCE8"/>
<path d="M33.2267 34.8394L26.3436 35.8397C26.1501 35.8682 26.0106 35.8603 26.0092 35.832C26.0076 35.799 26.1723 35.7509 26.3382 35.7265L33.2213 34.7262C33.4148 34.6977 33.5543 34.7056 33.5557 34.7339C33.557 34.7622 33.3926 34.8149 33.2267 34.8394Z" fill="#D6DCE8"/>
<path d="M19.8099 26.9269L15.2689 27.6872C15.0751 27.7196 14.9354 27.7099 14.9342 27.6771C14.9328 27.6387 15.0979 27.5835 15.264 27.5557L19.805 26.7954C19.9988 26.763 20.1385 26.7727 20.1397 26.8055C20.141 26.8384 20.0037 26.8944 19.8099 26.9269Z" fill="#EAECF3"/>
<path d="M20.3862 35.6945L15.8452 36.4547C15.6514 36.4872 15.5117 36.4775 15.5105 36.4446C15.5091 36.4063 15.6742 36.3511 15.8403 36.3233L20.3813 35.563C20.5751 35.5306 20.7148 35.5402 20.716 35.5731C20.7172 35.606 20.58 35.662 20.3862 35.6945Z" fill="#EAECF3"/>
<path d="M27.9789 28.5375L21.7042 29.459C21.5107 29.4875 21.3711 29.4796 21.3698 29.4512C21.3682 29.4182 21.5329 29.3701 21.6988 29.3456L28.0011 28.42C28.1946 28.3915 28.3341 28.3994 28.3355 28.4278C28.3371 28.4608 28.1724 28.5089 27.9789 28.5375Z" fill="#AAB2C5"/>
<path d="M28.5551 37.3051L22.2804 38.2265C22.0869 38.2551 21.9473 38.2471 21.946 38.2188C21.9444 38.1857 22.1091 38.1376 22.2749 38.1131L28.5773 37.1876C28.7708 37.159 28.9103 37.167 28.9117 37.1953C28.9133 37.2284 28.7486 37.2765 28.5551 37.3051Z" fill="#AAB2C5"/>
<path d="M19.9516 29.0831L15.4107 29.8434C15.2168 29.8759 15.0772 29.8662 15.0759 29.8333C15.0745 29.795 15.2396 29.7398 15.4058 29.7119L19.9467 28.9517C20.1406 28.9192 20.2802 28.9289 20.2815 28.9618C20.2827 28.9946 20.1455 29.0507 19.9516 29.0831Z" fill="#D6DCE8"/>
<path d="M20.5278 37.8507L15.9868 38.611C15.793 38.6434 15.6533 38.6338 15.6521 38.6009C15.6507 38.5625 15.8158 38.5073 15.9819 38.4795L20.5229 37.7193C20.7167 37.6868 20.8564 37.6965 20.8576 37.7294C20.8589 37.7622 20.7216 37.8183 20.5278 37.8507Z" fill="#D6DCE8"/>
<path d="M23.9968 31.021L20.5269 31.6846C20.3326 31.7221 20.1927 31.7101 20.1916 31.6713C20.1904 31.6261 20.356 31.5616 20.5225 31.5294L23.9924 30.8659C24.1867 30.8283 24.3266 30.8403 24.3277 30.8791C24.3289 30.9244 24.1911 30.9835 23.9968 31.021Z" fill="#EAECF3"/>
<path d="M24.5733 39.7886L21.1034 40.4522C20.9091 40.4897 20.7692 40.4777 20.7682 40.4389C20.7669 40.3937 20.9325 40.3292 21.0991 40.297L24.569 39.6334C24.7633 39.5959 24.9031 39.6079 24.9042 39.6467C24.9055 39.692 24.7676 39.7511 24.5733 39.7886Z" fill="#EAECF3"/>
<path d="M18.3605 31.4038L15.5528 31.9859C15.3582 32.0263 15.2182 32.013 15.2171 31.9709C15.2159 31.9218 15.3819 31.8521 15.5487 31.8176L18.3564 31.2354C18.551 31.1951 18.691 31.2084 18.692 31.2505C18.721 31.2938 18.5551 31.3635 18.3605 31.4038Z" fill="#AAB2C5"/>
<path d="M18.9367 40.1714L16.1291 40.7535C15.9345 40.7939 15.7944 40.7806 15.7934 40.7385C15.7922 40.6894 15.9582 40.6197 16.125 40.5851L18.9327 40.003C19.1273 39.9627 19.2673 39.9759 19.2683 40.018C19.2973 40.0614 19.1313 40.131 18.9367 40.1714Z" fill="#AAB2C5"/>
<path d="M27.5869 20.8027L14.9061 22.2254C14.7132 22.2472 14.5737 22.2422 14.572 22.2217C14.57 22.1978 14.734 22.162 14.8994 22.1434L27.5801 20.7206C27.7731 20.6989 27.9126 20.7039 27.9143 20.7244C27.9163 20.7483 27.7798 20.7809 27.5869 20.8027Z" fill="#AAB2C5"/>
</g>
<path d="M19.8013 27.7667L19.9085 29.3978C19.9337 29.7816 19.8755 30.2672 19.0681 30.3203L18.8886 30.3321L19.0021 32.0592L19.1816 32.0474C19.7199 32.012 20.0977 32.2763 20.1355 32.8519L20.2491 34.579C20.35 36.1142 21.2205 37.0206 22.7458 36.9204L23.3738 36.8791L23.2603 35.152L22.6323 35.1933C22.3631 35.211 21.9979 35.1386 21.9538 34.467L21.8276 32.548C21.7835 31.8764 21.4828 31.4143 20.9255 31.1618C21.4449 30.8386 21.6763 30.2452 21.6384 29.6695L21.5123 27.7506C21.4744 27.1749 21.8207 26.9594 22.0899 26.9417L22.6282 26.9063L22.5084 25.0833L21.8803 25.1246C20.4448 25.2189 19.6941 26.1355 19.8013 27.7667Z" fill="#989FB0"/>
<path d="M29.6194 28.6831L29.5141 27.0819C29.415 25.5749 28.5273 24.6873 26.9674 24.7898L26.3251 24.832L26.4365 26.5274L26.9871 26.4913C27.2624 26.4732 27.6356 26.5432 27.6789 27.2025L27.8027 29.0863C27.8461 29.7457 28.1523 30.1985 28.7214 30.4449C28.2812 30.7576 28.0431 31.3409 28.0802 31.906L28.2041 33.7898C28.2474 34.4491 27.7948 34.5735 27.6113 34.5855L26.969 34.6277L27.0804 36.3231L27.7227 36.2809C29.2826 36.1784 30.0527 35.2764 29.9475 33.6752L29.8422 32.074C29.8051 31.5088 30.0618 31.2082 30.6124 31.172L30.7959 31.1599L30.6844 29.4645L30.5009 29.4766C29.9504 29.5128 29.6565 29.2483 29.6194 28.6831Z" fill="#989FB0"/>
<g filter="url(#filter1_d_4655_12426)">
<path d="M61.0285 54.046L34.9393 51.1531L38.4983 19.0566C38.6142 18.0118 39.5501 17.2525 40.5996 17.3689L59.3585 19.4489L64.1927 25.5104L61.0285 54.046Z" fill="url(#paint1_linear_4655_12426)"/>
</g>
<path d="M59.3333 19.6758L59.0467 22.2603C58.8707 23.8474 60.0147 25.2768 61.6018 25.4528L64.1674 25.7372" fill="#D5DDEA"/>
<g opacity="0.5">
<path d="M49.3033 29.9042L44.7859 28.9278C44.5919 28.8861 44.4562 28.8222 44.4592 28.788C44.4626 28.7482 44.6314 28.7555 44.7977 28.7912L49.3151 29.7676C49.5091 29.8093 49.6447 29.8732 49.6418 29.9074C49.6388 29.9415 49.4973 29.9459 49.3033 29.9042Z" fill="#D6DCE8"/>
<path d="M48.335 38.6376L43.8176 37.6612C43.6236 37.6195 43.488 37.5556 43.4909 37.5214C43.4944 37.4816 43.6631 37.4889 43.8294 37.5246L48.3468 38.501C48.5408 38.5427 48.6765 38.6066 48.6735 38.6408C48.6706 38.6749 48.529 38.6793 48.335 38.6376Z" fill="#D6DCE8"/>
<path d="M59.8976 31.0855L54.6951 30.016C54.5013 29.9763 54.366 29.9159 54.369 29.8837C54.3726 29.8461 54.5412 29.8533 54.7072 29.8873L59.8821 30.9511C60.0759 30.9907 60.2112 31.0512 60.2082 31.0834C60.2328 31.1212 60.0914 31.1251 59.8976 31.0855Z" fill="#EAECF3"/>
<path d="M58.9293 39.818L53.7267 38.7484C53.5329 38.7088 53.3976 38.6483 53.4007 38.6161C53.4042 38.5786 53.5728 38.5857 53.7388 38.6197L58.9138 39.6836C59.1075 39.7233 59.2428 39.7837 59.2398 39.8159C59.2644 39.8538 59.123 39.8576 58.9293 39.818Z" fill="#EAECF3"/>
<path d="M55.7582 37.1742L50.5559 36.1064C50.3621 36.0669 50.2268 36.0065 50.2299 35.9744C50.2334 35.9369 50.402 35.9441 50.5681 35.978L55.7704 37.0457C55.9641 37.0853 56.0994 37.1457 56.0964 37.1778C56.0928 37.2152 55.9243 37.2081 55.7582 37.1742Z" fill="#D6DCE8"/>
<path d="M54.7897 45.9066L49.5874 44.8388C49.3936 44.7993 49.2583 44.7389 49.2614 44.7068C49.2649 44.6693 49.4335 44.6765 49.5996 44.7104L54.8019 45.7782C54.9956 45.8177 55.131 45.8781 55.1279 45.9102C55.1244 45.9477 54.9558 45.9405 54.7897 45.9066Z" fill="#D6DCE8"/>
<path d="M53.3018 30.3023L50.7593 29.6196C50.5637 29.5677 50.4266 29.4865 50.4292 29.4425C50.4322 29.3912 50.602 29.399 50.7697 29.4436L53.3121 30.1263C53.5077 30.1782 53.6449 30.2593 53.6423 30.3034C53.6672 30.3621 53.4974 30.3543 53.3018 30.3023Z" fill="#AAB2C5"/>
<path d="M52.3334 39.0349L49.7909 38.3521C49.5953 38.3001 49.4582 38.219 49.4608 38.175C49.4638 38.1236 49.6336 38.1314 49.8013 38.176L52.3437 38.8588C52.5394 38.9107 52.6765 38.9919 52.6739 39.0359C52.6988 39.0947 52.529 39.0868 52.3334 39.0349Z" fill="#AAB2C5"/>
<path d="M43.0632 29.1312L41.1824 28.5854C40.9859 28.5283 40.848 28.4387 40.8504 28.3898C40.8533 28.3327 40.9957 28.3327 41.1922 28.3898L43.073 28.9356C43.2695 28.9926 43.4074 29.0823 43.405 29.1312C43.4021 29.1882 43.2597 29.1883 43.0632 29.1312Z" fill="#AAB2C5"/>
<path d="M42.0948 37.8638L40.214 37.3178C40.0175 37.2608 39.8796 37.1711 39.8821 37.1222C39.8849 37.0652 40.0273 37.0652 40.2238 37.1222L42.1047 37.6681C42.3012 37.7251 42.4391 37.8148 42.4366 37.8637C42.4338 37.9208 42.2913 37.9208 42.0948 37.8638Z" fill="#AAB2C5"/>
<path d="M49.9401 32.1337L47.2054 31.4193C47.01 31.3688 46.8731 31.29 46.8757 31.2474C46.8788 31.1976 47.0484 31.2054 47.2159 31.2487L49.9506 31.9632C50.146 32.0137 50.2829 32.0924 50.2803 32.135C50.3056 32.1849 50.1355 32.1842 49.9401 32.1337Z" fill="#D6DCE8"/>
<path d="M48.9717 40.8671L46.237 40.1527C46.0416 40.1022 45.9047 40.0234 45.9073 39.9808C45.9104 39.931 46.0801 39.9388 46.2475 39.9821L48.9823 40.6966C49.1776 40.7471 49.3145 40.8258 49.3119 40.8684C49.3372 40.9183 49.1671 40.9176 48.9717 40.8671Z" fill="#D6DCE8"/>
<path d="M58.2621 33.1358L51.3853 31.8085C51.1919 31.7716 51.057 31.7157 51.0602 31.6861C51.0639 31.6516 51.2323 31.6586 51.398 31.6902L58.2748 33.0175C58.4682 33.0544 58.6031 33.1103 58.6 33.1399C58.5968 33.1695 58.4279 33.1674 58.2621 33.1358Z" fill="#D6DCE8"/>
<path d="M57.2937 41.8681L50.4169 40.5409C50.2235 40.504 50.0886 40.4481 50.0918 40.4185C50.0955 40.384 50.2639 40.391 50.4296 40.4226L57.3064 41.7498C57.4998 41.7867 57.6348 41.8426 57.6316 41.8722C57.6284 41.9018 57.4595 41.8997 57.2937 41.8681Z" fill="#D6DCE8"/>
<path d="M45.4797 31.6282L40.9368 30.6704C40.7429 30.6295 40.6074 30.5669 40.6104 30.5336C40.6138 30.4946 40.7825 30.5018 40.9487 30.5369L45.4917 31.4947C45.6856 31.5356 45.8211 31.5981 45.8181 31.6315C45.8151 31.6649 45.6736 31.6691 45.4797 31.6282Z" fill="#EAECF3"/>
<path d="M44.5114 40.3616L39.9684 39.4038C39.7745 39.3629 39.639 39.3003 39.642 39.267C39.6455 39.228 39.8142 39.2352 39.9804 39.2703L44.5233 40.2281C44.7172 40.269 44.8527 40.3315 44.8497 40.3649C44.8468 40.3983 44.7053 40.4025 44.5114 40.3616Z" fill="#EAECF3"/>
<path d="M53.2341 34.6942L46.9638 33.4914C46.7704 33.4544 46.6355 33.3984 46.6387 33.3688C46.6424 33.3342 46.8108 33.3412 46.9765 33.3729L53.2745 34.581C53.4679 34.618 53.6028 34.674 53.5996 34.7036C53.5959 34.7382 53.4275 34.7312 53.2341 34.6942Z" fill="#AAB2C5"/>
<path d="M52.2659 43.4276L45.9955 42.2248C45.8022 42.1878 45.6672 42.1318 45.6704 42.1022C45.6741 42.0676 45.8425 42.0746 46.0083 42.1063L52.3062 43.3144C52.4996 43.3514 52.6345 43.4074 52.6314 43.437C52.6277 43.4715 52.4593 43.4646 52.2659 43.4276Z" fill="#AAB2C5"/>
<path d="M45.2416 33.7757L40.6986 32.8179C40.5047 32.777 40.3692 32.7144 40.3722 32.681C40.3757 32.6421 40.5444 32.6493 40.7106 32.6843L45.2535 33.6421C45.4474 33.683 45.5829 33.7456 45.58 33.779C45.577 33.8124 45.4355 33.8165 45.2416 33.7757Z" fill="#D6DCE8"/>
<path d="M44.2732 42.5089L39.7303 41.5512C39.5363 41.5104 39.4008 41.4478 39.4038 41.4144C39.4073 41.3755 39.576 41.3827 39.7422 41.4177L44.2851 42.3754C44.479 42.4163 44.6146 42.4789 44.6116 42.5123C44.6086 42.5456 44.4671 42.5498 44.2732 42.5089Z" fill="#D6DCE8"/>
<path d="M48.8897 36.3732L45.414 35.544C45.2194 35.4979 45.0831 35.4266 45.0859 35.3883C45.0891 35.3435 45.2583 35.351 45.4251 35.3905L48.9008 36.2197C49.0955 36.2658 49.2318 36.3371 49.229 36.3754C49.2257 36.4202 49.0844 36.4193 48.8897 36.3732Z" fill="#EAECF3"/>
<path d="M47.9213 45.1065L44.4457 44.2773C44.251 44.2313 44.1147 44.16 44.1175 44.1216C44.1207 44.0769 44.2899 44.0844 44.4568 44.1239L47.9325 44.953C48.1271 44.9991 48.2634 45.0704 48.2606 45.1087C48.2574 45.1535 48.116 45.1525 47.9213 45.1065Z" fill="#EAECF3"/>
<path d="M43.2779 35.7185L40.4626 35.0114C40.2675 34.9624 40.1308 34.8862 40.1334 34.845C40.1366 34.797 40.306 34.8047 40.4733 34.8467L43.2886 35.5538C43.4838 35.6028 43.6205 35.6789 43.6178 35.7201C43.6425 35.7751 43.4731 35.7675 43.2779 35.7185Z" fill="#AAB2C5"/>
<path d="M42.3095 44.4509L39.4942 43.7438C39.2991 43.6948 39.1624 43.6186 39.1651 43.5775C39.1682 43.5294 39.3377 43.5371 39.5049 43.5791L42.3203 44.2862C42.5154 44.3352 42.6521 44.4114 42.6494 44.4525C42.6742 44.5076 42.5047 44.4999 42.3095 44.4509Z" fill="#AAB2C5"/>
<path d="M54.1917 27.0942L41.54 25.1053C41.3475 25.0752 41.2135 25.0305 41.2172 25.0073C41.2214 24.9803 41.3894 24.9868 41.5544 25.0126L54.2061 27.0015C54.3987 27.0316 54.5326 27.0763 54.529 27.0995C54.5248 27.1266 54.3843 27.1244 54.1917 27.0942Z" fill="#AAB2C5"/>
</g>
<path d="M43.4225 39.6016L45.2036 39.7991L50.3291 30.973L48.459 30.7656L43.4225 39.6016Z" fill="#989FB0"/>
<path d="M51.1199 32.3135L50.8614 34.6442L53.6376 36.5606L50.509 37.8224L50.2623 40.0471L55.8501 37.6639L56.0381 35.9689L51.1199 32.3135Z" fill="#989FB0"/>
<defs>
<filter id="filter0_d_4655_12426" x="0.181306" y="7.65797" width="49.519" height="56.6952" filterUnits="userSpaceOnUse" color-interpolation-filters="sRGB">
<feFlood flood-opacity="0" result="BackgroundImageFix"/>
<feColorMatrix in="SourceAlpha" type="matrix" values="0 0 0 0 0 0 0 0 0 0 0 0 0 0 0 0 0 0 127 0" result="hardAlpha"/>
<feOffset dy="5.30101"/>
<feGaussianBlur stdDeviation="5.30101"/>
<feColorMatrix type="matrix" values="0 0 0 0 0.397708 0 0 0 0 0.47749 0 0 0 0 0.575 0 0 0 0.27 0"/>
<feBlend mode="normal" in2="BackgroundImageFix" result="effect1_dropShadow_4655_12426"/>
<feBlend mode="normal" in="SourceGraphic" in2="effect1_dropShadow_4655_12426" result="shape"/>
</filter>
<filter id="filter1_d_4655_12426" x="24.3373" y="12.0564" width="50.4575" height="57.8925" filterUnits="userSpaceOnUse" color-interpolation-filters="sRGB">
<feFlood flood-opacity="0" result="BackgroundImageFix"/>
<feColorMatrix in="SourceAlpha" type="matrix" values="0 0 0 0 0 0 0 0 0 0 0 0 0 0 0 0 0 0 127 0" result="hardAlpha"/>
<feOffset dy="5.30101"/>
<feGaussianBlur stdDeviation="5.30101"/>
<feColorMatrix type="matrix" values="0 0 0 0 0.397708 0 0 0 0 0.47749 0 0 0 0 0.575 0 0 0 0.27 0"/>
<feBlend mode="normal" in2="BackgroundImageFix" result="effect1_dropShadow_4655_12426"/>
<feBlend mode="normal" in="SourceGraphic" in2="effect1_dropShadow_4655_12426" result="shape"/>
</filter>
<linearGradient id="paint0_linear_4655_12426" x1="23.6982" y1="12.6716" x2="26.0176" y2="47.9576" gradientUnits="userSpaceOnUse">
<stop stop-color="#FDFEFF"/>
<stop offset="0.9964" stop-color="#ECF0F5"/>
</linearGradient>
<linearGradient id="paint1_linear_4655_12426" x1="51.832" y1="17.8184" x2="47.9348" y2="52.9651" gradientUnits="userSpaceOnUse">
<stop stop-color="#FDFEFF"/>
<stop offset="0.9964" stop-color="#ECF0F5"/>
</linearGradient>
</defs>
</svg>
