<svg width="14" height="14" viewBox="0 0 14 14" fill="none" xmlns="http://www.w3.org/2000/svg">
<path d="M7.00004 0.333252C3.32671 0.333252 0.333374 3.32659 0.333374 6.99992C0.333374 10.6733 3.32671 13.6666 7.00004 13.6666C10.6734 13.6666 13.6667 10.6733 13.6667 6.99992C13.6667 3.32659 10.6734 0.333252 7.00004 0.333252ZM10.1867 5.46659L6.40671 9.24659C6.31337 9.33992 6.18671 9.39325 6.05337 9.39325C5.92004 9.39325 5.79337 9.33992 5.70004 9.24659L3.81337 7.35992C3.62004 7.16659 3.62004 6.84659 3.81337 6.65325C4.00671 6.45992 4.32671 6.45992 4.52004 6.65325L6.05337 8.18659L9.48004 4.75992C9.67337 4.56659 9.99337 4.56659 10.1867 4.75992C10.38 4.95325 10.38 5.26659 10.1867 5.46659Z" fill="#27AE60"/>
</svg>
