<svg width="38" height="38" viewBox="0 0 38 38" fill="none" xmlns="http://www.w3.org/2000/svg">
<circle cx="19" cy="19" r="19" fill="#FFC633" fill-opacity="0.1"/>
<circle cx="19.2534" cy="19.38" r="9.5" fill="#FFC13C"/>
<circle cx="19.2534" cy="19.38" r="9.5" fill="url(#paint0_linear_3290_12303)" fill-opacity="0.45"/>
<path d="M9.48119 11.3917C9.63184 11.1456 9.98862 11.1434 10.1423 11.3876L14.8299 18.836C14.9929 19.0951 14.8067 19.4323 14.5006 19.4323L5.25435 19.4323C4.95039 19.4323 4.76382 19.0993 4.9225 18.8401L9.48119 11.3917Z" fill="#44E2C3"/>
<path d="M9.48119 11.3917C9.63184 11.1456 9.98862 11.1434 10.1423 11.3876L14.8299 18.836C14.9929 19.0951 14.8067 19.4323 14.5006 19.4323L5.25435 19.4323C4.95039 19.4323 4.76382 19.0993 4.9225 18.8401L9.48119 11.3917Z" fill="url(#paint1_linear_3290_12303)" fill-opacity="0.65"/>
<g filter="url(#filter0_d_3290_12303)">
<path d="M26.6772 20.7066C26.6772 20.6294 26.7392 20.5669 26.8157 20.5669L30.2913 20.5669C30.3678 20.5669 30.4298 20.6294 30.4298 20.7066L30.4298 30.2178C30.4298 30.2949 30.3678 30.3574 30.2913 30.3574L26.8157 30.3574C26.7392 30.3574 26.6772 30.2949 26.6772 30.2178L26.6772 20.7066Z" fill="#6557FF"/>
<path d="M23.4238 23.9188C23.4238 23.8417 23.4858 23.7792 23.5622 23.7792L29.9452 23.7792C30.0217 23.7792 30.0836 23.8417 30.0836 23.9188L30.0836 30.2178C30.0836 30.2949 30.0217 30.3574 29.9452 30.3574L23.5622 30.3574C23.4858 30.3574 23.4238 30.2949 23.4238 30.2178L23.4238 23.9188Z" fill="#6557FF"/>
<path d="M20.4473 26.9216C20.4473 26.8445 20.5092 26.7819 20.5857 26.7819L30.2913 26.7819C30.3678 26.7819 30.4298 26.8445 30.4298 26.9216L30.4298 30.2178C30.4298 30.2949 30.3678 30.3574 30.2913 30.3574L20.5857 30.3574C20.5092 30.3574 20.4473 30.2949 20.4473 30.2178L20.4473 26.9216Z" fill="#6557FF"/>
</g>
<defs>
<filter id="filter0_d_3290_12303" x="18.9317" y="19.3039" width="12.0032" height="11.8113" filterUnits="userSpaceOnUse" color-interpolation-filters="sRGB">
<feFlood flood-opacity="0" result="BackgroundImageFix"/>
<feColorMatrix in="SourceAlpha" type="matrix" values="0 0 0 0 0 0 0 0 0 0 0 0 0 0 0 0 0 0 127 0" result="hardAlpha"/>
<feOffset dx="-0.505187" dy="-0.252593"/>
<feGaussianBlur stdDeviation="0.505187"/>
<feComposite in2="hardAlpha" operator="out"/>
<feColorMatrix type="matrix" values="0 0 0 0 0.591667 0 0 0 0 0.561122 0 0 0 0 0.48566 0 0 0 0.03 0"/>
<feBlend mode="normal" in2="BackgroundImageFix" result="effect1_dropShadow_3290_12303"/>
<feBlend mode="normal" in="SourceGraphic" in2="effect1_dropShadow_3290_12303" result="shape"/>
</filter>
<linearGradient id="paint0_linear_3290_12303" x1="20.154" y1="21.3064" x2="11.4456" y2="9.97537" gradientUnits="userSpaceOnUse">
<stop stop-color="white" stop-opacity="0"/>
<stop offset="1" stop-color="white"/>
</linearGradient>
<linearGradient id="paint1_linear_3290_12303" x1="4.65613" y1="12.7113" x2="9.57855" y2="17.563" gradientUnits="userSpaceOnUse">
<stop stop-color="white"/>
<stop offset="1" stop-color="white" stop-opacity="0"/>
</linearGradient>
</defs>
</svg>
