<svg width="38" height="38" viewBox="0 0 38 38" fill="none" xmlns="http://www.w3.org/2000/svg">
<circle cx="19" cy="19" r="19" fill="#FFF6E0"/>
<path d="M27.4921 23.4219L20.6249 10.9531C20.4605 10.6532 20.2237 10.4041 19.9384 10.2309C19.6532 10.0577 19.3294 9.96655 18.9999 9.96655C18.6704 9.96655 18.3466 10.0577 18.0614 10.2309C17.7761 10.4041 17.5393 10.6532 17.3749 10.9531L10.5077 23.4219C10.3409 23.7202 10.2522 24.0596 10.2508 24.4056C10.2493 24.7516 10.335 25.0918 10.4992 25.3917C10.6635 25.6917 10.9004 25.9406 11.1859 26.1133C11.4714 26.286 11.7954 26.3763 12.1249 26.375H25.8749C26.2044 26.3763 26.5284 26.286 26.8139 26.1133C27.0994 25.9406 27.3363 25.6917 27.5006 25.3917C27.6648 25.0918 27.7505 24.7516 27.7491 24.4056C27.7476 24.0596 27.6589 23.7202 27.4921 23.4219ZM18.3749 16.5312C18.3749 16.3572 18.4408 16.1903 18.558 16.0672C18.6752 15.9441 18.8341 15.875 18.9999 15.875C19.1657 15.875 19.3246 15.9441 19.4418 16.0672C19.5591 16.1903 19.6249 16.3572 19.6249 16.5312V19.8125C19.6249 19.9865 19.5591 20.1535 19.4418 20.2765C19.3246 20.3996 19.1657 20.4687 18.9999 20.4687C18.8341 20.4687 18.6752 20.3996 18.558 20.2765C18.4408 20.1535 18.3749 19.9865 18.3749 19.8125V16.5312ZM18.9999 23.75C18.8145 23.75 18.6332 23.6923 18.4791 23.5841C18.3249 23.4759 18.2047 23.3222 18.1338 23.1423C18.0628 22.9624 18.0442 22.7645 18.0804 22.5736C18.1166 22.3826 18.2059 22.2072 18.337 22.0696C18.4681 21.9319 18.6352 21.8381 18.817 21.8002C18.9989 21.7622 19.1874 21.7817 19.3587 21.8562C19.53 21.9307 19.6764 22.0568 19.7794 22.2187C19.8824 22.3806 19.9374 22.5709 19.9374 22.7656C19.9374 23.0267 19.8386 23.2771 19.6628 23.4617C19.487 23.6463 19.2485 23.75 18.9999 23.75Z" fill="#FFC633"/>
</svg>
