<svg width="38" height="39" viewBox="0 0 38 39" fill="none" xmlns="http://www.w3.org/2000/svg">
<circle cx="19" cy="19.9485" r="19" fill="#FFF6E0"/>
<path fill-rule="evenodd" clip-rule="evenodd" d="M13.8577 19.9486C13.8577 17.0968 16.1603 14.7843 19.0001 14.7843C21.8398 14.7843 24.1425 17.0968 24.1425 19.9486C24.1425 22.8005 21.8398 25.1129 19.0001 25.1129C16.1603 25.1129 13.8577 22.8005 13.8577 19.9486ZM19.0001 12.3486C14.2437 12.3486 10.054 15.3675 7.6001 19.9486C10.0538 24.5298 14.2435 27.5486 19.0001 27.5486C23.7567 27.5486 27.9462 24.5298 30.4001 19.9486C27.9464 15.3675 23.7567 12.3486 19.0001 12.3486Z" fill="#5E50FA"/>
<path fill-rule="evenodd" clip-rule="evenodd" d="M18.88 16.7576C17.1909 16.7576 15.821 18.1333 15.821 19.8295C15.821 21.5258 17.1909 22.9015 18.88 22.9015C20.5691 22.9015 21.9389 21.5258 21.9389 19.8295C21.9389 18.1333 20.5691 16.7576 18.88 16.7576Z" fill="#5E50FA"/>
<path d="M10.4604 20.5393C10.4604 23.7341 7.52604 26.324 3.90625 26.324C7.52604 26.324 10.4604 28.9139 10.4604 32.1087C10.4604 28.9139 13.3947 26.324 17.0145 26.324C13.3947 26.324 10.4604 23.7341 10.4604 20.5393Z" fill="#FFC13C"/>
<path d="M10.4604 20.5393C10.4604 23.7341 7.52604 26.324 3.90625 26.324C7.52604 26.324 10.4604 28.9139 10.4604 32.1087C10.4604 28.9139 13.3947 26.324 17.0145 26.324C13.3947 26.324 10.4604 23.7341 10.4604 20.5393Z" fill="url(#paint0_linear_5597_13090)" fill-opacity="0.4"/>
<path d="M27.36 9.41895C27.36 11.9462 25.3185 13.9949 22.8 13.9949C25.3185 13.9949 27.36 16.0437 27.36 18.5709C27.36 16.0437 29.4016 13.9949 31.92 13.9949C29.4016 13.9949 27.36 11.9462 27.36 9.41895Z" fill="#61DFC6"/>
<path d="M27.36 9.41895C27.36 11.9462 25.3185 13.9949 22.8 13.9949C25.3185 13.9949 27.36 16.0437 27.36 18.5709C27.36 16.0437 29.4016 13.9949 31.92 13.9949C29.4016 13.9949 27.36 11.9462 27.36 9.41895Z" fill="url(#paint1_linear_5597_13090)" fill-opacity="0.6"/>
<defs>
<linearGradient id="paint0_linear_5597_13090" x1="8.04219" y1="23.6451" x2="14.9072" y2="31.4507" gradientUnits="userSpaceOnUse">
<stop stop-color="white" stop-opacity="0"/>
<stop offset="1" stop-color="white"/>
</linearGradient>
<linearGradient id="paint1_linear_5597_13090" x1="22.8824" y1="11.3979" x2="27.9955" y2="15.4435" gradientUnits="userSpaceOnUse">
<stop stop-color="white"/>
<stop offset="1" stop-color="white" stop-opacity="0"/>
</linearGradient>
</defs>
</svg>
