<svg width="20" height="20" viewBox="0 0 20 20" fill="none" xmlns="http://www.w3.org/2000/svg">
<path d="M1.04341 17.6476L4.44901 14.242L5.75784 15.5509L2.35224 18.9565C2.18036 19.1283 2.18036 19.4068 2.35224 19.5786C2.52411 19.7505 2.80341 19.7505 2.97528 19.5786L6.37846 16.173L7.22581 17.0204C8.03792 17.8308 9.35277 17.8308 10.1648 17.0204L12.51 14.6778L13.6959 15.8638V15.8629C13.8678 16.0348 14.1462 16.0348 14.3181 15.8629C14.49 15.691 14.49 15.4126 14.3181 15.2407L4.75932 5.6837C4.58745 5.51183 4.30901 5.51183 4.13714 5.6837C3.96528 5.85558 3.96527 6.13488 4.13714 6.30674L5.32307 7.49267L2.97963 9.83281C2.16924 10.6458 2.16924 11.9598 2.97963 12.7727L3.82699 13.62L0.421387 17.0274C0.249512 17.1993 0.249512 17.4777 0.421387 17.6496C0.593262 17.8214 0.871705 17.8214 1.04357 17.6496L1.04341 17.6476ZM3.60179 12.1476H3.60265C3.13515 11.6793 3.13515 10.9213 3.60265 10.453L5.94521 8.11281L11.8852 14.0528L9.54419 16.3971C9.07584 16.8646 8.31873 16.8646 7.85037 16.3971L3.60179 12.1476Z" fill="#5A4FE5" stroke="#5A4FE5" stroke-width="0.5"/>
<path d="M18.9563 2.35236L15.5507 5.75796L14.2419 4.44913L17.6475 1.04353C17.8193 0.871659 17.8193 0.593216 17.6475 0.421352C17.4756 0.249488 17.1963 0.249477 17.0244 0.421352L13.6212 3.82695L12.7722 2.9796C11.9592 2.16921 10.6452 2.16921 9.83231 2.9796L7.48975 5.32216L6.30382 4.13709C6.13194 3.96521 5.8535 3.96521 5.68164 4.13709C5.50977 4.30896 5.50976 4.5874 5.68164 4.75927L7.17781 6.25544L13.74 12.8202L15.2362 14.3164C15.408 14.4883 15.6865 14.4883 15.8583 14.3164C16.0302 14.1445 16.0302 13.8652 15.8583 13.6934L14.6724 12.5074L17.0202 10.1673C17.8306 9.35434 17.8306 8.04035 17.0202 7.22745L16.1729 6.3801L19.5785 2.97274C19.7504 2.80086 19.7504 2.52242 19.5785 2.35055C19.4066 2.17869 19.1282 2.17868 18.9563 2.35055L18.9563 2.35236ZM16.3979 7.85236H16.397C16.8645 8.32072 16.8645 9.07868 16.397 9.54704L14.0545 11.8872L8.11448 5.94718L10.4555 3.60286C10.9239 3.13536 11.681 3.13536 12.1493 3.60286L16.3979 7.85236Z" fill="#5A4FE5" stroke="#5A4FE5" stroke-width="0.5"/>
</svg>
