<svg width="15" height="15" viewBox="0 0 15 15" fill="none" xmlns="http://www.w3.org/2000/svg">
<g id="flow-connection" clip-path="url(#clip0_8996_14942)">
<g id="elements">
<path id="Rectangle 2311 (Stroke)" d="M3.71822 0.78125H3.75H3.78178H3.78181C4.27026 0.78123 4.68339 0.781214 5.0126 0.825476C5.36243 0.872508 5.68682 0.977111 5.94861 1.2389C6.21039 1.50068 6.315 1.82508 6.36203 2.1749C6.40629 2.50412 6.40627 2.91726 6.40625 3.40573V3.46928C6.40627 3.95775 6.40629 4.37088 6.36203 4.7001C6.315 5.04992 6.21039 5.37432 5.94861 5.63611C5.68682 5.89789 5.36242 6.0025 5.0126 6.04953C4.68338 6.09379 4.27025 6.09377 3.78178 6.09375H3.71823C3.22976 6.09377 2.81662 6.09379 2.4874 6.04953C2.13758 6.0025 1.81318 5.89789 1.5514 5.63611C1.28961 5.37432 1.18501 5.04993 1.13798 4.7001C1.09371 4.37089 1.09373 3.95776 1.09375 3.46931V3.46928V3.4375V3.40572V3.4057C1.09373 2.91724 1.09371 2.50412 1.13798 2.1749C1.18501 1.82508 1.28961 1.50068 1.5514 1.2389C1.81318 0.977111 2.13758 0.872508 2.4874 0.825476C2.81662 0.781214 3.22974 0.78123 3.7182 0.78125H3.71822Z" fill="#6557FF"/>
<path id="Rectangle 2312 (Stroke)" d="M2.83147 8.63622C3.09937 8.43181 3.39183 8.28125 3.75 8.28125C4.10816 8.28125 4.40063 8.43181 4.66853 8.63622C4.91992 8.82802 5.24202 9.15014 5.56817 9.47632C5.89436 9.80248 6.17198 10.0801 6.36378 10.3315C6.56818 10.5994 6.71875 10.8918 6.71875 11.25C6.71875 11.6082 6.56818 11.9006 6.36378 12.1685C6.17198 12.4199 5.89436 12.6975 5.56818 13.0237L5.56817 13.0237C5.24202 13.3499 4.91992 13.672 4.66853 13.8638C4.40063 14.0682 4.10816 14.2187 3.75 14.2187C3.39183 14.2187 3.09937 14.0682 2.83147 13.8638C2.58008 13.672 2.25799 13.3499 1.93183 13.0237L1.93183 13.0237C1.60565 12.6975 1.32802 12.4199 1.13622 12.1685C0.931815 11.9006 0.78125 11.6082 0.78125 11.25C0.78125 10.8918 0.931815 10.5994 1.13622 10.3315C1.32802 10.0801 1.65014 9.75798 1.97632 9.43183L1.97632 9.43183C2.30248 9.10564 2.58008 8.82802 2.83147 8.63622Z" fill="#6557FF"/>
<path id="Vector 4876 (Stroke)" fill-rule="evenodd" clip-rule="evenodd" d="M3.75 5C3.40482 5 3.125 5.27982 3.125 5.625V8.75C3.125 9.09518 3.40482 9.375 3.75 9.375C4.09518 9.375 4.375 9.09518 4.375 8.75V5.625C4.375 5.27982 4.09518 5 3.75 5ZM10 11.25C10 10.9048 9.72018 10.625 9.375 10.625H6.25C5.90482 10.625 5.625 10.9048 5.625 11.25C5.625 11.5952 5.90482 11.875 6.25 11.875H9.375C9.72018 11.875 10 11.5952 10 11.25Z" fill="#6557FF"/>
<path id="Rectangle 2313 (Stroke)" d="M11.5307 8.59375H11.5625H11.5943H11.5943C12.0828 8.59373 12.4959 8.59371 12.8251 8.63798C13.1749 8.68501 13.4993 8.78961 13.7611 9.0514C14.0229 9.31318 14.1275 9.63758 14.1745 9.9874C14.2188 10.3166 14.2188 10.7298 14.2188 11.2182V11.2818C14.2188 11.7702 14.2188 12.1834 14.1745 12.5126C14.1275 12.8624 14.0229 13.1868 13.7611 13.4486C13.4993 13.7104 13.1749 13.815 12.8251 13.862C12.4959 13.9063 12.0827 13.9063 11.5943 13.9063H11.5307C11.0423 13.9063 10.6291 13.9063 10.2999 13.862C9.95008 13.815 9.62568 13.7104 9.3639 13.4486C9.10211 13.1868 8.99751 12.8624 8.95048 12.5126C8.90621 12.1834 8.90623 11.7703 8.90625 11.2818V11.2818V11.25V11.2182V11.2182C8.90623 10.7297 8.90621 10.3166 8.95048 9.9874C8.99751 9.63758 9.10211 9.31318 9.3639 9.0514C9.62568 8.78961 9.95008 8.68501 10.2999 8.63798C10.6291 8.59371 11.0422 8.59373 11.5307 8.59375H11.5307Z" fill="#6557FF"/>
</g>
</g>
<defs>
<clipPath id="clip0_8996_14942">
<rect width="15" height="15" fill="white"/>
</clipPath>
</defs>
</svg>
