<svg width="15" height="16" viewBox="0 0 15 16" fill="none" xmlns="http://www.w3.org/2000/svg">
<path d="M3.71822 1.28125H3.75H3.78178H3.78181C4.27026 1.28123 4.68339 1.28121 5.0126 1.32548C5.36243 1.37251 5.68682 1.47711 5.94861 1.7389C6.21039 2.00068 6.315 2.32508 6.36203 2.6749C6.40629 3.00412 6.40627 3.41726 6.40625 3.90573V3.96928C6.40627 4.45775 6.40629 4.87088 6.36203 5.2001C6.315 5.54992 6.21039 5.87432 5.94861 6.13611C5.68682 6.39789 5.36242 6.5025 5.0126 6.54953C4.68338 6.59379 4.27025 6.59377 3.78178 6.59375H3.71823C3.22976 6.59377 2.81662 6.59379 2.4874 6.54953C2.13758 6.5025 1.81318 6.39789 1.5514 6.13611C1.28961 5.87432 1.18501 5.54993 1.13798 5.2001C1.09371 4.87089 1.09373 4.45776 1.09375 3.96931V3.96928V3.9375V3.90572V3.9057C1.09373 3.41724 1.09371 3.00412 1.13798 2.6749C1.18501 2.32508 1.28961 2.00068 1.5514 1.7389C1.81318 1.47711 2.13758 1.37251 2.4874 1.32548C2.81662 1.28121 3.22974 1.28123 3.7182 1.28125H3.71822Z" fill="#6557FF"/>
<path d="M2.83147 9.13622C3.09937 8.93181 3.39183 8.78125 3.75 8.78125C4.10816 8.78125 4.40063 8.93181 4.66853 9.13622C4.91992 9.32802 5.24202 9.65014 5.56817 9.97632C5.89436 10.3025 6.17198 10.5801 6.36378 10.8315C6.56818 11.0994 6.71875 11.3918 6.71875 11.75C6.71875 12.1082 6.56818 12.4006 6.36378 12.6685C6.17198 12.9199 5.89436 13.1975 5.56818 13.5237L5.56817 13.5237C5.24202 13.8499 4.91992 14.172 4.66853 14.3638C4.40063 14.5682 4.10816 14.7187 3.75 14.7187C3.39183 14.7187 3.09937 14.5682 2.83147 14.3638C2.58008 14.172 2.25799 13.8499 1.93183 13.5237L1.93183 13.5237C1.60565 13.1975 1.32802 12.9199 1.13622 12.6685C0.931815 12.4006 0.78125 12.1082 0.78125 11.75C0.78125 11.3918 0.931815 11.0994 1.13622 10.8315C1.32802 10.5801 1.65014 10.258 1.97632 9.93183L1.97632 9.93183C2.30248 9.60564 2.58008 9.32802 2.83147 9.13622Z" fill="#6557FF"/>
<path fill-rule="evenodd" clip-rule="evenodd" d="M3.75 5.5C3.40482 5.5 3.125 5.77982 3.125 6.125V9.25C3.125 9.59518 3.40482 9.875 3.75 9.875C4.09518 9.875 4.375 9.59518 4.375 9.25V6.125C4.375 5.77982 4.09518 5.5 3.75 5.5ZM10 11.75C10 11.4048 9.72018 11.125 9.375 11.125H6.25C5.90482 11.125 5.625 11.4048 5.625 11.75C5.625 12.0952 5.90482 12.375 6.25 12.375H9.375C9.72018 12.375 10 12.0952 10 11.75Z" fill="#6557FF"/>
<path d="M11.5307 9.09375H11.5625H11.5943H11.5943C12.0828 9.09373 12.4959 9.09371 12.8251 9.13798C13.1749 9.18501 13.4993 9.28961 13.7611 9.5514C14.0229 9.81318 14.1275 10.1376 14.1745 10.4874C14.2188 10.8166 14.2188 11.2298 14.2188 11.7182V11.7818C14.2188 12.2702 14.2188 12.6834 14.1745 13.0126C14.1275 13.3624 14.0229 13.6868 13.7611 13.9486C13.4993 14.2104 13.1749 14.315 12.8251 14.362C12.4959 14.4063 12.0827 14.4063 11.5943 14.4063H11.5307C11.0423 14.4063 10.6291 14.4063 10.2999 14.362C9.95008 14.315 9.62568 14.2104 9.3639 13.9486C9.10211 13.6868 8.99751 13.3624 8.95048 13.0126C8.90621 12.6834 8.90623 12.2703 8.90625 11.7818V11.7818V11.75V11.7182V11.7182C8.90623 11.2297 8.90621 10.8166 8.95048 10.4874C8.99751 10.1376 9.10211 9.81318 9.3639 9.5514C9.62568 9.28961 9.95008 9.18501 10.2999 9.13798C10.6291 9.09371 11.0422 9.09373 11.5307 9.09375H11.5307Z" fill="#6557FF"/>
</svg>
