<svg width="40" height="40" viewBox="0 0 40 40" fill="none" xmlns="http://www.w3.org/2000/svg">
<path d="M33.3333 26.6667C33.3333 25.7462 32.5871 25 31.6667 25C30.7462 25 30 25.7462 30 26.6667V32.643L29.5118 32.1548C28.861 31.5039 27.8057 31.5039 27.1548 32.1548C26.504 32.8057 26.504 33.861 27.1548 34.5118L30.4882 37.8452C31.139 38.4961 32.1943 38.4961 32.8452 37.8452L36.1785 34.5118C36.8294 33.861 36.8294 32.8057 36.1785 32.1548C35.5276 31.5039 34.4724 31.5039 33.8215 32.1548L33.3333 32.643V26.6667Z" fill="#FFC633"/>
<path d="M16.263 6.66659C16.9412 6.66596 17.5391 6.6654 18.1198 6.80482C18.63 6.92731 19.1178 7.12933 19.5651 7.40347C20.0743 7.71553 20.4967 8.13871 20.9758 8.61868L22.357 10L29.7309 10C30.6095 9.99998 31.3674 9.99995 31.9917 10.051C32.6506 10.1048 33.306 10.2237 33.9366 10.545C34.8774 11.0243 35.6423 11.7892 36.1217 12.7301C36.443 13.3607 36.5619 14.0161 36.6157 14.675C36.6667 15.2992 36.6667 16.0572 36.6667 16.9357V20.3334C36.6667 20.8001 36.6667 21.0334 36.5758 21.2117C36.4959 21.3685 36.3685 21.496 36.2117 21.5759C36.0334 21.6667 35.8 21.6667 35.3333 21.6667H31.6667C26.1438 21.6667 21.6667 26.1439 21.6667 31.6667V32C21.6667 32.4667 21.6667 32.7001 21.5758 32.8783C21.4959 33.0351 21.3685 33.1626 21.2117 33.2425C21.0334 33.3333 20.8 33.3333 20.3333 33.3333H10.2689C9.39043 33.3334 8.63252 33.3334 8.00829 33.2824C7.34938 33.2286 6.69401 33.1097 6.06338 32.7884C5.12257 32.309 4.35767 31.5441 3.8783 30.6033C3.55698 29.9727 3.43812 29.3173 3.38428 28.6584C3.33328 28.0341 3.3333 27.2762 3.33333 26.3976V13.6024C3.3333 12.7238 3.33328 11.9659 3.38428 11.3416C3.43812 10.6827 3.55698 10.0274 3.8783 9.39672C4.35767 8.45591 5.12257 7.69101 6.06338 7.21164C6.69401 6.89032 7.34938 6.77146 8.00829 6.71762C8.63257 6.66662 9.39052 6.66664 10.2691 6.66667L16.263 6.66659Z" fill="#6557FF"/>
</svg>
