<svg width="19" height="19" viewBox="0 0 19 19" fill="none" xmlns="http://www.w3.org/2000/svg">
<path d="M3.5 11.8333C2.72343 11.8333 2.33515 11.8333 2.02886 11.7065C1.62048 11.5373 1.29602 11.2129 1.12687 10.8045C1 10.4982 1 10.1099 1 9.33333V3.66667C1 2.73325 1 2.26654 1.18166 1.91002C1.34144 1.59641 1.59641 1.34144 1.91002 1.18166C2.26654 1 2.73325 1 3.66667 1H9.33333C10.1099 1 10.4982 1 10.8045 1.12687C11.2129 1.29602 11.5373 1.62048 11.7065 2.02886C11.8333 2.33515 11.8333 2.72343 11.8333 3.5M9.5 17.6667H15C15.9334 17.6667 16.4001 17.6667 16.7567 17.485C17.0703 17.3252 17.3252 17.0703 17.485 16.7567C17.6667 16.4001 17.6667 15.9334 17.6667 15V9.5C17.6667 8.56658 17.6667 8.09987 17.485 7.74335C17.3252 7.42975 17.0703 7.17478 16.7567 7.01499C16.4001 6.83333 15.9334 6.83333 15 6.83333H9.5C8.56658 6.83333 8.09987 6.83333 7.74335 7.01499C7.42975 7.17478 7.17478 7.42975 7.01499 7.74335C6.83333 8.09987 6.83333 8.56658 6.83333 9.5V15C6.83333 15.9334 6.83333 16.4001 7.01499 16.7567C7.17478 17.0703 7.42975 17.3252 7.74335 17.485C8.09987 17.6667 8.56658 17.6667 9.5 17.6667Z" stroke="#6557FF" stroke-width="1.66667" stroke-linecap="round" stroke-linejoin="round"/>
</svg>
