<svg width="16" height="16" viewBox="0 0 16 16" fill="none" xmlns="http://www.w3.org/2000/svg">
<path fill-rule="evenodd" clip-rule="evenodd" d="M4.16665 2.3335C2.33331 2.3335 2.33331 2.47216 2.33331 4.16683V4.1835C2.33331 4.9215 2.33331 5.45483 2.51398 5.68016C2.69065 5.89883 3.21531 6.00016 4.16665 6.00016C5.11798 6.00016 5.64265 5.89816 5.81931 5.6795C5.99998 5.45483 5.99998 4.9215 5.99998 4.18283C5.99998 2.47216 5.99998 2.3335 4.16665 2.3335ZM4.16665 7.00016C3.04265 7.00016 2.19931 6.88216 1.73598 6.30683C1.33331 5.8075 1.33331 5.12616 1.33331 4.1835L1.83331 4.16683H1.33331C1.33331 2.2535 1.45398 1.3335 4.16665 1.3335C6.87931 1.3335 6.99998 2.2535 6.99998 4.16683C6.99998 5.1255 6.99998 5.8075 6.59731 6.30683C6.13398 6.88216 5.29065 7.00016 4.16665 7.00016Z" fill="black"/>
<path fill-rule="evenodd" clip-rule="evenodd" d="M11.5 2.3335C9.66663 2.3335 9.66663 2.47216 9.66663 4.16683V4.1835C9.66663 4.9215 9.66663 5.45483 9.84729 5.68016C10.024 5.89883 10.5486 6.00016 11.5 6.00016C12.4513 6.00016 12.976 5.89816 13.1526 5.6795C13.3333 5.45483 13.3333 4.9215 13.3333 4.18283C13.3333 2.47216 13.3333 2.3335 11.5 2.3335ZM11.5 7.00016C10.376 7.00016 9.53263 6.88216 9.06929 6.30683C8.66663 5.8075 8.66663 5.12616 8.66663 4.1835L9.16663 4.16683H8.66663C8.66663 2.2535 8.78729 1.3335 11.5 1.3335C14.2126 1.3335 14.3333 2.2535 14.3333 4.16683C14.3333 5.1255 14.3333 5.8075 13.9306 6.30683C13.4673 6.88216 12.624 7.00016 11.5 7.00016Z" fill="black"/>
<path fill-rule="evenodd" clip-rule="evenodd" d="M4.16665 9.66699C2.33331 9.66699 2.33331 9.80566 2.33331 11.5003V11.517C2.33331 12.255 2.33331 12.7883 2.51398 13.0137C2.69065 13.2323 3.21531 13.3337 4.16665 13.3337C5.11798 13.3337 5.64265 13.2317 5.81931 13.013C5.99998 12.7883 5.99998 12.255 5.99998 11.5163C5.99998 9.80566 5.99998 9.66699 4.16665 9.66699ZM4.16665 14.3337C3.04265 14.3337 2.19931 14.2157 1.73598 13.6403C1.33331 13.141 1.33331 12.4597 1.33331 11.517L1.83331 11.5003H1.33331C1.33331 9.58699 1.45398 8.66699 4.16665 8.66699C6.87931 8.66699 6.99998 9.58699 6.99998 11.5003C6.99998 12.459 6.99998 13.141 6.59731 13.6403C6.13398 14.2157 5.29065 14.3337 4.16665 14.3337Z" fill="black"/>
<path fill-rule="evenodd" clip-rule="evenodd" d="M11.5 9.66699C9.66663 9.66699 9.66663 9.80566 9.66663 11.5003V11.517C9.66663 12.255 9.66663 12.7883 9.84729 13.0137C10.024 13.2323 10.5486 13.3337 11.5 13.3337C12.4513 13.3337 12.976 13.2317 13.1526 13.013C13.3333 12.7883 13.3333 12.255 13.3333 11.5163C13.3333 9.80566 13.3333 9.66699 11.5 9.66699ZM11.5 14.3337C10.376 14.3337 9.53263 14.2157 9.06929 13.6403C8.66663 13.141 8.66663 12.4597 8.66663 11.517L9.16663 11.5003H8.66663C8.66663 9.58699 8.78729 8.66699 11.5 8.66699C14.2126 8.66699 14.3333 9.58699 14.3333 11.5003C14.3333 12.459 14.3333 13.141 13.9306 13.6403C13.4673 14.2157 12.624 14.3337 11.5 14.3337Z" fill="black"/>
</svg>
