<svg width="77" height="82" viewBox="0 0 77 82" fill="none" xmlns="http://www.w3.org/2000/svg">
<circle cx="40.8212" cy="29.2474" r="23.8334" fill="#CFD8EE"/>
<path d="M67.6179 19.4123C68.7455 19.4123 69.6596 18.4982 69.6596 17.3706C69.6596 16.243 68.7455 15.3289 67.6179 15.3289C66.4903 15.3289 65.5762 16.243 65.5762 17.3706C65.5762 18.4982 66.4903 19.4123 67.6179 19.4123Z" fill="#EAEEF9"/>
<path d="M70.6058 11.4447C71.3758 11.4447 72.0001 10.8204 72.0001 10.0503C72.0001 9.28027 71.3758 8.65601 70.6058 8.65601C69.8357 8.65601 69.2114 9.28027 69.2114 10.0503C69.2114 10.8204 69.8357 11.4447 70.6058 11.4447Z" fill="#EAEEF9"/>
<path d="M19.8366 9.17899C21.2667 9.17899 22.4261 8.01963 22.4261 6.5895C22.4261 5.15936 21.2667 4 19.8366 4C18.4064 4 17.2471 5.15936 17.2471 6.5895C17.2471 8.01963 18.4064 9.17899 19.8366 9.17899Z" fill="#EAEEF9"/>
<path d="M50.0382 16.263H37.3423V11.4448H53.9847C54.0152 11.4448 54.0458 11.4448 54.0764 11.4448C56.6768 11.5062 58.7877 13.6544 58.7877 16.263H53.281" fill="#CCD4E2"/>
<g filter="url(#filter0_d_5728_13400)">
<path d="M54.4432 11.4448C53.4643 11.5062 52.5465 11.9052 51.904 12.5803C51.8429 12.6417 51.7817 12.7031 51.7205 12.7951C51.1392 13.4703 50.7109 14.3603 50.7109 15.3116V43.9751C50.7109 46.6451 48.5695 48.7933 45.9079 48.7933H22.5352V15.0968C22.5963 14.1148 22.9635 13.2248 23.6059 12.5803C24.3095 11.8745 25.2579 11.4448 26.3286 11.4448H49.8543H54.3209C54.3515 11.4448 54.382 11.4448 54.4432 11.4448Z" fill="url(#paint0_linear_5728_13400)"/>
</g>
<path d="M46.0611 18.0122H39.1166C38.8719 18.0122 38.6577 17.7974 38.6577 17.5519C38.6577 17.3064 38.8719 17.0916 39.1166 17.0916H46.0611C46.3059 17.0916 46.52 17.3064 46.52 17.5519C46.52 17.7974 46.3365 18.0122 46.0611 18.0122Z" fill="#B3BFD3"/>
<path d="M35.8429 18.0122H26.7875C26.5428 18.0122 26.3286 17.7974 26.3286 17.5519C26.3286 17.3064 26.5428 17.0916 26.7875 17.0916H35.8735C36.1182 17.0916 36.3324 17.3064 36.3324 17.5519C36.3324 17.7974 36.1182 18.0122 35.8429 18.0122Z" fill="#B3BFD3"/>
<path d="M41.6556 22.5542H32.6308C32.386 22.5542 32.1719 22.3394 32.1719 22.0939C32.1719 21.8484 32.386 21.6335 32.6308 21.6335H41.6556C41.9003 21.6335 42.1145 21.8484 42.1145 22.0939C42.1451 22.3394 41.9309 22.5542 41.6556 22.5542Z" fill="#B3BFD3"/>
<path d="M29.7244 22.5542H26.7875C26.5428 22.5542 26.3286 22.3394 26.3286 22.0939C26.3286 21.8484 26.5428 21.6335 26.7875 21.6335H29.7244C29.9691 21.6335 30.1833 21.8484 30.1833 22.0939C30.1833 22.3394 29.9691 22.5542 29.7244 22.5542Z" fill="#D4DBEC"/>
<path d="M46.0611 27.0962H40.5238C40.2791 27.0962 40.0649 26.8814 40.0649 26.6359C40.0649 26.3904 40.2791 26.1755 40.5238 26.1755H46.0611C46.3058 26.1755 46.52 26.3904 46.52 26.6359C46.52 26.8814 46.3364 27.0962 46.0611 27.0962Z" fill="#D4DBEC"/>
<path d="M37.862 27.0962H26.7875C26.5428 27.0962 26.3286 26.8814 26.3286 26.6359C26.3286 26.3904 26.5428 26.1755 26.7875 26.1755H37.862C38.1068 26.1755 38.3209 26.3904 38.3209 26.6359C38.3209 26.8814 38.1374 27.0962 37.862 27.0962Z" fill="#B3BFD3"/>
<path d="M41.6557 31.6382H35.5678C35.323 31.6382 35.1089 31.4234 35.1089 31.1779C35.1089 30.9324 35.323 30.7175 35.5678 30.7175H41.6557C41.9004 30.7175 42.1146 30.9324 42.1146 31.1779C42.1452 31.4234 41.931 31.6382 41.6557 31.6382Z" fill="#B3BFD3"/>
<path d="M32.906 31.6382H26.7875C26.5428 31.6382 26.3286 31.4234 26.3286 31.1779C26.3286 30.9324 26.5428 30.7175 26.7875 30.7175H32.9366C33.1814 30.7175 33.3955 30.9324 33.3955 31.1779C33.3955 31.4234 33.1814 31.6382 32.906 31.6382Z" fill="#D4DBEC"/>
<path d="M46.0609 36.1802H41.8085C41.5638 36.1802 41.3496 35.9654 41.3496 35.7199C41.3496 35.4743 41.5638 35.2595 41.8085 35.2595H46.0609C46.3056 35.2595 46.5198 35.4743 46.5198 35.7199C46.5198 35.9654 46.3362 36.1802 46.0609 36.1802Z" fill="#B3BFD3"/>
<path d="M39.0552 36.1802H31.9272C31.6824 36.1802 31.4683 35.9654 31.4683 35.7199C31.4683 35.4743 31.6824 35.2595 31.9272 35.2595H39.0552C39.3 35.2595 39.5141 35.4743 39.5141 35.7199C39.5141 35.9654 39.3 36.1802 39.0552 36.1802Z" fill="#D4DBEC"/>
<path d="M29.2655 36.1802H26.7875C26.5428 36.1802 26.3286 35.9654 26.3286 35.7199C26.3286 35.4743 26.5428 35.2595 26.7875 35.2595H29.2655C29.5102 35.2595 29.7244 35.4743 29.7244 35.7199C29.7244 35.9654 29.5102 36.1802 29.2655 36.1802Z" fill="#B3BFD3"/>
<path d="M41.6558 40.7222H37.434C37.1892 40.7222 36.9751 40.5074 36.9751 40.2618C36.9751 40.0163 37.1892 39.8015 37.434 39.8015H41.6558C41.9005 39.8015 42.1147 40.0163 42.1147 40.2618C42.1452 40.5074 41.9311 40.7222 41.6558 40.7222Z" fill="#B3BFD3"/>
<path d="M34.6498 40.7222H26.7875C26.5428 40.7222 26.3286 40.5074 26.3286 40.2618C26.3286 40.0163 26.5428 39.8015 26.7875 39.8015H34.6498C34.8945 39.8015 35.1087 40.0163 35.1087 40.2618C35.1087 40.5074 34.8945 40.7222 34.6498 40.7222Z" fill="#D4DBEC"/>
<path d="M35.629 44.9878H41.8087C41.8087 46.0312 42.237 46.9826 42.91 47.6577C43.583 48.3636 44.5314 48.7625 45.5716 48.7625H17.7629C16.7227 48.7625 15.7744 48.3329 15.1013 47.6577C14.4283 46.9826 14 46.0312 14 44.9878H32.2944C32.2944 44.9878 35.6902 45.0185 35.629 44.9878Z" fill="#CCD4E2"/>
<path d="M62.1581 42.0488L58.2954 38.1892L59.1809 37.3037L63.0405 41.1664L62.1581 42.0488Z" fill="#858B9B"/>
<path d="M63.5009 43.4067L60.539 40.4448C60.2917 40.1975 60.2917 39.7944 60.539 39.5471C60.7863 39.2997 61.1894 39.2997 61.4367 39.5471L64.3986 42.5089C64.6459 42.7563 64.6459 43.1593 64.3986 43.4067C64.1513 43.654 63.7482 43.654 63.5009 43.4067Z" fill="#858B9B"/>
<path d="M63.2902 43.596L59.4795 39.7853C59.3909 39.6967 59.3909 39.5532 59.4795 39.4616L60.4536 38.4876C60.5421 38.399 60.6856 38.399 60.7772 38.4876L64.588 42.2983C64.6765 42.3868 64.6765 42.5304 64.588 42.622L63.6139 43.596C63.5223 43.6846 63.3788 43.6846 63.2902 43.596Z" fill="url(#paint1_linear_5728_13400)"/>
<path d="M53.9232 25.7522C49.8804 25.7522 46.604 29.0286 46.604 33.0714C46.604 37.1111 49.8804 40.3906 53.9201 40.3906C57.9629 40.3906 61.2393 37.1142 61.2393 33.0714C61.2393 29.0286 57.9629 25.7522 53.9232 25.7522ZM53.9232 39.0348C50.6773 39.0348 48.0483 36.363 48.0483 33.0683C48.0483 29.7736 50.6773 27.1049 53.9232 27.1049C57.169 27.1049 59.7981 29.7767 59.7981 33.0714C59.7981 36.3661 57.166 39.0348 53.9232 39.0348Z" fill="url(#paint2_linear_5728_13400)"/>
<defs>
<filter id="filter0_d_5728_13400" x="0.535156" y="0.444824" width="75.9082" height="81.3484" filterUnits="userSpaceOnUse" color-interpolation-filters="sRGB">
<feFlood flood-opacity="0" result="BackgroundImageFix"/>
<feColorMatrix in="SourceAlpha" type="matrix" values="0 0 0 0 0 0 0 0 0 0 0 0 0 0 0 0 0 0 127 0" result="hardAlpha"/>
<feOffset dy="11"/>
<feGaussianBlur stdDeviation="11"/>
<feColorMatrix type="matrix" values="0 0 0 0 0.397708 0 0 0 0 0.47749 0 0 0 0 0.575 0 0 0 0.27 0"/>
<feBlend mode="normal" in2="BackgroundImageFix" result="effect1_dropShadow_5728_13400"/>
<feBlend mode="normal" in="SourceGraphic" in2="effect1_dropShadow_5728_13400" result="shape"/>
</filter>
<linearGradient id="paint0_linear_5728_13400" x1="38.4788" y1="10.5809" x2="38.4788" y2="49.1959" gradientUnits="userSpaceOnUse">
<stop stop-color="#FDFEFF"/>
<stop offset="0.9964" stop-color="#ECF0F5"/>
</linearGradient>
<linearGradient id="paint1_linear_5728_13400" x1="59.4107" y1="41.0424" x2="64.6553" y2="41.0424" gradientUnits="userSpaceOnUse">
<stop stop-color="#B0BACC"/>
<stop offset="1" stop-color="#969EAE"/>
</linearGradient>
<linearGradient id="paint2_linear_5728_13400" x1="46.5973" y1="33.073" x2="61.242" y2="33.073" gradientUnits="userSpaceOnUse">
<stop stop-color="#B0BACC"/>
<stop offset="1" stop-color="#969EAE"/>
</linearGradient>
</defs>
</svg>
