<svg width="73" height="73" viewBox="0 0 73 73" fill="none" xmlns="http://www.w3.org/2000/svg">
<path fill-rule="evenodd" clip-rule="evenodd" d="M11.6527 53.7769C11.3325 54.3486 11.1367 54.9815 11.0779 55.6341C11.0192 56.2867 11.0989 56.9443 11.3119 57.564L1.79491 41.1924C0.719371 39.6056 1.0034 38.5869 1.62448 37.6212L6.49847 29.2366L1.39727 26.2334H17.7727L26.1043 40.5107L21.0182 37.5871L11.6527 53.7769Z" fill="#FFC633"/>
<path fill-rule="evenodd" clip-rule="evenodd" d="M20.4922 64.9524C13.1831 64.2139 11.7819 56.7381 13.0127 54.4129L16.5271 48.3535H34.6521V65.0167H20.8292L20.4922 64.9599V64.9524Z" fill="#FFC633"/>
<path fill-rule="evenodd" clip-rule="evenodd" d="M65.8119 48.4103C66.4663 48.3973 67.111 48.2497 67.7058 47.9767C68.3007 47.7037 68.833 47.3112 69.2695 46.8235L59.8662 63.1951C59.0709 64.9523 57.9954 65.2363 56.863 65.1227H47.1756L47.1188 71.0117L38.9614 56.8517L47.1756 42.5176V48.4103H65.8119Z" fill="#6557FF"/>
<path fill-rule="evenodd" clip-rule="evenodd" d="M71.084 35.152C74.0871 41.8362 68.308 46.8238 65.7025 46.892H58.6775L49.668 31.1983L64.0589 22.8667L70.9704 34.8188L71.084 35.1596V35.152Z" fill="#6557FF"/>
<path fill-rule="evenodd" clip-rule="evenodd" d="M34.0307 4.21877C33.7053 3.66124 33.2635 3.18045 32.7355 2.80923C32.2074 2.438 31.6054 2.18507 30.9707 2.06769L49.7812 2.01089C51.7088 1.84047 52.5003 2.57517 53.0116 3.6507L57.825 12.0353L62.9262 9.08896L54.765 23.3057L38.2798 23.3625L43.3204 20.4199L34.0307 4.21498V4.21877Z" fill="#6557FF"/>
<path fill-rule="evenodd" clip-rule="evenodd" d="M19.9237 6.31664C24.2296 0.367117 31.4251 2.85903 32.7998 5.12371L36.3142 11.1831L27.2327 26.8881L12.8418 18.5565L19.7532 6.60067L19.9237 6.32043V6.31664Z" fill="#FFC633"/>
</svg>
