<svg width="16" height="16" viewBox="0 0 16 16" fill="none" xmlns="http://www.w3.org/2000/svg">
<path fill-rule="evenodd" clip-rule="evenodd" d="M7.38392 0.733569L7.29688 0.733483C6.8868 0.73287 6.52687 0.732333 6.20616 0.858466C5.92573 0.968759 5.67748 1.14769 5.48417 1.37885C5.26309 1.64322 5.14978 1.98484 5.02068 2.37408L4.99324 2.45668L4.90094 2.73357H2.66673H1.3334C1.00203 2.73357 0.733398 3.0022 0.733398 3.33357C0.733398 3.66494 1.00203 3.93357 1.3334 3.93357H2.10099L2.4604 10.0435L2.46176 10.0667C2.50602 10.8191 2.54114 11.4163 2.60484 11.8986C2.67002 12.3923 2.76995 12.8103 2.96623 13.1947C3.36495 13.9757 4.02151 14.5948 4.82459 14.947C5.21993 15.1204 5.64302 15.1956 6.13966 15.2317C6.62494 15.2669 7.22309 15.2669 7.97679 15.2669H7.97684H8.00006H8.02329H8.02334C8.77704 15.2669 9.37519 15.2669 9.86047 15.2317C10.3571 15.1956 10.7802 15.1204 11.1755 14.947C11.9786 14.5948 12.6352 13.9757 13.0339 13.1947C13.2302 12.8103 13.3301 12.3923 13.3953 11.8986C13.459 11.4163 13.4941 10.8191 13.5384 10.0667L13.5397 10.0435L13.8991 3.93357H14.6667C14.9981 3.93357 15.2667 3.66494 15.2667 3.33357C15.2667 3.0022 14.9981 2.73357 14.6667 2.73357H13.3334H11.0992L11.0069 2.45668L10.9794 2.37407C10.8503 1.98484 10.737 1.64322 10.516 1.37885C10.3226 1.14769 10.0744 0.968759 9.79396 0.858466C9.47326 0.732333 9.11333 0.73287 8.70325 0.733483L8.61621 0.733569H7.38392ZM10.6527 3.93357C10.662 3.93379 10.6713 3.93379 10.6806 3.93357H12.6971L12.3418 9.97306C12.2959 10.7538 12.2629 11.3075 12.2056 11.7416C12.1491 12.1693 12.0739 12.4361 11.9651 12.6491C11.6923 13.1835 11.2431 13.6071 10.6936 13.848C10.4746 13.9441 10.2038 14.0035 9.77351 14.0348C9.3368 14.0665 8.78218 14.0669 8.00006 14.0669C7.21795 14.0669 6.66333 14.0665 6.22662 14.0348C5.79628 14.0035 5.52552 13.9441 5.30652 13.848C4.75704 13.6071 4.30782 13.1835 4.03501 12.6491C3.92628 12.4361 3.85099 12.1693 3.79451 11.7416C3.73719 11.3075 3.70425 10.7538 3.65833 9.97306L3.30306 3.93357H5.31955C5.32886 3.93379 5.33815 3.93379 5.34741 3.93357H10.6527ZM9.83412 2.73357C9.68872 2.30166 9.64688 2.21019 9.59542 2.14866C9.53099 2.07161 9.44823 2.01197 9.35476 1.9752C9.27454 1.94365 9.16503 1.93357 8.61621 1.93357H7.38392C6.8351 1.93357 6.72559 1.94365 6.64537 1.9752C6.5519 2.01197 6.46914 2.07161 6.40471 2.14866C6.35325 2.21019 6.31141 2.30166 6.16601 2.73357H9.83412ZM7.2667 6.66687C7.2667 6.3355 6.99807 6.06687 6.6667 6.06687C6.33533 6.06687 6.0667 6.3355 6.0667 6.66687V11.3335C6.0667 11.6649 6.33533 11.9335 6.6667 11.9335C6.99807 11.9335 7.2667 11.6649 7.2667 11.3335V6.66687ZM9.3334 6.06687C9.66477 6.06687 9.9334 6.3355 9.9334 6.66687V9.33354C9.9334 9.66491 9.66477 9.93354 9.3334 9.93354C9.00203 9.93354 8.7334 9.66491 8.7334 9.33354V6.66687C8.7334 6.3355 9.00203 6.06687 9.3334 6.06687Z" fill="#FF4535"/>
</svg>
