<svg width="35" height="34" viewBox="0 0 35 34" fill="none" xmlns="http://www.w3.org/2000/svg">
<circle opacity="0.2" cx="17.8387" cy="17" r="17" fill="#FFC633"/>
<path d="M20.7933 10.3333H15.2066C12.7799 10.3333 11.3333 11.7799 11.3333 14.2066V19.7866C11.3333 22.2199 12.7799 23.6666 15.2066 23.6666H20.7866C23.2133 23.6666 24.6599 22.2199 24.6599 19.7933V14.2066C24.6666 11.7799 23.2199 10.3333 20.7933 10.3333ZM15.6466 16.3199C15.8399 16.1266 16.1599 16.1266 16.3533 16.3199L17.4999 17.4666V13.3399C17.4999 13.0666 17.7266 12.8399 17.9999 12.8399C18.2733 12.8399 18.4999 13.0666 18.4999 13.3399V17.4666L19.6466 16.3199C19.8399 16.1266 20.1599 16.1266 20.3533 16.3199C20.5466 16.5133 20.5466 16.8333 20.3533 17.0266L18.3533 19.0266C18.3066 19.0733 18.2533 19.1066 18.1933 19.1333C18.1333 19.1599 18.0666 19.1733 17.9999 19.1733C17.9333 19.1733 17.8733 19.1599 17.8066 19.1333C17.7466 19.1066 17.6933 19.0733 17.6466 19.0266L15.6466 17.0266C15.4533 16.8333 15.4533 16.5199 15.6466 16.3199ZM22.1599 20.4799C20.8199 20.9266 19.4133 21.1533 17.9999 21.1533C16.5866 21.1533 15.1799 20.9266 13.8399 20.4799C13.5799 20.3933 13.4399 20.1066 13.5266 19.8466C13.6133 19.5866 13.8933 19.4399 14.1599 19.5333C16.6399 20.3599 19.3666 20.3599 21.8466 19.5333C22.1066 19.4466 22.3933 19.5866 22.4799 19.8466C22.5599 20.1133 22.4199 20.3933 22.1599 20.4799Z" fill="#FDBF1F"/>
</svg>
