<svg width="13" height="13" viewBox="0 0 13 13" fill="none" xmlns="http://www.w3.org/2000/svg">
<path d="M1.42547 10.833L3.35505 8.90344L4.09661 9.64499L2.16704 11.5745C2.06965 11.6719 2.06965 11.8297 2.16704 11.927C2.26442 12.0244 2.42267 12.0244 2.52004 11.927L4.44825 9.9975L4.92835 10.4776C5.38848 10.9367 6.13346 10.9367 6.59354 10.4776L7.92231 9.15035L8.59424 9.82228V9.82179C8.69163 9.91917 8.84939 9.91917 8.94677 9.82179C9.04414 9.72441 9.04415 9.56665 8.94677 9.46927L3.53086 4.05448C3.43348 3.9571 3.27572 3.9571 3.17834 4.05448C3.08097 4.15186 3.08096 4.31011 3.17834 4.40748L3.85028 5.0794L2.52251 6.40527C2.06335 6.86588 2.06335 7.61036 2.52251 8.07093L3.00261 8.55102L1.07304 10.4816C0.975654 10.5789 0.975654 10.7367 1.07304 10.8341C1.17042 10.9314 1.32818 10.9315 1.42556 10.8341L1.42547 10.833ZM2.87502 7.7168H2.87551C2.61063 7.45144 2.61063 7.02199 2.87551 6.75663L4.20278 5.43076L7.56832 8.79623L6.24192 10.1245C5.97655 10.3893 5.54758 10.3893 5.28222 10.1245L2.87502 7.7168Z" fill="#D8D8D8" stroke="#D8D8D8" stroke-width="0.5"/>
<path d="M11.5748 2.1671L9.6452 4.09663L8.90363 3.35508L10.8332 1.42555C10.9306 1.32817 10.9306 1.17041 10.8332 1.07303C10.7358 0.975659 10.5776 0.975653 10.4802 1.07303L8.55199 3.00257L8.07092 2.52248C7.6103 2.06333 6.86581 2.06333 6.40523 2.52248L5.07796 3.84972L4.40602 3.17828C4.30864 3.0809 4.15088 3.0809 4.0535 3.17828C3.95613 3.27566 3.95612 3.43342 4.0535 3.5308L4.90122 4.3785L8.61927 8.09797L9.46699 8.94567C9.56437 9.04305 9.72213 9.04305 9.81951 8.94567C9.91688 8.84829 9.91689 8.69004 9.81951 8.59267L9.14757 7.92074L10.4778 6.59487C10.937 6.13426 10.937 5.38978 10.4778 4.92921L9.99773 4.44912L11.9273 2.51859C12.0247 2.42121 12.0247 2.26345 11.9273 2.16608C11.8299 2.0687 11.6722 2.06869 11.5748 2.16608L11.5748 2.1671ZM10.1252 5.28327H10.1247C10.3896 5.54863 10.3896 5.97808 10.1247 6.24344L8.79747 7.56931L5.43193 4.20384L6.75832 2.8756C7.02369 2.61073 7.45266 2.61073 7.71803 2.8756L10.1252 5.28327Z" fill="#D8D8D8" stroke="#D8D8D8" stroke-width="0.5"/>
</svg>
