<?xml version="1.0" encoding="UTF-8"?>
<svg xmlns="http://www.w3.org/2000/svg" xmlns:xlink="http://www.w3.org/1999/xlink" width="32px" height="32px" viewBox="0 0 32 32" version="1.1">
<g id="surface1">
<path style=" stroke:none;fill-rule:nonzero;fill:rgb(44.705882%,53.72549%,85.490196%);fill-opacity:1;" d="M 4.800781 0 L 27.199219 0 C 29.851562 0 32 2.148438 32 4.800781 L 32 27.199219 C 32 29.851562 29.851562 32 27.199219 32 L 4.800781 32 C 2.148438 32 0 29.851562 0 27.199219 L 0 4.800781 C 0 2.148438 2.148438 0 4.800781 0 Z M 4.800781 0 "/>
<path style=" stroke:none;fill-rule:nonzero;fill:rgb(100%,100%,100%);fill-opacity:1;" d="M 21.625 24.5 L 20.3125 22.9375 C 22.875 22.25 23.875 20.5 23.875 20.5 C 20.625 23.5625 11.75 23.6875 8.3125 20.5 C 8.3125 20.5 9.1875 22.125 11.8125 22.9375 L 10.375 24.5 C 6 24.4375 4.3125 21.5 4.3125 21.5 C 4.3125 15 7.1875 9.8125 7.1875 9.8125 C 10.125 7.75 12.8125 7.75 12.8125 7.75 L 13 8 C 9.375 9 7.8125 10.625 7.8125 10.625 C 12.0625 7.75 20.8125 8 24.25 10.625 C 24.3125 10.5625 22.1875 8.875 18.875 8 L 19.1875 7.75 C 19.1875 7.75 21.875 7.75 24.8125 9.8125 C 24.8125 9.8125 27.6875 15 27.6875 21.5 C 27.6875 21.5 26 24.4375 21.625 24.5 Z M 21.625 24.5 "/>
<path style=" stroke:none;fill-rule:nonzero;fill:rgb(44.705882%,53.72549%,85.490196%);fill-opacity:1;" d="M 14.3125 17.4375 C 14.3125 16.230469 13.390625 15.25 12.25 15.25 C 11.109375 15.25 10.1875 16.230469 10.1875 17.4375 C 10.1875 18.644531 11.109375 19.625 12.25 19.625 C 13.390625 19.625 14.3125 18.644531 14.3125 17.4375 Z M 14.3125 17.4375 "/>
<path style=" stroke:none;fill-rule:nonzero;fill:rgb(44.705882%,53.72549%,85.490196%);fill-opacity:1;" d="M 21.5625 17.4375 C 21.5625 16.230469 20.640625 15.25 19.5 15.25 C 18.359375 15.25 17.4375 16.230469 17.4375 17.4375 C 17.4375 18.644531 18.359375 19.625 19.5 19.625 C 20.640625 19.625 21.5625 18.644531 21.5625 17.4375 Z M 21.5625 17.4375 "/>
</g>
</svg>
