<svg width="19" height="22" viewBox="0 0 19 22" fill="none" xmlns="http://www.w3.org/2000/svg">
<path fill-rule="evenodd" clip-rule="evenodd" d="M11.5 1C11.5 0.447715 11.0523 0 10.5 0H3.5C1.84315 0 0.5 1.34315 0.5 3V19C0.5 20.6569 1.84315 22 3.5 22H15.5C17.1569 22 18.5 20.6569 18.5 19V8C18.5 7.44772 18.0523 7 17.5 7H14.5C12.8431 7 11.5 5.65685 11.5 4V1ZM5.5 12C5.5 11.4477 5.94771 11 6.5 11H12.5C13.0523 11 13.5 11.4477 13.5 12C13.5 12.5523 13.0523 13 12.5 13H6.5C5.94771 13 5.5 12.5523 5.5 12ZM5.5 16C5.5 15.4477 5.94771 15 6.5 15H9.5C10.0523 15 10.5 15.4477 10.5 16C10.5 16.5523 10.0523 17 9.5 17H6.5C5.94771 17 5.5 16.5523 5.5 16Z" fill="#6557FF"/>
</svg>
