<svg width="16" height="16" viewBox="0 0 16 16" fill="none" xmlns="http://www.w3.org/2000/svg">
<path fill-rule="evenodd" clip-rule="evenodd" d="M10.4772 11.3154H5.66382C5.38782 11.3154 5.16382 11.0914 5.16382 10.8154C5.16382 10.5394 5.38782 10.3154 5.66382 10.3154H10.4772C10.7532 10.3154 10.9772 10.5394 10.9772 10.8154C10.9772 11.0914 10.7532 11.3154 10.4772 11.3154Z" fill="#6557FF"/>
<path fill-rule="evenodd" clip-rule="evenodd" d="M10.4772 8.52441H5.66382C5.38782 8.52441 5.16382 8.30041 5.16382 8.02441C5.16382 7.74841 5.38782 7.52441 5.66382 7.52441H10.4772C10.7532 7.52441 10.9772 7.74841 10.9772 8.02441C10.9772 8.30041 10.7532 8.52441 10.4772 8.52441Z" fill="#6557FF"/>
<path fill-rule="evenodd" clip-rule="evenodd" d="M7.50049 5.74023H5.66382C5.38782 5.74023 5.16382 5.51623 5.16382 5.24023C5.16382 4.96423 5.38782 4.74023 5.66382 4.74023H7.50049C7.77649 4.74023 8.00049 4.96423 8.00049 5.24023C8.00049 5.51623 7.77649 5.74023 7.50049 5.74023Z" fill="#6557FF"/>
<mask id="mask0_6248_29941" style="mask-type:luminance" maskUnits="userSpaceOnUse" x="2" y="1" width="13" height="14">
<path fill-rule="evenodd" clip-rule="evenodd" d="M2.00024 1.33398H14.11V14.6072H2.00024V1.33398Z" fill="white"/>
</mask>
<g mask="url(#mask0_6248_29941)">
<path fill-rule="evenodd" clip-rule="evenodd" d="M10.606 2.33398L5.48 2.33665C3.928 2.34598 3 3.30598 3 4.90532V11.036C3 12.646 3.93667 13.6073 5.504 13.6073L10.63 13.6053C12.182 13.596 13.11 12.6347 13.11 11.036V4.90532C13.11 3.29532 12.174 2.33398 10.606 2.33398ZM5.50467 14.6073C3.40867 14.6073 2 13.172 2 11.036V4.90532C2 2.74998 3.36467 1.34932 5.47667 1.33665L10.6053 1.33398H10.606C12.702 1.33398 14.11 2.76932 14.11 4.90532V11.036C14.11 13.1907 12.7453 14.592 10.6333 14.6053L5.50467 14.6073Z" fill="#6557FF"/>
</g>
</svg>
