<svg width="16" height="16" viewBox="0 0 16 16" fill="none" xmlns="http://www.w3.org/2000/svg">
<path d="M10.6667 1.3335H5.33333C3 1.3335 2 2.66683 2 4.66683V11.3335C2 13.3335 3 14.6668 5.33333 14.6668H10.6667C13 14.6668 14 13.3335 14 11.3335V4.66683C14 2.66683 13 1.3335 10.6667 1.3335ZM5.33333 8.16683H8C8.27333 8.16683 8.5 8.3935 8.5 8.66683C8.5 8.94016 8.27333 9.16683 8 9.16683H5.33333C5.06 9.16683 4.83333 8.94016 4.83333 8.66683C4.83333 8.3935 5.06 8.16683 5.33333 8.16683ZM10.6667 11.8335H5.33333C5.06 11.8335 4.83333 11.6068 4.83333 11.3335C4.83333 11.0602 5.06 10.8335 5.33333 10.8335H10.6667C10.94 10.8335 11.1667 11.0602 11.1667 11.3335C11.1667 11.6068 10.94 11.8335 10.6667 11.8335ZM12.3333 6.16683H11C9.98667 6.16683 9.16667 5.34683 9.16667 4.3335V3.00016C9.16667 2.72683 9.39333 2.50016 9.66667 2.50016C9.94 2.50016 10.1667 2.72683 10.1667 3.00016V4.3335C10.1667 4.7935 10.54 5.16683 11 5.16683H12.3333C12.6067 5.16683 12.8333 5.3935 12.8333 5.66683C12.8333 5.94016 12.6067 6.16683 12.3333 6.16683Z" fill="#4A495C" fill-opacity="0.8"/>
</svg>
