<svg width="15" height="15" viewBox="0 0 15 15" fill="none" xmlns="http://www.w3.org/2000/svg">
<path d="M5.41992 8.95615C5.41992 9.7624 6.03867 10.4124 6.80742 10.4124H8.37617C9.04492 10.4124 9.58867 9.84365 9.58867 9.14365C9.58867 8.38115 9.25742 8.1124 8.76367 7.9374L6.24492 7.0624C5.75117 6.8874 5.41992 6.61865 5.41992 5.85615C5.41992 5.15615 5.96367 4.5874 6.63242 4.5874H8.20117C8.96992 4.5874 9.58867 5.2374 9.58867 6.04365" stroke="#6557FF" stroke-width="1.1875" stroke-linecap="round" stroke-linejoin="round"/>
<path d="M7.5 3.75V11.25" stroke="#6557FF" stroke-width="1.1875" stroke-linecap="round" stroke-linejoin="round"/>
<path d="M7.49988 13.75C10.9517 13.75 13.7499 10.9518 13.7499 7.5C13.7499 4.04822 10.9517 1.25 7.49988 1.25C4.0481 1.25 1.24988 4.04822 1.24988 7.5C1.24988 10.9518 4.0481 13.75 7.49988 13.75Z" stroke="#6557FF" stroke-width="1.1875" stroke-linecap="round" stroke-linejoin="round"/>
</svg>
