<svg width="16" height="16" viewBox="0 0 16 16" fill="none" xmlns="http://www.w3.org/2000/svg">
<path d="M5.52667 8.86004C5.46418 8.92202 5.41459 8.99575 5.38074 9.07699C5.34689 9.15823 5.32947 9.24537 5.32947 9.33337C5.32947 9.42138 5.34689 9.50852 5.38074 9.58976C5.41459 9.671 5.46418 9.74473 5.52667 9.80671L7.52667 11.8067C7.58864 11.8692 7.66238 11.9188 7.74362 11.9526C7.82486 11.9865 7.91199 12.0039 8 12.0039C8.08801 12.0039 8.17515 11.9865 8.25638 11.9526C8.33762 11.9188 8.41136 11.8692 8.47333 11.8067L10.4733 9.80671C10.5989 9.68117 10.6694 9.51091 10.6694 9.33337C10.6694 9.15584 10.5989 8.98558 10.4733 8.86004C10.3478 8.73451 10.1775 8.66398 10 8.66398C9.82247 8.66398 9.6522 8.73451 9.52667 8.86004L8.66667 9.72671V2.00004C8.66667 1.82323 8.59643 1.65366 8.4714 1.52864C8.34638 1.40361 8.17681 1.33337 8 1.33337C7.82319 1.33337 7.65362 1.40361 7.5286 1.52864C7.40357 1.65366 7.33333 1.82323 7.33333 2.00004V9.72671L6.47333 8.86004C6.41136 8.79756 6.33762 8.74796 6.25638 8.71411C6.17515 8.68027 6.08801 8.66284 6 8.66284C5.91199 8.66284 5.82486 8.68027 5.74362 8.71411C5.66238 8.74796 5.58864 8.79756 5.52667 8.86004ZM12 6.00004H10.6667C10.4899 6.00004 10.3203 6.07028 10.1953 6.1953C10.0702 6.32033 10 6.4899 10 6.66671C10 6.84352 10.0702 7.01309 10.1953 7.13811C10.3203 7.26314 10.4899 7.33337 10.6667 7.33337H12C12.1768 7.33337 12.3464 7.40361 12.4714 7.52864C12.5964 7.65366 12.6667 7.82323 12.6667 8.00004V12.6667C12.6667 12.8435 12.5964 13.0131 12.4714 13.1381C12.3464 13.2631 12.1768 13.3334 12 13.3334H4C3.82319 13.3334 3.65362 13.2631 3.5286 13.1381C3.40357 13.0131 3.33333 12.8435 3.33333 12.6667V8.00004C3.33333 7.82323 3.40357 7.65366 3.5286 7.52864C3.65362 7.40361 3.82319 7.33337 4 7.33337H5.33333C5.51014 7.33337 5.67971 7.26314 5.80474 7.13811C5.92976 7.01309 6 6.84352 6 6.66671C6 6.4899 5.92976 6.32033 5.80474 6.1953C5.67971 6.07028 5.51014 6.00004 5.33333 6.00004H4C3.46957 6.00004 2.96086 6.21075 2.58579 6.58583C2.21071 6.9609 2 7.46961 2 8.00004V12.6667C2 13.1971 2.21071 13.7058 2.58579 14.0809C2.96086 14.456 3.46957 14.6667 4 14.6667H12C12.5304 14.6667 13.0391 14.456 13.4142 14.0809C13.7893 13.7058 14 13.1971 14 12.6667V8.00004C14 7.46961 13.7893 6.9609 13.4142 6.58583C13.0391 6.21075 12.5304 6.00004 12 6.00004Z" fill="#B0B0B0"/>
</svg>
