<svg width="16" height="16" viewBox="0 0 16 16" fill="none" xmlns="http://www.w3.org/2000/svg">
<path d="M6.11322 4.1578L6.11322 4.15779C6.11995 4.141 6.12666 4.12427 6.13335 4.1076C6.37828 3.49687 6.58995 2.96908 6.802 2.59937C7.00376 2.24762 7.36171 1.7574 8.00039 1.7574C8.63906 1.7574 8.99702 2.24762 9.19877 2.59937C9.41083 2.96908 9.6225 3.49687 9.86742 4.1076L9.88756 4.15779L9.23788 4.4184L9.88756 4.1578L9.91198 4.21867C10.0654 4.60121 10.1617 4.839 10.2529 5.01254C10.3367 5.17181 10.3891 5.2222 10.4262 5.24985C10.4634 5.2775 10.5268 5.31316 10.7034 5.34746C10.8959 5.38483 11.1513 5.40856 11.5618 5.44533L11.7051 5.45816L11.7585 5.46293C12.3613 5.51688 12.8893 5.56412 13.2802 5.65636C13.6634 5.74681 14.1971 5.94314 14.3908 6.51915C14.5845 7.09515 14.278 7.57404 14.0273 7.8777C13.7716 8.18742 13.3794 8.5441 12.9317 8.95139L12.8921 8.98741L12.5706 9.27993C12.318 9.50977 12.1615 9.6529 12.0507 9.77278C11.9486 9.88321 11.9201 9.93797 11.9063 9.97325C11.9063 9.97325 11.9063 9.97326 11.9063 9.97326L11.2544 9.71842C11.2332 9.77265 11.2155 9.82822 11.2016 9.88476C11.1269 10.1879 11.1983 10.5097 11.3411 11.1533L11.3856 11.3537C11.648 12.5366 11.7792 13.128 11.5501 13.3831C11.4645 13.4785 11.3532 13.5471 11.2296 13.5808L6.11322 4.1578ZM6.11322 4.1578L6.0888 4.21867C6.0888 4.21867 6.0888 4.21867 6.0888 4.21867C5.93535 4.60121 5.83905 4.839 5.74783 5.01254C5.66411 5.17181 5.61172 5.2222 5.57453 5.24985C5.53734 5.2775 5.474 5.31316 5.29737 5.34746C5.1049 5.38483 4.84946 5.40856 4.43893 5.44533L4.29564 5.45816C4.2778 5.45976 4.26003 5.46135 4.24232 5.46293C3.63945 5.51687 3.11149 5.56412 2.7206 5.65636C2.33734 5.74681 1.80372 5.94314 1.61 6.51914C1.41628 7.09515 1.7228 7.57404 1.97351 7.8777C2.22922 8.18742 2.62133 8.5441 3.06908 8.95139C3.08223 8.96336 3.09543 8.97536 3.10867 8.98741L3.57974 8.46963L3.10867 8.98741L3.43019 9.27993C3.68282 9.50977 3.83925 9.6529 3.95006 9.77278C4.05215 9.88322 4.08066 9.93797 4.09445 9.97326C4.10452 9.99902 4.11289 10.0254 4.11951 10.0523C4.12858 10.0891 4.13683 10.1502 4.11706 10.2993C4.0956 10.4612 4.05027 10.6683 3.97629 11.0017L3.93184 11.2021L3.9229 11.2423C3.79928 11.7994 3.6942 12.2729 3.65302 12.6378C3.61619 12.9641 3.5894 13.4718 3.92987 13.8509C4.10538 14.0463 4.33349 14.187 4.5869 14.2561C5.07846 14.3903 5.5201 14.1385 5.79517 13.9592C6.10277 13.7586 6.47878 13.4522 6.92112 13.0917L6.9531 13.0656C7.27178 12.806 7.47359 12.6425 7.63818 12.5324C7.79236 12.4293 7.8615 12.4101 7.90053 12.4038C7.96668 12.3933 8.03409 12.3933 8.10024 12.4038C8.13927 12.4101 8.20841 12.4293 8.3626 12.5324C8.52718 12.6425 8.72899 12.806 9.04767 13.0656L9.48986 12.523M6.11322 4.1578L9.48986 12.523M9.48986 12.523L9.04767 13.0656L9.07966 13.0917C9.522 13.4522 9.89801 13.7586 10.2056 13.9592C10.4807 14.1385 10.9223 14.3903 11.4139 14.2561L9.48986 12.523Z" stroke="#737373" stroke-width="1.4"/>
</svg>
