<svg width="24" height="24" viewBox="0 0 24 24" fill="none" xmlns="http://www.w3.org/2000/svg">
<circle cx="12" cy="12" r="12" fill="#6557FF"/>
<path opacity="0.3" fill-rule="evenodd" clip-rule="evenodd" d="M13.212 6.6665H8.12105C7.17818 6.6665 6.6665 7.17818 6.6665 8.12105V13.212C6.6665 14.1137 7.13447 14.621 8 14.6636V10C8 8.89543 8.89543 8 10 8H14.6636C14.621 7.13447 14.1137 6.6665 13.212 6.6665Z" fill="white"/>
<path fill-rule="evenodd" clip-rule="evenodd" d="M10.788 9.3335H15.879C16.8218 9.3335 17.3335 9.84517 17.3335 10.788V15.879C17.3335 16.8218 16.8218 17.3335 15.879 17.3335H10.788C9.84517 17.3335 9.3335 16.8218 9.3335 15.879V10.788C9.3335 9.84517 9.84517 9.3335 10.788 9.3335Z" fill="white"/>
</svg>
