<svg width="102" height="21" viewBox="0 0 102 21" fill="none" xmlns="http://www.w3.org/2000/svg">
<path d="M41.0725 6.13452C42.115 6.13452 42.9531 6.47725 43.5868 7.16271C44.2307 7.83729 44.5526 8.78388 44.5526 10.0025V15.3066H42.4063V10.3126C42.4063 9.60535 42.2377 9.06677 41.9004 8.69684C41.5631 8.31603 41.1032 8.12562 40.5206 8.12562C39.938 8.12562 39.473 8.31603 39.1255 8.69684C38.7882 9.06677 38.6196 9.60535 38.6196 10.3126V15.3066H36.4733V10.3126C36.4733 9.60535 36.3046 9.06677 35.9673 8.69684C35.6301 8.31603 35.1701 8.12562 34.5876 8.12562C33.9948 8.12562 33.5246 8.31603 33.1771 8.69684C32.8398 9.06677 32.6712 9.60535 32.6712 10.3126V15.3066H30.5249V6.26508H32.6712V7.35856C32.9472 6.97774 33.2998 6.67853 33.729 6.46093C34.1685 6.24332 34.6489 6.13452 35.1701 6.13452C35.8345 6.13452 36.4273 6.28684 36.9485 6.59149C37.4698 6.88526 37.8735 7.30959 38.1597 7.86449C38.4356 7.34224 38.8342 6.92334 39.3555 6.60781C39.8869 6.29228 40.4593 6.13452 41.0725 6.13452Z" fill="#060606"/>
<path fill-rule="evenodd" clip-rule="evenodd" d="M35.1701 6.21605C34.6608 6.21605 34.193 6.32224 33.7656 6.53382C33.3477 6.7457 33.0053 7.03643 32.7372 7.4064L32.5897 7.61001V6.34661H30.6064V15.2251H32.5897V10.3126C32.5897 9.59339 32.7612 9.03207 33.1169 8.64191C33.4822 8.24156 33.9756 8.04409 34.5876 8.04409C35.1895 8.04409 35.6729 8.24173 36.028 8.64234C36.3834 9.03248 36.5548 9.59366 36.5548 10.3126V15.2251H38.538V10.3126C38.538 9.59339 38.7095 9.03207 39.0652 8.64191C39.4303 8.24188 39.9184 8.04409 40.5206 8.04409C41.1225 8.04409 41.606 8.24173 41.961 8.64235C42.3165 9.03249 42.4878 9.59366 42.4878 10.3126V15.2251H44.4711V10.0025C44.4711 8.7982 44.1532 7.87421 43.5278 7.219L43.5269 7.21806C42.9105 6.55133 42.0952 6.21605 41.0725 6.21605C40.4742 6.21605 39.9163 6.36975 39.3974 6.67775C38.8885 6.98586 38.5005 7.39392 38.2317 7.90258L38.1588 8.04066L38.0872 7.90186C37.808 7.36046 37.4152 6.94812 36.9085 6.66252L36.9074 6.66189C36.3998 6.36525 35.8215 6.21605 35.1701 6.21605ZM33.6929 6.38786C34.1443 6.16434 34.6371 6.05299 35.1701 6.05299C35.8472 6.05299 36.4543 6.20834 36.9891 6.52079C37.4824 6.79893 37.873 7.19104 38.1606 7.6953C38.4394 7.22012 38.824 6.83421 39.3132 6.53807C39.8572 6.21512 40.4445 6.05299 41.0725 6.05299C42.1346 6.05299 42.9952 6.40301 43.6462 7.10688C44.3083 7.8008 44.6341 8.76983 44.6341 10.0025V15.3882H42.3248V10.3126C42.3248 9.6173 42.159 9.10147 41.8401 8.75177L41.8393 8.7509C41.5199 8.39019 41.0836 8.20715 40.5206 8.20715C39.9577 8.20715 39.5157 8.39019 39.1857 8.75177C38.8669 9.10147 38.7011 9.6173 38.7011 10.3126V15.3882H36.3917V10.3126C36.3917 9.6173 36.2259 9.10147 35.9071 8.75177L35.9063 8.7509C35.5868 8.39019 35.1505 8.20715 34.5876 8.20715C34.0139 8.20715 33.567 8.39051 33.2374 8.75177C32.9185 9.10147 32.7527 9.6173 32.7527 10.3126V15.3882H30.4434V6.18355H32.7527V7.12299C33.0113 6.81953 33.3253 6.57418 33.6929 6.38786Z" fill="#060606"/>
<path d="M54.6076 10.7381C54.6076 11.0631 54.5863 11.3555 54.5439 11.6155H48.0949C48.1479 12.2654 48.3709 12.7744 48.7636 13.1427C49.1564 13.511 49.6394 13.6951 50.2127 13.6951C51.0407 13.6951 51.6299 13.3323 51.9802 12.6066H54.3847C54.1299 13.4731 53.6416 14.1879 52.9197 14.7512C52.1978 15.3036 51.3114 15.5798 50.2605 15.5798C49.4112 15.5798 48.6469 15.3902 47.9675 15.0111C47.2987 14.6212 46.7732 14.0742 46.391 13.3702C46.0195 12.6661 45.8337 11.8538 45.8337 10.9331C45.8337 10.0016 46.0195 9.18382 46.391 8.47978C46.7626 7.77574 47.2828 7.23417 47.9515 6.85507C48.6203 6.47597 49.39 6.28642 50.2605 6.28642C51.0991 6.28642 51.8475 6.47055 52.5057 6.83882C53.1745 7.20709 53.6893 7.73241 54.0503 8.41479C54.4218 9.08634 54.6076 9.86079 54.6076 10.7381ZM52.2987 10.0882C52.2881 9.50335 52.081 9.0376 51.6776 8.69099C51.2743 8.33356 50.7806 8.15484 50.1968 8.15484C49.6447 8.15484 49.1777 8.32814 48.7955 8.67475C48.4239 9.01052 48.1957 9.48169 48.1108 10.0882H52.2987Z" fill="#060606"/>
<path d="M73.5417 7.73241C73.8283 7.32082 74.2211 6.97963 74.72 6.70884C75.2296 6.42723 75.8081 6.28642 76.4557 6.28642C77.2094 6.28642 77.8888 6.47597 78.4939 6.85507C79.1096 7.23417 79.5926 7.77574 79.9429 8.47978C80.3039 9.17299 80.4843 9.97993 80.4843 10.9006C80.4843 11.8213 80.3039 12.639 79.9429 13.3539C79.5926 14.058 79.1096 14.605 78.4939 14.9949C77.8888 15.3848 77.2094 15.5798 76.4557 15.5798C75.8081 15.5798 75.2349 15.4444 74.7359 15.1736C74.2476 14.9028 73.8495 14.5616 73.5417 14.15V19.7228H71.3124V6.43264H73.5417V7.73241ZM78.2073 10.9006C78.2073 10.359 78.0958 9.89328 77.8729 9.50335C77.6606 9.10259 77.3739 8.79931 77.013 8.59351C76.6627 8.38771 76.2805 8.28481 75.8665 8.28481C75.4631 8.28481 75.0809 8.39313 74.72 8.60976C74.3697 8.81555 74.0831 9.11883 73.8602 9.5196C73.6478 9.92036 73.5417 10.3915 73.5417 10.9331C73.5417 11.4747 73.6478 11.9458 73.8602 12.3466C74.0831 12.7474 74.3697 13.0561 74.72 13.2727C75.0809 13.4785 75.4631 13.5814 75.8665 13.5814C76.2805 13.5814 76.6627 13.4731 77.013 13.2564C77.3739 13.0398 77.6606 12.7311 77.8729 12.3304C78.0958 11.9296 78.2073 11.453 78.2073 10.9006Z" fill="#060606"/>
<path d="M86.4355 6.30266C87.1043 6.30266 87.6988 6.4543 88.2189 6.75758C88.7391 7.05003 89.1425 7.48871 89.4291 8.0736C89.7264 8.64767 89.875 9.34088 89.875 10.1532V15.4336H87.6457V10.4619C87.6457 9.74706 87.4705 9.20007 87.1202 8.82097C86.7699 8.43104 86.2922 8.23607 85.6871 8.23607C85.0714 8.23607 84.5831 8.43104 84.2221 8.82097C83.8718 9.20007 83.6967 9.74706 83.6967 10.4619V15.4336H81.4674V1.71826H83.6967V7.55369C83.9833 7.16376 84.3654 6.86048 84.8432 6.64385C85.3209 6.41639 85.8516 6.30266 86.4355 6.30266Z" fill="#060606"/>
<path d="M92.4886 5.36033C92.0958 5.36033 91.7667 5.23577 91.5013 4.98665C91.2465 4.72669 91.1191 4.40716 91.1191 4.02806C91.1191 3.64896 91.2465 3.33485 91.5013 3.08573C91.7667 2.82577 92.0958 2.6958 92.4886 2.6958C92.8813 2.6958 93.2051 2.82577 93.4599 3.08573C93.7253 3.33485 93.858 3.64896 93.858 4.02806C93.858 4.40716 93.7253 4.72669 93.4599 4.98665C93.2051 5.23577 92.8813 5.36033 92.4886 5.36033ZM93.5873 6.43264V15.4336H91.358V6.43264H93.5873Z" fill="#060606"/>
<path d="M98.5287 15.5798C97.8068 15.5798 97.1592 15.4498 96.586 15.1899C96.0128 14.9191 95.5563 14.5562 95.2166 14.1013C94.8875 13.6464 94.707 13.1427 94.6752 12.5903H96.9204C96.9629 12.9369 97.1274 13.2239 97.414 13.4514C97.7113 13.6789 98.0775 13.7926 98.5127 13.7926C98.9374 13.7926 99.2665 13.7059 99.5 13.5326C99.7442 13.3593 99.8662 13.1373 99.8662 12.8665C99.8662 12.5741 99.7176 12.3574 99.4204 12.2166C99.1338 12.065 98.672 11.9025 98.035 11.7292C97.3769 11.5667 96.8355 11.3988 96.4108 11.2255C95.9968 11.0522 95.6359 10.7869 95.328 10.4294C95.0308 10.072 94.8822 9.59 94.8822 8.98344C94.8822 8.4852 95.0202 8.03028 95.2962 7.61868C95.5828 7.20709 95.9862 6.88215 96.5064 6.64385C97.0372 6.40556 97.6582 6.28642 98.3694 6.28642C99.4204 6.28642 100.259 6.5572 100.885 7.09877C101.512 7.62951 101.857 8.3498 101.92 9.25964H99.7866C99.7548 8.90221 99.6062 8.62059 99.3408 8.41479C99.086 8.19816 98.741 8.08985 98.3057 8.08985C97.9023 8.08985 97.5892 8.16567 97.3663 8.31731C97.1539 8.46895 97.0478 8.68016 97.0478 8.95095C97.0478 9.25423 97.1964 9.4871 97.4936 9.64958C97.7909 9.80122 98.2527 9.95827 98.879 10.1207C99.5159 10.2832 100.041 10.4511 100.455 10.6244C100.869 10.7977 101.225 11.0685 101.522 11.4368C101.83 11.7942 101.989 12.2708 102 12.8665C102 13.3864 101.857 13.8522 101.57 14.2638C101.294 14.6754 100.891 15.0003 100.36 15.2386C99.8397 15.4661 99.2293 15.5798 98.5287 15.5798Z" fill="#060606"/>
<path d="M66.4558 6.13447C67.4983 6.13447 68.3364 6.4772 68.9701 7.16266C69.614 7.83724 69.9359 8.78383 69.9359 10.0024V15.3066H67.7896V10.3125C67.7896 9.6053 67.621 9.06672 67.2837 8.69679C66.9464 8.31598 66.4865 8.12557 65.9039 8.12557C65.3213 8.12557 64.8563 8.31598 64.5088 8.69679C64.1715 9.06672 64.0029 9.6053 64.0029 10.3125V15.3066H61.8566V10.3125C61.8566 9.6053 61.6879 9.06672 61.3506 8.69679C61.0134 8.31598 60.5534 8.12557 59.9709 8.12557C59.3781 8.12557 58.9079 8.31598 58.5604 8.69679C58.2231 9.06672 58.0545 9.6053 58.0545 10.3125V15.3066H55.9082V6.26503H58.0545V7.35851C58.3305 6.9777 58.6831 6.67849 59.1123 6.46088C59.5518 6.24327 60.0322 6.13447 60.5534 6.13447C61.2178 6.13447 61.8106 6.28679 62.3318 6.59144C62.8531 6.88521 63.2568 7.30955 63.543 7.86444C63.8189 7.34219 64.2175 6.92329 64.7388 6.60776C65.2702 6.29223 65.8426 6.13447 66.4558 6.13447Z" fill="#060606"/>
<path fill-rule="evenodd" clip-rule="evenodd" d="M12.8208 19.1186C12.7573 19.3724 12.6298 19.5911 12.443 19.8015C12.2396 20.0272 11.9557 20.2204 11.6521 20.3722C10.961 20.7177 10.1594 20.8218 9.36864 20.7198L9.36344 20.7191L9.35822 20.7186C8.64155 20.6444 7.95205 20.3488 7.4116 19.8601L1.0158 13.5197C0.834404 13.3382 0.710274 13.1868 0.630487 13.0072C0.542764 12.8099 0.500404 12.6187 0.5 12.403L0.555634 8.8981L0.554722 8.8826C0.534324 8.53583 0.652074 8.2007 0.943316 7.88705L0.945518 7.88468L0.947683 7.88228C1.15018 7.65728 1.43279 7.46447 1.73526 7.31277C2.41634 6.99195 3.24832 6.88187 4.03835 6.98063C4.83266 7.07992 5.54134 7.38428 5.99976 7.84269L6.00072 7.84366L12.4131 14.1727L12.4212 14.18C12.6084 14.3464 12.7406 14.5602 12.8334 14.8152C12.8968 14.9897 12.935 15.1435 12.9466 15.2943L12.8638 18.8542V18.859C12.8638 18.9162 12.847 19.0135 12.8208 19.1186Z" fill="#FFC633"/>
<path d="M14.9595 12.9311C14.9712 12.9189 14.9828 12.9066 14.9943 12.8942C15.2181 12.6543 15.3774 12.3615 15.4572 12.0432C15.4874 11.9234 15.5041 11.8007 15.5071 11.6773L15.5738 8.09232C15.5712 8.2132 15.5305 7.99671 15.5018 8.11417C15.5275 7.99577 15.5716 8.22025 15.5737 8.10011C15.5772 7.8946 15.5463 7.68881 15.4814 7.492C15.3786 7.18002 15.1941 6.90125 14.9472 6.68462C13.8605 5.60626 11.7259 5.33459 10.1957 6.07476C9.84964 6.23743 9.53812 6.46519 9.27813 6.74561C8.905 7.15358 8.72729 7.63304 8.76213 8.11347L8.72579 9.85211L12.7933 13.8668C12.817 13.8879 12.8399 13.9094 12.8621 13.9314C13.2859 13.8689 13.6979 13.7487 14.0739 13.5679C14.4053 13.4111 14.7056 13.1951 14.9595 12.9311Z" fill="#61DFC6"/>
<path d="M25.6531 8.66936C25.7022 8.80487 25.7358 8.92738 25.7538 9.04374C25.7593 9.07905 25.7634 9.11386 25.766 9.14843L25.6834 12.7084V12.7132C25.6834 12.7704 25.6667 12.8677 25.6405 12.9727C25.5771 13.2266 25.45 13.4453 25.2635 13.6557C25.0606 13.8813 24.7774 14.0745 24.4745 14.2263C23.7849 14.5719 22.985 14.676 22.1961 14.574L22.1909 14.5733L22.1857 14.5728C21.4706 14.4986 20.7827 14.203 20.2434 13.7143L15.983 9.44565L16.0041 8.18843C16.0086 7.93599 15.9497 7.55878 15.8702 7.31701C15.8087 7.13014 15.7234 6.95298 15.617 6.78969C15.508 6.6224 15.3768 6.46959 15.2264 6.33583C14.7334 5.8495 14.0565 5.59572 13.3471 5.42138L13.4029 2.75227L13.4019 2.73677C13.3816 2.39001 13.4991 2.05488 13.7897 1.74123L13.7919 1.73886L13.794 1.73645C13.9961 1.51146 14.278 1.31865 14.5798 1.16695C15.2594 0.846127 16.0895 0.736051 16.8778 0.834804C17.6703 0.934092 18.3774 1.23846 18.8348 1.69687L18.8357 1.69783L25.2337 8.02691L25.2418 8.03413C25.4286 8.20053 25.5605 8.41435 25.6531 8.66936Z" fill="#6557FF"/>
</svg>
