<svg width="263" height="45" viewBox="0 0 263 45" fill="none" xmlns="http://www.w3.org/2000/svg">
<path fill-rule="evenodd" clip-rule="evenodd" d="M23.4068 41.7158C23.2862 42.2246 23.0441 42.6629 22.6891 43.0847C22.3028 43.5369 21.7634 43.9242 21.1867 44.2284C19.8737 44.921 18.3507 45.1296 16.8485 44.9251L16.8386 44.9238L16.8287 44.9227C15.4672 44.7741 14.1573 44.1816 13.1306 43.2021L0.979909 30.4942L0.978752 30.4929C0.634138 30.1292 0.399477 29.8269 0.247897 29.4671C0.081243 29.0715 0.000767413 28.6882 0 28.2561L0.105693 21.2312L0.103961 21.2001C0.065209 20.5051 0.288907 19.8334 0.842206 19.2048L0.846389 19.2L0.850502 19.1952C1.2352 18.7443 1.7721 18.3578 2.34673 18.0538C3.64064 17.4108 5.22123 17.1901 6.72211 17.3881C8.23113 17.5871 9.57747 18.1971 10.4484 19.1159L10.4502 19.1178L22.6323 31.803L22.6477 31.8175C23.0034 32.151 23.2546 32.5796 23.4308 33.0907C23.5514 33.4405 23.6239 33.7488 23.6458 34.0509L23.4885 41.186V41.1957C23.4885 41.3103 23.4567 41.5053 23.4068 41.7158Z" fill="#FFC633"/>
<path d="M27.47 29.3145C27.4923 29.2901 27.5142 29.2654 27.5361 29.2406C27.9612 28.7596 28.2638 28.1727 28.4156 27.5348C28.4729 27.2948 28.5047 27.0489 28.5104 26.8014L28.6371 19.6162C28.6321 19.8585 28.5547 19.4246 28.5003 19.66C28.5491 19.4227 28.6329 19.8726 28.6368 19.6318C28.6435 19.2199 28.5848 18.8075 28.4615 18.413C28.2661 17.7877 27.9157 17.229 27.4465 16.7948C25.3821 14.6335 21.3269 14.089 18.4198 15.5725C17.7623 15.8985 17.1705 16.355 16.6766 16.917C15.9677 17.7347 15.6301 18.6957 15.6963 19.6586L15.6272 23.1433L23.3547 31.1899C23.3997 31.2321 23.4432 31.2752 23.4853 31.3193C24.2904 31.1941 25.0732 30.9532 25.7876 30.5907C26.4172 30.2764 26.9875 29.8437 27.47 29.3145Z" fill="#61DFC6"/>
<path d="M47.7854 20.7728C47.8788 21.0443 47.9426 21.2899 47.9769 21.5231C47.9873 21.5939 47.995 21.6637 48 21.7329L47.8431 28.868V28.8777C47.8431 28.9924 47.8113 29.1874 47.7615 29.3979C47.6412 29.9067 47.3996 30.345 47.0454 30.7668C46.6599 31.219 46.1218 31.6062 45.5463 31.9105C44.2363 32.6031 42.7168 32.8117 41.2179 32.6072L41.2081 32.6059L41.1982 32.6048C39.8397 32.4562 38.5328 31.8637 37.5083 30.8842L29.4144 22.3287L29.4545 19.8088C29.463 19.3029 29.3511 18.5468 29.2 18.0623C29.0833 17.6877 28.9212 17.3327 28.7191 17.0054C28.5119 16.6701 28.2627 16.3638 27.977 16.0957C27.0405 15.121 25.7544 14.6123 24.4067 14.2629L24.5127 8.91328L24.5109 8.88222C24.4723 8.18721 24.6955 7.51551 25.2475 6.88687L25.2517 6.88212L25.2558 6.8773C25.6397 6.42635 26.1753 6.0399 26.7487 5.73586C28.0397 5.09284 29.6167 4.87222 31.1143 5.07015C32.6199 5.26915 33.9632 5.87918 34.8321 6.79797L34.834 6.79989L46.9887 19.4851L47.0041 19.4996C47.359 19.8331 47.6097 20.2616 47.7854 20.7728Z" fill="#6557FF"/>
<path d="M82.4288 11.768C84.8768 11.768 86.8448 12.524 88.3328 14.036C89.8448 15.524 90.6008 17.612 90.6008 20.3V32H85.5608V20.984C85.5608 19.424 85.1648 18.236 84.3728 17.42C83.5808 16.58 82.5008 16.16 81.1328 16.16C79.7648 16.16 78.6728 16.58 77.8568 17.42C77.0648 18.236 76.6688 19.424 76.6688 20.984V32H71.6288V20.984C71.6288 19.424 71.2328 18.236 70.4408 17.42C69.6488 16.58 68.5688 16.16 67.2008 16.16C65.8088 16.16 64.7048 16.58 63.8888 17.42C63.0968 18.236 62.7008 19.424 62.7008 20.984V32H57.6608V12.056H62.7008V14.468C63.3488 13.628 64.1768 12.968 65.1848 12.488C66.2168 12.008 67.3448 11.768 68.5688 11.768C70.1288 11.768 71.5208 12.104 72.7448 12.776C73.9688 13.424 74.9168 14.36 75.5888 15.584C76.2368 14.432 77.1728 13.508 78.3968 12.812C79.6448 12.116 80.9888 11.768 82.4288 11.768ZM112.663 21.596C112.663 22.316 112.615 22.964 112.519 23.54H97.9395C98.0595 24.98 98.5635 26.108 99.4515 26.924C100.339 27.74 101.431 28.148 102.727 28.148C104.599 28.148 105.931 27.344 106.723 25.736H112.159C111.583 27.656 110.479 29.24 108.847 30.488C107.215 31.712 105.211 32.324 102.835 32.324C100.915 32.324 99.1875 31.904 97.6515 31.064C96.1395 30.2 94.9515 28.988 94.0875 27.428C93.2475 25.868 92.8275 24.068 92.8275 22.028C92.8275 19.964 93.2475 18.152 94.0875 16.592C94.9275 15.032 96.1035 13.832 97.6155 12.992C99.1275 12.152 100.867 11.732 102.835 11.732C104.731 11.732 106.423 12.14 107.911 12.956C109.423 13.772 110.587 14.936 111.403 16.448C112.243 17.936 112.663 19.652 112.663 21.596ZM107.443 20.156C107.419 18.86 106.951 17.828 106.039 17.06C105.127 16.268 104.011 15.872 102.691 15.872C101.443 15.872 100.387 16.256 99.5235 17.024C98.6835 17.768 98.1675 18.812 97.9755 20.156H107.443ZM139.85 11.768C142.298 11.768 144.266 12.524 145.754 14.036C147.266 15.524 148.022 17.612 148.022 20.3V32H142.982V20.984C142.982 19.424 142.586 18.236 141.794 17.42C141.002 16.58 139.922 16.16 138.554 16.16C137.186 16.16 136.094 16.58 135.278 17.42C134.486 18.236 134.09 19.424 134.09 20.984V32H129.05V20.984C129.05 19.424 128.654 18.236 127.862 17.42C127.07 16.58 125.99 16.16 124.622 16.16C123.23 16.16 122.126 16.58 121.31 17.42C120.518 18.236 120.122 19.424 120.122 20.984V32H115.082V12.056H120.122V14.468C120.77 13.628 121.598 12.968 122.606 12.488C123.638 12.008 124.766 11.768 125.99 11.768C127.55 11.768 128.942 12.104 130.166 12.776C131.39 13.424 132.338 14.36 133.01 15.584C133.658 14.432 134.594 13.508 135.818 12.812C137.066 12.116 138.41 11.768 139.85 11.768ZM156.585 14.936C157.233 14.024 158.121 13.268 159.249 12.668C160.401 12.044 161.709 11.732 163.173 11.732C164.877 11.732 166.413 12.152 167.781 12.992C169.173 13.832 170.265 15.032 171.057 16.592C171.873 18.128 172.281 19.916 172.281 21.956C172.281 23.996 171.873 25.808 171.057 27.392C170.265 28.952 169.173 30.164 167.781 31.028C166.413 31.892 164.877 32.324 163.173 32.324C161.709 32.324 160.413 32.024 159.285 31.424C158.181 30.824 157.281 30.068 156.585 29.156V41.504H151.545V12.056H156.585V14.936ZM167.133 21.956C167.133 20.756 166.881 19.724 166.377 18.86C165.897 17.972 165.249 17.3 164.433 16.844C163.641 16.388 162.777 16.16 161.841 16.16C160.929 16.16 160.065 16.4 159.249 16.88C158.457 17.336 157.809 18.008 157.305 18.896C156.825 19.784 156.585 20.828 156.585 22.028C156.585 23.228 156.825 24.272 157.305 25.16C157.809 26.048 158.457 26.732 159.249 27.212C160.065 27.668 160.929 27.896 161.841 27.896C162.777 27.896 163.641 27.656 164.433 27.176C165.249 26.696 165.897 26.012 166.377 25.124C166.881 24.236 167.133 23.18 167.133 21.956ZM185.915 11.768C187.427 11.768 188.771 12.104 189.947 12.776C191.123 13.424 192.035 14.396 192.683 15.692C193.355 16.964 193.691 18.5 193.691 20.3V32H188.651V20.984C188.651 19.4 188.255 18.188 187.463 17.348C186.671 16.484 185.591 16.052 184.223 16.052C182.831 16.052 181.727 16.484 180.911 17.348C180.119 18.188 179.723 19.4 179.723 20.984V32H174.683V5.36H179.723V14.54C180.371 13.676 181.235 13.004 182.315 12.524C183.395 12.02 184.595 11.768 185.915 11.768ZM199.78 9.68C198.892 9.68 198.148 9.404 197.548 8.852C196.972 8.276 196.684 7.568 196.684 6.728C196.684 5.888 196.972 5.192 197.548 4.64C198.148 4.064 198.892 3.776 199.78 3.776C200.668 3.776 201.4 4.064 201.976 4.64C202.576 5.192 202.876 5.888 202.876 6.728C202.876 7.568 202.576 8.276 201.976 8.852C201.4 9.404 200.668 9.68 199.78 9.68ZM202.264 12.056V32H197.224V12.056H202.264ZM213.616 32.324C211.984 32.324 210.52 32.036 209.224 31.46C207.928 30.86 206.896 30.056 206.128 29.048C205.384 28.04 204.976 26.924 204.904 25.7H209.98C210.076 26.468 210.448 27.104 211.096 27.608C211.768 28.112 212.596 28.364 213.58 28.364C214.54 28.364 215.284 28.172 215.812 27.788C216.364 27.404 216.64 26.912 216.64 26.312C216.64 25.664 216.304 25.184 215.632 24.872C214.984 24.536 213.94 24.176 212.5 23.792C211.012 23.432 209.788 23.06 208.828 22.676C207.892 22.292 207.076 21.704 206.38 20.912C205.708 20.12 205.372 19.052 205.372 17.708C205.372 16.604 205.684 15.596 206.308 14.684C206.956 13.772 207.868 13.052 209.044 12.524C210.244 11.996 211.648 11.732 213.256 11.732C215.632 11.732 217.528 12.332 218.944 13.532C220.36 14.708 221.14 16.304 221.284 18.32H216.46C216.388 17.528 216.052 16.904 215.452 16.448C214.876 15.968 214.096 15.728 213.112 15.728C212.2 15.728 211.492 15.896 210.988 16.232C210.508 16.568 210.268 17.036 210.268 17.636C210.268 18.308 210.604 18.824 211.276 19.184C211.948 19.52 212.992 19.868 214.408 20.228C215.848 20.588 217.036 20.96 217.972 21.344C218.908 21.728 219.712 22.328 220.384 23.144C221.08 23.936 221.44 24.992 221.464 26.312C221.464 27.464 221.14 28.496 220.492 29.408C219.868 30.32 218.956 31.04 217.756 31.568C216.58 32.072 215.2 32.324 213.616 32.324ZM224.477 32.14C223.97 32.14 223.55 31.9867 223.217 31.68C222.897 31.36 222.737 30.9667 222.737 30.5C222.737 30.0333 222.897 29.6467 223.217 29.34C223.55 29.02 223.97 28.86 224.477 28.86C224.97 28.86 225.377 29.02 225.697 29.34C226.017 29.6467 226.177 30.0333 226.177 30.5C226.177 30.9667 226.017 31.36 225.697 31.68C225.377 31.9867 224.97 32.14 224.477 32.14ZM227.012 26.42C227.012 25.3 227.232 24.3067 227.672 23.44C228.125 22.5733 228.739 21.9067 229.512 21.44C230.285 20.9733 231.145 20.74 232.092 20.74C232.812 20.74 233.499 20.9 234.152 21.22C234.805 21.5267 235.325 21.94 235.712 22.46V17.2H238.552V32H235.712V30.36C235.365 30.9067 234.879 31.3467 234.252 31.68C233.625 32.0133 232.899 32.18 232.072 32.18C231.139 32.18 230.285 31.94 229.512 31.46C228.739 30.98 228.125 30.3067 227.672 29.44C227.232 28.56 227.012 27.5533 227.012 26.42ZM235.732 26.46C235.732 25.78 235.599 25.2 235.332 24.72C235.065 24.2267 234.705 23.8533 234.252 23.6C233.799 23.3333 233.312 23.2 232.792 23.2C232.272 23.2 231.792 23.3267 231.352 23.58C230.912 23.8333 230.552 24.2067 230.272 24.7C230.005 25.18 229.872 25.7533 229.872 26.42C229.872 27.0867 230.005 27.6733 230.272 28.18C230.552 28.6733 230.912 29.0533 231.352 29.32C231.805 29.5867 232.285 29.72 232.792 29.72C233.312 29.72 233.799 29.5933 234.252 29.34C234.705 29.0733 235.065 28.7 235.332 28.22C235.599 27.7267 235.732 27.14 235.732 26.46ZM250.887 26.22C250.887 26.62 250.86 26.98 250.807 27.3H242.707C242.773 28.1 243.053 28.7267 243.547 29.18C244.04 29.6333 244.647 29.86 245.367 29.86C246.407 29.86 247.147 29.4133 247.587 28.52H250.607C250.287 29.5867 249.673 30.4667 248.767 31.16C247.86 31.84 246.747 32.18 245.427 32.18C244.36 32.18 243.4 31.9467 242.547 31.48C241.707 31 241.047 30.3267 240.567 29.46C240.1 28.5933 239.867 27.5933 239.867 26.46C239.867 25.3133 240.1 24.3067 240.567 23.44C241.033 22.5733 241.687 21.9067 242.527 21.44C243.367 20.9733 244.333 20.74 245.427 20.74C246.48 20.74 247.42 20.9667 248.247 21.42C249.087 21.8733 249.733 22.52 250.187 23.36C250.653 24.1867 250.887 25.14 250.887 26.22ZM247.987 25.42C247.973 24.7 247.713 24.1267 247.207 23.7C246.7 23.26 246.08 23.04 245.347 23.04C244.653 23.04 244.067 23.2533 243.587 23.68C243.12 24.0933 242.833 24.6733 242.727 25.42H247.987ZM256.851 29.42L259.651 20.92H262.631L258.531 32H255.131L251.051 20.92H254.051L256.851 29.42Z" fill="black"/>
</svg>
