<svg width="68" height="68" viewBox="0 0 68 68" fill="none" xmlns="http://www.w3.org/2000/svg">
<path d="M30.6529 7.03737C32.2433 6.13835 33.0385 5.68884 33.9117 5.68884C34.7849 5.68884 35.5801 6.13835 37.1705 7.03737L56.0529 17.711C57.6433 18.6101 58.4385 19.0596 58.8751 19.8C59.3117 20.5403 59.3117 21.4394 59.3117 23.2374V44.5847C59.3117 46.3828 59.3117 47.2818 58.8751 48.0222C58.4385 48.7626 57.6433 49.2121 56.0529 50.1111L37.1705 60.7848C35.5801 61.6838 34.7849 62.1333 33.9117 62.1333C33.0385 62.1333 32.2433 61.6838 30.6529 60.7848L11.7705 50.1111C10.1801 49.2121 9.38492 48.7626 8.94832 48.0222C8.51172 47.2818 8.51172 46.3828 8.51172 44.5847V23.2374C8.51172 21.4394 8.51172 20.5403 8.94832 19.8C9.38492 19.0596 10.1801 18.6101 11.7705 17.711L30.6529 7.03737Z" stroke="#6557FF" stroke-width="4.13333" stroke-linecap="round" stroke-linejoin="round"/>
<path d="M43.7897 12.0967L37.1124 15.7094C35.5498 16.5549 34.7685 16.9776 33.912 16.9776C33.0554 16.9776 32.2741 16.5549 30.7115 15.7094L24.0342 12.0967" stroke="#6557FF" stroke-width="4.13333" stroke-linecap="round" stroke-linejoin="round"/>
<path d="M33.9108 32.8254V62.1331M33.9108 32.8254L57.8996 19.7998M33.9108 32.8254L9.92188 19.7998" stroke="#6557FF" stroke-width="4.13333" stroke-linecap="round" stroke-linejoin="round"/>
<path d="M8.51172 33.911L16.6804 38.3096C18.1986 39.127 18.9576 39.5357 19.3791 40.2702C19.8006 41.0046 19.8006 41.9186 19.8006 43.7464V53.6666" stroke="#6557FF" stroke-width="4.13333" stroke-linecap="round" stroke-linejoin="round"/>
<path d="M59.3113 33.911L51.1426 38.3096C49.6245 39.127 48.8655 39.5357 48.444 40.2702C48.0225 41.0046 48.0225 41.9186 48.0225 43.7464V53.6666" stroke="#6557FF" stroke-width="4.13333" stroke-linecap="round" stroke-linejoin="round"/>
</svg>
