<svg width="22" height="22" viewBox="0 0 22 22" fill="none" xmlns="http://www.w3.org/2000/svg">
<path d="M8.24957 11.9167C7.64457 12.2192 7.1404 12.6684 6.76457 13.2276C6.55374 13.5484 6.55374 13.9517 6.76457 14.2726C7.1404 14.8317 7.64457 15.2809 8.24957 15.5834" stroke="#6557FF" stroke-width="1.375" stroke-linecap="round" stroke-linejoin="round"/>
<path d="M13.9424 11.9167C14.5474 12.2192 15.0515 12.6684 15.4274 13.2276C15.6382 13.5484 15.6382 13.9517 15.4274 14.2726C15.0515 14.8317 14.5474 15.2809 13.9424 15.5834" stroke="#6557FF" stroke-width="1.375" stroke-linecap="round" stroke-linejoin="round"/>
<path d="M8.24967 20.1666H13.7497C18.333 20.1666 20.1663 18.3333 20.1663 13.7499V8.24992C20.1663 3.66659 18.333 1.83325 13.7497 1.83325H8.24967C3.66634 1.83325 1.83301 3.66659 1.83301 8.24992V13.7499C1.83301 18.3333 3.66634 20.1666 8.24967 20.1666Z" stroke="#6557FF" stroke-width="1.375" stroke-linecap="round" stroke-linejoin="round"/>
<path d="M2.04492 7.34242L19.6633 7.33325" stroke="#6557FF" stroke-width="1.375" stroke-linecap="round" stroke-linejoin="round"/>
</svg>
