<svg width="22" height="22" viewBox="0 0 22 22" fill="none" xmlns="http://www.w3.org/2000/svg">
<path d="M8.24957 11.917C7.64457 12.2195 7.1404 12.6687 6.76457 13.2278C6.55374 13.5487 6.55374 13.952 6.76457 14.2728C7.1404 14.832 7.64457 15.2812 8.24957 15.5837" stroke="#D8D8D8" stroke-width="1.375" stroke-linecap="round" stroke-linejoin="round"/>
<path d="M13.9424 11.917C14.5474 12.2195 15.0515 12.6687 15.4274 13.2278C15.6382 13.5487 15.6382 13.952 15.4274 14.2728C15.0515 14.832 14.5474 15.2812 13.9424 15.5837" stroke="#D8D8D8" stroke-width="1.375" stroke-linecap="round" stroke-linejoin="round"/>
<path d="M8.24992 20.1663H13.7499C18.3333 20.1663 20.1666 18.333 20.1666 13.7497V8.24967C20.1666 3.66634 18.3333 1.83301 13.7499 1.83301H8.24992C3.66659 1.83301 1.83325 3.66634 1.83325 8.24967V13.7497C1.83325 18.333 3.66659 20.1663 8.24992 20.1663Z" stroke="#B9B9B9" stroke-width="1.375" stroke-linecap="round" stroke-linejoin="round"/>
<path d="M2.04468 7.34217L19.663 7.33301" stroke="#B9B9B9" stroke-width="1.375" stroke-linecap="round" stroke-linejoin="round"/>
</svg>
