<svg width="45" height="45" viewBox="0 0 45 45" fill="none" xmlns="http://www.w3.org/2000/svg">
<circle opacity="0.3" cx="22.5" cy="22.5" r="22.5" fill="#6557FF"/>
<path d="M21.8453 13.4778C22.4088 13.1593 22.6906 13 23 13C23.3094 13 23.5912 13.1593 24.1547 13.4778L30.8453 17.2598C31.4088 17.5784 31.6906 17.7377 31.8453 18C32 18.2623 32 18.5809 32 19.218V26.782C32 27.4191 32 27.7377 31.8453 28C31.6906 28.2623 31.4088 28.4216 30.8453 28.7402L24.1547 32.5222C23.5912 32.8407 23.3094 33 23 33C22.6906 33 22.4088 32.8407 21.8453 32.5222L15.1547 28.7402C14.5912 28.4216 14.3094 28.2623 14.1547 28C14 27.7377 14 27.4191 14 26.782V19.218C14 18.5809 14 18.2623 14.1547 18C14.3094 17.7377 14.5912 17.5784 15.1547 17.2598L21.8453 13.4778Z" stroke="#6557FF" stroke-width="1.5" stroke-linecap="round" stroke-linejoin="round"/>
<path d="M26.5 15.2705L24.134 16.5506C23.5803 16.8502 23.3035 17 23 17C22.6965 17 22.4197 16.8502 21.866 16.5506L19.5 15.2705" stroke="#6557FF" stroke-width="1.5" stroke-linecap="round" stroke-linejoin="round"/>
<path d="M23 22.6154V33M23 22.6154L31.5 18M23 22.6154L14.5 18" stroke="#6557FF" stroke-width="1.5" stroke-linecap="round" stroke-linejoin="round"/>
<path d="M14 23L16.8944 24.5585C17.4323 24.8482 17.7013 24.993 17.8507 25.2532C18 25.5135 18 25.8373 18 26.485V30" stroke="#6557FF" stroke-width="1.5" stroke-linecap="round" stroke-linejoin="round"/>
<path d="M32 23L29.1056 24.5585C28.5677 24.8482 28.2987 24.993 28.1493 25.2532C28 25.5135 28 25.8373 28 26.485V30" stroke="#6557FF" stroke-width="1.5" stroke-linecap="round" stroke-linejoin="round"/>
</svg>
