<svg width="14" height="14" viewBox="0 0 14 14" fill="none" xmlns="http://www.w3.org/2000/svg">
<g id="flow-connection" clip-path="url(#clip0_7672_12733)">
<g id="elements">
<g id="Subtract" opacity="0.4">
<path d="M2.9165 5.68524C3.08735 5.68862 3.27212 5.68861 3.47015 5.68861H3.5295C3.72754 5.68861 3.91232 5.68862 4.08317 5.68524V7.88288C3.90753 7.78934 3.71657 7.73027 3.49984 7.73027C3.28311 7.73027 3.09215 7.78934 2.9165 7.88288V5.68524Z" fill="#6557FF"/>
<path d="M6.11806 11.0844H8.3157C8.31232 10.9136 8.31233 10.7288 8.31234 10.5308V10.4714C8.31233 10.2734 8.31232 10.0886 8.3157 9.91777H6.11806C6.2116 10.0934 6.27067 10.2844 6.27067 10.5011C6.27067 10.7178 6.2116 10.9088 6.11806 11.0844Z" fill="#6557FF"/>
</g>
<path id="Rectangle 2311 (Stroke)" d="M3.47002 0.729187H3.49968H3.52934H3.52936C3.98525 0.729169 4.37084 0.729153 4.6781 0.770464C5.0046 0.814361 5.30737 0.911991 5.55171 1.15632C5.79604 1.40066 5.89367 1.70343 5.93757 2.02993C5.97888 2.3372 5.97886 2.7228 5.97884 3.1787V3.23801C5.97886 3.69392 5.97888 4.07951 5.93757 4.38678C5.89367 4.71328 5.79604 5.01605 5.55171 5.26039C5.30737 5.50472 5.0046 5.60235 4.6781 5.64625C4.37083 5.68756 3.98524 5.68754 3.52933 5.68752H3.47002C3.01412 5.68754 2.62852 5.68756 2.32125 5.64625C1.99475 5.60235 1.69198 5.50472 1.44765 5.26039C1.20331 5.01605 1.10568 4.71328 1.06179 4.38678C1.02047 4.07951 1.02049 3.69393 1.02051 3.23804V3.23802V3.20836V3.1787V3.17867C1.02049 2.72278 1.02047 2.3372 1.06179 2.02993C1.10568 1.70343 1.20331 1.40066 1.44765 1.15632C1.69198 0.911991 1.99475 0.814361 2.32125 0.770464C2.62852 0.729153 3.0141 0.729169 3.46999 0.729187H3.47002Z" fill="#FFC633"/>
<path id="Rectangle 2312 (Stroke)" d="M2.64254 8.06049C2.89258 7.86971 3.16555 7.72919 3.49984 7.72919C3.83412 7.72919 4.10709 7.86971 4.35714 8.06049C4.59176 8.23951 4.89239 8.54015 5.1968 8.84459C5.50124 9.149 5.76035 9.40809 5.93937 9.64272C6.13014 9.89276 6.27067 10.1657 6.27067 10.5C6.27067 10.8343 6.13014 11.1073 5.93937 11.3573C5.76035 11.5919 5.50124 11.851 5.1968 12.1555C4.89239 12.4599 4.59176 12.7605 4.35714 12.9396C4.10709 13.1303 3.83412 13.2709 3.49984 13.2709C3.16555 13.2709 2.89258 13.1303 2.64254 12.9396C2.40791 12.7605 2.10729 12.4599 1.80288 12.1555C1.49844 11.851 1.23932 11.5919 1.06031 11.3573C0.869531 11.1073 0.729004 10.8343 0.729004 10.5C0.729004 10.1657 0.869531 9.89276 1.06031 9.64272C1.23932 9.40809 1.53997 9.10747 1.84441 8.80306C2.14882 8.49862 2.40791 8.23951 2.64254 8.06049Z" fill="#44E2C3"/>
<path id="Rectangle 2313 (Stroke)" d="M10.762 8.02087H10.7917H10.8213H10.8214C11.2772 8.02086 11.6628 8.02084 11.9701 8.06215C12.2966 8.10605 12.5994 8.20368 12.8437 8.44801C13.088 8.69235 13.1857 8.99511 13.2296 9.32161C13.2709 9.62889 13.2709 10.0145 13.2708 10.4704V10.5297C13.2709 10.9856 13.2709 11.3712 13.2296 11.6785C13.1857 12.005 13.088 12.3077 12.8437 12.5521C12.5994 12.7964 12.2966 12.894 11.9701 12.9379C11.6628 12.9792 11.2772 12.9792 10.8213 12.9792H10.762C10.3061 12.9792 9.92052 12.9792 9.61324 12.9379C9.28674 12.894 8.98397 12.7964 8.73964 12.5521C8.4953 12.3077 8.39767 12.005 8.35378 11.6785C8.31247 11.3712 8.31248 10.9856 8.3125 10.5297V10.5297V10.5V10.4704V10.4704C8.31248 10.0145 8.31247 9.62888 8.35378 9.32161C8.39767 8.99511 8.4953 8.69235 8.73964 8.44801C8.98397 8.20368 9.28674 8.10605 9.61324 8.06215C9.92051 8.02084 10.3061 8.02086 10.762 8.02087H10.762Z" fill="#6557FF"/>
</g>
</g>
<defs>
<clipPath id="clip0_7672_12733">
<rect width="14" height="14" fill="white"/>
</clipPath>
</defs>
</svg>
