<svg xmlns="http://www.w3.org/2000/svg" width="16" height="16" viewBox="0 0 16 16" fill="none">
    <path d="M11.3337 4.04045C10.8713 4.04076 10.4233 4.20125 10.066 4.49461C9.70863 4.78797 9.46394 5.19609 9.37357 5.64952C9.2832 6.10296 9.35272 6.5737 9.5703 6.98165C9.78789 7.38961 10.1401 7.70957 10.567 7.88712C10.4655 8.13041 10.2942 8.33816 10.0747 8.48411C9.85513 8.63006 9.59728 8.70766 9.33366 8.70712H6.667C6.19702 8.70909 5.73633 8.83808 5.33366 9.08045V5.25378C5.77847 5.09652 6.15337 4.78707 6.39208 4.38013C6.6308 3.97319 6.71797 3.49496 6.63819 3.02996C6.55841 2.56496 6.31682 2.14314 5.9561 1.83905C5.59539 1.53495 5.13879 1.36816 4.667 1.36816C4.1952 1.36816 3.7386 1.53495 3.37789 1.83905C3.01718 2.14314 2.77558 2.56496 2.6958 3.02996C2.61602 3.49496 2.70319 3.97319 2.94191 4.38013C3.18063 4.78707 3.55552 5.09652 4.00033 5.25378V10.8271C3.56099 10.9851 3.19077 11.2918 2.95383 11.6941C2.71689 12.0964 2.62817 12.569 2.70303 13.0298C2.77789 13.4907 3.01163 13.9108 3.36373 14.2174C3.71583 14.524 4.1641 14.6978 4.63087 14.7086C5.09763 14.7194 5.55347 14.5665 5.91938 14.2766C6.28529 13.9866 6.53821 13.5777 6.63432 13.1208C6.73043 12.6639 6.66366 12.1878 6.44559 11.775C6.22752 11.3621 5.87189 11.0386 5.44033 10.8604C5.54138 10.6182 5.71169 10.4112 5.9299 10.2653C6.14811 10.1194 6.40452 10.0412 6.667 10.0404H9.33366C9.94355 10.0403 10.535 9.83115 11.0093 9.44779C11.4837 9.06444 11.8123 8.53007 11.9403 7.93378C12.386 7.78234 12.7641 7.47852 13.0078 7.07581C13.2516 6.67311 13.3455 6.19731 13.273 5.73218C13.2006 5.26705 12.9663 4.84239 12.6116 4.53295C12.2569 4.2235 11.8043 4.0491 11.3337 4.04045ZM4.667 2.70712C4.79885 2.70712 4.92774 2.74621 5.03738 2.81947C5.14701 2.89272 5.23246 2.99684 5.28292 3.11866C5.33337 3.24048 5.34658 3.37452 5.32085 3.50384C5.29513 3.63316 5.23164 3.75195 5.1384 3.84519C5.04517 3.93842 4.92638 4.00192 4.79706 4.02764C4.66774 4.05336 4.53369 4.04016 4.41187 3.9897C4.29006 3.93924 4.18594 3.8538 4.11268 3.74416C4.03943 3.63453 4.00033 3.50564 4.00033 3.37378C4.00033 3.19697 4.07057 3.0274 4.19559 2.90238C4.32062 2.77735 4.49019 2.70712 4.667 2.70712ZM4.667 13.3738C4.53514 13.3738 4.40625 13.3347 4.29662 13.2614C4.18698 13.1882 4.10154 13.0841 4.05108 12.9622C4.00062 12.8404 3.98742 12.7064 4.01314 12.5771C4.03886 12.4477 4.10236 12.3289 4.19559 12.2357C4.28883 12.1425 4.40762 12.079 4.53694 12.0533C4.66626 12.0275 4.8003 12.0407 4.92212 12.0912C5.04394 12.1417 5.14806 12.2271 5.22131 12.3367C5.29456 12.4464 5.33366 12.5753 5.33366 12.7071C5.33366 12.8839 5.26343 13.0535 5.1384 13.1785C5.01338 13.3035 4.84381 13.3738 4.667 13.3738ZM11.3337 6.70712C11.2018 6.70712 11.0729 6.66802 10.9633 6.59476C10.8537 6.52151 10.7682 6.41739 10.7177 6.29557C10.6673 6.17375 10.6541 6.03971 10.6798 5.91039C10.7055 5.78107 10.769 5.66228 10.8623 5.56904C10.9555 5.47581 11.0743 5.41232 11.2036 5.38659C11.3329 5.36087 11.467 5.37407 11.5888 5.42453C11.7106 5.47499 11.8147 5.56044 11.888 5.67007C11.9612 5.7797 12.0003 5.9086 12.0003 6.04045C12.0003 6.21726 11.9301 6.38683 11.8051 6.51185C11.68 6.63688 11.5105 6.70712 11.3337 6.70712Z" fill="#1D1D1D"/>
</svg>
