<svg width="18" height="18" viewBox="0 0 18 18" fill="none" xmlns="http://www.w3.org/2000/svg">
<path fill-rule="evenodd" clip-rule="evenodd" d="M5.41222 12.0023C5.29222 12.0023 5.17147 11.9641 5.06947 11.8861C4.82347 11.6963 4.77697 11.3431 4.96672 11.0971L7.21147 8.17958C7.30297 8.06033 7.43872 7.98308 7.58722 7.96433C7.73872 7.94483 7.88722 7.98683 8.00497 8.08058L10.12 9.74183L11.9702 7.35458C12.1607 7.10783 12.5132 7.06208 12.7592 7.25408C13.0052 7.44458 13.0502 7.79783 12.8597 8.04308L10.6622 10.8781C10.5707 10.9966 10.4357 11.0738 10.2872 11.0918C10.1372 11.1121 9.98872 11.0686 9.87022 10.9763L7.75672 9.31583L5.85847 11.7826C5.74747 11.9266 5.58097 12.0023 5.41222 12.0023Z" fill="white"/>
<mask id="mask0_5088_13362" style="mask-type:luminance" maskUnits="userSpaceOnUse" x="12" y="1" width="5" height="5">
<path fill-rule="evenodd" clip-rule="evenodd" d="M12.9715 1.5H16.9795V5.50867H12.9715V1.5Z" fill="white"/>
</mask>
<g mask="url(#mask0_5088_13362)">
<path fill-rule="evenodd" clip-rule="evenodd" d="M14.9755 2.625C14.491 2.625 14.0965 3.01875 14.0965 3.504C14.0965 3.9885 14.491 4.38375 14.9755 4.38375C15.46 4.38375 15.8545 3.9885 15.8545 3.504C15.8545 3.01875 15.46 2.625 14.9755 2.625ZM14.9755 5.50875C13.8707 5.50875 12.9715 4.6095 12.9715 3.504C12.9715 2.3985 13.8707 1.5 14.9755 1.5C16.081 1.5 16.9795 2.3985 16.9795 3.504C16.9795 4.6095 16.081 5.50875 14.9755 5.50875Z" fill="white"/>
</g>
<mask id="mask1_5088_13362" style="mask-type:luminance" maskUnits="userSpaceOnUse" x="1" y="2" width="16" height="16">
<path fill-rule="evenodd" clip-rule="evenodd" d="M1.5 2.13135H16.3964V17.0271H1.5V2.13135Z" fill="white"/>
</mask>
<g mask="url(#mask1_5088_13362)">
<path fill-rule="evenodd" clip-rule="evenodd" d="M12.1747 17.0271H5.72169C3.19644 17.0271 1.49994 15.2533 1.49994 12.6133V6.55185C1.49994 3.9081 3.19644 2.13135 5.72169 2.13135H11.1727C11.4832 2.13135 11.7352 2.38335 11.7352 2.69385C11.7352 3.00435 11.4832 3.25635 11.1727 3.25635H5.72169C3.84069 3.25635 2.62494 4.54935 2.62494 6.55185V12.6133C2.62494 14.6421 3.81144 15.9021 5.72169 15.9021H12.1747C14.0557 15.9021 15.2714 14.6113 15.2714 12.6133V7.3341C15.2714 7.0236 15.5234 6.7716 15.8339 6.7716C16.1444 6.7716 16.3964 7.0236 16.3964 7.3341V12.6133C16.3964 15.2533 14.6999 17.0271 12.1747 17.0271Z" fill="white"/>
</g>
</svg>
