<svg width="160" height="135" viewBox="0 0 160 135" fill="none" xmlns="http://www.w3.org/2000/svg">
<path d="M79.2056 119.78C112.453 119.78 139.363 92.9478 139.363 59.8418C139.363 26.7358 112.453 0 79.2056 0C46.0556 0 19.0481 26.8323 19.0481 59.9383C19.0481 93.0443 46.0556 119.78 79.2056 119.78Z" fill="#D2D8E4"/>
<path d="M107.957 119.557C98.7924 119.846 87.7749 119.557 79.9749 119.46C72.2724 119.75 61.1574 119.846 51.9924 119.557C61.0599 114.441 64.2774 104.886 64.6674 98.6123H95.0874C95.7699 104.79 98.9874 114.441 107.957 119.557Z" fill="#D5DDEA"/>
<g filter="url(#filter0_d_3844_6573)">
<path d="M137.402 18.6944V97.5504C137.402 99.5773 135.842 101.025 134.087 101.025H26.4473C24.5948 101.025 23.1323 99.4808 23.1323 97.5504V18.6944C23.1323 16.8605 24.6923 15.2197 26.4473 15.2197H133.892C135.94 15.3162 137.402 16.8605 137.402 18.6944Z" fill="white"/>
</g>
<path d="M137.402 18.6944V86.5473H23.1323V18.6944C23.1323 16.8605 24.6923 15.2197 26.4473 15.2197H133.892C135.94 15.3162 137.402 16.8605 137.402 18.6944Z" fill="#989FB0"/>
<path d="M137.025 18.1815V86.7148H23.0249V18.1815C23.0249 16.3148 24.6212 14.7148 26.3505 14.7148H133.566C135.562 14.7148 137.025 16.3148 137.025 18.1815Z" fill="#989FB0"/>
<path d="M132.892 19.7148H27.0249V82.7148H133.025V19.7148H132.892Z" fill="white"/>
<path d="M80.0724 96.2954C81.6324 96.2954 82.8999 95.1371 82.8999 93.4963C82.8999 91.952 81.7299 90.6973 80.0724 90.6973C78.5124 90.6973 77.2449 91.8555 77.2449 93.4963C77.2449 95.0406 78.4149 96.2954 80.0724 96.2954Z" fill="#D6DDE8"/>
<path d="M1 119.75H155.05" stroke="#D6DDE8" stroke-width="2" stroke-miterlimit="10" stroke-linecap="round" stroke-linejoin="round"/>
<path d="M11.8332 52.6997C14.0757 52.6997 15.8307 50.9624 15.8307 48.7424C15.8307 46.5225 14.0757 44.7852 11.8332 44.7852C9.59069 44.7852 7.83569 46.5225 7.83569 48.7424C7.83569 50.9624 9.68819 52.6997 11.8332 52.6997Z" fill="#D1D6E3"/>
<path d="M7.83547 39.8621C9.29797 39.8621 10.5655 38.6074 10.5655 37.1596C10.5655 35.7118 9.29797 34.457 7.83547 34.457C6.37297 34.457 5.10547 35.7118 5.10547 37.1596C5.10547 38.7039 6.37297 39.8621 7.83547 39.8621Z" fill="#D1D6E3"/>
<path d="M150.868 62.6405C153.696 62.6405 155.938 60.4206 155.938 57.6215C155.938 54.8225 153.696 52.6025 150.868 52.6025C148.041 52.6025 145.798 54.8225 145.798 57.6215C145.798 60.4206 148.041 62.6405 150.868 62.6405Z" fill="#D1D6E3"/>
<path d="M38.6349 45.5263C49.9429 45.5263 59.1099 36.4515 59.1099 25.2573C59.1099 14.063 49.9429 4.98828 38.6349 4.98828C27.3269 4.98828 18.1599 14.063 18.1599 25.2573C18.1599 36.4515 27.3269 45.5263 38.6349 45.5263Z" fill="url(#paint0_linear_3844_6573)"/>
<path d="M50.5424 24.2642C50.5424 23.106 49.5674 23.106 48.5924 23.0095C47.7149 22.913 47.6174 22.1408 47.2274 21.3687C46.5449 19.9209 49.1774 19.2453 47.8124 17.894C46.4474 16.5427 45.7649 15.481 44.6924 16.2532C44.0099 16.7358 43.5224 17.3149 42.7424 16.9288C41.9624 16.5427 41.1824 16.4462 41.0849 15.5775C40.7924 13.3576 40.5974 13.6472 37.5749 13.6472C35.7224 13.6472 36.9899 15.9636 35.5274 16.5427C34.6499 16.8323 34.0649 17.3149 33.3824 16.8323C31.5299 15.481 31.7249 15.7706 29.4824 17.894C28.7024 18.6661 29.2874 19.3418 29.9699 20.2104C30.4574 20.8861 29.9699 21.4652 29.6774 22.3339C29.1899 23.7816 26.7524 22.5269 26.7524 24.3608C26.7524 25.2294 26.7524 26.0981 26.8499 26.9668C27.2399 28.0285 28.1174 27.5459 28.9949 27.932H29.0924C29.0924 27.932 29.0924 27.932 29.1899 27.932C29.3849 28.0285 29.5799 28.318 29.6774 28.5111C29.6774 28.6076 29.7749 28.8972 29.8724 28.9937C30.1649 29.6693 30.4574 30.0554 29.9699 30.6345C28.7024 32.3718 28.8974 32.2753 31.0424 34.4953C32.3099 35.8465 33.1874 33.2405 34.5524 33.9161C35.1374 34.2057 35.9174 34.3987 36.1124 34.9778C36.3074 35.3639 36.2099 36.0396 36.5024 36.5222C36.8924 37.3908 38.2574 37.1013 39.7199 37.1013C41.5724 37.1013 40.3049 34.7848 41.7674 34.2057C43.5224 33.6266 43.1324 33.4335 44.5949 34.4953C45.6674 35.2674 46.5449 34.0127 47.7149 32.8544C49.0799 31.5032 46.4474 30.731 47.1299 29.3797C47.2274 29.0902 47.4224 28.8006 47.5199 28.5111C47.8124 27.7389 48.4949 27.7389 49.3724 27.6424C50.8349 27.4494 50.5424 26.0981 50.5424 24.2642ZM38.6474 29.4763C36.4049 29.4763 34.5524 27.6424 34.5524 25.4225C34.5524 23.2025 36.4049 21.3687 38.6474 21.3687C40.8899 21.3687 42.7424 23.2025 42.7424 25.4225C42.8399 27.6424 40.9874 29.4763 38.6474 29.4763Z" fill="white"/>
<g filter="url(#filter1_b_3844_6573)">
<path d="M53.4549 53.7305H37.1724C34.4424 53.7305 32.2974 55.8539 32.2974 58.5564V73.8064C32.2974 76.509 34.4424 78.6324 37.1724 78.6324H53.3574C56.0874 78.6324 58.2324 76.509 58.2324 73.8064V58.5564C58.3299 55.9504 56.0874 53.7305 53.4549 53.7305Z" fill="#D1D7E3"/>
</g>
<g filter="url(#filter2_b_3844_6573)">
<path d="M87.7748 45.1406H71.5898C68.8598 45.1406 66.7148 47.264 66.7148 49.9666V73.8068C66.7148 76.5093 68.8598 78.6327 71.5898 78.6327H87.7748C90.5048 78.6327 92.6498 76.5093 92.6498 73.8068V49.9666C92.6498 47.264 90.4073 45.1406 87.7748 45.1406Z" fill="#D1D7E3"/>
</g>
<g filter="url(#filter3_b_3844_6573)">
<path d="M122.192 3.73438H106.007C103.277 3.73438 101.132 5.85779 101.132 8.56032V73.8072C101.132 76.5097 103.277 78.6331 106.007 78.6331H122.192C124.922 78.6331 127.067 76.5097 127.067 73.8072V8.56032C127.067 5.85779 124.825 3.73438 122.192 3.73438Z" fill="#D1D7E3"/>
</g>
<defs>
<filter id="filter0_d_3844_6573" x="1.13232" y="4.21973" width="158.27" height="129.806" filterUnits="userSpaceOnUse" color-interpolation-filters="sRGB">
<feFlood flood-opacity="0" result="BackgroundImageFix"/>
<feColorMatrix in="SourceAlpha" type="matrix" values="0 0 0 0 0 0 0 0 0 0 0 0 0 0 0 0 0 0 127 0" result="hardAlpha"/>
<feOffset dy="11"/>
<feGaussianBlur stdDeviation="11"/>
<feColorMatrix type="matrix" values="0 0 0 0 0.397708 0 0 0 0 0.47749 0 0 0 0 0.575 0 0 0 0.27 0"/>
<feBlend mode="normal" in2="BackgroundImageFix" result="effect1_dropShadow_3844_6573"/>
<feBlend mode="normal" in="SourceGraphic" in2="effect1_dropShadow_3844_6573" result="shape"/>
</filter>
<filter id="filter1_b_3844_6573" x="0.297363" y="21.7305" width="89.938" height="88.9023" filterUnits="userSpaceOnUse" color-interpolation-filters="sRGB">
<feFlood flood-opacity="0" result="BackgroundImageFix"/>
<feGaussianBlur in="BackgroundImageFix" stdDeviation="16"/>
<feComposite in2="SourceAlpha" operator="in" result="effect1_backgroundBlur_3844_6573"/>
<feBlend mode="normal" in="SourceGraphic" in2="effect1_backgroundBlur_3844_6573" result="shape"/>
</filter>
<filter id="filter2_b_3844_6573" x="34.7148" y="13.1406" width="89.9351" height="97.4922" filterUnits="userSpaceOnUse" color-interpolation-filters="sRGB">
<feFlood flood-opacity="0" result="BackgroundImageFix"/>
<feGaussianBlur in="BackgroundImageFix" stdDeviation="16"/>
<feComposite in2="SourceAlpha" operator="in" result="effect1_backgroundBlur_3844_6573"/>
<feBlend mode="normal" in="SourceGraphic" in2="effect1_backgroundBlur_3844_6573" result="shape"/>
</filter>
<filter id="filter3_b_3844_6573" x="69.1323" y="-28.2656" width="89.9351" height="138.898" filterUnits="userSpaceOnUse" color-interpolation-filters="sRGB">
<feFlood flood-opacity="0" result="BackgroundImageFix"/>
<feGaussianBlur in="BackgroundImageFix" stdDeviation="16"/>
<feComposite in2="SourceAlpha" operator="in" result="effect1_backgroundBlur_3844_6573"/>
<feBlend mode="normal" in="SourceGraphic" in2="effect1_backgroundBlur_3844_6573" result="shape"/>
</filter>
<linearGradient id="paint0_linear_3844_6573" x1="18.1412" y1="25.2617" x2="59.1174" y2="25.2617" gradientUnits="userSpaceOnUse">
<stop stop-color="#B0BACC"/>
<stop offset="1" stop-color="#969EAE"/>
</linearGradient>
</defs>
</svg>
