<svg width="19" height="21" viewBox="0 0 19 21" fill="none" xmlns="http://www.w3.org/2000/svg">
<path d="M1.75 1.95837V11.7917H7.5903C7.891 11.7917 8.04136 11.7917 8.16218 11.8664C8.28301 11.9411 8.35025 12.0755 8.48473 12.3445L9.22361 13.8223C9.35809 14.0912 9.42533 14.2257 9.54615 14.3004C9.66698 14.375 9.81733 14.375 10.118 14.375H16.75C16.9857 14.375 17.1036 14.375 17.1768 14.3018C17.25 14.2286 17.25 14.1107 17.25 13.875V4.54171C17.25 4.30601 17.25 4.18815 17.1768 4.11493C17.1036 4.04171 16.9857 4.04171 16.75 4.04171H10.118C9.81733 4.04171 9.66698 4.04171 9.54615 3.96703C9.42533 3.89236 9.35809 3.75788 9.22361 3.48892L8.48473 2.01116C8.35025 1.7422 8.28301 1.60772 8.16218 1.53305C8.04136 1.45837 7.891 1.45837 7.5903 1.45837H2.25C2.0143 1.45837 1.89645 1.45837 1.82322 1.5316C1.75 1.60482 1.75 1.72267 1.75 1.95837Z" fill="#E2E2E2"/>
<path d="M1.75 11.7917V1.95837C1.75 1.72267 1.75 1.60482 1.82322 1.5316C1.89645 1.45837 2.0143 1.45837 2.25 1.45837H7.5903C7.891 1.45837 8.04136 1.45837 8.16218 1.53305C8.28301 1.60772 8.35025 1.7422 8.48473 2.01116L9.22361 3.48892C9.35809 3.75788 9.42533 3.89236 9.54615 3.96703C9.66698 4.04171 9.81733 4.04171 10.118 4.04171H16.75C16.9857 4.04171 17.1036 4.04171 17.1768 4.11493C17.25 4.18815 17.25 4.30601 17.25 4.54171V13.875C17.25 14.1107 17.25 14.2286 17.1768 14.3018C17.1036 14.375 16.9857 14.375 16.75 14.375H10.118C9.81733 14.375 9.66698 14.375 9.54615 14.3004C9.42533 14.2257 9.35809 14.0912 9.22361 13.8223L8.48473 12.3445C8.35025 12.0755 8.28301 11.9411 8.16218 11.8664C8.04136 11.7917 7.891 11.7917 7.5903 11.7917H1.75ZM1.75 11.7917V19.5417" stroke="#E2E2E2" stroke-width="2" stroke-linecap="round"/>
</svg>
