<svg width="18" height="20" viewBox="0 0 18 20" fill="none" xmlns="http://www.w3.org/2000/svg">
<path fill-rule="evenodd" clip-rule="evenodd" d="M8.7281 19.9137C8.83884 19.9715 8.96266 20.0009 9.08649 20C9.21032 19.999 9.33314 19.9686 9.44489 19.9097L13.0128 18.0025C14.0245 17.4631 14.8168 16.8601 15.435 16.1579C16.779 14.6282 17.5129 12.6758 17.4998 10.6626L17.4575 4.02198C17.4535 3.25711 16.9511 2.57461 16.2082 2.32652L9.57073 0.0995642C9.17106 -0.0357592 8.73313 -0.0328174 8.3405 0.106428L1.72824 2.41281C0.989299 2.67071 0.495998 3.35811 0.500024 4.12397L0.542307 10.7597C0.555395 12.7758 1.31448 14.7194 2.68062 16.2335C3.3048 16.9258 4.10415 17.52 5.12699 18.0505L8.7281 19.9137ZM7.78357 12.1089C7.93257 12.2521 8.12586 12.3227 8.31916 12.3207C8.51245 12.3198 8.70474 12.2472 8.85172 12.1021L12.7508 8.2581C13.0438 7.96882 13.0408 7.50401 12.7448 7.21866C12.4478 6.9333 11.9696 6.93526 11.6766 7.22454L8.30808 10.5449L6.92885 9.21909C6.63186 8.93373 6.15467 8.93667 5.8607 9.22595C5.56774 9.51523 5.57076 9.98004 5.86775 10.2654L7.78357 12.1089Z" fill="#2ED47A"/>
</svg>
