<svg width="16" height="18" viewBox="0 0 16 18" fill="none" xmlns="http://www.w3.org/2000/svg">
<path fill-rule="evenodd" clip-rule="evenodd" d="M6.33333 0.666748C5.41286 0.666748 4.66667 1.41294 4.66667 2.33341C4.66667 3.25389 5.41286 4.00008 6.33333 4.00008H9.66667C10.5871 4.00008 11.3333 3.25389 11.3333 2.33341C11.3333 1.41294 10.5871 0.666748 9.66667 0.666748H6.33333ZM3.42033 2.48084C1.73567 2.95197 0.5 4.4984 0.5 6.33343V13.3334C0.5 15.5426 2.29086 17.3334 4.5 17.3334H11.5C13.7091 17.3334 15.5 15.5426 15.5 13.3334V6.33343C15.5 4.49839 14.2643 2.95197 12.5797 2.48084C12.5029 4.02318 11.2281 5.25009 9.66667 5.25009H6.33333C4.77194 5.25009 3.4971 4.02317 3.42033 2.48084ZM7.2868 7.42643C7.52477 7.46505 7.72967 7.61571 7.83749 7.83134L9.0388 10.234L9.96967 9.30308C10.1103 9.16243 10.3011 9.08342 10.5 9.08342H12.1667C12.5809 9.08342 12.9167 9.4192 12.9167 9.83342C12.9167 10.2476 12.5809 10.5834 12.1667 10.5834H10.8107L9.36366 12.0304C9.19319 12.2009 8.95117 12.279 8.7132 12.2404C8.47523 12.2018 8.27033 12.0511 8.16251 11.8355L6.9612 9.43287L6.03033 10.3637C5.88968 10.5044 5.69891 10.5834 5.5 10.5834H3.83333C3.41912 10.5834 3.08333 10.2476 3.08333 9.83342C3.08333 9.4192 3.41912 9.08342 3.83333 9.08342H5.18934L6.63634 7.63642C6.80681 7.46595 7.04883 7.38782 7.2868 7.42643Z" fill="#2ED47A"/>
</svg>
