<svg width="12" height="12" viewBox="0 0 12 12" fill="none" xmlns="http://www.w3.org/2000/svg">
<path d="M6.76821 5.67246V4.83092H4.77734V5.67246H5.23176V8.5495H4.77734V9.3927H7.22252V8.5495H6.7681L6.76821 5.67246Z" fill="#D8D8D8"/>
<path d="M6.79611 3.29507C6.90916 3.77539 6.61191 4.25683 6.13159 4.37044C5.65126 4.48404 5.16982 4.18624 5.05622 3.70592C4.94317 3.2256 5.24041 2.74416 5.72074 2.6311C6.20106 2.5175 6.6825 2.81474 6.79611 3.29507Z" fill="#D8D8D8"/>
<path d="M6 0C4.39737 0 2.89129 0.624268 1.75751 1.75751C0.62424 2.89132 0 4.39737 0 6C0 7.60264 0.624268 9.10871 1.75751 10.2425C2.89132 11.3758 4.39737 12 6 12C7.60264 12 9.10871 11.3757 10.2425 10.2425C11.3758 9.10868 12 7.60264 12 6C12 4.39737 11.3757 2.89129 10.2425 1.75751C9.10868 0.62424 7.60264 0 6 0ZM6 10.8662C3.31595 10.8662 1.13379 8.68348 1.13379 6C1.13379 3.31595 3.31652 1.13379 6 1.13379C8.68405 1.13379 10.8662 3.31652 10.8662 6C10.8662 8.68405 8.68405 10.8662 6 10.8662Z" fill="#D8D8D8"/>
</svg>
