
<svg width="22" height="21" viewBox="0 0 22 21" fill="none" xmlns="http://www.w3.org/2000/svg">
<path d="M0.897916 13.5465C1.05842 13.4452 1.24195 13.386 1.43143 13.3746C1.62091 13.3632 1.81021 13.3999 1.98172 13.4812C2.21801 13.593 2.4794 13.6411 2.74 13.6208C3.00061 13.6005 3.25139 13.5125 3.46753 13.3655C3.68366 13.2185 3.85765 13.0176 3.97226 12.7826C4.08687 12.5477 4.13814 12.2869 4.12098 12.0261C4.09359 11.6668 3.93927 11.3289 3.68561 11.073C3.43196 10.8171 3.09552 10.6597 2.73648 10.6291C2.47695 10.6087 2.21662 10.6569 1.98163 10.7689C1.81015 10.8503 1.62085 10.887 1.43137 10.8756C1.24188 10.8642 1.05836 10.805 0.8979 10.7036C0.737441 10.6022 0.605259 10.4618 0.513665 10.2955C0.422071 10.1292 0.374042 9.94248 0.374051 9.75265L0.374097 5.75006C0.374661 5.25294 0.572392 4.77635 0.923911 4.42484C1.27543 4.07333 1.75203 3.87561 2.24915 3.87506L5.2491 3.87515V3.87506C5.24995 3.36284 5.35532 2.85619 5.55876 2.38611C5.76221 1.91604 6.05944 1.49242 6.43228 1.1412C6.80514 0.7884 7.24703 0.516643 7.7301 0.34305C8.21318 0.169457 8.72697 0.0977896 9.23911 0.132564C10.1429 0.191898 10.9948 0.575763 11.638 1.21347C12.2812 1.85118 12.6723 2.6998 12.7394 3.60305C12.7459 3.69369 12.749 3.78439 12.749 3.87515L15.7491 3.87506C16.2463 3.87506 16.7232 4.07261 17.0749 4.42424C17.4265 4.77586 17.624 5.25278 17.6241 5.75006V8.37506C18.1363 8.3759 18.6429 8.48126 19.113 8.6847C19.5831 8.88814 20.0067 9.18536 20.3579 9.55819C20.7106 9.93111 20.9823 10.373 21.1559 10.8561C21.3295 11.3391 21.4012 11.8529 21.3665 12.365C21.3072 13.2688 20.9234 14.1207 20.2857 14.7639C19.648 15.4071 18.7994 15.7983 17.8961 15.8654C17.8057 15.8733 17.7149 15.8765 17.6241 15.8749V18.5C17.6241 18.7462 17.5756 18.99 17.4813 19.2175C17.3871 19.445 17.249 19.6517 17.0749 19.8258C16.9008 20 16.6941 20.1381 16.4666 20.2323C16.2391 20.3266 15.9953 20.3751 15.7491 20.3751H2.2491C1.75199 20.3745 1.2754 20.1768 0.923891 19.8253C0.572382 19.4738 0.374658 18.9972 0.374097 18.5001L0.374051 14.4975C0.374061 14.3076 0.422101 14.1209 0.513696 13.9546C0.605292 13.7883 0.737466 13.648 0.897916 13.5465ZM2.6241 18.1251H15.3741L15.374 14.4975C15.374 14.3076 15.422 14.1209 15.5136 13.9546C15.6052 13.7883 15.7374 13.6479 15.8979 13.5465C16.0583 13.4451 16.2419 13.3859 16.4314 13.3745C16.6209 13.3631 16.8102 13.3998 16.9816 13.4812C17.2167 13.593 17.4769 13.6412 17.7364 13.621C18.0954 13.5904 18.4319 13.4331 18.6855 13.1771C18.9392 12.9212 19.0935 12.5833 19.1209 12.224C19.138 11.9632 19.0866 11.7025 18.9719 11.4677C18.8573 11.2328 18.6833 11.032 18.4672 10.885C18.2511 10.738 18.0004 10.65 17.7399 10.6296C17.4793 10.6093 17.218 10.6573 16.9817 10.7689C16.8102 10.8503 16.6209 10.887 16.4314 10.8756C16.2419 10.8642 16.0584 10.805 15.8979 10.7036C15.7374 10.6022 15.6053 10.4618 15.5137 10.2955C15.4221 10.1292 15.374 9.94249 15.374 9.75265L15.3741 6.12506L11.3715 6.12515C11.1816 6.12514 10.9949 6.0771 10.8286 5.98549C10.6623 5.89389 10.522 5.7617 10.4205 5.60123C10.3191 5.44076 10.2599 5.25724 10.2485 5.06775C10.2371 4.87826 10.2738 4.68896 10.3553 4.51748C10.4669 4.28243 10.5151 4.02226 10.4951 3.76281C10.4645 3.40376 10.3071 3.0673 10.0512 2.81362C9.79522 2.55994 9.45738 2.40559 9.09807 2.37817C8.83728 2.36117 8.57657 2.41255 8.34173 2.52721C8.10689 2.64187 7.90605 2.81585 7.75906 3.03194C7.61208 3.24802 7.52404 3.49873 7.50367 3.75928C7.48329 4.01982 7.53127 4.28117 7.64288 4.51748C7.72434 4.68896 7.76108 4.87826 7.74967 5.06776C7.73827 5.25725 7.6791 5.44079 7.57767 5.60126C7.47624 5.76173 7.33584 5.89392 7.16957 5.98552C7.00329 6.07713 6.81653 6.12516 6.62669 6.12515L2.6241 6.12506L2.62405 8.37524C2.71496 8.37387 2.80546 8.37835 2.89615 8.38476C3.7994 8.45181 4.64802 8.84295 5.28572 9.48615C5.92342 10.1294 6.30726 10.9813 6.36654 11.8851C6.40123 12.3972 6.32952 12.911 6.15594 13.394C5.98236 13.8771 5.71067 14.319 5.35795 14.6919C5.00673 15.0647 4.58311 15.362 4.11303 15.5654C3.64295 15.7688 3.13631 15.8742 2.6241 15.8751H2.62405L2.6241 18.1251Z" fill="#4A495C" fill-opacity="0.8"/>
</svg>
