<svg width="14" height="14" viewBox="0 0 14 14" fill="none" xmlns="http://www.w3.org/2000/svg">
<g clip-path="url(#clip0_6728_14852)">
<g opacity="0.4">
<path d="M2.9165 5.68359C3.08735 5.68697 3.27212 5.68697 3.47015 5.68696H3.5295C3.72754 5.68697 3.91232 5.68697 4.08317 5.68359V7.88123C3.90753 7.78769 3.71657 7.72862 3.49984 7.72862C3.28311 7.72862 3.09215 7.78769 2.9165 7.88123V5.68359Z" fill="#141B34"/>
<path d="M6.11806 11.0828H8.3157C8.31232 10.9119 8.31233 10.7272 8.31234 10.5291V10.4698C8.31233 10.2718 8.31232 10.087 8.3157 9.91612H6.11806C6.2116 10.0918 6.27067 10.2827 6.27067 10.4995C6.27067 10.7162 6.2116 10.9071 6.11806 11.0828Z" fill="#141B34"/>
</g>
<path d="M3.47002 0.728516H3.49968H3.52934H3.52936C3.98525 0.728497 4.37084 0.728482 4.6781 0.769793C5.0046 0.81369 5.30737 0.911319 5.55171 1.15565C5.79604 1.39999 5.89367 1.70276 5.93757 2.02926C5.97888 2.33653 5.97886 2.72212 5.97884 3.17803V3.23734C5.97886 3.69324 5.97888 4.07884 5.93757 4.38611C5.89367 4.71261 5.79604 5.01538 5.55171 5.25972C5.30737 5.50405 5.0046 5.60168 4.6781 5.64558C4.37083 5.68689 3.98524 5.68687 3.52933 5.68685H3.47002C3.01412 5.68687 2.62852 5.68689 2.32125 5.64558C1.99475 5.60168 1.69198 5.50405 1.44765 5.25972C1.20331 5.01538 1.10568 4.71261 1.06179 4.38611C1.02047 4.07884 1.02049 3.69326 1.02051 3.23737V3.23734V3.20768V3.17802V3.178C1.02049 2.72211 1.02047 2.33653 1.06179 2.02926C1.10568 1.70276 1.20331 1.39999 1.44765 1.15565C1.69198 0.911319 1.99475 0.81369 2.32125 0.769793C2.62852 0.728482 3.0141 0.728497 3.46999 0.728516H3.47002Z" fill="#141B34"/>
<path d="M2.64254 8.05982C2.89258 7.86904 3.16555 7.72852 3.49984 7.72852C3.83412 7.72852 4.10709 7.86904 4.35714 8.05982C4.59176 8.23883 4.89239 8.53948 5.1968 8.84392C5.50124 9.14833 5.76035 9.40742 5.93937 9.64205C6.13014 9.89209 6.27067 10.1651 6.27067 10.4993C6.27067 10.8336 6.13014 11.1066 5.93937 11.3566C5.76035 11.5913 5.50124 11.8504 5.1968 12.1548C4.89239 12.4592 4.59176 12.7599 4.35714 12.9389C4.10709 13.1297 3.83412 13.2702 3.49984 13.2702C3.16555 13.2702 2.89258 13.1297 2.64254 12.9389C2.40791 12.7599 2.10729 12.4592 1.80288 12.1548C1.49844 11.8504 1.23932 11.5913 1.06031 11.3566C0.869531 11.1066 0.729004 10.8336 0.729004 10.4993C0.729004 10.1651 0.869531 9.89209 1.06031 9.64205C1.23932 9.40742 1.53997 9.1068 1.84441 8.80239C2.14882 8.49795 2.40791 8.23883 2.64254 8.05982Z" fill="#141B34"/>
<path d="M10.762 8.01953H10.7917H10.8213H10.8214C11.2772 8.01951 11.6628 8.0195 11.9701 8.06081C12.2966 8.10471 12.5994 8.20233 12.8437 8.44667C13.088 8.691 13.1857 8.99377 13.2296 9.32027C13.2709 9.62755 13.2709 10.0131 13.2708 10.469V10.5284C13.2709 10.9843 13.2709 11.3699 13.2296 11.6771C13.1857 12.0036 13.088 12.3064 12.8437 12.5507C12.5994 12.7951 12.2966 12.8927 11.9701 12.9366C11.6628 12.9779 11.2772 12.9779 10.8213 12.9779H10.762C10.3061 12.9779 9.92052 12.9779 9.61324 12.9366C9.28674 12.8927 8.98397 12.7951 8.73964 12.5507C8.4953 12.3064 8.39767 12.0036 8.35378 11.6771C8.31247 11.3699 8.31248 10.9843 8.3125 10.5284V10.5284V10.4987V10.469V10.469C8.31248 10.0131 8.31247 9.62754 8.35378 9.32027C8.39767 8.99377 8.4953 8.691 8.73964 8.44667C8.98397 8.20233 9.28674 8.10471 9.61324 8.06081C9.92051 8.0195 10.3061 8.01951 10.762 8.01953H10.762Z" fill="#141B34"/>
</g>
<defs>
<clipPath id="clip0_6728_14852">
<rect width="14" height="14" fill="white"/>
</clipPath>
</defs>
</svg>
