
<svg width="10" height="11" viewBox="0 0 10 11" fill="none" xmlns="http://www.w3.org/2000/svg">
<path fill-rule="evenodd" clip-rule="evenodd" d="M2 11C2.65311 11 3.20873 10.5826 3.41465 10H7.75C8.99264 10 10 8.99265 10 7.75001C10 6.50737 8.99264 5.50001 7.75 5.50001H2.25C1.55964 5.50001 1 4.94036 1 4.25001C1 3.55965 1.55964 3.00001 2.25 3.00001H3.79289L3.14645 3.64645L3.85355 4.35356L5.70711 2.50001L3.85355 0.646454L3.14645 1.35356L3.79289 2.00001H2.25C1.00736 2.00001 0 3.00737 0 4.25001C0 5.49265 1.00736 6.50001 2.25 6.50001H7.75C8.44036 6.50001 9 7.05965 9 7.75001C9 8.44036 8.44036 9.00001 7.75 9.00001H3.41465C3.20873 8.41741 2.65311 8.00001 2 8.00001C1.17157 8.00001 0.5 8.67158 0.5 9.50001C0.5 10.3284 1.17157 11 2 11ZM1.5 9.50001C1.5 9.22386 1.72386 9.00001 2 9.00001C2.27614 9.00001 2.5 9.22386 2.5 9.50001C2.5 9.77615 2.27614 10 2 10C1.72386 10 1.5 9.77615 1.5 9.50001ZM8 1.00001C8.82843 1.00001 9.5 1.67158 9.5 2.50001C9.5 3.32843 8.82843 4.00001 8 4.00001C7.17157 4.00001 6.5 3.32843 6.5 2.50001C6.5 1.67158 7.17157 1.00001 8 1.00001ZM7.5 2.50001C7.5 2.22386 7.72386 2.00001 8 2.00001C8.27614 2.00001 8.5 2.22386 8.5 2.50001C8.5 2.77615 8.27614 3.00001 8 3.00001C7.72386 3.00001 7.5 2.77615 7.5 2.50001Z" fill="#1B1B1B"/>
</svg>
