<svg width="14" height="17" viewBox="0 0 14 17" fill="none" xmlns="http://www.w3.org/2000/svg">
<path d="M2.24129 1.00006C1.56084 1.00006 1 1.56483 1 2.25005V14.75C1 15.4352 1.56084 16 2.24129 16H5.5514C5.66211 16.0016 5.76879 15.9585 5.84798 15.8803C5.92637 15.8014 5.97082 15.6948 5.97082 15.5833C5.97082 15.4718 5.92637 15.3652 5.84798 15.2862C5.76879 15.2081 5.66211 15.165 5.5514 15.1666H2.24129C2.00451 15.1666 1.82753 14.9884 1.82753 14.75V2.25004C1.82753 2.01161 2.00451 1.83338 2.24129 1.83338H5.5514C5.66211 1.83501 5.76879 1.79188 5.84798 1.71375C5.92637 1.63481 5.97082 1.52821 5.97082 1.41671C5.97082 1.30522 5.92637 1.19861 5.84798 1.11967C5.76879 1.04155 5.66211 0.998417 5.5514 1.00004L2.24129 1.00006ZM9.6309 4.74358C9.47655 4.76311 9.34644 4.86727 9.29391 5.01457C9.24057 5.16106 9.2737 5.32545 9.37876 5.4402L11.6739 8.08351H4.31016C4.29723 8.0827 4.2843 8.0827 4.27137 8.08351C4.16146 8.0884 4.05803 8.13722 3.98449 8.21942C3.91014 8.30079 3.87216 8.40903 3.87701 8.5197C3.88186 8.63038 3.93034 8.73454 4.01196 8.8086C4.09278 8.88347 4.20026 8.92172 4.31016 8.91683H11.6739L9.37877 11.5535C9.22845 11.726 9.24461 11.9889 9.41513 12.141C9.58645 12.294 9.84747 12.2786 9.99941 12.1069L12.8958 8.77355C13.0347 8.61567 13.0347 8.37805 12.8958 8.22018L9.99941 4.88687C9.9089 4.77945 9.76988 4.72567 9.6309 4.74358Z" fill="#A9A9A9" stroke="#A9A9A9" stroke-width="0.5"/>
</svg>
