<svg width="197" height="37" viewBox="0 0 197 37" fill="none" xmlns="http://www.w3.org/2000/svg">
<path d="M78.1612 9.7667C80.1946 9.7667 81.8293 10.4186 83.0653 11.7224C84.3212 13.0055 84.9491 14.806 84.9491 17.1239V27.213H80.7627V17.7138C80.7627 16.3686 80.4338 15.3441 79.776 14.6405C79.1181 13.9161 78.221 13.554 77.0847 13.554C75.9484 13.554 75.0414 13.9161 74.3636 14.6405C73.7057 15.3441 73.3768 16.3686 73.3768 17.7138V27.213H69.1904V17.7138C69.1904 16.3686 68.8615 15.3441 68.2036 14.6405C67.5457 13.9161 66.6487 13.554 65.5124 13.554C64.3561 13.554 63.4391 13.9161 62.7613 14.6405C62.1034 15.3441 61.7745 16.3686 61.7745 17.7138V27.213H57.5881V10.015H61.7745V12.0949C62.3128 11.3706 63.0005 10.8015 63.8378 10.3876C64.695 9.97365 65.632 9.7667 66.6487 9.7667C67.9444 9.7667 69.1007 10.0564 70.1174 10.6359C71.1341 11.1947 71.9215 12.0018 72.4797 13.0573C73.0179 12.0639 73.7954 11.2671 74.8121 10.667C75.8487 10.0668 76.9651 9.7667 78.1612 9.7667Z" fill="#060606"/>
<path fill-rule="evenodd" clip-rule="evenodd" d="M66.6487 9.92178C65.6551 9.92178 64.7428 10.1238 63.909 10.5262C63.0941 10.9292 62.4262 11.4822 61.9033 12.1859L61.6155 12.5732V10.1701H57.7472V27.0579H61.6155V17.7138C61.6155 16.3458 61.95 15.2781 62.6438 14.536C63.3564 13.7745 64.3188 13.3989 65.5124 13.3989C66.6864 13.3989 67.6294 13.7748 68.3219 14.5368C69.0152 15.2789 69.3494 16.3463 69.3494 17.7138V27.0579H73.2178V17.7138C73.2178 16.3458 73.5522 15.2781 74.2461 14.536C74.9581 13.7751 75.9101 13.3989 77.0847 13.3989C78.2588 13.3989 79.2018 13.7748 79.8943 14.5368C80.5876 15.2789 80.9218 16.3463 80.9218 17.7138V27.0579H84.7901V17.1239C84.7901 14.8333 84.1701 13.0758 82.9502 11.8295L82.9485 11.8277C81.7463 10.5595 80.156 9.92178 78.1612 9.92178C76.9941 9.92178 75.9059 10.2141 74.8938 10.8C73.9013 11.386 73.1445 12.1622 72.6203 13.1297L72.478 13.3924L72.3384 13.1284C71.7938 12.0986 71.0277 11.3143 70.0393 10.771L70.0371 10.7698C69.0472 10.2056 67.9192 9.92178 66.6487 9.92178ZM63.7672 10.2486C64.6478 9.82342 65.6091 9.61162 66.6487 9.61162C67.9693 9.61162 69.1534 9.90711 70.1966 10.5014C71.1587 11.0305 71.9206 11.7763 72.4815 12.7355C73.0253 11.8316 73.7755 11.0976 74.7298 10.5343L74.7309 10.5336C75.7919 9.91933 76.9363 9.61162 78.1612 9.61162C80.2327 9.61162 81.9115 10.2774 83.1812 11.6162C84.4726 12.9361 85.1082 14.7793 85.1082 17.1239V27.3681H80.6037V17.7138C80.6037 16.3913 80.2803 15.4101 79.6584 14.745L79.6569 14.7433C79.0338 14.0572 78.1828 13.7091 77.0847 13.7091C75.9867 13.7091 75.1247 14.0572 74.4811 14.745C73.8592 15.4101 73.5358 16.3913 73.5358 17.7138V27.3681H69.0314V17.7138C69.0314 16.3913 68.708 15.4101 68.0861 14.745L68.0845 14.7433C67.4614 14.0572 66.6105 13.7091 65.5124 13.7091C64.3935 13.7091 63.5218 14.0578 62.8788 14.745C62.2569 15.4101 61.9335 16.3913 61.9335 17.7138V27.3681H57.4291V9.85997H61.9335V11.6469C62.4378 11.0697 63.049 10.6036 63.7659 10.2492L63.7672 10.2486Z" fill="#060606"/>
<path d="M104.561 18.5232C104.561 19.1413 104.52 19.6976 104.437 20.192H91.8583C91.9618 21.4282 92.3966 22.3965 93.1627 23.097C93.9288 23.7975 94.871 24.1477 95.9891 24.1477C97.6041 24.1477 98.7533 23.4575 99.4366 22.0772H104.126C103.63 23.7254 102.677 25.0851 101.269 26.1564C99.8611 27.2072 98.1321 27.7325 96.0823 27.7325C94.4258 27.7325 92.935 27.372 91.6098 26.6509C90.3053 25.9092 89.2804 24.8688 88.535 23.5296C87.8103 22.1905 87.4479 20.6453 87.4479 18.8941C87.4479 17.1223 87.8103 15.5668 88.535 14.2276C89.2597 12.8885 90.2743 11.8583 91.5787 11.1373C92.8832 10.4162 94.3844 10.0556 96.0823 10.0556C97.718 10.0556 99.1778 10.4059 100.462 11.1063C101.766 11.8068 102.77 12.8061 103.474 14.104C104.199 15.3814 104.561 16.8544 104.561 18.5232ZM100.058 17.2871C100.037 16.1746 99.6333 15.2886 98.8465 14.6294C98.0597 13.9495 97.0968 13.6095 95.958 13.6095C94.8813 13.6095 93.9703 13.9392 93.2249 14.5985C92.5002 15.2371 92.055 16.1333 91.8893 17.2871H100.058Z" fill="#060606"/>
<path d="M141.492 12.8061C142.051 12.0232 142.817 11.3742 143.791 10.8591C144.784 10.3235 145.913 10.0556 147.176 10.0556C148.646 10.0556 149.971 10.4162 151.151 11.1373C152.352 11.8583 153.295 12.8885 153.978 14.2276C154.682 15.5462 155.034 17.0811 155.034 18.8323C155.034 20.5835 154.682 22.139 153.978 23.4987C153.295 24.8379 152.352 25.8783 151.151 26.62C149.971 27.3617 148.646 27.7325 147.176 27.7325C145.913 27.7325 144.795 27.475 143.822 26.9599C142.869 26.4449 142.093 25.7959 141.492 25.013V35.613H137.144V10.3338H141.492V12.8061ZM150.592 18.8323C150.592 17.8021 150.375 16.9162 149.94 16.1746C149.526 15.4123 148.967 14.8354 148.263 14.4439C147.58 14.0525 146.834 13.8568 146.027 13.8568C145.24 13.8568 144.495 14.0628 143.791 14.4749C143.107 14.8663 142.548 15.4432 142.113 16.2055C141.699 16.9677 141.492 17.864 141.492 18.8941C141.492 19.9242 141.699 20.8204 142.113 21.5827C142.548 22.345 143.107 22.9322 143.791 23.3442C144.495 23.7357 145.24 23.9314 146.027 23.9314C146.834 23.9314 147.58 23.7254 148.263 23.3133C148.967 22.9013 149.526 22.3141 149.94 21.5518C150.375 20.7895 150.592 19.883 150.592 18.8323Z" fill="#060606"/>
<path d="M166.642 10.0865C167.946 10.0865 169.106 10.375 170.12 10.9518C171.135 11.5081 171.922 12.3425 172.481 13.455C173.06 14.547 173.35 15.8655 173.35 17.4107V27.4544H169.002V17.9979C169.002 16.6381 168.66 15.5977 167.977 14.8766C167.294 14.1349 166.362 13.7641 165.182 13.7641C163.981 13.7641 163.028 14.1349 162.324 14.8766C161.641 15.5977 161.299 16.6381 161.299 17.9979V27.4544H156.951V1.36654H161.299V12.4661C161.858 11.7244 162.604 11.1476 163.536 10.7355C164.467 10.3029 165.503 10.0865 166.642 10.0865Z" fill="#060606"/>
<path d="M178.448 8.29412C177.682 8.29412 177.04 8.05719 176.522 7.58333C176.025 7.08887 175.777 6.4811 175.777 5.76001C175.777 5.03893 176.025 4.44145 176.522 3.9676C177.04 3.47314 177.682 3.22591 178.448 3.22591C179.214 3.22591 179.846 3.47314 180.343 3.9676C180.86 4.44145 181.119 5.03893 181.119 5.76001C181.119 6.4811 180.86 7.08887 180.343 7.58333C179.846 8.05719 179.214 8.29412 178.448 8.29412ZM180.591 10.3338V27.4544H176.243V10.3338H180.591Z" fill="#060606"/>
<path d="M190.229 27.7325C188.821 27.7325 187.558 27.4853 186.44 26.9908C185.322 26.4758 184.432 25.7856 183.769 24.9203C183.127 24.055 182.775 23.097 182.713 22.0463H187.092C187.175 22.7055 187.496 23.2515 188.055 23.6842C188.635 24.1168 189.349 24.3331 190.198 24.3331C191.026 24.3331 191.668 24.1683 192.124 23.8387C192.6 23.509 192.838 23.0867 192.838 22.5716C192.838 22.0154 192.548 21.6033 191.968 21.3355C191.409 21.047 190.509 20.738 189.266 20.4084C187.983 20.0993 186.927 19.78 186.098 19.4503C185.291 19.1207 184.587 18.6159 183.986 17.9361C183.407 17.2562 183.117 16.3394 183.117 15.1856C183.117 14.2379 183.386 13.3726 183.924 12.5897C184.483 11.8068 185.27 11.1888 186.285 10.7355C187.32 10.2823 188.531 10.0556 189.919 10.0556C191.968 10.0556 193.604 10.5707 194.826 11.6008C196.048 12.6103 196.72 13.9804 196.845 15.711H192.683C192.621 15.0311 192.331 14.4955 191.813 14.104C191.316 13.692 190.643 13.4859 189.794 13.4859C189.008 13.4859 188.397 13.6302 187.962 13.9186C187.548 14.207 187.341 14.6088 187.341 15.1238C187.341 15.7007 187.631 16.1437 188.21 16.4527C188.79 16.7411 189.691 17.0399 190.912 17.3489C192.155 17.6579 193.18 17.9773 193.987 18.3069C194.795 18.6365 195.488 19.1516 196.068 19.8521C196.669 20.532 196.979 21.4385 197 22.5716C197 23.5605 196.72 24.4464 196.161 25.2293C195.623 26.0122 194.836 26.6303 193.801 27.0836C192.786 27.5162 191.596 27.7325 190.229 27.7325Z" fill="#060606"/>
<path d="M127.671 9.76661C129.705 9.76661 131.339 10.4185 132.575 11.7223C133.831 13.0055 134.459 14.806 134.459 17.1239V27.2129H130.273V17.7137C130.273 16.3685 129.944 15.344 129.286 14.6404C128.628 13.9161 127.731 13.5539 126.595 13.5539C125.458 13.5539 124.551 13.9161 123.874 14.6404C123.216 15.344 122.887 16.3685 122.887 17.7137V27.2129H118.7V17.7137C118.7 16.3685 118.371 15.344 117.714 14.6404C117.056 13.9161 116.159 13.5539 115.022 13.5539C113.866 13.5539 112.949 13.9161 112.271 14.6404C111.613 15.344 111.285 16.3685 111.285 17.7137V27.2129H107.098V10.015H111.285V12.0948C111.823 11.3705 112.511 10.8014 113.348 10.3875C114.205 9.97356 115.142 9.76661 116.159 9.76661C117.454 9.76661 118.611 10.0563 119.627 10.6358C120.644 11.1946 121.432 12.0017 121.99 13.0572C122.528 12.0638 123.305 11.267 124.322 10.6669C125.359 10.0667 126.475 9.76661 127.671 9.76661Z" fill="#060606"/>
<path fill-rule="evenodd" clip-rule="evenodd" d="M23.4232 33.9621C23.3026 34.4327 23.0603 34.8382 22.705 35.2284C22.3184 35.6466 21.7787 36.0048 21.2015 36.2863C19.8876 36.9269 18.3636 37.1199 16.8603 36.9307L16.8504 36.9295L16.8405 36.9285C15.478 36.791 14.1672 36.243 13.1398 35.3369L0.980596 23.5821L0.979438 23.581C0.634583 23.2446 0.399756 22.9649 0.248071 22.6321C0.0812999 22.2662 0.000767951 21.9117 0 21.5119L0.105767 15.014L0.104034 14.9852C0.0652547 14.3423 0.28911 13.721 0.842796 13.1395L0.846982 13.1351L0.851097 13.1307C1.23607 12.7135 1.77334 12.3561 2.34837 12.0749C3.64319 11.4801 5.22489 11.276 6.72682 11.4591C8.23689 11.6431 9.58418 12.2074 10.4557 13.0573L10.4575 13.0591L22.6482 24.7929L22.6636 24.8062C23.0195 25.1147 23.2709 25.5111 23.4472 25.9839C23.5679 26.3075 23.6404 26.5927 23.6624 26.8722L23.505 33.472V33.481C23.505 33.587 23.4731 33.7675 23.4232 33.9621Z" fill="#FFC633"/>
<path d="M28.7105 11.1049C28.9133 11.4077 29.0758 11.7361 29.1929 12.0826C29.3445 12.5308 29.4567 13.2301 29.4482 13.6981L29.408 16.0289L37.5257 23.9428C38.5532 24.8488 39.864 25.3969 41.2265 25.5343L41.2364 25.5353L41.2463 25.5366C42.7495 25.7257 44.2736 25.5327 45.5875 24.8921C46.1647 24.6107 46.7044 24.2525 47.091 23.8342C47.4462 23.444 47.6885 23.0386 47.8092 22.568C47.8591 22.3733 47.891 22.1929 47.891 22.0868V22.0779L48.0484 15.4779C48.0433 15.4138 48.0356 15.3493 48.0252 15.2838L28.7105 11.1049Z" fill="#6557FF"/>
<path d="M48.025 15.2823C47.9905 15.0666 47.9268 14.841 47.8332 14.5898C47.6569 14.117 47.4055 13.7206 47.0496 13.4121L47.0341 13.3987L34.8435 1.6649L34.8417 1.66311C33.9702 0.813239 32.6229 0.248962 31.1128 0.0648869C29.6109 -0.118197 28.0292 0.0858795 26.7344 0.680668C26.1593 0.961908 25.622 1.31936 25.2371 1.7365L25.233 1.74096L25.2288 1.74535C24.6751 2.32684 24.4512 2.94815 24.49 3.59104L24.4917 3.61977L24.3854 8.56816C25.7371 8.89137 27.027 9.36187 27.9663 10.2635C28.2528 10.5115 28.5028 10.7948 28.7105 11.1049L48.025 15.2823Z" fill="#6557FF"/>
<path d="M48.8396 15.4585L48.8396 15.457L48.8396 15.4585Z" fill="#6557FF"/>
<path d="M48.8396 15.4585L48.8395 15.46L48.8396 15.4585Z" fill="#6557FF"/>
<path d="M27.4893 22.4909C27.5115 22.4684 27.5335 22.4455 27.5554 22.4226C27.9808 21.9777 28.2836 21.4348 28.4355 20.8448C28.4928 20.6228 28.5246 20.3953 28.5303 20.1664L28.6571 13.5201C28.6522 13.7442 28.5747 13.3428 28.5202 13.5606C28.5691 13.3411 28.653 13.7573 28.6569 13.5345L28.6569 13.534C28.6636 13.153 28.6048 12.772 28.4815 12.4071C28.2859 11.8287 27.9352 11.3119 27.4658 10.9103C25.3999 8.91106 21.3418 8.4074 18.4327 9.77963C17.7748 10.0812 17.1825 10.5035 16.6883 11.0234C15.9789 11.7797 15.641 12.6686 15.7073 13.5593L15.6951 14.1293L27.4893 22.4909L27.4888 22.4912L15.6951 14.1293L15.6382 16.7827L23.3711 24.2258C23.416 24.2647 23.4596 24.3046 23.5017 24.3454C24.3075 24.2296 25.0908 24.0068 25.8057 23.6715C26.4357 23.3807 27.006 22.9807 27.4888 22.4912L27.4893 22.4909Z" fill="#61DFC6"/>
</svg>
