<svg width="22" height="22" viewBox="0 0 22 22" fill="none" xmlns="http://www.w3.org/2000/svg">
<g clip-path="url(#clip0_3275_30028)">
<path fill-rule="evenodd" clip-rule="evenodd" d="M2.75 4.58342C2.75 2.55837 4.39162 0.916748 6.41667 0.916748H14.0646C15.037 0.916748 15.9696 1.30306 16.6573 1.99069L18.1761 3.50947C18.8637 4.19711 19.25 5.12974 19.25 6.1022V17.4167C19.25 19.4418 17.6084 21.0834 15.5833 21.0834H6.41667C4.39162 21.0834 2.75 19.4418 2.75 17.4167V4.58342ZM17.4167 7.33342V17.4167C17.4167 18.4293 16.5959 19.2501 15.5833 19.2501H6.41667C5.40414 19.2501 4.58333 18.4293 4.58333 17.4167V4.58342C4.58333 3.57089 5.40414 2.75008 6.41667 2.75008H12.8333V4.58342C12.8333 6.1022 14.0646 7.33342 15.5833 7.33342H17.4167ZM17.315 5.50008C17.225 5.24121 17.0772 5.00332 16.8797 4.80584L15.3609 3.28705C15.1634 3.08957 14.9255 2.9418 14.6667 2.85178V4.58342C14.6667 5.08968 15.0771 5.50008 15.5833 5.50008H17.315Z" fill="#4A495C" fill-opacity="0.8"/>
<path d="M8.24967 11C7.74341 11 7.33301 11.4104 7.33301 11.9167C7.33301 12.4229 7.74341 12.8333 8.24967 12.8333H13.7497C14.2559 12.8333 14.6663 12.4229 14.6663 11.9167C14.6663 11.4104 14.2559 11 13.7497 11H8.24967Z" fill="#B9B9B9"/>
<path d="M8.24967 14.6667C7.74341 14.6667 7.33301 15.0771 7.33301 15.5833C7.33301 16.0896 7.74341 16.5 8.24967 16.5H10.9997C11.5059 16.5 11.9163 16.0896 11.9163 15.5833C11.9163 15.0771 11.5059 14.6667 10.9997 14.6667H8.24967Z" fill="#B9B9B9"/>
</g>
<defs>
<clipPath id="clip0_3275_30028">
<rect width="22" height="22" fill="white"/>
</clipPath>
</defs>
</svg>
