<svg width="22" height="22" viewBox="0 0 22 22" fill="none" xmlns="http://www.w3.org/2000/svg">
<g clip-path="url(#clip0_2949_17209)">
<path fill-rule="evenodd" clip-rule="evenodd" d="M2.75 4.58366C2.75 2.55862 4.39162 0.916992 6.41667 0.916992H14.0646C15.037 0.916992 15.9696 1.3033 16.6573 1.99093L18.1761 3.50972C18.8637 4.19735 19.25 5.12998 19.25 6.10244V17.417C19.25 19.442 17.6084 21.0837 15.5833 21.0837H6.41667C4.39162 21.0837 2.75 19.442 2.75 17.417V4.58366ZM17.4167 7.33366V17.417C17.4167 18.4295 16.5959 19.2503 15.5833 19.2503H6.41667C5.40414 19.2503 4.58333 18.4295 4.58333 17.417V4.58366C4.58333 3.57114 5.40414 2.75033 6.41667 2.75033H12.8333V4.58366C12.8333 6.10244 14.0646 7.33366 15.5833 7.33366H17.4167ZM17.315 5.50033C17.225 5.24146 17.0772 5.00356 16.8797 4.80608L15.3609 3.2873C15.1634 3.08982 14.9255 2.94204 14.6667 2.85202V4.58366C14.6667 5.08992 15.0771 5.50033 15.5833 5.50033H17.315Z" fill="#D8D8D8"/>
<path d="M8.24992 11C7.74366 11 7.33325 11.4104 7.33325 11.9167C7.33325 12.4229 7.74366 12.8333 8.24992 12.8333H13.7499C14.2562 12.8333 14.6666 12.4229 14.6666 11.9167C14.6666 11.4104 14.2562 11 13.7499 11H8.24992Z" fill="#B9B9B9"/>
<path d="M8.24992 14.6667C7.74366 14.6667 7.33325 15.0771 7.33325 15.5833C7.33325 16.0896 7.74366 16.5 8.24992 16.5H10.9999C11.5062 16.5 11.9166 16.0896 11.9166 15.5833C11.9166 15.0771 11.5062 14.6667 10.9999 14.6667H8.24992Z" fill="#B9B9B9"/>
</g>
<defs>
<clipPath id="clip0_2949_17209">
<rect width="22" height="22" fill="white"/>
</clipPath>
</defs>
</svg>
