<svg width="16" height="16" viewBox="0 0 16 16" fill="none" xmlns="http://www.w3.org/2000/svg">
<path fill-rule="evenodd" clip-rule="evenodd" d="M15.1381 12.1951C15.3984 12.4554 15.3984 12.8776 15.1381 13.1379L13.8047 14.4712C13.5444 14.7316 13.1223 14.7316 12.8619 14.4712C12.6016 14.2109 12.6016 13.7888 12.8619 13.5284L13.0572 13.3332L10.6667 13.3332C10.2985 13.3332 10 13.0347 10 12.6665C10 12.2983 10.2985 11.9998 10.6667 11.9998L13.0572 11.9998L12.8619 11.8046C12.6016 11.5442 12.6016 11.1221 12.8619 10.8618C13.1223 10.6014 13.5444 10.6014 13.8047 10.8618L15.1381 12.1951Z" fill="#4A495C" fill-opacity="0.8"/>
<path fill-rule="evenodd" clip-rule="evenodd" d="M1.33337 5.8665C1.33337 4.7464 1.33337 4.18635 1.55136 3.75852C1.74311 3.3822 2.04907 3.07624 2.42539 2.88449C2.85322 2.6665 3.41327 2.6665 4.53337 2.6665H11.4667C12.5868 2.6665 13.1469 2.6665 13.5747 2.88449C13.951 3.07624 14.257 3.3822 14.4487 3.75852C14.6667 4.18635 14.6667 4.7464 14.6667 5.8665V8.13317C14.6667 8.31985 14.6667 8.4132 14.6304 8.4845C14.5984 8.54722 14.5474 8.59821 14.4847 8.63017C14.4134 8.6665 14.3201 8.6665 14.1334 8.6665H12.6667C10.4576 8.6665 8.66671 10.4574 8.66671 12.6665V12.7998C8.66671 12.9865 8.66671 13.0799 8.63038 13.1512C8.59842 13.2139 8.54743 13.2649 8.4847 13.2968C8.4134 13.3332 8.32006 13.3332 8.13337 13.3332H4.53337C3.41327 13.3332 2.85322 13.3332 2.42539 13.1152C2.04907 12.9234 1.74311 12.6175 1.55136 12.2412C1.33337 11.8133 1.33337 11.2533 1.33337 10.1332V5.8665ZM4.11696 5.62271C4.32524 5.3191 4.74022 5.24181 5.04383 5.45009L7.62291 7.21934C7.85017 7.37524 8.14992 7.37524 8.37717 7.21934L10.9562 5.45009C11.2599 5.24181 11.6748 5.3191 11.8831 5.62271C12.0914 5.92633 12.0141 6.3413 11.7105 6.54958L9.13142 8.31883C8.44966 8.78652 7.55042 8.78652 6.86866 8.31883L4.28958 6.54958C3.98597 6.3413 3.90868 5.92633 4.11696 5.62271Z" fill="#4A495C" fill-opacity="0.8"/>
</svg>
