<svg width="18" height="18" viewBox="0 0 18 18" fill="none" xmlns="http://www.w3.org/2000/svg">
<path id="Vector" d="M7.21386 0.131066C5.9578 -0.275544 4.59234 0.290042 3.99167 1.46575L3.26953 2.8792C3.18373 3.04714 3.04714 3.18373 2.8792 3.26953L1.46575 3.99167C0.290042 4.59234 -0.275544 5.9578 0.131066 7.21386L0.619902 8.72394C0.677984 8.90336 0.677984 9.09658 0.619902 9.276L0.131066 10.7861C-0.275544 12.0422 0.290042 13.4076 1.46575 14.0083L2.8792 14.7304C3.04714 14.8162 3.18373 14.9528 3.26953 15.1208L3.99167 16.5342C4.59234 17.71 5.9578 18.2755 7.21386 17.8689L8.72394 17.3801C8.90336 17.322 9.09658 17.322 9.276 17.3801L10.7861 17.8689C12.0422 18.2755 13.4076 17.71 14.0083 16.5342L14.7304 15.1208C14.8162 14.9528 14.9528 14.8162 15.1208 14.7304L16.5342 14.0083C17.71 13.4076 18.2755 12.0422 17.8689 10.7861L17.3801 9.276C17.322 9.09658 17.322 8.90336 17.3801 8.72394L17.8689 7.21386C18.2755 5.9578 17.71 4.59234 16.5342 3.99167L15.1208 3.26953C14.9528 3.18373 14.8162 3.04714 14.7304 2.8792L14.0083 1.46575C13.4076 0.290042 12.0422 -0.275544 10.7861 0.131066L9.276 0.619902C9.09658 0.677975 8.90336 0.677984 8.72394 0.619902L7.21386 0.131066ZM4.30373 8.78247L5.57114 7.51498L8.10593 10.0499L13.1756 4.98024L14.443 6.24765L8.10593 12.5846L4.30373 8.78247Z" fill="#6557FF"/>
</svg>
