<svg width="16" height="16" viewBox="0 0 16 16" fill="none" xmlns="http://www.w3.org/2000/svg">
<g id="vuesax/bold/message-text">
<g id="message-text">
<path id="Vector" d="M11.3333 1.33325H4.66668C2.82668 1.33325 1.33334 2.81992 1.33334 4.65325V8.63992V9.30659C1.33334 11.1399 2.82668 12.6266 4.66668 12.6266H5.66668C5.84668 12.6266 6.08668 12.7466 6.20001 12.8933L7.20001 14.2199C7.64001 14.8066 8.36001 14.8066 8.80001 14.2199L9.80001 12.8933C9.92668 12.7266 10.1267 12.6266 10.3333 12.6266H11.3333C13.1733 12.6266 14.6667 11.1399 14.6667 9.30659V4.65325C14.6667 2.81992 13.1733 1.33325 11.3333 1.33325ZM8.66668 9.16659H4.66668C4.39334 9.16659 4.16668 8.93992 4.16668 8.66659C4.16668 8.39325 4.39334 8.16659 4.66668 8.16659H8.66668C8.94001 8.16659 9.16668 8.39325 9.16668 8.66659C9.16668 8.93992 8.94001 9.16659 8.66668 9.16659ZM11.3333 5.83325H4.66668C4.39334 5.83325 4.16668 5.60659 4.16668 5.33325C4.16668 5.05992 4.39334 4.83325 4.66668 4.83325H11.3333C11.6067 4.83325 11.8333 5.05992 11.8333 5.33325C11.8333 5.60659 11.6067 5.83325 11.3333 5.83325Z" fill="#737373"/>
</g>
</g>
</svg>
