<svg width="96" height="95" viewBox="0 0 96 95" fill="none" xmlns="http://www.w3.org/2000/svg">
<g filter="url(#filter0_d_1871_19649)">
<path d="M48.6242 80.6262C67.8811 80.6262 83.493 65.0144 83.493 45.6886C83.493 26.3629 67.8123 10.7511 48.6242 10.7511C29.3673 10.7511 13.7554 26.3629 13.7554 45.6886C13.7554 65.0144 29.3673 80.6262 48.6242 80.6262Z" fill="#EAEEF9"/>
</g>
<path d="M80.9477 22.8552C82.505 22.8552 83.7675 21.5928 83.7675 20.0355C83.7675 18.4782 82.505 17.2157 80.9477 17.2157C79.3904 17.2157 78.1279 18.4782 78.1279 20.0355C78.1279 21.5928 79.3904 22.8552 80.9477 22.8552Z" fill="#EAEEF9"/>
<path d="M85.0741 11.8514C86.1377 11.8514 86.9998 10.9892 86.9998 9.92569C86.9998 8.86216 86.1377 8 85.0741 8C84.0106 8 83.1484 8.86216 83.1484 9.92569C83.1484 10.9892 84.0106 11.8514 85.0741 11.8514Z" fill="#EAEEF9"/>
<path d="M15.3368 22.7865C16.4004 22.7865 17.2625 21.9243 17.2625 20.8608C17.2625 19.7973 16.4004 18.9351 15.3368 18.9351C14.2733 18.9351 13.4111 19.7973 13.4111 20.8608C13.4111 21.9243 14.2733 22.7865 15.3368 22.7865Z" fill="#EAEEF9"/>
<path d="M3.57629 59.9251C5.55142 59.9251 7.15258 58.324 7.15258 56.3488C7.15258 54.3737 5.55142 52.7725 3.57629 52.7725C1.60116 52.7725 0 54.3737 0 56.3488C0 58.324 1.60116 59.9251 3.57629 59.9251Z" fill="#F1F3F9"/>
<path d="M74.5398 69.5447C68.1684 76.4642 59.0395 80.7924 48.9001 80.7924C40.8081 80.7924 33.3597 78.0356 27.4429 73.405V16.3842C27.4429 14.498 28.9616 12.9589 30.8563 12.9589H64.7205L74.5398 22.8124V69.5447Z" fill="url(#paint0_linear_1871_19649)"/>
<path d="M41.2182 68.8334H36.2868C36.1028 68.8334 35.9556 68.3566 35.9556 67.7845C35.9556 67.2124 36.1028 66.7357 36.2868 66.7357H41.2182C41.4022 66.7357 41.5494 67.2124 41.5494 67.7845C41.5494 68.452 41.4022 68.8334 41.2182 68.8334Z" fill="#D5DDEA"/>
<path d="M52.07 24.7816H36.6227C36.2635 24.7816 35.9556 24.2975 35.9556 23.7327C35.9556 23.168 36.2635 22.6839 36.6227 22.6839H52.07C52.4293 22.6839 52.7372 23.168 52.7372 23.7327C52.7372 24.2975 52.4293 24.7816 52.07 24.7816Z" fill="#D5DDEA"/>
<path d="M40.4336 29.6763H36.4068C36.1638 29.6763 35.9556 29.1922 35.9556 28.6274C35.9556 28.0627 36.1638 27.5786 36.4068 27.5786H40.3989C40.6419 27.5786 40.8502 28.0627 40.8502 28.6274C40.8502 29.1922 40.6419 29.6763 40.4336 29.6763Z" fill="#D5DDEA"/>
<path d="M64.8087 56.9464H45.662H43.5517H37.1695C36.9121 56.9464 36.6548 57.3834 36.6548 57.9952C36.6548 58.5196 36.8607 59.0441 37.1695 59.0441H43.5517H45.662H64.8087C65.066 59.0441 65.3234 58.607 65.3234 57.9952C65.2719 57.3834 65.066 56.9464 64.8087 56.9464Z" fill="#D5DDEA"/>
<path d="M64.8078 51.3525H57.6922H55.2688H37.1704C36.9126 51.3525 36.6548 51.7896 36.6548 52.4014C36.6548 52.9258 36.861 53.4502 37.1704 53.4502H55.2688H57.6922H64.8078C65.0656 53.4502 65.3234 53.0132 65.3234 52.4014C65.2718 51.7896 65.0656 51.3525 64.8078 51.3525Z" fill="#D5DDEA"/>
<path d="M65.5423 46.4578H63.648H61.7538H37.181C36.9179 46.4578 36.6548 46.8949 36.6548 47.5067C36.6548 48.0311 36.8653 48.5555 37.181 48.5555H61.7538H63.8585H65.4897C65.7528 48.5555 66.0159 48.1185 66.0159 47.5067C66.0685 46.9823 65.8054 46.4578 65.5423 46.4578Z" fill="#D5DDEA"/>
<path d="M65.501 40.864H59.3979H57.8852H37.1764C36.9156 40.864 36.6548 41.301 36.6548 41.9129C36.6548 42.4373 36.8634 42.9617 37.1764 42.9617H57.8852H59.3979H65.4488C65.814 42.9617 66.0226 42.5247 66.0226 41.9129C66.0226 41.3884 65.814 40.864 65.501 40.864Z" fill="#D5DDEA"/>
<path d="M64.4443 13.2034V20.7214C64.4443 22.0113 65.49 23.057 66.7799 23.057H74.8476" fill="#D5DDEA"/>
<path d="M40.8134 32.7739V54.4376C40.8134 56.9728 38.7382 58.8165 36.4323 58.8165H35.2794V64.5781C35.2794 65.9609 33.6653 66.4218 32.743 65.5L26.9784 58.8165H4.3811C1.84468 58.8165 0 56.7423 0 54.4376V32.7739C0 30.2388 2.07526 28.3951 4.3811 28.3951H36.4323C38.7382 28.3951 40.8134 30.4692 40.8134 32.7739Z" fill="url(#paint1_linear_1871_19649)"/>
<path d="M10.8374 44.0667V39.4574C10.8374 38.766 11.2986 38.3051 11.9903 38.3051H17.0632C17.7549 38.3051 18.2161 38.766 18.2161 39.4574V44.7581C18.2161 46.1409 18.2161 47.2932 17.9855 48.2151C17.7595 49.1186 17.312 49.5794 16.643 50.2483C16.6159 50.2755 16.5861 50.3001 16.5536 50.3207C15.9774 50.6848 15.1033 50.9018 14.0531 51.0934C13.6982 51.1582 13.3738 50.8827 13.3738 50.522V49.6434C13.3738 49.3528 13.5895 49.1117 13.8707 49.0382C15.1758 48.6974 15.9103 47.7862 15.9103 46.1409C15.9103 46.1409 15.7039 45.68 15.4493 45.68H12.3976C12.2824 45.68 12.1696 45.6461 12.074 45.5818C11.4345 45.1525 10.8374 44.7091 10.8374 44.0667ZM22.136 44.0667V39.4574C22.136 38.766 22.5972 38.3051 23.2889 38.3051H28.3618C29.0536 38.3051 29.5147 38.766 29.5147 39.4574V44.7581C29.5147 46.1409 29.5147 47.2932 29.2841 48.2151C29.0581 49.1186 28.6106 49.5794 27.9417 50.2483C27.9145 50.2755 27.8848 50.3001 27.8523 50.3207C27.276 50.6848 26.4019 50.9018 25.3517 51.0934C24.9968 51.1582 24.6724 50.8827 24.6724 50.522V49.6434C24.6724 49.3528 24.8881 49.1117 25.1693 49.0382C26.4744 48.6974 27.2089 47.7862 27.2089 46.1409C27.2089 46.1409 27.0025 45.68 26.748 45.68H23.6962C23.581 45.68 23.4682 45.6461 23.3726 45.5818C22.7331 45.1525 22.136 44.7091 22.136 44.0667Z" fill="white"/>
<defs>
<filter id="filter0_d_1871_19649" x="1.75537" y="0.751053" width="93.7378" height="93.8752" filterUnits="userSpaceOnUse" color-interpolation-filters="sRGB">
<feFlood flood-opacity="0" result="BackgroundImageFix"/>
<feColorMatrix in="SourceAlpha" type="matrix" values="0 0 0 0 0 0 0 0 0 0 0 0 0 0 0 0 0 0 127 0" result="hardAlpha"/>
<feOffset dy="2"/>
<feGaussianBlur stdDeviation="6"/>
<feComposite in2="hardAlpha" operator="out"/>
<feColorMatrix type="matrix" values="0 0 0 0 0.396078 0 0 0 0 0.478431 0 0 0 0 0.576471 0 0 0 0.27 0"/>
<feBlend mode="normal" in2="BackgroundImageFix" result="effect1_dropShadow_1871_19649"/>
<feBlend mode="normal" in="SourceGraphic" in2="effect1_dropShadow_1871_19649" result="shape"/>
</filter>
<linearGradient id="paint0_linear_1871_19649" x1="50.976" y1="11.3898" x2="50.976" y2="81.5237" gradientUnits="userSpaceOnUse">
<stop stop-color="#FDFEFF"/>
<stop offset="0.9964" stop-color="#ECF0F5"/>
</linearGradient>
<linearGradient id="paint1_linear_1871_19649" x1="-0.0186919" y1="47.1914" x2="40.8208" y2="47.1914" gradientUnits="userSpaceOnUse">
<stop stop-color="#B0BACC"/>
<stop offset="1" stop-color="#969EAE"/>
</linearGradient>
</defs>
</svg>
