<svg width="186" height="165" viewBox="0 0 186 165" fill="none" xmlns="http://www.w3.org/2000/svg">
<path d="M90.0961 150.803C127.825 150.803 158.41 120.04 158.41 82.0928C158.41 44.1453 127.825 13.3828 90.0961 13.3828C52.3674 13.3828 21.7822 44.1453 21.7822 82.0928C21.7822 120.04 52.3674 150.803 90.0961 150.803Z" fill="#EAEEF9"/>
<g filter="url(#filter0_d_8012_13567)">
<path d="M26.4551 46.7008V55.5487V126.056C26.4551 129.236 29.0667 131.862 32.2281 131.862H145.901C149.063 131.862 151.674 129.236 151.674 126.056V55.5487V46.9773C151.674 43.521 148.925 40.8943 145.626 40.8943H32.2281L26.4551 46.7008Z" fill="url(#paint0_linear_8012_13567)"/>
</g>
<path d="M114.425 52.7837H26.4551V46.7008C26.4551 43.521 29.0667 40.8943 32.2281 40.8943H145.901C149.063 40.8943 151.674 43.521 151.674 46.7008V52.7837H132.294H114.425Z" fill="#D5DDEA"/>
<path d="M33.8775 49.0516C34.9402 49.0516 35.8018 48.1851 35.8018 47.1162C35.8018 46.0472 34.9402 45.1807 33.8775 45.1807C32.8147 45.1807 31.9531 46.0472 31.9531 47.1162C31.9531 48.1851 32.8147 49.0516 33.8775 49.0516Z" fill="#989FB0"/>
<path d="M39.3755 49.0516C40.4383 49.0516 41.2998 48.1851 41.2998 47.1162C41.2998 46.0472 40.4383 45.1807 39.3755 45.1807C38.3127 45.1807 37.4512 46.0472 37.4512 47.1162C37.4512 48.1851 38.3127 49.0516 39.3755 49.0516Z" fill="#989FB0"/>
<path d="M45.0112 49.0516C46.074 49.0516 46.9356 48.1851 46.9356 47.1162C46.9356 46.0472 46.074 45.1807 45.0112 45.1807C43.9485 45.1807 43.0869 46.0472 43.0869 47.1162C43.0869 48.1851 43.9485 49.0516 45.0112 49.0516Z" fill="#989FB0"/>
<path d="M83.7729 86.9311L61.3682 86.7928C60.406 86.7928 59.7188 85.9633 59.7188 85.1338C59.7188 84.1661 60.5435 83.4749 61.3682 83.4749L83.7729 83.6131C84.7351 83.6131 85.4224 84.4426 85.4224 85.2721C85.4224 86.1016 84.7351 86.9311 83.7729 86.9311Z" fill="#D6DCE8"/>
<path d="M136.967 86.9311L111.126 86.7928C110.164 86.7928 109.477 85.9633 109.477 85.1338C109.477 84.1661 110.301 83.4749 111.126 83.4749L136.83 83.6131C137.792 83.6131 138.479 84.4426 138.479 85.2721C138.616 86.1016 137.929 86.9311 136.967 86.9311Z" fill="#EAECF3"/>
<path d="M119.785 119.42L93.9443 119.282C92.9822 119.282 92.2949 118.452 92.2949 117.623C92.2949 116.655 93.1196 115.964 93.9443 115.964L119.785 116.102C120.748 116.102 121.435 116.932 121.435 117.761C121.435 118.729 120.61 119.42 119.785 119.42Z" fill="#D6DCE8"/>
<path d="M103.841 86.7929L91.333 86.6547C90.3709 86.6547 89.6836 85.8252 89.6836 84.9957C89.6836 84.0279 90.5083 83.3367 91.333 83.3367L103.841 83.4749C104.803 83.4749 105.491 84.3044 105.491 85.1339C105.628 86.1017 104.803 86.7929 103.841 86.7929Z" fill="#AAB2C5"/>
<path d="M52.4339 86.6547H43.2246C42.2625 86.6547 41.5752 85.8252 41.5752 84.9957C41.5752 84.0279 42.2625 83.3367 43.2246 83.3367H52.4339C53.3961 83.3367 54.0834 84.1662 54.0834 84.9957C54.0834 85.9634 53.3961 86.6547 52.4339 86.6547Z" fill="#AAB2C5"/>
<path d="M88.1715 97.7148L74.7012 97.5765C73.739 97.5765 73.0518 96.747 73.0518 95.9175C73.0518 94.9498 73.8765 94.2585 74.7012 94.2585L88.1715 94.3968C89.1337 94.3968 89.821 95.2263 89.821 96.0558C89.9584 96.8853 89.1337 97.7148 88.1715 97.7148Z" fill="#D6DCE8"/>
<path d="M129.957 97.9913L95.7315 97.5765C94.7693 97.5765 94.082 96.747 94.082 95.9175C94.082 94.9498 94.9067 94.2585 95.7315 94.2585L129.957 94.6733C130.919 94.6733 131.607 95.5028 131.607 96.3323C131.607 97.1618 130.782 97.9913 129.957 97.9913Z" fill="#D6DCE8"/>
<path d="M65.7668 97.5765H43.2246C42.2625 97.5765 41.5752 96.747 41.5752 95.9175C41.5752 94.9498 42.3999 94.2585 43.2246 94.2585H65.7668C66.729 94.2585 67.4163 95.088 67.4163 95.9175C67.4163 96.747 66.729 97.5765 65.7668 97.5765Z" fill="#EAECF3"/>
<path d="M105.903 108.498L74.7012 108.36C73.739 108.36 73.0518 107.53 73.0518 106.701C73.0518 105.733 73.8765 105.042 74.7012 105.042L106.04 105.18C107.003 105.18 107.69 106.01 107.69 106.839C107.69 107.807 106.865 108.498 105.903 108.498Z" fill="#AAB2C5"/>
<path d="M65.7668 108.36H43.2246C42.2625 108.36 41.5752 107.53 41.5752 106.701C41.5752 105.733 42.3999 105.042 43.2246 105.042H65.7668C66.729 105.042 67.4163 105.871 67.4163 106.701C67.4163 107.53 66.729 108.36 65.7668 108.36Z" fill="#D6DCE8"/>
<path d="M85.2851 119.281L68.1035 119.143C67.1414 119.143 66.4541 118.313 66.4541 117.484C66.4541 116.516 67.2788 115.825 68.1035 115.825L85.2851 115.963C86.2473 115.963 86.9345 116.793 86.9345 117.622C86.9345 118.59 86.2473 119.281 85.2851 119.281Z" fill="#EAECF3"/>
<path d="M57.1073 119.143H43.2246C42.2625 119.143 41.5752 118.313 41.5752 117.484C41.5752 116.516 42.3999 115.825 43.2246 115.825H57.1073C58.0695 115.825 58.7568 116.654 58.7568 117.484C58.8942 118.452 58.0695 119.143 57.1073 119.143Z" fill="#AAB2C5"/>
<path d="M106.453 70.2031L43.2246 69.9266C42.2625 69.9266 41.5752 69.0971 41.5752 68.2676C41.5752 67.2999 42.3999 66.6086 43.2246 66.6086L106.453 66.8851C107.415 66.8851 108.102 67.7146 108.102 68.5441C108.102 69.5119 107.415 70.2031 106.453 70.2031Z" fill="#AAB2C5"/>
<path d="M3.71121 62.9035C3.98612 63.18 4.12358 63.4564 4.12358 63.8712C2.74905 67.8804 2.33669 68.0187 4.12358 68.7099C4.26103 68.7099 4.39848 68.9864 4.26103 69.1247C3.84867 70.2307 3.71122 71.0602 3.29886 70.9219C-3.16141 68.5717 3.43631 64.1477 0.13745 62.9035C-2.09941e-06 62.9035 0 62.7652 0 62.627L0.687263 60.5532C0.687263 60.415 0.824711 60.415 0.962164 60.415C2.61159 60.968 2.74905 59.7237 3.29886 58.203C3.98612 55.991 5.773 55.2997 7.83479 55.991C8.24715 56.1292 8.6595 56.2675 8.52205 56.544C7.83479 58.6177 7.97224 58.4795 7.14753 58.203C5.08574 57.5117 5.63555 63.0417 3.71121 62.9035Z" fill="#AAB2C5"/>
<path d="M181.162 63.318C181.025 63.318 181.025 63.4563 181.162 63.318C181.437 63.5945 181.575 63.871 181.575 64.2858C180.2 68.295 179.788 68.4332 181.575 69.1245C181.712 69.1245 181.85 69.401 181.712 69.5392C181.3 70.6452 181.162 71.4747 180.75 71.3365C174.29 68.9862 180.887 64.5622 177.589 63.318C177.451 63.318 177.451 63.1798 177.451 63.0415L178.138 60.9678C178.138 60.8295 178.276 60.8295 178.413 60.8295C180.063 61.3825 180.2 60.1383 180.75 58.6175C181.437 56.4055 183.224 55.7143 185.286 56.4055C185.698 56.5438 186.111 56.682 185.973 56.9585C185.286 59.0323 185.423 58.894 184.599 58.6175C182.399 58.0645 183.087 63.4563 181.162 63.318Z" fill="#AAB2C5"/>
<path d="M100.89 3.59448C100.753 3.45623 100.753 3.45623 100.89 3.59448C100.615 3.87098 100.34 4.14748 100.065 4.14748C95.9419 3.45624 95.667 3.04149 95.2547 4.83873C95.2547 4.97698 95.1172 5.11523 94.8423 5.11523C93.6052 4.83873 92.918 4.97698 92.918 4.42398C94.155 -2.48849 99.6531 3.45623 100.203 0.138249C100.203 -7.9313e-07 100.34 0 100.478 0L102.54 0.414747C102.677 0.414747 102.677 0.552998 102.677 0.691247C102.402 2.35024 103.502 2.35024 105.289 2.62674C107.488 3.04149 108.588 4.56223 108.175 6.77422C108.038 7.18897 108.038 7.60372 107.763 7.60372C105.701 7.18897 105.701 7.46547 105.976 6.49772C106.251 4.00923 100.89 5.52998 100.89 3.59448Z" fill="#AAB2C5"/>
<path d="M58.8941 13.1062C57.9319 14.0739 57.7944 15.7329 58.7566 16.7007C59.3064 17.3919 60.2686 17.6684 61.2307 17.3919C61.6431 17.9449 61.6431 18.6361 61.3682 19.1891L59.8562 21.4011C59.7188 21.5394 59.5813 21.8159 59.5813 21.9541L58.0693 20.2951C58.4817 18.9126 57.7944 17.5302 56.4199 17.1154C55.0454 16.7007 53.6709 17.3919 53.2585 18.7744C52.8461 20.1569 53.5334 21.5394 54.9079 21.9541C55.3203 22.0924 55.8701 22.0924 56.2825 21.9541L60.2686 26.2399C59.8562 27.6224 60.5435 29.0049 61.918 29.4196C63.2925 29.8343 64.6671 29.1431 65.0794 27.7606C65.0794 27.6224 65.0794 27.6224 65.2169 27.4841C65.2169 27.2076 65.2169 26.9311 65.2169 26.7929C65.0794 25.4104 63.8423 24.3044 62.3304 24.5809C62.1929 24.5809 62.1929 24.5809 62.0555 24.5809C61.6431 24.0279 61.5057 23.3366 61.918 22.7836L63.43 20.5716C64.3922 19.0509 64.2547 17.1154 63.1551 15.7329C63.1551 15.5947 63.1551 15.4564 63.2925 15.4564C63.2925 15.1799 63.2925 14.9034 63.2925 14.7652C63.1551 13.3827 61.918 12.4149 60.5435 12.5532C59.7188 12.5532 59.3064 12.6914 58.8941 13.1062ZM55.0454 18.9126C55.4577 18.6361 55.8701 18.6361 56.2825 18.9126C56.5574 19.3274 56.5574 19.7421 56.2825 20.1569C55.8701 20.4334 55.4577 20.4334 55.0454 20.1569C54.633 19.8804 54.633 19.3274 55.0454 18.9126ZM63.2925 26.6546C63.43 26.7929 63.43 26.9311 63.43 27.0694C63.43 27.4841 63.0176 27.8989 62.4678 27.8989C62.0555 27.8989 61.6431 27.4841 61.6431 26.9311C61.6431 26.7929 61.7806 26.5164 61.7806 26.3781C61.918 26.1016 62.1929 26.1016 62.4678 26.1016C62.8802 26.2399 63.1551 26.3781 63.2925 26.6546ZM59.8562 14.3504C60.1311 13.9357 60.6809 13.9357 61.0933 14.2122C61.2307 14.2122 61.2307 14.3504 61.2307 14.4887C61.2307 14.6269 61.2307 14.6269 61.3682 14.7652C61.3682 14.9034 61.3682 14.9034 61.3682 15.0417C61.3682 15.1799 61.3682 15.1799 61.3682 15.1799C61.2307 15.3182 61.0933 15.4564 60.9558 15.5947C60.5435 15.8712 59.9937 15.5947 59.8562 15.1799C59.7188 15.0417 59.7188 14.6269 59.8562 14.3504Z" fill="#D6DCE8"/>
<path d="M114.088 25.2496L112.027 26.3556C109.965 24.2819 106.803 24.2819 104.742 26.3556C103.642 27.4616 103.092 29.1206 103.367 30.7796L101.168 31.7473C100.756 31.8856 100.618 32.4386 100.893 32.7151L101.718 34.3741C101.855 34.7888 102.405 34.9271 102.68 34.6506L104.742 33.5446C106.803 35.6183 109.965 35.6183 112.027 33.5446C113.126 32.4386 113.676 30.7796 113.401 29.1206L115.463 28.0146C115.875 27.8763 116.013 27.3233 115.738 27.0468L114.913 25.3879C114.913 25.2496 114.363 25.1114 114.088 25.2496ZM109.553 32.3003C108.315 32.9916 106.803 32.4386 106.116 31.1943C105.429 29.9501 105.979 28.4293 107.216 27.7381C108.453 27.0468 109.965 27.5998 110.652 28.8441C111.202 30.0883 110.79 31.6091 109.553 32.3003Z" fill="#D6DCE8"/>
<path d="M18.5562 111.965L16.357 107.956C15.5323 106.435 13.7454 105.882 12.2334 106.712L11.821 106.85L11.4087 106.159C11.2712 105.882 10.9963 105.882 10.7214 106.02C10.584 106.02 10.584 106.159 10.4465 106.297L9.34689 109.062C9.20944 109.338 9.3469 109.615 9.6218 109.753C9.6218 109.753 9.6218 109.753 9.75925 109.753L12.6458 110.306C12.9207 110.306 13.1956 110.168 13.1956 109.891C13.1956 109.753 13.1956 109.615 13.1956 109.615L12.7832 108.924L13.1956 108.647C13.6079 108.371 14.2952 108.509 14.4326 109.062L16.6319 113.071C16.2195 113.762 16.2195 114.592 16.6319 115.283C17.1817 116.389 18.4188 116.666 19.5184 116.113C19.9307 115.836 20.2056 115.56 20.4806 115.145C20.618 115.007 20.618 114.73 20.618 114.592C20.7555 113.348 19.9307 112.242 18.6937 112.103C18.6937 111.965 18.5562 111.965 18.5562 111.965ZM18.2813 114.73C18.1439 114.73 18.1439 114.73 18.2813 114.73C17.8689 114.454 17.7315 114.039 18.0064 113.624C18.1439 113.348 18.4188 113.209 18.6937 113.209C18.8311 113.209 19.106 113.348 19.2435 113.486C19.5184 113.762 19.5184 114.177 19.2435 114.454C18.8311 114.868 18.5562 114.868 18.2813 114.73Z" fill="#D6DCE8"/>
<path d="M6.46062 108.371C5.49845 108.924 5.0861 110.307 5.63591 111.275C6.04827 111.966 6.73553 112.381 7.56025 112.381L11.4089 119.293C11.6838 119.846 12.2336 119.984 12.7834 119.708C13.3332 119.431 13.4707 118.878 13.1958 118.325L9.34712 111.413C9.75948 110.722 9.75948 109.892 9.34712 109.201C8.79731 108.233 7.42279 107.818 6.46062 108.371ZM7.83515 110.86C7.42279 110.998 7.01044 110.998 6.87298 110.583C6.73553 110.169 6.73553 109.754 7.14788 109.616C7.56024 109.477 7.97261 109.477 8.11006 109.892C8.24751 110.307 8.11005 110.722 7.83515 110.86Z" fill="#D6DCE8"/>
<path d="M170.368 89.8346L170.505 89.5581C170.918 88.7286 170.918 87.8991 170.505 87.0696L169.268 84.4429C169.131 84.3046 169.131 84.0281 169.268 83.8899L169.681 82.9221L170.368 83.3369C170.643 83.4751 170.918 83.3369 171.055 83.0604C171.055 82.9221 171.055 82.7839 171.055 82.7839L170.505 79.7424C170.505 79.4659 170.231 79.3276 169.956 79.3276H169.818L167.069 80.5719C166.794 80.7101 166.657 80.9866 166.794 81.2631C166.794 81.4014 166.932 81.4014 167.069 81.5396L167.756 81.9544L167.344 82.9221C167.207 83.0604 167.069 83.1986 166.932 83.1986L164.045 83.6134C163.22 83.7516 162.396 84.3046 162.121 84.9959L161.983 85.2724C160.746 85.2724 159.784 86.2401 159.784 87.4843C159.784 88.7286 160.746 89.6963 161.983 89.6963C163.22 89.6963 164.183 88.7286 164.183 87.4843C164.183 87.0696 164.045 86.6549 163.77 86.3784L163.908 86.1019C164.045 85.9636 164.183 85.8254 164.32 85.8254L166.794 85.4106C167.069 85.4106 167.344 85.5489 167.482 85.8254L168.581 88.1756C168.719 88.3138 168.719 88.5903 168.581 88.7286L168.444 89.0051C167.207 89.0051 166.244 90.1111 166.382 91.2171C166.382 92.4613 167.482 93.4291 168.581 93.2908C169.818 93.2908 170.78 92.1848 170.643 91.0788C170.78 90.6641 170.643 90.2493 170.368 89.8346ZM161.709 88.3138C161.296 88.1756 161.159 87.6226 161.434 87.3461C161.571 86.9314 162.121 86.7931 162.396 87.0696C162.808 87.2079 162.946 87.7608 162.671 88.0373C162.533 88.3138 161.983 88.4521 161.709 88.3138ZM168.169 91.7701C167.756 91.6318 167.619 91.0788 167.894 90.8023C168.031 90.3876 168.581 90.2493 168.856 90.5258C169.131 90.8023 169.406 91.2171 169.131 91.4936C168.994 91.7701 168.581 91.9083 168.169 91.7701Z" fill="#D6DCE8"/>
<path d="M164.971 128.422C162.189 142.317 148.697 151.39 135.066 148.413C121.435 145.577 112.533 131.824 115.454 117.929C118.236 104.034 131.728 94.9605 145.359 97.938C150.227 98.9305 154.678 101.341 158.155 105.027C164.136 111.124 166.779 119.915 164.971 128.422Z" fill="url(#paint1_linear_8012_13567)"/>
<path d="M148.097 120.699H142.474V115.076C142.474 113.951 141.599 112.952 140.349 112.952C139.225 112.952 138.225 113.826 138.225 115.076V120.699H132.602C131.477 120.699 130.478 121.574 130.478 122.824C130.478 124.073 131.352 124.948 132.602 124.948H138.225V130.571C138.225 131.696 139.1 132.695 140.349 132.695C141.474 132.695 142.474 131.821 142.474 130.571V124.948H148.097C149.222 124.948 150.221 124.073 150.221 122.824C150.221 121.574 149.222 120.699 148.097 120.699Z" fill="white"/>
<path d="M80.1993 142.646C79.3746 142.784 78.6874 143.337 78.4125 144.167C76.2132 144.582 74.4263 142.923 74.014 142.093C74.8387 141.125 74.7012 139.743 73.7391 138.913C72.7769 138.084 71.4024 138.222 70.5777 139.19C69.7529 140.158 69.8904 141.54 70.8526 142.37C71.1275 142.508 71.4024 142.784 71.6773 142.784L72.6394 147.9C71.6773 148.729 71.5398 150.112 72.3645 151.079C73.1893 152.047 74.5638 152.185 75.5259 151.356C75.6634 151.356 75.6634 151.218 75.8009 151.218C75.9383 151.079 76.0758 150.941 76.2132 150.665C76.763 149.559 76.3507 148.176 75.1136 147.623C74.9761 147.623 74.9761 147.485 74.8387 147.485L74.4263 145.549C75.6634 146.379 77.1754 146.655 78.6874 146.517H78.8248C79.6495 147.485 81.024 147.623 81.9862 146.794C82.1237 146.794 82.1237 146.655 82.1237 146.655C82.2611 146.517 82.3986 146.379 82.536 146.102C83.0858 144.996 82.6735 143.614 81.5739 143.061C81.1615 142.646 80.6117 142.508 80.1993 142.646ZM72.2271 139.743C72.6394 139.605 73.0518 139.881 73.1893 140.434C73.3267 140.849 73.0518 141.264 72.502 141.402C72.0896 141.54 71.6773 141.264 71.5398 140.711C71.5398 140.296 71.8147 139.881 72.2271 139.743ZM74.4263 150.25C74.1514 150.526 73.6016 150.388 73.3267 150.112C73.0518 149.835 73.1893 149.282 73.4642 149.006C73.4642 149.006 73.6016 148.867 73.7391 148.867C73.8765 148.729 74.1514 148.867 74.2889 148.867C74.7012 149.144 74.8387 149.559 74.5638 149.973C74.7012 150.112 74.5638 150.112 74.4263 150.25ZM80.6117 145.688C80.1993 145.688 79.9244 145.273 79.9244 144.858C79.9244 144.582 80.1993 144.305 80.4742 144.167C80.6117 144.167 80.8866 144.167 81.024 144.167C81.4364 144.305 81.5739 144.858 81.4364 145.273C81.1615 145.549 80.8866 145.688 80.6117 145.688Z" fill="#D6DCE8"/>
<defs>
<filter id="filter0_d_8012_13567" x="4.45508" y="29.8943" width="169.22" height="134.968" filterUnits="userSpaceOnUse" color-interpolation-filters="sRGB">
<feFlood flood-opacity="0" result="BackgroundImageFix"/>
<feColorMatrix in="SourceAlpha" type="matrix" values="0 0 0 0 0 0 0 0 0 0 0 0 0 0 0 0 0 0 127 0" result="hardAlpha"/>
<feOffset dy="11"/>
<feGaussianBlur stdDeviation="11"/>
<feColorMatrix type="matrix" values="0 0 0 0 0.397708 0 0 0 0 0.47749 0 0 0 0 0.575 0 0 0 0.27 0"/>
<feBlend mode="normal" in2="BackgroundImageFix" result="effect1_dropShadow_8012_13567"/>
<feBlend mode="normal" in="SourceGraphic" in2="effect1_dropShadow_8012_13567" result="shape"/>
</filter>
<linearGradient id="paint0_linear_8012_13567" x1="89.0239" y1="38.7901" x2="89.0239" y2="132.843" gradientUnits="userSpaceOnUse">
<stop stop-color="#FDFEFF"/>
<stop offset="0.9964" stop-color="#ECF0F5"/>
</linearGradient>
<linearGradient id="paint1_linear_8012_13567" x1="114.875" y1="123.181" x2="165.541" y2="123.181" gradientUnits="userSpaceOnUse">
<stop stop-color="#B0BACC"/>
<stop offset="1" stop-color="#969EAE"/>
</linearGradient>
</defs>
</svg>
