<svg width="14" height="14" viewBox="0 0 14 14" fill="none" xmlns="http://www.w3.org/2000/svg">
<path fill-rule="evenodd" clip-rule="evenodd" d="M4.11325 13.6672H9.89325C12.1533 13.6672 13.6666 12.0806 13.6666 9.72057V4.27324C13.6666 1.9199 12.1533 0.333904 9.89325 0.333904H4.11325C1.85325 0.333904 0.333252 1.9199 0.333252 4.27324V9.72057C0.333252 12.0806 1.85325 13.6672 4.11325 13.6672ZM6.99325 8.9599C6.67992 8.9599 6.41992 9.22057 6.41992 9.5399C6.41992 9.86657 6.67992 10.1266 7.00659 10.1266C7.32659 10.1266 7.58659 9.86657 7.58659 9.5399C7.58659 9.22057 7.32659 8.9599 6.99325 8.9599ZM7.57992 4.4799C7.57992 4.1599 7.31992 3.8999 6.99325 3.8999C6.67325 3.8999 6.41325 4.1599 6.41325 4.4799V7.42657C6.41325 7.74724 6.67325 8.01324 6.99325 8.01324C7.31992 8.01324 7.57992 7.74724 7.57992 7.42657V4.4799Z" fill="#FFA043"/>
</svg>
