<svg width="213" height="173" viewBox="0 0 213 173" fill="none" xmlns="http://www.w3.org/2000/svg">
<path d="M88.7476 139.501C124.314 139.501 153.133 110.489 153.133 74.7301C153.133 38.9712 124.314 9.95922 88.7476 9.95922C53.1815 9.86284 24.3623 38.8748 24.3623 74.7301C24.3623 110.489 53.1815 139.501 88.7476 139.501Z" fill="#DADEE6"/>
<path d="M163.735 57.5735C165.759 55.7421 165.856 52.5614 164.024 50.5373C162.193 48.5132 159.109 48.4169 157.085 50.2482C155.061 52.0795 154.964 55.2602 156.796 57.2843C158.627 59.3084 161.711 59.5012 163.735 57.5735Z" fill="#EAEEF9"/>
<path d="M51.5425 15.4517C53.2774 14.8734 54.1449 13.0421 53.6629 11.3071C53.0846 9.5722 51.2533 8.70473 49.6148 9.18666C47.8798 9.76497 47.0124 11.5963 47.4943 13.3312C47.9762 15.0662 49.8075 16.03 51.5425 15.4517Z" fill="#EAEEF9"/>
<path d="M58.5794 4.84986C59.736 4.46432 60.4107 3.21131 60.0252 2.05469C59.6396 0.898067 58.3866 0.22337 57.23 0.608911C56.0734 0.994452 55.3987 2.24746 55.7842 3.40408C56.1697 4.5607 57.4228 5.2354 58.5794 4.84986Z" fill="#EAEEF9"/>
<path d="M164.025 35.5964C164.892 34.8254 164.892 33.476 164.121 32.6085C163.35 31.741 162.001 31.741 161.23 32.5121C160.362 33.2832 160.362 34.6326 161.133 35.5C161.904 36.2711 163.254 36.3675 164.025 35.5964Z" fill="#EAEEF9"/>
<path d="M111.783 5.04296C112.362 4.46465 112.362 3.59718 111.88 3.01887C111.301 2.44056 110.434 2.44056 109.856 2.92248C109.277 3.5008 109.181 4.36826 109.759 4.94657C110.337 5.52489 111.205 5.62127 111.783 5.04296Z" fill="#EAEEF9"/>
<g filter="url(#filter0_d_6728_14608)">
<path d="M144.459 121.959H34.4831C30.5313 121.959 27.3506 118.874 27.3506 115.019V36.4651C27.3506 32.6097 30.4349 29.5254 34.4831 29.5254H144.459C148.41 29.5254 151.591 32.6097 151.591 36.4651V115.019C151.398 118.874 148.314 121.959 144.459 121.959Z" fill="url(#paint0_linear_6728_14608)"/>
</g>
<path d="M151.688 36.4644V115.018C151.688 118.874 148.603 121.958 144.555 121.958H89.519V29.6211H144.555C148.603 29.6211 151.688 32.7054 151.688 36.4644Z" fill="#E8EBF4"/>
<g filter="url(#filter1_d_6728_14608)">
<path d="M183.407 18.886L157.893 28.2331C156.744 28.6928 155.978 29.7654 155.978 30.9913V120.479C155.978 121.705 156.744 122.777 157.893 123.237L183.33 132.737C184.326 133.121 185.322 132.354 185.322 131.358V20.265C185.399 19.269 184.326 18.5795 183.407 18.886Z" fill="url(#paint1_linear_6728_14608)"/>
</g>
<path d="M157.663 44.3223H148.699V49.2257H157.663V44.3223Z" fill="#C8CEDD"/>
<path d="M157.663 102.014H148.699V106.917H157.663V102.014Z" fill="#C8CEDD"/>
<path d="M55.7838 59.5974H38.3381C37.2778 59.5974 36.314 58.7299 36.314 57.9589C36.314 57.0914 37.1814 56.3203 38.3381 56.3203H55.7838C56.844 56.3203 57.8079 57.1878 57.8079 57.9589C57.8079 58.8263 56.844 59.5974 55.7838 59.5974Z" fill="#AAB2C5"/>
<path d="M51.6393 87.7419H38.5309C37.4707 87.7419 36.5068 86.8745 36.5068 86.1034C36.5068 85.2359 37.3743 84.4648 38.5309 84.4648H51.6393C52.6996 84.4648 53.6634 85.3323 53.6634 86.1034C53.4706 86.8745 52.5068 87.7419 51.6393 87.7419Z" fill="#AAB2C5"/>
<path d="M67.639 96.9939H45.4704C44.4101 96.9939 43.4463 96.1264 43.4463 95.3553C43.4463 94.4879 44.3138 93.7168 45.4704 93.7168H67.639C68.6992 93.7168 69.6631 94.5843 69.6631 95.3553C69.4703 96.3192 68.5064 96.9939 67.639 96.9939Z" fill="#D6DCE8"/>
<path d="M89.4224 93.6211V97.091H76.1213C75.061 97.091 74.0972 96.2235 74.0972 95.4524C74.0972 94.8741 74.2899 94.5849 74.8683 94.1994C75.2538 94.0066 75.6393 93.6211 76.314 93.6211H89.4224Z" fill="#D6DCE8"/>
<path d="M63.9765 106.15H38.3381C37.2778 106.15 36.314 105.283 36.314 104.512C36.314 103.644 37.1814 102.873 38.3381 102.873H63.9765C65.0368 102.873 66.0006 103.741 66.0006 104.512C66.0006 105.379 65.2295 106.15 63.9765 106.15Z" fill="#AAB2C5"/>
<path d="M49.8087 115.597H38.9172C37.8569 115.597 36.8931 114.73 36.8931 113.959C36.8931 113.091 37.7605 112.32 38.9172 112.32H49.8087C50.8689 112.32 51.8328 113.188 51.8328 113.959C51.8328 114.826 51.0617 115.597 49.8087 115.597Z" fill="#D6DCE8"/>
<path d="M59.0607 115.597H56.651C55.5908 115.597 54.627 114.73 54.627 113.959C54.627 113.091 55.4944 112.32 56.651 112.32H59.0607C60.1209 112.32 61.0848 113.188 61.0848 113.959C61.0848 114.826 60.1209 115.597 59.0607 115.597Z" fill="#D6DCE8"/>
<path d="M43.6392 78.6814H38.3381C37.2778 78.6814 36.314 77.8139 36.314 77.0428C36.314 76.1754 37.1814 75.4043 38.3381 75.4043H43.6392C44.6995 75.4043 45.6633 76.2718 45.6633 77.0428C45.5669 77.9103 44.6995 78.6814 43.6392 78.6814Z" fill="#D6DCE8"/>
<path d="M63.9765 69.0427H38.3381C37.2778 69.0427 36.314 68.1753 36.314 67.4042C36.314 66.5367 37.1814 65.7656 38.3381 65.7656H63.9765C65.0368 65.7656 66.0006 66.6331 66.0006 67.4042C66.0006 68.2716 65.2295 69.0427 63.9765 69.0427Z" fill="#D6DCE8"/>
<path d="M89.4223 65.5723V69.0421H72.5548C71.4946 69.0421 70.5308 68.1747 70.5308 67.4036C70.5308 66.8253 70.7235 66.5361 71.3018 66.1506C71.4946 65.765 72.0729 65.5723 72.7476 65.5723H89.4223Z" fill="#AAB2C5"/>
<path d="M127.895 86.1322C125.814 84.9556 126.357 82.9644 126.176 80.5206C125.904 76.1762 133.145 76.9003 131.063 72.1033C128.981 67.3063 128.257 63.7765 124.818 64.7721C122.555 65.4056 120.745 66.2202 119.116 64.5006C117.487 62.7809 115.586 61.7853 116.129 59.5226C117.487 53.4585 116.853 54.092 109.16 51.1052C104.363 49.2046 105.268 56.4453 101.014 56.3548C98.5704 56.2642 96.6697 56.8978 95.4026 54.9066C93.0494 51.1958 92.5063 50.5622 89.5195 51.7388V78.8915C89.61 78.7104 89.61 78.5294 89.7005 78.3484C91.9633 72.5558 98.5704 69.6596 104.363 71.9223C110.156 74.185 113.052 80.7921 110.789 86.5847C108.526 92.3773 101.919 95.2736 96.1267 93.0108C92.8684 91.7437 90.5151 89.119 89.5195 86.0417V113.104C90.0626 113.285 90.6056 113.466 91.2392 113.737C96.0362 115.638 95.1311 108.307 99.385 108.488C104.363 108.578 103.729 107.764 106.354 112.108C108.345 115.276 111.785 112.742 115.948 110.932C120.655 108.85 114.953 104.324 118.03 101.428C118.663 100.795 119.297 100.161 119.84 99.5275C121.379 97.7173 123.189 98.5319 125.542 99.0749C128.981 99.8895 129.615 96.2692 131.516 91.4722C132.602 88.4854 130.068 87.3993 127.895 86.1322Z" fill="#6557FF"/>
<path d="M140.557 51.284C140.478 49.5444 140.635 48.3584 139.457 48.2002C138.671 48.1211 138.042 48.2002 137.728 47.4886C137.413 46.777 136.942 46.2235 137.413 45.5909C138.592 43.8514 138.278 44.0095 136.234 42.1118C134.977 40.9258 134.427 43.3769 133.091 42.8234C132.383 42.5072 131.676 42.5072 131.519 41.7165C131.126 39.6606 131.047 39.9769 128.218 40.1351C127.196 40.2141 127.196 41.0048 127.118 41.9537C127.039 42.7444 126.332 42.8234 125.624 43.2188C124.367 43.9304 123.581 41.5583 122.402 42.9025C121.852 43.456 121.302 44.0886 120.83 44.7211C120.437 45.67 121.302 45.9072 121.695 46.6979V46.777C121.695 46.777 121.695 46.777 121.695 46.856C121.773 47.0932 121.773 47.3304 121.616 47.5677C121.616 47.6467 121.459 47.8839 121.459 47.963C121.223 48.5956 121.223 48.9909 120.516 49.1491C118.551 49.5444 118.787 49.6235 118.944 52.47C119.023 54.2096 121.145 52.9444 121.695 54.2095C121.93 54.763 122.402 55.3956 122.166 55.87C122.009 56.2654 121.537 56.6607 121.459 57.2142C121.223 58.084 122.245 58.7165 123.267 59.5863C124.524 60.7724 125.074 58.3212 126.41 58.8747C127.982 59.5073 127.825 59.191 128.139 60.8514C128.375 62.0375 129.79 61.7212 131.283 61.6421C133.012 61.5631 131.755 59.4282 133.012 58.8747C133.248 58.7956 133.562 58.6375 133.798 58.4793C134.505 58.084 134.977 58.5584 135.606 59.0328C136.627 59.6654 137.177 58.6375 138.356 57.3724C139.064 56.5817 138.356 55.9491 137.806 55.3165C137.256 54.684 137.728 54.1305 137.885 53.3398C138.513 51.9956 140.714 53.0235 140.557 51.284ZM132.54 53.4188C131.126 55.0003 128.768 55.1584 127.196 53.7351C125.624 52.3119 125.467 49.9398 126.882 48.3584C128.296 46.777 130.654 46.6188 132.226 48.0421C133.798 49.4653 133.955 51.8374 132.54 53.4188Z" fill="#6557FF"/>
<path opacity="0.15" d="M94.7238 29.6211H89.519V121.958H94.7238V29.6211Z" fill="#AAB2C5"/>
<defs>
<filter id="filter0_d_6728_14608" x="0.666759" y="16.1835" width="177.608" height="145.801" filterUnits="userSpaceOnUse" color-interpolation-filters="sRGB">
<feFlood flood-opacity="0" result="BackgroundImageFix"/>
<feColorMatrix in="SourceAlpha" type="matrix" values="0 0 0 0 0 0 0 0 0 0 0 0 0 0 0 0 0 0 127 0" result="hardAlpha"/>
<feOffset dy="13.3419"/>
<feGaussianBlur stdDeviation="13.3419"/>
<feColorMatrix type="matrix" values="0 0 0 0 0.397708 0 0 0 0 0.47749 0 0 0 0 0.575 0 0 0 0.27 0"/>
<feBlend mode="normal" in2="BackgroundImageFix" result="effect1_dropShadow_6728_14608"/>
<feBlend mode="normal" in="SourceGraphic" in2="effect1_dropShadow_6728_14608" result="shape"/>
</filter>
<filter id="filter1_d_6728_14608" x="129.294" y="5.47059" width="82.7153" height="167.393" filterUnits="userSpaceOnUse" color-interpolation-filters="sRGB">
<feFlood flood-opacity="0" result="BackgroundImageFix"/>
<feColorMatrix in="SourceAlpha" type="matrix" values="0 0 0 0 0 0 0 0 0 0 0 0 0 0 0 0 0 0 127 0" result="hardAlpha"/>
<feOffset dy="13.3419"/>
<feGaussianBlur stdDeviation="13.3419"/>
<feColorMatrix type="matrix" values="0 0 0 0 0.397708 0 0 0 0 0.47749 0 0 0 0 0.575 0 0 0 0.27 0"/>
<feBlend mode="normal" in2="BackgroundImageFix" result="effect1_dropShadow_6728_14608"/>
<feBlend mode="normal" in="SourceGraphic" in2="effect1_dropShadow_6728_14608" result="shape"/>
</filter>
<linearGradient id="paint0_linear_6728_14608" x1="89.4304" y1="27.3873" x2="89.4304" y2="122.955" gradientUnits="userSpaceOnUse">
<stop stop-color="#FDFEFF"/>
<stop offset="0.9964" stop-color="#ECF0F5"/>
</linearGradient>
<linearGradient id="paint1_linear_6728_14608" x1="170.642" y1="16.175" x2="170.642" y2="134.067" gradientUnits="userSpaceOnUse">
<stop stop-color="#FDFEFF"/>
<stop offset="0.9964" stop-color="#ECF0F5"/>
</linearGradient>
</defs>
</svg>
