<svg width="18" height="18" viewBox="0 0 18 18" fill="none" xmlns="http://www.w3.org/2000/svg">
<path fill-rule="evenodd" clip-rule="evenodd" d="M15.5915 7.1079C15.5464 6.59733 15.4488 6.17686 15.2461 5.77141C15.1935 5.6663 15.1335 5.56869 15.0734 5.47108C14.8256 5.08815 14.5103 4.79533 14.0898 4.5025C13.6844 4.21719 13.1588 3.91685 12.4981 3.53393L12.4605 3.5114C11.7998 3.12848 11.2742 2.82814 10.8237 2.61791C10.3582 2.40017 9.94522 2.27253 9.49472 2.25C9.37458 2.25 9.26196 2.25 9.14182 2.25C8.69132 2.27253 8.27836 2.40017 7.81285 2.61791C7.36235 2.82814 6.83676 3.12848 6.17603 3.5114L6.13849 3.53393C5.47775 3.91685 4.95217 4.21719 4.54672 4.5025C4.12625 4.79533 3.8109 5.08815 3.56313 5.47108C3.50306 5.56869 3.44299 5.6738 3.39043 5.77141C3.18771 6.17686 3.0901 6.59733 3.04505 7.1079C3 7.60345 3 8.21162 3 8.97747V9.02252C3 9.78838 3 10.3966 3.04505 10.8921C3.0901 11.4027 3.18771 11.8231 3.39043 12.2286C3.44299 12.3337 3.50306 12.4313 3.56313 12.5289C3.8109 12.9118 4.12625 13.2047 4.54672 13.4975C4.95217 13.7828 5.47775 14.0831 6.13849 14.4661L6.17603 14.4886C6.83676 14.8715 7.36235 15.1719 7.81285 15.3821C8.27836 15.5998 8.69132 15.7275 9.14182 15.75C9.26196 15.75 9.37458 15.75 9.49472 15.75C9.94522 15.7275 10.3582 15.5998 10.8237 15.3821C11.2742 15.1719 11.7998 14.8715 12.4605 14.4886L12.4981 14.4661C13.1588 14.0831 13.6844 13.7828 14.0898 13.4975C14.5103 13.2047 14.8256 12.9118 15.0734 12.5289C15.1335 12.4313 15.1935 12.3262 15.2461 12.2286C15.4488 11.8231 15.5464 11.4027 15.5915 10.8921C15.6365 10.3966 15.6365 9.78838 15.6365 9.02252V8.97747C15.6365 8.21162 15.6365 7.60345 15.5915 7.1079ZM12.3554 9.66073C10.8687 10.1563 10.4633 10.5617 9.96774 12.0484C9.75 12.6941 8.85651 12.6941 8.63877 12.0484C8.14321 10.5617 7.73776 10.1563 6.25111 9.66073C5.92825 9.55562 5.76307 9.27781 5.76307 9C5.76307 8.72219 5.92825 8.44438 6.25111 8.33927C7.73776 7.84372 8.14321 7.43826 8.63877 5.95161C8.85651 5.3059 9.75 5.3059 9.96774 5.95161C10.4633 7.43826 10.8687 7.84372 12.3554 8.33927C13.0011 8.55701 13.0011 9.4505 12.3554 9.66824V9.66073Z" fill="white"/>
</svg>
