<svg xmlns="http://www.w3.org/2000/svg" width="9" height="9" viewBox="0 0 9 9" fill="none">
    <g clip-path="url(#clip0_7636_20238)">
        <path fill-rule="evenodd" clip-rule="evenodd" d="M5.7718 3.49602L5.86883 3.66734C5.93761 3.78879 5.972 3.84952 5.96533 3.91416C5.95865 3.9788 5.91261 4.0309 5.82053 4.13509L5.61784 4.36563C5.56831 4.42943 5.53314 4.54062 5.53314 4.64059C5.53314 4.74063 5.5683 4.85179 5.61784 4.9156L5.82053 5.14615C5.91261 5.25033 5.95865 5.30243 5.96533 5.36707C5.972 5.43172 5.93761 5.49244 5.86883 5.61389L5.7718 5.78521C5.69842 5.91477 5.66172 5.97956 5.59929 6.00539C5.53686 6.03123 5.46626 6.01084 5.32504 5.97007L5.08518 5.90133C4.99501 5.88017 4.90041 5.89218 4.81808 5.93522L4.75187 5.9741C4.68129 6.0201 4.62701 6.08791 4.59696 6.16762L4.53131 6.36712C4.48814 6.49912 4.46656 6.56512 4.41518 6.60287C4.3638 6.64062 4.29555 6.64062 4.15905 6.64062H3.93991C3.80341 6.64062 3.73516 6.64062 3.68378 6.60287C3.6324 6.56512 3.61082 6.49912 3.56765 6.36712L3.502 6.16762C3.47195 6.08791 3.41767 6.0201 3.34709 5.9741L3.28088 5.93522C3.19855 5.89218 3.10395 5.88017 3.01378 5.90133L2.77391 5.97007C2.6327 6.01084 2.5621 6.03123 2.49967 6.00539C2.43724 5.97956 2.40054 5.91477 2.32716 5.78521L2.32716 5.78521L2.32716 5.78521L2.23013 5.61389C2.16135 5.49244 2.12695 5.43172 2.13363 5.36707C2.14031 5.30243 2.18635 5.25033 2.27843 5.14615L2.48112 4.9156C2.53066 4.85179 2.56582 4.74063 2.56582 4.64059C2.56582 4.54062 2.53065 4.42943 2.48111 4.36563L2.27843 4.13509C2.18635 4.0309 2.1403 3.9788 2.13363 3.91416C2.12695 3.84952 2.16135 3.78879 2.23013 3.66734L2.32716 3.49602C2.40055 3.36646 2.43724 3.30167 2.49967 3.27584C2.56209 3.25001 2.6327 3.27039 2.77391 3.31116L3.01379 3.3799C3.10394 3.40105 3.19852 3.38905 3.28084 3.34602L3.34707 3.30715C3.41765 3.26115 3.47195 3.19333 3.502 3.11361L3.56765 2.91413C3.61082 2.78213 3.6324 2.71613 3.68378 2.67838C3.73516 2.64062 3.80341 2.64062 3.93991 2.64062H4.15905C4.29555 2.64062 4.3638 2.64062 4.41518 2.67838C4.46656 2.71613 4.48814 2.78213 4.53131 2.91413L4.59696 3.11361C4.62701 3.19333 4.6813 3.26115 4.75189 3.30715L4.81812 3.34602C4.90044 3.38905 4.99502 3.40105 5.08517 3.3799L5.32505 3.31116C5.46626 3.27039 5.53686 3.25001 5.59929 3.27584C5.66172 3.30167 5.69841 3.36646 5.7718 3.49602ZM4.04944 5.22396C4.3716 5.22396 4.63277 4.96279 4.63277 4.64062C4.63277 4.31846 4.3716 4.05729 4.04944 4.05729C3.72727 4.05729 3.46611 4.31846 3.46611 4.64062C3.46611 4.96279 3.72727 5.22396 4.04944 5.22396Z" fill="#6557FF"/>
        <path d="M4.04915 1.70816C2.42996 1.70816 1.11734 3.02078 1.11734 4.63997C1.11734 5.05754 1.20443 5.45391 1.36115 5.81258C1.43318 5.97744 1.35792 6.16948 1.19306 6.24151C1.0282 6.31354 0.836159 6.23829 0.764128 6.07343C0.572153 5.63404 0.46582 5.149 0.46582 4.63997C0.46582 2.66095 2.07013 1.05664 4.04915 1.05664C4.66873 1.05664 5.25181 1.21406 5.76029 1.4909L6.10141 1.14978C6.16017 1.09216 6.24067 1.05664 6.32946 1.05664C6.50937 1.05664 6.65521 1.20249 6.65521 1.3824V2.3136C6.65521 2.44477 6.57654 2.56314 6.45561 2.61394C6.33468 2.66473 6.19508 2.63804 6.10141 2.54622C5.57225 2.02748 4.84832 1.70816 4.04915 1.70816Z" fill="#6557FF"/>
        <path d="M6.90525 3.03843C7.07011 2.9664 7.26215 3.04166 7.33418 3.20652C7.52615 3.6459 7.63249 4.13095 7.63249 4.63997C7.63249 6.61899 6.02817 8.22331 4.04915 8.22331C3.42957 8.22331 2.8465 8.06589 2.33802 7.78905L1.9969 8.13017C1.93814 8.18778 1.85764 8.22331 1.76885 8.22331C1.58894 8.22331 1.44309 8.07746 1.44309 7.89755V6.96635C1.44309 6.83518 1.52176 6.71681 1.64269 6.66601C1.76363 6.61522 1.90323 6.6419 1.9969 6.73373C2.52606 7.25247 3.24999 7.57179 4.04915 7.57179C5.66835 7.57179 6.98097 6.25917 6.98097 4.63997C6.98097 4.22241 6.89387 3.82604 6.73716 3.46737C6.66513 3.30251 6.74039 3.11047 6.90525 3.03843Z" fill="#6557FF"/>
    </g>
    <defs>
        <clipPath id="clip0_7636_20238">
            <rect width="8" height="8" fill="white" transform="translate(0.0488281 0.639648)"/>
        </clipPath>
    </defs>
</svg>
