<svg width="48" height="48" viewBox="0 0 48 48" fill="none" xmlns="http://www.w3.org/2000/svg">
<rect width="48" height="48" rx="24" fill="#6557FF" fill-opacity="0.1"/>
<path d="M32.3142 17.7938C30.8383 17.6472 29.3625 17.5372 27.8775 17.4547V17.4455L27.6758 16.2538C27.5383 15.4105 27.3367 14.1455 25.1917 14.1455H22.79C20.6542 14.1455 20.4525 15.3555 20.3058 16.2447L20.1133 17.418C19.2608 17.473 18.4083 17.528 17.5558 17.6105L15.6858 17.7938C15.3008 17.8305 15.0258 18.1697 15.0625 18.5455C15.0992 18.9213 15.4292 19.1963 15.8142 19.1597L17.6842 18.9763C22.4875 18.4997 27.3275 18.683 32.1858 19.1688C32.2133 19.1688 32.2317 19.1688 32.2592 19.1688C32.6075 19.1688 32.91 18.903 32.9467 18.5455C32.9742 18.1697 32.6992 17.8305 32.3142 17.7938Z" fill="#6557FF"/>
<path d="M30.6275 20.462C30.4075 20.2328 30.105 20.1045 29.7933 20.1045H18.2067C17.895 20.1045 17.5833 20.2328 17.3725 20.462C17.1617 20.6912 17.0425 21.0028 17.0608 21.3237L17.6292 30.7287C17.73 32.122 17.8583 33.8637 21.0575 33.8637H26.9425C30.1417 33.8637 30.27 32.1312 30.3708 30.7287L30.9392 21.3328C30.9575 21.0028 30.8383 20.6912 30.6275 20.462ZM25.5217 29.2712H22.4692C22.0933 29.2712 21.7817 28.9595 21.7817 28.5837C21.7817 28.2078 22.0933 27.8962 22.4692 27.8962H25.5217C25.8975 27.8962 26.2092 28.2078 26.2092 28.5837C26.2092 28.9595 25.8975 29.2712 25.5217 29.2712ZM26.2917 25.6045H21.7083C21.3325 25.6045 21.0208 25.2928 21.0208 24.917C21.0208 24.5412 21.3325 24.2295 21.7083 24.2295H26.2917C26.6675 24.2295 26.9792 24.5412 26.9792 24.917C26.9792 25.2928 26.6675 25.6045 26.2917 25.6045Z" fill="#6557FF"/>
</svg>
