<svg width="16" height="16" viewBox="0 0 16 16" fill="none" xmlns="http://www.w3.org/2000/svg">
<path fill-rule="evenodd" clip-rule="evenodd" d="M0.833374 7.99967C0.833374 4.04163 4.042 0.833008 8.00004 0.833008C11.9581 0.833008 15.1667 4.04163 15.1667 7.99967C15.1667 11.9577 11.9581 15.1663 8.00004 15.1663C4.042 15.1663 0.833374 11.9577 0.833374 7.99967ZM8.00004 5.66634C7.63185 5.66634 7.33337 5.96482 7.33337 6.33301C7.33337 6.7012 7.0349 6.99967 6.66671 6.99967C6.29852 6.99967 6.00004 6.7012 6.00004 6.33301C6.00004 5.22844 6.89547 4.33301 8.00004 4.33301C9.10461 4.33301 10 5.22844 10 6.33301C10 6.73016 9.88359 7.10215 9.68274 7.41428C9.56224 7.60156 9.42251 7.77861 9.29809 7.93324L9.22997 8.01768C9.127 8.14514 9.03549 8.25841 8.95072 8.37492C8.74 8.66453 8.66671 8.85102 8.66671 8.99967C8.66671 9.36786 8.36823 9.66634 8.00004 9.66634C7.63185 9.66634 7.33337 9.36786 7.33337 8.99967C7.33337 8.41195 7.62188 7.935 7.87258 7.59045C7.97915 7.44399 8.09613 7.2993 8.19955 7.17138L8.25928 7.09738C8.38261 6.94412 8.48276 6.81514 8.56149 6.69279C8.62803 6.58937 8.66671 6.46672 8.66671 6.33301C8.66671 5.96482 8.36823 5.66634 8.00004 5.66634ZM7.99706 10.333C7.63052 10.333 7.33337 10.6315 7.33337 10.9997C7.33337 11.3679 7.63052 11.6663 7.99706 11.6663H8.00302C8.36957 11.6663 8.66671 11.3679 8.66671 10.9997C8.66671 10.6315 8.36957 10.333 8.00302 10.333H7.99706Z" fill="#6557FF"/>
</svg>
