<svg width="24" height="24" viewBox="0 0 24 24" fill="none" xmlns="http://www.w3.org/2000/svg">
<rect width="24" height="24" rx="4" fill="#6557FF"/>
<path d="M16.6667 11.3334H12.6667V7.33335C12.6667 7.15654 12.5964 6.98697 12.4714 6.86195C12.3464 6.73693 12.1768 6.66669 12 6.66669C11.8232 6.66669 11.6536 6.73693 11.5286 6.86195C11.4036 6.98697 11.3334 7.15654 11.3334 7.33335V11.3334H7.33335C7.15654 11.3334 6.98697 11.4036 6.86195 11.5286C6.73693 11.6536 6.66669 11.8232 6.66669 12C6.66669 12.1768 6.73693 12.3464 6.86195 12.4714C6.98697 12.5964 7.15654 12.6667 7.33335 12.6667H11.3334V16.6667C11.3334 16.8435 11.4036 17.0131 11.5286 17.1381C11.6536 17.2631 11.8232 17.3334 12 17.3334C12.1768 17.3334 12.3464 17.2631 12.4714 17.1381C12.5964 17.0131 12.6667 16.8435 12.6667 16.6667V12.6667H16.6667C16.8435 12.6667 17.0131 12.5964 17.1381 12.4714C17.2631 12.3464 17.3334 12.1768 17.3334 12C17.3334 11.8232 17.2631 11.6536 17.1381 11.5286C17.0131 11.4036 16.8435 11.3334 16.6667 11.3334Z" fill="white"/>
</svg>
