<svg width="16" height="16" viewBox="0 0 16 16" fill="none" xmlns="http://www.w3.org/2000/svg">
<path d="M4.60621 4.48497H4.69106C5.40385 4.48497 5.76025 4.48497 6.0325 4.62369C6.27198 4.74571 6.46668 4.94042 6.5887 5.17989C6.72742 5.45215 6.72742 5.80854 6.72742 6.52134L6.72742 9.23649C6.72742 9.94928 6.72742 10.3057 6.5887 10.5779C6.46668 10.8174 6.27198 11.0121 6.0325 11.1341C5.76025 11.2729 5.40385 11.2729 4.69106 11.2729H4.60621M4.60621 4.48497C4.60621 4.01637 4.22633 3.63649 3.75772 3.63649C3.28912 3.63649 2.90924 4.01637 2.90924 4.48497C2.90924 4.95358 3.28912 5.33346 3.75772 5.33346C4.22633 5.33346 4.60621 4.95358 4.60621 4.48497ZM4.60621 11.2729C4.60621 10.8042 4.22633 10.4244 3.75772 10.4244C3.28912 10.4244 2.90924 10.8042 2.90924 11.2729C2.90924 11.7415 3.28912 12.1213 3.75772 12.1213C4.22633 12.1213 4.60621 11.7415 4.60621 11.2729ZM8.84863 7.87891L4.60621 7.87891M4.60621 7.87891C4.60621 7.41031 4.22633 7.03043 3.75772 7.03043C3.28912 7.03043 2.90924 7.41031 2.90924 7.87891C2.90924 8.34752 3.28912 8.7274 3.75772 8.7274C4.22633 8.7274 4.60621 8.34752 4.60621 7.87891Z" stroke="#F7685B" stroke-width="0.885375" stroke-linecap="round" stroke-linejoin="round"/>
<path d="M4.60621 4.48497H4.69106C5.40385 4.48497 5.76025 4.48497 6.0325 4.62369C6.27198 4.74571 6.46668 4.94042 6.5887 5.17989C6.72742 5.45215 6.72742 5.80854 6.72742 6.52134L6.72742 9.23649C6.72742 9.94928 6.72742 10.3057 6.5887 10.5779C6.46668 10.8174 6.27198 11.0121 6.0325 11.1341C5.76025 11.2729 5.40385 11.2729 4.69106 11.2729H4.60621M4.60621 4.48497C4.60621 4.01637 4.22633 3.63649 3.75772 3.63649C3.28912 3.63649 2.90924 4.01637 2.90924 4.48497C2.90924 4.95358 3.28912 5.33346 3.75772 5.33346C4.22633 5.33346 4.60621 4.95358 4.60621 4.48497ZM4.60621 11.2729C4.60621 10.8042 4.22633 10.4244 3.75772 10.4244C3.28912 10.4244 2.90924 10.8042 2.90924 11.2729C2.90924 11.7415 3.28912 12.1213 3.75772 12.1213C4.22633 12.1213 4.60621 11.7415 4.60621 11.2729ZM8.84863 7.87891L4.60621 7.87891M4.60621 7.87891C4.60621 7.41031 4.22633 7.03043 3.75772 7.03043C3.28912 7.03043 2.90924 7.41031 2.90924 7.87891C2.90924 8.34752 3.28912 8.7274 3.75772 8.7274C4.22633 8.7274 4.60621 8.34752 4.60621 7.87891Z" stroke="#F7685B" stroke-width="0.885375" stroke-linecap="round" stroke-linejoin="round"/>
<path d="M11.5154 4.48497H11.4305C10.7177 4.48497 10.3613 4.48497 10.0891 4.62369C9.8496 4.74571 9.6549 4.94042 9.53288 5.17989C9.39416 5.45215 9.39416 5.80854 9.39416 6.52134V9.23649C9.39416 9.94928 9.39416 10.3057 9.53288 10.5779C9.6549 10.8174 9.8496 11.0121 10.0891 11.1341C10.3613 11.2729 10.7177 11.2729 11.4305 11.2729H11.5154M11.5154 4.48497C11.5154 4.01637 11.8953 3.63649 12.3639 3.63649C12.8325 3.63649 13.2123 4.01637 13.2123 4.48497C13.2123 4.95358 12.8325 5.33346 12.3639 5.33346C11.8953 5.33346 11.5154 4.95358 11.5154 4.48497ZM11.5154 11.2729C11.5154 10.8042 11.8953 10.4244 12.3639 10.4244C12.8325 10.4244 13.2123 10.8042 13.2123 11.2729C13.2123 11.7415 12.8325 12.1213 12.3639 12.1213C11.8953 12.1213 11.5154 11.7415 11.5154 11.2729ZM7.27295 7.87891L11.5154 7.87891M11.5154 7.87891C11.5154 7.41031 11.8953 7.03043 12.3639 7.03043C12.8325 7.03043 13.2123 7.41031 13.2123 7.87891C13.2123 8.34752 12.8325 8.7274 12.3639 8.7274C11.8953 8.7274 11.5154 8.34752 11.5154 7.87891Z" stroke="#F7685B" stroke-width="0.885375" stroke-linecap="round" stroke-linejoin="round"/>
</svg>
