<svg width="18" height="20" viewBox="0 0 18 20" fill="none" xmlns="http://www.w3.org/2000/svg">
<path fill-rule="evenodd" clip-rule="evenodd" d="M16.2015 2.32867C16.9463 2.57382 17.4496 3.26122 17.4496 4.02608L17.4999 10.6637C17.51 12.674 16.7752 14.6253 15.4265 16.1561C14.8126 16.8621 14.0175 17.4603 13.011 17.9996L9.43797 19.9117C9.32725 19.9706 9.20647 20 9.0857 20C8.96492 20 8.83407 19.9706 8.72336 19.9117L5.12015 18.0486C4.1036 17.5191 3.30848 16.9307 2.68446 16.2345C1.31564 14.7244 0.550717 12.773 0.540652 10.7628L0.500392 4.12316C0.490328 3.3583 0.993569 2.67286 1.7283 2.41693L8.3409 0.103698C8.73343 -0.034566 9.16621 -0.034566 9.56881 0.103698L16.2015 2.32867ZM11.4207 12.0866C11.7126 11.8022 11.7126 11.3315 11.4207 11.0472L10.062 9.72237L11.4207 8.39954C11.7126 8.11517 11.7126 7.65429 11.4207 7.35913C11.1289 7.07476 10.6457 7.07476 10.3539 7.35913L8.99511 8.68392L7.63636 7.35913C7.34448 7.07476 6.87143 7.07476 6.56949 7.35913C6.27761 7.65429 6.27761 8.11517 6.56949 8.39954L7.92824 9.72237L6.56949 11.0472C6.27761 11.3315 6.27761 11.8022 6.56949 12.0866C6.72046 12.2337 6.91169 12.3013 7.10292 12.3013C7.30422 12.3013 7.49545 12.2337 7.63636 12.0866L8.99511 10.7628L10.3539 12.0866C10.5048 12.2337 10.6961 12.3013 10.8873 12.3013C11.0785 12.3013 11.2798 12.2337 11.4207 12.0866Z" fill="#E54F4F"/>
</svg>
