<svg width="31" height="31" viewBox="0 0 31 31" fill="none" xmlns="http://www.w3.org/2000/svg">
<circle opacity="0.12" cx="15.5" cy="15.5" r="15.5" fill="#6557FF"/>
<g clip-path="url(#clip0_8154_3374)">
<path d="M16.8955 19.084C16.8955 17.8759 17.8749 16.8965 19.083 16.8965C20.2911 16.8965 21.2705 17.8759 21.2705 19.084C21.2705 20.2921 20.2911 21.2715 19.083 21.2715C17.8749 21.2715 16.8955 20.2921 16.8955 19.084Z" fill="#6557FF"/>
<path d="M16.8955 10.917C16.8955 9.70887 17.8749 8.72949 19.083 8.72949C20.2911 8.72949 21.2705 9.70887 21.2705 10.917C21.2705 12.1251 20.2911 13.1045 19.083 13.1045C17.8749 13.1045 16.8955 12.1251 16.8955 10.917Z" fill="#6557FF"/>
<path fill-rule="evenodd" clip-rule="evenodd" d="M15.1705 10.5048C15.2799 10.3954 15.4283 10.334 15.583 10.334L17.333 10.334L17.333 11.5007L16.1663 11.5007V18.5007H17.333V19.6673H15.583C15.2608 19.6673 14.9997 19.4062 14.9997 19.084V15.584H13.833V14.4173H14.9997V10.9173C14.9997 10.7626 15.0611 10.6142 15.1705 10.5048Z" fill="#6557FF"/>
<path d="M8.72852 15.0003C8.72852 13.47 9.96906 12.2295 11.4993 12.2295C13.0296 12.2295 14.2702 13.47 14.2702 15.0003C14.2702 16.5306 13.0296 17.7712 11.4993 17.7712C9.96906 17.7712 8.72852 16.5306 8.72852 15.0003Z" fill="#6557FF"/>
</g>
<defs>
<clipPath id="clip0_8154_3374">
<rect width="14" height="14" fill="white" transform="translate(8 8)"/>
</clipPath>
</defs>
</svg>
