<svg width="15" height="15" viewBox="0 0 15 15" fill="none" xmlns="http://www.w3.org/2000/svg">
<path opacity="0.3" fill-rule="evenodd" clip-rule="evenodd" d="M4.3469 0.199308C4.0828 -0.11544 3.57286 0.00503 3.47753 0.404692L2.85398 3.01882C2.77631 3.34447 3.03438 3.65297 3.36863 3.63403L6.05781 3.48164C6.46872 3.45835 6.6771 2.97633 6.41255 2.66105L5.83244 1.9697C6.41487 1.77068 7.03247 1.66673 7.66663 1.66673C10.7962 1.66673 13.3333 4.20378 13.3333 7.33339C13.3333 10.463 10.7962 13.0001 7.66663 13.0001C4.53701 13.0001 1.99996 10.463 1.99996 7.33339C1.99996 6.80801 2.07111 6.29344 2.20983 5.79887L0.926048 5.43876C0.757022 6.04135 0.666626 6.67682 0.666626 7.33339C0.666626 11.1994 3.80063 14.3334 7.66663 14.3334C11.5326 14.3334 14.6666 11.1994 14.6666 7.33339C14.6666 3.4674 11.5326 0.333393 7.66663 0.333393C6.69419 0.333393 5.76807 0.531682 4.92649 0.890032L4.3469 0.199308Z" fill="#00A5FF"/>
</svg>
