<svg width="12" height="13" viewBox="0 0 12 13" fill="none" xmlns="http://www.w3.org/2000/svg">
<path d="M6 0.5C4.40845 0.5 2.88282 1.13208 1.75708 2.25708C0.632079 3.3828 0 4.9085 0 6.5C0 8.0915 0.632079 9.61718 1.75708 10.7429C2.8828 11.8679 4.4085 12.5 6 12.5C7.5915 12.5 9.11718 11.8679 10.2429 10.7429C11.3679 9.6172 12 8.0915 12 6.5C12 4.9085 11.3679 3.38282 10.2429 2.25708C9.1172 1.13208 7.5915 0.5 6 0.5ZM6 9.87497C5.69678 9.87497 5.42286 9.6926 5.30713 9.41207C5.19068 9.13155 5.25513 8.8093 5.46973 8.59469C5.68433 8.38008 6.0066 8.31563 6.28712 8.43209C6.56763 8.54781 6.75001 8.82173 6.75001 9.12496C6.75001 9.32417 6.67091 9.5146 6.53028 9.65522C6.38966 9.79585 6.19924 9.87495 6.00002 9.87495L6 9.87497ZM6.75 7.24998H5.25V3.12499H6.75V7.24998Z" fill="#FFC633"/>
</svg>
