<svg width="35" height="34" viewBox="0 0 35 34" fill="none" xmlns="http://www.w3.org/2000/svg">
<circle opacity="0.2" cx="17.8387" cy="17" r="17" fill="#FFC633"/>
<path d="M13.0241 13.124C12.9676 13.0537 12.8974 12.9955 12.8179 12.9529C12.7383 12.9103 12.651 12.8842 12.5611 12.8762C12.4713 12.8682 12.3807 12.8784 12.2948 12.9062C12.209 12.934 12.1297 12.9789 12.0616 13.0381L7.93659 16.4756C7.8592 16.5393 7.79687 16.6193 7.75407 16.71C7.71128 16.8006 7.68909 16.8996 7.68909 16.9998C7.68909 17.1001 7.71128 17.199 7.75407 17.2897C7.79687 17.3803 7.8592 17.4603 7.93659 17.524L12.0616 20.9615C12.1297 21.0208 12.209 21.0656 12.2948 21.0934C12.3807 21.1213 12.4713 21.1315 12.5611 21.1234C12.651 21.1154 12.7383 21.0893 12.8179 21.0467C12.8974 21.0042 12.9676 20.9459 13.0241 20.8756C13.0833 20.8075 13.1282 20.7282 13.156 20.6423C13.1838 20.5565 13.194 20.4659 13.186 20.3761C13.178 20.2862 13.1519 20.1989 13.1093 20.1193C13.0667 20.0397 13.0085 19.9696 12.9382 19.9131L9.44909 16.9998L12.9382 14.0865C13.0085 14.03 13.0667 13.9599 13.1093 13.8803C13.1519 13.8008 13.178 13.7135 13.186 13.6236C13.194 13.5337 13.1838 13.4431 13.156 13.3573C13.1282 13.2715 13.0833 13.1921 13.0241 13.124V13.124Z" fill="#6557FF"/>
<path d="M28.0633 16.4757L23.9383 13.0382C23.7973 12.9447 23.6267 12.9064 23.4593 12.9307C23.2919 12.9551 23.1393 13.0403 23.0308 13.1701C22.9222 13.2999 22.8654 13.4652 22.8711 13.6343C22.8768 13.8034 22.9447 13.9644 23.0617 14.0866L26.5508 16.9999L23.0617 19.9132C22.9548 20.0039 22.8782 20.1251 22.8421 20.2606C22.806 20.3961 22.8123 20.5394 22.86 20.6713C22.9077 20.8031 22.9945 20.9173 23.1089 20.9983C23.2233 21.0794 23.3598 21.1236 23.5 21.1249C23.6611 21.1256 23.8169 21.0676 23.9383 20.9616L28.0633 17.5241C28.1407 17.4604 28.203 17.3804 28.2458 17.2898C28.2886 17.1991 28.3108 17.1001 28.3108 16.9999C28.3108 16.8997 28.2886 16.8007 28.2458 16.71C28.203 16.6194 28.1407 16.5394 28.0633 16.4757V16.4757Z" fill="#6557FF"/>
<path d="M20.9818 8.79297C20.8972 8.76166 20.8072 8.74751 20.7171 8.75135C20.627 8.75519 20.5386 8.77695 20.457 8.81535C20.3754 8.85375 20.3022 8.90803 20.2418 8.97501C20.1815 9.042 20.135 9.12034 20.1052 9.20547L14.6052 24.3305C14.5739 24.4151 14.5598 24.505 14.5636 24.5951C14.5674 24.6852 14.5892 24.7737 14.6276 24.8553C14.666 24.9369 14.7203 25.01 14.7873 25.0704C14.8543 25.1308 14.9326 25.1773 15.0177 25.207C15.0923 25.2337 15.1706 25.2482 15.2498 25.25C15.3913 25.2507 15.5294 25.2072 15.645 25.1255C15.7606 25.0439 15.8477 24.9282 15.8943 24.7945L21.3943 9.66954C21.4256 9.58496 21.4398 9.49499 21.4359 9.40488C21.4321 9.31477 21.4103 9.22633 21.3719 9.14473C21.3335 9.06312 21.2792 8.98999 21.2122 8.92959C21.1453 8.8692 21.0669 8.82275 20.9818 8.79297V8.79297Z" fill="#C96765"/>
</svg>
