<svg width="16" height="16" viewBox="0 0 16 16" fill="none" xmlns="http://www.w3.org/2000/svg">
<path fill-rule="evenodd" clip-rule="evenodd" d="M6.00031 0.733398H5.98027C5.31427 0.733396 4.78642 0.733394 4.35802 0.760208C3.92053 0.787591 3.54677 0.844592 3.19509 0.976956C2.17094 1.36242 1.36267 2.17069 0.9772 3.19485C0.844836 3.54653 0.787835 3.92028 0.760452 4.35777C0.733638 4.78618 0.73364 5.31402 0.733643 5.98002V6.00006V6.02011C0.73364 6.68611 0.733638 7.21395 0.760452 7.64236C0.787835 8.07985 0.844836 8.4536 0.9772 8.80528C1.36267 9.82944 2.17094 10.6377 3.19509 11.0232C3.54677 11.1555 3.92053 11.2125 4.35802 11.2399C4.47575 11.2473 4.601 11.2526 4.73456 11.2565C4.73727 11.6096 4.74773 11.8713 4.78783 12.1062C5.05921 13.6959 6.30448 14.9412 7.8942 15.2125C8.21236 15.2669 8.57965 15.2668 9.15687 15.2667H9.15692L9.22253 15.2667H10.0003H10.0203H10.0203C10.6863 15.2667 11.2142 15.2667 11.6426 15.2399C12.0801 15.2125 12.4538 15.1555 12.8055 15.0232C13.8297 14.6377 14.638 13.8294 15.0234 12.8053C15.1558 12.4536 15.2128 12.0798 15.2402 11.6424C15.267 11.214 15.267 10.6861 15.267 10.0201V10.0001V9.22229L15.267 9.15665V9.15664C15.2671 8.57941 15.2671 8.21212 15.2128 7.89396C14.9414 6.30424 13.6961 5.05896 12.1064 4.78759C11.8715 4.74749 11.6099 4.73702 11.2568 4.73432C11.2529 4.60076 11.2475 4.47551 11.2402 4.35777C11.2128 3.92028 11.1558 3.54653 11.0234 3.19485C10.638 2.17069 9.82968 1.36242 8.80553 0.976956C8.45385 0.844592 8.08009 0.787591 7.6426 0.760208C7.2142 0.733394 6.68635 0.733396 6.02035 0.733398H6.00031ZM11.267 5.93473C11.267 5.94977 11.267 5.96488 11.267 5.98006V6.00006V6.02007C11.267 6.68609 11.267 7.21394 11.2402 7.64236C11.2128 8.07985 11.1558 8.4536 11.0234 8.80528C10.638 9.82944 9.82968 10.6377 8.80553 11.0232C8.45385 11.1555 8.08009 11.2125 7.6426 11.2399C7.21419 11.2667 6.68633 11.2667 6.02032 11.2667H6.00031H5.9803C5.96512 11.2667 5.95001 11.2667 5.93498 11.2667C5.93773 11.589 5.94605 11.7597 5.97072 11.9042C6.1564 12.9919 7.00843 13.844 8.09613 14.0297C8.30068 14.0646 8.55779 14.0667 9.22253 14.0667H10.0003C10.6908 14.0667 11.1811 14.0665 11.5676 14.0423C11.9494 14.0184 12.1896 13.9728 12.3828 13.9001C13.0836 13.6363 13.6366 13.0833 13.9003 12.3826C13.9731 12.1893 14.0186 11.9491 14.0425 11.5674C14.0667 11.1809 14.067 10.6906 14.067 10.0001V9.22229C14.067 8.55754 14.0648 8.30044 14.0299 8.09589C13.8442 7.00818 12.9922 6.15615 11.9045 5.97047C11.76 5.9458 11.5892 5.93749 11.267 5.93473ZM3.61779 2.10004C3.81105 2.02731 4.05125 1.98176 4.43298 1.95786C4.8195 1.93367 5.30982 1.9334 6.00031 1.9334C6.6908 1.9334 7.18112 1.93367 7.56764 1.95786C7.94936 1.98176 8.18957 2.02731 8.38283 2.10004C9.08357 2.36378 9.63659 2.91681 9.90033 3.61755C9.97307 3.81081 10.0186 4.05101 10.0425 4.43273C10.0667 4.81925 10.067 5.30958 10.067 6.00006C10.067 6.69055 10.0667 7.18088 10.0425 7.5674C10.0186 7.94912 9.97307 8.18932 9.90033 8.38258C9.63659 9.08332 9.08357 9.63635 8.38283 9.90009C8.18957 9.97283 7.94936 10.0184 7.56764 10.0423C7.18112 10.0665 6.6908 10.0667 6.00031 10.0667C5.30982 10.0667 4.8195 10.0665 4.43298 10.0423C4.05125 10.0184 3.81105 9.97283 3.61779 9.90009C2.91705 9.63635 2.36403 9.08332 2.10029 8.38258C2.02755 8.18932 1.982 7.94912 1.95811 7.5674C1.93392 7.18088 1.93364 6.69055 1.93364 6.00006C1.93364 5.30958 1.93392 4.81925 1.95811 4.43273C1.982 4.05101 2.02755 3.81081 2.10029 3.61755C2.36403 2.91681 2.91705 2.36378 3.61779 2.10004Z" fill="#6557FF"/>
</svg>
