<svg width="22" height="22" viewBox="0 0 22 22" fill="none" xmlns="http://www.w3.org/2000/svg">
<g clip-path="url(#clip0_2119_11612)">
<path fill-rule="evenodd" clip-rule="evenodd" d="M8.06619 0C6.85006 0.000897044 5.86583 0.985851 5.86673 2.19955C5.86583 3.41325 6.85096 4.3982 8.06709 4.3991H10.2674V2.20045C10.2683 0.986748 9.28322 0.00179409 8.06619 0C8.06709 0 8.06709 0 8.06619 0V0ZM8.06619 5.86666H2.20036C0.984232 5.86756 -0.000896383 6.85252 2.45642e-06 8.06622C-0.00179522 9.27992 0.983333 10.2649 2.19946 10.2667H8.06619C9.28232 10.2658 10.2674 9.28081 10.2665 8.06711C10.2674 6.85252 9.28232 5.86756 8.06619 5.86666Z" fill="black"/>
<path fill-rule="evenodd" clip-rule="evenodd" d="M22.0009 8.06622C22.0018 6.85252 21.0167 5.86756 19.8006 5.86667C18.5844 5.86756 17.5993 6.85252 17.6002 8.06622V10.2667H19.8006C21.0167 10.2658 22.0018 9.28082 22.0009 8.06622ZM16.1342 8.06622V2.19955C16.1351 0.986748 15.1509 0.00179409 13.9347 0C12.7186 0.000897044 11.7335 0.985851 11.7344 2.19955V8.06622C11.7326 9.27992 12.7177 10.2649 13.9338 10.2667C15.15 10.2658 16.1351 9.28082 16.1342 8.06622Z" fill="black"/>
<path fill-rule="evenodd" clip-rule="evenodd" d="M13.9328 22C15.1489 21.9991 16.134 21.0141 16.1331 19.8004C16.134 18.5867 15.1489 17.6018 13.9328 17.6009H11.7324V19.8004C11.7315 21.0132 12.7167 21.9982 13.9328 22ZM13.9328 16.1324H19.7995C21.0156 16.1315 22.0008 15.1466 21.9999 13.9329C22.0017 12.7192 21.0165 11.7342 19.8004 11.7324H13.9337C12.7175 11.7333 11.7324 12.7183 11.7333 13.932C11.7324 15.1466 12.7167 16.1315 13.9328 16.1324Z" fill="black"/>
<path fill-rule="evenodd" clip-rule="evenodd" d="M6.14593e-07 13.9329C-0.000898225 15.1466 0.98423 16.1316 2.20036 16.1325C3.41649 16.1316 4.40162 15.1466 4.40072 13.9329V11.7334H2.20036C0.98423 11.7343 -0.000898225 12.7192 6.14593e-07 13.9329ZM5.86673 13.9329V19.7996C5.86493 21.0133 6.85006 21.9983 8.06619 22.0001C9.28232 21.9992 10.2674 21.0142 10.2665 19.8005V13.9347C10.2683 12.721 9.28322 11.7361 8.06709 11.7343C6.85006 11.7343 5.86583 12.7192 5.86673 13.9329C5.86673 13.9329 5.86673 13.9338 5.86673 13.9329Z" fill="black"/>
</g>
<defs>
<clipPath id="clip0_2119_11612">
<rect width="22" height="22" fill="white"/>
</clipPath>
</defs>
</svg>
