<svg width="35" height="28" viewBox="0 0 35 28" fill="none" xmlns="http://www.w3.org/2000/svg">
<path d="M34.191 14.2612C34.5364 14.0527 34.5395 13.5527 34.1967 13.3399L13.5327 0.51219C13.1729 0.288818 12.7077 0.547588 12.7077 0.971107V26.2739C12.7077 26.6944 13.167 26.9537 13.527 26.7363L34.191 14.2612Z" fill="#61DFC6"/>
<path d="M17.7002 13.5435L8.7738e-05 2.26921V24.5078L17.7002 13.5435Z" fill="#FFC13C"/>
<path d="M17.7002 13.5435L8.7738e-05 2.26921V24.5078L17.7002 13.5435Z" fill="url(#paint0_linear_1615_1581)" fill-opacity="0.4"/>
<path d="M8.62294 2.26904C8.62294 5.27689 6.18464 7.71523 3.17676 7.71523C6.18464 7.71523 8.62294 10.1536 8.62294 13.1614C8.62294 10.1536 11.0612 7.71523 14.0691 7.71523C11.0612 7.71523 8.62294 5.27689 8.62294 2.26904Z" fill="#5E50FA"/>
<defs>
<linearGradient id="paint0_linear_1615_1581" x1="12.9486" y1="17.4911" x2="-0.0524222" y2="7.17973" gradientUnits="userSpaceOnUse">
<stop stop-color="white" stop-opacity="0"/>
<stop offset="1" stop-color="white"/>
</linearGradient>
</defs>
</svg>
