<svg width="48" height="48" viewBox="0 0 48 48" fill="none" xmlns="http://www.w3.org/2000/svg">
<rect width="48" height="48" rx="24" fill="#D92D20" fill-opacity="0.1"/>
<path d="M28.7872 19.6538C29.1655 19.2754 29.1655 18.6621 28.7872 18.2837C28.4089 17.9054 27.7955 17.9054 27.4172 18.2837L23.5355 22.1655L19.6538 18.2837C19.2755 17.9054 18.6621 17.9054 18.2838 18.2837C17.9054 18.6621 17.9054 19.2754 18.2838 19.6538L22.1655 23.5355L18.2837 27.4172C17.9054 27.7955 17.9054 28.4089 18.2837 28.7872C18.6621 29.1655 19.2754 29.1655 19.6538 28.7872L23.5355 24.9055L27.4172 28.7872C27.7955 29.1655 28.4089 29.1655 28.7872 28.7872C29.1656 28.4089 29.1656 27.7955 28.7872 27.4172L24.9055 23.5355L28.7872 19.6538Z" fill="#D92D20"/>
</svg>
