<svg width="16" height="16" viewBox="0 0 16 16" fill="none" xmlns="http://www.w3.org/2000/svg">
<path d="M8.16659 1.33301C4.93125 1.33301 2.99992 3.13967 2.99992 6.16634V7.34017C2.58225 7.64984 2.33325 8.13367 2.33325 8.66634C2.33325 9.45201 2.87955 10.1121 3.61255 10.2874C4.27688 12.9218 6.00859 14.6663 7.99992 14.6663C8.27592 14.6663 8.49992 14.4427 8.49992 14.1663C8.49992 13.89 8.27592 13.6663 7.99992 13.6663C6.43125 13.6663 4.9957 12.0469 4.50903 9.72819C4.46037 9.49686 4.25677 9.33105 4.0201 9.33105C4.00877 9.33105 3.99439 9.33136 3.98039 9.33236C3.62172 9.32236 3.33325 9.02734 3.33325 8.66634C3.33325 8.41134 3.47943 8.18426 3.71476 8.07259C3.8891 7.98959 3.99992 7.81377 3.99992 7.62077V6.72428C5.28492 6.38695 6.08947 5.70101 6.5188 5.22168C7.0658 5.55535 8.14359 5.99967 9.99992 5.99967C10.7155 5.99967 11.3364 5.93531 11.832 5.85449C11.9104 6.08939 11.9999 6.43363 11.9999 6.83301V10.1663C11.9999 11.0008 11.3344 11.6663 10.4999 11.6663H9.88664C9.79207 11.467 9.64291 11.2985 9.45645 11.1805C9.27 11.0625 9.05391 10.9998 8.83325 10.9997C8.68004 10.9997 8.52833 11.0299 8.38679 11.0885C8.24524 11.1471 8.11663 11.233 8.00829 11.3414C7.89996 11.4497 7.81402 11.5783 7.75539 11.7199C7.69676 11.8614 7.66659 12.0131 7.66659 12.1663C7.66659 12.3196 7.69676 12.4713 7.75539 12.6128C7.81402 12.7544 7.89996 12.883 8.00829 12.9913C8.11663 13.0996 8.24524 13.1856 8.38679 13.2442C8.52833 13.3028 8.68004 13.333 8.83325 13.333C9.0538 13.3328 9.26975 13.27 9.45608 13.152C9.6424 13.034 9.79147 12.8656 9.88599 12.6663H10.4999C11.8185 12.6663 12.9045 11.6306 12.9915 10.333H12.9999C13.7363 10.333 14.3333 9.73601 14.3333 8.99967V8.33301C14.3333 7.59667 13.7363 6.99967 12.9999 6.99967V6.83301C12.9999 6.34712 12.9029 5.91549 12.8059 5.60514C13.0001 5.49703 13.1555 5.32877 13.2467 5.12207C13.366 4.85107 13.3616 4.54268 13.2343 4.27702C12.3396 2.40568 10.4923 1.33301 8.16659 1.33301ZM6.33325 7.99967C6.15644 7.99967 5.98687 8.06991 5.86185 8.19494C5.73682 8.31996 5.66659 8.48953 5.66659 8.66634C5.66659 8.84315 5.73682 9.01272 5.86185 9.13775C5.98687 9.26277 6.15644 9.33301 6.33325 9.33301C6.51006 9.33301 6.67963 9.26277 6.80466 9.13775C6.92968 9.01272 6.99992 8.84315 6.99992 8.66634C6.99992 8.48953 6.92968 8.31996 6.80466 8.19494C6.67963 8.06991 6.51006 7.99967 6.33325 7.99967ZM9.66659 7.99967C9.49245 8.00005 9.32537 8.06854 9.20107 8.19051C9.07678 8.31248 9.00515 8.47824 9.00149 8.65234C8.99783 8.82644 9.06244 8.99506 9.1815 9.12214C9.30056 9.24922 9.46462 9.32467 9.63859 9.33236C9.64792 9.33277 9.65725 9.33299 9.66659 9.33301C9.8434 9.33301 10.013 9.26277 10.138 9.13775C10.263 9.01272 10.3333 8.84315 10.3333 8.66634C10.3333 8.48953 10.263 8.31996 10.138 8.19494C10.013 8.06991 9.8434 7.99967 9.66659 7.99967Z" fill="#6557FF"/>
</svg>
