<svg width="16" height="16" viewBox="0 0 16 16" fill="none" xmlns="http://www.w3.org/2000/svg">
<path fill-rule="evenodd" clip-rule="evenodd" d="M7.99971 2.66732C5.83212 2.66732 4.20948 4.06389 4.01855 5.68107C4.09997 5.716 4.17845 5.75188 4.24956 5.78442C4.48699 5.89051 4.9347 6.09053 5.10522 6.59526C5.16723 6.77881 5.16675 6.97507 5.1663 7.15768V10.177C5.16675 10.3596 5.16723 10.5558 5.10522 10.7394C4.9347 11.2441 4.487 11.4441 4.24956 11.5502C4.00762 11.6609 3.68044 11.8103 3.44197 11.8296C3.17705 11.851 2.90886 11.7944 2.67616 11.6638C2.46483 11.5452 2.30617 11.3516 2.14547 11.1556C2.08736 11.085 1.97736 10.9552 1.9001 10.8657L1.90007 10.8657C1.75883 10.702 1.59849 10.5162 1.46626 10.3431C1.24782 10.0573 1.02893 9.71472 0.920203 9.31671C0.80378 8.89054 0.80378 8.44409 0.920203 8.01792C0.999102 7.72911 1.14185 7.47424 1.33029 7.20674C1.51278 6.94768 1.82358 6.56797 2.12759 6.19873L2.1276 6.19871C2.17661 6.13656 2.24399 6.05111 2.29381 5.99404C2.38404 5.89069 2.5089 5.7647 2.67616 5.67082L2.67929 5.66907C2.87523 3.16699 5.27338 1.33398 7.99971 1.33398C10.726 1.33398 13.1242 3.167 13.3201 5.66908L13.3233 5.67082C13.4905 5.7647 13.6154 5.89069 13.7056 5.99404C13.7554 6.05112 13.8228 6.13657 13.8718 6.19873C14.1758 6.56797 14.4866 6.94768 14.6691 7.20674C14.8576 7.47424 15.0003 7.72911 15.0792 8.01792C15.1956 8.44409 15.1956 8.89054 15.0792 9.31671C14.9705 9.71472 14.7516 10.0573 14.5332 10.3431C14.4009 10.5162 14.2406 10.702 14.0993 10.8657L14.0993 10.8657C14.0221 10.9552 13.9121 11.085 13.8539 11.1556C13.6957 11.3486 13.5395 11.5392 13.333 11.6582V11.8673C13.333 13.5448 11.6941 14.6673 9.99971 14.6673H8.66637C8.29818 14.6673 7.99971 14.3688 7.99971 14.0007C7.99971 13.6325 8.29818 13.334 8.66637 13.334H9.99971C11.2508 13.334 11.9997 12.5462 11.9997 11.8673V11.6616C11.9116 11.6242 11.8264 11.5853 11.7499 11.5502C11.5124 11.4441 11.0647 11.2441 10.8942 10.7394C10.8322 10.5558 10.8327 10.3596 10.8331 10.177V7.15768C10.8327 6.97507 10.8322 6.77881 10.8942 6.59526C11.0647 6.09053 11.5124 5.89051 11.7499 5.78442C11.821 5.75188 11.8994 5.716 11.9809 5.68107C11.7899 4.06389 10.1673 2.66732 7.99971 2.66732Z" fill="#6D6C7C"/>
</svg>
