<svg width="48" height="48" viewBox="0 0 48 48" fill="none" xmlns="http://www.w3.org/2000/svg">
<rect width="48" height="48" rx="24" fill="#6557FF" fill-opacity="0.1"/>
<path fill-rule="evenodd" clip-rule="evenodd" d="M28.4635 13.3737C27.3214 13.25 25.8818 13.25 24.0453 13.25H23.9547C22.1182 13.25 20.6786 13.25 19.5365 13.3737C18.3709 13.5 17.4266 13.7623 16.6202 14.3482C16.1321 14.7028 15.7028 15.1321 15.3482 15.6202C14.7623 16.4266 14.5 17.3709 14.3737 18.5365C14.25 19.6786 14.25 21.1182 14.25 22.9548V25.0453C14.25 26.8818 14.25 28.3214 14.3737 29.4635C14.5 30.6291 14.7623 31.5734 15.3482 32.3798C15.7028 32.8679 16.1321 33.2972 16.6202 33.6518C17.4266 34.2377 18.3709 34.5 19.5365 34.6263C20.6786 34.75 22.1182 34.75 23.9547 34.75H24.0453C25.8818 34.75 27.3214 34.75 28.4635 34.6263C29.6291 34.5 30.5734 34.2377 31.3798 33.6518C31.8679 33.2972 32.2972 32.8679 32.6518 32.3798C33.2377 31.5734 33.5 30.6291 33.6263 29.4635C33.75 28.3214 33.75 26.8818 33.75 25.0453V22.9547C33.75 21.1182 33.75 19.6786 33.6263 18.5365C33.5 17.3709 33.2377 16.4266 32.6518 15.6202C32.2972 15.1321 31.8679 14.7028 31.3798 14.3482C30.5734 13.7623 29.6291 13.5 28.4635 13.3737ZM20 21.5C20 20.9477 20.4477 20.5 21 20.5H29C29.5523 20.5 30 20.9477 30 21.5C30 22.0523 29.5523 22.5 29 22.5H21C20.4477 22.5 20 22.0523 20 21.5ZM25 26.5C25 25.9477 25.4477 25.5 26 25.5H29C29.5523 25.5 30 25.9477 30 26.5C30 27.0523 29.5523 27.5 29 27.5H26C25.4477 27.5 25 27.0523 25 26.5Z" fill="#6557FF"/>
</svg>
