<svg width="50" height="50" viewBox="0 0 50 50" fill="none" xmlns="http://www.w3.org/2000/svg">
<circle cx="25" cy="25" r="25" fill="#6557FF" fill-opacity="0.1"/>
<path d="M12.998 18.8516C12.998 17.5383 14.0626 16.4737 15.3759 16.4737H34.7253C36.0386 16.4737 37.1032 17.5383 37.1032 18.8516V31.1483C37.1032 32.4617 36.0386 33.5263 34.7253 33.5263H15.3759C14.0626 33.5263 12.998 32.4617 12.998 31.1483V18.8516Z" fill="url(#paint0_linear_5714_13294)"/>
<path d="M33.56 35.8823C28.8449 38.6046 21.2002 38.6046 16.4851 35.8823C11.77 33.16 11.77 28.7464 16.4851 26.0241C21.2002 23.3018 28.8449 23.3018 33.56 26.0241C38.2751 28.7464 38.2751 33.16 33.56 35.8823Z" fill="#6557FF"/>
<path d="M33.6066 29.9379C28.8842 32.6644 21.2277 32.6644 16.5052 29.9379C11.7828 27.2114 11.7828 22.7909 16.5052 20.0644C21.2277 17.3379 28.8842 17.3379 33.6066 20.0644C38.329 22.7909 38.329 27.2114 33.6066 29.9379Z" fill="url(#paint1_linear_5714_13294)"/>
<path d="M33.56 23.9785C28.8449 26.7008 21.2002 26.7008 16.4851 23.9785C11.77 21.2563 11.77 16.8426 16.4851 14.1203C21.2002 11.398 28.8449 11.398 33.56 14.1203C38.2751 16.8426 38.2751 21.2563 33.56 23.9785Z" fill="#6557FF"/>
<circle cx="35.1875" cy="34.3311" r="4.90404" fill="#F0EFFF" stroke="#F0EFFF" stroke-width="1.19191"/>
<path d="M35.183 29.8311C32.699 29.8311 30.6875 31.8471 30.6875 34.3311C30.6875 36.8151 32.699 38.8311 35.183 38.8311C37.6715 38.8311 39.6875 36.8151 39.6875 34.3311C39.6875 31.8471 37.6715 29.8311 35.183 29.8311ZM36.668 36.4506L34.7375 34.5156V32.0811H35.6375V34.1466L37.307 35.8161L36.668 36.4506Z" fill="#6557FF"/>
<defs>
<linearGradient id="paint0_linear_5714_13294" x1="19.5868" y1="37.924" x2="18.4373" y2="-13.4863" gradientUnits="userSpaceOnUse">
<stop stop-color="#6557FF"/>
<stop offset="1" stop-color="#6557FF" stop-opacity="0"/>
</linearGradient>
<linearGradient id="paint1_linear_5714_13294" x1="19.5868" y1="37.924" x2="18.4373" y2="-13.4863" gradientUnits="userSpaceOnUse">
<stop stop-color="#FFC633"/>
<stop offset="1" stop-color="#FFC633" stop-opacity="0"/>
</linearGradient>
</defs>
</svg>
