<svg width="16" height="16" viewBox="0 0 16 16" fill="none" xmlns="http://www.w3.org/2000/svg">
<g id="Time-schedule">
<path id="Path 107" fill-rule="evenodd" clip-rule="evenodd" d="M6.97435 5.33617C6.98894 5.14648 7.14712 5 7.33737 5C7.52443 5 7.68105 5.14174 7.69966 5.32787L8.00021 8.33333L10.1558 9.56508C10.2657 9.6279 10.3335 9.7448 10.3335 9.87141C10.3335 10.104 10.1123 10.273 9.8879 10.2118L7.06554 9.44206C6.83416 9.37896 6.68017 9.16045 6.69857 8.92133L6.97435 5.33617Z" fill="black"/>
<path id="Combined Shape" opacity="0.3" fill-rule="evenodd" clip-rule="evenodd" d="M4.34678 1.19943C4.08268 0.884682 3.57273 1.00515 3.4774 1.40481L2.85386 4.01894C2.77619 4.34459 3.03426 4.65309 3.36851 4.63415L6.05769 4.48176C6.4686 4.45848 6.67698 3.97645 6.41243 3.66117L5.83232 2.96982C6.41474 2.7708 7.03234 2.66685 7.6665 2.66685C10.7961 2.66685 13.3332 5.2039 13.3332 8.33352C13.3332 11.4631 10.7961 14.0002 7.6665 14.0002C4.53689 14.0002 1.99984 11.4631 1.99984 8.33352C1.99984 7.80813 2.07098 7.29356 2.20971 6.79899L0.925926 6.43889C0.7569 7.04147 0.666504 7.67694 0.666504 8.33352C0.666504 12.1995 3.80051 15.3335 7.6665 15.3335C11.5325 15.3335 14.6665 12.1995 14.6665 8.33352C14.6665 4.46752 11.5325 1.33352 7.6665 1.33352C6.69407 1.33352 5.76795 1.5318 4.92637 1.89015L4.34678 1.19943Z" fill="#00A5FF"/>
</g>
</svg>
