<svg width="50" height="50" viewBox="0 0 50 50" fill="none" xmlns="http://www.w3.org/2000/svg">
<circle cx="25" cy="25" r="25" fill="#6557FF" fill-opacity="0.1"/>
<g filter="url(#filter0_b_1827_9702)">
<path d="M12.9375 24.0235C12.9375 21.4239 12.9375 20.124 13.6595 19.1669C14.3814 18.2097 15.6313 17.8526 18.1309 17.1385L22.5178 15.8851C23.9835 15.4663 24.7164 15.2569 25.4686 15.2569C26.2207 15.2569 26.9536 15.4663 28.4193 15.8851L32.8062 17.1385C35.3058 17.8526 36.5557 18.2097 37.2776 19.1669C37.9996 20.124 37.9996 21.4239 37.9996 24.0235V27.573C37.9996 32.6364 37.9996 35.168 36.4266 36.741C34.8537 38.3139 32.322 38.3139 27.2587 38.3139H23.6784C18.6151 38.3139 16.0834 38.3139 14.5105 36.741C12.9375 35.168 12.9375 32.6364 12.9375 27.573V24.0235Z" fill="#6557FF"/>
</g>
<rect x="18.63" y="15.552" width="14.3579" height="8.77991" fill="#6557FF"/>
<path fill-rule="evenodd" clip-rule="evenodd" d="M17.625 11.7437C16.1753 11.7437 15 13.3444 15 15.319V23.1436C20.141 26.9929 22.8469 30.7245 25.5 30.7436C28.2093 30.7631 30.8637 26.9894 36 23.1436V15.319C36 13.3444 34.8247 11.7437 33.375 11.7437H17.625Z" fill="#FFC633"/>
<path d="M29.875 16.9251C30.3582 16.9251 30.75 17.3118 30.75 17.7888C30.75 18.2658 30.3582 18.6524 29.875 18.6524L21.125 18.6524C20.6417 18.6524 20.25 18.2658 20.25 17.7888C20.25 17.3118 20.6417 16.9251 21.125 16.9251L29.875 16.9251Z" fill="#6557FF"/>
<path d="M29.875 22.1066C30.3582 22.1066 30.75 22.4933 30.75 22.9703C30.75 23.4473 30.3582 23.8339 29.875 23.8339H21.125C20.6417 23.8339 20.25 23.4473 20.25 22.9703C20.25 22.4933 20.6417 22.1066 21.125 22.1066H29.875Z" fill="#6557FF"/>
<path fill-rule="evenodd" clip-rule="evenodd" d="M37.8894 20.8013C37.9808 21.3932 38.0082 22.1091 38.0165 23.0046L26.0318 32.7421C25.703 33.0093 25.2318 33.0093 24.903 32.7421L12.9277 23.0123C12.9358 22.1166 12.963 21.4004 13.0538 20.8081L25.4674 30.8942L37.8894 20.8013Z" fill="#5345F0"/>
<defs>
<filter id="filter0_b_1827_9702" x="9.3572" y="11.6765" width="32.2227" height="30.2177" filterUnits="userSpaceOnUse" color-interpolation-filters="sRGB">
<feFlood flood-opacity="0" result="BackgroundImageFix"/>
<feGaussianBlur in="BackgroundImageFix" stdDeviation="1.79015"/>
<feComposite in2="SourceAlpha" operator="in" result="effect1_backgroundBlur_1827_9702"/>
<feBlend mode="normal" in="SourceGraphic" in2="effect1_backgroundBlur_1827_9702" result="shape"/>
</filter>
</defs>
</svg>
