<svg width="62" height="62" viewBox="0 0 62 62" fill="none" xmlns="http://www.w3.org/2000/svg">
<circle cx="31" cy="31" r="31" fill="#4FE4C6" fill-opacity="0.1"/>
<path d="M54.9782 32.4546C55.3237 32.246 55.3268 31.7461 54.9839 31.5332L28.9827 15.3923C28.6229 15.1689 28.1577 15.4277 28.1577 15.8512L28.1577 47.6894C28.1577 48.1099 28.617 48.3692 28.977 48.1518L54.9782 32.4546Z" fill="#61DFC6"/>
<path d="M34.348 31.6737L12.3999 17.6937V45.2695L34.348 31.6737Z" fill="#FFC13C"/>
<path d="M34.348 31.6737L12.3999 17.6937V45.2695L34.348 31.6737Z" fill="url(#paint0_linear_3035_16290)" fill-opacity="0.4"/>
<path d="M23.0927 17.6938C23.0927 21.4236 20.0692 24.4471 16.3394 24.4471C20.0692 24.4471 23.0927 27.4707 23.0927 31.2004C23.0927 27.4707 26.1162 24.4471 29.846 24.4471C26.1162 24.4471 23.0927 21.4236 23.0927 17.6938Z" fill="#5E50FA"/>
<defs>
<linearGradient id="paint0_linear_3035_16290" x1="28.4561" y1="36.5687" x2="12.3348" y2="23.7827" gradientUnits="userSpaceOnUse">
<stop stop-color="white" stop-opacity="0"/>
<stop offset="1" stop-color="white"/>
</linearGradient>
</defs>
</svg>
