<svg width="62" height="62" viewBox="0 0 62 62" fill="none" xmlns="http://www.w3.org/2000/svg">
<circle cx="31" cy="31" r="31" fill="#FFC633" fill-opacity="0.1"/>
<circle cx="31.4136" cy="31.6201" r="15.5" fill="#FFC13C"/>
<circle cx="31.4136" cy="31.6201" r="15.5" fill="url(#paint0_linear_3035_16282)" fill-opacity="0.45"/>
<path d="M15.6758 18.249C15.8265 18.0029 16.1833 18.0007 16.337 18.2449L24.433 31.1092C24.596 31.3683 24.4098 31.7055 24.1037 31.7055L8.13423 31.7055C7.83028 31.7055 7.64371 31.3726 7.80238 31.1133L15.6758 18.249Z" fill="#44E2C3"/>
<path d="M15.6758 18.249C15.8265 18.0029 16.1833 18.0007 16.337 18.2449L24.433 31.1092C24.596 31.3683 24.4098 31.7055 24.1037 31.7055L8.13423 31.7055C7.83028 31.7055 7.64371 31.3726 7.80238 31.1133L15.6758 18.249Z" fill="url(#paint1_linear_3035_16282)" fill-opacity="0.65"/>
<g filter="url(#filter0_d_3035_16282)">
<path d="M43.526 33.7845C43.526 33.6587 43.6271 33.5566 43.7519 33.5566L49.4227 33.5566C49.5474 33.5566 49.6485 33.6587 49.6485 33.7845L49.6485 49.3028C49.6485 49.4286 49.5474 49.5306 49.4227 49.5306L43.7519 49.5306C43.6271 49.5306 43.526 49.4286 43.526 49.3028L43.526 33.7845Z" fill="#6557FF"/>
<path d="M38.2178 39.0256C38.2178 38.8997 38.3189 38.7977 38.4437 38.7977L48.858 38.7977C48.9827 38.7977 49.0838 38.8997 49.0838 39.0256L49.0838 49.3028C49.0838 49.4286 48.9827 49.5306 48.858 49.5306L38.4437 49.5306C38.3189 49.5306 38.2178 49.4286 38.2178 49.3028L38.2178 39.0256Z" fill="#6557FF"/>
<path d="M33.3613 43.9248C33.3613 43.799 33.4625 43.697 33.5872 43.697L49.4227 43.697C49.5474 43.697 49.6485 43.799 49.6485 43.9248L49.6485 49.3028C49.6485 49.4286 49.5474 49.5306 49.4227 49.5306L33.5872 49.5306C33.4625 49.5306 33.3613 49.4286 33.3613 49.3028L33.3613 43.9248Z" fill="#6557FF"/>
</g>
<defs>
<filter id="filter0_d_3035_16282" x="31.8458" y="32.2937" width="18.308" height="17.9949" filterUnits="userSpaceOnUse" color-interpolation-filters="sRGB">
<feFlood flood-opacity="0" result="BackgroundImageFix"/>
<feColorMatrix in="SourceAlpha" type="matrix" values="0 0 0 0 0 0 0 0 0 0 0 0 0 0 0 0 0 0 127 0" result="hardAlpha"/>
<feOffset dx="-0.505187" dy="-0.252593"/>
<feGaussianBlur stdDeviation="0.505187"/>
<feComposite in2="hardAlpha" operator="out"/>
<feColorMatrix type="matrix" values="0 0 0 0 0.591667 0 0 0 0 0.561122 0 0 0 0 0.48566 0 0 0 0.03 0"/>
<feBlend mode="normal" in2="BackgroundImageFix" result="effect1_dropShadow_3035_16282"/>
<feBlend mode="normal" in="SourceGraphic" in2="effect1_dropShadow_3035_16282" result="shape"/>
</filter>
<linearGradient id="paint0_linear_3035_16282" x1="32.8829" y1="34.7632" x2="18.6745" y2="16.2757" gradientUnits="userSpaceOnUse">
<stop stop-color="white" stop-opacity="0"/>
<stop offset="1" stop-color="white"/>
</linearGradient>
<linearGradient id="paint1_linear_3035_16282" x1="7.59669" y1="20.7398" x2="15.628" y2="28.6557" gradientUnits="userSpaceOnUse">
<stop stop-color="white"/>
<stop offset="1" stop-color="white" stop-opacity="0"/>
</linearGradient>
</defs>
</svg>
