<svg width="50" height="50" viewBox="0 0 50 50" fill="none" xmlns="http://www.w3.org/2000/svg">
<circle cx="25" cy="25" r="25" fill="#6557FF" fill-opacity="0.1"/>
<path d="M12.8423 34.2104C12.29 34.2104 11.8423 33.7627 11.8423 33.2104L11.8423 15.7894L38.1581 15.7894L38.1581 33.2104C38.1581 33.7627 37.7104 34.2104 37.1581 34.2104L12.8423 34.2104Z" fill="#FFC633"/>
<path d="M11.8423 15.7896L11.8423 12.782C11.8423 12.263 12.2631 11.8422 12.7821 11.8422L37.2182 11.8422C37.7373 11.8422 38.1581 12.263 38.1581 12.782L38.1581 15.7895L11.8423 15.7896Z" fill="#6557FF"/>
<path d="M21.0528 21.9321L25.0002 28.5111H17.1055L21.0528 21.9321Z" fill="url(#paint0_linear_5714_13306)"/>
<path d="M27.6318 19.3008L32.895 28.5113H22.3687L27.6318 19.3008Z" fill="url(#paint1_linear_5714_13306)"/>
<path d="M25 34.2104V38.1578" stroke="#6557FF" stroke-width="1.31579"/>
<path d="M21.0527 38.1577L28.9475 38.1577" stroke="#6557FF" stroke-width="1.31579" stroke-linecap="round"/>
<defs>
<linearGradient id="paint0_linear_5714_13306" x1="19.271" y1="28.5111" x2="19.0427" y2="15.422" gradientUnits="userSpaceOnUse">
<stop stop-color="#6557FF"/>
<stop offset="1" stop-color="#6557FF" stop-opacity="0"/>
</linearGradient>
<linearGradient id="paint1_linear_5714_13306" x1="25.2561" y1="28.5113" x2="24.9204" y2="10.1872" gradientUnits="userSpaceOnUse">
<stop stop-color="#6557FF"/>
<stop offset="1" stop-color="#6557FF" stop-opacity="0"/>
</linearGradient>
</defs>
</svg>
