<svg width="12" height="13" viewBox="0 0 12 13" fill="none" xmlns="http://www.w3.org/2000/svg">
<path fill-rule="evenodd" clip-rule="evenodd" d="M6 12.5C9.31371 12.5 12 9.81372 12 6.5C12 3.18628 9.31371 0.5 6 0.5C2.68629 0.5 0 3.18628 0 6.5C0 9.81372 2.68629 12.5 6 12.5ZM8.79692 8.797C8.87416 8.87421 8.82487 9.04877 8.68682 9.18683C8.56411 9.30951 8.41257 9.36212 8.32615 9.31805L8.29698 9.29694L6 6.99994L3.70302 9.29694L3.67385 9.31805C3.58743 9.36212 3.43589 9.30951 3.31318 9.18683C3.17513 9.04877 3.12584 8.87421 3.20308 8.797L5.50007 6.5L3.03652 4.03644C2.95927 3.95923 3.00857 3.78467 3.14662 3.64661C3.26933 3.52393 3.42087 3.47131 3.50729 3.51538L3.53646 3.5365L6 6.00006L8.46354 3.5365L8.49271 3.51538C8.57913 3.47131 8.73067 3.52393 8.85338 3.64661C8.99143 3.78467 9.04073 3.95923 8.96348 4.03644L6.49993 6.5L8.79692 8.797Z" fill="#F7685B"/>
</svg>
