<svg width="973" height="216" viewBox="0 0 973 216" fill="none" xmlns="http://www.w3.org/2000/svg">
<g clip-path="url(#clip0_5739_13249)">
<rect width="973" height="216" rx="16" fill="url(#paint0_linear_5739_13249)"/>
<line x1="715.649" y1="287" x2="715.649" y2="-4.05566e-09" stroke="url(#paint1_linear_5739_13249)" stroke-opacity="0.46" stroke-width="0.702634"/>
<g filter="url(#filter0_f_5739_13249)">
<line x1="916.649" y1="287" x2="916.649" y2="-4.05566e-09" stroke="url(#paint2_linear_5739_13249)" stroke-opacity="0.46" stroke-width="0.702634"/>
</g>
<line x1="793.649" y1="287" x2="793.649" y2="-4.05566e-09" stroke="url(#paint3_linear_5739_13249)" stroke-opacity="0.46" stroke-width="0.702634"/>
<line x1="871.649" y1="287" x2="871.649" y2="-4.05566e-09" stroke="url(#paint4_linear_5739_13249)" stroke-opacity="0.46" stroke-width="0.702634"/>
<line x1="637.649" y1="274" x2="637.649" y2="-4.05566e-09" stroke="url(#paint5_linear_5739_13249)" stroke-opacity="0.46" stroke-width="0.702634"/>
<line x1="559.649" y1="267" x2="559.649" y2="-4.05566e-09" stroke="url(#paint6_linear_5739_13249)" stroke-opacity="0.46" stroke-width="0.702634"/>
<line x1="481.649" y1="306" x2="481.649" y2="-1.37539e-08" stroke="url(#paint7_linear_5739_13249)" stroke-opacity="0.46" stroke-width="0.702634"/>
<line x1="406.649" y1="176" x2="406.649" y2="-1.53566e-08" stroke="url(#paint8_linear_5739_13249)" stroke-opacity="0.46" stroke-width="0.702634"/>
<path d="M715.5 31C715.5 37.9036 709.904 43.5 703 43.5C709.904 43.5 715.5 49.0964 715.5 56C715.5 49.0964 721.096 43.5 728 43.5C721.096 43.5 715.5 37.9036 715.5 31Z" fill="#6557FF"/>
<circle cx="3.61736" cy="3.61736" r="3.61736" transform="matrix(-0.707107 0.707107 0.707107 0.707107 406.449 41.6642)" fill="#FDECC2"/>
<circle cx="6.71795" cy="6.71795" r="6.71795" transform="matrix(-0.707107 0.707107 0.707107 0.707107 406.501 19)" fill="#61DFC6"/>
<circle cx="4.75914" cy="4.75914" r="4.75914" transform="matrix(-0.707107 0.707107 0.707107 0.707107 637.433 17.8177)" fill="#FDECC2"/>
<circle cx="2.90483" cy="2.90483" r="2.90483" transform="matrix(-0.707107 0.707107 0.707107 0.707107 637.433 39.7673)" fill="#FFC633"/>
<circle cx="8.8384" cy="8.8384" r="8.8384" transform="matrix(-0.707107 0.707107 0.707107 0.707107 637.499 -12)" fill="#61DFC6"/>
<path d="M487.016 162.478C495.507 170.343 499.161 170.343 507.652 162.478C499.161 170.343 499.161 173.728 507.652 181.593C499.161 173.728 495.507 173.728 487.016 181.593C495.507 173.728 495.507 170.343 487.016 162.478Z" fill="#FDECC2"/>
<path d="M492.264 181.427C496.46 185.314 498.266 185.314 502.463 181.427C498.266 185.314 498.266 186.987 502.463 190.874C498.266 186.987 496.46 186.987 492.264 190.874C496.46 186.987 496.46 185.314 492.264 181.427Z" fill="#61DFC6"/>
<path d="M494.829 194.797C496.891 196.706 497.778 196.706 499.839 194.797C497.778 196.706 497.778 197.528 499.839 199.438C497.778 197.528 496.891 197.528 494.829 199.438C496.891 197.528 496.891 196.706 494.829 194.797Z" fill="#FDECC2"/>
<path d="M566.81 40.9216C566.901 41.0081 567.045 41.0082 567.131 40.9219L570.489 37.5635C570.576 37.4772 570.572 37.3372 570.481 37.2508L559.864 27.1566C559.773 27.0702 559.63 27.07 559.543 27.1563L556.185 30.5148C556.099 30.601 556.102 30.741 556.193 30.8275L566.81 40.9216Z" fill="#FDECC2"/>
<path d="M559.353 40.993C559.444 41.0794 559.588 41.0796 559.674 40.9933L566.313 34.3545C566.399 34.2683 566.395 34.1283 566.305 34.0418L559.474 27.5471C559.383 27.4607 559.239 27.4606 559.153 27.5468L552.514 34.1856C552.428 34.2719 552.432 34.4119 552.523 34.4983L559.353 40.993Z" fill="#FDECC2"/>
<path d="M552.456 40.9867C552.547 41.0732 552.691 41.0733 552.777 40.987L563.165 30.5993C563.251 30.513 563.247 30.373 563.156 30.2866L559.864 27.1566C559.773 27.0702 559.63 27.07 559.543 27.1563L549.156 37.544C549.069 37.6303 549.073 37.7703 549.164 37.8568L552.456 40.9867Z" fill="#FDECC2"/>
<path d="M640.985 204.077C641.026 204.116 641.091 204.116 641.13 204.077L642.649 202.558C642.688 202.519 642.686 202.456 642.645 202.416L637.842 197.85C637.801 197.811 637.736 197.811 637.697 197.85L636.178 199.369C636.139 199.408 636.141 199.472 636.182 199.511L640.985 204.077Z" fill="#FFC633"/>
<path d="M637.611 204.109C637.652 204.149 637.717 204.149 637.756 204.11L640.76 201.106C640.799 201.067 640.797 201.004 640.756 200.965L637.666 198.027C637.625 197.988 637.56 197.988 637.521 198.027L634.517 201.03C634.478 201.069 634.48 201.132 634.521 201.171L637.611 204.109Z" fill="#FFC633"/>
<path d="M634.491 204.107C634.532 204.146 634.597 204.146 634.636 204.107L639.335 199.407C639.374 199.368 639.373 199.305 639.332 199.266L637.842 197.85C637.801 197.811 637.736 197.811 637.697 197.85L632.998 202.549C632.959 202.588 632.961 202.652 633.002 202.691L634.491 204.107Z" fill="#FFC633"/>
<path d="M868 62.8731C868 60.7881 869.677 59.0978 871.746 59.0978C873.816 59.0978 875.493 60.7881 875.493 62.8731C875.493 64.9582 873.816 66.6484 871.746 66.6484C869.677 66.6484 868 64.9582 868 62.8731Z" fill="#FDECC2"/>
<path d="M875.493 62.7479C875.493 62.7677 875.477 62.7837 875.457 62.7837L868.036 62.7837C868.016 62.7837 868 62.7677 868 62.7479L868 55.5909C868 55.5712 868.016 55.5551 868.036 55.5551L875.457 55.5551C875.477 55.5551 875.493 55.5712 875.493 55.5909L875.493 62.7479Z" fill="#FDECC2"/>
<path d="M868.009 53.7747C868.009 55.8597 869.686 57.55 871.755 57.55C873.825 57.55 875.502 55.8597 875.502 53.7747C875.502 51.6897 873.825 49.9994 871.755 49.9994C869.686 49.9994 868.009 51.6897 868.009 53.7747Z" fill="#FDECC2"/>
<path d="M875.502 53.8999C875.502 53.8802 875.486 53.8642 875.466 53.8642L868.045 53.8642C868.025 53.8642 868.009 53.8802 868.009 53.8999L868.009 61.0569C868.009 61.0767 868.025 61.0927 868.045 61.0927L875.466 61.0927C875.486 61.0927 875.502 61.0767 875.502 61.0569L875.502 53.8999Z" fill="#FDECC2"/>
<path d="M786 201.666C790.234 201.666 793.666 205.098 793.666 209.332C793.666 205.098 797.099 201.666 801.333 201.666C797.099 201.666 793.666 198.233 793.666 193.999C793.666 198.233 790.234 201.666 786 201.666Z" fill="#FDECC2"/>
<path d="M791.594 211.817C791.594 210.573 792.594 209.564 793.828 209.564C795.063 209.564 796.063 210.573 796.063 211.817C796.063 213.062 795.063 214.07 793.828 214.07C792.594 214.07 791.594 213.062 791.594 211.817Z" fill="#61DFC6"/>
<path d="M796.063 211.742C796.063 211.754 796.054 211.764 796.042 211.764L791.615 211.764C791.603 211.764 791.594 211.754 791.594 211.742L791.594 207.471C791.594 207.459 791.603 207.449 791.615 207.449L796.042 207.449C796.054 207.449 796.063 207.459 796.063 207.471L796.063 211.742Z" fill="#61DFC6"/>
<path d="M791.599 206.387C791.599 207.631 792.6 208.64 793.834 208.64C795.068 208.64 796.069 207.631 796.069 206.387C796.069 205.142 795.068 204.134 793.834 204.134C792.6 204.134 791.599 205.142 791.599 206.387Z" fill="#61DFC6"/>
<path d="M796.069 206.462C796.069 206.45 796.059 206.44 796.047 206.44L791.62 206.44C791.609 206.44 791.599 206.45 791.599 206.462L791.599 210.733C791.599 210.745 791.609 210.754 791.62 210.754L796.047 210.754C796.059 210.754 796.069 210.745 796.069 210.733L796.069 206.462Z" fill="#61DFC6"/>
<path d="M496.906 52.7169C497.036 52.5177 497.347 52.5159 497.48 52.7136L505.477 64.6286C505.616 64.8361 505.455 65.1044 505.191 65.1044L489.417 65.1044C489.155 65.1044 488.993 64.8395 489.129 64.6319L496.906 52.7169Z" fill="#6557FF"/>
<path d="M497.297 62.248L504.332 72.4054L490.454 72.4054L497.297 62.248Z" fill="#FDECC2"/>
<path d="M504.332 67.4057C502.487 67.4057 500.991 68.7912 500.991 70.5005C500.991 68.7912 499.495 67.4057 497.65 67.4057C499.495 67.4057 500.991 66.0201 500.991 64.3108C500.991 66.0201 502.487 67.4057 504.332 67.4057Z" fill="#FFC633"/>
<path d="M823.881 67.6464C824.046 67.3598 824.46 67.3598 824.624 67.6464L878.663 161.705C878.827 161.99 878.621 162.347 878.291 162.347H770.214C769.885 162.347 769.679 161.99 769.843 161.705L823.881 67.6464Z" fill="url(#paint9_linear_5739_13249)"/>
<path d="M894.848 121.466C894.848 89.7286 920.576 64 952.314 64H1076.9V178.933H952.314C920.576 178.933 894.848 153.204 894.848 121.466V121.466Z" fill="#FFC633"/>
<path d="M697.016 116.078C719.012 101.102 741.008 101.102 763.004 116.078C785.001 131.054 806.997 131.054 828.993 116.078C850.989 101.102 872.985 101.102 894.982 116.078C916.978 131.054 938.974 131.054 960.97 116.078" stroke="white" stroke-width="2"/>
<path d="M564.977 116.078C586.973 101.102 608.969 101.102 630.965 116.078C652.962 131.054 674.958 131.054 696.954 116.078" stroke="white" stroke-width="2"/>
<path d="M960.903 116.078C982.899 101.102 1004.89 101.102 1026.89 116.078C1048.89 131.054 1070.88 131.054 1092.88 116.078C1114.88 101.102 1136.87 101.102 1158.87 116.078C1180.86 131.054 1202.86 131.054 1224.86 116.078" stroke="white" stroke-width="1.92993"/>
<path d="M703.29 76.4535C703.472 75.7791 703.091 75.0756 702.44 74.8821L677.087 67.3506C676.436 67.1571 675.76 67.5469 675.578 68.2213L654.328 146.981C654.146 147.655 654.526 148.359 655.177 148.552L680.53 156.084C681.182 156.277 681.857 155.887 682.039 155.213L703.29 76.4535Z" fill="url(#paint10_linear_5739_13249)"/>
<path d="M723.423 112.77C723.605 112.096 723.225 111.392 722.574 111.199L672.457 96.311C671.806 96.1176 671.13 96.5074 670.948 97.1818L657.276 147.856C657.094 148.531 657.474 149.234 658.125 149.428L708.242 164.316C708.893 164.509 709.569 164.119 709.75 163.445L723.423 112.77Z" fill="url(#paint11_linear_5739_13249)"/>
<path d="M741.693 146.555C741.875 145.881 741.494 145.177 740.843 144.984L662.426 121.688C661.774 121.495 661.099 121.885 660.917 122.559L654.328 146.981C654.146 147.655 654.526 148.359 655.177 148.552L733.595 171.847C734.246 172.041 734.922 171.651 735.103 170.977L741.693 146.555Z" fill="url(#paint12_linear_5739_13249)"/>
<path d="M563.657 162.989C591.168 172.943 622.182 160.354 632.929 134.87C643.675 109.387 630.083 80.6592 602.572 70.7053C575.06 60.7514 544.047 73.3406 533.301 98.824C522.554 124.308 536.145 153.035 563.657 162.989Z" fill="url(#paint13_linear_5739_13249)"/>
<path d="M563.657 162.989C591.168 172.943 622.182 160.354 632.929 134.87C643.675 109.387 630.083 80.6592 602.572 70.7053C575.06 60.7514 544.047 73.3406 533.301 98.824C522.554 124.308 536.145 153.035 563.657 162.989Z" fill="url(#paint14_linear_5739_13249)" fill-opacity="0.49"/>
<path d="M609.978 147.916C591.98 155.631 537.025 123.544 514.891 108.211" stroke="white" stroke-width="2" stroke-linecap="round"/>
<path d="M609.985 148.052C584.022 171.809 559.856 141.524 515.508 108.822" stroke="white" stroke-width="2" stroke-linecap="round"/>
<path d="M652.5 126C666.5 129 680 133 702 113.5" stroke="white" stroke-width="1.93026" stroke-linecap="round"/>
<path d="M790 126.499C799.498 138.063 828.5 145.5 847 107" stroke="white" stroke-width="2"/>
<path d="M931.728 43.9646C956.777 67.1671 956.777 77.1515 931.728 100.354C956.777 77.1515 967.556 77.1515 992.605 100.354C967.556 77.1515 967.556 67.1671 992.605 43.9646C967.556 67.1671 956.777 67.1671 931.728 43.9646Z" fill="#FDECC2"/>
<path d="M806.881 76.6464C807.046 76.3598 807.46 76.3598 807.624 76.6464L861.663 170.705C861.827 170.99 861.621 171.347 861.291 171.347H753.214C752.885 171.347 752.679 170.99 752.843 170.705L806.881 76.6464Z" fill="url(#paint15_linear_5739_13249)"/>
<path d="M695.29 80.3929C695.472 79.7185 695.091 79.015 694.44 78.8216L669.087 71.29C668.436 71.0965 667.76 71.4864 667.578 72.1608L646.328 150.92C646.146 151.595 646.526 152.298 647.178 152.492L672.531 160.023C673.182 160.217 673.857 159.827 674.039 159.152L695.29 80.3929Z" fill="#FDECC2"/>
<path d="M715.424 116.71C715.606 116.035 715.225 115.332 714.574 115.138L664.457 100.25C663.806 100.057 663.131 100.447 662.949 101.121L649.276 151.796C649.094 152.47 649.474 153.174 650.126 153.367L700.242 168.255C700.893 168.449 701.569 168.059 701.751 167.384L715.424 116.71Z" fill="#FDECC2"/>
<path d="M733.693 150.494C733.875 149.82 733.495 149.117 732.843 148.923L654.426 125.628C653.775 125.434 653.099 125.824 652.917 126.499L646.328 150.92C646.146 151.595 646.526 152.298 647.178 152.492L725.595 175.787C726.246 175.98 726.922 175.59 727.104 174.916L733.693 150.494Z" fill="#FDECC2"/>
</g>
<defs>
<filter id="filter0_f_5739_13249" x="912.297" y="-4" width="8.70264" height="295" filterUnits="userSpaceOnUse" color-interpolation-filters="sRGB">
<feFlood flood-opacity="0" result="BackgroundImageFix"/>
<feBlend mode="normal" in="SourceGraphic" in2="BackgroundImageFix" result="shape"/>
<feGaussianBlur stdDeviation="2" result="effect1_foregroundBlur_5739_13249"/>
</filter>
<linearGradient id="paint0_linear_5739_13249" x1="973" y1="108" x2="-8.43756e-08" y2="108" gradientUnits="userSpaceOnUse">
<stop stop-color="#46E9C8"/>
<stop offset="0.41493" stop-color="#FFCA43"/>
<stop offset="1" stop-color="#E6E4FB"/>
</linearGradient>
<linearGradient id="paint1_linear_5739_13249" x1="716" y1="0" x2="716" y2="287" gradientUnits="userSpaceOnUse">
<stop stop-color="white"/>
<stop offset="1" stop-color="white" stop-opacity="0"/>
</linearGradient>
<linearGradient id="paint2_linear_5739_13249" x1="917" y1="0" x2="917" y2="287" gradientUnits="userSpaceOnUse">
<stop stop-color="white"/>
<stop offset="1" stop-color="white" stop-opacity="0"/>
</linearGradient>
<linearGradient id="paint3_linear_5739_13249" x1="794" y1="0" x2="794" y2="287" gradientUnits="userSpaceOnUse">
<stop stop-color="white"/>
<stop offset="1" stop-color="white" stop-opacity="0"/>
</linearGradient>
<linearGradient id="paint4_linear_5739_13249" x1="872" y1="0" x2="872" y2="287" gradientUnits="userSpaceOnUse">
<stop stop-color="white"/>
<stop offset="1" stop-color="white" stop-opacity="0"/>
</linearGradient>
<linearGradient id="paint5_linear_5739_13249" x1="638" y1="0" x2="638" y2="274" gradientUnits="userSpaceOnUse">
<stop stop-color="white"/>
<stop offset="1" stop-color="white" stop-opacity="0"/>
</linearGradient>
<linearGradient id="paint6_linear_5739_13249" x1="560" y1="0" x2="560" y2="267" gradientUnits="userSpaceOnUse">
<stop stop-color="white"/>
<stop offset="1" stop-color="white" stop-opacity="0"/>
</linearGradient>
<linearGradient id="paint7_linear_5739_13249" x1="482" y1="0" x2="482" y2="306" gradientUnits="userSpaceOnUse">
<stop stop-color="white"/>
<stop offset="1" stop-color="white" stop-opacity="0"/>
</linearGradient>
<linearGradient id="paint8_linear_5739_13249" x1="407" y1="0" x2="407" y2="176" gradientUnits="userSpaceOnUse">
<stop stop-color="white"/>
<stop offset="1" stop-color="white" stop-opacity="0"/>
</linearGradient>
<linearGradient id="paint9_linear_5739_13249" x1="795.701" y1="194.129" x2="790.381" y2="-58.7638" gradientUnits="userSpaceOnUse">
<stop stop-color="#6557FF"/>
<stop offset="1" stop-color="#6557FF" stop-opacity="0"/>
</linearGradient>
<linearGradient id="paint10_linear_5739_13249" x1="712.617" y1="165.615" x2="763.566" y2="6.36309" gradientUnits="userSpaceOnUse">
<stop stop-color="#61DFC6"/>
<stop offset="1" stop-color="#61DFC6" stop-opacity="0"/>
</linearGradient>
<linearGradient id="paint11_linear_5739_13249" x1="712.617" y1="165.615" x2="763.566" y2="6.36309" gradientUnits="userSpaceOnUse">
<stop stop-color="#61DFC6"/>
<stop offset="1" stop-color="#61DFC6" stop-opacity="0"/>
</linearGradient>
<linearGradient id="paint12_linear_5739_13249" x1="712.617" y1="165.615" x2="763.566" y2="6.36309" gradientUnits="userSpaceOnUse">
<stop stop-color="#61DFC6"/>
<stop offset="1" stop-color="#61DFC6" stop-opacity="0"/>
</linearGradient>
<linearGradient id="paint13_linear_5739_13249" x1="602.572" y1="70.7053" x2="568.543" y2="164.757" gradientUnits="userSpaceOnUse">
<stop stop-color="#61DFC6"/>
<stop offset="1" stop-color="#6557FF"/>
</linearGradient>
<linearGradient id="paint14_linear_5739_13249" x1="534.019" y1="104.746" x2="561.025" y2="86.5491" gradientUnits="userSpaceOnUse">
<stop stop-color="white"/>
<stop offset="1" stop-color="white" stop-opacity="0"/>
</linearGradient>
<linearGradient id="paint15_linear_5739_13249" x1="778.701" y1="203.129" x2="773.381" y2="-49.7638" gradientUnits="userSpaceOnUse">
<stop stop-color="#61DFC6"/>
<stop offset="1" stop-color="#61DFC6" stop-opacity="0"/>
</linearGradient>
<clipPath id="clip0_5739_13249">
<rect width="973" height="216" rx="16" fill="white"/>
</clipPath>
</defs>
</svg>
