<svg width="6" height="8" viewBox="0 0 6 8" fill="none" xmlns="http://www.w3.org/2000/svg">
<path id="Vector (Stroke)" d="M2.7 2.25C1.20883 2.25 0 3.6603 0 5.4V6.8C0 7.1866 0.268629 7.5 0.6 7.5C0.931371 7.5 1.2 7.1866 1.2 6.8V5.4C1.2 4.4335 1.87157 3.65 2.7 3.65H3.3V4.69932C3.29984 4.87538 3.35626 5.05167 3.46975 5.18789C3.70071 5.46512 4.08057 5.47141 4.31819 5.20196C4.31819 5.20196 4.98674 4.57688 5.15167 4.41384C5.32793 4.23959 5.51635 4.03944 5.66507 3.83572C5.73965 3.73357 5.81645 3.61412 5.877 3.48209C5.93502 3.35562 6 3.17064 6 2.95C6 2.72936 5.93502 2.54438 5.87701 2.41791C5.81645 2.28588 5.73965 2.16643 5.66507 2.06428C5.51635 1.86056 5.32793 1.66041 5.15167 1.48616C5.15167 1.48616 4.36592 0.752159 4.31819 0.698043C4.08057 0.428588 3.70071 0.434885 3.46975 0.712108C3.35636 0.84821 3.29994 1.02431 3.3 1.20022V2.25H2.7Z" fill="black"/>
</svg>
