<svg width="12" height="12" viewBox="0 0 12 12" fill="none" xmlns="http://www.w3.org/2000/svg">
<path d="M8.90316 7.41859C8.96131 7.45322 9.03315 7.49374 9.11448 7.53963C9.47089 7.7407 10.0096 8.04465 10.3787 8.40592C10.6096 8.63186 10.8289 8.9296 10.8688 9.29438C10.9112 9.6823 10.7419 10.0463 10.4024 10.3698C9.8167 10.9278 9.11381 11.375 8.20465 11.375H3.79552C2.88637 11.375 2.18348 10.9278 1.59775 10.3698C1.25824 10.0463 1.08901 9.6823 1.13141 9.29438C1.17129 8.9296 1.39061 8.63186 1.62145 8.40592C1.99053 8.04465 2.52929 7.7407 2.88569 7.53963C2.96702 7.49375 3.03887 7.45321 3.09702 7.41859C4.87404 6.36047 7.12613 6.36047 8.90316 7.41859Z" fill="#84818A"/>
<path d="M3.37509 3.25C3.37509 1.80025 4.55034 0.625 6.00009 0.625C7.44984 0.625 8.62509 1.80025 8.62509 3.25C8.62509 4.69975 7.44984 5.875 6.00009 5.875C4.55034 5.875 3.37509 4.69975 3.37509 3.25Z" fill="#84818A"/>
</svg>
