<svg width="14" height="14" viewBox="0 0 14 14" fill="none" xmlns="http://www.w3.org/2000/svg">
<g clip-path="url(#clip0_3857_12358)">
<path d="M5.25008 7.00033L6.41675 8.16699L9.04175 5.54199M10.4424 2.91612C10.5626 3.20664 10.7931 3.43756 11.0834 3.55812L12.1015 3.97981C12.392 4.10016 12.6228 4.33099 12.7432 4.62153C12.8635 4.91206 12.8635 5.23851 12.7432 5.52905L12.3218 6.54638C12.2014 6.83704 12.2012 7.16382 12.3222 7.45435L12.7428 8.47137C12.8025 8.61527 12.8332 8.76952 12.8332 8.9253C12.8332 9.08107 12.8026 9.23533 12.743 9.37925C12.6833 9.52316 12.596 9.65393 12.4858 9.76406C12.3756 9.87419 12.2448 9.96154 12.1009 10.0211L11.0836 10.4425C10.7931 10.5626 10.5622 10.7932 10.4416 11.0835L10.02 12.1016C9.89963 12.3921 9.6688 12.623 9.37828 12.7433C9.08775 12.8636 8.76132 12.8636 8.47079 12.7433L7.4535 12.3219C7.16296 12.2019 6.83665 12.2021 6.54629 12.3226L5.52827 12.7437C5.2379 12.8637 4.91175 12.8636 4.62146 12.7434C4.33117 12.6232 4.10048 12.3926 3.98006 12.1024L3.55825 11.084C3.43813 10.7935 3.20757 10.5626 2.91724 10.442L1.89922 10.0203C1.60882 9.90002 1.37806 9.66934 1.25768 9.37896C1.13729 9.08859 1.13713 8.7623 1.25723 8.47181L1.6786 7.45448C1.79865 7.16393 1.7984 6.83761 1.67792 6.54724L1.25715 5.52845C1.19749 5.38455 1.16677 5.2303 1.16675 5.07453C1.16672 4.91875 1.19739 4.7645 1.257 4.62058C1.31661 4.47666 1.404 4.3459 1.51416 4.23576C1.62433 4.12563 1.75511 4.03829 1.89904 3.97872L2.91634 3.55733C3.20659 3.43731 3.43736 3.20703 3.55801 2.91703L3.97969 1.89896C4.10003 1.60843 4.33085 1.3776 4.62138 1.25725C4.9119 1.13691 5.23834 1.13691 5.52887 1.25725L6.54616 1.67864C6.83669 1.79869 7.16301 1.79845 7.45336 1.67796L8.47181 1.2579C8.7623 1.13763 9.08867 1.13765 9.37914 1.25797C9.66961 1.37829 9.9004 1.60906 10.0208 1.89952L10.4426 2.91788L10.4424 2.91612Z" stroke="white" stroke-width="1.5" stroke-linecap="round" stroke-linejoin="round"/>
</g>
<defs>
<clipPath id="clip0_3857_12358">
<rect width="14" height="14" fill="white"/>
</clipPath>
</defs>
</svg>
