<svg width="107" height="86" viewBox="0 0 107 86" fill="none" xmlns="http://www.w3.org/2000/svg">
<rect x="34.1213" y="2.33733" width="39.27" height="81.515" rx="1.4875" fill="#FFC633" stroke="#FFC633" stroke-width="2.975"/>
<path d="M60.098 38.0651C60.3659 37.8045 60.5193 37.4481 60.5245 37.0744C60.5297 36.7007 60.3862 36.3402 60.1256 36.0723C59.8651 35.8044 59.5087 35.651 59.135 35.6458C58.7613 35.6406 58.4008 35.784 58.1329 36.0446L54.9639 39.2829L51.7949 36.0446C51.6662 35.9149 51.5131 35.812 51.3445 35.7417C51.1759 35.6715 50.995 35.6353 50.8123 35.6353C50.6296 35.6353 50.4488 35.6715 50.2801 35.7417C50.1115 35.812 49.9584 35.9149 49.8298 36.0446C49.7001 36.1733 49.5971 36.3263 49.5269 36.495C49.4566 36.6636 49.4204 36.8445 49.4204 37.0272C49.4204 37.2099 49.4566 37.3907 49.5269 37.5594C49.5971 37.728 49.7001 37.8811 49.8298 38.0097L53.9813 42.1613C54.11 42.291 54.263 42.3939 54.4317 42.4642C54.6003 42.5344 54.7812 42.5706 54.9639 42.5706C55.1466 42.5706 55.3274 42.5344 55.4961 42.4642C55.6647 42.3939 55.8178 42.291 55.9464 42.1613L60.098 38.0651ZM55.9464 49.8278L60.098 45.6763C60.3586 45.4157 60.505 45.0622 60.505 44.6937C60.505 44.3252 60.3586 43.9718 60.098 43.7112C59.8374 43.4506 59.484 43.3042 59.1154 43.3042C58.7469 43.3042 58.3935 43.4506 58.1329 43.7112L54.9639 46.894L51.7949 43.7112C51.6662 43.5815 51.5131 43.4785 51.3445 43.4083C51.1759 43.338 50.995 43.3018 50.8123 43.3018C50.6296 43.3018 50.4488 43.338 50.2801 43.4083C50.1115 43.4785 49.9584 43.5815 49.8298 43.7112C49.7001 43.8398 49.5971 43.9929 49.5269 44.1615C49.4566 44.3302 49.4204 44.511 49.4204 44.6937C49.4204 44.8764 49.4566 45.0573 49.5269 45.2259C49.5971 45.3945 49.7001 45.5476 49.8298 45.6763L53.9813 49.8278C54.1063 49.9612 54.2564 50.0685 54.4231 50.1436C54.5898 50.2186 54.7696 50.2599 54.9523 50.2651C55.135 50.2702 55.317 50.2391 55.4876 50.1736C55.6582 50.108 55.8141 50.0093 55.9464 49.8832L55.9464 49.8278Z" fill="white"/>
<rect x="81.0215" y="12.2728" width="24.6785" height="61.6429" rx="2.11268" stroke="#D8D8D8" stroke-width="1.72464"/>
<rect x="1.80995" y="12.2705" width="24.6831" height="61.6475" rx="2.115" stroke="#D8D8D8" stroke-width="1.72"/>
</svg>
