<svg width="12" height="12" viewBox="0 0 12 12" fill="none" xmlns="http://www.w3.org/2000/svg">
<path d="M6 0C4.40845 0 2.88282 0.632079 1.75708 1.75708C0.632079 2.8828 0 4.4085 0 6C0 7.5915 0.632079 9.11718 1.75708 10.2429C2.8828 11.3679 4.4085 12 6 12C7.5915 12 9.11718 11.3679 10.2429 10.2429C11.3679 9.1172 12 7.5915 12 6C12 4.4085 11.3679 2.88282 10.2429 1.75708C9.1172 0.632079 7.5915 0 6 0ZM6 9.37497C5.69678 9.37497 5.42286 9.1926 5.30713 8.91207C5.19068 8.63155 5.25513 8.3093 5.46973 8.09469C5.68433 7.88008 6.0066 7.81563 6.28712 7.93209C6.56763 8.04781 6.75001 8.32173 6.75001 8.62496C6.75001 8.82417 6.67091 9.0146 6.53028 9.15522C6.38966 9.29585 6.19924 9.37495 6.00002 9.37495L6 9.37497ZM6.75 6.74998H5.25V2.62499H6.75V6.74998Z" fill="#D8D8D8"/>
</svg>
