<svg width="40" height="40" viewBox="0 0 40 40" fill="none" xmlns="http://www.w3.org/2000/svg">
<circle opacity="0.1" cx="20" cy="20" r="20" fill="#4A495C" fill-opacity="0.8"/>
<path d="M21.3659 21.265H19.0834C18.8084 21.265 18.5884 21.485 18.5884 21.76C18.5884 22.035 18.8084 22.255 19.0834 22.255H21.3659C21.6409 22.255 21.8609 22.035 21.8609 21.76C21.8609 21.485 21.6409 21.265 21.3659 21.265Z" fill="#292D32"/>
<path d="M17.6533 21.265H16.5075C16.2325 21.265 16.0125 21.485 16.0125 21.76C16.0125 22.035 16.2325 22.255 16.5075 22.255H17.6533C17.9283 22.255 18.1483 22.035 18.1483 21.76C18.1483 21.485 17.9283 21.265 17.6533 21.265Z" fill="#292D32"/>
<path d="M25.995 12.8683L20.9533 10.98C20.4308 10.7875 19.5783 10.7875 19.0558 10.98L14.0142 12.8683C13.0425 13.235 12.2542 14.3717 12.2542 15.4075V22.8325C12.2542 23.575 12.74 24.5558 13.3358 24.9958L18.3775 28.7633C19.2667 29.4325 20.7242 29.4325 21.6133 28.7633L26.655 24.9958C27.2508 24.5467 27.7367 23.575 27.7367 22.8325V15.4075C27.7458 14.3717 26.9575 13.235 25.995 12.8683ZM25.6558 21.5125C25.6375 23.41 25.115 23.8867 23.1442 23.8867H16.865C14.8575 23.8867 14.3533 23.3917 14.3533 21.4025V19.2667C14.3533 19.01 14.555 18.8083 14.8117 18.8083H25.1975C25.4542 18.8083 25.6558 19.01 25.6558 19.2667V21.5125ZM25.6558 17.3508C25.6558 17.6075 25.4542 17.8092 25.1975 17.8092H14.8117C14.555 17.8092 14.3533 17.6075 14.3533 17.3508V16.7642C14.3533 14.9675 14.775 14.39 16.3425 14.2892C16.5075 14.2892 16.6817 14.28 16.865 14.28H23.1442C25.1517 14.28 25.6558 14.775 25.6558 16.7642V17.3508Z" fill="#292D32"/>
</svg>
