<svg width="18" height="20" viewBox="0 0 18 20" fill="none" xmlns="http://www.w3.org/2000/svg">
<path d="M9.08649 20C8.96266 20.0009 8.83884 19.9715 8.7281 19.9137L5.12699 18.0505C4.10415 17.52 3.3048 16.9258 2.68062 16.2335C1.31448 14.7194 0.555395 12.7758 0.542307 10.7597L0.500024 4.12397C0.495998 3.35811 0.989299 2.67071 1.72824 2.41281L8.3405 0.106428C8.73313 -0.0328174 9.17106 -0.0357592 9.57073 0.0995642L16.2082 2.32652C16.9511 2.57461 17.4535 3.25711 17.4575 4.02198L17.4998 10.6626C17.5129 12.6758 16.779 14.6282 15.435 16.1579C14.8168 16.8601 14.0245 17.4631 13.0128 18.0025L9.44489 19.9097C9.33314 19.9686 9.21032 19.999 9.08649 20Z" fill="#FFC633"/>
<rect x="8" y="5" width="2" height="7" rx="1" fill="white"/>
<rect x="8" y="13" width="2" height="2" rx="1" fill="white"/>
</svg>
