<svg width="261" height="186" viewBox="0 0 261 186" fill="none" xmlns="http://www.w3.org/2000/svg">
<mask id="mask0_4825_12477" style="mask-type:alpha" maskUnits="userSpaceOnUse" x="0" y="0" width="261" height="186">
<path d="M0.0205078 8.41847C0.0205078 4.15093 3.18284 0.691406 7.45038 0.691406H252.993C257.035 0.691406 260.244 3.84167 260.244 8.0024V178.057C260.244 182.325 257.082 185.547 252.814 185.547H7.3315C3.06396 185.547 0.0205078 181.968 0.0205078 177.701V8.41847Z" fill="#C4C4C4"/>
</mask>
<g mask="url(#mask0_4825_12477)">
<path d="M0.0205078 0.691406H260.363V185.665H0.0205078V0.691406Z" fill="#F1F2F6"/>
<path d="M158.347 52.89C158.347 65.4382 148.368 75.8147 135.955 76.5386C135.468 76.5386 134.981 76.5386 134.494 76.5386C130.357 76.5386 126.219 75.3321 122.811 73.4015C115.51 69.2992 110.642 61.5772 110.642 52.6487C110.642 46.6158 112.832 41.0656 116.727 36.9633C121.108 32.1371 127.436 29 134.494 29C143.743 29 151.776 34.3089 155.67 42.0309C157.374 45.4093 158.347 49.029 158.347 52.89Z" fill="url(#paint0_linear_4825_12477)"/>
<path opacity="0.1" d="M158.138 52.89C158.138 65.4383 148.159 75.8147 135.746 76.5386C131.121 75.8147 126.74 74.6081 122.602 73.6429C115.301 69.5406 110.433 61.8186 110.433 52.89C110.433 46.8572 112.623 41.307 116.518 37.2047C124.55 36.9634 133.799 37.6873 143.291 39.3765C147.672 40.1004 151.81 41.0657 155.704 42.0309C157.165 45.4093 158.138 49.029 158.138 52.89Z" fill="black"/>
<path d="M187.241 68.8607C189.078 58.6265 166.428 46.0711 136.652 40.8175C106.875 35.5638 81.2471 39.6014 79.4101 49.8356C77.5732 60.0698 100.223 72.6251 129.999 77.8788C159.776 83.1324 185.404 79.0949 187.241 68.8607Z" fill="url(#paint1_linear_4825_12477)"/>
<path d="M129.061 46.661C129.196 44.9336 126.481 43.3156 122.997 43.047C119.512 42.7784 116.578 43.9609 116.442 45.6883C116.307 47.4156 119.022 49.0337 122.506 49.3023C125.991 49.5709 128.925 48.3883 129.061 46.661Z" fill="white"/>
<path d="M98.4352 51.0974C101.786 50.1112 104.098 47.9654 103.601 46.3046C103.104 44.6438 99.9845 44.0969 96.6342 45.083C93.2839 46.0692 90.971 48.215 91.4684 49.8758C91.9657 51.5367 95.0849 52.0836 98.4352 51.0974Z" fill="white"/>
<path d="M153.676 53.0099C153.982 51.3042 151.441 49.4293 148 48.8222C144.559 48.2152 141.522 49.1058 141.215 50.8115C140.909 52.5172 143.45 54.392 146.891 54.9991C150.332 55.6062 153.37 54.7156 153.676 53.0099Z" fill="white"/>
<path d="M172.153 65.6277C172.954 64.0878 171.085 61.5521 167.979 59.964C164.873 58.376 161.705 58.3369 160.904 59.8768C160.103 61.4167 161.972 63.9524 165.079 65.5405C168.185 67.1285 171.353 67.1676 172.153 65.6277Z" fill="white"/>
<path d="M130.29 61.5321L107.411 61.2908L74.8281 121.895L166.281 131.513L156.09 69.7367L130.29 61.5321Z" fill="url(#paint2_linear_4825_12477)"/>
<path opacity="0.5" d="M178.235 147.637H61.1616C64.3258 144.801 68.9503 141.966 74.305 139.839C77.2258 138.775 80.6333 137.358 84.0409 136.649C94.2635 133.813 106.677 132.041 119.82 132.041C135.641 132.041 150.245 134.522 161.441 138.421C165.335 139.839 168.743 141.257 171.664 143.029C174.341 144.447 176.531 145.865 178.235 147.637Z" fill="url(#paint3_linear_4825_12477)"/>
<path opacity="0.3" d="M85.6624 138.364C85.8158 139.803 83.3068 141.527 80.4025 141.836C77.4982 142.145 74.9501 141.203 74.5547 139.789C77.3824 138.76 80.6685 137.44 84.0058 136.599C85.025 136.975 85.5857 137.644 85.6624 138.364Z" fill="url(#paint4_linear_4825_12477)"/>
<path opacity="0.3" d="M106.19 137.349C110.089 137.349 113.249 136.593 113.249 135.66C113.249 134.727 110.089 133.971 106.19 133.971C102.292 133.971 99.1318 134.727 99.1318 135.66C99.1318 136.593 102.292 137.349 106.19 137.349Z" fill="url(#paint5_linear_4825_12477)"/>
<path opacity="0.3" d="M144.237 137.211C144.317 136.014 141.229 134.836 137.339 134.581C133.449 134.325 130.231 135.088 130.151 136.285C130.071 137.482 133.16 138.659 137.049 138.915C140.939 139.171 144.157 138.407 144.237 137.211Z" fill="url(#paint6_linear_4825_12477)"/>
<path opacity="0.3" d="M171.034 142.649C170.067 142.537 168.906 142.574 167.483 142.167C163.642 141.481 160.637 139.92 160.775 138.722C160.802 138.482 160.802 138.482 161.072 138.27C164.83 139.675 168.246 141.034 171.034 142.649Z" fill="url(#paint7_linear_4825_12477)"/>
<path d="M155.945 70.36C156.769 65.7677 146.495 60.1142 132.996 57.7326C119.497 55.3509 107.886 57.143 107.062 61.7353C106.238 66.3275 116.512 71.981 130.011 74.3626C143.51 76.7443 155.121 74.9522 155.945 70.36Z" fill="url(#paint8_linear_4825_12477)"/>
<path d="M68.5418 92.5999C68.5418 92.5999 60.1342 94.7345 62.682 96.4423C65.2297 98.0646 71.2595 100.882 76.9495 99.0039C82.6395 97.1254 76.9495 94.4784 77.0344 94.4784C77.1193 94.4784 68.5418 92.5999 68.5418 92.5999Z" fill="#CED7E2"/>
<path d="M58.2656 91.9166C61.3229 92.8559 70.7497 91.3189 76.7794 87.3911C81.5353 93.2828 83.3187 94.8198 85.0172 94.9905C82.3845 97.6375 73.6372 101.907 68.7115 96.3567C62.9365 100.028 58.2656 91.9166 58.2656 91.9166Z" fill="#E9EEF8"/>
<path d="M159.25 99.6028C162.478 99.7735 171.225 95.8457 175.981 90.5518C182.096 95.0773 184.134 96.1019 185.917 95.8457C183.964 99.0904 178.019 106.178 169.611 106.69C163.497 103.104 159.25 99.6028 159.25 99.6028Z" fill="#E9EEF8"/>
<path d="M131.282 99.7083C130.644 96.5403 124.661 89.0471 118.349 85.7599C121.209 78.7107 121.693 76.4815 121.001 74.8181C124.63 75.9016 132.975 79.8936 135.565 87.9086C133.615 94.7238 131.282 99.7083 131.282 99.7083Z" fill="white"/>
<path d="M207.152 147.637H199.761H46.5479H37" stroke="#D5DAE8" stroke-width="2" stroke-miterlimit="10" stroke-linecap="round" stroke-linejoin="round"/>
<path d="M103.026 128.249V133.075H100.105V137.66H94.5067V133.075H82.3369V127.525L93.5331 112.081H100.105V128.249H103.026ZM94.7501 118.355L87.6916 128.249H94.7501V118.355Z" fill="url(#paint9_linear_4825_12477)"/>
<path d="M120.55 138.143C114.708 138.143 109.597 133.075 109.597 124.871C109.597 116.666 114.708 111.598 120.55 111.598C126.392 111.598 131.503 116.666 131.503 124.871C131.746 132.834 126.635 138.143 120.55 138.143ZM120.55 133.075C123.227 133.075 126.148 130.421 126.148 124.629C126.148 119.079 123.471 116.183 120.55 116.183C117.873 116.183 114.952 118.838 114.952 124.629C115.195 130.421 117.873 133.075 120.55 133.075Z" fill="url(#paint10_linear_4825_12477)"/>
<path d="M159.25 128.249V133.075H156.329V137.66H150.731V133.075H138.562V127.525L149.758 112.081H156.086V128.249H159.25ZM150.731 118.355L143.673 128.249H150.731V118.355Z" fill="url(#paint11_linear_4825_12477)"/>
<path d="M100.835 128.249V133.075H97.9144V137.66H92.3163V133.075H80.1465V127.525L91.3427 112.081H97.671V128.249H100.835ZM92.5597 118.355L85.5012 128.249H92.5597V118.355Z" fill="url(#paint12_linear_4825_12477)"/>
<path d="M118.36 138.143C112.518 138.143 107.407 133.075 107.407 124.871C107.407 116.666 112.518 111.598 118.36 111.598C124.201 111.598 129.312 116.666 129.312 124.871C129.556 132.834 124.444 138.143 118.36 138.143ZM118.36 133.075C121.037 133.075 123.958 130.421 123.958 124.629C123.958 119.079 121.28 116.183 118.36 116.183C115.682 116.183 112.761 118.838 112.761 124.629C113.005 130.421 115.682 133.075 118.36 133.075Z" fill="url(#paint13_linear_4825_12477)"/>
<path d="M157.06 128.249V133.075H154.139V137.66H148.541V133.075H136.371V127.525L147.567 112.081H153.896V128.249H157.06ZM148.541 118.355L141.482 128.249H148.541V118.355Z" fill="url(#paint14_linear_4825_12477)"/>
</g>
<defs>
<linearGradient id="paint0_linear_4825_12477" x1="134.498" y1="30.6514" x2="134.498" y2="57.3344" gradientUnits="userSpaceOnUse">
<stop stop-color="#B0BACC"/>
<stop offset="1" stop-color="#969EAE"/>
</linearGradient>
<linearGradient id="paint1_linear_4825_12477" x1="83.1566" y1="50.4935" x2="143.649" y2="61.3516" gradientUnits="userSpaceOnUse">
<stop stop-color="#E3E7EE"/>
<stop offset="1" stop-color="#D1D6DF"/>
</linearGradient>
<linearGradient id="paint2_linear_4825_12477" x1="120.56" y1="63.7302" x2="120.56" y2="103.145" gradientUnits="userSpaceOnUse">
<stop stop-color="#BDC4D1" stop-opacity="0.53"/>
<stop offset="1" stop-color="#5D7CB8" stop-opacity="0"/>
</linearGradient>
<linearGradient id="paint3_linear_4825_12477" x1="119.698" y1="132.041" x2="119.698" y2="147.637" gradientUnits="userSpaceOnUse">
<stop stop-color="#B6BFD7"/>
<stop offset="1" stop-color="#838DA7" stop-opacity="0"/>
</linearGradient>
<linearGradient id="paint4_linear_4825_12477" x1="79.91" y1="137.204" x2="80.1969" y2="139.897" gradientUnits="userSpaceOnUse">
<stop stop-color="#B0BACC"/>
<stop offset="1" stop-color="#969EAE"/>
</linearGradient>
<linearGradient id="paint5_linear_4825_12477" x1="106.191" y1="134.088" x2="106.191" y2="135.985" gradientUnits="userSpaceOnUse">
<stop stop-color="#B0BACC"/>
<stop offset="1" stop-color="#969EAE"/>
</linearGradient>
<linearGradient id="paint6_linear_4825_12477" x1="130.641" y1="136.317" x2="138.546" y2="136.845" gradientUnits="userSpaceOnUse">
<stop stop-color="#B0BACC"/>
<stop offset="1" stop-color="#969EAE"/>
</linearGradient>
<linearGradient id="paint7_linear_4825_12477" x1="166.137" y1="138.968" x2="165.929" y2="140.777" gradientUnits="userSpaceOnUse">
<stop stop-color="#B0BACC"/>
<stop offset="1" stop-color="#969EAE"/>
</linearGradient>
<linearGradient id="paint8_linear_4825_12477" x1="131.503" y1="72.465" x2="135.106" y2="60.0303" gradientUnits="userSpaceOnUse">
<stop stop-color="#B0BACC"/>
<stop offset="1" stop-color="#969EAE"/>
</linearGradient>
<linearGradient id="paint9_linear_4825_12477" x1="92.6829" y1="112.97" x2="92.6829" y2="127.327" gradientUnits="userSpaceOnUse">
<stop stop-color="#D6DCE6"/>
<stop offset="1" stop-color="#C4CBDA"/>
</linearGradient>
<linearGradient id="paint10_linear_4825_12477" x1="120.556" y1="112.521" x2="120.556" y2="127.42" gradientUnits="userSpaceOnUse">
<stop stop-color="#D6DCE6"/>
<stop offset="1" stop-color="#C4CBDA"/>
</linearGradient>
<linearGradient id="paint11_linear_4825_12477" x1="148.907" y1="112.97" x2="148.907" y2="127.327" gradientUnits="userSpaceOnUse">
<stop stop-color="#D6DCE6"/>
<stop offset="1" stop-color="#C4CBDA"/>
</linearGradient>
<linearGradient id="paint12_linear_4825_12477" x1="90.4925" y1="112.97" x2="90.4925" y2="127.327" gradientUnits="userSpaceOnUse">
<stop stop-color="#EAEEF5"/>
<stop offset="1" stop-color="#D4DAE4"/>
</linearGradient>
<linearGradient id="paint13_linear_4825_12477" x1="118.365" y1="112.521" x2="118.365" y2="127.42" gradientUnits="userSpaceOnUse">
<stop stop-color="#EAEEF5"/>
<stop offset="1" stop-color="#D4DAE4"/>
</linearGradient>
<linearGradient id="paint14_linear_4825_12477" x1="146.717" y1="112.97" x2="146.717" y2="127.327" gradientUnits="userSpaceOnUse">
<stop stop-color="#EAEEF5"/>
<stop offset="1" stop-color="#D4DAE4"/>
</linearGradient>
</defs>
</svg>
