<svg width="24" height="24" viewBox="0 0 24 24" fill="none" xmlns="http://www.w3.org/2000/svg">
<path d="M19 10V4M16 7H22M16 21V19.8C16 18.1198 16 17.2798 15.673 16.638C15.3854 16.0735 14.9265 15.6146 14.362 15.327C13.7202 15 12.8802 15 11.2 15H6.8C5.11984 15 4.27976 15 3.63803 15.327C3.07354 15.6146 2.6146 16.0735 2.32698 16.638C2 17.2798 2 18.1198 2 19.8V21M12.5 7.5C12.5 9.433 10.933 11 9 11C7.067 11 5.5 9.433 5.5 7.5C5.5 5.567 7.067 4 9 4C10.933 4 12.5 5.567 12.5 7.5Z" stroke="#6557FF" stroke-width="2" stroke-linecap="round" stroke-linejoin="round"/>
</svg>
