<svg xmlns="http://www.w3.org/2000/svg" width="5" height="8" viewBox="0 0 5 8" fill="none">
    <path d="M3.13999 4.00001L0.77999 1.64001C0.655823 1.5151 0.586129 1.34613 0.586129 1.17001C0.586129 0.993883 0.655823 0.824915 0.77999 0.700006C0.841966 0.637521 0.9157 0.587925 0.996939 0.554079C1.07818 0.520233 1.16532 0.502808 1.25332 0.502808C1.34133 0.502808 1.42847 0.520233 1.50971 0.554079C1.59095 0.587925 1.66468 0.637521 1.72666 0.700006L4.55332 3.52667C4.61581 3.58865 4.66541 3.66238 4.69925 3.74362C4.7331 3.82486 4.75052 3.912 4.75052 4.00001C4.75052 4.08801 4.7331 4.17515 4.69925 4.25639C4.66541 4.33763 4.61581 4.41136 4.55332 4.47334L1.72666 7.33334C1.66436 7.39513 1.59049 7.44401 1.50926 7.47719C1.42804 7.51036 1.34106 7.52718 1.25332 7.52667C1.16559 7.52718 1.07861 7.51036 0.997386 7.47719C0.916161 7.44401 0.842284 7.39513 0.77999 7.33334C0.655823 7.20843 0.586129 7.03946 0.586129 6.86334C0.586129 6.68722 0.655823 6.51825 0.77999 6.39334L3.13999 4.00001Z" fill="#5A5A5A"/>
</svg>