<svg width="23" height="23" viewBox="0 0 23 23" fill="none" xmlns="http://www.w3.org/2000/svg">
<rect width="23" height="23" rx="11.5" fill="#6557FF"/>
<path d="M14.0835 7.8335H9.91683C8.76683 7.8335 7.8335 8.76266 7.8335 9.9085V12.4002V12.8168C7.8335 13.9627 8.76683 14.8918 9.91683 14.8918H10.5418C10.6543 14.8918 10.8043 14.9668 10.8752 15.0585L11.5002 15.8877C11.7752 16.2543 12.2252 16.2543 12.5002 15.8877L13.1252 15.0585C13.2043 14.9543 13.3293 14.8918 13.4585 14.8918H14.0835C15.2335 14.8918 16.1668 13.9627 16.1668 12.8168V9.9085C16.1668 8.76266 15.2335 7.8335 14.0835 7.8335ZM12.4168 12.7293H9.91683C9.746 12.7293 9.60433 12.5877 9.60433 12.4168C9.60433 12.246 9.746 12.1043 9.91683 12.1043H12.4168C12.5877 12.1043 12.7293 12.246 12.7293 12.4168C12.7293 12.5877 12.5877 12.7293 12.4168 12.7293ZM14.0835 10.646H9.91683C9.746 10.646 9.60433 10.5043 9.60433 10.3335C9.60433 10.1627 9.746 10.021 9.91683 10.021H14.0835C14.2543 10.021 14.396 10.1627 14.396 10.3335C14.396 10.5043 14.2543 10.646 14.0835 10.646Z" fill="white"/>
</svg>
