<svg width="24" height="44" viewBox="0 0 24 44" fill="none" xmlns="http://www.w3.org/2000/svg">
<path d="M19.7782 25.4792C21.702 27.3766 22.8396 29.9045 22.9843 32.5705C23.0016 32.8906 22.7401 33.1508 22.4194 33.1508H12L1.58056 33.1508C1.25992 33.1508 0.998357 32.8906 1.01573 32.5705C1.16042 29.9045 2.29804 27.3766 4.22183 25.4792C6.28473 23.4446 9.08262 22.3015 12 22.3015C14.9174 22.3015 17.7153 23.4446 19.7782 25.4792Z" stroke="#6557FF" stroke-width="2"/>
<path d="M6.46966 13.2602C6.14903 13.2602 5.88617 13.5208 5.91742 13.8399C6.05312 15.2257 6.67232 16.5293 7.67901 17.5222C8.82507 18.6526 10.3795 19.2876 12.0002 19.2876C13.621 19.2876 15.1754 18.6526 16.3214 17.5222C17.3281 16.5293 17.9473 15.2257 18.083 13.8399C18.1143 13.5208 17.8514 13.2602 17.5308 13.2602L12.0002 13.2602L6.46966 13.2602Z" fill="#FFC633"/>
<path d="M4.22183 18.5208C2.29804 16.6234 1.16042 14.0955 1.01573 11.4295C0.998358 11.1094 1.25993 10.8492 1.58056 10.8492L12 10.8492L22.4194 10.8492C22.7401 10.8492 23.0016 11.1094 22.9843 11.4295C22.8396 14.0955 21.702 16.6234 19.7782 18.5208C17.7153 20.5554 14.9174 21.6985 12 21.6985C9.08262 21.6985 6.28473 20.5554 4.22183 18.5208Z" stroke="#6557FF" stroke-width="2"/>
</svg>
