<svg width="231" height="39" viewBox="0 0 231 39" fill="none" xmlns="http://www.w3.org/2000/svg">
<path d="M206.632 23.652C206.998 23.79 207.274 23.994 207.46 24.264C207.646 24.528 207.739 24.834 207.739 25.182C207.739 25.746 207.553 26.19 207.181 26.514C206.815 26.838 206.287 27 205.597 27H202.708V20.592H205.471C206.119 20.592 206.614 20.745 206.956 21.051C207.304 21.357 207.478 21.759 207.478 22.257C207.478 22.881 207.196 23.346 206.632 23.652ZM205.408 21.42H203.671V23.337H205.408C206.158 23.337 206.533 23.004 206.533 22.338C206.533 22.05 206.434 21.825 206.236 21.663C206.044 21.501 205.768 21.42 205.408 21.42ZM203.671 26.172H205.543C205.939 26.172 206.242 26.085 206.452 25.911C206.662 25.737 206.767 25.488 206.767 25.164C206.767 24.48 206.359 24.138 205.543 24.138H203.671V26.172ZM215.367 20.592V21.456H211.758V23.265H215.025V24.111H211.758V26.136H215.34V27H210.795V20.592H215.367ZM218.012 20.592H223.241V21.456H221.117V27H220.136V21.456H218.012V20.592ZM230.741 27H229.724L229.094 25.335H226.214L225.593 27H224.594L227.096 20.592H228.203L230.741 27ZM226.655 24.147L226.52 24.498H228.779L228.644 24.147C228.326 23.355 227.993 22.479 227.645 21.519C227.231 22.623 226.901 23.499 226.655 24.147Z" fill="black"/>
<path d="M77.9709 10.8623C79.9733 10.8623 81.5831 11.5207 82.8003 12.8373C84.0371 14.133 84.6555 15.9512 84.6555 18.2919V28.4801H80.5328V18.8875C80.5328 17.5291 80.2089 16.4946 79.5611 15.784C78.9132 15.0526 78.0298 14.6868 76.9108 14.6868C75.7918 14.6868 74.8986 15.0526 74.2311 15.784C73.5833 16.4946 73.2593 17.5291 73.2593 18.8875V28.4801H69.1367V18.8875C69.1367 17.5291 68.8128 16.4946 68.1649 15.784C67.5171 15.0526 66.6337 14.6868 65.5147 14.6868C64.376 14.6868 63.473 15.0526 62.8055 15.784C62.1577 16.4946 61.8337 17.5291 61.8337 18.8875V28.4801H57.7111V11.1131H61.8337V13.2135C62.3638 12.482 63.0411 11.9073 63.8656 11.4893C64.7098 11.0713 65.6325 10.8623 66.6337 10.8623C67.9097 10.8623 69.0484 11.1549 70.0496 11.7401C71.0508 12.3044 71.8262 13.1194 72.3759 14.1853C72.906 13.1821 73.6716 12.3775 74.6728 11.7714C75.6937 11.1654 76.793 10.8623 77.9709 10.8623Z" fill="#060606"/>
<path fill-rule="evenodd" clip-rule="evenodd" d="M66.6337 11.0189C65.6553 11.0189 64.7568 11.2229 63.9358 11.6293C63.1332 12.0363 62.4755 12.5947 61.9606 13.3054L61.6772 13.6965V11.2697H57.8677V28.3235H61.6772V18.8875C61.6772 17.5061 62.0065 16.4279 62.6898 15.6785C63.3915 14.9095 64.3393 14.5302 65.5147 14.5302C66.6709 14.5302 67.5995 14.9098 68.2814 15.6793C68.9642 16.4287 69.2933 17.5066 69.2933 18.8875V28.3235H73.1027V18.8875C73.1027 17.5061 73.4321 16.4279 74.1154 15.6785C74.8165 14.9101 75.7541 14.5302 76.9108 14.5302C78.067 14.5302 78.9956 14.9099 79.6776 15.6794C80.3603 16.4287 80.6894 17.5066 80.6894 18.8875V28.3235H84.4989V18.2919C84.4989 15.9787 83.8883 14.2039 82.687 12.9454L82.6853 12.9436C81.5014 11.6629 79.9353 11.0189 77.9709 11.0189C76.8216 11.0189 75.75 11.3142 74.7533 11.9058C73.7759 12.4976 73.0306 13.2814 72.5144 14.2584L72.3742 14.5236L72.2367 14.257C71.7004 13.2171 70.9461 12.4251 69.9727 11.8765L69.9705 11.8753C68.9957 11.3055 67.8848 11.0189 66.6337 11.0189ZM63.7961 11.349C64.6632 10.9196 65.6099 10.7057 66.6337 10.7057C67.9342 10.7057 69.1003 11.0041 70.1276 11.6043C71.075 12.1385 71.8254 12.8917 72.3777 13.8603C72.9132 12.9476 73.652 12.2063 74.5917 11.6375C75.6365 11.0172 76.7647 10.7057 77.9709 10.7057C80.0109 10.7057 81.6641 11.378 82.9144 12.73C84.1862 14.0629 84.8121 15.9242 84.8121 18.2919V28.6367H80.3762V18.8875C80.3762 17.552 80.0578 16.5612 79.4453 15.8895L79.4438 15.8879C78.8302 15.195 77.9922 14.8434 76.9108 14.8434C75.8295 14.8434 74.9806 15.195 74.3468 15.8895C73.7344 16.5612 73.4159 17.552 73.4159 18.8875V28.6367H68.9801V18.8875C68.9801 17.552 68.6616 16.5612 68.0492 15.8895L68.0477 15.8879C67.434 15.195 66.5961 14.8434 65.5147 14.8434C64.4128 14.8434 63.5545 15.1956 62.9212 15.8895C62.3088 16.5612 61.9904 17.552 61.9904 18.8875V28.6367H57.5545V10.9565H61.9904V12.761C62.4869 12.1781 63.0902 11.7068 63.7961 11.349Z" fill="#060606"/>
<path d="M103.969 19.7049C103.969 20.3291 103.928 20.8908 103.847 21.3901H91.4594C91.5613 22.6384 91.9895 23.6163 92.744 24.3236C93.4984 25.031 94.4262 25.3847 95.5273 25.3847C97.1177 25.3847 98.2494 24.6877 98.9223 23.2938H103.541C103.051 24.9582 102.113 26.3313 100.727 27.4131C99.3403 28.4742 97.6377 29.0047 95.6191 29.0047C93.9878 29.0047 92.5197 28.6406 91.2147 27.9125C89.9301 27.1635 88.9208 26.1128 88.1867 24.7605C87.473 23.4082 87.1162 21.8478 87.1162 20.0794C87.1162 18.2902 87.473 16.7194 88.1867 15.3671C88.9004 14.0148 89.8995 12.9745 91.1841 12.2464C92.4687 11.5182 93.947 11.1541 95.6191 11.1541C97.2299 11.1541 98.6674 11.5078 99.9316 12.2152C101.216 12.9225 102.205 13.9316 102.898 15.2423C103.612 16.5322 103.969 18.0197 103.969 19.7049ZM99.534 18.4566C99.5136 17.3332 99.116 16.4386 98.3412 15.7728C97.5663 15.0862 96.6182 14.743 95.4967 14.743C94.4364 14.743 93.5392 15.0758 92.8052 15.7416C92.0915 16.3865 91.6531 17.2916 91.49 18.4566H99.534Z" fill="#060606"/>
<path d="M140.337 13.9316C140.888 13.141 141.642 12.4856 142.601 11.9655C143.58 11.4246 144.691 11.1541 145.935 11.1541C147.382 11.1541 148.687 11.5182 149.85 12.2464C151.032 12.9745 151.96 14.0148 152.633 15.3671C153.326 16.6986 153.673 18.2486 153.673 20.017C153.673 21.7854 153.326 23.3562 152.633 24.7293C151.96 26.0816 151.032 27.1323 149.85 27.8813C148.687 28.6302 147.382 29.0047 145.935 29.0047C144.691 29.0047 143.59 28.7447 142.631 28.2245C141.693 27.7044 140.929 27.0491 140.337 26.2585V36.9626H136.055V11.435H140.337V13.9316ZM149.299 20.017C149.299 18.9768 149.085 18.0821 148.657 17.3332C148.249 16.5634 147.698 15.9808 147.005 15.5856C146.332 15.1903 145.598 14.9926 144.803 14.9926C144.028 14.9926 143.294 15.2007 142.601 15.6168C141.928 16.0121 141.377 16.5946 140.949 17.3644C140.541 18.1342 140.337 19.0392 140.337 20.0794C140.337 21.1197 140.541 22.0247 140.949 22.7945C141.377 23.5642 141.928 24.1572 142.601 24.5733C143.294 24.9686 144.028 25.1662 144.803 25.1662C145.598 25.1662 146.332 24.9582 147.005 24.5421C147.698 24.126 148.249 23.533 148.657 22.7632C149.085 21.9935 149.299 21.078 149.299 20.017Z" fill="#060606"/>
<path d="M165.104 11.1853C166.388 11.1853 167.53 11.4766 168.529 12.0591C169.529 12.6209 170.303 13.4635 170.854 14.5869C171.425 15.6896 171.71 17.0211 171.71 18.5815V28.7239H167.428V19.1744C167.428 17.8013 167.092 16.7506 166.419 16.0225C165.746 15.2735 164.829 14.899 163.666 14.899C162.484 14.899 161.546 15.2735 160.852 16.0225C160.179 16.7506 159.843 17.8013 159.843 19.1744V28.7239H155.561V2.37963H159.843V13.5883C160.394 12.8393 161.128 12.2568 162.045 11.8407C162.963 11.4038 163.982 11.1853 165.104 11.1853Z" fill="#060606"/>
<path d="M176.73 9.37528C175.976 9.37528 175.344 9.13603 174.834 8.65751C174.345 8.15819 174.1 7.54445 174.1 6.81628C174.1 6.0881 174.345 5.48476 174.834 5.00625C175.344 4.50693 175.976 4.25727 176.73 4.25727C177.485 4.25727 178.107 4.50693 178.596 5.00625C179.106 5.48476 179.361 6.0881 179.361 6.81628C179.361 7.54445 179.106 8.15819 178.596 8.65751C178.107 9.13603 177.485 9.37528 176.73 9.37528ZM178.841 11.435V28.7239H174.559V11.435H178.841Z" fill="#060606"/>
<path d="M188.332 29.0047C186.946 29.0047 185.702 28.7551 184.601 28.2557C183.5 27.7356 182.623 27.0387 181.97 26.1649C181.338 25.291 180.992 24.3236 180.93 23.2626H185.243C185.325 23.9283 185.641 24.4797 186.191 24.9166C186.762 25.3535 187.466 25.5719 188.302 25.5719C189.117 25.5719 189.749 25.4055 190.198 25.0726C190.667 24.7397 190.901 24.3132 190.901 23.7931C190.901 23.2314 190.616 22.8153 190.045 22.5448C189.495 22.2535 188.608 21.9415 187.384 21.6086C186.12 21.2965 185.08 20.974 184.264 20.6411C183.469 20.3083 182.776 19.7985 182.185 19.112C181.614 18.4254 181.328 17.4996 181.328 16.3345C181.328 15.3775 181.593 14.5037 182.123 13.7131C182.674 12.9225 183.449 12.2984 184.448 11.8407C185.467 11.383 186.66 11.1541 188.026 11.1541C190.045 11.1541 191.656 11.6742 192.859 12.7145C194.062 13.7339 194.725 15.1174 194.847 16.8651H190.749C190.687 16.1785 190.402 15.6376 189.892 15.2423C189.403 14.8262 188.74 14.6181 187.904 14.6181C187.129 14.6181 186.528 14.7638 186.1 15.055C185.692 15.3463 185.488 15.752 185.488 16.2721C185.488 16.8547 185.773 17.302 186.344 17.614C186.915 17.9053 187.802 18.207 189.005 18.519C190.229 18.8311 191.238 19.1536 192.033 19.4865C192.828 19.8194 193.511 20.3395 194.082 21.0468C194.674 21.7334 194.98 22.6488 195 23.7931C195 24.7917 194.725 25.6863 194.174 26.4769C193.644 27.2675 192.869 27.8917 191.85 28.3494C190.85 28.7863 189.678 29.0047 188.332 29.0047Z" fill="#060606"/>
<path d="M126.727 10.8622C128.729 10.8622 130.339 11.5206 131.556 12.8372C132.793 14.1329 133.412 15.9511 133.412 18.2918V28.48H129.289V18.8874C129.289 17.529 128.965 16.4945 128.317 15.7839C127.669 15.0525 126.786 14.6867 125.667 14.6867C124.548 14.6867 123.655 15.0525 122.987 15.7839C122.339 16.4945 122.015 17.529 122.015 18.8874V28.48H117.893V18.8874C117.893 17.529 117.569 16.4945 116.921 15.7839C116.273 15.0525 115.39 14.6867 114.271 14.6867C113.132 14.6867 112.229 15.0525 111.562 15.7839C110.914 16.4945 110.59 17.529 110.59 18.8874V28.48H106.467V11.113H110.59V13.2134C111.12 12.4819 111.797 11.9072 112.622 11.4892C113.466 11.0712 114.389 10.8622 115.39 10.8622C116.666 10.8622 117.804 11.1548 118.806 11.74C119.807 12.3043 120.582 13.1193 121.132 14.1852C121.662 13.182 122.428 12.3774 123.429 11.7713C124.45 11.1653 125.549 10.8622 126.727 10.8622Z" fill="#060606"/>
<path fill-rule="evenodd" clip-rule="evenodd" d="M23.7052 35.802C23.5833 36.2895 23.3385 36.7096 22.9795 37.1138C22.5889 37.5472 22.0436 37.9183 21.4605 38.2099C20.133 38.8736 18.5932 39.0736 17.0744 38.8776L17.0644 38.8763L17.0543 38.8753C15.6778 38.7329 14.3534 38.165 13.3153 37.2263L1.0303 25.0477C0.681871 24.6992 0.443444 24.4082 0.290189 24.0634C0.121692 23.6843 0.0403267 23.317 0.0395508 22.9029L0.146412 16.1706L0.144661 16.1408C0.105481 15.4748 0.331653 14.831 0.891069 14.2286L0.895299 14.224L0.899456 14.2194C1.28841 13.7872 1.83124 13.4169 2.41223 13.1255C3.72044 12.5093 5.31851 12.2979 6.83599 12.4875C8.36169 12.6783 9.72292 13.2629 10.6034 14.1434L10.6053 14.1452L22.9221 26.3021L22.9377 26.3159C23.2973 26.6356 23.5513 27.0463 23.7294 27.5361C23.8513 27.8714 23.9246 28.1668 23.9468 28.4564L23.7878 35.2942V35.3035C23.7878 35.4133 23.7556 35.6003 23.7052 35.802Z" fill="#FFC633"/>
<path d="M27.8133 23.9172C27.8358 23.8938 27.858 23.8701 27.8801 23.8463C28.3099 23.3854 28.6159 22.823 28.7693 22.2117C28.8272 21.9817 28.8594 21.7459 28.8652 21.5088L28.9932 14.6229C28.9883 14.855 28.91 14.4392 28.8549 14.6648C28.9043 14.4374 28.989 14.8686 28.993 14.6378C28.9998 14.2431 28.9404 13.8478 28.8158 13.4698C28.6182 12.8705 28.2639 12.3351 27.7896 11.919C25.7023 9.84766 21.6022 9.32585 18.663 10.7475C17.9983 11.06 17.3999 11.4975 16.9005 12.0361C16.1838 12.8198 15.8425 13.7407 15.9094 14.6635L15.8396 18.0031L23.6525 25.7145C23.6979 25.7549 23.7419 25.7962 23.7845 25.8385C24.5986 25.7185 25.39 25.4877 26.1123 25.1403C26.7488 24.8391 27.3255 24.4243 27.8133 23.9172Z" fill="#61DFC6"/>
<path d="M48.3533 15.7313C48.4478 15.9915 48.5122 16.2268 48.5469 16.4504C48.5574 16.5182 48.5652 16.585 48.5703 16.6514L48.4116 23.4893V23.4986C48.4116 23.6085 48.3795 23.7954 48.3292 23.9971C48.2075 24.4847 47.9633 24.9047 47.6052 25.309C47.2154 25.7424 46.6714 26.1135 46.0895 26.4051C44.765 27.0688 43.2286 27.2687 41.7133 27.0728L41.7033 27.0715L41.6933 27.0704C40.3198 26.928 38.9984 26.3602 37.9626 25.4215L29.7792 17.2223L29.8197 14.8075C29.8284 14.3226 29.7152 13.598 29.5625 13.1337C29.4444 12.7747 29.2805 12.4344 29.0762 12.1208C28.8668 11.7994 28.6147 11.5059 28.3259 11.249C27.379 10.3149 26.0787 9.82741 24.7161 9.49255L24.8233 4.36574L24.8215 4.33598C24.7824 3.66991 25.0081 3.02619 25.5663 2.42374L25.5705 2.41919L25.5746 2.41457C25.9627 1.9824 26.5043 1.61205 27.084 1.32067C28.3893 0.704439 29.9838 0.493005 31.4978 0.68269C33.0201 0.873402 34.3783 1.45802 35.2568 2.33854L35.2587 2.34039L47.5479 14.4972L47.5634 14.5111C47.9222 14.8307 48.1756 15.2414 48.3533 15.7313Z" fill="#6557FF"/>
</svg>
