<svg width="218" height="149" viewBox="0 0 218 149" fill="none" xmlns="http://www.w3.org/2000/svg">
<path d="M34.9138 52.3831C34.9197 51.5803 34.2727 50.9248 33.4686 50.9188L2.16667 50.6886C1.3626 50.6827 0.705988 51.3287 0.700084 52.1315L0.0105769 145.885C0.004673 146.688 0.651717 147.344 1.45579 147.349L32.7577 147.58C33.5618 147.586 34.2184 146.94 34.2243 146.137L34.9138 52.3831Z" fill="#FDECC2"/>
<path d="M68.8817 86.0663C68.8876 85.2635 68.2406 84.6079 67.4365 84.602L5.56057 84.147C4.75649 84.141 4.09987 84.787 4.09397 85.5898L3.65033 145.912C3.64443 146.715 4.29147 147.37 5.09555 147.376L66.9715 147.831C67.7755 147.837 68.4322 147.191 68.4381 146.388L68.8817 86.0663Z" fill="#FDECC2"/>
<path d="M99.9538 117.548C99.9597 116.745 99.3126 116.089 98.5086 116.083L1.69097 115.371C0.886898 115.366 0.230281 116.012 0.224377 116.814L0.0105769 145.885C0.004673 146.688 0.651717 147.344 1.45579 147.349L98.2734 148.061C99.0775 148.067 99.7341 147.421 99.74 146.619L99.9538 117.548Z" fill="#FDECC2"/>
<path d="M133.403 147.224C133.403 124.582 152.341 106.227 175.701 106.227C199.062 106.227 218 124.582 218 147.224H133.403Z" fill="#605CFF"/>
<circle cx="175.701" cy="61.3253" r="40.3463" fill="#FDB927"/>
<path d="M47.248 0C43.5501 18.7681 32.2252 33.4513 13.5046 35.1359C31.763 37.0612 45.1679 50.7754 47.248 70.2718C49.7903 51.4974 62.5018 35.614 80.9913 35.1359C64.3507 31.7635 48.6347 19.2494 47.248 0Z" fill="url(#paint0_linear_3139_12591)"/>
<path d="M26.995 117.297C40.171 110.013 53.3469 110.013 66.5229 117.297C79.6988 124.582 92.8748 124.582 106.051 117.297C119.227 110.013 132.403 110.013 145.579 117.297C158.755 124.582 171.931 124.582 185.107 117.297" stroke="#3F3F3F" stroke-width="1.41246"/>
<defs>
<linearGradient id="paint0_linear_3139_12591" x1="92.1761" y1="70.0215" x2="-77.443" y2="70.5743" gradientUnits="userSpaceOnUse">
<stop offset="0.199323" stop-color="#55E5C8"/>
<stop offset="0.51223" stop-color="white"/>
</linearGradient>
</defs>
</svg>
