<svg width="24" height="24" viewBox="0 0 24 24" fill="none" xmlns="http://www.w3.org/2000/svg">
<path d="M12.708 16.7917L13.6882 17.3613C14.1813 15.5724 16.0731 14.5108 17.9135 14.9901C18.8556 15.2355 19.6017 15.837 20.0394 16.6058M21.333 19.6667L20.353 19.0971C19.8599 20.886 17.9681 21.9476 16.1277 21.4682C15.2074 21.2286 14.4743 20.649 14.0328 19.9058" stroke="#FFC633" stroke-width="1.6942" stroke-linecap="round" stroke-linejoin="round"/>
<path d="M20.3748 12.9582V11.5207C20.3748 7.22893 20.3748 5.08305 19.0416 3.74978C17.7083 2.4165 15.5624 2.4165 11.2707 2.4165C6.97892 2.4165 4.83305 2.4165 3.49978 3.74978C2.1665 5.08305 2.1665 7.22893 2.1665 11.5207C2.1665 15.8124 2.1665 17.9583 3.49978 19.2916C4.67506 20.4668 6.48178 20.6061 9.83317 20.6226H10.7915" stroke="white" stroke-width="1.6942" stroke-linecap="round"/>
<path d="M2.1665 11.521H20.3748" stroke="white" stroke-width="1.6942" stroke-linecap="round" stroke-linejoin="round"/>
<path d="M12.2288 6.729L16.0621 6.729" stroke="white" stroke-width="1.6942" stroke-linecap="round" stroke-linejoin="round"/>
<circle cx="7.67692" cy="6.72917" r="1.19792" stroke="white" stroke-width="1.6942" stroke-linecap="round" stroke-linejoin="round"/>
<circle cx="7.67692" cy="16.3127" r="1.19792" stroke="white" stroke-width="1.6942" stroke-linecap="round" stroke-linejoin="round"/>
</svg>
