<svg width="12" height="12" viewBox="0 0 12 12" fill="none" xmlns="http://www.w3.org/2000/svg">
<path d="M11 2.75C11 3.7165 10.2165 4.5 9.25 4.5C8.2835 4.5 7.5 3.7165 7.5 2.75C7.5 1.7835 8.2835 1 9.25 1C10.2165 1 11 1.7835 11 2.75Z" stroke="#6557FF" stroke-width="0.9375"/>
<path d="M10.9753 5.5C10.9916 5.66445 11 5.83125 11 6C11 8.76142 8.76142 11 6 11C3.23858 11 1 8.76142 1 6C1 3.23858 3.23858 1 6 1C6.16875 1 6.33555 1.00836 6.5 1.02469" stroke="#6557FF" stroke-width="0.9375" stroke-linecap="round"/>
<path d="M4 5H6" stroke="#6557FF" stroke-width="0.9375" stroke-linecap="round" stroke-linejoin="round"/>
<path d="M4 7.5H8" stroke="#6557FF" stroke-width="0.9375" stroke-linecap="round" stroke-linejoin="round"/>
</svg>
