<svg width="16" height="16" viewBox="0 0 16 16" fill="none" xmlns="http://www.w3.org/2000/svg">
<path fill-rule="evenodd" clip-rule="evenodd" d="M13.7777 6.60254H1.89502C1.61902 6.60254 1.39502 6.37854 1.39502 6.10254C1.39502 5.82654 1.61902 5.60254 1.89502 5.60254H13.7777C14.0537 5.60254 14.2777 5.82654 14.2777 6.10254C14.2777 6.37854 14.0537 6.60254 13.7777 6.60254Z" fill="#4A495C" fill-opacity="0.8"/>
<path fill-rule="evenodd" clip-rule="evenodd" d="M10.801 9.20605C10.525 9.20605 10.2983 8.98205 10.2983 8.70605C10.2983 8.43005 10.519 8.20605 10.795 8.20605H10.801C11.077 8.20605 11.301 8.43005 11.301 8.70605C11.301 8.98205 11.077 9.20605 10.801 9.20605Z" fill="#4A495C" fill-opacity="0.8"/>
<path fill-rule="evenodd" clip-rule="evenodd" d="M7.84251 9.20605C7.56651 9.20605 7.33984 8.98205 7.33984 8.70605C7.33984 8.43005 7.56051 8.20605 7.83651 8.20605H7.84251C8.11851 8.20605 8.34251 8.43005 8.34251 8.70605C8.34251 8.98205 8.11851 9.20605 7.84251 9.20605Z" fill="#4A495C" fill-opacity="0.8"/>
<path fill-rule="evenodd" clip-rule="evenodd" d="M4.87833 9.20605C4.60233 9.20605 4.375 8.98205 4.375 8.70605C4.375 8.43005 4.59633 8.20605 4.87233 8.20605H4.87833C5.15433 8.20605 5.37833 8.43005 5.37833 8.70605C5.37833 8.98205 5.15433 9.20605 4.87833 9.20605Z" fill="#4A495C" fill-opacity="0.8"/>
<path fill-rule="evenodd" clip-rule="evenodd" d="M10.801 11.7969C10.525 11.7969 10.2983 11.5729 10.2983 11.2969C10.2983 11.0209 10.519 10.7969 10.795 10.7969H10.801C11.077 10.7969 11.301 11.0209 11.301 11.2969C11.301 11.5729 11.077 11.7969 10.801 11.7969Z" fill="#4A495C" fill-opacity="0.8"/>
<path fill-rule="evenodd" clip-rule="evenodd" d="M7.84251 11.7969C7.56651 11.7969 7.33984 11.5729 7.33984 11.2969C7.33984 11.0209 7.56051 10.7969 7.83651 10.7969H7.84251C8.11851 10.7969 8.34251 11.0209 8.34251 11.2969C8.34251 11.5729 8.11851 11.7969 7.84251 11.7969Z" fill="#4A495C" fill-opacity="0.8"/>
<path fill-rule="evenodd" clip-rule="evenodd" d="M4.87833 11.7969C4.60233 11.7969 4.375 11.5729 4.375 11.2969C4.375 11.0209 4.59633 10.7969 4.87233 10.7969H4.87833C5.15433 10.7969 5.37833 11.0209 5.37833 11.2969C5.37833 11.5729 5.15433 11.7969 4.87833 11.7969Z" fill="#4A495C" fill-opacity="0.8"/>
<path fill-rule="evenodd" clip-rule="evenodd" d="M10.5293 3.86002C10.2533 3.86002 10.0293 3.63602 10.0293 3.36002V1.16602C10.0293 0.890016 10.2533 0.666016 10.5293 0.666016C10.8053 0.666016 11.0293 0.890016 11.0293 1.16602V3.36002C11.0293 3.63602 10.8053 3.86002 10.5293 3.86002Z" fill="#4A495C" fill-opacity="0.8"/>
<path fill-rule="evenodd" clip-rule="evenodd" d="M5.14355 3.86002C4.86755 3.86002 4.64355 3.63602 4.64355 3.36002V1.16602C4.64355 0.890016 4.86755 0.666016 5.14355 0.666016C5.41955 0.666016 5.64355 0.890016 5.64355 1.16602V3.36002C5.64355 3.63602 5.41955 3.86002 5.14355 3.86002Z" fill="#4A495C" fill-opacity="0.8"/>
<mask id="mask0_3289_11832" style="mask-type:alpha" maskUnits="userSpaceOnUse" x="1" y="1" width="14" height="14">
<path fill-rule="evenodd" clip-rule="evenodd" d="M1.3335 1.71875H14.3335V14.9994H1.3335V1.71875Z" fill="white"/>
</mask>
<g mask="url(#mask0_3289_11832)">
<path fill-rule="evenodd" clip-rule="evenodd" d="M5.01416 2.71875C3.2855 2.71875 2.3335 3.64075 2.3335 5.31475V11.3474C2.3335 13.0581 3.2855 13.9994 5.01416 13.9994H10.6528C12.3815 13.9994 13.3335 13.0754 13.3335 11.3981V5.31475C13.3362 4.49142 13.1148 3.85142 12.6755 3.41142C12.2235 2.95808 11.5268 2.71875 10.6588 2.71875H5.01416ZM10.6528 14.9994H5.01416C2.74416 14.9994 1.3335 13.6001 1.3335 11.3474V5.31475C1.3335 3.09608 2.74416 1.71875 5.01416 1.71875H10.6588C11.7982 1.71875 12.7402 2.06008 13.3835 2.70475C14.0082 3.33208 14.3368 4.23408 14.3335 5.31608V11.3981C14.3335 13.6194 12.9228 14.9994 10.6528 14.9994Z" fill="#4A495C" fill-opacity="0.8"/>
</g>
</svg>
