<svg width="48" height="48" viewBox="0 0 48 48" fill="none" xmlns="http://www.w3.org/2000/svg">
<rect width="48" height="48" rx="24" fill="#6557FF" fill-opacity="0.1"/>
<path fill-rule="evenodd" clip-rule="evenodd" d="M23.7281 33.9137C23.8388 33.9715 23.9627 34.0009 24.0865 34C24.2103 33.999 24.3331 33.9686 24.4449 33.9097L28.0128 32.0025C29.0245 31.4631 29.8168 30.8601 30.435 30.1579C31.779 28.6282 32.5129 26.6758 32.4998 24.6626L32.4575 18.022C32.4535 17.2571 31.9511 16.5746 31.2082 16.3265L24.5707 14.0996C24.1711 13.9642 23.7331 13.9672 23.3405 14.1064L16.7282 16.4128C15.9893 16.6707 15.496 17.3581 15.5 18.124L15.5423 24.7597C15.5554 26.7758 16.3145 28.7194 17.6806 30.2335C18.3048 30.9258 19.1041 31.52 20.127 32.0505L23.7281 33.9137ZM22.7836 26.1089C22.9326 26.2521 23.1259 26.3227 23.3192 26.3207C23.5125 26.3198 23.7047 26.2472 23.8517 26.1021L27.7508 22.2581C28.0438 21.9688 28.0408 21.504 27.7448 21.2187C27.4478 20.9333 26.9696 20.9353 26.6766 21.2245L23.3081 24.5449L21.9289 23.2191C21.6319 22.9337 21.1547 22.9367 20.8607 23.226C20.5677 23.5152 20.5708 23.98 20.8678 24.2654L22.7836 26.1089Z" fill="#6557FF"/>
</svg>
