<svg width="24" height="24" viewBox="0 0 24 24" fill="none" xmlns="http://www.w3.org/2000/svg">
<circle cx="12" cy="12" r="12" fill="#6557FF"/>
<path d="M9.625 14.9375C9.625 14.7649 9.76529 14.626 9.93756 14.6154C12.45 14.4604 14.4604 12.45 14.6154 9.93756C14.626 9.76529 14.7649 9.625 14.9375 9.625H15.875C16.5654 9.625 17.125 10.1846 17.125 10.875V15.875C17.125 16.5654 16.5654 17.125 15.875 17.125H10.875C10.1846 17.125 9.625 16.5654 9.625 15.875V14.9375Z" fill="white"/>
<path d="M13.375 9.625C13.375 11.6961 11.6961 13.375 9.625 13.375C7.55393 13.375 5.875 11.6961 5.875 9.625C5.875 7.55393 7.55393 5.875 9.625 5.875C11.6961 5.875 13.375 7.55393 13.375 9.625Z" fill="white"/>
</svg>
