<svg width="48" height="48" viewBox="0 0 48 48" fill="none" xmlns="http://www.w3.org/2000/svg">
<rect width="48" height="48" rx="24" fill="#6557FF" fill-opacity="0.1"/>
<path fill-rule="evenodd" clip-rule="evenodd" d="M24.5029 16.32L26.0029 17L25.3229 15.5L26.0029 14L24.5029 14.68L23.0029 14L23.6829 15.5L23.0029 17L24.5029 16.32ZM30.8825 16.96L33.0025 16L32.0425 18.12L33.0025 20.24L30.8825 19.28L28.7625 20.24L29.7225 18.12L28.7625 16L30.8825 16.96ZM23.1725 19.83C24.2725 18.72 26.0625 18.72 27.1725 19.83C28.2825 20.93 28.2825 22.72 27.1725 23.83L19.8325 31.17C18.7325 32.28 16.9425 32.28 15.8325 31.17C14.7225 30.07 14.7225 28.28 15.8325 27.17L23.1725 19.83ZM23.7725 25.11L26.1225 22.76C26.6425 22.24 26.6425 21.4 26.1225 20.88C25.6025 20.36 24.7625 20.36 24.2425 20.88L21.8925 23.23C21.3725 23.75 21.3725 24.59 21.8925 25.11C22.4125 25.63 23.2525 25.63 23.7725 25.11ZM27.0029 26L30.0029 27.36L33.0029 26L31.6429 29L33.0029 32L30.0029 30.64L27.0029 32L28.3629 29L27.0029 26Z" fill="#6557FF"/>
</svg>
