<svg width="48" height="48" viewBox="0 0 48 48" fill="none" xmlns="http://www.w3.org/2000/svg">
<rect width="48" height="48" rx="24" fill="#6557FF" fill-opacity="0.1"/>
<path fill-rule="evenodd" clip-rule="evenodd" d="M31.5111 16.4889C30.8593 15.837 29.8026 15.837 29.1508 16.4889C28.7603 16.8794 28.1271 16.8794 27.7366 16.4889C27.346 16.0983 27.346 15.4652 27.7366 15.0746C29.1694 13.6418 31.4925 13.6418 32.9254 15.0746C34.3582 16.5075 34.3582 18.8306 32.9254 20.2635L30.5662 22.6226C29.1983 23.9906 27.0199 24.0524 25.5777 22.8086C25.1594 22.4479 25.1128 21.8165 25.4735 21.3982C25.8342 20.98 26.4656 20.9334 26.8839 21.2941C27.5388 21.8589 28.5302 21.8302 29.152 21.2084L31.5111 18.8493C32.163 18.1975 32.163 17.1407 31.5111 16.4889ZM28.1161 19.7059C27.4612 19.1411 26.4698 19.1698 25.848 19.7916L23.4889 22.1507C22.837 22.8025 22.837 23.8593 23.4889 24.5111C24.1407 25.163 25.1974 25.163 25.8492 24.5111C26.2397 24.1206 26.8729 24.1206 27.2634 24.5111C27.654 24.9017 27.654 25.5348 27.2634 25.9254C25.8306 27.3582 23.5075 27.3582 22.0746 25.9254C20.6418 24.4925 20.6418 22.1694 22.0746 20.7365L24.4338 18.3774C25.8017 17.0094 27.9801 16.9476 29.4223 18.1914C29.8406 18.5521 29.8872 19.1835 29.5265 19.6017C29.1658 20.02 28.5344 20.0666 28.1161 19.7059Z" fill="#6557FF"/>
<path opacity="0.4" fill-rule="evenodd" clip-rule="evenodd" d="M22.9537 14.25L23.025 14.25C23.5635 14.25 24 14.6865 24 15.225C24 15.7635 23.5635 16.2 23.025 16.2C21.159 16.2 19.8575 16.2021 18.8756 16.3341C17.9216 16.4623 17.4165 16.6969 17.0567 17.0567C16.6969 17.4165 16.4623 17.9216 16.3341 18.8756C16.2021 19.8575 16.2 21.159 16.2 23.025V24.975C16.2 26.841 16.2021 28.1425 16.3341 29.1244C16.4623 30.0784 16.6969 30.5835 17.0567 30.9433C17.4165 31.3031 17.9216 31.5377 18.8756 31.6659C19.8575 31.7979 21.159 31.8 23.025 31.8H24.975C26.841 31.8 28.1425 31.7979 29.1244 31.6659C30.0784 31.5377 30.5835 31.3031 30.9433 30.9433C31.3031 30.5835 31.5377 30.0784 31.6659 29.1244C31.7979 28.1425 31.8 26.841 31.8 24.975C31.8 24.4365 32.2365 24 32.775 24C33.3135 24 33.75 24.4365 33.75 24.975V25.0463C33.75 26.8242 33.75 28.2572 33.5985 29.3843C33.4412 30.5544 33.1046 31.5397 32.3221 32.3221C31.5397 33.1046 30.5544 33.4412 29.3843 33.5985C28.2572 33.75 26.8242 33.75 25.0463 33.75H22.9537C21.1758 33.75 19.7428 33.75 18.6157 33.5985C17.4456 33.4412 16.4603 33.1046 15.6779 32.3221C14.8954 31.5397 14.5588 30.5544 14.4015 29.3843C14.25 28.2572 14.25 26.8242 14.25 25.0463V22.9537C14.25 21.1758 14.25 19.7428 14.4015 18.6157C14.5588 17.4456 14.8954 16.4603 15.6779 15.6779C16.4603 14.8954 17.4456 14.5588 18.6157 14.4015C19.7428 14.25 21.1758 14.25 22.9537 14.25Z" fill="#6557FF"/>
</svg>
