<svg width="14" height="13" viewBox="0 0 14 13" fill="none" xmlns="http://www.w3.org/2000/svg">
<path fill-rule="evenodd" clip-rule="evenodd" d="M12.7005 12.1341C12.9934 11.8412 13.0979 11.4709 12.9341 11.307L8.06075 6.43371L13.2874 1.20703C13.4513 1.04314 13.3467 0.672837 13.0539 0.379944C12.7935 0.119595 12.472 0.00803948 12.2887 0.101571L12.2268 0.146369L7.00009 5.37305L1.7734 0.146369L1.71152 0.101571C1.52818 0.00803948 1.20667 0.119595 0.94632 0.379944C0.653427 0.672837 0.548851 1.04314 0.712744 1.20703L5.93943 6.43371L1.06612 11.307C0.902227 11.4709 1.0068 11.8412 1.2997 12.1341C1.56005 12.3945 1.88155 12.506 2.06489 12.4125L2.12678 12.3677L7.00009 7.49437L11.8734 12.3677L11.9353 12.4125C12.1186 12.506 12.4401 12.3945 12.7005 12.1341Z" fill="#1D1D1D"/>
</svg>
