<svg width="18" height="15" viewBox="0 0 18 15" fill="none" xmlns="http://www.w3.org/2000/svg">
<g filter="url(#filter0_d_3444_3360)">
<path d="M4.74992 13.182C3.53199 13.182 2.49126 12.7604 1.62774 11.9172C0.764212 11.074 0.332717 10.0435 0.333252 8.82554C0.333252 7.7816 0.647773 6.85143 1.27681 6.03501C1.90585 5.2186 2.72896 4.69663 3.74613 4.4691C4.08073 3.23779 4.74992 2.24069 5.75371 1.47781C6.75749 0.714936 7.89512 0.333496 9.16658 0.333496C10.7325 0.333496 12.061 0.879021 13.152 1.97007C14.2431 3.06112 14.7883 4.38933 14.7878 5.95471C15.7113 6.06178 16.4776 6.46008 17.0869 7.14962C17.6961 7.83915 18.0005 8.6454 17.9999 9.56834C17.9999 10.5721 17.6485 11.4255 16.9455 12.1284C16.2426 12.8313 15.3895 13.1825 14.3863 13.182H4.74992Z" fill="url(#paint0_linear_3444_3360)"/>
</g>
<path fill-rule="evenodd" clip-rule="evenodd" d="M8.89995 10.2091C8.87986 10.2895 8.83952 10.3587 8.78036 10.4253C8.716 10.4967 8.62613 10.5579 8.53004 10.6059C8.31128 10.7153 8.05752 10.7483 7.80724 10.716L7.80559 10.7157L7.80393 10.7156C7.57709 10.6921 7.35883 10.5985 7.18776 10.4439L5.16327 8.43687L5.16308 8.43669C5.10566 8.37925 5.06656 8.3315 5.0413 8.27467C5.01354 8.21219 5.00013 8.15166 5 8.08342L5.01761 6.97398L5.01732 6.96908C5.01086 6.85931 5.04814 6.75323 5.14032 6.65395L5.14102 6.6532L5.14171 6.65244C5.2058 6.58122 5.29526 6.52019 5.391 6.47217C5.60659 6.37062 5.86994 6.33578 6.12001 6.36704C6.37144 6.39847 6.59576 6.4948 6.74086 6.63991L6.74117 6.64021L8.7709 8.64361L8.77347 8.64589C8.83273 8.69853 8.87459 8.76622 8.90394 8.84694C8.92403 8.90221 8.93611 8.95089 8.93977 8.99858L8.91356 10.1254V10.1269C8.91356 10.1451 8.90826 10.1759 8.89995 10.2091Z" fill="white"/>
<path d="M9.78027 6.30615C9.81403 6.35784 9.84108 6.41391 9.86061 6.47306C9.88581 6.54959 9.90452 6.66899 9.9031 6.7489L9.89639 7.14686L11.248 8.49803C11.4191 8.65273 11.6373 8.74632 11.8642 8.76975L11.8658 8.76993L11.8675 8.77014C12.1178 8.80244 12.3715 8.7695 12.5903 8.66013C12.6864 8.61205 12.7762 8.5509 12.8406 8.47949C12.8997 8.41287 12.9401 8.34365 12.9602 8.2633C12.9685 8.23006 12.9738 8.19926 12.9738 8.18115V8.17962L13 7.05277C12.9992 7.04183 12.9979 7.03081 12.9962 7.01964L9.78027 6.30615Z" fill="white"/>
<path d="M12.9963 7.01988C12.9906 6.98305 12.9799 6.94453 12.9643 6.90164C12.935 6.82091 12.8931 6.75323 12.8339 6.70056L12.8313 6.69828L10.8016 4.6949L10.8013 4.6946C10.6562 4.54949 10.4318 4.45315 10.1804 4.42172C9.93034 4.39046 9.66697 4.42531 9.45138 4.52686C9.35565 4.57488 9.26619 4.63591 9.20211 4.70713L9.20142 4.70789L9.20074 4.70864C9.10853 4.80792 9.07126 4.914 9.07771 5.02376L9.078 5.02867L9.0603 5.87354C9.28537 5.92872 9.5001 6.00905 9.65652 6.16299C9.70421 6.20533 9.74584 6.2537 9.78042 6.30665L12.9963 7.01988Z" fill="white"/>
<path d="M9.57696 8.25042C9.58066 8.24657 9.58431 8.24267 9.58797 8.23875C9.6588 8.16279 9.7092 8.07011 9.73449 7.96937C9.74404 7.93146 9.74933 7.89261 9.75032 7.85354L9.77139 6.71878C9.77057 6.75704 9.75767 6.68851 9.7486 6.72569C9.75677 6.68822 9.7707 6.75927 9.77135 6.72124L9.77139 6.72115C9.77247 6.6561 9.7627 6.59105 9.74215 6.52875C9.70959 6.43 9.65123 6.34176 9.57304 6.27319C9.22908 5.93185 8.55341 5.84586 8.06904 6.08015C7.9595 6.13164 7.86089 6.20374 7.7786 6.2925C7.66049 6.42164 7.60424 6.5734 7.61526 6.72547L7.61323 6.8228L9.57696 8.25042L9.57687 8.25047L7.61323 6.8228L7.60376 7.27581L8.89128 8.54662C8.89877 8.55327 8.90602 8.56008 8.91304 8.56705C9.04719 8.54727 9.17762 8.50923 9.29664 8.45198C9.40153 8.40234 9.49649 8.33405 9.57687 8.25047L9.57696 8.25042Z" fill="white"/>
<defs>
<filter id="filter0_d_3444_3360" x="0.333252" y="0.333496" width="17.6667" height="13.7852" filterUnits="userSpaceOnUse" color-interpolation-filters="sRGB">
<feFlood flood-opacity="0" result="BackgroundImageFix"/>
<feColorMatrix in="SourceAlpha" type="matrix" values="0 0 0 0 0 0 0 0 0 0 0 0 0 0 0 0 0 0 127 0" result="hardAlpha"/>
<feOffset dy="0.936571"/>
<feComposite in2="hardAlpha" operator="out"/>
<feColorMatrix type="matrix" values="0 0 0 0 1 0 0 0 0 0.776 0 0 0 0 0.2 0 0 0 1 0"/>
<feBlend mode="normal" in2="BackgroundImageFix" result="effect1_dropShadow_3444_3360"/>
<feBlend mode="normal" in="SourceGraphic" in2="effect1_dropShadow_3444_3360" result="shape"/>
</filter>
<linearGradient id="paint0_linear_3444_3360" x1="1.7828" y1="1.70329" x2="17.8396" y2="6.98978" gradientUnits="userSpaceOnUse">
<stop stop-color="#6453FF"/>
<stop offset="1" stop-color="#877AFF"/>
</linearGradient>
</defs>
</svg>
