<svg xmlns="http://www.w3.org/2000/svg" width="16" height="15" viewBox="0 0 16 15" fill="none">
    <path d="M9.92851 7.79282C9.76679 7.99497 9.47181 8.02775 9.26966 7.86602L8.46875 7.2253V9.37499C8.46875 9.63388 8.25888 9.84374 8 9.84374C7.74112 9.84374 7.53125 9.63388 7.53125 9.37499V7.22527L6.73031 7.86602C6.52815 8.02775 6.23317 7.99497 6.07145 7.79282C5.90973 7.59066 5.9425 7.29568 6.14466 7.13396L7.70549 5.88529C7.78502 5.82099 7.88602 5.78217 7.99605 5.78126C7.99736 5.78125 7.99868 5.78124 8 5.78124L8.00152 5.78124C8.11346 5.7816 8.21616 5.82119 8.29659 5.88699L9.85531 7.13396C10.0575 7.29568 10.0902 7.59066 9.92851 7.79282Z" fill="black"/>
    <path fill-rule="evenodd" clip-rule="evenodd" d="M5.73752 4.49626C6.3386 3.56232 7.3878 2.94269 8.58244 2.94269C10.3828 2.94269 11.8544 4.34984 11.9576 6.1243C11.9972 6.12263 12.037 6.12179 12.077 6.12179C13.6226 6.12179 14.8755 7.37471 14.8755 8.92026C14.8755 10.4658 13.6226 11.7187 12.077 11.7187H4.79663C2.76857 11.7187 1.1245 10.0747 1.1245 8.04662C1.1245 6.01856 2.76857 4.37449 4.79663 4.37449C5.12142 4.37449 5.43687 4.41677 5.73752 4.49626ZM8.58244 3.88019C7.6135 3.88019 6.77537 4.44414 6.38008 5.26382C6.2738 5.4842 6.0159 5.58577 5.78788 5.49704C5.48117 5.3777 5.14713 5.31199 4.79663 5.31199C3.28634 5.31199 2.062 6.53632 2.062 8.04662C2.062 9.55691 3.28634 10.7812 4.79663 10.7812H12.077C13.1048 10.7812 13.938 9.94805 13.938 8.92026C13.938 7.89247 13.1048 7.05929 12.077 7.05929C11.9098 7.05929 11.7484 7.08123 11.5953 7.12213C11.4451 7.16223 11.2849 7.12532 11.1674 7.02359C11.05 6.92185 10.9905 6.76852 11.0088 6.6142C11.02 6.51908 11.0259 6.42212 11.0259 6.3236C11.0259 4.97414 9.9319 3.88019 8.58244 3.88019Z" fill="black"/>
</svg>