<svg width="16" height="16" viewBox="0 0 16 16" fill="none" xmlns="http://www.w3.org/2000/svg">
<path fill-rule="evenodd" clip-rule="evenodd" d="M4.45675 4.84722C4.72486 5.09956 4.73765 5.52148 4.4853 5.78959L2.24867 8.16602L4.4853 10.5424C4.73765 10.8106 4.72486 11.2325 4.45675 11.4848C4.18863 11.7372 3.76671 11.7244 3.51437 11.4563L0.847704 8.62293C0.606104 8.36623 0.606104 7.96581 0.847704 7.70911L3.51437 4.87577C3.76671 4.60766 4.18863 4.59487 4.45675 4.84722ZM11.5429 4.84722C11.2748 5.09956 11.262 5.52148 11.5144 5.7896L13.751 8.16602L11.5144 10.5424C11.262 10.8106 11.2748 11.2325 11.5429 11.4848C11.811 11.7372 12.233 11.7244 12.4853 11.4563L15.152 8.62293C15.3936 8.36623 15.3936 7.96581 15.152 7.70911L12.4853 4.87578C12.233 4.60766 11.811 4.59488 11.5429 4.84722Z" fill="black"/>
<rect opacity="0.3" x="8.73633" y="2.67578" width="1.33333" height="10.6667" rx="0.666667" transform="rotate(15 8.73633 2.67578)" fill="black"/>
</svg>
