<svg width="28" height="28" viewBox="0 0 28 28" fill="none" xmlns="http://www.w3.org/2000/svg">
<path fill-rule="evenodd" clip-rule="evenodd" d="M7.79943 8.48373C8.26863 8.92533 8.29101 9.66369 7.8494 10.1329L3.93529 14.2916L7.8494 18.4504C8.29101 18.9196 8.26863 19.6579 7.79943 20.0995C7.33023 20.5411 6.59187 20.5188 6.15027 20.0496L1.4836 15.0912C1.0608 14.642 1.0608 13.9413 1.4836 13.492L6.15027 8.5337C6.59187 8.0645 7.33023 8.04213 7.79943 8.48373ZM20.2003 8.48373C19.731 8.92534 19.7087 9.66369 20.1503 10.1329L24.0644 14.2916L20.1503 18.4504C19.7087 18.9196 19.731 19.6579 20.2003 20.0995C20.6695 20.5411 21.4078 20.5188 21.8494 20.0496L26.5161 15.0912C26.9389 14.642 26.9389 13.9413 26.5161 13.492L21.8494 8.53371C21.4078 8.0645 20.6695 8.04213 20.2003 8.48373Z" fill="#6557FF"/>
<rect opacity="0.3" x="15.2886" y="4.68274" width="2.33333" height="18.6667" rx="1" transform="rotate(15 15.2886 4.68274)" fill="#6557FF"/>
</svg>
