<svg width="42" height="75" viewBox="0 0 42 75" fill="none" xmlns="http://www.w3.org/2000/svg">
<path d="M2.9292 44.2673L21.8921 34.9701C22.1725 34.8327 22.501 34.8341 22.7802 34.9739L41.3321 44.2673V62.7039C41.3321 63.0701 41.1319 63.407 40.8103 63.5822L22.3371 73.6408L3.4589 63.5803C3.13288 63.4066 2.9292 63.0673 2.9292 62.6978V44.2673Z" fill="white"/>
<path d="M41.3321 44.2673L22.3371 54.1964M41.3321 44.2673L22.7802 34.9739C22.501 34.8341 22.1725 34.8327 21.8921 34.9701L2.9292 44.2673M41.3321 44.2673V62.7039C41.3321 63.0701 41.1319 63.407 40.8103 63.5822L22.3371 73.6408M22.3371 54.1964L2.9292 44.2673M22.3371 54.1964V73.6408M2.9292 44.2673V62.6978C2.9292 63.0673 3.13288 63.4066 3.4589 63.5803L22.3371 73.6408" stroke="#D8D8D8"/>
<line x1="22.1743" y1="34.752" x2="22.1743" y2="53.7827" stroke="#D8D8D8" stroke-width="0.5"/>
<path d="M21.1151 18.7507C21.3376 18.5213 21.7236 18.6061 21.8299 18.9075L25.3998 29.0241C25.5125 29.3434 25.2296 29.6617 24.8994 29.5871L13.923 27.106C13.5951 27.0319 13.4746 26.6273 13.7086 26.3861L21.1151 18.7507Z" fill="#44E2C3"/>
<path d="M21.1151 18.7507C21.3376 18.5213 21.7236 18.6061 21.8299 18.9075L25.3998 29.0241C25.5125 29.3434 25.2296 29.6617 24.8994 29.5871L13.923 27.106C13.5951 27.0319 13.4746 26.6273 13.7086 26.3861L21.1151 18.7507Z" fill="url(#paint0_linear_1626_5976)" fill-opacity="0.65"/>
<path d="M7.09882 13.9258C7.09882 17.3969 4.29029 20.2107 0.825684 20.2107C4.29029 20.2107 7.09882 23.0246 7.09882 26.4957C7.09882 23.0246 9.90736 20.2107 13.372 20.2107C9.90736 20.2107 7.09882 17.3969 7.09882 13.9258Z" fill="#6557FF"/>
<path d="M27.723 1.40527C27.723 3.74258 25.8385 5.63735 23.5137 5.63735C25.8385 5.63735 27.723 7.53212 27.723 9.86943C27.723 7.53212 29.6076 5.63735 31.9324 5.63735C29.6076 5.63735 27.723 3.74258 27.723 1.40527Z" fill="#6557FF"/>
<path d="M27.723 1.40527C27.723 3.74258 25.8385 5.63735 23.5137 5.63735C25.8385 5.63735 27.723 7.53212 27.723 9.86943C27.723 7.53212 29.6076 5.63735 31.9324 5.63735C29.6076 5.63735 27.723 3.74258 27.723 1.40527Z" fill="url(#paint1_linear_1626_5976)" fill-opacity="0.6"/>
<g filter="url(#filter0_d_1626_5976)">
<path d="M30.2253 30.2244C30.1994 30.1371 30.2484 30.0454 30.3348 30.0197L34.2616 28.8502C34.348 28.8244 34.439 28.8744 34.4649 28.9617L37.6594 39.7278C37.6853 39.8151 37.6362 39.9068 37.5498 39.9325L33.623 41.102C33.5366 41.1278 33.4456 41.0778 33.4197 40.9905L30.2253 30.2244Z" fill="#6557FF"/>
<path d="M27.6284 34.9552C27.6025 34.8679 27.6515 34.7763 27.7379 34.7506L34.9495 32.6028C35.0358 32.577 35.1269 32.6269 35.1528 32.7143L37.2683 39.8443C37.2942 39.9316 37.2452 40.0232 37.1588 40.049L29.9472 42.1968C29.8608 42.2225 29.7698 42.1726 29.7439 42.0853L27.6284 34.9552Z" fill="#6557FF"/>
<path d="M25.2739 39.3558C25.248 39.2685 25.297 39.1768 25.3834 39.1511L36.349 35.8853C36.4354 35.8595 36.5264 35.9095 36.5523 35.9968L37.6594 39.7278C37.6853 39.8151 37.6362 39.9068 37.5498 39.9325L26.5843 43.1983C26.4979 43.2241 26.4069 43.1742 26.381 43.0868L25.2739 39.3558Z" fill="#6557FF"/>
</g>
<ellipse cx="14.0243" cy="38.9668" rx="6.31088" ry="6.32276" fill="#FFC13C"/>
<ellipse cx="14.0243" cy="38.9668" rx="6.31088" ry="6.32276" fill="url(#paint2_linear_1626_5976)" fill-opacity="0.45"/>
<path d="M28.7494 20.6688C30.9608 22.2397 34.0246 21.717 35.5925 19.5014C37.1603 17.2858 36.6387 14.2163 34.4272 12.6455L28.7494 20.6688Z" fill="#FFC13C"/>
<path d="M28.7494 20.6688C30.9608 22.2397 34.0246 21.717 35.5925 19.5014C37.1603 17.2858 36.6387 14.2163 34.4272 12.6455L28.7494 20.6688Z" fill="url(#paint3_linear_1626_5976)" fill-opacity="0.4"/>
<path d="M16.4951 3.06215C17.4457 4.75331 16.8486 6.89596 15.1614 7.84788C13.4742 8.79981 11.3358 8.20054 10.3852 6.50938C9.43466 4.81822 10.0318 2.67558 11.719 1.72365C13.4062 0.771723 15.5445 1.37099 16.4951 3.06215Z" fill="#44E2C3"/>
<path d="M16.4951 3.06215C17.4457 4.75331 16.8486 6.89596 15.1614 7.84788C13.4742 8.79981 11.3358 8.20054 10.3852 6.50938C9.43466 4.81822 10.0318 2.67558 11.719 1.72365C13.4062 0.771723 15.5445 1.37099 16.4951 3.06215Z" fill="url(#paint4_linear_1626_5976)" fill-opacity="0.45"/>
<path d="M10.4423 6.61097C10.4333 6.59494 10.439 6.57463 10.455 6.56561L16.5069 3.15105C16.5229 3.14203 16.5432 3.14771 16.5522 3.16374L19.8151 8.9687C19.8241 8.98473 19.8185 9.00504 19.8025 9.01406L13.7505 12.4286C13.7345 12.4376 13.7142 12.432 13.7052 12.4159L10.4423 6.61097Z" fill="#44E2C3"/>
<path d="M10.4423 6.61097C10.4333 6.59494 10.439 6.57463 10.455 6.56561L16.5069 3.15105C16.5229 3.14203 16.5432 3.14771 16.5522 3.16374L19.8151 8.9687C19.8241 8.98473 19.8185 9.00504 19.8025 9.01406L13.7505 12.4286C13.7345 12.4376 13.7142 12.432 13.7052 12.4159L10.4423 6.61097Z" fill="url(#paint5_linear_1626_5976)" fill-opacity="0.45"/>
<defs>
<filter id="filter0_d_1626_5976" x="23.6232" y="27.4734" width="14.5913" height="16.5537" filterUnits="userSpaceOnUse" color-interpolation-filters="sRGB">
<feFlood flood-opacity="0" result="BackgroundImageFix"/>
<feColorMatrix in="SourceAlpha" type="matrix" values="0 0 0 0 0 0 0 0 0 0 0 0 0 0 0 0 0 0 127 0" result="hardAlpha"/>
<feOffset dx="-0.547963" dy="-0.273981"/>
<feGaussianBlur stdDeviation="0.547963"/>
<feComposite in2="hardAlpha" operator="out"/>
<feColorMatrix type="matrix" values="0 0 0 0 0.591667 0 0 0 0 0.561122 0 0 0 0 0.48566 0 0 0 0.03 0"/>
<feBlend mode="normal" in2="BackgroundImageFix" result="effect1_dropShadow_1626_5976"/>
<feBlend mode="normal" in="SourceGraphic" in2="effect1_dropShadow_1626_5976" result="shape"/>
</filter>
<linearGradient id="paint0_linear_1626_5976" x1="15.0654" y1="19.0651" x2="19.5667" y2="26.0631" gradientUnits="userSpaceOnUse">
<stop stop-color="white"/>
<stop offset="1" stop-color="white" stop-opacity="0"/>
</linearGradient>
<linearGradient id="paint1_linear_1626_5976" x1="23.5896" y1="3.23554" x2="28.3165" y2="6.96842" gradientUnits="userSpaceOnUse">
<stop stop-color="white"/>
<stop offset="1" stop-color="white" stop-opacity="0"/>
</linearGradient>
<linearGradient id="paint2_linear_1626_5976" x1="14.6225" y1="40.2489" x2="8.82379" y2="32.7181" gradientUnits="userSpaceOnUse">
<stop stop-color="white" stop-opacity="0"/>
<stop offset="1" stop-color="white"/>
</linearGradient>
<linearGradient id="paint3_linear_1626_5976" x1="34.3849" y1="14.1224" x2="35.9114" y2="19.0017" gradientUnits="userSpaceOnUse">
<stop stop-color="white" stop-opacity="0"/>
<stop offset="1" stop-color="white"/>
</linearGradient>
<linearGradient id="paint4_linear_1626_5976" x1="16.728" y1="7.37661" x2="11.0457" y2="5.48132" gradientUnits="userSpaceOnUse">
<stop stop-color="white" stop-opacity="0"/>
<stop offset="1" stop-color="white"/>
</linearGradient>
<linearGradient id="paint5_linear_1626_5976" x1="16.728" y1="7.37661" x2="11.0457" y2="5.48132" gradientUnits="userSpaceOnUse">
<stop stop-color="white" stop-opacity="0"/>
<stop offset="1" stop-color="white"/>
</linearGradient>
</defs>
</svg>
