<svg width="16" height="16" viewBox="0 0 16 16" fill="none" xmlns="http://www.w3.org/2000/svg">
<path fill-rule="evenodd" clip-rule="evenodd" d="M1.33325 8.00016C1.33325 4.32016 4.31325 1.3335 7.99992 1.3335C11.6799 1.3335 14.6666 4.32016 14.6666 8.00016C14.6666 11.6868 11.6799 14.6668 7.99992 14.6668C4.31325 14.6668 1.33325 11.6868 1.33325 8.00016ZM9.48659 9.22016L10.5666 5.80683C10.6399 5.5735 10.4266 5.3535 10.1933 5.42683L6.77992 6.4935C6.63992 6.54016 6.52659 6.64683 6.48659 6.78683L5.41992 10.2068C5.34659 10.4335 5.56659 10.6535 5.79325 10.5802L9.19325 9.5135C9.33325 9.4735 9.44659 9.36016 9.48659 9.22016Z" fill="#4A3AFF"/>
</svg>
