<svg width="50" height="50" viewBox="0 0 50 50" fill="none" xmlns="http://www.w3.org/2000/svg">
<circle cx="25" cy="25" r="25" fill="#F0EFFF"/>
<mask id="path-2-inside-1_2168_8994" fill="white">
<rect x="11" y="16" width="7" height="18" rx="1"/>
</mask>
<rect x="11" y="16" width="7" height="18" rx="1" fill="#6557FF" stroke="#6557FF" stroke-width="4" mask="url(#path-2-inside-1_2168_8994)"/>
<mask id="path-3-inside-2_2168_8994" fill="white">
<rect x="32.0067" y="16" width="7" height="18" rx="1"/>
</mask>
<rect x="32.0067" y="16" width="7" height="18" rx="1" fill="#F7685B" stroke="#F7685B" stroke-width="4" mask="url(#path-3-inside-2_2168_8994)"/>
<rect x="20" y="12" width="10" height="26" rx="1" fill="#FFC633"/>
<path d="M35.5027 21C33.2947 21 31.5067 22.792 31.5067 25C31.5067 27.208 33.2947 29 35.5027 29C37.7147 29 39.5067 27.208 39.5067 25C39.5067 22.792 37.7147 21 35.5027 21ZM36.8227 26.884L35.1067 25.164V23H35.9067V24.836L37.3907 26.32L36.8227 26.884Z" fill="#6557FF"/>
<path fill-rule="evenodd" clip-rule="evenodd" d="M35.9067 23H35.1067V25.164L36.8227 26.884L37.3907 26.32L35.9067 24.836V23ZM30.1733 25C30.1733 22.0573 32.5566 19.6666 35.5027 19.6666C38.4502 19.6666 40.84 22.0547 40.84 25C40.84 27.9452 38.4502 30.3333 35.5027 30.3333C32.5566 30.3333 30.1733 27.9426 30.1733 25ZM31.5067 25C31.5067 22.792 33.2947 21 35.5027 21C37.7147 21 39.5067 22.792 39.5067 25C39.5067 27.208 37.7147 29 35.5027 29C33.2947 29 31.5067 27.208 31.5067 25Z" fill="#F0EFFF"/>
</svg>
