<svg width="14" height="14" viewBox="0 0 14 14" fill="none" xmlns="http://www.w3.org/2000/svg">
<path fill-rule="evenodd" clip-rule="evenodd" d="M7 1.79167C5.96447 1.79167 5.125 2.63113 5.125 3.66667C5.125 4.7022 5.96447 5.54167 7 5.54167C8.03553 5.54167 8.875 4.7022 8.875 3.66667C8.875 2.63113 8.03553 1.79167 7 1.79167ZM3.875 3.66667C3.875 1.94078 5.27411 0.541668 7 0.541668C8.72589 0.541668 10.125 1.94078 10.125 3.66667C10.125 5.39256 8.72589 6.79167 7 6.79167C5.27411 6.79167 3.875 5.39256 3.875 3.66667Z" fill="#14142B"/>
<path fill-rule="evenodd" clip-rule="evenodd" d="M2.21028 9.80207C3.15977 8.78766 4.68993 8.04167 6.99992 8.04167C9.30991 8.04167 10.8401 8.78766 11.7896 9.80207C12.7227 10.799 13.0416 11.9992 13.0416 12.8333C13.0416 13.1785 12.7618 13.4583 12.4166 13.4583H1.58325C1.23807 13.4583 0.958252 13.1785 0.958252 12.8333C0.958252 11.9992 1.27714 10.799 2.21028 9.80207ZM2.28642 12.2083H11.7134C11.5985 11.7226 11.3451 11.1565 10.8769 10.6563C10.2014 9.93456 9.02326 9.29167 6.99992 9.29167C4.97658 9.29167 3.7984 9.93456 3.12289 10.6563C2.65469 11.1565 2.40131 11.7226 2.28642 12.2083Z" fill="#14142B"/>
</svg>
