<svg width="58" height="50" viewBox="0 0 58 50" fill="none" xmlns="http://www.w3.org/2000/svg">
<circle cx="26.8212" cy="25.2474" r="23.8334" fill="#CFD8EE"/>
<path d="M53.6179 15.4123C54.7455 15.4123 55.6596 14.4982 55.6596 13.3706C55.6596 12.243 54.7455 11.3289 53.6179 11.3289C52.4903 11.3289 51.5762 12.243 51.5762 13.3706C51.5762 14.4982 52.4903 15.4123 53.6179 15.4123Z" fill="#EAEEF9"/>
<path d="M56.6058 7.44469C57.3758 7.44469 58.0001 6.82042 58.0001 6.05035C58.0001 5.28027 57.3758 4.65601 56.6058 4.65601C55.8357 4.65601 55.2114 5.28027 55.2114 6.05035C55.2114 6.82042 55.8357 7.44469 56.6058 7.44469Z" fill="#EAEEF9"/>
<path d="M5.83656 5.17899C7.2667 5.17899 8.42606 4.01963 8.42606 2.5895C8.42606 1.15936 7.2667 0 5.83656 0C4.40643 0 3.24707 1.15936 3.24707 2.5895C3.24707 4.01963 4.40643 5.17899 5.83656 5.17899Z" fill="#EAEEF9"/>
<path d="M36.0382 12.263H23.3423V7.44482H39.9847C40.0152 7.44482 40.0458 7.44482 40.0764 7.44482C42.6768 7.5062 44.7877 9.65443 44.7877 12.263H39.281" fill="#CCD4E2"/>
<path d="M40.4432 7.44482C39.4643 7.5062 38.5465 7.90516 37.904 8.58032C37.8429 8.64169 37.7817 8.70307 37.7205 8.79514C37.1392 9.4703 36.7109 10.3603 36.7109 11.3116V39.9751C36.7109 42.6451 34.5695 44.7933 31.9079 44.7933H8.53516V11.0968C8.59634 10.1148 8.96345 9.22478 9.6059 8.58032C10.3095 7.87447 11.2579 7.44482 12.3286 7.44482H35.8543H40.3209C40.3515 7.44482 40.382 7.44482 40.4432 7.44482Z" fill="url(#paint0_linear_5728_13400)"/>
<path d="M32.0611 14.0122H25.1166C24.8719 14.0122 24.6577 13.7974 24.6577 13.5519C24.6577 13.3064 24.8719 13.0916 25.1166 13.0916H32.0611C32.3059 13.0916 32.52 13.3064 32.52 13.5519C32.52 13.7974 32.3365 14.0122 32.0611 14.0122Z" fill="#B3BFD3"/>
<path d="M21.8429 14.0122H12.7875C12.5428 14.0122 12.3286 13.7974 12.3286 13.5519C12.3286 13.3064 12.5428 13.0916 12.7875 13.0916H21.8735C22.1182 13.0916 22.3324 13.3064 22.3324 13.5519C22.3324 13.7974 22.1182 14.0122 21.8429 14.0122Z" fill="#B3BFD3"/>
<path d="M27.6556 18.5542H18.6308C18.386 18.5542 18.1719 18.3394 18.1719 18.0939C18.1719 17.8484 18.386 17.6335 18.6308 17.6335H27.6556C27.9003 17.6335 28.1145 17.8484 28.1145 18.0939C28.1451 18.3394 27.9309 18.5542 27.6556 18.5542Z" fill="#B3BFD3"/>
<path d="M15.7244 18.5542H12.7875C12.5428 18.5542 12.3286 18.3394 12.3286 18.0939C12.3286 17.8484 12.5428 17.6335 12.7875 17.6335H15.7244C15.9691 17.6335 16.1833 17.8484 16.1833 18.0939C16.1833 18.3394 15.9691 18.5542 15.7244 18.5542Z" fill="#D4DBEC"/>
<path d="M32.0611 23.0962H26.5238C26.2791 23.0962 26.0649 22.8814 26.0649 22.6359C26.0649 22.3904 26.2791 22.1755 26.5238 22.1755H32.0611C32.3058 22.1755 32.52 22.3904 32.52 22.6359C32.52 22.8814 32.3364 23.0962 32.0611 23.0962Z" fill="#D4DBEC"/>
<path d="M23.862 23.0962H12.7875C12.5428 23.0962 12.3286 22.8814 12.3286 22.6359C12.3286 22.3904 12.5428 22.1755 12.7875 22.1755H23.862C24.1068 22.1755 24.3209 22.3904 24.3209 22.6359C24.3209 22.8814 24.1374 23.0962 23.862 23.0962Z" fill="#B3BFD3"/>
<path d="M27.6557 27.6382H21.5678C21.323 27.6382 21.1089 27.4234 21.1089 27.1779C21.1089 26.9324 21.323 26.7175 21.5678 26.7175H27.6557C27.9004 26.7175 28.1146 26.9324 28.1146 27.1779C28.1452 27.4234 27.931 27.6382 27.6557 27.6382Z" fill="#B3BFD3"/>
<path d="M18.906 27.6382H12.7875C12.5428 27.6382 12.3286 27.4234 12.3286 27.1779C12.3286 26.9324 12.5428 26.7175 12.7875 26.7175H18.9366C19.1814 26.7175 19.3955 26.9324 19.3955 27.1779C19.3955 27.4234 19.1814 27.6382 18.906 27.6382Z" fill="#D4DBEC"/>
<path d="M32.0609 32.1802H27.8085C27.5638 32.1802 27.3496 31.9654 27.3496 31.7199C27.3496 31.4743 27.5638 31.2595 27.8085 31.2595H32.0609C32.3056 31.2595 32.5198 31.4743 32.5198 31.7199C32.5198 31.9654 32.3362 32.1802 32.0609 32.1802Z" fill="#B3BFD3"/>
<path d="M25.0552 32.1802H17.9272C17.6824 32.1802 17.4683 31.9654 17.4683 31.7199C17.4683 31.4743 17.6824 31.2595 17.9272 31.2595H25.0552C25.3 31.2595 25.5141 31.4743 25.5141 31.7199C25.5141 31.9654 25.3 32.1802 25.0552 32.1802Z" fill="#D4DBEC"/>
<path d="M15.2655 32.1802H12.7875C12.5428 32.1802 12.3286 31.9654 12.3286 31.7199C12.3286 31.4743 12.5428 31.2595 12.7875 31.2595H15.2655C15.5102 31.2595 15.7244 31.4743 15.7244 31.7199C15.7244 31.9654 15.5102 32.1802 15.2655 32.1802Z" fill="#B3BFD3"/>
<path d="M27.6558 36.7222H23.434C23.1892 36.7222 22.9751 36.5074 22.9751 36.2618C22.9751 36.0163 23.1892 35.8015 23.434 35.8015H27.6558C27.9005 35.8015 28.1147 36.0163 28.1147 36.2618C28.1452 36.5074 27.9311 36.7222 27.6558 36.7222Z" fill="#B3BFD3"/>
<path d="M20.6498 36.7222H12.7875C12.5428 36.7222 12.3286 36.5074 12.3286 36.2618C12.3286 36.0163 12.5428 35.8015 12.7875 35.8015H20.6498C20.8945 35.8015 21.1087 36.0163 21.1087 36.2618C21.1087 36.5074 20.8945 36.7222 20.6498 36.7222Z" fill="#D4DBEC"/>
<path d="M21.629 40.9878H27.8087C27.8087 42.0312 28.237 42.9826 28.91 43.6577C29.583 44.3636 30.5314 44.7625 31.5716 44.7625H3.76289C2.72274 44.7625 1.77437 44.3329 1.10133 43.6577C0.428296 42.9826 0 42.0312 0 40.9878H18.2944C18.2944 40.9878 21.6901 41.0185 21.629 40.9878Z" fill="#CCD4E2"/>
<path d="M48.1581 38.0488L44.2954 34.1892L45.1809 33.3037L49.0405 37.1664L48.1581 38.0488Z" fill="#858B9B"/>
<path d="M49.5009 39.4067L46.539 36.4448C46.2917 36.1975 46.2917 35.7944 46.539 35.5471C46.7863 35.2997 47.1894 35.2997 47.4367 35.5471L50.3986 38.5089C50.6459 38.7563 50.6459 39.1593 50.3986 39.4067C50.1513 39.654 49.7482 39.654 49.5009 39.4067Z" fill="#858B9B"/>
<path d="M49.2902 39.596L45.4795 35.7853C45.3909 35.6967 45.3909 35.5532 45.4795 35.4616L46.4536 34.4876C46.5421 34.399 46.6856 34.399 46.7772 34.4876L50.588 38.2983C50.6765 38.3868 50.6765 38.5304 50.588 38.622L49.6139 39.596C49.5223 39.6846 49.3788 39.6846 49.2902 39.596Z" fill="url(#paint1_linear_5728_13400)"/>
<path d="M39.9232 21.7522C35.8804 21.7522 32.604 25.0286 32.604 29.0714C32.604 33.1111 35.8804 36.3906 39.9201 36.3906C43.9629 36.3906 47.2393 33.1142 47.2393 29.0714C47.2393 25.0286 43.9629 21.7522 39.9232 21.7522ZM39.9232 35.0348C36.6773 35.0348 34.0483 32.363 34.0483 29.0683C34.0483 25.7736 36.6773 23.1049 39.9232 23.1049C43.169 23.1049 45.7981 25.7767 45.7981 29.0714C45.7981 32.3661 43.166 35.0348 39.9232 35.0348Z" fill="url(#paint2_linear_5728_13400)"/>
<defs>
<linearGradient id="paint0_linear_5728_13400" x1="24.4788" y1="6.58092" x2="24.4788" y2="45.1959" gradientUnits="userSpaceOnUse">
<stop stop-color="#FDFEFF"/>
<stop offset="0.9964" stop-color="#ECF0F5"/>
</linearGradient>
<linearGradient id="paint1_linear_5728_13400" x1="45.4107" y1="37.0424" x2="50.6553" y2="37.0424" gradientUnits="userSpaceOnUse">
<stop stop-color="#B0BACC"/>
<stop offset="1" stop-color="#969EAE"/>
</linearGradient>
<linearGradient id="paint2_linear_5728_13400" x1="32.5973" y1="29.073" x2="47.242" y2="29.073" gradientUnits="userSpaceOnUse">
<stop stop-color="#B0BACC"/>
<stop offset="1" stop-color="#969EAE"/>
</linearGradient>
</defs>
</svg>
