<svg width="104" height="69" viewBox="0 0 104 69" fill="none" xmlns="http://www.w3.org/2000/svg">
<path d="M30.4583 41.2292H21.5M30.4583 47.5H16.125M25.6499 58.25H13.975C10.9647 58.25 9.45958 58.25 8.3098 57.6642C7.29843 57.1488 6.47616 56.3266 5.96084 55.3152C5.375 54.1654 5.375 52.6603 5.375 49.65V39.975C5.375 36.9647 5.375 35.4596 5.96084 34.3098C6.47616 33.2984 7.29843 32.4762 8.3098 31.9608C9.45958 31.375 10.9647 31.375 13.975 31.375H29.025C32.0353 31.375 33.5404 31.375 34.6902 31.9608C35.7016 32.4762 36.5238 33.2984 37.0392 34.3098C37.625 35.4596 37.625 36.9647 37.625 39.975V62.4344C37.625 63.3891 37.625 63.8665 37.4293 64.1116C37.2591 64.3249 37.001 64.4489 36.7282 64.4486C36.4145 64.4483 36.0418 64.1501 35.2963 63.5537L31.0223 60.1345C30.1492 59.4361 29.7127 59.0868 29.2266 58.8385C28.7953 58.6181 28.3362 58.4571 27.8618 58.3597C27.3271 58.25 26.768 58.25 25.6499 58.25Z" stroke="#FFC633" stroke-width="4" stroke-linecap="round" stroke-linejoin="round"/>
<path d="M60.7917 21.6042H73.5M60.7917 30.5H81.125M67.6129 45.75H84.175C88.4454 45.75 90.5806 45.75 92.2117 44.9189C93.6464 44.1879 94.8129 43.0214 95.5439 41.5867C96.375 39.9556 96.375 37.8204 96.375 33.55V19.825C96.375 15.5546 96.375 13.4194 95.5439 11.7883C94.8129 10.3536 93.6464 9.18711 92.2117 8.45608C90.5806 7.625 88.4454 7.625 84.175 7.625H62.825C58.5546 7.625 56.4194 7.625 54.7883 8.45608C53.3536 9.18711 52.1871 10.3536 51.4561 11.7883C50.625 13.4194 50.625 15.5546 50.625 19.825V51.6861C50.625 53.0404 50.625 53.7176 50.9026 54.0654C51.1441 54.3678 51.5102 54.5438 51.8972 54.5434C52.3422 54.5429 52.871 54.1199 53.9285 53.2738L59.9916 48.4234C61.2301 47.4326 61.8494 46.9371 62.539 46.5848C63.1508 46.2723 63.8021 46.0438 64.4751 45.9057C65.2337 45.75 66.0267 45.75 67.6129 45.75Z" stroke="#6557FF" stroke-width="4" stroke-linecap="round" stroke-linejoin="round"/>
</svg>
