<svg width="23" height="24" viewBox="0 0 23 24" fill="none" xmlns="http://www.w3.org/2000/svg">
<path d="M21.266 17.6251L13.3688 3.37506C13.1797 3.03234 12.9074 2.74767 12.5793 2.54972C12.2513 2.35178 11.879 2.24756 11.5 2.24756C11.1211 2.24756 10.7488 2.35178 10.4207 2.54972C10.0926 2.74767 9.82034 3.03234 9.63128 3.37506L1.73401 17.6251C1.54217 17.966 1.44021 18.3539 1.4385 18.7493C1.43679 19.1447 1.53538 19.5336 1.72426 19.8763C1.91315 20.2191 2.1856 20.5036 2.51395 20.701C2.8423 20.8984 3.21485 21.0015 3.59378 21.0001H19.4063C19.7852 21.0015 20.1578 20.8984 20.4861 20.701C20.8145 20.5036 21.0869 20.2191 21.2758 19.8763C21.4647 19.5336 21.5633 19.1447 21.5616 18.7493C21.5598 18.3539 21.4579 17.966 21.266 17.6251ZM10.7813 9.75006C10.7813 9.55115 10.857 9.36038 10.9918 9.21973C11.1266 9.07908 11.3094 9.00006 11.5 9.00006C11.6906 9.00006 11.8735 9.07908 12.0083 9.21973C12.1431 9.36038 12.2188 9.55115 12.2188 9.75006V13.5001C12.2188 13.699 12.1431 13.8897 12.0083 14.0304C11.8735 14.171 11.6906 14.2501 11.5 14.2501C11.3094 14.2501 11.1266 14.171 10.9918 14.0304C10.857 13.8897 10.7813 13.699 10.7813 13.5001V9.75006ZM11.5 18.0001C11.2868 18.0001 11.0783 17.9341 10.9011 17.8105C10.7238 17.6868 10.5856 17.5111 10.504 17.3056C10.4224 17.1 10.401 16.8738 10.4426 16.6556C10.4842 16.4374 10.5869 16.2369 10.7377 16.0796C10.8885 15.9222 11.0806 15.8151 11.2897 15.7717C11.4988 15.7283 11.7156 15.7505 11.9126 15.8357C12.1096 15.9208 12.278 16.065 12.3965 16.25C12.5149 16.4351 12.5782 16.6526 12.5782 16.8751C12.5782 17.1734 12.4646 17.4596 12.2624 17.6706C12.0602 17.8815 11.786 18.0001 11.5 18.0001Z" fill="#FFC633"/>
</svg>
