<svg width="50" height="50" viewBox="0 0 50 50" fill="none" xmlns="http://www.w3.org/2000/svg">
<circle cx="25" cy="25" r="25" fill="#6557FF" fill-opacity="0.1"/>
<g filter="url(#filter0_b_5714_13269)">
<path d="M12.0098 24.0235C12.0098 21.4239 12.0098 20.124 12.7317 19.1669C13.4537 18.2097 14.7035 17.8526 17.2032 17.1385L21.5901 15.8851C23.0558 15.4663 23.7887 15.2569 24.5408 15.2569C25.293 15.2569 26.0258 15.4663 27.4916 15.8851L31.8784 17.1385C34.3781 17.8526 35.6279 18.2097 36.3499 19.1669C37.0719 20.124 37.0719 21.4239 37.0719 24.0235V27.573C37.0719 32.6364 37.0719 35.168 35.4989 36.741C33.9259 38.3139 31.3943 38.3139 26.331 38.3139H22.7507C17.6874 38.3139 15.1557 38.3139 13.5827 36.741C12.0098 35.168 12.0098 32.6364 12.0098 27.573V24.0235Z" fill="#6557FF"/>
</g>
<path fill-rule="evenodd" clip-rule="evenodd" d="M16.6973 11.7437C15.2475 11.7437 14.0723 13.3444 14.0723 15.319V23.1436C19.2132 26.9929 21.9191 30.7245 24.5723 30.7436C27.2816 30.7631 29.936 26.9894 35.0723 23.1436V15.319C35.0723 13.3444 33.897 11.7437 32.4473 11.7437H16.6973Z" fill="#FFC633"/>
<path d="M28.9472 16.9251C29.4305 16.9251 29.8222 17.3118 29.8222 17.7888C29.8222 18.2658 29.4305 18.6524 28.9472 18.6524L20.1972 18.6524C19.714 18.6524 19.3222 18.2658 19.3222 17.7888C19.3222 17.3118 19.714 16.9251 20.1972 16.9251L28.9472 16.9251Z" fill="#FFC633"/>
<path d="M28.9472 22.1066C29.4305 22.1066 29.8222 22.4933 29.8222 22.9703C29.8222 23.4473 29.4305 23.8339 28.9472 23.8339H20.1972C19.714 23.8339 19.3222 23.4473 19.3222 22.9703C19.3222 22.4933 19.714 22.1066 20.1972 22.1066H28.9472Z" fill="#FFC633"/>
<path fill-rule="evenodd" clip-rule="evenodd" d="M36.9617 20.8013C37.0531 21.3932 37.0805 22.1091 37.0887 23.0046L25.1041 32.7421C24.7752 33.0093 24.3041 33.0093 23.9752 32.7421L12 23.0123C12.0081 22.1166 12.0352 21.4004 12.126 20.8081L24.5397 30.8942L36.9617 20.8013Z" fill="#5345F0"/>
<path d="M32.6601 26.5925C34.0471 24.8376 34.875 22.6204 34.875 20.2099C34.875 17.7964 34.045 15.5768 32.6549 13.8208C34.0855 15.6311 34.875 17.8794 34.875 20.2099C34.875 22.5377 34.0874 24.7834 32.6601 26.5925Z" fill="#F7685B"/>
<path d="M30.9626 28.2914C29.1523 29.7222 26.9039 30.5117 24.5732 30.5117C22.2455 30.5117 19.9997 29.7242 18.1907 28.2968C19.9456 29.6838 22.1627 30.5117 24.5732 30.5117C26.9868 30.5117 29.2066 29.6816 30.9626 28.2914Z" fill="#F7685B"/>
<path d="M16.4916 26.5991C15.1015 24.8432 14.2715 22.6235 14.2715 20.2099C14.2715 22.5405 15.0609 24.7889 16.4916 26.5991Z" fill="#F7685B"/>
<path d="M16.4864 13.8274C15.059 15.6365 14.2715 17.8822 14.2715 20.2099C14.2715 17.7994 15.0994 15.5823 16.4864 13.8274Z" fill="#F7685B"/>
<path d="M18.1875 12.1256C19.9971 10.6967 22.244 9.9082 24.5732 9.9082C26.9009 9.9082 29.1467 10.6957 30.9558 12.1231C29.2009 10.7361 26.9837 9.9082 24.5732 9.9082C22.1613 9.9082 19.9429 10.7371 18.1875 12.1256Z" fill="#F7685B"/>
<path d="M23.3836 25.2098C23.5823 25.6915 24.0526 26.0046 24.5732 26.0046C24.9153 26.0046 25.2422 25.8688 25.4837 25.6273C25.7252 25.3859 25.861 25.0589 25.861 24.7169C25.861 24.1963 25.5478 23.7259 25.0662 23.5273C24.5846 23.3273 24.0312 23.438 23.6628 23.8064C23.2943 24.1749 23.1837 24.7282 23.3836 25.2098Z" fill="#F7685B"/>
<path d="M24.2855 14.4152C23.7332 14.4152 23.2855 14.8629 23.2855 15.4152V20.4976C23.2855 21.0499 23.7332 21.4976 24.2855 21.4976H24.8609C25.4132 21.4976 25.8609 21.0499 25.8609 20.4976V15.4152C25.8609 14.8629 25.4132 14.4152 24.8609 14.4152H24.2855Z" fill="#F7685B"/>
<circle cx="36.5762" cy="34.3311" r="4.90404" fill="#F0EFFF" stroke="#F0EFFF" stroke-width="1.19191"/>
<path d="M36.5717 29.8311C34.0877 29.8311 32.0762 31.8471 32.0762 34.3311C32.0762 36.8151 34.0877 38.8311 36.5717 38.8311C39.0602 38.8311 41.0762 36.8151 41.0762 34.3311C41.0762 31.8471 39.0602 29.8311 36.5717 29.8311ZM38.0567 36.4506L36.1262 34.5156V32.0811H37.0262V34.1466L38.6957 35.8161L38.0567 36.4506Z" fill="#6557FF"/>
<defs>
<filter id="filter0_b_5714_13269" x="8.42946" y="11.6765" width="32.2226" height="30.2177" filterUnits="userSpaceOnUse" color-interpolation-filters="sRGB">
<feFlood flood-opacity="0" result="BackgroundImageFix"/>
<feGaussianBlur in="BackgroundImageFix" stdDeviation="1.79015"/>
<feComposite in2="SourceAlpha" operator="in" result="effect1_backgroundBlur_5714_13269"/>
<feBlend mode="normal" in="SourceGraphic" in2="effect1_backgroundBlur_5714_13269" result="shape"/>
</filter>
</defs>
</svg>
