<svg width="50" height="50" viewBox="0 0 50 50" fill="none" xmlns="http://www.w3.org/2000/svg">
<circle cx="25" cy="25" r="25" fill="#6557FF" fill-opacity="0.1"/>
<g filter="url(#filter0_b_5714_13261)">
<path d="M12.9375 24.0235C12.9375 21.4239 12.9375 20.124 13.6595 19.1669C14.3814 18.2097 15.6313 17.8526 18.1309 17.1385L22.5178 15.8851C23.9835 15.4663 24.7164 15.2569 25.4686 15.2569C26.2207 15.2569 26.9536 15.4663 28.4193 15.8851L32.8062 17.1385C35.3058 17.8526 36.5557 18.2097 37.2776 19.1669C37.9996 20.124 37.9996 21.4239 37.9996 24.0235V27.573C37.9996 32.6364 37.9996 35.168 36.4266 36.741C34.8537 38.3139 32.322 38.3139 27.2587 38.3139H23.6784C18.6151 38.3139 16.0834 38.3139 14.5105 36.741C12.9375 35.168 12.9375 32.6364 12.9375 27.573V24.0235Z" fill="#6557FF"/>
</g>
<path fill-rule="evenodd" clip-rule="evenodd" d="M17.625 11.7437C16.1753 11.7437 15 13.3444 15 15.319V23.1436C20.141 26.9929 22.8469 30.7245 25.5 30.7436C28.2093 30.7631 30.8637 26.9894 36 23.1436V15.319C36 13.3444 34.8247 11.7437 33.375 11.7437H17.625Z" fill="#FFC633"/>
<path d="M29.875 16.9251C30.3582 16.9251 30.75 17.3118 30.75 17.7888C30.75 18.2658 30.3582 18.6524 29.875 18.6524L21.125 18.6524C20.6417 18.6524 20.25 18.2658 20.25 17.7888C20.25 17.3118 20.6417 16.9251 21.125 16.9251L29.875 16.9251Z" fill="#FFC633"/>
<path d="M29.875 22.1066C30.3582 22.1066 30.75 22.4933 30.75 22.9703C30.75 23.4473 30.3582 23.8339 29.875 23.8339H21.125C20.6417 23.8339 20.25 23.4473 20.25 22.9703C20.25 22.4933 20.6417 22.1066 21.125 22.1066H29.875Z" fill="#FFC633"/>
<path fill-rule="evenodd" clip-rule="evenodd" d="M37.8894 20.8013C37.9808 21.3932 38.0082 22.1091 38.0165 23.0046L26.0318 32.7421C25.703 33.0093 25.2318 33.0093 24.903 32.7421L12.9277 23.0123C12.9358 22.1166 12.963 21.4004 13.0538 20.8081L25.4674 30.8942L37.8894 20.8013Z" fill="#5345F0"/>
<path d="M33.5878 26.5925C34.9748 24.8376 35.8027 22.6204 35.8027 20.2099C35.8027 17.7964 34.9727 15.5768 33.5826 13.8208C35.0133 15.6311 35.8027 17.8794 35.8027 20.2099C35.8027 22.5377 35.0152 24.7834 33.5878 26.5925Z" fill="#F7685B"/>
<path d="M31.8903 28.2914C30.08 29.7222 27.8316 30.5117 25.501 30.5117C23.1732 30.5117 20.9275 29.7242 19.1184 28.2968C20.8733 29.6838 23.0905 30.5117 25.501 30.5117C27.9146 30.5117 30.1343 29.6816 31.8903 28.2914Z" fill="#F7685B"/>
<path d="M17.4193 26.5991C16.0292 24.8432 15.1992 22.6235 15.1992 20.2099C15.1992 22.5405 15.9887 24.7889 17.4193 26.5991Z" fill="#F7685B"/>
<path d="M17.4141 13.8274C15.9867 15.6365 15.1992 17.8822 15.1992 20.2099C15.1992 17.7994 16.0271 15.5823 17.4141 13.8274Z" fill="#F7685B"/>
<path d="M19.1152 12.1256C20.9248 10.6967 23.1718 9.9082 25.501 9.9082C27.8287 9.9082 30.0744 10.6957 31.8835 12.1231C30.1286 10.7361 27.9115 9.9082 25.501 9.9082C23.089 9.9082 20.8706 10.7371 19.1152 12.1256Z" fill="#F7685B"/>
<path d="M24.3113 25.2098C24.51 25.6915 24.9803 26.0046 25.501 26.0046C25.843 26.0046 26.17 25.8688 26.4114 25.6273C26.6529 25.3859 26.7887 25.0589 26.7887 24.7169C26.7887 24.1963 26.4756 23.7259 25.9939 23.5273C25.5123 23.3273 24.959 23.438 24.5905 23.8064C24.2221 24.1749 24.1114 24.7282 24.3113 25.2098Z" fill="#F7685B"/>
<path d="M25.2132 14.4152C24.661 14.4152 24.2132 14.8629 24.2132 15.4152V20.4976C24.2132 21.0499 24.661 21.4976 25.2132 21.4976H25.7887C26.341 21.4976 26.7887 21.0499 26.7887 20.4976V15.4152C26.7887 14.8629 26.341 14.4152 25.7887 14.4152H25.2132Z" fill="#F7685B"/>
<defs>
<filter id="filter0_b_5714_13261" x="9.3572" y="11.6765" width="32.2226" height="30.2177" filterUnits="userSpaceOnUse" color-interpolation-filters="sRGB">
<feFlood flood-opacity="0" result="BackgroundImageFix"/>
<feGaussianBlur in="BackgroundImageFix" stdDeviation="1.79015"/>
<feComposite in2="SourceAlpha" operator="in" result="effect1_backgroundBlur_5714_13261"/>
<feBlend mode="normal" in="SourceGraphic" in2="effect1_backgroundBlur_5714_13261" result="shape"/>
</filter>
</defs>
</svg>
