<svg width="13" height="13" viewBox="0 0 13 13" fill="none" xmlns="http://www.w3.org/2000/svg">
<path d="M11.375 3.23909C9.57125 3.06035 7.75667 2.96826 5.9475 2.96826C4.875 2.96826 3.8025 3.02243 2.73 3.13076L1.625 3.23909" stroke="#F7685B" stroke-linecap="round" stroke-linejoin="round"/>
<path d="M4.60417 2.69225L4.72333 1.98266C4.81 1.46808 4.875 1.0835 5.79042 1.0835H7.20958C8.125 1.0835 8.19542 1.48975 8.27667 1.98808L8.39583 2.69225" stroke="#F7685B" stroke-linecap="round" stroke-linejoin="round"/>
<path d="M10.2104 4.95068L9.85828 10.4053C9.79869 11.2557 9.74994 11.9165 8.23869 11.9165H4.76119C3.24994 11.9165 3.20119 11.2557 3.14161 10.4053L2.78953 4.95068" stroke="#F7685B" stroke-linecap="round" stroke-linejoin="round"/>
<path d="M5.59519 8.9375H7.39894" stroke="#F7685B" stroke-linecap="round" stroke-linejoin="round"/>
<path d="M5.14583 6.771H7.85417" stroke="#F7685B" stroke-linecap="round" stroke-linejoin="round"/>
</svg>
