<svg width="48" height="48" viewBox="0 0 48 48" fill="none" xmlns="http://www.w3.org/2000/svg">
<rect width="48" height="48" rx="24" fill="#FF4535" fill-opacity="0.3"/>
<path fill-rule="evenodd" clip-rule="evenodd" d="M23.6505 17.0002L23.5635 17.0002C23.1534 16.9995 22.7935 16.999 22.4728 17.1251C22.1924 17.2354 21.9441 17.4144 21.7508 17.6455C21.5297 17.9099 21.4164 18.2515 21.2873 18.6408L21.2599 18.7234L21.1676 19.0002H18.9334H17.6C17.2687 19.0002 17 19.2689 17 19.6002C17 19.9316 17.2687 20.2002 17.6 20.2002H18.3676L18.727 26.3102L18.7284 26.3334C18.7726 27.0858 18.8078 27.6829 18.8715 28.1653C18.9366 28.659 19.0366 29.0769 19.2329 29.4614C19.6316 30.2424 20.2881 30.8615 21.0912 31.2137C21.4866 31.387 21.9096 31.4622 22.4063 31.4983C22.8916 31.5336 23.4897 31.5336 24.2434 31.5336H24.2435H24.2667H24.2899H24.29C25.0437 31.5336 25.6418 31.5336 26.1271 31.4983C26.6237 31.4622 27.0468 31.387 27.4422 31.2137C28.2452 30.8615 28.9018 30.2424 29.3005 29.4614C29.4968 29.0769 29.5967 28.659 29.6619 28.1653C29.7256 27.6829 29.7607 27.0858 29.805 26.3334L29.8064 26.3102L30.1658 20.2002H30.9334C31.2647 20.2002 31.5334 19.9316 31.5334 19.6002C31.5334 19.2689 31.2647 19.0002 30.9334 19.0002H29.6H27.3658L27.2735 18.7234L27.2461 18.6407C27.117 18.2515 27.0037 17.9099 26.7826 17.6455C26.5893 17.4144 26.341 17.2354 26.0606 17.1251C25.7399 16.999 25.38 16.9995 24.9699 17.0002L24.8828 17.0002H23.6505ZM26.9193 20.2002C26.9286 20.2005 26.9379 20.2005 26.9472 20.2002H28.9637L28.6084 26.2397C28.5625 27.0205 28.5296 27.5741 28.4722 28.0082C28.4158 28.436 28.3405 28.7028 28.2317 28.9158C27.9589 29.4502 27.5097 29.8737 26.9602 30.1147C26.7412 30.2107 26.4705 30.2702 26.0401 30.3015C25.6034 30.3332 25.0488 30.3336 24.2667 30.3336C23.4846 30.3336 22.93 30.3332 22.4932 30.3015C22.0629 30.2702 21.7921 30.2107 21.5731 30.1147C21.0237 29.8737 20.5744 29.4502 20.3016 28.9158C20.1929 28.7028 20.1176 28.436 20.0611 28.0082C20.0038 27.5741 19.9709 27.0205 19.925 26.2397L19.5697 20.2002H21.5862C21.5955 20.2005 21.6048 20.2005 21.614 20.2002H26.9193ZM26.1007 19.0002C25.9553 18.5683 25.9135 18.4769 25.862 18.4153C25.7976 18.3383 25.7149 18.2786 25.6214 18.2419C25.5412 18.2103 25.4317 18.2002 24.8828 18.2002H23.6505C23.1017 18.2002 22.9922 18.2103 22.912 18.2419C22.8185 18.2786 22.7358 18.3383 22.6713 18.4153C22.6199 18.4769 22.578 18.5683 22.4326 19.0002H26.1007ZM23.5333 22.9335C23.5333 22.6022 23.2647 22.3335 22.9333 22.3335C22.602 22.3335 22.3333 22.6022 22.3333 22.9335V27.6002C22.3333 27.9316 22.602 28.2002 22.9333 28.2002C23.2647 28.2002 23.5333 27.9316 23.5333 27.6002V22.9335ZM25.6 22.3335C25.9314 22.3335 26.2 22.6022 26.2 22.9335V25.6002C26.2 25.9316 25.9314 26.2002 25.6 26.2002C25.2687 26.2002 25 25.9316 25 25.6002V22.9335C25 22.6022 25.2687 22.3335 25.6 22.3335Z" fill="#FF4535"/>
</svg>
