<svg width="48" height="48" viewBox="0 0 48 48" fill="none" xmlns="http://www.w3.org/2000/svg">
<rect width="48" height="48" rx="24" fill="#D92D20" fill-opacity="0.1"/>
<path d="M28.2428 26.121L27.1821 25.0602L28.2428 23.9996C29.4143 22.828 29.4143 20.9285 28.2428 19.757C27.0712 18.5854 25.1717 18.5854 24.0001 19.757L22.9394 20.8176L21.8788 19.757L22.9394 18.6963C24.6968 16.939 27.5461 16.939 29.3034 18.6963C31.0607 20.4537 31.0607 23.3029 29.3034 25.0602L28.2428 26.121ZM26.1215 28.2423L25.0607 29.3029C23.3034 31.0602 20.4542 31.0602 18.6968 29.3029C16.9394 27.5456 16.9394 24.6963 18.6968 22.9389L19.7575 21.8783L20.8181 22.9389L19.7575 23.9996C18.5859 25.1712 18.5859 27.0707 19.7575 28.2423C20.929 29.4138 22.8285 29.4138 24.0001 28.2423L25.0607 27.1816L26.1215 28.2423ZM26.1215 20.8176L27.1821 21.8783L21.8788 27.1816L20.8181 26.121L26.1215 20.8176ZM19.3315 16.7193L20.7804 16.3311L21.5569 19.2288L20.108 19.6171L19.3315 16.7193ZM26.4434 28.7704L27.8922 28.3821L28.6687 31.2799L27.2198 31.6682L26.4434 28.7704ZM16.7198 19.3311L19.6175 20.1075L19.2293 21.5564L16.3315 20.7799L16.7198 19.3311ZM28.7709 26.4429L31.6687 27.2193L31.2804 28.6682L28.3826 27.8917L28.7709 26.4429Z" fill="#FC3400"/>
</svg>
