<svg width="40" height="40" viewBox="0 0 40 40" fill="none" xmlns="http://www.w3.org/2000/svg">
<circle opacity="0.1" cx="20" cy="20" r="20" fill="#4A495C" fill-opacity="0.8"/>
<path d="M26.9419 13.2562C25.6279 12.6609 24.2407 12.2386 22.8158 12C22.6208 12.3449 22.4443 12.6998 22.2872 13.0632C20.7694 12.8369 19.2258 12.8369 17.708 13.0632C17.5508 12.6999 17.3744 12.345 17.1795 12C15.7536 12.2406 14.3655 12.6639 13.0502 13.2593C10.4389 17.0825 9.73099 20.8107 10.0849 24.486C11.6142 25.6041 13.3258 26.4544 15.1455 27C15.5552 26.4547 15.9178 25.8761 16.2293 25.2705C15.6376 25.0518 15.0665 24.782 14.5225 24.4642C14.6657 24.3615 14.8057 24.2556 14.941 24.1529C16.5236 24.8894 18.251 25.2713 20 25.2713C21.7489 25.2713 23.4763 24.8894 25.0589 24.1529C25.1958 24.2634 25.3358 24.3692 25.4774 24.4642C24.9324 24.7825 24.3602 25.0529 23.7675 25.2721C24.0786 25.8774 24.4412 26.4555 24.8513 27C26.6725 26.4566 28.3855 25.6067 29.915 24.4875C30.3303 20.2254 29.2055 16.5314 26.9419 13.2562ZM16.6776 22.2257C15.6913 22.2257 14.8765 21.34 14.8765 20.2503C14.8765 19.1606 15.663 18.2671 16.6745 18.2671C17.686 18.2671 18.4945 19.1606 18.4772 20.2503C18.4599 21.34 17.6828 22.2257 16.6776 22.2257ZM23.3223 22.2257C22.3344 22.2257 21.5227 21.34 21.5227 20.2503C21.5227 19.1606 22.3092 18.2671 23.3223 18.2671C24.3353 18.2671 25.1376 19.1606 25.1203 20.2503C25.103 21.34 24.3275 22.2257 23.3223 22.2257Z" fill="#151515"/>
</svg>
