<svg width="24" height="16" viewBox="0 0 24 16" fill="none" xmlns="http://www.w3.org/2000/svg">
<path d="M19.839 1.90549C17.8592 0.434835 14.7272 0.185542 14.5931 0.176574C14.3852 0.160433 14.187 0.268042 14.1015 0.445596C14.0938 0.456357 14.0258 0.601629 13.95 0.827607C15.2595 1.03206 16.8683 1.44277 18.3235 2.27674C18.5567 2.40946 18.6286 2.69282 18.4848 2.90804C18.3896 3.04973 18.2283 3.12685 18.0612 3.12685C17.9719 3.12685 17.8805 3.10353 17.7989 3.0569C15.2964 1.62391 12.1722 1.55217 11.5699 1.55217C10.9676 1.55217 7.84139 1.62391 5.34083 3.0569C5.10768 3.19141 4.8007 3.12505 4.65692 2.90984C4.5112 2.69282 4.58309 2.41125 4.81624 2.27674C6.2715 1.44456 7.88025 1.03206 9.18979 0.829401C9.11401 0.601629 9.04601 0.458151 9.04018 0.445596C8.95275 0.268042 8.75651 0.156846 8.54668 0.176574C8.41261 0.185542 5.2806 0.434835 3.27355 1.92522C2.22631 2.82016 0.129883 8.04994 0.129883 12.5713C0.129883 12.652 0.153198 12.7291 0.195943 12.7991C1.64149 15.1449 5.58759 15.7583 6.48716 15.7852C6.49105 15.7852 6.49688 15.7852 6.50271 15.7852C6.66203 15.7852 6.81164 15.7153 6.9049 15.5969L7.81419 14.4419C5.36026 13.8572 4.10707 12.8636 4.03518 12.8045C3.82923 12.6377 3.8098 12.3471 3.99244 12.157C4.17313 11.9669 4.48789 11.949 4.69384 12.1158C4.72298 12.1409 7.03119 13.9487 11.5699 13.9487C16.1163 13.9487 18.4246 12.1337 18.4479 12.1158C18.6538 11.9508 18.9666 11.9669 19.1493 12.1588C19.33 12.3489 19.3105 12.6377 19.1046 12.8045C19.0327 12.8636 17.7795 13.8572 15.3256 14.4419L16.2349 15.5969C16.3281 15.7153 16.4777 15.7852 16.6371 15.7852C16.6429 15.7852 16.6487 15.7852 16.6526 15.7852C17.5522 15.7583 21.4983 15.1449 22.9438 12.7991C22.9866 12.7291 23.0099 12.652 23.0099 12.5713C23.0099 8.04994 20.9135 2.82016 19.839 1.90549ZM8.33684 10.7348C7.37509 10.7348 6.59597 9.91337 6.59597 8.89826C6.59597 7.88315 7.37509 7.06174 8.33684 7.06174C9.29859 7.06174 10.0777 7.88315 10.0777 8.89826C10.0777 9.91337 9.29859 10.7348 8.33684 10.7348ZM14.8029 10.7348C13.8412 10.7348 13.0621 9.91337 13.0621 8.89826C13.0621 7.88315 13.8412 7.06174 14.8029 7.06174C15.7647 7.06174 16.5438 7.88315 16.5438 8.89826C16.5438 9.91337 15.7647 10.7348 14.8029 10.7348Z" fill="black"/>
</svg>
