<svg width="12" height="12" viewBox="0 0 12 12" fill="none" xmlns="http://www.w3.org/2000/svg">
<path id="Vector" d="M8.82844 7.4143L8.12134 6.70715L8.82844 6.00005C9.60949 5.219 9.60949 3.95269 8.82844 3.17164C8.04739 2.39059 6.78104 2.39059 5.99999 3.17164L5.29289 3.87875L4.58579 3.17164L5.29289 2.46454C6.46449 1.29296 8.36399 1.29296 9.53554 2.46454C10.7071 3.63611 10.7071 5.5356 9.53554 6.70715L8.82844 7.4143ZM7.41424 8.8285L6.70709 9.5356C5.53554 10.7071 3.63604 10.7071 2.46447 9.5356C1.2929 8.36405 1.2929 6.46455 2.46447 5.29295L3.17158 4.58586L3.87868 5.29295L3.17158 6.00005C2.39053 6.7811 2.39053 8.04745 3.17158 8.8285C3.95263 9.60955 5.21894 9.60955 5.99999 8.8285L6.70709 8.1214L7.41424 8.8285ZM7.41424 3.87875L8.12134 4.58586L4.58579 8.1214L3.87868 7.4143L7.41424 3.87875ZM2.88763 1.14652L3.85356 0.887695L4.3712 2.81955L3.40527 3.07837L2.88763 1.14652ZM7.62884 9.1806L8.59474 8.92175L9.11239 10.8536L8.14644 11.1124L7.62884 9.1806ZM1.14645 2.8877L3.0783 3.40534L2.81948 4.37126L0.887634 3.85362L1.14645 2.8877ZM9.18054 7.6289L11.1124 8.1465L10.8535 9.11245L8.92169 8.5948L9.18054 7.6289Z" fill="white"/>
</svg>
