<svg width="24" height="24" viewBox="0 0 24 24" fill="none" xmlns="http://www.w3.org/2000/svg">
<circle cx="12" cy="12" r="12" fill="#6557FF"/>
<path d="M17.9444 14.2812L13.1374 5.96875C13.0223 5.76882 12.8566 5.60277 12.6569 5.4873C12.4572 5.37183 12.2306 5.31104 11.9999 5.31104C11.7692 5.31104 11.5426 5.37183 11.3429 5.4873C11.1432 5.60277 10.9775 5.76882 10.8624 5.96875L6.05538 14.2812C5.9386 14.4802 5.87654 14.7064 5.8755 14.9371C5.87446 15.1677 5.93447 15.3945 6.04945 15.5945C6.16442 15.7944 6.33026 15.9604 6.53012 16.0755C6.72999 16.1907 6.95676 16.2509 7.18741 16.25H16.8124C17.0431 16.2509 17.2698 16.1907 17.4697 16.0755C17.6696 15.9604 17.8354 15.7944 17.9504 15.5945C18.0653 15.3945 18.1254 15.1677 18.1243 14.9371C18.1233 14.7064 18.0612 14.4802 17.9444 14.2812ZM11.5624 9.6875C11.5624 9.57146 11.6085 9.46018 11.6906 9.37814C11.7726 9.29609 11.8839 9.24999 11.9999 9.24999C12.1159 9.24999 12.2272 9.29609 12.3093 9.37814C12.3913 9.46018 12.4374 9.57146 12.4374 9.6875V11.875C12.4374 11.991 12.3913 12.1023 12.3093 12.1844C12.2272 12.2664 12.1159 12.3125 11.9999 12.3125C11.8839 12.3125 11.7726 12.2664 11.6906 12.1844C11.6085 12.1023 11.5624 11.991 11.5624 11.875V9.6875ZM11.9999 14.5C11.8701 14.5 11.7432 14.4615 11.6353 14.3894C11.5274 14.3173 11.4433 14.2148 11.3936 14.0949C11.3439 13.975 11.3309 13.843 11.3563 13.7157C11.3816 13.5884 11.4441 13.4715 11.5359 13.3797C11.6276 13.2879 11.7446 13.2254 11.8719 13.2001C11.9992 13.1748 12.1311 13.1878 12.251 13.2374C12.371 13.2871 12.4735 13.3712 12.5456 13.4792C12.6177 13.5871 12.6562 13.714 12.6562 13.8437C12.6562 14.0178 12.587 14.1847 12.4639 14.3078C12.3409 14.4309 12.174 14.5 11.9999 14.5Z" fill="white"/>
</svg>
