<svg width="12" height="14" viewBox="0 0 12 14" fill="none" xmlns="http://www.w3.org/2000/svg">
<path d="M8.66667 0H3.33333C1 0 0 1.33333 0 3.33333V10C0 12 1 13.3333 3.33333 13.3333H8.66667C11 13.3333 12 12 12 10V3.33333C12 1.33333 11 0 8.66667 0ZM3.33333 6.83333H6C6.27333 6.83333 6.5 7.06 6.5 7.33333C6.5 7.60667 6.27333 7.83333 6 7.83333H3.33333C3.06 7.83333 2.83333 7.60667 2.83333 7.33333C2.83333 7.06 3.06 6.83333 3.33333 6.83333ZM8.66667 10.5H3.33333C3.06 10.5 2.83333 10.2733 2.83333 10C2.83333 9.72667 3.06 9.5 3.33333 9.5H8.66667C8.94 9.5 9.16667 9.72667 9.16667 10C9.16667 10.2733 8.94 10.5 8.66667 10.5ZM10.3333 4.83333H9C7.98667 4.83333 7.16667 4.01333 7.16667 3V1.66667C7.16667 1.39333 7.39333 1.16667 7.66667 1.16667C7.94 1.16667 8.16667 1.39333 8.16667 1.66667V3C8.16667 3.46 8.54 3.83333 9 3.83333H10.3333C10.6067 3.83333 10.8333 4.06 10.8333 4.33333C10.8333 4.60667 10.6067 4.83333 10.3333 4.83333Z" fill="#6557FF"/>
</svg>
