<svg width="40" height="40" viewBox="0 0 40 40" fill="none" xmlns="http://www.w3.org/2000/svg">
<circle opacity="0.1" cx="20" cy="20" r="20" fill="#4A495C" fill-opacity="0.8"/>
<path d="M26.8409 18.7282H21.2727C20.7664 18.7282 20.2808 18.527 19.9228 18.169C19.5648 17.811 19.3636 17.3254 19.3636 16.8191V11.2509C19.3636 11.2087 19.3469 11.1682 19.317 11.1384C19.2872 11.1086 19.2467 11.0918 19.2045 11.0918H15.5455C14.8704 11.0918 14.2229 11.36 13.7455 11.8373C13.2682 12.3147 13 12.9622 13 13.6373V26.3645C13 27.0396 13.2682 27.6871 13.7455 28.1644C14.2229 28.6418 14.8704 28.91 15.5455 28.91H24.4545C25.1296 28.91 25.7771 28.6418 26.2545 28.1644C26.7318 27.6871 27 27.0396 27 26.3645V18.8873C27 18.8451 26.9832 18.8046 26.9534 18.7748C26.9236 18.7449 26.8831 18.7282 26.8409 18.7282Z" fill="#151515"/>
<path d="M26.4917 17.3194L20.772 11.5997C20.7609 11.5886 20.7467 11.5811 20.7313 11.578C20.7159 11.575 20.7 11.5766 20.6855 11.5826C20.671 11.5886 20.6586 11.5987 20.6499 11.6117C20.6411 11.6247 20.6364 11.6401 20.6364 11.6557V16.8186C20.6364 16.9874 20.7034 17.1493 20.8227 17.2686C20.9421 17.388 21.1039 17.455 21.2727 17.455H26.4356C26.4513 17.4549 26.4666 17.4502 26.4796 17.4415C26.4927 17.4327 26.5028 17.4203 26.5088 17.4058C26.5148 17.3914 26.5164 17.3754 26.5133 17.36C26.5103 17.3446 26.5028 17.3305 26.4917 17.3194Z" fill="#151515"/>
</svg>
