<svg width="16" height="16" viewBox="0 0 16 16" fill="none" xmlns="http://www.w3.org/2000/svg">
<path fill-rule="evenodd" clip-rule="evenodd" d="M10.4769 11.3154H5.66357C5.38757 11.3154 5.16357 11.0914 5.16357 10.8154C5.16357 10.5394 5.38757 10.3154 5.66357 10.3154H10.4769C10.7529 10.3154 10.9769 10.5394 10.9769 10.8154C10.9769 11.0914 10.7529 11.3154 10.4769 11.3154" fill="#4A495C" fill-opacity="0.8"/>
<path fill-rule="evenodd" clip-rule="evenodd" d="M10.4769 8.52441H5.66357C5.38757 8.52441 5.16357 8.30041 5.16357 8.02441C5.16357 7.74841 5.38757 7.52441 5.66357 7.52441H10.4769C10.7529 7.52441 10.9769 7.74841 10.9769 8.02441C10.9769 8.30041 10.7529 8.52441 10.4769 8.52441" fill="#4A495C" fill-opacity="0.8"/>
<path fill-rule="evenodd" clip-rule="evenodd" d="M7.50024 5.74023H5.66357C5.38757 5.74023 5.16357 5.51623 5.16357 5.24023C5.16357 4.96423 5.38757 4.74023 5.66357 4.74023H7.50024C7.77624 4.74023 8.00024 4.96423 8.00024 5.24023C8.00024 5.51623 7.77624 5.74023 7.50024 5.74023" fill="#4A495C" fill-opacity="0.8"/>
<mask id="mask0_6248_18706" style="mask-type:luminance" maskUnits="userSpaceOnUse" x="2" y="1" width="13" height="14">
<path fill-rule="evenodd" clip-rule="evenodd" d="M2 1.33398H14.1098V14.6072H2V1.33398Z" fill="white"/>
</mask>
<g mask="url(#mask0_6248_18706)">
<path fill-rule="evenodd" clip-rule="evenodd" d="M10.6055 2.33398L5.47951 2.33665C3.92751 2.34598 2.99951 3.30598 2.99951 4.90532V11.036C2.99951 12.646 3.93618 13.6073 5.50351 13.6073L10.6295 13.6053C12.1815 13.596 13.1095 12.6347 13.1095 11.036V4.90532C13.1095 3.29532 12.1735 2.33398 10.6055 2.33398ZM5.50418 14.6073C3.40818 14.6073 1.99951 13.172 1.99951 11.036V4.90532C1.99951 2.74998 3.36418 1.34932 5.47618 1.33665L10.6048 1.33398H10.6055C12.7015 1.33398 14.1095 2.76932 14.1095 4.90532V11.036C14.1095 13.1907 12.7448 14.592 10.6328 14.6053L5.50418 14.6073Z" fill="#4A495C" fill-opacity="0.8"/>
</g>
</svg>
