<svg width="14" height="14" viewBox="0 0 14 14" fill="none" xmlns="http://www.w3.org/2000/svg">
<path fill-rule="evenodd" clip-rule="evenodd" d="M11.5676 2.4323C11.3001 2.16487 10.8665 2.16487 10.5991 2.4323L10.4537 2.57766C10.4659 3.10454 10.8954 3.53398 11.4223 3.54606L11.5676 3.40076C11.835 3.13333 11.835 2.69974 11.5676 2.4323ZM10.5281 4.44026C10.1079 4.23451 9.76534 3.89197 9.55958 3.47182L8.31438 4.71702C7.95832 5.07307 7.82444 5.20931 7.7169 5.35891C7.61608 5.49916 7.53073 5.6499 7.46234 5.80851C7.38939 5.9777 7.34145 6.16259 7.21932 6.6511L7.17618 6.82368L7.34876 6.78054C7.83727 6.65841 8.02216 6.61047 8.19135 6.53752C8.34996 6.46913 8.5007 6.38378 8.64095 6.28296C8.79055 6.17542 8.92678 6.04154 9.28284 5.68548L10.5281 4.44026ZM9.51916 1.94915L7.53284 3.93548L7.50035 3.96796C7.1875 4.28074 6.98575 4.48244 6.81945 4.71377C6.6721 4.91875 6.54736 5.13907 6.44741 5.37087C6.3346 5.63249 6.26544 5.90927 6.1582 6.33846L6.14706 6.38303L5.88052 7.44917C5.83344 7.63749 5.88862 7.83671 6.02589 7.97397C6.16315 8.11123 6.36237 8.16641 6.55069 8.11933L7.61682 7.8528L7.6614 7.84166C8.09059 7.73441 8.36737 7.66526 8.62898 7.55245C8.86079 7.45249 9.08111 7.32775 9.28608 7.1804C9.51741 7.01411 9.71911 6.81236 10.0319 6.49952L10.0319 6.49951L10.0319 6.4995L10.0644 6.46702L12.3491 4.1823C13.0482 3.48324 13.0482 2.34983 12.3491 1.65076C11.65 0.951698 10.5166 0.951699 9.81755 1.65076L9.53207 1.93625C9.5277 1.94048 9.5234 1.94478 9.51916 1.94915ZM6.44146 1.19729L6.46578 1.19729H6.99999C7.3052 1.19729 7.55262 1.44472 7.55262 1.74993C7.55262 2.05514 7.3052 2.30256 6.99999 2.30256H6.46578C5.63132 2.30256 5.03871 2.30299 4.57495 2.34088C4.11765 2.37824 3.83452 2.44926 3.61017 2.56357C3.15957 2.79316 2.79322 3.15951 2.56363 3.61011C2.44932 3.83446 2.3783 4.11759 2.34094 4.57489C2.30305 5.03865 2.30262 5.63126 2.30262 6.46572V7.53414C2.30262 8.3686 2.30305 8.96121 2.34094 9.42496C2.3783 9.88227 2.44932 10.1654 2.56363 10.3897C2.79322 10.8403 3.15957 11.2067 3.61017 11.4363C3.83452 11.5506 4.11765 11.6216 4.57495 11.659C5.03871 11.6969 5.63132 11.6973 6.46578 11.6973H7.5342C8.36866 11.6973 8.96127 11.6969 9.42502 11.659C9.88233 11.6216 10.1655 11.5506 10.3898 11.4363C10.8404 11.2067 11.2068 10.8403 11.4363 10.3897C11.5507 10.1654 11.6217 9.88227 11.659 9.42496C11.6969 8.96121 11.6974 8.3686 11.6974 7.53414V6.99993C11.6974 6.69472 11.9448 6.44729 12.25 6.44729C12.5552 6.44729 12.8026 6.69472 12.8026 6.99993V7.53414V7.55842V7.55846C12.8026 8.3632 12.8026 9.00093 12.7606 9.51496C12.7177 10.0406 12.6281 10.4854 12.4211 10.8915C12.0856 11.5501 11.5502 12.0855 10.8916 12.4211C10.4855 12.628 10.0407 12.7176 9.51503 12.7606C9.00099 12.8026 8.36326 12.8026 7.55853 12.8026H7.55848H7.5342H6.46578H6.4415H6.44145C5.63672 12.8026 4.99899 12.8026 4.48495 12.7606C3.9593 12.7176 3.51452 12.628 3.10839 12.4211C2.44982 12.0855 1.91439 11.5501 1.57883 10.8915C1.3719 10.4854 1.2823 10.0406 1.23935 9.51496C1.19735 9.00093 1.19735 8.36319 1.19736 7.55845L1.19736 7.53414V6.46572L1.19736 6.4414C1.19735 5.63666 1.19735 4.99893 1.23935 4.48489C1.2823 3.95923 1.3719 3.51446 1.57883 3.10833C1.91439 2.44976 2.44982 1.91433 3.10839 1.57877C3.51452 1.37184 3.9593 1.28223 4.48495 1.23929C4.99899 1.19729 5.63672 1.19729 6.44146 1.19729Z" fill="#151E28"/>
</svg>
