<svg width="71" height="76" viewBox="0 0 71 76" fill="none" xmlns="http://www.w3.org/2000/svg">
<path d="M62.8935 56.2939C64.0845 56.2939 65.05 55.3284 65.05 54.1374C65.05 52.9464 64.0845 51.981 62.8935 51.981C61.7025 51.981 60.7371 52.9464 60.7371 54.1374C60.7371 55.3284 61.7025 56.2939 62.8935 56.2939Z" fill="#EAEEF9"/>
<path d="M68.5408 21.9391C69.3542 21.9391 70.0135 21.2797 70.0135 20.4664C70.0135 19.653 69.3542 18.9937 68.5408 18.9937C67.7275 18.9937 67.0681 19.653 67.0681 20.4664C67.0681 21.2797 67.7275 21.9391 68.5408 21.9391Z" fill="#EAEEF9"/>
<path d="M15.8943 15.275C16.7077 15.275 17.3671 14.6157 17.3671 13.8023C17.3671 12.9889 16.7077 12.3296 15.8943 12.3296C15.081 12.3296 14.4216 12.9889 14.4216 13.8023C14.4216 14.6157 15.081 15.275 15.8943 15.275Z" fill="#EAEEF9"/>
<path d="M14.4909 54.119C16.0014 54.119 17.2259 52.8945 17.2259 51.384C17.2259 49.8734 16.0014 48.6489 14.4909 48.6489C12.9804 48.6489 11.7559 49.8734 11.7559 51.384C11.7559 52.8945 12.9804 54.119 14.4909 54.119Z" fill="#EAEEF9"/>
<path d="M40.9449 59.437C55.6721 59.437 67.6116 47.4975 67.6116 32.7178C67.6116 17.938 55.6195 5.99854 40.9449 5.99854C26.2178 5.99854 14.2783 17.938 14.2783 32.7178C14.2783 47.4975 26.2178 59.437 40.9449 59.437Z" fill="#EAEEF9"/>
<g filter="url(#filter0_d_3857_13053)">
<path d="M59.9666 23.8099L57.3936 32.8156L56.6584 35.3273L50.2258 57.9334C49.7357 59.7713 47.7752 60.8128 45.9373 60.3227L35.0325 57.1983L23.8214 53.9513C21.9835 53.4612 20.942 51.5008 21.4321 49.6629L29.8864 19.9503L31.1729 15.5394C31.6018 14.069 32.6433 12.8438 33.991 12.1699L46.55 6.16611C48.4491 5.24716 50.7159 5.92105 51.8799 7.69768L59.354 19.3989C60.1504 20.6855 60.3954 22.2783 59.9666 23.8099Z" fill="url(#paint0_linear_3857_13053)"/>
</g>
<g filter="url(#filter1_d_3857_13053)">
<path d="M28.2321 55.6665L11.9974 39.4318C10.6496 38.084 10.6496 35.8785 11.9974 34.5307L37.1153 9.41287C38.218 8.31014 39.6883 7.75877 41.2199 7.82003L55.0654 8.67772C57.1483 8.80024 58.8637 10.4543 58.9862 12.5986L59.8439 26.444C59.9664 27.9756 59.3538 29.5072 58.2511 30.5486L33.1332 55.6665C31.7854 57.0143 29.5799 57.0143 28.2321 55.6665Z" fill="url(#paint1_linear_3857_13053)"/>
</g>
<path d="M53.383 20.2079C55.0099 18.581 55.0099 15.9434 53.383 14.3165C51.7561 12.6896 49.1185 12.6896 47.4916 14.3165C45.8647 15.9434 45.8647 18.581 47.4916 20.2079C49.1185 21.8348 51.7561 21.8348 53.383 20.2079Z" fill="#E5EAF6"/>
<path d="M20.0844 37.7779C19.7781 37.7779 19.4718 37.6553 19.2267 37.4103C18.7366 36.9202 18.7366 36.185 19.2267 35.6949L35.1551 19.7665C35.6452 19.2764 36.3804 19.2764 36.8705 19.7665C37.3606 20.2566 37.3606 20.9918 36.8705 21.4819L21.0033 37.4103C20.7583 37.6553 20.452 37.7779 20.0844 37.7779Z" fill="#E5EAF6"/>
<path d="M24.3727 42.0047C24.0664 42.0047 23.7601 41.8822 23.515 41.6371C23.0249 41.147 23.0249 40.4118 23.515 39.9217L39.3822 24.0546C39.8723 23.5645 40.6074 23.5645 41.0976 24.0546C41.5877 24.5447 41.5877 25.2799 41.0976 25.77L25.2304 41.6371C24.9854 41.8822 24.679 42.0047 24.3727 42.0047Z" fill="#E5EAF6"/>
<path d="M30.3151 47.9477C30.0088 47.9477 29.7025 47.8251 29.4574 47.5801C28.9673 47.09 28.9673 46.3548 29.4574 45.8647L34.726 40.5961C35.2162 40.106 35.9513 40.106 36.4414 40.5961C36.9315 41.0862 36.9315 41.8214 36.4414 42.3115L31.1728 47.5801C30.9277 47.8251 30.6214 47.9477 30.3151 47.9477Z" fill="#E5EAF6"/>
<path d="M64.9288 11.0057C64.9288 14.5589 62.8459 17.8059 59.5377 19.2149L59.2926 18.6023V17.9284C61.9269 16.6419 63.6423 13.9463 63.6423 11.0057C63.6423 6.77852 60.2116 3.28653 55.9232 3.28653C51.696 3.28653 48.204 6.71726 48.204 11.0057C48.204 11.8634 48.3265 12.6598 48.6328 13.4562C49.4905 15.968 51.5735 17.9284 54.2078 18.541L54.0853 19.1537L53.7177 19.7663C50.8383 19.0311 48.5716 16.9482 47.5301 14.2526C47.1625 13.2724 46.9175 12.1697 46.9175 11.0669C46.9787 6.04337 50.9608 2 55.9232 2C60.9467 2 64.9288 6.04337 64.9288 11.0057Z" fill="#989FB0"/>
<defs>
<filter id="filter0_d_3857_13053" x="11.1429" y="0.671694" width="59.2007" height="75.0242" filterUnits="userSpaceOnUse" color-interpolation-filters="sRGB">
<feFlood flood-opacity="0" result="BackgroundImageFix"/>
<feColorMatrix in="SourceAlpha" type="matrix" values="0 0 0 0 0 0 0 0 0 0 0 0 0 0 0 0 0 0 127 0" result="hardAlpha"/>
<feOffset dy="5.08417"/>
<feGaussianBlur stdDeviation="5.08417"/>
<feColorMatrix type="matrix" values="0 0 0 0 0.397708 0 0 0 0 0.47749 0 0 0 0 0.575 0 0 0 0.27 0"/>
<feBlend mode="normal" in2="BackgroundImageFix" result="effect1_dropShadow_3857_13053"/>
<feBlend mode="normal" in="SourceGraphic" in2="effect1_dropShadow_3857_13053" result="shape"/>
</filter>
<filter id="filter1_d_3857_13053" x="0.818242" y="2.73126" width="69.2095" height="69.1985" filterUnits="userSpaceOnUse" color-interpolation-filters="sRGB">
<feFlood flood-opacity="0" result="BackgroundImageFix"/>
<feColorMatrix in="SourceAlpha" type="matrix" values="0 0 0 0 0 0 0 0 0 0 0 0 0 0 0 0 0 0 127 0" result="hardAlpha"/>
<feOffset dy="5.08417"/>
<feGaussianBlur stdDeviation="5.08417"/>
<feColorMatrix type="matrix" values="0 0 0 0 0.397708 0 0 0 0 0.47749 0 0 0 0 0.575 0 0 0 0.27 0"/>
<feBlend mode="normal" in2="BackgroundImageFix" result="effect1_dropShadow_3857_13053"/>
<feBlend mode="normal" in="SourceGraphic" in2="effect1_dropShadow_3857_13053" result="shape"/>
</filter>
<linearGradient id="paint0_linear_3857_13053" x1="40.7307" y1="4.49088" x2="40.7307" y2="61.0331" gradientUnits="userSpaceOnUse">
<stop stop-color="#FDFEFF"/>
<stop offset="0.9964" stop-color="#ECF0F5"/>
</linearGradient>
<linearGradient id="paint1_linear_3857_13053" x1="35.407" y1="6.68521" x2="35.407" y2="57.2041" gradientUnits="userSpaceOnUse">
<stop stop-color="#FDFEFF"/>
<stop offset="0.9964" stop-color="#ECF0F5"/>
</linearGradient>
</defs>
</svg>
