<svg width="32" height="32" viewBox="0 0 32 32" fill="none" xmlns="http://www.w3.org/2000/svg">
<rect width="32" height="32" rx="16" fill="#F7685B" fill-opacity="0.1"/>
<path fill-rule="evenodd" clip-rule="evenodd" d="M7.25 16C7.25 11.1675 11.1675 7.25 16 7.25C20.8325 7.25 24.75 11.1675 24.75 16C24.75 20.8325 20.8325 24.75 16 24.75C11.1675 24.75 7.25 20.8325 7.25 16ZM17 12C17 12.5523 16.5523 13 16 13C15.4477 13 15 12.5523 15 12C15 11.4477 15.4477 11 16 11C16.5523 11 17 11.4477 17 12ZM16 14.75C16.4142 14.75 16.75 15.0858 16.75 15.5V20.5C16.75 20.9142 16.4142 21.25 16 21.25C15.5858 21.25 15.25 20.9142 15.25 20.5V15.5C15.25 15.0858 15.5858 14.75 16 14.75Z" fill="#F7685B"/>
</svg>
