<svg width="29" height="29" viewBox="0 0 29 29" fill="none" xmlns="http://www.w3.org/2000/svg">
<g clip-path="url(#clip0_1825_19302)">
<circle cx="14.5" cy="14.5" r="14.25" fill="white" stroke="#D2D2D2" stroke-width="0.5"/>
<path d="M14.75 5C12.8216 5 10.9366 5.57183 9.33319 6.64317C7.72982 7.71452 6.48013 9.23726 5.74218 11.0188C5.00422 12.8004 4.81114 14.7608 5.18735 16.6521C5.56355 18.5434 6.49215 20.2807 7.85571 21.6443C9.21928 23.0079 10.9566 23.9365 12.8479 24.3127C14.7392 24.6889 16.6996 24.4958 18.4812 23.7578C20.2627 23.0199 21.7855 21.7702 22.8568 20.1668C23.9282 18.5634 24.5 16.6784 24.5 14.75C24.495 12.1657 23.4662 9.68859 21.6388 7.86118C19.8114 6.03378 17.3343 5.00496 14.75 5V5ZM14 10.25C14 10.0511 14.079 9.86032 14.2197 9.71967C14.3603 9.57902 14.5511 9.5 14.75 9.5C14.9489 9.5 15.1397 9.57902 15.2803 9.71967C15.421 9.86032 15.5 10.0511 15.5 10.25V15.5C15.5 15.6989 15.421 15.8897 15.2803 16.0303C15.1397 16.171 14.9489 16.25 14.75 16.25C14.5511 16.25 14.3603 16.171 14.2197 16.0303C14.079 15.8897 14 15.6989 14 15.5V10.25ZM14.75 20C14.5275 20 14.31 19.934 14.125 19.8104C13.94 19.6868 13.7958 19.5111 13.7106 19.3055C13.6255 19.1 13.6032 18.8738 13.6466 18.6555C13.69 18.4373 13.7972 18.2368 13.9545 18.0795C14.1118 17.9222 14.3123 17.815 14.5305 17.7716C14.7488 17.7282 14.975 17.7505 15.1805 17.8356C15.3861 17.9208 15.5618 18.065 15.6854 18.25C15.809 18.435 15.875 18.6525 15.875 18.875C15.875 19.1734 15.7565 19.4595 15.5455 19.6705C15.3345 19.8815 15.0484 20 14.75 20Z" fill="#FC3400"/>
</g>
<defs>
<clipPath id="clip0_1825_19302">
<rect width="29" height="29" fill="white"/>
</clipPath>
</defs>
</svg>
