<svg width="48" height="48" viewBox="0 0 48 48" fill="none" xmlns="http://www.w3.org/2000/svg">
<rect width="48" height="48" rx="24" fill="#D92D20" fill-opacity="0.1"/>
<path d="M24 11C21.4288 11 18.9154 11.7624 16.7776 13.1909C14.6398 14.6194 12.9735 16.6497 11.9896 19.0251C11.0056 21.4006 10.7482 24.0144 11.2498 26.5362C11.7514 29.0579 12.9895 31.3743 14.8076 33.1924C16.6257 35.0105 18.9421 36.2486 21.4638 36.7502C23.9856 37.2518 26.5995 36.9944 28.9749 36.0104C31.3503 35.0265 33.3807 33.3603 34.8091 31.2224C36.2376 29.0846 37 26.5712 37 24C36.9934 20.5542 35.6216 17.2515 33.1851 14.8149C30.7486 12.3784 27.4458 11.0066 24 11V11ZM23 18C23 17.7348 23.1054 17.4804 23.2929 17.2929C23.4804 17.1054 23.7348 17 24 17C24.2652 17 24.5196 17.1054 24.7071 17.2929C24.8946 17.4804 25 17.7348 25 18V25C25 25.2652 24.8946 25.5196 24.7071 25.7071C24.5196 25.8946 24.2652 26 24 26C23.7348 26 23.4804 25.8946 23.2929 25.7071C23.1054 25.5196 23 25.2652 23 25V18ZM24 31C23.7033 31 23.4133 30.912 23.1667 30.7472C22.92 30.5824 22.7277 30.3481 22.6142 30.074C22.5007 29.7999 22.4709 29.4983 22.5288 29.2074C22.5867 28.9164 22.7296 28.6491 22.9393 28.4393C23.1491 28.2296 23.4164 28.0867 23.7074 28.0288C23.9983 27.9709 24.2999 28.0007 24.574 28.1142C24.8481 28.2277 25.0824 28.42 25.2472 28.6666C25.412 28.9133 25.5 29.2033 25.5 29.5C25.5 29.8978 25.342 30.2794 25.0607 30.5607C24.7794 30.842 24.3978 31 24 31Z" fill="#D92D20"/>
</svg>
