<svg width="133" height="40" viewBox="0 0 133 40" fill="none" xmlns="http://www.w3.org/2000/svg">
<path d="M8.37795 40L0 32H8.37795V40Z" fill="#5245ED"/>
<path d="M0 8C0 3.58172 3.58172 0 8 0H125C129.418 0 133 3.58172 133 8V24C133 28.4183 129.418 32 125 32H0V8Z" fill="#6557FF"/>
<path fill-rule="evenodd" clip-rule="evenodd" d="M20.7555 9.59998C20.9676 9.59998 21.1711 9.68426 21.3212 9.83429C21.4712 9.98432 21.5555 10.1878 21.5555 10.4V11.2H22.3555C22.5676 11.2 22.7711 11.2843 22.9212 11.4343C23.0712 11.5843 23.1555 11.7878 23.1555 12C23.1555 12.2121 23.0712 12.4156 22.9212 12.5657C22.7711 12.7157 22.5676 12.8 22.3555 12.8H21.5555V13.6C21.5555 13.8121 21.4712 14.0156 21.3212 14.1657C21.1711 14.3157 20.9676 14.4 20.7555 14.4C20.5433 14.4 20.3398 14.3157 20.1898 14.1657C20.0398 14.0156 19.9555 13.8121 19.9555 13.6V12.8H19.1555C18.9433 12.8 18.7398 12.7157 18.5898 12.5657C18.4398 12.4156 18.3555 12.2121 18.3555 12C18.3555 11.7878 18.4398 11.5843 18.5898 11.4343C18.7398 11.2843 18.9433 11.2 19.1555 11.2H19.9555V10.4C19.9555 10.1878 20.0398 9.98432 20.1898 9.83429C20.3398 9.68426 20.5433 9.59998 20.7555 9.59998ZM20.7555 17.6C20.9676 17.6 21.1711 17.6843 21.3212 17.8343C21.4712 17.9843 21.5555 18.1878 21.5555 18.4V19.2H22.3555C22.5676 19.2 22.7711 19.2843 22.9212 19.4343C23.0712 19.5843 23.1555 19.7878 23.1555 20C23.1555 20.2121 23.0712 20.4156 22.9212 20.5657C22.7711 20.7157 22.5676 20.8 22.3555 20.8H21.5555V21.6C21.5555 21.8121 21.4712 22.0156 21.3212 22.1657C21.1711 22.3157 20.9676 22.4 20.7555 22.4C20.5433 22.4 20.3398 22.3157 20.1898 22.1657C20.0398 22.0156 19.9555 21.8121 19.9555 21.6V20.8H19.1555C18.9433 20.8 18.7398 20.7157 18.5898 20.5657C18.4398 20.4156 18.3555 20.2121 18.3555 20C18.3555 19.7878 18.4398 19.5843 18.5898 19.4343C18.7398 19.2843 18.9433 19.2 19.1555 19.2H19.9555V18.4C19.9555 18.1878 20.0398 17.9843 20.1898 17.8343C20.3398 17.6843 20.5433 17.6 20.7555 17.6ZM26.3555 9.59998C26.532 9.59992 26.7036 9.65827 26.8436 9.76593C26.9835 9.87358 27.0839 10.0245 27.1291 10.1952L28.0723 13.76L30.7555 15.3072C30.8771 15.3774 30.9781 15.4784 31.0483 15.6C31.1185 15.7216 31.1554 15.8596 31.1554 16C31.1554 16.1404 31.1185 16.2783 31.0483 16.4C30.9781 16.5216 30.8771 16.6226 30.7555 16.6928L28.0723 18.2408L27.1283 21.8048C27.083 21.9753 26.9826 22.126 26.8428 22.2336C26.7029 22.3411 26.5315 22.3994 26.3551 22.3994C26.1787 22.3994 26.0072 22.3411 25.8674 22.2336C25.7275 22.126 25.6271 21.9753 25.5819 21.8048L24.6387 18.24L21.9555 16.6928C21.8339 16.6226 21.7329 16.5216 21.6627 16.4C21.5925 16.2783 21.5555 16.1404 21.5555 16C21.5555 15.8596 21.5925 15.7216 21.6627 15.6C21.7329 15.4784 21.8339 15.3774 21.9555 15.3072L24.6387 13.7592L25.5827 10.1952C25.6278 10.0246 25.7281 9.87381 25.8679 9.76617C26.0076 9.65852 26.1791 9.6001 26.3555 9.59998V9.59998Z" fill="white"/>
<path d="M37.6199 21V12.06H43.5599V13.5H39.2519V15.792H43.3199V17.232H39.2519V19.56H43.5599V21H37.6199ZM44.5366 21L46.8166 17.724L44.5246 14.472H46.3726L48.1606 17.112H47.3326L49.1206 14.472H50.9566L48.6766 17.724L50.9446 21H49.1086L47.3446 18.372H48.1486L46.3846 21H44.5366ZM52.316 23.4V14.472H53.792V15.768L53.648 15.444C53.872 15.092 54.176 14.82 54.56 14.628C54.944 14.428 55.388 14.328 55.892 14.328C56.508 14.328 57.064 14.48 57.56 14.784C58.056 15.088 58.448 15.496 58.736 16.008C59.032 16.52 59.18 17.096 59.18 17.736C59.18 18.368 59.036 18.944 58.748 19.464C58.46 19.984 58.068 20.396 57.572 20.7C57.076 20.996 56.512 21.144 55.88 21.144C55.408 21.144 54.972 21.052 54.572 20.868C54.18 20.676 53.868 20.404 53.636 20.052L53.888 19.74V23.4H52.316ZM55.7 19.704C56.06 19.704 56.38 19.62 56.66 19.452C56.94 19.284 57.156 19.052 57.308 18.756C57.468 18.46 57.548 18.12 57.548 17.736C57.548 17.352 57.468 17.016 57.308 16.728C57.156 16.432 56.94 16.2 56.66 16.032C56.38 15.856 56.06 15.768 55.7 15.768C55.356 15.768 55.044 15.852 54.764 16.02C54.492 16.188 54.276 16.424 54.116 16.728C53.964 17.024 53.888 17.36 53.888 17.736C53.888 18.12 53.964 18.46 54.116 18.756C54.276 19.052 54.492 19.284 54.764 19.452C55.044 19.62 55.356 19.704 55.7 19.704ZM63.9745 21.144C63.3025 21.144 62.7145 20.992 62.2105 20.688C61.7065 20.384 61.3145 19.972 61.0345 19.452C60.7545 18.932 60.6145 18.356 60.6145 17.724C60.6145 17.068 60.7545 16.488 61.0345 15.984C61.3225 15.472 61.7105 15.068 62.1985 14.772C62.6945 14.476 63.2465 14.328 63.8545 14.328C64.3665 14.328 64.8145 14.412 65.1985 14.58C65.5905 14.748 65.9225 14.98 66.1945 15.276C66.4665 15.572 66.6745 15.912 66.8185 16.296C66.9625 16.672 67.0345 17.08 67.0345 17.52C67.0345 17.632 67.0265 17.748 67.0105 17.868C67.0025 17.988 66.9825 18.092 66.9505 18.18H61.9105V16.98H66.0625L65.3185 17.544C65.3905 17.176 65.3705 16.848 65.2585 16.56C65.1545 16.272 64.9785 16.044 64.7305 15.876C64.4905 15.708 64.1985 15.624 63.8545 15.624C63.5265 15.624 63.2345 15.708 62.9785 15.876C62.7225 16.036 62.5265 16.276 62.3905 16.596C62.2625 16.908 62.2145 17.288 62.2465 17.736C62.2145 18.136 62.2665 18.492 62.4025 18.804C62.5465 19.108 62.7545 19.344 63.0265 19.512C63.3065 19.68 63.6265 19.764 63.9865 19.764C64.3465 19.764 64.6505 19.688 64.8985 19.536C65.1545 19.384 65.3545 19.18 65.4985 18.924L66.7705 19.548C66.6425 19.86 66.4425 20.136 66.1705 20.376C65.8985 20.616 65.5745 20.804 65.1985 20.94C64.8305 21.076 64.4225 21.144 63.9745 21.144ZM68.7261 21V14.472H70.2021V15.924L70.0821 15.708C70.2341 15.22 70.4701 14.88 70.7901 14.688C71.1181 14.496 71.5101 14.4 71.9661 14.4H72.3501V15.792H71.7861C71.3381 15.792 70.9781 15.932 70.7061 16.212C70.4341 16.484 70.2981 16.868 70.2981 17.364V21H68.7261ZM73.7144 21V14.472H75.2864V21H73.7144ZM73.7144 13.74V12.06H75.2864V13.74H73.7144ZM77.2379 21V14.472H78.7139V15.984L78.5459 15.732C78.6659 15.26 78.9059 14.908 79.2659 14.676C79.6259 14.444 80.0499 14.328 80.5379 14.328C81.0739 14.328 81.5459 14.468 81.9539 14.748C82.3619 15.028 82.6259 15.396 82.7459 15.852L82.3019 15.888C82.5019 15.368 82.8019 14.98 83.2019 14.724C83.6019 14.46 84.0619 14.328 84.5819 14.328C85.0459 14.328 85.4579 14.432 85.8179 14.64C86.1859 14.848 86.4739 15.14 86.6819 15.516C86.8899 15.884 86.9939 16.312 86.9939 16.8V21H85.4219V17.172C85.4219 16.884 85.3699 16.636 85.2659 16.428C85.1619 16.22 85.0179 16.06 84.8339 15.948C84.6499 15.828 84.4259 15.768 84.1619 15.768C83.9139 15.768 83.6939 15.828 83.5019 15.948C83.3099 16.06 83.1619 16.22 83.0579 16.428C82.9539 16.636 82.9019 16.884 82.9019 17.172V21H81.3299V17.172C81.3299 16.884 81.2779 16.636 81.1739 16.428C81.0699 16.22 80.9219 16.06 80.7299 15.948C80.5459 15.828 80.3259 15.768 80.0699 15.768C79.8219 15.768 79.6019 15.828 79.4099 15.948C79.2179 16.06 79.0699 16.22 78.9659 16.428C78.8619 16.636 78.8099 16.884 78.8099 17.172V21H77.2379ZM91.9198 21.144C91.2478 21.144 90.6598 20.992 90.1558 20.688C89.6518 20.384 89.2598 19.972 88.9798 19.452C88.6998 18.932 88.5598 18.356 88.5598 17.724C88.5598 17.068 88.6998 16.488 88.9798 15.984C89.2678 15.472 89.6558 15.068 90.1438 14.772C90.6398 14.476 91.1918 14.328 91.7998 14.328C92.3118 14.328 92.7598 14.412 93.1438 14.58C93.5358 14.748 93.8678 14.98 94.1398 15.276C94.4118 15.572 94.6198 15.912 94.7638 16.296C94.9078 16.672 94.9798 17.08 94.9798 17.52C94.9798 17.632 94.9718 17.748 94.9558 17.868C94.9478 17.988 94.9278 18.092 94.8958 18.18H89.8558V16.98H94.0078L93.2638 17.544C93.3358 17.176 93.3158 16.848 93.2038 16.56C93.0998 16.272 92.9238 16.044 92.6758 15.876C92.4358 15.708 92.1438 15.624 91.7998 15.624C91.4718 15.624 91.1798 15.708 90.9238 15.876C90.6678 16.036 90.4718 16.276 90.3358 16.596C90.2078 16.908 90.1598 17.288 90.1918 17.736C90.1598 18.136 90.2118 18.492 90.3478 18.804C90.4918 19.108 90.6998 19.344 90.9718 19.512C91.2518 19.68 91.5718 19.764 91.9318 19.764C92.2918 19.764 92.5958 19.688 92.8438 19.536C93.0998 19.384 93.2998 19.18 93.4438 18.924L94.7158 19.548C94.5878 19.86 94.3878 20.136 94.1158 20.376C93.8438 20.616 93.5198 20.804 93.1438 20.94C92.7758 21.076 92.3678 21.144 91.9198 21.144ZM96.6715 21V14.472H98.1475V15.756L98.0275 15.528C98.1795 15.136 98.4275 14.84 98.7715 14.64C99.1235 14.432 99.5315 14.328 99.9955 14.328C100.475 14.328 100.899 14.432 101.267 14.64C101.643 14.848 101.935 15.14 102.143 15.516C102.351 15.884 102.455 16.312 102.455 16.8V21H100.883V17.172C100.883 16.884 100.827 16.636 100.715 16.428C100.603 16.22 100.447 16.06 100.247 15.948C100.055 15.828 99.8275 15.768 99.5635 15.768C99.3075 15.768 99.0795 15.828 98.8795 15.948C98.6795 16.06 98.5235 16.22 98.4115 16.428C98.2995 16.636 98.2435 16.884 98.2435 17.172V21H96.6715ZM107.261 21.072C106.525 21.072 105.953 20.872 105.545 20.472C105.145 20.064 104.945 19.492 104.945 18.756V15.876H103.817V14.472H103.937C104.257 14.472 104.505 14.388 104.681 14.22C104.857 14.052 104.945 13.808 104.945 13.488V12.984H106.517V14.472H108.017V15.876H106.517V18.672C106.517 18.888 106.553 19.072 106.625 19.224C106.705 19.376 106.825 19.492 106.985 19.572C107.153 19.652 107.365 19.692 107.621 19.692C107.677 19.692 107.741 19.688 107.813 19.68C107.893 19.672 107.969 19.664 108.041 19.656V21C107.929 21.016 107.801 21.032 107.657 21.048C107.513 21.064 107.381 21.072 107.261 21.072ZM111.698 21.144C111.242 21.144 110.846 21.068 110.51 20.916C110.174 20.764 109.914 20.548 109.73 20.268C109.546 19.98 109.454 19.648 109.454 19.272C109.454 18.912 109.534 18.592 109.694 18.312C109.854 18.024 110.102 17.784 110.438 17.592C110.774 17.4 111.198 17.264 111.71 17.184L113.846 16.836V18.036L112.01 18.348C111.698 18.404 111.466 18.504 111.314 18.648C111.162 18.792 111.086 18.98 111.086 19.212C111.086 19.436 111.17 19.616 111.338 19.752C111.514 19.88 111.73 19.944 111.986 19.944C112.314 19.944 112.602 19.876 112.85 19.74C113.106 19.596 113.302 19.4 113.438 19.152C113.582 18.904 113.654 18.632 113.654 18.336V16.656C113.654 16.376 113.542 16.144 113.318 15.96C113.102 15.768 112.814 15.672 112.454 15.672C112.118 15.672 111.818 15.764 111.554 15.948C111.298 16.124 111.11 16.36 110.99 16.656L109.706 16.032C109.834 15.688 110.034 15.392 110.306 15.144C110.586 14.888 110.914 14.688 111.29 14.544C111.666 14.4 112.074 14.328 112.514 14.328C113.05 14.328 113.522 14.428 113.93 14.628C114.338 14.82 114.654 15.092 114.878 15.444C115.11 15.788 115.226 16.192 115.226 16.656V21H113.738V19.884L114.074 19.86C113.906 20.14 113.706 20.376 113.474 20.568C113.242 20.752 112.978 20.896 112.682 21C112.386 21.096 112.058 21.144 111.698 21.144ZM117.179 21V11.916H118.751V21H117.179Z" fill="white"/>
</svg>
