<svg width="31" height="31" viewBox="0 0 31 31" fill="none" xmlns="http://www.w3.org/2000/svg">
<path d="M7.75 6.95837V16.7917H13.5903C13.891 16.7917 14.0414 16.7917 14.1622 16.8664C14.283 16.9411 14.3502 17.0755 14.4847 17.3445L15.2236 18.8223C15.3581 19.0912 15.4253 19.2257 15.5462 19.3004C15.667 19.375 15.8173 19.375 16.118 19.375H22.75C22.9857 19.375 23.1036 19.375 23.1768 19.3018C23.25 19.2286 23.25 19.1107 23.25 18.875V9.54171C23.25 9.30601 23.25 9.18815 23.1768 9.11493C23.1036 9.04171 22.9857 9.04171 22.75 9.04171H16.118C15.8173 9.04171 15.667 9.04171 15.5462 8.96703C15.4253 8.89236 15.3581 8.75788 15.2236 8.48892L14.4847 7.01116C14.3502 6.7422 14.283 6.60772 14.1622 6.53305C14.0414 6.45837 13.891 6.45837 13.5903 6.45837H8.25C8.0143 6.45837 7.89645 6.45837 7.82322 6.5316C7.75 6.60482 7.75 6.72267 7.75 6.95837Z" fill="#6557FF"/>
<path d="M7.75 16.7917V6.95837C7.75 6.72267 7.75 6.60482 7.82322 6.5316C7.89645 6.45837 8.0143 6.45837 8.25 6.45837H13.5903C13.891 6.45837 14.0414 6.45837 14.1622 6.53305C14.283 6.60772 14.3502 6.7422 14.4847 7.01116L15.2236 8.48892C15.3581 8.75788 15.4253 8.89236 15.5462 8.96703C15.667 9.04171 15.8173 9.04171 16.118 9.04171H22.75C22.9857 9.04171 23.1036 9.04171 23.1768 9.11493C23.25 9.18815 23.25 9.30601 23.25 9.54171V18.875C23.25 19.1107 23.25 19.2286 23.1768 19.3018C23.1036 19.375 22.9857 19.375 22.75 19.375H16.118C15.8173 19.375 15.667 19.375 15.5462 19.3004C15.4253 19.2257 15.3581 19.0912 15.2236 18.8223L14.4847 17.3445C14.3502 17.0755 14.283 16.9411 14.1622 16.8664C14.0414 16.7917 13.891 16.7917 13.5903 16.7917H7.75ZM7.75 16.7917V24.5417" stroke="#6557FF" stroke-width="2" stroke-linecap="round"/>
</svg>
