<svg width="16" height="16" viewBox="0 0 16 16" fill="none" xmlns="http://www.w3.org/2000/svg">
<path d="M7.07279 1.95876C7.40945 1.12426 8.59089 1.12426 8.92755 1.95876L10.2191 5.16017C10.2662 5.27713 10.3754 5.35744 10.5011 5.36769L13.7452 5.6324C14.6248 5.70417 14.987 6.79712 14.3243 7.37998L11.8626 9.54509C11.7715 9.62522 11.7311 9.74852 11.7572 9.86701L12.5444 13.4451C12.741 14.3389 11.7332 15.0053 10.9877 14.4745L8.19351 12.485C8.07779 12.4026 7.92256 12.4026 7.80683 12.485L5.0126 14.4745C4.2671 15.0053 3.25931 14.3388 3.45595 13.4451L4.24313 9.86701C4.2692 9.74852 4.22883 9.62522 4.13772 9.54509L1.67597 7.37999C1.01326 6.79715 1.37543 5.70417 2.25505 5.6324L5.49926 5.36769C5.62495 5.35744 5.7341 5.27712 5.78128 5.16017L7.07279 1.95876Z" fill="#FFB10B"/>
</svg>
