<svg width="51" height="51" viewBox="0 0 51 51" fill="none" xmlns="http://www.w3.org/2000/svg">
<g id="resources-add">
<g id="elements">
<path id="Rectangle 2302 (Stroke)" d="M3.12305 3.12305C3.42193 2.82416 3.82731 2.65625 4.25 2.65625H21.25C22.1302 2.65625 22.8438 3.3698 22.8438 4.25V21.25C22.8438 22.1302 22.1302 22.8438 21.25 22.8438H4.25C3.3698 22.8438 2.65625 22.1302 2.65625 21.25V4.25C2.65625 3.82731 2.82416 3.42193 3.12305 3.12305Z" fill="#6557FF"/>
<path id="Rectangle 2303 (Stroke)" d="M28.623 28.623C28.9219 28.3242 29.3273 28.1562 29.75 28.1562H46.75C47.6302 28.1562 48.3438 28.8698 48.3438 29.75V46.75C48.3438 47.6302 47.6302 48.3438 46.75 48.3438H29.75C28.8698 48.3438 28.1562 47.6302 28.1562 46.75V29.75C28.1562 29.3273 28.3242 28.9219 28.623 28.623Z" fill="#6557FF"/>
<path id="Rectangle 2305 (Stroke)" d="M12.6855 26.498C13.3079 25.8757 14.3171 25.8757 14.9395 26.498L24.502 36.0605C25.1243 36.6829 25.1243 37.6921 24.502 38.3145L14.9395 47.877C14.3171 48.4993 13.3079 48.4993 12.6855 47.877L3.12305 38.3145C2.50065 37.6921 2.50065 36.6829 3.12305 36.0605L12.6855 26.498Z" fill="#6557FF"/>
<path id="Vector (Stroke)" fill-rule="evenodd" clip-rule="evenodd" d="M36.125 10.625V3.1875H40.375V10.625H47.8125V14.875H40.375V22.3125H36.125V14.875H28.6875V10.625H36.125Z" fill="#6557FF"/>
</g>
</g>
</svg>
