<svg width="16" height="16" viewBox="0 0 16 16" fill="none" xmlns="http://www.w3.org/2000/svg">
<path d="M11.3337 4.03947C10.8713 4.03978 10.4233 4.20027 10.066 4.49363C9.70863 4.787 9.46394 5.19511 9.37357 5.64855C9.2832 6.10198 9.35272 6.57272 9.5703 6.98067C9.78789 7.38863 10.1401 7.7086 10.567 7.88614C10.4655 8.12943 10.2942 8.33718 10.0747 8.48313C9.85513 8.62908 9.59728 8.70669 9.33366 8.70614H6.667C6.19702 8.70811 5.73633 8.8371 5.33366 9.07947V5.25281C5.77847 5.09554 6.15337 4.78609 6.39208 4.37915C6.6308 3.97221 6.71797 3.49398 6.63819 3.02898C6.55841 2.56399 6.31682 2.14216 5.9561 1.83807C5.59539 1.53397 5.13879 1.36719 4.667 1.36719C4.1952 1.36719 3.7386 1.53397 3.37789 1.83807C3.01718 2.14216 2.77558 2.56399 2.6958 3.02898C2.61602 3.49398 2.70319 3.97221 2.94191 4.37915C3.18063 4.78609 3.55552 5.09554 4.00033 5.25281V10.8261C3.56099 10.9841 3.19077 11.2909 2.95383 11.6932C2.71689 12.0955 2.62817 12.568 2.70303 13.0288C2.77789 13.4897 3.01163 13.9098 3.36373 14.2164C3.71583 14.523 4.1641 14.6968 4.63087 14.7076C5.09763 14.7184 5.55347 14.5656 5.91938 14.2756C6.28529 13.9856 6.53821 13.5767 6.63432 13.1198C6.73043 12.6629 6.66366 12.1868 6.44559 11.774C6.22752 11.3612 5.87189 11.0376 5.44033 10.8595C5.54138 10.6172 5.71169 10.4102 5.9299 10.2643C6.14811 10.1185 6.40452 10.0402 6.667 10.0395H9.33366C9.94355 10.0393 10.535 9.83017 11.0093 9.44682C11.4837 9.06346 11.8123 8.52909 11.9403 7.93281C12.386 7.78136 12.7641 7.47754 13.0078 7.07484C13.2516 6.67213 13.3455 6.19634 13.273 5.73121C13.2006 5.26607 12.9663 4.84141 12.6116 4.53197C12.2569 4.22252 11.8043 4.04813 11.3337 4.03947ZM4.667 2.70614C4.79885 2.70614 4.92774 2.74524 5.03738 2.81849C5.14701 2.89175 5.23246 2.99587 5.28292 3.11768C5.33337 3.2395 5.34658 3.37355 5.32085 3.50287C5.29513 3.63219 5.23164 3.75098 5.1384 3.84421C5.04517 3.93745 4.92638 4.00094 4.79706 4.02666C4.66774 4.05239 4.53369 4.03918 4.41187 3.98873C4.29006 3.93827 4.18594 3.85282 4.11268 3.74319C4.03943 3.63355 4.00033 3.50466 4.00033 3.37281C4.00033 3.19599 4.07057 3.02643 4.19559 2.9014C4.32062 2.77638 4.49019 2.70614 4.667 2.70614ZM4.667 13.3728C4.53514 13.3728 4.40625 13.3337 4.29662 13.2605C4.18698 13.1872 4.10154 13.0831 4.05108 12.9613C4.00062 12.8394 3.98742 12.7054 4.01314 12.5761C4.03886 12.4468 4.10236 12.328 4.19559 12.2347C4.28883 12.1415 4.40762 12.078 4.53694 12.0523C4.66626 12.0266 4.8003 12.0398 4.92212 12.0902C5.04394 12.1407 5.14806 12.2261 5.22131 12.3358C5.29456 12.4454 5.33366 12.5743 5.33366 12.7061C5.33366 12.8829 5.26343 13.0525 5.1384 13.1775C5.01338 13.3026 4.84381 13.3728 4.667 13.3728ZM11.3337 6.70614C11.2018 6.70614 11.0729 6.66704 10.9633 6.59379C10.8537 6.52053 10.7682 6.41641 10.7177 6.29459C10.6673 6.17278 10.6541 6.03873 10.6798 5.90941C10.7055 5.78009 10.769 5.6613 10.8623 5.56807C10.9555 5.47483 11.0743 5.41134 11.2036 5.38562C11.3329 5.35989 11.467 5.37309 11.5888 5.42355C11.7106 5.47401 11.8147 5.55946 11.888 5.66909C11.9612 5.77873 12.0003 5.90762 12.0003 6.03947C12.0003 6.21628 11.9301 6.38585 11.8051 6.51088C11.68 6.6359 11.5105 6.70614 11.3337 6.70614Z" fill="#1D1D1D"/>
</svg>
