<svg width="30" height="30" viewBox="0 0 30 30" fill="none" xmlns="http://www.w3.org/2000/svg">
<circle cx="8.53197" cy="11.7771" r="3.35423" fill="#E2E2E2"/>
<path d="M13.0265 21.4671C13.6319 21.4671 14.1335 20.9717 14.0155 20.3779C13.9443 20.0191 13.8378 19.6673 13.6971 19.3277C13.4162 18.6495 13.0044 18.0332 12.4853 17.5141C11.9662 16.995 11.3499 16.5832 10.6716 16.3023C9.99337 16.0213 9.26642 15.8767 8.53228 15.8767C7.79814 15.8767 7.07119 16.0213 6.39293 16.3023C5.71467 16.5832 5.0984 16.995 4.57928 17.5141C4.06017 18.0332 3.64838 18.6495 3.36744 19.3277C3.22677 19.6673 3.12029 20.0191 3.04902 20.3779C2.93107 20.9717 3.43266 21.4671 4.03805 21.4671L8.53228 21.4671H13.0265Z" fill="#E2E2E2"/>
<circle cx="18.8365" cy="10.0675" r="4.93269" fill="#E2E2E2"/>
<path d="M25.9614 24.3173C26.5668 24.3173 27.0651 23.8244 26.9846 23.2244C26.8902 22.5205 26.7047 21.8302 26.4317 21.1712C26.0186 20.1738 25.413 19.2675 24.6496 18.5041C23.8862 17.7407 22.9799 17.1351 21.9825 16.722C20.9851 16.3088 19.916 16.0962 18.8364 16.0962C17.7568 16.0962 16.6877 16.3088 15.6903 16.722C14.6929 17.1351 13.7866 17.7407 13.0232 18.5041C12.2597 19.2675 11.6542 20.1738 11.241 21.1712C10.9681 21.8302 10.7826 22.5205 10.6882 23.2244C10.6077 23.8244 11.106 24.3173 11.7114 24.3173L18.8364 24.3173H25.9614Z" fill="#E2E2E2"/>
</svg>
