<svg width="24" height="24" viewBox="0 0 24 24" fill="none" xmlns="http://www.w3.org/2000/svg">
<circle cx="12" cy="12" r="12" fill="#6557FF"/>
<path d="M12.0207 5.354C10.7207 5.354 9.50734 5.72734 8.48734 6.36734L13.0607 10.9473L13.0673 9.12067C13.0673 8.84734 13.294 8.62067 13.5673 8.62067C13.8473 8.62067 14.0673 8.84734 14.0673 9.12067L14.0607 12.154C14.0607 12.3607 13.934 12.5407 13.7473 12.614C13.6873 12.6407 13.6207 12.654 13.5607 12.654C13.4273 12.654 13.3007 12.6007 13.2073 12.5073L7.74734 7.04067C7.72067 7.014 7.70067 6.98734 7.68067 6.96067C6.254 8.18734 5.354 10.0007 5.354 12.0207C5.354 15.7007 8.34067 18.6873 12.0207 18.6873C13.3207 18.6873 14.534 18.314 15.554 17.674L10.9807 13.094L10.974 14.9207C10.974 15.194 10.7473 15.4207 10.474 15.4207C10.194 15.4207 9.974 15.194 9.974 14.9207L9.98067 11.8873C9.98067 11.6807 10.1073 11.5007 10.294 11.4273C10.474 11.3473 10.694 11.3873 10.834 11.534L16.294 17.0007C16.3207 17.0273 16.3407 17.054 16.3607 17.0807C17.7873 15.854 18.6873 14.0407 18.6873 12.0207C18.6873 8.34067 15.7007 5.354 12.0207 5.354Z" fill="white"/>
</svg>
