<svg width="16" height="16" viewBox="0 0 16 16" fill="none" xmlns="http://www.w3.org/2000/svg">
<path d="M0.59861 9.69734C0.705615 9.62978 0.827964 9.59036 0.954286 9.58275C1.08061 9.57514 1.2068 9.59959 1.32114 9.65382C1.47867 9.72834 1.65293 9.76042 1.82667 9.74689C2.0004 9.73336 2.16759 9.67468 2.31168 9.57667C2.45577 9.47866 2.57176 9.34472 2.64817 9.1881C2.72458 9.03148 2.75876 8.85762 2.74732 8.68373C2.72906 8.4442 2.62618 8.21897 2.45707 8.04834C2.28797 7.87772 2.06368 7.77281 1.82432 7.7524C1.6513 7.73878 1.47775 7.77093 1.32108 7.8456C1.20677 7.89989 1.08057 7.92437 0.954243 7.91676C0.827917 7.90915 0.705572 7.8697 0.598599 7.80207C0.491627 7.73445 0.403505 7.64086 0.342443 7.53001C0.28138 7.41916 0.249361 7.29466 0.249367 7.16811L0.249397 4.49971C0.249773 4.1683 0.381595 3.85057 0.61594 3.61623C0.850286 3.38189 1.16802 3.25008 1.49943 3.24971L3.4994 3.24977V3.24971C3.49996 2.90824 3.57021 2.57047 3.70584 2.25708C3.84147 1.9437 4.03963 1.66129 4.28819 1.42714C4.53676 1.19194 4.83135 1.01077 5.1534 0.895041C5.47545 0.779312 5.81798 0.731534 6.1594 0.754717C6.76193 0.794273 7.32988 1.05018 7.75868 1.47532C8.18747 1.90046 8.44822 2.46621 8.49293 3.06838C8.49723 3.1288 8.49936 3.18927 8.49931 3.24977L10.4994 3.24971C10.8309 3.24971 11.1488 3.38141 11.3832 3.61583C11.6177 3.85025 11.7494 4.16819 11.7494 4.49971V6.24971C12.0908 6.25027 12.4286 6.32052 12.742 6.45614C13.0554 6.59177 13.3378 6.78992 13.5719 7.03847C13.8071 7.28708 13.9882 7.58168 14.1039 7.90372C14.2197 8.22576 14.2675 8.56827 14.2443 8.90968C14.2048 9.51221 13.9489 10.0802 13.5238 10.509C13.0987 10.9378 12.5329 11.1985 11.9308 11.2432C11.8705 11.2486 11.8099 11.2507 11.7494 11.2496V12.9997C11.7494 13.1638 11.717 13.3264 11.6542 13.478C11.5914 13.6297 11.4993 13.7675 11.3833 13.8836C11.2672 13.9997 11.1294 14.0917 10.9777 14.1546C10.8261 14.2174 10.6635 14.2497 10.4994 14.2497H1.4994C1.16799 14.2493 0.850266 14.1175 0.615927 13.8832C0.381588 13.6488 0.249771 13.3311 0.249397 12.9997L0.249367 10.3313C0.249373 10.2048 0.2814 10.0803 0.342463 9.96942C0.403527 9.85857 0.491644 9.76498 0.59861 9.69734ZM1.7494 12.7497H10.2494L10.2493 10.3313C10.2493 10.2048 10.2814 10.0803 10.3424 9.96941C10.4035 9.85856 10.4916 9.76496 10.5986 9.69734C10.7056 9.62971 10.8279 9.59026 10.9542 9.58265C11.0806 9.57505 11.2068 9.59953 11.3211 9.65382C11.4778 9.72835 11.6513 9.76049 11.8243 9.74703C12.0636 9.72661 12.2879 9.62171 12.457 9.45108C12.6261 9.28045 12.729 9.05523 12.7473 8.81569C12.7586 8.64183 12.7244 8.46803 12.648 8.31146C12.5715 8.15489 12.4555 8.021 12.3115 7.92301C12.1674 7.82502 12.0003 7.76633 11.8266 7.75275C11.6529 7.73918 11.4787 7.77118 11.3211 7.8456C11.2068 7.89989 11.0806 7.92437 10.9543 7.91676C10.8279 7.90915 10.7056 7.8697 10.5986 7.80208C10.4916 7.73446 10.4035 7.64086 10.3424 7.53001C10.2814 7.41917 10.2493 7.29467 10.2493 7.16811L10.2494 4.74971L7.58097 4.74977C7.45441 4.74977 7.32992 4.71774 7.21907 4.65667C7.10823 4.5956 7.01464 4.50747 6.94702 4.40049C6.8794 4.29352 6.83995 4.17117 6.83234 4.04484C6.82473 3.91851 6.84922 3.79232 6.90351 3.678C6.97794 3.5213 7.01007 3.34785 6.99671 3.17488C6.9763 2.93551 6.8714 2.71121 6.70078 2.54209C6.53015 2.37297 6.30492 2.27007 6.06538 2.25179C5.89152 2.24046 5.71772 2.27471 5.56115 2.35115C5.40459 2.42759 5.2707 2.54357 5.17271 2.68763C5.07472 2.83169 5.01603 2.99883 5.00244 3.17253C4.98886 3.34622 5.02085 3.52046 5.09525 3.678C5.14956 3.79231 5.17405 3.91851 5.16645 4.04485C5.15885 4.17118 5.1194 4.29353 5.05178 4.40051C4.98416 4.50749 4.89056 4.59562 4.77971 4.65669C4.66886 4.71776 4.54435 4.74978 4.41779 4.74977L1.7494 4.74971L1.74937 6.24983C1.80998 6.24892 1.87031 6.25191 1.93076 6.25618C2.53293 6.30088 3.09868 6.56164 3.52381 6.99044C3.94895 7.41924 4.20484 7.98721 4.24436 8.58974C4.26749 8.93116 4.21968 9.27366 4.10396 9.5957C3.98824 9.91774 3.80711 10.2123 3.57197 10.461C3.33782 10.7095 3.0554 10.9077 2.74202 11.0433C2.42864 11.1789 2.09087 11.2491 1.7494 11.2497H1.74937L1.7494 12.7497Z" fill="#6557FF"/>
</svg>
