<svg width="16" height="16" viewBox="0 0 16 16" fill="none" xmlns="http://www.w3.org/2000/svg">
<path d="M3.17359 7.06011C3.3504 7.08309 3.5291 7.0349 3.67038 6.92613C3.81165 6.81735 3.90394 6.65692 3.92692 6.48011C3.94991 6.3033 3.90171 6.12459 3.79294 5.98332C3.68417 5.84204 3.52373 5.74976 3.34692 5.72677L2.17359 5.43344C2.08805 5.40722 1.9981 5.39848 1.90911 5.40775C1.82012 5.41702 1.73391 5.44411 1.65561 5.4874C1.57731 5.5307 1.50852 5.58931 1.45335 5.65974C1.39818 5.73018 1.35775 5.811 1.33448 5.89739C1.3112 5.98378 1.30555 6.07398 1.31787 6.16259C1.33019 6.25121 1.36021 6.33645 1.40617 6.41322C1.45212 6.48999 1.51305 6.55672 1.58534 6.60945C1.65762 6.66217 1.73978 6.6998 1.82692 6.72011L3.00026 7.03344C3.05611 7.05208 3.11472 7.06109 3.17359 7.06011ZM5.74692 3.33344C5.78599 3.47888 5.87315 3.60681 5.9942 3.69639C6.11526 3.78597 6.26308 3.83193 6.41359 3.82677C6.471 3.83599 6.52951 3.83599 6.58692 3.82677C6.75613 3.77996 6.90004 3.6683 6.98742 3.51602C7.07479 3.36374 7.09857 3.18314 7.05359 3.01344L6.74026 1.84011C6.71995 1.75297 6.68232 1.67081 6.6296 1.59852C6.57687 1.52623 6.51014 1.4653 6.43337 1.41935C6.3566 1.3734 6.27137 1.34337 6.18274 1.33105C6.09413 1.31874 6.00393 1.32439 5.91754 1.34766C5.83115 1.37094 5.75033 1.41137 5.67989 1.46654C5.60946 1.52171 5.55084 1.59049 5.50755 1.66879C5.46426 1.74709 5.43717 1.8333 5.4279 1.92229C5.41863 2.01128 5.42737 2.10123 5.45359 2.18677L5.74692 3.33344ZM8.96692 10.0001C8.90464 9.93455 8.82968 9.88235 8.74659 9.84667C8.66349 9.811 8.57401 9.79261 8.48359 9.79261C8.39316 9.79261 8.30368 9.811 8.22059 9.84667C8.1375 9.88235 8.06254 9.93455 8.00026 10.0001L5.66692 12.3734C5.39258 12.6366 5.02711 12.7836 4.64692 12.7836C4.26674 12.7836 3.90127 12.6366 3.62692 12.3734C3.49187 12.2401 3.38464 12.0813 3.31146 11.9062C3.23827 11.7311 3.20059 11.5432 3.20059 11.3534C3.20059 11.1637 3.23827 10.9758 3.31146 10.8007C3.38464 10.6256 3.49187 10.4668 3.62692 10.3334L6.00026 8.00011C6.07004 7.94034 6.12672 7.8668 6.16674 7.78409C6.20675 7.70138 6.22924 7.61129 6.23279 7.51947C6.23633 7.42766 6.22086 7.33611 6.18735 7.25056C6.15383 7.16501 6.10299 7.08731 6.03802 7.02234C5.97305 6.95737 5.89535 6.90653 5.8098 6.87301C5.72425 6.8395 5.6327 6.82403 5.54089 6.82757C5.44907 6.83112 5.35899 6.85361 5.27628 6.89362C5.19357 6.93364 5.12002 6.99032 5.06026 7.06011L2.66692 9.38677C2.40778 9.64591 2.20222 9.95356 2.06197 10.2921C1.92172 10.6307 1.84954 10.9936 1.84954 11.3601C1.84954 11.7266 1.92172 12.0895 2.06197 12.4281C2.20222 12.7667 2.40778 13.0743 2.66692 13.3334C2.92606 13.5926 3.23371 13.7981 3.5723 13.9384C3.91088 14.0786 4.27377 14.1508 4.64026 14.1508C5.00674 14.1508 5.36963 14.0786 5.70822 13.9384C6.0468 13.7981 6.35445 13.5926 6.61359 13.3334L8.96692 10.9801C9.03459 10.9177 9.0886 10.8419 9.12554 10.7576C9.16247 10.6732 9.18154 10.5822 9.18154 10.4901C9.18154 10.398 9.16247 10.307 9.12554 10.2226C9.0886 10.1383 9.03459 10.0625 8.96692 10.0001ZM3.45359 4.39344C3.57776 4.5166 3.74536 4.58604 3.92026 4.58677C4.00799 4.58728 4.09497 4.57046 4.17619 4.53729C4.25742 4.50411 4.3313 4.45523 4.39359 4.39344C4.51776 4.26853 4.58745 4.09956 4.58745 3.92344C4.58745 3.74732 4.51776 3.57835 4.39359 3.45344L3.53359 2.59344C3.40605 2.48422 3.242 2.42715 3.07422 2.43363C2.90644 2.44011 2.74728 2.50967 2.62855 2.6284C2.50982 2.74713 2.44026 2.90629 2.43378 3.07407C2.4273 3.24185 2.48437 3.40591 2.59359 3.53344L3.45359 4.39344ZM14.1736 9.28011L13.0003 8.96677C12.9133 8.93672 12.8211 8.92499 12.7294 8.93231C12.6377 8.93964 12.5485 8.96587 12.4674 9.00935C12.3863 9.05283 12.3151 9.11262 12.2583 9.18496C12.2014 9.25729 12.1602 9.34061 12.1371 9.42967C12.114 9.51873 12.1096 9.6116 12.1242 9.70243C12.1388 9.79327 12.172 9.88011 12.2218 9.95749C12.2715 10.0349 12.3368 10.1011 12.4134 10.152C12.49 10.203 12.5763 10.2375 12.6669 10.2534L13.8403 10.5668H14.0136C14.1904 10.5898 14.3691 10.5416 14.5104 10.4328C14.6517 10.324 14.7439 10.1636 14.7669 9.98677C14.7899 9.80996 14.7417 9.63126 14.6329 9.48998C14.5242 9.34871 14.3637 9.25642 14.1869 9.23344L14.1736 9.28011ZM10.2536 12.6668C10.2304 12.5823 10.1909 12.5031 10.1371 12.4339C10.0834 12.3647 10.0165 12.3068 9.94034 12.2634C9.86418 12.2201 9.78022 12.1922 9.69327 12.1813C9.60632 12.1705 9.51807 12.1768 9.43359 12.2001C9.26438 12.2469 9.12047 12.3586 9.03309 12.5109C8.94572 12.6631 8.92194 12.8437 8.96692 13.0134L9.28026 14.1868C9.31932 14.3322 9.40648 14.4601 9.52754 14.5497C9.64859 14.6393 9.79641 14.6853 9.94692 14.6801C10.0045 14.6867 10.0627 14.6867 10.1203 14.6801C10.2054 14.6577 10.2852 14.6186 10.3552 14.5652C10.4251 14.5117 10.4838 14.445 10.5278 14.3687C10.5718 14.2925 10.6003 14.2083 10.6115 14.121C10.6228 14.0337 10.6167 13.945 10.5936 13.8601L10.2536 12.6668ZM12.5469 11.6201C12.4194 11.5109 12.2553 11.4538 12.0876 11.4603C11.9198 11.4668 11.7606 11.5363 11.6419 11.6551C11.5232 11.7738 11.4536 11.933 11.4471 12.1007C11.4406 12.2685 11.4977 12.4326 11.6069 12.5601L12.4669 13.4201C12.5918 13.5443 12.7608 13.614 12.9369 13.614C13.113 13.614 13.282 13.5443 13.4069 13.4201C13.5311 13.2952 13.6008 13.1262 13.6008 12.9501C13.6008 12.774 13.5311 12.605 13.4069 12.4801L12.5469 11.6201ZM14.1336 4.66677C14.1439 4.1124 13.9879 3.56764 13.6856 3.10284C13.3833 2.63803 12.9486 2.27452 12.4376 2.05923C11.9266 1.84393 11.3629 1.78674 10.8191 1.89504C10.2753 2.00333 9.77642 2.27215 9.38692 2.66677L7.03359 5.04011C6.97055 5.10358 6.92064 5.17884 6.88669 5.26161C6.85275 5.34437 6.83543 5.43301 6.83574 5.52246C6.83605 5.61192 6.85398 5.70043 6.8885 5.78296C6.92302 5.86549 6.97345 5.9404 7.03692 6.00344C7.10039 6.06647 7.17566 6.11639 7.25842 6.15034C7.34119 6.18428 7.42983 6.20159 7.51928 6.20129C7.60873 6.20098 7.69725 6.18305 7.77978 6.14853C7.8623 6.11401 7.93722 6.06358 8.00026 6.00011L10.3336 3.62677C10.6079 3.36357 10.9734 3.2166 11.3536 3.2166C11.7338 3.2166 12.0992 3.36357 12.3736 3.62677C12.5086 3.7601 12.6159 3.91892 12.6891 4.09402C12.7622 4.26911 12.7999 4.457 12.7999 4.64677C12.7999 4.83655 12.7622 5.02443 12.6891 5.19953C12.6159 5.37463 12.5086 5.53344 12.3736 5.66677L10.0003 8.00011C9.87609 8.12501 9.80639 8.29398 9.80639 8.47011C9.80639 8.64623 9.87609 8.8152 10.0003 8.94011C10.1252 9.06427 10.2941 9.13397 10.4703 9.13397C10.6464 9.13397 10.8153 9.06427 10.9403 8.94011L13.3336 6.61344C13.8439 6.09367 14.1309 5.39515 14.1336 4.66677Z" fill="white"/>
</svg>
