<svg width="16" height="16" viewBox="0 0 16 16" fill="none" xmlns="http://www.w3.org/2000/svg">
<path d="M10.7934 1.33337H5.20671C2.78004 1.33337 1.33337 2.78004 1.33337 5.20671V10.7867C1.33337 13.22 2.78004 14.6667 5.20671 14.6667H10.7867C13.2134 14.6667 14.66 13.22 14.66 10.7934V5.20671C14.6667 2.78004 13.22 1.33337 10.7934 1.33337ZM11.7934 9.36671C11.7667 9.42671 11.7334 9.48004 11.6867 9.52671L9.72004 11.4934C9.62004 11.5934 9.49337 11.64 9.36671 11.64C9.24004 11.64 9.11337 11.5934 9.01337 11.4934C8.82004 11.3 8.82004 10.98 9.01337 10.7867L10.1267 9.67337H4.66671C4.39337 9.67337 4.16671 9.44671 4.16671 9.17337C4.16671 8.90004 4.39337 8.67337 4.66671 8.67337H11.3334C11.4 8.67337 11.46 8.68671 11.5267 8.71337C11.6467 8.76671 11.7467 8.86004 11.8 8.98671C11.8467 9.10671 11.8467 9.24004 11.7934 9.36671ZM11.3334 7.32671H4.66671C4.60004 7.32671 4.54004 7.31337 4.47337 7.28671C4.35337 7.23337 4.25337 7.14004 4.20004 7.01337C4.14671 6.89337 4.14671 6.75337 4.20004 6.63337C4.23337 6.57337 4.26671 6.52004 4.31337 6.47337L6.28004 4.50671C6.47337 4.31337 6.79337 4.31337 6.98671 4.50671C7.18004 4.70004 7.18004 5.02004 6.98671 5.21337L5.87337 6.32671H11.3334C11.6067 6.32671 11.8334 6.55337 11.8334 6.82671C11.8334 7.10004 11.6067 7.32671 11.3334 7.32671Z" fill="white"/>
</svg>
