<svg width="24" height="24" viewBox="0 0 24 24" fill="none" xmlns="http://www.w3.org/2000/svg">
<circle cx="12" cy="12" r="12" fill="#6557FF"/>
<path d="M17.0068 7.90016L13.0468 5.6135C12.4001 5.24016 11.6001 5.24016 10.9468 5.6135L6.99344 7.90016C6.34678 8.2735 5.94678 8.96683 5.94678 9.72016V14.2802C5.94678 15.0268 6.34678 15.7202 6.99344 16.1002L10.9534 18.3868C11.6001 18.7602 12.4001 18.7602 13.0534 18.3868L17.0134 16.1002C17.6601 15.7268 18.0601 15.0335 18.0601 14.2802V9.72016C18.0534 8.96683 17.6534 8.28016 17.0068 7.90016ZM12.0001 8.8935C12.8601 8.8935 13.5534 9.58683 13.5534 10.4468C13.5534 11.3068 12.8601 12.0002 12.0001 12.0002C11.1401 12.0002 10.4468 11.3068 10.4468 10.4468C10.4468 9.5935 11.1401 8.8935 12.0001 8.8935ZM13.7868 15.1068H10.2134C9.67344 15.1068 9.36011 14.5068 9.66011 14.0602C10.1134 13.3868 10.9934 12.9335 12.0001 12.9335C13.0068 12.9335 13.8868 13.3868 14.3401 14.0602C14.6401 14.5002 14.3201 15.1068 13.7868 15.1068Z" fill="white"/>
</svg>
