<svg width="65" height="50" viewBox="0 0 65 50" fill="none" xmlns="http://www.w3.org/2000/svg">
<path fill-rule="evenodd" clip-rule="evenodd" d="M32.4129 44.2449C32.2666 44.8303 31.9727 45.3346 31.5417 45.82C31.0728 46.3402 30.4181 46.7858 29.7179 47.1359C28.1242 47.9328 26.2755 48.1728 24.452 47.9375L24.44 47.936L24.428 47.9347C22.7753 47.7638 21.1852 47.082 19.9389 45.955L5.18949 31.3334L5.18808 31.332C4.76976 30.9135 4.48491 30.5656 4.30092 30.1516C4.09862 29.6964 4.00093 29.2555 4 28.7583L4.1283 20.6755L4.1262 20.6398C4.07916 19.8401 4.3507 19.0672 5.02233 18.3439L5.02741 18.3385L5.0324 18.3329C5.49938 17.814 6.15111 17.3694 6.84864 17.0196C8.41928 16.2797 10.3379 16.0259 12.1598 16.2536C13.9916 16.4826 15.6259 17.1845 16.683 18.2416L16.6852 18.2438L31.4728 32.8394L31.4915 32.856C31.9232 33.2397 32.2282 33.7328 32.442 34.3209C32.5884 34.7235 32.6764 35.0781 32.7031 35.4258L32.5122 43.6353V43.6464C32.5122 43.7783 32.4735 44.0028 32.4129 44.2449Z" fill="#FFC633"/>
<path d="M37.3452 29.976C37.3722 29.948 37.3988 29.9195 37.4253 29.891C37.9414 29.3376 38.3087 28.6624 38.4929 27.9284C38.5625 27.6523 38.6011 27.3692 38.608 27.0845L38.7618 18.8173C38.7558 19.096 38.6619 18.5968 38.5958 18.8677C38.655 18.5946 38.7567 19.1123 38.7615 18.8353C38.7696 18.3613 38.6984 17.8868 38.5487 17.4329C38.3115 16.7134 37.8861 16.0706 37.3167 15.571C34.8107 13.0842 29.8882 12.4577 26.3593 14.1646C25.5612 14.5397 24.8428 15.065 24.2433 15.7116C23.3828 16.6525 22.973 17.7581 23.0533 18.8661L22.9695 22.8756L32.3497 32.1339C32.4043 32.1824 32.4571 32.232 32.5082 32.2828C33.4856 32.1387 34.4358 31.8616 35.3029 31.4445C36.0672 31.0828 36.7595 30.5849 37.3452 29.976Z" fill="#61DFC6"/>
<path d="M62.0055 20.148C62.1189 20.4605 62.1963 20.743 62.238 21.0114C62.2506 21.0928 62.2599 21.1731 62.266 21.2528L62.0755 29.4624V29.4735C62.0755 29.6054 62.0369 29.8298 61.9765 30.072C61.8305 30.6574 61.5372 31.1617 61.1073 31.6471C60.6393 32.1673 59.9861 32.6129 59.2876 32.963C57.6974 33.7599 55.8528 33.9999 54.0334 33.7646L54.0215 33.7631L54.0094 33.7618C52.3605 33.5909 50.774 32.9091 49.5304 31.7821L39.7055 21.9382L39.7541 19.0389C39.7644 18.4568 39.6286 17.5869 39.4452 17.0293C39.3034 16.5984 39.1067 16.1899 38.8613 15.8133C38.6099 15.4275 38.3074 15.0751 37.9606 14.7667C36.8238 13.6451 35.2626 13.0599 33.6267 12.6578L33.7553 6.50259L33.7532 6.46685C33.7063 5.66717 33.9772 4.89432 34.6474 4.17102L34.6524 4.16555L34.6574 4.16001C35.1233 3.64114 35.7736 3.19651 36.4696 2.84667C38.0367 2.10682 39.951 1.85298 41.7688 2.08071C43.5965 2.30968 45.2271 3.01158 46.2819 4.06873L46.2841 4.07094L61.0385 18.6665L61.0571 18.6831C61.4879 19.0668 61.7922 19.5599 62.0055 20.148Z" fill="#6557FF"/>
</svg>
