<svg width="22" height="22" viewBox="0 0 22 22" fill="none" xmlns="http://www.w3.org/2000/svg">
<g clip-path="url(#clip0_2949_17700)">
<path fill-rule="evenodd" clip-rule="evenodd" d="M13.0833 0.916667C13.0833 0.410406 12.6729 0 12.1667 0H5.75C4.23122 0 3 1.23122 3 2.75V17.4167C3 18.9355 4.23122 20.1667 5.75 20.1667H16.75C18.2688 20.1667 19.5 18.9355 19.5 17.4167V7.33333C19.5 6.82707 19.0896 6.41667 18.5833 6.41667H15.8333C14.3146 6.41667 13.0833 5.18545 13.0833 3.66667V0.916667ZM7.58333 11C7.58333 10.4937 7.99374 10.0833 8.5 10.0833H14C14.5063 10.0833 14.9167 10.4937 14.9167 11C14.9167 11.5063 14.5063 11.9167 14 11.9167H8.5C7.99374 11.9167 7.58333 11.5063 7.58333 11ZM7.58333 14.6667C7.58333 14.1604 7.99374 13.75 8.5 13.75H11.25C11.7563 13.75 12.1667 14.1604 12.1667 14.6667C12.1667 15.1729 11.7563 15.5833 11.25 15.5833H8.5C7.99374 15.5833 7.58333 15.1729 7.58333 14.6667Z" fill="#6557FF"/>
<path d="M15.8125 0.162524C15.3456 -0.0332539 14.9165 0.410209 14.9165 0.91647V3.66647C14.9165 4.17273 15.3269 4.58314 15.8332 4.58314H18.5832C19.0894 4.58314 19.5329 4.15404 19.3371 3.68716C19.2524 3.48503 19.1306 3.2972 18.9629 3.1295L16.3701 0.536774C16.2024 0.369073 16.0146 0.247285 15.8125 0.162524Z" fill="#FFC633"/>
</g>
<defs>
<clipPath id="clip0_2949_17700">
<rect width="22" height="22" fill="white"/>
</clipPath>
</defs>
</svg>
