<svg width="50" height="50" viewBox="0 0 50 50" fill="none" xmlns="http://www.w3.org/2000/svg">
<circle cx="25" cy="25" r="25" fill="#6557FF" fill-opacity="0.1"/>
<rect x="17.6777" y="24.0479" width="13.7109" height="10.2832" fill="white"/>
<path fill-rule="evenodd" clip-rule="evenodd" d="M26.092 13.241C26.092 12.5836 25.5592 12.0508 24.9019 12.0508H16.5706C14.5986 12.0508 13 13.6494 13 15.6213V34.6643C13 36.6363 14.5986 38.2349 16.5706 38.2349H30.8528C32.8247 38.2349 34.4233 36.6363 34.4233 34.6643V21.5723C34.4233 20.9149 33.8905 20.3821 33.2332 20.3821H29.6626C27.6906 20.3821 26.092 18.7835 26.092 16.8115V13.241ZM18.9509 26.333C18.9509 25.6757 19.4838 25.1428 20.1411 25.1428H27.2822C27.9395 25.1428 28.4724 25.6757 28.4724 26.333C28.4724 26.9903 27.9395 27.5232 27.2822 27.5232H20.1411C19.4838 27.5232 18.9509 26.9903 18.9509 26.333ZM18.9509 31.0938C18.9509 30.4364 19.4838 29.9036 20.1411 29.9036H23.7117C24.369 29.9036 24.9019 30.4364 24.9019 31.0938C24.9019 31.7511 24.369 32.2839 23.7117 32.2839H20.1411C19.4838 32.2839 18.9509 31.7511 18.9509 31.0938Z" fill="#6557FF"/>
<path d="M29.634 12.2616C29.0278 12.0074 28.4707 12.5832 28.4707 13.2405V16.8111C28.4707 17.4684 29.0036 18.0012 29.6609 18.0012H33.2314C33.8888 18.0012 34.4646 17.4441 34.2104 16.8379C34.1003 16.5755 33.9422 16.3316 33.7244 16.1139L30.3581 12.7475C30.1403 12.5298 29.8965 12.3716 29.634 12.2616Z" fill="#FFC633"/>
<circle cx="33.8105" cy="34.3311" r="4.90404" fill="#F0EFFF" stroke="#F0EFFF" stroke-width="1.19191"/>
<path d="M33.806 29.8311C31.322 29.8311 29.3105 31.8471 29.3105 34.3311C29.3105 36.8151 31.322 38.8311 33.806 38.8311C36.2945 38.8311 38.3105 36.8151 38.3105 34.3311C38.3105 31.8471 36.2945 29.8311 33.806 29.8311ZM35.291 36.4506L33.3605 34.5156V32.0811H34.2605V34.1466L35.93 35.8161L35.291 36.4506Z" fill="#6557FF"/>
</svg>
