<svg width="15" height="13" viewBox="0 0 15 13" fill="none" xmlns="http://www.w3.org/2000/svg">
<path fill-rule="evenodd" clip-rule="evenodd" d="M14.1381 10.1951C14.3984 10.4554 14.3984 10.8776 14.1381 11.1379L12.8047 12.4712C12.5444 12.7316 12.1223 12.7316 11.8619 12.4712C11.6016 12.2109 11.6016 11.7888 11.8619 11.5284L12.0572 11.3332L9.66667 11.3332C9.29848 11.3332 9 11.0347 9 10.6665C9 10.2983 9.29848 9.99984 9.66667 9.99984L12.0572 9.99984L11.8619 9.80458C11.6016 9.54423 11.6016 9.12212 11.8619 8.86177C12.1223 8.60142 12.5444 8.60142 12.8047 8.86177L14.1381 10.1951Z" fill="#4A495C" fill-opacity="0.8"/>
<path fill-rule="evenodd" clip-rule="evenodd" d="M0.333374 3.8665C0.333374 2.7464 0.333374 2.18635 0.551361 1.75852C0.743108 1.3822 1.04907 1.07624 1.42539 0.884491C1.85322 0.666504 2.41327 0.666504 3.53337 0.666504H10.4667C11.5868 0.666504 12.1469 0.666504 12.5747 0.884491C12.951 1.07624 13.257 1.3822 13.4487 1.75852C13.6667 2.18635 13.6667 2.7464 13.6667 3.8665V6.13317C13.6667 6.31985 13.6667 6.4132 13.6304 6.4845C13.5984 6.54722 13.5474 6.59821 13.4847 6.63017C13.4134 6.6665 13.3201 6.6665 13.1334 6.6665H11.6667C9.45757 6.6665 7.66671 8.45736 7.66671 10.6665V10.7998C7.66671 10.9865 7.66671 11.0799 7.63038 11.1512C7.59842 11.2139 7.54743 11.2649 7.4847 11.2968C7.4134 11.3332 7.32006 11.3332 7.13337 11.3332H3.53337C2.41327 11.3332 1.85322 11.3332 1.42539 11.1152C1.04907 10.9234 0.743108 10.6175 0.551361 10.2412C0.333374 9.81333 0.333374 9.25327 0.333374 8.13317V3.8665ZM3.11696 3.62271C3.32524 3.3191 3.74022 3.24181 4.04383 3.45009L6.62291 5.21934C6.85017 5.37524 7.14992 5.37524 7.37717 5.21934L9.95625 3.45009C10.2599 3.24181 10.6748 3.3191 10.8831 3.62271C11.0914 3.92633 11.0141 4.3413 10.7105 4.54958L8.13142 6.31883C7.44966 6.78652 6.55042 6.78652 5.86866 6.31883L3.28958 4.54958C2.98597 4.3413 2.90868 3.92633 3.11696 3.62271Z" fill="#4A495C" fill-opacity="0.8"/>
</svg>
