<svg width="11" height="11" viewBox="0 0 11 11" fill="none" xmlns="http://www.w3.org/2000/svg">
<path d="M0.916672 3.2085L4.65893 5.82807C4.96196 6.0402 5.11348 6.14626 5.27829 6.18735C5.42387 6.22363 5.57614 6.22363 5.72172 6.18735C5.88653 6.14626 6.03805 6.0402 6.34108 5.82807L10.0833 3.2085M3.11667 9.16683H7.88334C8.65341 9.16683 9.03845 9.16683 9.33257 9.01696C9.5913 8.88514 9.80165 8.67479 9.93347 8.41607C10.0833 8.12194 10.0833 7.7369 10.0833 6.96683V4.0335C10.0833 3.26342 10.0833 2.87839 9.93347 2.58426C9.80165 2.32554 9.5913 2.11519 9.33257 1.98336C9.03845 1.8335 8.65341 1.8335 7.88334 1.8335H3.11667C2.3466 1.8335 1.96156 1.8335 1.66743 1.98336C1.40871 2.11519 1.19836 2.32554 1.06654 2.58426C0.916672 2.87839 0.916672 3.26342 0.916672 4.0335V6.96683C0.916672 7.7369 0.916672 8.12194 1.06654 8.41607C1.19836 8.67479 1.40871 8.88514 1.66743 9.01696C1.96156 9.16683 2.3466 9.16683 3.11667 9.16683Z" stroke="black" stroke-linecap="round" stroke-linejoin="round"/>
</svg>
