<svg width="20" height="20" viewBox="0 0 20 20" fill="none" xmlns="http://www.w3.org/2000/svg">
<g clip-path="url(#clip0_8579_9318)">
<path d="M15.8333 2.50016H12.35C12 1.5335 11.0833 0.833496 10 0.833496C8.91667 0.833496 8 1.5335 7.65 2.50016H4.16667C4.05 2.50016 3.94167 2.5085 3.83333 2.5335C3.50833 2.60016 3.21667 2.76683 2.99167 2.99183C2.84167 3.14183 2.71667 3.32516 2.63333 3.52516C2.55 3.71683 2.5 3.9335 2.5 4.16683V15.8335C2.5 16.0585 2.55 16.2835 2.63333 16.4835C2.71667 16.6835 2.84167 16.8585 2.99167 17.0168C3.21667 17.2418 3.50833 17.4085 3.83333 17.4752C3.94167 17.4918 4.05 17.5002 4.16667 17.5002H15.8333C16.75 17.5002 17.5 16.7502 17.5 15.8335V4.16683C17.5 3.25016 16.75 2.50016 15.8333 2.50016ZM9.16667 11.8085L7.99167 12.9918L5 10.0002L7.99167 7.0085L9.16667 8.19183L7.35833 10.0002L9.16667 11.8085ZM10 3.54183C9.65833 3.54183 9.375 3.2585 9.375 2.91683C9.375 2.57516 9.65833 2.29183 10 2.29183C10.3417 2.29183 10.625 2.57516 10.625 2.91683C10.625 3.2585 10.3417 3.54183 10 3.54183ZM12.0083 12.9918L10.8333 11.8085L12.6417 10.0002L10.8333 8.19183L12.0083 7.0085L15 10.0002L12.0083 12.9918Z" fill="#FFC633"/>
<path fill-rule="evenodd" clip-rule="evenodd" d="M15.1234 19.2917C15.1234 19.8667 15.589 20.3333 16.165 20.3333C16.7411 20.3333 17.2067 19.8667 17.2067 19.2917V17.2089H19.2917C19.8677 17.2089 20.3333 16.7423 20.3333 16.1673C20.3333 15.5923 19.8677 15.1256 19.2917 15.1256H17.2067V13.0417C17.2067 12.4667 16.7411 12 16.165 12C15.589 12 15.1234 12.4667 15.1234 13.0417V15.1256H13.0417C12.4656 15.1256 12 15.5923 12 16.1673C12 16.7423 12.4656 17.2089 13.0417 17.2089H15.1234V19.2917Z" fill="#6557FF"/>
<path d="M17.2067 17.2089V16.7089H16.7067V17.2089H17.2067ZM17.2067 15.1256H16.7067V15.6256H17.2067V15.1256ZM15.1234 15.1256V15.6256H15.6234V15.1256H15.1234ZM15.1234 17.2089H15.6234V16.7089H15.1234V17.2089ZM16.165 19.8333C15.8655 19.8333 15.6234 19.5908 15.6234 19.2917H14.6234C14.6234 20.1425 15.3125 20.8333 16.165 20.8333V19.8333ZM16.7067 19.2917C16.7067 19.5908 16.4646 19.8333 16.165 19.8333V20.8333C17.0175 20.8333 17.7067 20.1425 17.7067 19.2917H16.7067ZM16.7067 17.2089V19.2917H17.7067V17.2089H16.7067ZM19.2917 16.7089H17.2067V17.7089H19.2917V16.7089ZM19.8333 16.1673C19.8333 16.4665 19.5912 16.7089 19.2917 16.7089V17.7089C20.1442 17.7089 20.8333 17.0181 20.8333 16.1673H19.8333ZM19.2917 15.6256C19.5912 15.6256 19.8333 15.8681 19.8333 16.1673H20.8333C20.8333 15.3165 20.1442 14.6256 19.2917 14.6256V15.6256ZM17.2067 15.6256H19.2917V14.6256H17.2067V15.6256ZM16.7067 13.0417V15.1256H17.7067V13.0417H16.7067ZM16.165 12.5C16.4646 12.5 16.7067 12.7425 16.7067 13.0417H17.7067C17.7067 12.1909 17.0175 11.5 16.165 11.5V12.5ZM15.6234 13.0417C15.6234 12.7425 15.8655 12.5 16.165 12.5V11.5C15.3125 11.5 14.6234 12.1908 14.6234 13.0417H15.6234ZM15.6234 15.1256V13.0417H14.6234V15.1256H15.6234ZM13.0417 15.6256H15.1234V14.6256H13.0417V15.6256ZM12.5 16.1673C12.5 15.8681 12.7421 15.6256 13.0417 15.6256V14.6256C12.1892 14.6256 11.5 15.3165 11.5 16.1673H12.5ZM13.0417 16.7089C12.7421 16.7089 12.5 16.4665 12.5 16.1673H11.5C11.5 17.0181 12.1892 17.7089 13.0417 17.7089V16.7089ZM15.1234 16.7089H13.0417V17.7089H15.1234V16.7089ZM15.6234 19.2917V17.2089H14.6234V19.2917H15.6234Z" fill="white"/>
</g>
<defs>
<clipPath id="clip0_8579_9318">
<rect width="20" height="20" fill="white"/>
</clipPath>
</defs>
</svg>
