<svg width="290" height="143" viewBox="0 0 290 143" fill="none" xmlns="http://www.w3.org/2000/svg">
<g clip-path="url(#clip0_4673_12832)">
<path d="M0 8C0 3.58173 3.58172 0 8 0H282C286.418 0 290 3.58172 290 8V143H0V8Z" fill="#EFEEFD"/>
<path d="M-2 1C-2 -3.41828 1.58172 -7 6 -7H286C290.418 -7 294 -3.41828 294 1V143H-2V1Z" fill="#EFEEFD"/>
<path d="M-4 134.845C-3.30151 124.518 8.23473 105.611 33.5 110.999C58.7653 116.387 45.6924 89.4935 66.3476 93.9838" stroke="black" stroke-width="0.3" stroke-linecap="round"/>
<path d="M151 44.5C164.92 39.7104 189.651 25.1326 181.748 -6" stroke="black" stroke-width="0.3" stroke-linecap="round"/>
<path d="M252.86 26.9868C248.449 32.4474 240.446 33.2983 234.986 28.8873C240.446 33.2983 241.297 41.3008 236.886 46.7614C241.297 41.3008 249.3 40.4499 254.76 44.861C249.3 40.4499 248.449 32.4474 252.86 26.9868Z" fill="#FDB927"/>
<path d="M252.86 26.9868C248.449 32.4474 240.446 33.2983 234.986 28.8873C240.446 33.2983 241.297 41.3008 236.886 46.7614C241.297 41.3008 249.3 40.4499 254.76 44.861C249.3 40.4499 248.449 32.4474 252.86 26.9868Z" fill="url(#paint0_linear_4673_12832)" fill-opacity="0.39"/>
<path d="M47 46H243V143H47V46Z" fill="#1D252C"/>
<g clip-path="url(#clip1_4673_12832)">
<path d="M98.2906 90.5573V98.1635L91.7046 101.967V106.721L102.41 100.541V88.1794L98.2906 90.5573Z" fill="#00AC69"/>
<path d="M91.7056 86.7556L98.2917 90.558L102.411 88.1801L91.7056 82L81 88.1801L85.118 90.558L91.7056 86.7556Z" fill="#1CE783"/>
<path d="M87.5876 96.739V104.345L91.7056 106.721V94.3611L81 88.1794V92.9351L87.5876 96.739Z" fill="white"/>
<path d="M117.107 88.1636C114.802 88.1636 113.711 89.6192 113.711 89.6192H113.589L113.348 88.4062H110.557V100.779H113.589V93.6252C113.589 92.0483 114.678 90.9566 116.258 90.9566C117.838 90.9566 118.927 92.0452 118.927 93.6252V100.779H121.959V93.3795C121.959 90.2257 119.897 88.1636 117.107 88.1636Z" fill="white"/>
<path d="M149.811 96.5332H149.636L147.574 88.406H144.489L142.427 96.5332H142.254L140.19 88.406H137.037L140.19 100.779H143.884L145.944 92.7729H146.119L148.181 100.779H151.873L155.027 88.406H151.873L149.811 96.5332Z" fill="white"/>
<path d="M164.314 89.4978H164.193L163.95 88.4091H161.403V100.78H164.435V93.6267C164.435 92.0497 165.163 91.3219 166.74 91.3219H168.295V88.4076H166.491C166.069 88.4085 165.652 88.5074 165.274 88.6966C164.896 88.8858 164.568 89.16 164.314 89.4978V89.4978Z" fill="white"/>
<path d="M175.004 88.1636C171.366 88.1636 168.698 90.8322 168.698 94.5925C168.698 98.3529 171.215 101.022 175.004 101.022C178.072 101.022 179.919 99.216 180.689 97.8879L177.906 96.8957C177.63 97.3996 176.52 98.3684 175.004 98.3684C173.235 98.3684 171.973 97.2612 171.73 95.5692H180.947C181.033 95.1706 181.073 94.7637 181.069 94.3562C181.069 90.8322 178.4 88.1636 175.004 88.1636ZM171.73 93.5008C172.094 91.9239 173.186 90.7109 175.004 90.7109C176.703 90.7109 177.794 91.9239 178.036 93.5008H171.73Z" fill="white"/>
<path d="M130.206 88.1636C126.567 88.1636 123.898 90.8322 123.898 94.5925C123.898 98.3529 126.411 101.022 130.206 101.022C133.274 101.022 135.12 99.216 135.89 97.8879L133.106 96.8957C132.831 97.3996 131.722 98.3684 130.206 98.3684C128.437 98.3684 127.173 97.2612 126.93 95.5692H136.149C136.235 95.1706 136.275 94.7637 136.271 94.3562C136.271 90.8322 133.602 88.1636 130.206 88.1636ZM126.93 93.5008C127.294 91.9239 128.386 90.7109 130.206 90.7109C131.904 90.7109 132.996 91.9239 133.238 93.5008H126.93Z" fill="white"/>
<path d="M191.669 83.5211H188.637V86.5537H191.669V83.5211Z" fill="white"/>
<path d="M200.04 98.2316C198.221 98.2316 196.765 96.776 196.765 94.5925C196.765 92.4091 198.221 90.9535 200.04 90.9535C201.86 90.9535 202.587 92.1665 202.83 92.8943L205.576 91.9177C204.911 90.1899 203.278 88.1636 200.04 88.1636C196.401 88.1636 193.732 90.8322 193.732 94.5925C193.732 98.3529 196.401 101.022 200.04 101.022C203.306 101.022 204.939 98.9625 205.592 97.1523L202.83 96.1695C202.587 97.0186 201.86 98.2316 200.04 98.2316Z" fill="white"/>
<path d="M181.405 86.2162H183.126V100.779H186.159V83.5211H181.405V86.2162Z" fill="white"/>
<path d="M191.669 88.406H188.637V100.779H191.669V88.406Z" fill="white"/>
<path d="M207.214 98.4058C206.982 98.4024 206.755 98.4681 206.56 98.5946C206.366 98.721 206.213 98.9024 206.122 99.1158C206.031 99.3292 206.005 99.5648 206.048 99.7928C206.091 100.021 206.201 100.231 206.364 100.396C206.527 100.561 206.735 100.674 206.963 100.721C207.19 100.767 207.426 100.745 207.641 100.657C207.855 100.569 208.039 100.419 208.168 100.227C208.298 100.034 208.367 99.8073 208.367 99.5753C208.372 99.4218 208.346 99.2689 208.29 99.1258C208.234 98.9827 208.149 98.8526 208.042 98.7432C207.934 98.6338 207.805 98.5474 207.663 98.4894C207.521 98.4315 207.368 98.403 207.214 98.4058ZM207.214 100.566C207.018 100.569 206.825 100.514 206.659 100.407C206.494 100.301 206.365 100.147 206.287 99.9664C206.209 99.7857 206.187 99.586 206.224 99.3927C206.26 99.1995 206.353 99.0214 206.491 98.8811C206.629 98.7408 206.805 98.6448 206.998 98.6051C207.19 98.5655 207.39 98.5841 207.572 98.6586C207.754 98.733 207.91 98.8599 208.02 99.0232C208.129 99.1865 208.188 99.3787 208.188 99.5753C208.192 99.7049 208.17 99.834 208.123 99.9547C208.076 100.075 208.005 100.185 207.913 100.277C207.822 100.37 207.713 100.442 207.593 100.491C207.473 100.539 207.344 100.563 207.214 100.56V100.566Z" fill="white"/>
<path d="M207.718 99.3591C207.717 99.303 207.706 99.2476 207.683 99.1962C207.661 99.1448 207.628 99.0986 207.587 99.0605C207.546 99.0223 207.497 98.9929 207.444 98.9742C207.391 98.9555 207.335 98.9478 207.279 98.9516H206.76V100.171H206.939V99.7479H207.102L207.523 100.171H207.746L207.324 99.7479C207.428 99.7479 207.527 99.7071 207.601 99.6343C207.675 99.5615 207.717 99.4626 207.718 99.3591V99.3591ZM206.94 99.569V99.1305H207.279C207.312 99.1265 207.345 99.1295 207.376 99.1392C207.407 99.1488 207.436 99.1649 207.461 99.1865C207.485 99.2081 207.505 99.2346 207.519 99.2643C207.533 99.2941 207.54 99.3263 207.54 99.3591C207.54 99.4882 207.458 99.569 207.279 99.569H206.94Z" fill="white"/>
</g>
<path d="M47 42C47 39.2386 49.2386 37 52 37H238C240.761 37 243 39.2386 243 42V46H47V42Z" fill="#131116"/>
<circle cx="56.3152" cy="41.3152" r="1.31515" fill="#FF4D4E"/>
<circle cx="60.3798" cy="41.3152" r="1.31515" fill="#FFB32C"/>
<circle cx="64.685" cy="41.3152" r="1.31515" fill="#00C439"/>
<g filter="url(#filter0_d_4673_12832)">
<path d="M24.0599 116.688C24.026 116.773 24.0674 116.869 24.1524 116.903L27.4612 118.224C27.5462 118.258 27.6425 118.217 27.6764 118.132L31.6344 108.222C31.6683 108.137 31.6269 108.041 31.5419 108.007L28.2332 106.685C28.1482 106.651 28.0518 106.693 28.0179 106.778L24.0599 116.688Z" fill="#6557FF"/>
<path d="M21.8547 111.71C21.8208 111.794 21.8623 111.891 21.9473 111.925L28.4878 114.537C28.5728 114.571 28.6692 114.53 28.7031 114.445L31.2497 108.068C31.2836 107.984 31.2422 107.887 31.1572 107.853L24.6166 105.241C24.5316 105.207 24.4352 105.248 24.4014 105.333L21.8547 111.71Z" fill="#6557FF"/>
<path d="M19.8653 107.085C19.8314 107.17 19.8729 107.266 19.9579 107.3L30.1919 111.387C30.2769 111.421 30.3733 111.38 30.4071 111.295L31.6344 108.222C31.6683 108.137 31.6269 108.041 31.5419 108.007L21.3079 103.92C21.2229 103.886 21.1265 103.927 21.0926 104.012L19.8653 107.085Z" fill="#6557FF"/>
</g>
<g filter="url(#filter1_d_4673_12832)">
<g filter="url(#filter2_d_4673_12832)">
<path d="M179.706 24.0166C179.715 24.0972 179.788 24.1554 179.869 24.1465L183.013 23.7999C183.094 23.791 183.152 23.7184 183.143 23.6378L182.105 14.22C182.096 14.1393 182.024 14.0812 181.943 14.0901L178.799 14.4366C178.718 14.4455 178.66 14.5181 178.669 14.5988L179.706 24.0166Z" fill="#6557FF"/>
<path d="M175.899 21.0371C175.908 21.1177 175.981 21.1759 176.062 21.167L182.277 20.4819C182.358 20.473 182.416 20.4004 182.408 20.3198L181.74 14.2603C181.731 14.1796 181.658 14.1215 181.577 14.1304L175.362 14.8154C175.281 14.8243 175.223 14.8969 175.232 14.9776L175.899 21.0371Z" fill="#6557FF"/>
<path d="M172.409 18.2444C172.418 18.325 172.491 18.3832 172.571 18.3743L182.297 17.3024C182.378 17.2935 182.436 17.2209 182.427 17.1402L182.105 14.22C182.096 14.1393 182.024 14.0812 181.943 14.0901L172.217 15.162C172.137 15.1709 172.078 15.2435 172.087 15.3241L172.409 18.2444Z" fill="#6557FF"/>
</g>
</g>
<path d="M245.601 120L260.101 116.235L264 102.235L253.399 92L238.899 95.765L235 109.765L245.601 120Z" fill="url(#paint1_linear_4673_12832)"/>
<path d="M246.6 133L236 122.035V121.919L239.882 107.015H239.994L254.4 103L265 113.965V114.081L261.118 128.985H261.006L246.6 133ZM236.373 121.919L246.674 132.575L260.782 128.676L264.552 114.081L254.251 103.425L240.143 107.324L236.373 121.919V121.919Z" fill="#FFC633"/>
</g>
<defs>
<filter id="filter0_d_4673_12832" x="19.8535" y="103.908" width="12.7927" height="16.3285" filterUnits="userSpaceOnUse" color-interpolation-filters="sRGB">
<feFlood flood-opacity="0" result="BackgroundImageFix"/>
<feColorMatrix in="SourceAlpha" type="matrix" values="0 0 0 0 0 0 0 0 0 0 0 0 0 0 0 0 0 0 127 0" result="hardAlpha"/>
<feOffset dx="1" dy="2"/>
<feComposite in2="hardAlpha" operator="out"/>
<feColorMatrix type="matrix" values="0 0 0 0 0.992157 0 0 0 0 0.72549 0 0 0 0 0.152941 0 0 0 1 0"/>
<feBlend mode="normal" in2="BackgroundImageFix" result="effect1_dropShadow_4673_12832"/>
<feBlend mode="normal" in="SourceGraphic" in2="effect1_dropShadow_4673_12832" result="shape"/>
</filter>
<filter id="filter1_d_4673_12832" x="172" y="14.0004" width="12.231" height="12.9612" filterUnits="userSpaceOnUse" color-interpolation-filters="sRGB">
<feFlood flood-opacity="0" result="BackgroundImageFix"/>
<feColorMatrix in="SourceAlpha" type="matrix" values="0 0 0 0 0 0 0 0 0 0 0 0 0 0 0 0 0 0 127 0" result="hardAlpha"/>
<feOffset dx="1" dy="2"/>
<feComposite in2="hardAlpha" operator="out"/>
<feColorMatrix type="matrix" values="0 0 0 0 0.992157 0 0 0 0 0.72549 0 0 0 0 0.152941 0 0 0 1 0"/>
<feBlend mode="normal" in2="BackgroundImageFix" result="effect1_dropShadow_4673_12832"/>
<feBlend mode="normal" in="SourceGraphic" in2="effect1_dropShadow_4673_12832" result="shape"/>
</filter>
<filter id="filter2_d_4673_12832" x="172.086" y="14.0892" width="11.0576" height="11.4368" filterUnits="userSpaceOnUse" color-interpolation-filters="sRGB">
<feFlood flood-opacity="0" result="BackgroundImageFix"/>
<feColorMatrix in="SourceAlpha" type="matrix" values="0 0 0 0 0 0 0 0 0 0 0 0 0 0 0 0 0 0 127 0" result="hardAlpha"/>
<feOffset dy="1.37871"/>
<feComposite in2="hardAlpha" operator="out"/>
<feColorMatrix type="matrix" values="0 0 0 0 0.396078 0 0 0 0 0.341176 0 0 0 0 1 0 0 0 1 0"/>
<feBlend mode="normal" in2="BackgroundImageFix" result="effect1_dropShadow_4673_12832"/>
<feBlend mode="normal" in="SourceGraphic" in2="effect1_dropShadow_4673_12832" result="shape"/>
</filter>
<linearGradient id="paint0_linear_4673_12832" x1="244.924" y1="29.3485" x2="243.669" y2="38.313" gradientUnits="userSpaceOnUse">
<stop stop-color="white"/>
<stop offset="1" stop-color="white" stop-opacity="0"/>
</linearGradient>
<linearGradient id="paint1_linear_4673_12832" x1="242.955" y1="120" x2="241.829" y2="64.2987" gradientUnits="userSpaceOnUse">
<stop stop-color="#61DFC6"/>
<stop offset="1" stop-color="#61DFC6" stop-opacity="0"/>
</linearGradient>
<clipPath id="clip0_4673_12832">
<rect width="290" height="143" fill="white"/>
</clipPath>
<clipPath id="clip1_4673_12832">
<rect width="127.366" height="24.7221" fill="white" transform="translate(81 82)"/>
</clipPath>
</defs>
</svg>
