<svg width="21" height="21" viewBox="0 0 21 21" fill="none" xmlns="http://www.w3.org/2000/svg">
<path fill-rule="evenodd" clip-rule="evenodd" d="M9.99935 1.0415C5.0518 1.0415 1.04102 5.05229 1.04102 9.99984C1.04102 14.9474 5.0518 18.9582 9.99935 18.9582C14.9469 18.9582 18.9577 14.9474 18.9577 9.99984C18.9577 5.05229 14.9469 1.0415 9.99935 1.0415ZM12.3901 9.11234C12.0913 8.85478 12.0579 8.40376 12.3154 8.10495C12.573 7.80614 13.024 7.77269 13.3228 8.03025L14.1989 8.78538L14.2254 8.80818C14.3861 8.94662 14.5569 9.09371 14.6818 9.23479C14.823 9.39429 14.9993 9.64744 14.9993 9.99986C14.9993 10.3523 14.823 10.6054 14.6818 10.7649C14.5569 10.906 14.3861 11.0531 14.2254 11.1915L14.1989 11.2143L13.3228 11.9695C13.024 12.227 12.573 12.1936 12.3154 11.8948C12.0579 11.596 12.0913 11.1449 12.3901 10.8874L13.2663 10.1323C13.3245 10.082 13.3747 10.0387 13.419 9.99986C13.3747 9.96101 13.3245 9.91769 13.2662 9.86747L12.3901 9.11234ZM7.68325 8.10495C7.9408 8.40376 7.90736 8.85478 7.60855 9.11234L6.73245 9.86747C6.67418 9.91769 6.62395 9.96101 6.57965 9.99986C6.62395 10.0387 6.67418 10.082 6.73245 10.1323L7.60855 10.8874C7.90736 11.1449 7.9408 11.596 7.68325 11.8948C7.4257 12.1936 6.97467 12.227 6.67586 11.9695L5.79976 11.2143L5.7733 11.1915C5.61257 11.0531 5.44179 10.906 5.31691 10.7649C5.17571 10.6054 4.99935 10.3523 4.99935 9.99986C4.99935 9.64744 5.17571 9.39429 5.31691 9.23479C5.44179 9.09371 5.61257 8.94662 5.7733 8.80818L5.79976 8.78538L6.67586 8.03025C6.97467 7.77269 7.4257 7.80614 7.68325 8.10495ZM11.3918 8.08309C11.5166 7.70884 11.3143 7.30433 10.9401 7.17958C10.5658 7.05483 10.1613 7.25709 10.0365 7.63133L8.60798 11.917C8.48323 12.2913 8.68548 12.6958 9.05973 12.8206C9.43397 12.9453 9.83849 12.743 9.96324 12.3688L11.3918 8.08309Z" fill="#FFC633"/>
<path fill-rule="evenodd" clip-rule="evenodd" d="M15.1234 19.2917C15.1234 19.8667 15.589 20.3333 16.165 20.3333C16.7411 20.3333 17.2067 19.8667 17.2067 19.2917V17.2089H19.2917C19.8677 17.2089 20.3333 16.7423 20.3333 16.1673C20.3333 15.5923 19.8677 15.1256 19.2917 15.1256H17.2067V13.0417C17.2067 12.4667 16.7411 12 16.165 12C15.589 12 15.1234 12.4667 15.1234 13.0417V15.1256H13.0417C12.4656 15.1256 12 15.5923 12 16.1673C12 16.7423 12.4656 17.2089 13.0417 17.2089H15.1234V19.2917Z" fill="#6557FF"/>
<path d="M17.2067 17.2089V16.7089H16.7067V17.2089H17.2067ZM17.2067 15.1256H16.7067V15.6256H17.2067V15.1256ZM15.1234 15.1256V15.6256H15.6234V15.1256H15.1234ZM15.1234 17.2089H15.6234V16.7089H15.1234V17.2089ZM16.165 19.8333C15.8655 19.8333 15.6234 19.5908 15.6234 19.2917H14.6234C14.6234 20.1425 15.3125 20.8333 16.165 20.8333V19.8333ZM16.7067 19.2917C16.7067 19.5908 16.4646 19.8333 16.165 19.8333V20.8333C17.0175 20.8333 17.7067 20.1425 17.7067 19.2917H16.7067ZM16.7067 17.2089V19.2917H17.7067V17.2089H16.7067ZM19.2917 16.7089H17.2067V17.7089H19.2917V16.7089ZM19.8333 16.1673C19.8333 16.4665 19.5912 16.7089 19.2917 16.7089V17.7089C20.1442 17.7089 20.8333 17.0181 20.8333 16.1673H19.8333ZM19.2917 15.6256C19.5912 15.6256 19.8333 15.8681 19.8333 16.1673H20.8333C20.8333 15.3165 20.1442 14.6256 19.2917 14.6256V15.6256ZM17.2067 15.6256H19.2917V14.6256H17.2067V15.6256ZM16.7067 13.0417V15.1256H17.7067V13.0417H16.7067ZM16.165 12.5C16.4646 12.5 16.7067 12.7425 16.7067 13.0417H17.7067C17.7067 12.1909 17.0175 11.5 16.165 11.5V12.5ZM15.6234 13.0417C15.6234 12.7425 15.8655 12.5 16.165 12.5V11.5C15.3125 11.5 14.6234 12.1908 14.6234 13.0417H15.6234ZM15.6234 15.1256V13.0417H14.6234V15.1256H15.6234ZM13.0417 15.6256H15.1234V14.6256H13.0417V15.6256ZM12.5 16.1673C12.5 15.8681 12.7421 15.6256 13.0417 15.6256V14.6256C12.1892 14.6256 11.5 15.3165 11.5 16.1673H12.5ZM13.0417 16.7089C12.7421 16.7089 12.5 16.4665 12.5 16.1673H11.5C11.5 17.0181 12.1892 17.7089 13.0417 17.7089V16.7089ZM15.1234 16.7089H13.0417V17.7089H15.1234V16.7089ZM15.6234 19.2917V17.2089H14.6234V19.2917H15.6234Z" fill="white"/>
</svg>
