<svg width="21" height="20" viewBox="0 0 21 20" fill="none" xmlns="http://www.w3.org/2000/svg">
<rect x="6.5" y="1.125" width="7" height="15" rx="0.5" fill="#FFC633" stroke="#FFC633"/>
<rect x="15" y="2.625" width="5" height="12" rx="1" fill="#6557FF"/>
<rect y="2.625" width="5" height="12" rx="1" fill="#6557FF"/>
<path fill-rule="evenodd" clip-rule="evenodd" d="M14.9984 18.375C14.9984 18.927 15.4454 19.375 15.9984 19.375C16.5514 19.375 16.9984 18.927 16.9984 18.375V16.3756H19C19.553 16.3756 20 15.9276 20 15.3756C20 14.8236 19.553 14.3756 19 14.3756H16.9984V12.375C16.9984 11.823 16.5514 11.375 15.9984 11.375C15.4454 11.375 14.9984 11.823 14.9984 12.375V14.3756H13C12.447 14.3756 12 14.8236 12 15.3756C12 15.9276 12.447 16.3756 13 16.3756H14.9984V18.375Z" fill="#6557FF"/>
<path d="M16.9984 16.3756V15.9756H16.5984V16.3756H16.9984ZM16.9984 14.3756H16.5984V14.7756H16.9984V14.3756ZM14.9984 14.3756V14.7756H15.3984V14.3756H14.9984ZM14.9984 16.3756H15.3984V15.9756H14.9984V16.3756ZM15.9984 18.975C15.6666 18.975 15.3984 18.7063 15.3984 18.375H14.5984C14.5984 19.1477 15.2243 19.775 15.9984 19.775V18.975ZM16.5984 18.375C16.5984 18.7063 16.3303 18.975 15.9984 18.975V19.775C16.7726 19.775 17.3984 19.1477 17.3984 18.375H16.5984ZM16.5984 16.3756V18.375H17.3984V16.3756H16.5984ZM19 15.9756H16.9984V16.7756H19V15.9756ZM19.6 15.3756C19.6 15.7069 19.3318 15.9756 19 15.9756V16.7756C19.7742 16.7756 20.4 16.1482 20.4 15.3756H19.6ZM19 14.7756C19.3318 14.7756 19.6 15.0442 19.6 15.3756H20.4C20.4 14.6029 19.7742 13.9756 19 13.9756V14.7756ZM16.9984 14.7756H19V13.9756H16.9984V14.7756ZM16.5984 12.375V14.3756H17.3984V12.375H16.5984ZM15.9984 11.775C16.3303 11.775 16.5984 12.0437 16.5984 12.375H17.3984C17.3984 11.6023 16.7726 10.975 15.9984 10.975V11.775ZM15.3984 12.375C15.3984 12.0437 15.6666 11.775 15.9984 11.775V10.975C15.2243 10.975 14.5984 11.6023 14.5984 12.375H15.3984ZM15.3984 14.3756V12.375H14.5984V14.3756H15.3984ZM13 14.7756H14.9984V13.9756H13V14.7756ZM12.4 15.3756C12.4 15.0442 12.6682 14.7756 13 14.7756V13.9756C12.2258 13.9756 11.6 14.6029 11.6 15.3756H12.4ZM13 15.9756C12.6682 15.9756 12.4 15.7069 12.4 15.3756H11.6C11.6 16.1482 12.2258 16.7756 13 16.7756V15.9756ZM14.9984 15.9756H13V16.7756H14.9984V15.9756ZM15.3984 18.375V16.3756H14.5984V18.375H15.3984Z" fill="white"/>
</svg>
