<svg width="20" height="20" viewBox="0 0 20 20" fill="none" xmlns="http://www.w3.org/2000/svg">
<g clip-path="url(#clip0_8579_9294)">
<path d="M5.52148 5.3125C5.52148 2.89625 7.48024 0.9375 9.89648 0.9375C12.3127 0.9375 14.2715 2.89625 14.2715 5.3125C14.2715 7.72875 12.3127 9.6875 9.89648 9.6875C7.48024 9.6875 5.52148 7.72875 5.52148 5.3125Z" fill="#FFC633"/>
<path d="M13.1052 11.8371C13.21 11.8864 13.2629 12.0026 13.2476 12.1174C13.2354 12.2085 13.2292 12.3014 13.2292 12.3958V12.9792C13.2292 13.1172 13.1172 13.2292 12.9792 13.2292H12.3958C11.2452 13.2292 10.3125 14.1619 10.3125 15.3125C10.3125 16.4631 11.2452 17.3958 12.3958 17.3958H12.9792C13.1172 17.3958 13.2292 17.5078 13.2292 17.6458V18.2292C13.2292 18.3319 13.2366 18.4329 13.251 18.5316C13.2731 18.6837 13.1754 18.8356 13.0221 18.8453C12.9284 18.8511 12.8334 18.8542 12.7369 18.8542H5.38837C3.87311 18.8542 2.70163 18.1089 1.72542 17.1788C1.15957 16.6397 0.877518 16.033 0.94819 15.3865C1.01464 14.7785 1.38019 14.2823 1.76491 13.9057C2.38005 13.3036 3.27798 12.797 3.87199 12.4619C4.00751 12.3854 4.12729 12.3178 4.2242 12.2601C5.31157 11.6127 6.50496 11.2034 7.72536 11.0313C8.61191 10.9062 9.51338 10.9062 10.3999 11.0313C11.329 11.1623 12.2423 11.4308 13.1052 11.8371Z" fill="#FFC633"/>
<path fill-rule="evenodd" clip-rule="evenodd" d="M14.1234 18.2917C14.1234 18.8667 14.589 19.3333 15.165 19.3333C15.7411 19.3333 16.2067 18.8667 16.2067 18.2917V16.2089H18.2917C18.8677 16.2089 19.3333 15.7423 19.3333 15.1673C19.3333 14.5923 18.8677 14.1256 18.2917 14.1256H16.2067V12.0417C16.2067 11.4667 15.7411 11 15.165 11C14.589 11 14.1234 11.4667 14.1234 12.0417V14.1256H12.0417C11.4656 14.1256 11 14.5923 11 15.1673C11 15.7423 11.4656 16.2089 12.0417 16.2089H14.1234V18.2917Z" fill="#6557FF"/>
<path d="M16.2067 16.2089V15.7089H15.7067V16.2089H16.2067ZM16.2067 14.1256H15.7067V14.6256H16.2067V14.1256ZM14.1234 14.1256V14.6256H14.6234V14.1256H14.1234ZM14.1234 16.2089H14.6234V15.7089H14.1234V16.2089ZM15.165 18.8333C14.8655 18.8333 14.6234 18.5908 14.6234 18.2917H13.6234C13.6234 19.1425 14.3125 19.8333 15.165 19.8333V18.8333ZM15.7067 18.2917C15.7067 18.5908 15.4646 18.8333 15.165 18.8333V19.8333C16.0175 19.8333 16.7067 19.1425 16.7067 18.2917H15.7067ZM15.7067 16.2089V18.2917H16.7067V16.2089H15.7067ZM18.2917 15.7089H16.2067V16.7089H18.2917V15.7089ZM18.8333 15.1673C18.8333 15.4665 18.5912 15.7089 18.2917 15.7089V16.7089C19.1442 16.7089 19.8333 16.0181 19.8333 15.1673H18.8333ZM18.2917 14.6256C18.5912 14.6256 18.8333 14.8681 18.8333 15.1673H19.8333C19.8333 14.3165 19.1442 13.6256 18.2917 13.6256V14.6256ZM16.2067 14.6256H18.2917V13.6256H16.2067V14.6256ZM15.7067 12.0417V14.1256H16.7067V12.0417H15.7067ZM15.165 11.5C15.4646 11.5 15.7067 11.7425 15.7067 12.0417H16.7067C16.7067 11.1909 16.0175 10.5 15.165 10.5V11.5ZM14.6234 12.0417C14.6234 11.7425 14.8655 11.5 15.165 11.5V10.5C14.3125 10.5 13.6234 11.1908 13.6234 12.0417H14.6234ZM14.6234 14.1256V12.0417H13.6234V14.1256H14.6234ZM12.0417 14.6256H14.1234V13.6256H12.0417V14.6256ZM11.5 15.1673C11.5 14.8681 11.7421 14.6256 12.0417 14.6256V13.6256C11.1892 13.6256 10.5 14.3165 10.5 15.1673H11.5ZM12.0417 15.7089C11.7421 15.7089 11.5 15.4665 11.5 15.1673H10.5C10.5 16.0181 11.1892 16.7089 12.0417 16.7089V15.7089ZM14.1234 15.7089H12.0417V16.7089H14.1234V15.7089ZM14.6234 18.2917V16.2089H13.6234V18.2917H14.6234Z" fill="white"/>
</g>
<defs>
<clipPath id="clip0_8579_9294">
<rect width="20" height="20" fill="white"/>
</clipPath>
</defs>
</svg>
