<svg width="158" height="129" viewBox="0 0 158 129" fill="none" xmlns="http://www.w3.org/2000/svg">
<path d="M66.3204 100C91.9075 100 112.641 79.1281 112.641 53.4022C112.641 27.6764 91.9075 6.80449 66.3204 6.80449C40.7332 6.73515 20 27.6071 20 53.4022C20 79.1281 40.7332 100 66.3204 100Z" fill="#EAEEF9"/>
<path d="M120.268 41.0595C121.725 39.742 121.794 37.4538 120.476 35.9976C119.159 34.5414 116.94 34.472 115.484 35.7895C114.028 37.107 113.958 39.3953 115.276 40.8515C116.593 42.3077 118.812 42.4464 120.268 41.0595Z" fill="#EAEEF9"/>
<path d="M39.5544 10.7572C40.8025 10.3411 41.4266 9.02365 41.0799 7.77549C40.6639 6.52734 39.3464 5.90326 38.1676 6.24997C36.9194 6.66602 36.2953 7.98352 36.642 9.23167C36.9887 10.4798 38.3062 11.1732 39.5544 10.7572Z" fill="#EAEEF9"/>
<path d="M44.6164 3.1294C45.4485 2.85203 45.9339 1.95058 45.6565 1.11848C45.3792 0.286379 44.4777 -0.199014 43.6456 0.0783533C42.8135 0.355721 42.3281 1.25717 42.6055 2.08927C42.8829 2.92137 43.7843 3.40676 44.6164 3.1294Z" fill="#EAEEF9"/>
<path d="M120.476 25.2493C121.101 24.6946 121.101 23.7238 120.546 23.0997C119.991 22.4757 119.02 22.4757 118.466 23.0304C117.841 23.5851 117.841 24.5559 118.396 25.18C118.951 25.7347 119.922 25.8041 120.476 25.2493Z" fill="#EAEEF9"/>
<path d="M82.8931 3.26789C83.3091 2.85184 83.3091 2.22777 82.9624 1.81172C82.5464 1.39566 81.9223 1.39566 81.5063 1.74237C81.0902 2.15842 81.0209 2.7825 81.4369 3.19855C81.853 3.6146 82.477 3.68395 82.8931 3.26789Z" fill="#EAEEF9"/>
<g filter="url(#filter0_d_6171_17375)">
<path d="M106.4 87.3797H27.281C24.4379 87.3797 22.1497 85.1607 22.1497 82.3871V25.8734C22.1497 23.0997 24.3686 20.8808 27.281 20.8808H106.4C109.243 20.8808 111.531 23.0997 111.531 25.8734V82.3871C111.393 85.1607 109.174 87.3797 106.4 87.3797Z" fill="url(#paint0_linear_6171_17375)"/>
</g>
<path d="M111.601 25.8731V82.3867C111.601 85.1604 109.382 87.3794 106.469 87.3794H66.8751V20.9498H106.469C109.382 20.9498 111.601 23.1688 111.601 25.8731Z" fill="#E8EBF4"/>
<g filter="url(#filter1_d_6171_17375)">
<path d="M134.42 13.2279L116.065 19.9525C115.239 20.2832 114.687 21.0549 114.687 21.9368V86.3164C114.687 87.1983 115.239 87.9699 116.065 88.3007L134.365 95.1355C135.082 95.4111 135.798 94.8599 135.798 94.1433V14.22C135.853 13.5035 135.082 13.0074 134.42 13.2279Z" fill="url(#paint1_linear_6171_17375)"/>
</g>
<path d="M115.9 31.5276H109.451V35.0552H115.9V31.5276Z" fill="#C8CEDD"/>
<path d="M115.9 73.0327H109.451V76.5604H115.9V73.0327Z" fill="#C8CEDD"/>
<path d="M42.6054 42.5155H30.0545C29.2917 42.5155 28.5983 41.8914 28.5983 41.3367C28.5983 40.7126 29.2224 40.1579 30.0545 40.1579H42.6054C43.3681 40.1579 44.0616 40.782 44.0616 41.3367C44.0616 41.9608 43.3681 42.5155 42.6054 42.5155Z" fill="#AAB2C5"/>
<path d="M39.6238 62.7633H30.1933C29.4306 62.7633 28.7371 62.1392 28.7371 61.5845C28.7371 60.9604 29.3612 60.4056 30.1933 60.4056H39.6238C40.3866 60.4056 41.08 61.0297 41.08 61.5845C40.9413 62.1392 40.2479 62.7633 39.6238 62.7633Z" fill="#AAB2C5"/>
<path d="M51.1345 69.4201H35.1859C34.4231 69.4201 33.7297 68.7961 33.7297 68.2413C33.7297 67.6172 34.3538 67.0625 35.1859 67.0625H51.1345C51.8973 67.0625 52.5907 67.6866 52.5907 68.2413C52.452 68.9347 51.7586 69.4201 51.1345 69.4201Z" fill="#D6DCE8"/>
<path d="M66.8058 66.9935V69.4898H57.2366C56.4738 69.4898 55.7804 68.8658 55.7804 68.311C55.7804 67.895 55.9191 67.6869 56.3351 67.4096C56.6125 67.2709 56.8899 66.9935 57.3753 66.9935H66.8058Z" fill="#D6DCE8"/>
<path d="M48.4994 76.008H30.0545C29.2917 76.008 28.5983 75.3839 28.5983 74.8292C28.5983 74.2051 29.2224 73.6504 30.0545 73.6504H48.4994C49.2622 73.6504 49.9556 74.2745 49.9556 74.8292C49.9556 75.4533 49.4009 76.008 48.4994 76.008Z" fill="#AAB2C5"/>
<path d="M38.3063 82.803H30.4706C29.7079 82.803 29.0144 82.1789 29.0144 81.6242C29.0144 81.0001 29.6385 80.4454 30.4706 80.4454H38.3063C39.069 80.4454 39.7624 81.0694 39.7624 81.6242C39.7624 82.2483 39.2077 82.803 38.3063 82.803Z" fill="#D6DCE8"/>
<path d="M44.963 82.803H43.2295C42.4667 82.803 41.7733 82.1789 41.7733 81.6242C41.7733 81.0001 42.3974 80.4454 43.2295 80.4454H44.963C45.7258 80.4454 46.4192 81.0694 46.4192 81.6242C46.4192 82.2483 45.7258 82.803 44.963 82.803Z" fill="#D6DCE8"/>
<path d="M33.8683 56.2452H30.0545C29.2917 56.2452 28.5983 55.6211 28.5983 55.0664C28.5983 54.4423 29.2224 53.8876 30.0545 53.8876H33.8683C34.6311 53.8876 35.3245 54.5117 35.3245 55.0664C35.2551 55.6905 34.6311 56.2452 33.8683 56.2452Z" fill="#D6DCE8"/>
<path d="M48.4994 49.3114H30.0545C29.2917 49.3114 28.5983 48.6873 28.5983 48.1326C28.5983 47.5085 29.2224 46.9537 30.0545 46.9537H48.4994C49.2622 46.9537 49.9556 47.5778 49.9556 48.1326C49.9556 48.7566 49.4009 49.3114 48.4994 49.3114Z" fill="#D6DCE8"/>
<path d="M66.8057 46.8148V49.3111H54.6709C53.9081 49.3111 53.2147 48.6871 53.2147 48.1323C53.2147 47.7163 53.3534 47.5082 53.7694 47.2309C53.9081 46.9535 54.3242 46.8148 54.8096 46.8148H66.8057Z" fill="#AAB2C5"/>
<path d="M94.485 61.6068C92.9873 60.7603 93.378 59.3277 93.2478 57.5697C93.0524 54.4442 98.2616 54.9651 96.764 51.514C95.2663 48.063 94.7454 45.5235 92.2711 46.2398C90.6432 46.6956 89.3409 47.2816 88.1689 46.0444C86.9968 44.8073 85.6294 44.091 86.0201 42.4632C86.9968 38.1005 86.541 38.5563 81.0063 36.4075C77.5552 35.0401 78.2064 40.2493 75.146 40.1842C73.3879 40.119 72.0205 40.5748 71.1089 39.1423C69.416 36.4726 69.0253 36.0168 66.8765 36.8633V56.3976C66.9416 56.2674 66.9416 56.1372 67.0067 56.0069C68.6346 51.8396 73.3879 49.756 77.5552 51.3838C81.7226 53.0117 83.8062 57.765 82.1784 61.9323C80.5505 66.0996 75.7972 68.1833 71.6298 66.5554C69.2857 65.6438 67.5928 63.7555 66.8765 61.5416V81.0108C67.2672 81.141 67.6579 81.2713 68.1137 81.4666C71.5647 82.834 70.9136 77.5598 73.974 77.69C77.5552 77.7551 77.0994 77.1691 78.9877 80.2946C80.4203 82.5736 82.8946 80.7504 85.8899 79.4481C89.2758 77.9504 85.1736 74.6947 87.3875 72.6111C87.8433 72.1553 88.2991 71.6995 88.6898 71.2437C89.7967 69.9414 91.099 70.5274 92.792 70.9181C95.2663 71.5041 95.7221 68.8996 97.0895 65.4485C97.8709 63.2997 96.0477 62.5184 94.485 61.6068Z" fill="#C8CEDD"/>
<path d="M103.594 36.5355C103.537 35.284 103.65 34.4307 102.802 34.317C102.237 34.2601 101.785 34.317 101.558 33.805C101.332 33.293 100.993 32.8948 101.332 32.4398C102.18 31.1883 101.954 31.3021 100.484 29.9368C99.5794 29.0835 99.1836 30.847 98.2224 30.4488C97.7135 30.2212 97.2047 30.2212 97.0916 29.6524C96.8089 28.1734 96.7523 28.4009 94.7168 28.5147C93.9818 28.5716 93.9818 29.1404 93.9252 29.8231C93.8687 30.3919 93.3598 30.4488 92.851 30.7332C91.9463 31.2452 91.3809 29.5386 90.5328 30.5057C90.137 30.9039 89.7412 31.3589 89.4019 31.814C89.1192 32.4966 89.7412 32.6673 90.0239 33.2362V33.293C90.0239 33.293 90.0239 33.293 90.0239 33.3499C90.0804 33.5206 90.0804 33.6912 89.9673 33.8619C89.9673 33.9188 89.8543 34.0894 89.8543 34.1463C89.6846 34.6014 89.6846 34.8858 89.1758 34.9996C87.7622 35.284 87.9319 35.3409 88.0449 37.3888C88.1015 38.6402 89.6281 37.7301 90.0239 38.6402C90.1935 39.0384 90.5328 39.4935 90.3631 39.8348C90.25 40.1192 89.9108 40.4037 89.8543 40.8019C89.6846 41.4276 90.4197 41.8827 91.1547 42.5084C92.0594 43.3617 92.4552 41.5982 93.4164 41.9964C94.5472 42.4515 94.4341 42.224 94.6603 43.4186C94.8299 44.2718 95.8477 44.0443 96.9219 43.9874C98.1659 43.9305 97.2612 42.3946 98.1659 41.9964C98.3355 41.9396 98.5616 41.8258 98.7313 41.712C99.2401 41.4276 99.5794 41.7689 100.032 42.1102C100.767 42.5653 101.163 41.8258 102.011 40.9156C102.52 40.3468 102.011 39.8917 101.615 39.4366C101.219 38.9815 101.558 38.5833 101.671 38.0145C102.124 37.0474 103.707 37.787 103.594 36.5355ZM97.8266 38.0714C96.8089 39.2091 95.1126 39.3228 93.9818 38.2989C92.851 37.275 92.7379 35.5684 93.7556 34.4307C94.7734 33.293 96.4696 33.1793 97.6004 34.2032C98.7313 35.2271 98.8443 36.9337 97.8266 38.0714Z" fill="#C8CEDD"/>
<path opacity="0.15" d="M70.6196 20.9498H66.8751V87.3794H70.6196V20.9498Z" fill="#AAB2C5"/>
<defs>
<filter id="filter0_d_6171_17375" x="0.149654" y="9.8808" width="133.382" height="110.499" filterUnits="userSpaceOnUse" color-interpolation-filters="sRGB">
<feFlood flood-opacity="0" result="BackgroundImageFix"/>
<feColorMatrix in="SourceAlpha" type="matrix" values="0 0 0 0 0 0 0 0 0 0 0 0 0 0 0 0 0 0 127 0" result="hardAlpha"/>
<feOffset dy="11"/>
<feGaussianBlur stdDeviation="11"/>
<feColorMatrix type="matrix" values="0 0 0 0 0.397708 0 0 0 0 0.47749 0 0 0 0 0.575 0 0 0 0.27 0"/>
<feBlend mode="normal" in2="BackgroundImageFix" result="effect1_dropShadow_6171_17375"/>
<feBlend mode="normal" in="SourceGraphic" in2="effect1_dropShadow_6171_17375" result="shape"/>
</filter>
<filter id="filter1_d_6171_17375" x="92.6873" y="2.17505" width="65.1136" height="126.033" filterUnits="userSpaceOnUse" color-interpolation-filters="sRGB">
<feFlood flood-opacity="0" result="BackgroundImageFix"/>
<feColorMatrix in="SourceAlpha" type="matrix" values="0 0 0 0 0 0 0 0 0 0 0 0 0 0 0 0 0 0 127 0" result="hardAlpha"/>
<feOffset dy="11"/>
<feGaussianBlur stdDeviation="11"/>
<feColorMatrix type="matrix" values="0 0 0 0 0.397708 0 0 0 0 0.47749 0 0 0 0 0.575 0 0 0 0.27 0"/>
<feBlend mode="normal" in2="BackgroundImageFix" result="effect1_dropShadow_6171_17375"/>
<feBlend mode="normal" in="SourceGraphic" in2="effect1_dropShadow_6171_17375" result="shape"/>
</filter>
<linearGradient id="paint0_linear_6171_17375" x1="66.8114" y1="19.3426" x2="66.8114" y2="88.0966" gradientUnits="userSpaceOnUse">
<stop stop-color="#FDFEFF"/>
<stop offset="0.9964" stop-color="#ECF0F5"/>
</linearGradient>
<linearGradient id="paint1_linear_6171_17375" x1="125.237" y1="11.2776" x2="125.237" y2="96.0922" gradientUnits="userSpaceOnUse">
<stop stop-color="#FDFEFF"/>
<stop offset="0.9964" stop-color="#ECF0F5"/>
</linearGradient>
</defs>
</svg>
