<svg width="117" height="112" viewBox="0 0 117 112" fill="none" xmlns="http://www.w3.org/2000/svg">
<path d="M57.6887 84.6945C79.6517 84.6945 97.4575 66.8887 97.4575 44.8472C97.4575 22.8058 79.5733 5 57.6887 5C35.7257 5 17.9199 22.8058 17.9199 44.8472C17.9199 66.8887 35.7257 84.6945 57.6887 84.6945Z" fill="#EAEEF9"/>
<path d="M102.506 32.2221C104.282 32.2221 105.722 30.7822 105.722 29.0061C105.722 27.2299 104.282 25.79 102.506 25.79C100.73 25.79 99.29 27.2299 99.29 29.0061C99.29 30.7822 100.73 32.2221 102.506 32.2221Z" fill="#EAEEF9"/>
<path d="M107.212 19.6719C108.425 19.6719 109.409 18.6886 109.409 17.4756C109.409 16.2626 108.425 15.2793 107.212 15.2793C105.999 15.2793 105.016 16.2626 105.016 17.4756C105.016 18.6886 105.999 19.6719 107.212 19.6719Z" fill="#EAEEF9"/>
<path d="M19.7241 18.7268C20.9371 18.7268 21.9204 17.7435 21.9204 16.5305C21.9204 15.3175 20.9371 14.3342 19.7241 14.3342C18.5112 14.3342 17.5278 15.3175 17.5278 16.5305C17.5278 17.7435 18.5112 18.7268 19.7241 18.7268Z" fill="#EAEEF9"/>
<path d="M6.31078 61.0842C8.56347 61.0842 10.3896 59.2581 10.3896 57.0054C10.3896 54.7527 8.56347 52.9265 6.31078 52.9265C4.0581 52.9265 2.23193 54.7527 2.23193 57.0054C2.23193 59.2581 4.0581 61.0842 6.31078 61.0842Z" fill="#EAEEF9"/>
<g filter="url(#filter0_d_3866_11938)">
<path d="M80.9419 74.4512H92.3296C93.7599 74.4512 94.986 73.2258 94.986 71.7962V18.6963C94.986 17.2666 93.7599 16.0413 92.3296 16.0413H81.2955" fill="url(#paint0_linear_3866_11938)"/>
</g>
<g filter="url(#filter1_d_3866_11938)">
<path d="M35.7286 74.4512H24.6945C23.2641 74.4512 22.0381 73.2258 22.0381 71.7962V18.6963C22.0381 17.2666 23.2641 16.0413 24.6945 16.0413H35.5013" fill="url(#paint1_linear_3866_11938)"/>
</g>
<path d="M29.7148 26.6611H35.2319" stroke="#D6DCE8" stroke-width="2" stroke-miterlimit="10" stroke-linecap="round"/>
<path d="M29.7148 33.8093H35.2319" stroke="#D6DCE8" stroke-width="2" stroke-miterlimit="10" stroke-linecap="round"/>
<path d="M29.7148 41.1616H35.2319" stroke="#D6DCE8" stroke-width="2" stroke-miterlimit="10" stroke-linecap="round"/>
<path d="M29.7148 48.5142H35.2319" stroke="#D6DCE8" stroke-width="2" stroke-miterlimit="10" stroke-linecap="round"/>
<path d="M29.7148 62.8101H35.2319" stroke="#D6DCE8" stroke-width="2" stroke-miterlimit="10" stroke-linecap="round"/>
<path d="M86.6081 26.6611H81.2954" stroke="#D6DCE8" stroke-width="2" stroke-miterlimit="10"/>
<path d="M86.6081 33.8093H81.2954" stroke="#D6DCE8" stroke-width="2" stroke-miterlimit="10" stroke-linecap="round"/>
<path d="M86.6081 41.1616H81.2954" stroke="#D6DCE8" stroke-width="2" stroke-miterlimit="10" stroke-linecap="round"/>
<path d="M86.6081 48.5142H81.2954" stroke="#D6DCE8" stroke-width="2" stroke-miterlimit="10" stroke-linecap="round"/>
<path d="M86.6081 62.8101H81.2954" stroke="#D6DCE8" stroke-width="2" stroke-miterlimit="10" stroke-linecap="round"/>
<g filter="url(#filter2_d_3866_11938)">
<path d="M78.6393 78.9444H38.1808C36.7504 78.9444 35.5244 77.719 35.5244 76.2894V14.6118C35.5244 13.1822 36.7504 11.9568 38.1808 11.9568H78.6393C80.0696 11.9568 81.2956 13.1822 81.2956 14.6118V76.2894C81.2956 77.719 80.0696 78.9444 78.6393 78.9444Z" fill="url(#paint2_linear_3866_11938)"/>
</g>
<path d="M73.7347 31.9389H45.5363C44.9233 31.9389 44.5146 31.5687 44.5146 31.0135V28.6077C44.5146 28.0525 44.9233 27.6824 45.5363 27.6824H73.7347C74.3477 27.6824 74.7563 28.0525 74.7563 28.6077V31.0135C74.7563 31.3837 74.3477 31.9389 73.7347 31.9389Z" fill="#D5DDEA"/>
<path d="M73.7347 42.9674H45.5363C44.9233 42.9674 44.5146 42.5973 44.5146 42.0421V39.6363C44.5146 39.0811 44.9233 38.7109 45.5363 38.7109H73.7347C74.3477 38.7109 74.7563 39.0811 74.7563 39.6363V42.0421C74.7563 42.5973 74.3477 42.9674 73.7347 42.9674Z" fill="#D5DDEA"/>
<path d="M73.7347 54.1998H45.5363C44.9233 54.1998 44.5146 53.8297 44.5146 53.2745V50.8687C44.5146 50.3135 44.9233 49.9434 45.5363 49.9434H73.7347C74.3477 49.9434 74.7563 50.3135 74.7563 50.8687V53.2745C74.7563 53.8297 74.3477 54.1998 73.7347 54.1998Z" fill="#D5DDEA"/>
<path d="M73.7352 65.6369H62.4968C61.8838 65.6369 61.4751 65.2667 61.4751 64.7115V62.3057C61.4751 61.7505 61.8838 61.3804 62.4968 61.3804H73.7352C74.3482 61.3804 74.7569 61.7505 74.7569 62.3057V64.7115C74.7569 65.2667 74.3482 65.6369 73.7352 65.6369Z" fill="#D5DDEA"/>
<path d="M70.8338 85.9654C70.5787 87.0497 70.196 88.1977 69.7496 89.1544C68.5378 91.5143 66.6244 93.3639 64.2645 94.5757C61.8409 95.7875 58.9708 96.2977 56.1007 95.6599C49.3401 94.2568 45.0031 87.6237 46.4062 80.8631C47.8094 74.1024 54.3787 69.7016 61.1393 71.1685C63.563 71.6788 65.6677 72.8906 67.4535 74.5489C70.4512 77.5465 71.7268 81.8835 70.8338 85.9654Z" fill="url(#paint3_linear_3866_11938)"/>
<path d="M62.6062 82.3298H59.7361V79.4597C59.7361 78.8857 59.2897 78.3755 58.6519 78.3755C58.0779 78.3755 57.5676 78.8219 57.5676 79.4597V82.3298H54.6975C54.1235 82.3298 53.6133 82.7763 53.6133 83.4141C53.6133 84.0519 54.0597 84.4983 54.6975 84.4983H57.5676V87.3684C57.5676 87.9424 58.0141 88.4527 58.6519 88.4527C59.2259 88.4527 59.7361 88.0062 59.7361 87.3684V84.4983H62.6062C63.1802 84.4983 63.6905 84.0519 63.6905 83.4141C63.6905 82.7763 63.1802 82.3298 62.6062 82.3298Z" fill="white"/>
<defs>
<filter id="filter0_d_3866_11938" x="58.9419" y="5.04126" width="58.0439" height="102.41" filterUnits="userSpaceOnUse" color-interpolation-filters="sRGB">
<feFlood flood-opacity="0" result="BackgroundImageFix"/>
<feColorMatrix in="SourceAlpha" type="matrix" values="0 0 0 0 0 0 0 0 0 0 0 0 0 0 0 0 0 0 127 0" result="hardAlpha"/>
<feOffset dy="11"/>
<feGaussianBlur stdDeviation="11"/>
<feColorMatrix type="matrix" values="0 0 0 0 0.397708 0 0 0 0 0.47749 0 0 0 0 0.575 0 0 0 0.27 0"/>
<feBlend mode="normal" in2="BackgroundImageFix" result="effect1_dropShadow_3866_11938"/>
<feBlend mode="normal" in="SourceGraphic" in2="effect1_dropShadow_3866_11938" result="shape"/>
</filter>
<filter id="filter1_d_3866_11938" x="0.0380859" y="5.04126" width="57.6904" height="102.41" filterUnits="userSpaceOnUse" color-interpolation-filters="sRGB">
<feFlood flood-opacity="0" result="BackgroundImageFix"/>
<feColorMatrix in="SourceAlpha" type="matrix" values="0 0 0 0 0 0 0 0 0 0 0 0 0 0 0 0 0 0 127 0" result="hardAlpha"/>
<feOffset dy="11"/>
<feGaussianBlur stdDeviation="11"/>
<feColorMatrix type="matrix" values="0 0 0 0 0.397708 0 0 0 0 0.47749 0 0 0 0 0.575 0 0 0 0.27 0"/>
<feBlend mode="normal" in2="BackgroundImageFix" result="effect1_dropShadow_3866_11938"/>
<feBlend mode="normal" in="SourceGraphic" in2="effect1_dropShadow_3866_11938" result="shape"/>
</filter>
<filter id="filter2_d_3866_11938" x="13.5244" y="0.956787" width="89.771" height="110.988" filterUnits="userSpaceOnUse" color-interpolation-filters="sRGB">
<feFlood flood-opacity="0" result="BackgroundImageFix"/>
<feColorMatrix in="SourceAlpha" type="matrix" values="0 0 0 0 0 0 0 0 0 0 0 0 0 0 0 0 0 0 127 0" result="hardAlpha"/>
<feOffset dy="11"/>
<feGaussianBlur stdDeviation="11"/>
<feColorMatrix type="matrix" values="0 0 0 0 0.397708 0 0 0 0 0.47749 0 0 0 0 0.575 0 0 0 0.27 0"/>
<feBlend mode="normal" in2="BackgroundImageFix" result="effect1_dropShadow_3866_11938"/>
<feBlend mode="normal" in="SourceGraphic" in2="effect1_dropShadow_3866_11938" result="shape"/>
</filter>
<linearGradient id="paint0_linear_3866_11938" x1="87.9593" y1="14.6902" x2="87.9593" y2="75.0809" gradientUnits="userSpaceOnUse">
<stop stop-color="#FDFEFF"/>
<stop offset="0.9964" stop-color="#ECF0F5"/>
</linearGradient>
<linearGradient id="paint1_linear_3866_11938" x1="28.8789" y1="14.6902" x2="28.8789" y2="75.0809" gradientUnits="userSpaceOnUse">
<stop stop-color="#FDFEFF"/>
<stop offset="0.9964" stop-color="#ECF0F5"/>
</linearGradient>
<linearGradient id="paint2_linear_3866_11938" x1="58.3951" y1="10.4073" x2="58.3951" y2="79.6665" gradientUnits="userSpaceOnUse">
<stop stop-color="#FDFEFF"/>
<stop offset="0.9964" stop-color="#ECF0F5"/>
</linearGradient>
<linearGradient id="paint3_linear_3866_11938" x1="46.1311" y1="83.4139" x2="71.1182" y2="83.4139" gradientUnits="userSpaceOnUse">
<stop stop-color="#B0BACC"/>
<stop offset="1" stop-color="#969EAE"/>
</linearGradient>
</defs>
</svg>
