<svg width="121" height="131" viewBox="0 0 121 131" fill="none" xmlns="http://www.w3.org/2000/svg">
<path d="M103.159 90.8909C105.021 90.8909 106.53 89.3814 106.53 87.5192C106.53 85.657 105.021 84.1475 103.159 84.1475C101.297 84.1475 99.7869 85.657 99.7869 87.5192C99.7869 89.3814 101.297 90.8909 103.159 90.8909Z" fill="#EAEEF9"/>
<path d="M111.988 37.176C113.26 37.176 114.291 36.1451 114.291 34.8733C114.291 33.6016 113.26 32.5707 111.988 32.5707C110.717 32.5707 109.686 33.6016 109.686 34.8733C109.686 36.1451 110.717 37.176 111.988 37.176Z" fill="#EAEEF9"/>
<path d="M29.6732 26.7559C30.9449 26.7559 31.9758 25.725 31.9758 24.4533C31.9758 23.1816 30.9449 22.1506 29.6732 22.1506C28.4014 22.1506 27.3705 23.1816 27.3705 24.4533C27.3705 25.725 28.4014 26.7559 29.6732 26.7559Z" fill="#EAEEF9"/>
<path d="M27.479 87.4905C29.8408 87.4905 31.7554 85.5759 31.7554 83.2141C31.7554 80.8523 29.8408 78.9377 27.479 78.9377C25.1173 78.9377 23.2027 80.8523 23.2027 83.2141C23.2027 85.5759 25.1173 87.4905 27.479 87.4905Z" fill="#EAEEF9"/>
<path d="M68.8411 95.8054C91.8676 95.8054 110.536 77.1375 110.536 54.0287C110.536 30.92 91.7854 12.252 68.8411 12.252C45.8146 12.252 27.1466 30.92 27.1466 54.0287C27.1466 77.1375 45.8146 95.8054 68.8411 95.8054Z" fill="#EAEEF9"/>
<g filter="url(#filter0_d_6171_17408)">
<path d="M98.5824 40.1005L94.5593 54.1813L93.4099 58.1086L83.3522 93.4542C82.5859 96.3278 79.5207 97.9562 76.647 97.1899L59.5968 92.3047L42.0677 87.228C39.1941 86.4617 37.5657 83.3965 38.332 80.5229L51.5507 34.0659L53.5622 27.1691C54.2327 24.8702 55.8611 22.9545 57.9685 21.9008L77.6049 12.5136C80.5743 11.0768 84.1185 12.1305 85.9385 14.9083L97.6245 33.2038C98.8698 35.2153 99.2529 37.7058 98.5824 40.1005Z" fill="url(#paint0_linear_6171_17408)"/>
</g>
<g filter="url(#filter1_d_6171_17408)">
<path d="M48.9643 89.9098L23.5806 64.5261C21.4732 62.4188 21.4732 58.9704 23.5806 56.8631L62.8535 17.5901C64.5777 15.866 66.8766 15.0039 69.2713 15.0997L90.9193 16.4407C94.1761 16.6323 96.8581 19.2185 97.0497 22.5711L98.3907 44.2191C98.5823 46.6138 97.6244 49.0085 95.9002 50.6369L56.6273 89.9098C54.52 92.0172 51.0716 92.0172 48.9643 89.9098Z" fill="url(#paint1_linear_6171_17408)"/>
</g>
<path d="M88.2884 34.4691C90.8321 31.9254 90.8321 27.8013 88.2884 25.2576C85.7447 22.7139 81.6206 22.7139 79.0769 25.2576C76.5333 27.8013 76.5333 31.9254 79.0769 34.4691C81.6206 37.0128 85.7447 37.0128 88.2884 34.4691Z" fill="#E5EAF6"/>
<path d="M36.2246 61.9398C35.7457 61.9398 35.2668 61.7483 34.8836 61.3651C34.1173 60.5988 34.1173 59.4494 34.8836 58.6831L59.7884 33.7783C60.5547 33.012 61.7042 33.012 62.4705 33.7783C63.2368 34.5446 63.2368 35.694 62.4705 36.4603L37.6615 61.3651C37.2783 61.7483 36.7994 61.9398 36.2246 61.9398Z" fill="#E5EAF6"/>
<path d="M42.9296 68.5492C42.4506 68.5492 41.9717 68.3576 41.5885 67.9745C40.8222 67.2082 40.8222 66.0587 41.5885 65.2924L66.3975 40.4834C67.1638 39.7171 68.3133 39.7171 69.0796 40.4834C69.8459 41.2497 69.8459 42.3992 69.0796 43.1655L44.2706 67.9745C43.8874 68.3576 43.4085 68.5492 42.9296 68.5492Z" fill="#E5EAF6"/>
<path d="M52.221 77.8407C51.742 77.8407 51.2631 77.6492 50.88 77.266C50.1137 76.4997 50.1137 75.3502 50.88 74.5839L59.1177 66.3462C59.884 65.5799 61.0335 65.5799 61.7998 66.3462C62.5661 67.1125 62.5661 68.262 61.7998 69.0283L53.562 77.266C53.1789 77.6492 52.6999 77.8407 52.221 77.8407Z" fill="#E5EAF6"/>
<path d="M106.341 20.0806C106.341 25.6363 103.084 30.713 97.9117 32.9162L97.5286 31.9583V30.9046C101.647 28.8931 104.329 24.6784 104.329 20.0806C104.329 13.4713 98.9654 8.01136 92.2602 8.01136C85.6509 8.01136 80.191 13.3755 80.191 20.0806C80.191 21.4216 80.3826 22.6669 80.8615 23.9121C82.2025 27.8394 85.4593 30.9046 89.5782 31.8625L89.3866 32.8204L88.8119 33.7782C84.3099 32.6288 80.7657 29.372 79.1373 25.1573C78.5626 23.6247 78.1795 21.9006 78.1795 20.1764C78.2752 12.3218 84.5014 5.99982 92.2602 5.99982C100.115 5.99982 106.341 12.3218 106.341 20.0806Z" fill="#989FB0"/>
<defs>
<filter id="filter0_d_6171_17408" x="16.1431" y="0.872192" width="104.766" height="129.507" filterUnits="userSpaceOnUse" color-interpolation-filters="sRGB">
<feFlood flood-opacity="0" result="BackgroundImageFix"/>
<feColorMatrix in="SourceAlpha" type="matrix" values="0 0 0 0 0 0 0 0 0 0 0 0 0 0 0 0 0 0 127 0" result="hardAlpha"/>
<feOffset dy="11"/>
<feGaussianBlur stdDeviation="11"/>
<feColorMatrix type="matrix" values="0 0 0 0 0.397708 0 0 0 0 0.47749 0 0 0 0 0.575 0 0 0 0.27 0"/>
<feBlend mode="normal" in2="BackgroundImageFix" result="effect1_dropShadow_6171_17408"/>
<feBlend mode="normal" in="SourceGraphic" in2="effect1_dropShadow_6171_17408" result="shape"/>
</filter>
<filter id="filter1_d_6171_17408" x="6.48499e-05" y="4.09247" width="120.415" height="120.398" filterUnits="userSpaceOnUse" color-interpolation-filters="sRGB">
<feFlood flood-opacity="0" result="BackgroundImageFix"/>
<feColorMatrix in="SourceAlpha" type="matrix" values="0 0 0 0 0 0 0 0 0 0 0 0 0 0 0 0 0 0 127 0" result="hardAlpha"/>
<feOffset dy="11"/>
<feGaussianBlur stdDeviation="11"/>
<feColorMatrix type="matrix" values="0 0 0 0 0.397708 0 0 0 0 0.47749 0 0 0 0 0.575 0 0 0 0.27 0"/>
<feBlend mode="normal" in2="BackgroundImageFix" result="effect1_dropShadow_6171_17408"/>
<feBlend mode="normal" in="SourceGraphic" in2="effect1_dropShadow_6171_17408" result="shape"/>
</filter>
<linearGradient id="paint0_linear_6171_17408" x1="68.5062" y1="9.89434" x2="68.5062" y2="98.3006" gradientUnits="userSpaceOnUse">
<stop stop-color="#FDFEFF"/>
<stop offset="0.9964" stop-color="#ECF0F5"/>
</linearGradient>
<linearGradient id="paint1_linear_6171_17408" x1="60.1826" y1="13.3253" x2="60.1826" y2="92.3139" gradientUnits="userSpaceOnUse">
<stop stop-color="#FDFEFF"/>
<stop offset="0.9964" stop-color="#ECF0F5"/>
</linearGradient>
</defs>
</svg>
