<svg width="16" height="16" viewBox="0 0 16 16" fill="none" xmlns="http://www.w3.org/2000/svg">
<path d="M12.0669 1.57595C11.8325 1.35491 11.4633 1.36572 11.2423 1.6001C11.0212 1.83447 11.032 2.20366 11.2664 2.4247L12.672 3.75033H9.27006C8.50338 3.75033 7.7763 4.09087 7.28549 4.67985L6.21851 5.96022C6.01227 6.20771 6.0457 6.57554 6.2932 6.78179C6.54069 6.98803 6.90852 6.95459 7.11477 6.7071L8.18174 5.42673C8.4509 5.10374 8.84962 4.91699 9.27006 4.91699H12.672L11.2664 6.24262C11.032 6.46366 11.0212 6.83285 11.2423 7.06722C11.4633 7.3016 11.8325 7.31241 12.0669 7.09137L14.2895 4.99514C14.3801 4.91222 14.4528 4.81153 14.5029 4.69931C14.5543 4.58426 14.5808 4.45966 14.5808 4.33366C14.5808 4.20766 14.5543 4.08307 14.5029 3.96801C14.4528 3.85579 14.3801 3.7551 14.2895 3.67218L12.0669 1.57595Z" fill="#6557FF"/>
<path d="M1.99996 7.41699C1.67779 7.41699 1.41663 7.67816 1.41663 8.00033C1.41663 8.32249 1.67779 8.58366 1.99996 8.58366H4.41013C4.62144 8.58366 4.82295 8.6728 4.96509 8.82915L7.30652 11.4047C7.79612 11.9433 8.49019 12.2503 9.21803 12.2503H12.672L11.2664 13.576C11.032 13.797 11.0212 14.1662 11.2423 14.4006C11.4633 14.6349 11.8325 14.6457 12.0669 14.4247L14.2895 12.3285C14.3801 12.2456 14.4528 12.1449 14.5029 12.0326C14.5543 11.9176 14.5808 11.793 14.5808 11.667C14.5808 11.541 14.5543 11.4164 14.5029 11.3013C14.4528 11.1891 14.3801 11.0884 14.2895 11.0055L12.0669 8.90929C11.8325 8.68825 11.4633 8.69905 11.2423 8.93343C11.0212 9.1678 11.032 9.53699 11.2664 9.75803L12.672 11.0837H9.21803C8.81889 11.0837 8.43827 10.9153 8.16978 10.6199L5.82835 8.04437C5.4651 7.64479 4.95014 7.41699 4.41013 7.41699H1.99996Z" fill="#6557FF"/>
</svg>
