<svg width="108" height="108" viewBox="0 0 108 108" fill="none" xmlns="http://www.w3.org/2000/svg">
<circle opacity="0.1" cx="54" cy="54" r="54" fill="#6557FF"/>
<path d="M38.1674 41.6681C37.9876 41.4443 37.7644 41.2591 37.5113 41.1236C37.2582 40.9881 36.9803 40.9051 36.6943 40.8795C36.4084 40.854 36.1202 40.8865 35.8471 40.975C35.574 41.0635 35.3215 41.2063 35.1049 41.3947L21.9799 52.3322C21.7336 52.5349 21.5353 52.7895 21.3992 53.0779C21.263 53.3663 21.1924 53.6813 21.1924 54.0002C21.1924 54.3191 21.263 54.6341 21.3992 54.9224C21.5353 55.2108 21.7336 55.4655 21.9799 55.6682L35.1049 66.6057C35.3215 66.7941 35.574 66.9368 35.8471 67.0254C36.1202 67.1139 36.4084 67.1463 36.6943 67.1208C36.9803 67.0953 37.2582 67.0123 37.5113 66.8768C37.7644 66.7413 37.9876 66.556 38.1674 66.3322C38.3558 66.1156 38.4986 65.8632 38.5871 65.59C38.6756 65.3169 38.7081 65.0287 38.6826 64.7428C38.657 64.4568 38.574 64.1789 38.4385 63.9258C38.303 63.6727 38.1178 63.4495 37.894 63.2697L26.7924 54.0002L37.894 44.7306C38.1178 44.5508 38.303 44.3277 38.4385 44.0746C38.574 43.8214 38.657 43.5436 38.6826 43.2576C38.7081 42.9716 38.6756 42.6835 38.5871 42.4103C38.4986 42.1372 38.3558 41.8848 38.1674 41.6681V41.6681Z" fill="#6557FF"/>
<path d="M86.0194 52.3324L72.8944 41.3949C72.4458 41.0973 71.9032 40.9756 71.3704 41.053C70.8377 41.1305 70.3522 41.4017 70.0069 41.8147C69.6616 42.2277 69.4807 42.7535 69.4989 43.2916C69.517 43.8296 69.733 44.3421 70.1053 44.7308L81.2069 54.0004L70.1053 63.2699C69.7651 63.5585 69.5213 63.9443 69.4066 64.3754C69.2918 64.8066 69.3117 65.2625 69.4634 65.682C69.6152 66.1016 69.8916 66.4647 70.2556 66.7227C70.6196 66.9807 71.0537 67.1212 71.4999 67.1254C72.0125 67.1277 72.5083 66.943 72.8944 66.6059L86.0194 55.6684C86.2657 55.4657 86.464 55.211 86.6001 54.9226C86.7363 54.6343 86.8069 54.3193 86.8069 54.0004C86.8069 53.6815 86.7363 53.3665 86.6001 53.0781C86.464 52.7897 86.2657 52.5351 86.0194 52.3324V52.3324Z" fill="#6557FF"/>
<path d="M63.4884 27.8864C63.2193 27.7867 62.933 27.7417 62.6463 27.7539C62.3596 27.7661 62.0782 27.8354 61.8186 27.9576C61.5589 28.0798 61.3262 28.2525 61.134 28.4656C60.9419 28.6787 60.7941 28.928 60.6993 29.1989L43.1993 77.3239C43.0997 77.593 43.0547 77.8792 43.0669 78.1659C43.0791 78.4526 43.1484 78.734 43.2705 78.9937C43.3927 79.2534 43.5654 79.4861 43.7786 79.6782C43.9917 79.8704 44.241 80.0182 44.5118 80.1129C44.749 80.1977 44.9983 80.2439 45.2501 80.2496C45.7003 80.2519 46.14 80.1135 46.5077 79.8536C46.8754 79.5938 47.1527 79.2256 47.3009 78.8004L64.8009 30.6754C64.9005 30.4063 64.9456 30.12 64.9333 29.8333C64.9211 29.5466 64.8519 29.2652 64.7297 29.0056C64.6075 28.7459 64.4348 28.5132 64.2217 28.321C64.0086 28.1289 63.7593 27.9811 63.4884 27.8864V27.8864Z" fill="#FFC633"/>
</svg>
