<svg xmlns="http://www.w3.org/2000/svg" width="21" height="21" viewBox="0 0 21 21" fill="none">
    <path d="M16.625 9.625H11.375V4.375C11.375 4.14294 11.2828 3.92038 11.1187 3.75628C10.9546 3.59219 10.7321 3.5 10.5 3.5C10.2679 3.5 10.0454 3.59219 9.88128 3.75628C9.71719 3.92038 9.625 4.14294 9.625 4.375V9.625H4.375C4.14294 9.625 3.92038 9.71719 3.75628 9.88128C3.59219 10.0454 3.5 10.2679 3.5 10.5C3.5 10.7321 3.59219 10.9546 3.75628 11.1187C3.92038 11.2828 4.14294 11.375 4.375 11.375H9.625V16.625C9.625 16.8571 9.71719 17.0796 9.88128 17.2437C10.0454 17.4078 10.2679 17.5 10.5 17.5C10.7321 17.5 10.9546 17.4078 11.1187 17.2437C11.2828 17.0796 11.375 16.8571 11.375 16.625V11.375H16.625C16.8571 11.375 17.0796 11.2828 17.2437 11.1187C17.4078 10.9546 17.5 10.7321 17.5 10.5C17.5 10.2679 17.4078 10.0454 17.2437 9.88128C17.0796 9.71719 16.8571 9.625 16.625 9.625Z" fill="#6D6C7C"/>
</svg>