<svg width="16" height="16" viewBox="0 0 16 16" fill="none" xmlns="http://www.w3.org/2000/svg">
<path d="M1.33325 11.9507C1.33325 11.5458 1.43644 11.1476 1.63309 10.7936L5.75703 3.37054C6.12258 2.71254 6.75863 2.24826 7.49673 2.10064V2.10064C7.8289 2.0342 8.17094 2.0342 8.50311 2.10064V2.10064C9.24121 2.24826 9.87726 2.71254 10.2428 3.37054L14.3668 10.7936C14.5634 11.1476 14.6666 11.5458 14.6666 11.9507V11.9507C14.6666 13.2666 13.5999 14.3333 12.284 14.3333H3.71585C2.39998 14.3333 1.33325 13.2666 1.33325 11.9507V11.9507Z" stroke="#84818A"/>
<path d="M8 5.99984L8 8.6665" stroke="#84818A" stroke-linecap="round" stroke-linejoin="round"/>
<path d="M8 10.6667L8 11" stroke="#84818A" stroke-linecap="round" stroke-linejoin="round"/>
</svg>
