<svg width="16" height="14" viewBox="0 0 16 14" fill="none" xmlns="http://www.w3.org/2000/svg">
<path d="M1.33337 10.9507C1.33337 10.5458 1.43657 10.1476 1.63321 9.79363L5.75715 2.37054C6.1227 1.71254 6.75875 1.24826 7.49685 1.10064V1.10064C7.82902 1.0342 8.17106 1.0342 8.50323 1.10064V1.10064C9.24133 1.24826 9.87738 1.71254 10.2429 2.37054L14.3669 9.79363C14.5635 10.1476 14.6667 10.5458 14.6667 10.9507V10.9507C14.6667 12.2666 13.6 13.3333 12.2841 13.3333H3.71598C2.4001 13.3333 1.33337 12.2666 1.33337 10.9507V10.9507Z" stroke="#FF8C82" stroke-opacity="0.4"/>
<path d="M8.00012 4.99996L8.00012 7.66663" stroke="#FF8C82" stroke-opacity="0.4" stroke-linecap="round" stroke-linejoin="round"/>
<path d="M8.00012 9.66667L8.00012 10" stroke="#FF8C82" stroke-opacity="0.4" stroke-linecap="round" stroke-linejoin="round"/>
</svg>
