<svg width="38" height="34" viewBox="0 0 38 34" fill="none" xmlns="http://www.w3.org/2000/svg">
<circle cx="20.8387" cy="17" r="17" fill="#FFF6E0"/>
<path d="M5.86422 3.83862C5.86422 6.69712 3.23876 9.0144 0 9.0144C3.23876 9.0144 5.86422 11.3317 5.86422 14.1902C5.86422 11.3317 8.48968 9.0144 11.7284 9.0144C8.48968 9.0144 5.86422 6.69712 5.86422 3.83862Z" fill="#FFC13C"/>
<path d="M5.86422 3.83862C5.86422 6.69712 3.23876 9.0144 0 9.0144C3.23876 9.0144 5.86422 11.3317 5.86422 14.1902C5.86422 11.3317 8.48968 9.0144 11.7284 9.0144C8.48968 9.0144 5.86422 6.69712 5.86422 3.83862Z" fill="url(#paint0_linear_4520_12611)" fill-opacity="0.4"/>
<path d="M28.7556 20.8217L22.3537 9.75118C22.2004 9.48493 21.9797 9.26377 21.7137 9.10999C21.4477 8.95621 21.146 8.87524 20.8387 8.87524C20.5315 8.87524 20.2297 8.95621 19.9638 9.10999C19.6978 9.26377 19.4771 9.48493 19.3238 9.75118V9.75118L12.9218 20.8217C12.7663 21.0866 12.6837 21.388 12.6823 21.6952C12.6809 22.0023 12.7608 22.3044 12.9139 22.5707C13.067 22.837 13.2879 23.0581 13.5541 23.2114C13.8203 23.3647 14.1223 23.4449 14.4295 23.4437H27.248C27.5552 23.4449 27.8572 23.3647 28.1234 23.2114C28.3896 23.0581 28.6104 22.837 28.7636 22.5707C28.9167 22.3044 28.9966 22.0023 28.9952 21.6952C28.9938 21.388 28.9112 21.0866 28.7556 20.8217V20.8217ZM20.2561 14.7038C20.2561 14.5493 20.3175 14.4011 20.4267 14.2918C20.536 14.1825 20.6842 14.1211 20.8387 14.1211C20.9933 14.1211 21.1415 14.1825 21.2507 14.2918C21.36 14.4011 21.4214 14.5493 21.4214 14.7038V17.6171C21.4214 17.7716 21.36 17.9198 21.2507 18.0291C21.1415 18.1384 20.9933 18.1998 20.8387 18.1998C20.6842 18.1998 20.536 18.1384 20.4267 18.0291C20.3175 17.9198 20.2561 17.7716 20.2561 17.6171V14.7038ZM20.8387 21.1131C20.6659 21.1131 20.4969 21.0618 20.3532 20.9658C20.2094 20.8697 20.0974 20.7332 20.0313 20.5735C19.9651 20.4138 19.9478 20.2381 19.9815 20.0686C20.0153 19.899 20.0985 19.7433 20.2207 19.6211C20.343 19.4988 20.4987 19.4156 20.6682 19.3819C20.8378 19.3482 21.0135 19.3655 21.1732 19.4316C21.3329 19.4978 21.4694 19.6098 21.5654 19.7535C21.6615 19.8972 21.7127 20.0662 21.7127 20.2391C21.7127 20.4709 21.6206 20.6932 21.4567 20.8571C21.2928 21.021 21.0705 21.1131 20.8387 21.1131Z" fill="#FFC633"/>
<defs>
<linearGradient id="paint0_linear_4520_12611" x1="3.70058" y1="6.61748" x2="9.84296" y2="13.6015" gradientUnits="userSpaceOnUse">
<stop stop-color="white" stop-opacity="0"/>
<stop offset="1" stop-color="white"/>
</linearGradient>
</defs>
</svg>
