<svg width="16" height="16" viewBox="0 0 16 16" fill="none" xmlns="http://www.w3.org/2000/svg">
<path d="M8.5 10.6134H8.93333C9.36667 10.6134 9.72667 10.2267 9.72667 9.76005C9.72667 9.18005 9.52 9.06671 9.18 8.94671L8.50667 8.71338V10.6134H8.5Z" fill="#737373"/>
<path d="M7.98002 1.26661C4.30002 1.27995 1.32002 4.27328 1.33336 7.95328C1.34669 11.6333 4.34002 14.6133 8.02002 14.5999C11.7 14.5866 14.68 11.5933 14.6667 7.91328C14.6534 4.23328 11.66 1.25995 7.98002 1.26661ZM9.50669 7.99995C10.0267 8.17995 10.7267 8.56661 10.7267 9.75995C10.7267 10.7866 9.92002 11.6133 8.93336 11.6133H8.50002V11.9999C8.50002 12.2733 8.27336 12.4999 8.00002 12.4999C7.72669 12.4999 7.50002 12.2733 7.50002 11.9999V11.6133H7.26002C6.16669 11.6133 5.28002 10.6933 5.28002 9.55995C5.28002 9.28661 5.50669 9.05995 5.78002 9.05995C6.05336 9.05995 6.28002 9.28661 6.28002 9.55995C6.28002 10.1399 6.72002 10.6133 7.26002 10.6133H7.50002V8.35995L6.49336 7.99995C5.97336 7.81995 5.27336 7.43328 5.27336 6.23995C5.27336 5.21328 6.08002 4.38661 7.06669 4.38661H7.50002V3.99995C7.50002 3.72661 7.72669 3.49995 8.00002 3.49995C8.27336 3.49995 8.50002 3.72661 8.50002 3.99995V4.38661H8.74002C9.83336 4.38661 10.72 5.30661 10.72 6.43995C10.72 6.71328 10.4934 6.93995 10.22 6.93995C9.94669 6.93995 9.72002 6.71328 9.72002 6.43995C9.72002 5.85995 9.28002 5.38661 8.74002 5.38661H8.50002V7.63995L9.50669 7.99995Z" fill="#737373"/>
<path d="M6.28003 6.24672C6.28003 6.82672 6.4867 6.94005 6.8267 7.06005L7.50003 7.29339V5.38672H7.0667C6.63336 5.38672 6.28003 5.77339 6.28003 6.24672Z" fill="#737373"/>
</svg>
