<svg xmlns="http://www.w3.org/2000/svg" width="6" height="6" viewBox="0 0 6 6" fill="none">
    <g clip-path="url(#clip0_7636_20274)">
        <path fill-rule="evenodd" clip-rule="evenodd" d="M3.51936 0.351709C3.52424 0.352696 3.52909 0.353679 3.53391 0.354654C4.76275 0.60298 5.6875 1.69054 5.6875 2.99448C5.6875 4.48127 4.48479 5.6875 3 5.6875C1.51522 5.6875 0.3125 4.48127 0.3125 2.99448C0.3125 2.24137 0.621332 1.56001 1.11854 1.07148C1.21479 0.976916 1.36948 0.978279 1.46405 1.07453C1.55862 1.17078 1.55725 1.32547 1.461 1.42003C1.05357 1.82035 0.801137 2.37759 0.801137 2.99448C0.801137 4.21245 1.78612 5.19886 3 5.19886C4.21388 5.19886 5.19887 4.21245 5.19887 2.99448C5.19887 1.9269 4.44176 1.03663 3.43712 0.833609C3.38484 0.823044 3.3447 0.814962 3.31006 0.809212C3.28395 0.804876 3.26535 0.802645 3.25181 0.801701C3.24504 0.846025 3.24432 0.911469 3.24432 1.03552V1.28039C3.24432 1.41532 3.13493 1.52471 3 1.52471C2.86507 1.52471 2.75568 1.41532 2.75568 1.28039V1.03552C2.75568 1.0305 2.75568 1.02546 2.75568 1.02043C2.75565 0.914874 2.75561 0.808265 2.77007 0.71971C2.78728 0.614311 2.82925 0.503247 2.93462 0.416807C3.03387 0.335382 3.14246 0.310664 3.24899 0.312604C3.334 0.314153 3.43013 0.333629 3.51936 0.351709Z" fill="#FFC633"/>
        <path d="M1.88163 1.6046C1.94975 1.54913 2.04726 1.5484 2.11621 1.60285L3.47112 2.67275C3.75839 2.89959 3.75988 3.33277 3.47413 3.56155C3.19007 3.78897 2.76593 3.69812 2.60259 3.37196L1.83236 1.83396C1.79302 1.75541 1.8135 1.66007 1.88163 1.6046Z" fill="#FFC633"/>
    </g>
    <defs>
        <clipPath id="clip0_7636_20274">
            <rect width="6" height="6" fill="white"/>
        </clipPath>
    </defs>
</svg>
