<svg width="38" height="38" viewBox="0 0 38 38" fill="none" xmlns="http://www.w3.org/2000/svg">
<path d="M34.623 31.2462C33.1373 31.2462 31.8734 32.2111 31.423 33.5469H22.2372C21.9008 32.5494 21.1108 31.7594 20.1133 31.423V29.0196H32.3594C32.9742 29.0196 33.4727 28.5211 33.4727 27.9063V20.8308H4.52734V27.9063C4.52734 28.5211 5.0258 29.0196 5.64062 29.0196H17.8867V31.4482C16.9241 31.798 16.1651 32.5741 15.837 33.5469H6.57704C6.12661 32.2111 4.86274 31.2462 3.37695 31.2462C1.51488 31.2462 0 32.761 0 34.6231C0 36.4852 1.51488 38.0001 3.37695 38.0001C4.8352 38.0001 6.08037 37.0708 6.55188 35.7735H15.8622C16.9392 38.7369 21.1362 38.7335 22.212 35.7735H31.4481C31.9196 37.0708 33.1648 38.0001 34.623 38.0001C36.4851 38.0001 38 36.4852 38 34.6231C38 32.761 36.4851 31.2462 34.623 31.2462ZM10.0938 26.0384C9.47892 26.0384 8.98047 25.54 8.98047 24.9252C8.98047 24.3103 9.47892 23.8119 10.0938 23.8119C10.7086 23.8119 11.207 24.3103 11.207 24.9252C11.207 25.54 10.7086 26.0384 10.0938 26.0384ZM13.4336 24.9252C13.4336 24.3103 13.932 23.8119 14.5469 23.8119H27.9062C28.5211 23.8119 29.0195 24.3103 29.0195 24.9252C29.0195 25.54 28.5211 26.0384 27.9062 26.0384H14.5469C13.932 26.0384 13.4336 25.54 13.4336 24.9252Z" fill="#FFC633"/>
<path d="M33.4727 1.11328C33.4727 0.498453 32.9742 0 32.3594 0H5.64062C5.0258 0 4.52734 0.498453 4.52734 1.11328V8.18878H33.4727V1.11328ZM10.0938 5.20771C9.47892 5.20771 8.98047 4.70925 8.98047 4.09443C8.98047 3.4796 9.47892 2.98114 10.0938 2.98114C10.7086 2.98114 11.207 3.4796 11.207 4.09443C11.207 4.70925 10.7086 5.20771 10.0938 5.20771ZM27.9062 5.20771H14.5469C13.932 5.20771 13.4336 4.70925 13.4336 4.09443C13.4336 3.4796 13.932 2.98114 14.5469 2.98114H27.9062C28.5211 2.98114 29.0195 3.4796 29.0195 4.09443C29.0195 4.70925 28.5211 5.20771 27.9062 5.20771Z" fill="#6557FF"/>
<path d="M33.4727 10.4153H4.52734V18.6041H33.4727V10.4153ZM10.0938 15.6601C9.47892 15.6601 8.98047 15.1616 8.98047 14.5468C8.98047 13.932 9.47892 13.4335 10.0938 13.4335C10.7086 13.4335 11.207 13.932 11.207 14.5468C11.207 15.1616 10.7086 15.6601 10.0938 15.6601ZM27.9062 15.6601H14.5469C13.932 15.6601 13.4336 15.1616 13.4336 14.5468C13.4336 13.932 13.932 13.4335 14.5469 13.4335H27.9062C28.5211 13.4335 29.0195 13.932 29.0195 14.5468C29.0195 15.1616 28.5211 15.6601 27.9062 15.6601Z" fill="#6557FF"/>
</svg>
