<svg width="15" height="15" viewBox="0 0 15 15" fill="none" xmlns="http://www.w3.org/2000/svg">
<g id="vuesax/bold/code-circle">
<g id="vuesax/bold/code-circle_2">
<g id="code-circle">
<path id="Vector" d="M7.5 1.25C4.05 1.25 1.25 4.05 1.25 7.5C1.25 10.95 4.05 13.75 7.5 13.75C10.95 13.75 13.75 10.95 13.75 7.5C13.75 4.05 10.95 1.25 7.5 1.25ZM5.33125 8.41875C5.5125 8.6 5.5125 8.9 5.33125 9.08125C5.2375 9.175 5.11875 9.21875 5 9.21875C4.88125 9.21875 4.7625 9.175 4.66875 9.08125L3.41875 7.83125C3.2375 7.65 3.2375 7.35 3.41875 7.16875L4.66875 5.91875C4.85 5.7375 5.15 5.7375 5.33125 5.91875C5.5125 6.1 5.5125 6.4 5.33125 6.58125L4.4125 7.5L5.33125 8.41875ZM8.55625 6.225L7.30625 9.14375C7.23125 9.31875 7.05625 9.425 6.875 9.425C6.8125 9.425 6.75 9.4125 6.69375 9.3875C6.45625 9.2875 6.34375 9.0125 6.45 8.76875L7.7 5.85C7.8 5.6125 8.075 5.5 8.3125 5.60625C8.55 5.7125 8.65625 5.9875 8.55625 6.225ZM11.5813 7.83125L10.3313 9.08125C10.2375 9.175 10.1187 9.21875 10 9.21875C9.88125 9.21875 9.7625 9.175 9.66875 9.08125C9.4875 8.9 9.4875 8.6 9.66875 8.41875L10.5875 7.5L9.66875 6.58125C9.4875 6.4 9.4875 6.1 9.66875 5.91875C9.85 5.7375 10.15 5.7375 10.3313 5.91875L11.5813 7.16875C11.7625 7.35 11.7625 7.65 11.5813 7.83125Z" fill="#6557FF"/>
</g>
</g>
</g>
</svg>
