<svg width="24" height="24" viewBox="0 0 24 24" fill="none" xmlns="http://www.w3.org/2000/svg">
<circle cx="12" cy="12" r="12" fill="#6557FF"/>
<path d="M18.0467 7.48634C16.9733 7.37967 15.9 7.29967 14.82 7.23967V7.23301L14.6733 6.36634C14.5733 5.75301 14.4267 4.83301 12.8667 4.83301H11.12C9.56667 4.83301 9.42 5.71301 9.31334 6.35967L9.17334 7.21301C8.55334 7.25301 7.93334 7.29301 7.31334 7.35301L5.95334 7.48634C5.67334 7.51301 5.47334 7.75967 5.5 8.03301C5.52667 8.30634 5.76667 8.50634 6.04667 8.47967L7.40667 8.34634C10.9 7.99967 14.42 8.13301 17.9533 8.48634C17.9733 8.48634 17.9867 8.48634 18.0067 8.48634C18.26 8.48634 18.48 8.29301 18.5067 8.03301C18.5267 7.75967 18.3267 7.51301 18.0467 7.48634Z" fill="white"/>
<path d="M16.82 9.42699C16.66 9.26033 16.44 9.16699 16.2133 9.16699H7.78667C7.56001 9.16699 7.33334 9.26033 7.18001 9.42699C7.02667 9.59366 6.94001 9.82033 6.95334 10.0537L7.36667 16.8937C7.44001 17.907 7.53334 19.1737 9.86001 19.1737H14.14C16.4667 19.1737 16.56 17.9137 16.6333 16.8937L17.0467 10.0603C17.06 9.82033 16.9733 9.59366 16.82 9.42699ZM13.1067 15.8337H10.8867C10.6133 15.8337 10.3867 15.607 10.3867 15.3337C10.3867 15.0603 10.6133 14.8337 10.8867 14.8337H13.1067C13.38 14.8337 13.6067 15.0603 13.6067 15.3337C13.6067 15.607 13.38 15.8337 13.1067 15.8337ZM13.6667 13.167H10.3333C10.06 13.167 9.83334 12.9403 9.83334 12.667C9.83334 12.3937 10.06 12.167 10.3333 12.167H13.6667C13.94 12.167 14.1667 12.3937 14.1667 12.667C14.1667 12.9403 13.94 13.167 13.6667 13.167Z" fill="white"/>
</svg>
