<svg width="100" height="77" viewBox="0 0 100 77" fill="none" xmlns="http://www.w3.org/2000/svg">
<rect x="30.2327" width="39.5343" height="77" rx="1.14925" fill="#FFC633"/>
<mask id="path-2-inside-1_3140_12733" fill="white">
<rect x="74.709" y="9.625" width="24.709" height="57.75" rx="1.14925"/>
</mask>
<rect x="74.709" y="9.625" width="24.709" height="57.75" rx="1.14925" fill="#6557FF" stroke="#6557FF" stroke-width="4.59701" mask="url(#path-2-inside-1_3140_12733)"/>
<mask id="path-3-inside-2_3140_12733" fill="white">
<rect x="0.582031" y="9.625" width="24.709" height="57.75" rx="1.14925"/>
</mask>
<rect x="0.582031" y="9.625" width="24.709" height="57.75" rx="1.14925" fill="#6557FF" stroke="#6557FF" stroke-width="4.59701" mask="url(#path-3-inside-2_3140_12733)"/>
<g filter="url(#filter0_d_3140_12733)">
<circle cx="28.1638" cy="39.0747" r="10.3433" fill="white"/>
</g>
<path d="M25.3383 36.1138C25.188 35.9592 24.9825 35.8707 24.767 35.8678C24.5515 35.8648 24.3436 35.9475 24.189 36.0978C24.0345 36.2481 23.946 36.4536 23.943 36.6691C23.9401 36.8846 24.0228 37.0925 24.1731 37.247L26.0406 39.0747L24.1731 40.9023C24.0983 40.9765 24.0389 41.0648 23.9984 41.162C23.9579 41.2593 23.937 41.3636 23.937 41.469C23.937 41.5743 23.9579 41.6786 23.9984 41.7759C24.0389 41.8731 24.0983 41.9614 24.1731 42.0356C24.2473 42.1104 24.3355 42.1698 24.4328 42.2103C24.5301 42.2508 24.6344 42.2717 24.7397 42.2717C24.8451 42.2717 24.9494 42.2508 25.0467 42.2103C25.1439 42.1698 25.2322 42.1104 25.3064 42.0356L27.7007 39.6413C27.7755 39.5671 27.8348 39.4789 27.8754 39.3816C27.9159 39.2844 27.9367 39.18 27.9367 39.0747C27.9367 38.9693 27.9159 38.865 27.8754 38.7678C27.8348 38.6705 27.7755 38.5822 27.7007 38.508L25.3383 36.1138ZM32.1221 38.508L29.7278 36.1138C29.5775 35.9635 29.3737 35.879 29.1612 35.879C28.9486 35.879 28.7448 35.9635 28.5945 36.1138C28.4442 36.264 28.3598 36.4679 28.3598 36.6804C28.3598 36.8929 28.4442 37.0968 28.5945 37.247L30.4301 39.0747L28.5945 40.9023C28.5197 40.9765 28.4603 41.0648 28.4198 41.162C28.3793 41.2593 28.3584 41.3636 28.3584 41.469C28.3584 41.5743 28.3793 41.6786 28.4198 41.7759C28.4603 41.8731 28.5197 41.9614 28.5945 42.0356C28.6687 42.1104 28.757 42.1698 28.8542 42.2103C28.9515 42.2508 29.0558 42.2717 29.1612 42.2717C29.2665 42.2717 29.3708 42.2508 29.4681 42.2103C29.5653 42.1698 29.6536 42.1104 29.7278 42.0356L32.1221 39.6413C32.199 39.5693 32.2609 39.4827 32.3042 39.3866C32.3475 39.2904 32.3713 39.1867 32.3743 39.0813C32.3772 38.976 32.3593 38.871 32.3215 38.7726C32.2837 38.6742 32.2268 38.5843 32.154 38.508H32.1221Z" fill="black"/>
<g filter="url(#filter1_d_3140_12733)">
<circle cx="71.8362" cy="39.0747" r="10.3433" fill="white"/>
</g>
<path d="M69.0104 36.1138C68.8601 35.9592 68.6546 35.8707 68.4391 35.8678C68.2236 35.8648 68.0157 35.9475 67.8612 36.0978C67.7067 36.2481 67.6182 36.4536 67.6152 36.6691C67.6122 36.8846 67.6949 37.0925 67.8452 37.247L69.7127 39.0747L67.8452 40.9023C67.7704 40.9765 67.711 41.0648 67.6705 41.162C67.63 41.2593 67.6091 41.3636 67.6091 41.469C67.6091 41.5743 67.63 41.6786 67.6705 41.7759C67.711 41.8731 67.7704 41.9614 67.8452 42.0356C67.9194 42.1104 68.0077 42.1698 68.1049 42.2103C68.2022 42.2508 68.3065 42.2717 68.4119 42.2717C68.5172 42.2717 68.6215 42.2508 68.7188 42.2103C68.816 42.1698 68.9043 42.1104 68.9785 42.0356L71.3728 39.6413C71.4476 39.5671 71.507 39.4789 71.5475 39.3816C71.588 39.2844 71.6089 39.18 71.6089 39.0747C71.6089 38.9693 71.588 38.865 71.5475 38.7678C71.507 38.6705 71.4476 38.5822 71.3728 38.508L69.0104 36.1138ZM75.7942 38.508L73.3999 36.1138C73.2496 35.9635 73.0458 35.879 72.8333 35.879C72.6208 35.879 72.4169 35.9635 72.2666 36.1138C72.1164 36.264 72.0319 36.4679 72.0319 36.6804C72.0319 36.8929 72.1164 37.0968 72.2666 37.247L74.1023 39.0747L72.2666 40.9023C72.1918 40.9765 72.1325 41.0648 72.0919 41.162C72.0514 41.2593 72.0306 41.3636 72.0306 41.469C72.0306 41.5743 72.0514 41.6786 72.0919 41.7759C72.1325 41.8731 72.1918 41.9614 72.2666 42.0356C72.3408 42.1104 72.4291 42.1698 72.5264 42.2103C72.6236 42.2508 72.7279 42.2717 72.8333 42.2717C72.9386 42.2717 73.043 42.2508 73.1402 42.2103C73.2375 42.1698 73.3257 42.1104 73.3999 42.0356L75.7942 39.6413C75.8711 39.5693 75.933 39.4827 75.9763 39.3866C76.0196 39.2904 76.0434 39.1867 76.0464 39.0813C76.0493 38.976 76.0314 38.871 75.9936 38.7726C75.9558 38.6742 75.8989 38.5843 75.8261 38.508H75.7942Z" fill="black"/>
<defs>
<filter id="filter0_d_3140_12733" x="14.3728" y="26.4329" width="27.582" height="27.582" filterUnits="userSpaceOnUse" color-interpolation-filters="sRGB">
<feFlood flood-opacity="0" result="BackgroundImageFix"/>
<feColorMatrix in="SourceAlpha" type="matrix" values="0 0 0 0 0 0 0 0 0 0 0 0 0 0 0 0 0 0 127 0" result="hardAlpha"/>
<feOffset dy="1.14925"/>
<feGaussianBlur stdDeviation="1.72388"/>
<feColorMatrix type="matrix" values="0 0 0 0 0 0 0 0 0 0 0 0 0 0 0 0 0 0 0.12 0"/>
<feBlend mode="normal" in2="BackgroundImageFix" result="effect1_dropShadow_3140_12733"/>
<feBlend mode="normal" in="SourceGraphic" in2="effect1_dropShadow_3140_12733" result="shape"/>
</filter>
<filter id="filter1_d_3140_12733" x="58.0452" y="26.4329" width="27.582" height="27.582" filterUnits="userSpaceOnUse" color-interpolation-filters="sRGB">
<feFlood flood-opacity="0" result="BackgroundImageFix"/>
<feColorMatrix in="SourceAlpha" type="matrix" values="0 0 0 0 0 0 0 0 0 0 0 0 0 0 0 0 0 0 127 0" result="hardAlpha"/>
<feOffset dy="1.14925"/>
<feGaussianBlur stdDeviation="1.72388"/>
<feColorMatrix type="matrix" values="0 0 0 0 0 0 0 0 0 0 0 0 0 0 0 0 0 0 0.12 0"/>
<feBlend mode="normal" in2="BackgroundImageFix" result="effect1_dropShadow_3140_12733"/>
<feBlend mode="normal" in="SourceGraphic" in2="effect1_dropShadow_3140_12733" result="shape"/>
</filter>
</defs>
</svg>
