<svg width="26" height="26" viewBox="0 0 26 26" fill="none" xmlns="http://www.w3.org/2000/svg">
<path d="M23.8337 17.4332V13.4814C23.8337 12.7243 23.8337 12.3458 23.7826 12.0292C23.5078 10.3269 22.1732 8.99233 20.471 8.7176C20.1544 8.6665 19.7758 8.6665 19.0187 8.6665C18.9241 8.6665 18.8768 8.6665 18.8372 8.67289C18.6244 8.70723 18.4576 8.87406 18.4232 9.08684C18.4169 9.12642 18.4169 9.17373 18.4169 9.26837V10.5633C18.4169 13.3171 18.4169 14.694 17.8844 15.7534C17.416 16.6856 16.6677 17.4478 15.7444 17.9335C14.695 18.4854 13.3183 18.5109 10.565 18.5619L9.23918 18.5865C9.16339 18.5879 9.12549 18.5886 9.0936 18.5933C8.87238 18.6261 8.69986 18.8019 8.67113 19.0237C8.66699 19.0556 8.66699 19.0935 8.66699 19.1693C8.66699 19.7859 8.66699 20.0942 8.70092 20.3531C8.93645 22.1498 10.3504 23.5637 12.1471 23.7992C12.4059 23.8332 12.7142 23.8332 13.3308 23.8332H17.4337C19.6739 23.8332 20.794 23.8332 21.6496 23.3972C22.4023 23.0137 23.0142 22.4018 23.3977 21.6491C23.8337 20.7935 23.8337 19.6734 23.8337 17.4332Z" fill="#FFC633"/>
<rect x="2.16699" y="2.1665" width="15.1667" height="15.1667" rx="4" fill="#6557FF"/>
</svg>
