<svg width="20" height="20" viewBox="0 0 20 20" fill="none" xmlns="http://www.w3.org/2000/svg">
<circle cx="10" cy="10" r="10" fill="#F8D6D3"/>
<g clip-path="url(#clip0_9455_10974)">
<mask id="mask0_9455_10974" style="mask-type:luminance" maskUnits="userSpaceOnUse" x="3" y="5" width="13" height="10">
<path d="M15.4075 5.0011H3.78687V14.9598H15.4075V5.0011Z" fill="white"/>
</mask>
<g mask="url(#mask0_9455_10974)">
<path d="M14.9501 12.6786C14.3311 13.0024 11.1184 14.3238 10.4263 14.6865C9.73424 15.0492 9.36361 15.0389 8.82234 14.7802C8.28107 14.5214 4.87392 13.1357 4.25646 12.8405C3.94535 12.6944 3.78662 12.5698 3.78662 12.4532V11.2778C3.78662 11.2778 8.23741 10.3119 8.95567 10.0516C9.67392 9.79127 9.92234 9.78492 10.5327 10.0087C11.143 10.2325 14.8017 10.8929 15.4057 11.1119V12.2706C15.4057 12.3913 15.2668 12.5087 14.9501 12.6778V12.6786Z" fill="#A32422"/>
<path d="M14.9499 11.5087C14.3309 11.831 11.1182 13.1524 10.4261 13.5087C9.73406 13.8651 9.36342 13.8619 8.82215 13.604C8.28088 13.346 4.87374 11.9603 4.25628 11.6675C3.63882 11.3746 3.62691 11.1699 4.23247 10.9333C4.83802 10.6968 8.23723 9.36588 8.95548 9.10398C9.67374 8.84207 9.92215 8.83652 10.5325 9.06112C11.1428 9.28573 14.342 10.5564 14.9428 10.7778C15.5436 10.9992 15.5714 11.181 14.9499 11.5024V11.5087Z" fill="#DC382C"/>
<path d="M14.9501 10.7643C14.3311 11.0873 11.1184 12.4079 10.4263 12.7643C9.73424 13.1206 9.36678 13.1175 8.82551 12.8579C8.28424 12.5984 4.87392 11.2206 4.25646 10.9262C3.94535 10.7786 3.78662 10.6548 3.78662 10.5373V9.36588C3.78662 9.36588 8.23741 8.39684 8.95567 8.13652C9.67392 7.8762 9.92234 7.86906 10.5327 8.09604C11.143 8.32303 14.8017 8.97699 15.4057 9.19763V10.3564C15.4057 10.477 15.2668 10.5976 14.9501 10.7643Z" fill="#A32422"/>
<path d="M14.9501 9.58881C14.3311 9.91262 11.1184 11.2333 10.4263 11.5896C9.73424 11.946 9.36361 11.9436 8.82234 11.6848C8.28107 11.4261 4.87392 10.046 4.25646 9.75071C3.639 9.45548 3.62789 9.25468 4.23265 9.01817C4.83742 8.78167 8.23742 7.44754 8.95567 7.19278C9.67392 6.93802 9.92234 6.92214 10.5327 7.14357C11.143 7.365 14.3422 8.64675 14.943 8.86183C15.5438 9.07691 15.5715 9.26579 14.9501 9.58643V9.58881Z" fill="#DC382C"/>
<path d="M14.9501 8.77772C14.3311 9.10153 11.1184 10.423 10.4263 10.7785C9.73424 11.1341 9.36678 11.1317 8.82551 10.8738C8.28424 10.6158 4.87392 9.23407 4.25646 8.93962C3.94535 8.79359 3.78662 8.66899 3.78662 8.55153V7.37613C3.78662 7.37613 8.23741 6.41026 8.95567 6.15074C9.67392 5.89121 9.92234 5.88328 10.5327 6.10708C11.143 6.33089 14.8001 6.99121 15.4041 7.21185V8.37058C15.4057 8.4928 15.2668 8.61185 14.9501 8.77772Z" fill="#A32422"/>
<path d="M14.9499 7.60386C14.3309 7.92132 11.1182 9.25068 10.4261 9.60386C9.73406 9.95703 9.36342 9.95624 8.82215 9.6991C8.28088 9.44195 4.87374 8.05862 4.25628 7.76497C3.63882 7.47132 3.62691 7.26735 4.23247 7.03084C4.83802 6.79434 8.23723 5.461 8.95548 5.20227C9.67374 4.94354 9.92215 4.93561 10.5325 5.15942C11.1428 5.38322 14.342 6.65545 14.9428 6.87608C15.5436 7.09672 15.5714 7.28005 14.9499 7.60148V7.60386Z" fill="#DC382C"/>
</g>
<path d="M9.77867 5.93489L10.5453 5.6833L10.3374 6.18013L11.1176 6.47219L10.112 6.57696L9.88581 7.11981L9.52232 6.51426L8.35962 6.4095L9.22787 6.0968L8.96676 5.61584L9.77867 5.93489Z" fill="white"/>
<path d="M9.82712 9.10393L7.94775 8.32377L10.6398 7.91028L9.82712 9.10393Z" fill="white"/>
<path d="M7.22166 6.7738C8.01532 6.7738 8.66055 7.0238 8.66055 7.32936C8.66055 7.63491 8.01373 7.88491 7.22166 7.88491C6.4296 7.88491 5.78198 7.63491 5.78198 7.32936C5.78198 7.0238 6.42722 6.7738 7.22166 6.7738Z" fill="white"/>
<path d="M12.3091 6.62061L13.9019 7.24997L12.3107 7.87934L12.3091 6.62061Z" fill="#741113"/>
<path d="M12.3089 6.62061L12.3105 7.87934L12.1375 7.9468L10.5454 7.31743L12.3089 6.62061Z" fill="#AC2724"/>
</g>
<defs>
<clipPath id="clip0_9455_10974">
<rect width="12.1429" height="10" fill="white" transform="translate(3.78564 5)"/>
</clipPath>
</defs>
</svg>
