<svg width="16" height="16" viewBox="0 0 16 16" fill="none" xmlns="http://www.w3.org/2000/svg">
<path d="M5 8C5 7.0111 5.29324 6.0444 5.84265 5.22215C6.39206 4.39991 7.17295 3.75904 8.08658 3.3806C9.00021 3.00217 10.0055 2.90315 10.9755 3.09608C11.9454 3.289 12.8363 3.76521 13.5355 4.46447C14.2348 5.16373 14.711 6.05465 14.9039 7.02455C15.0969 7.99446 14.9978 8.99979 14.6194 9.91342C14.241 10.827 13.6001 11.6079 12.7779 12.1573C11.9556 12.7068 10.9889 13 10 13H4.5C3.57174 13 2.6815 12.6313 2.02513 11.9749C1.36875 11.3185 1 10.4283 1 9.5C1 8.57174 1.36875 7.68151 2.02513 7.02513C2.6815 6.36875 3.57174 6 4.5 6C4.79283 5.99989 5.08458 6.03557 5.36875 6.10625" stroke="#FFA043" stroke-opacity="0.4" stroke-linecap="round" stroke-linejoin="round"/>
<path d="M12 7.25L9 10.25L7.5 8.75" stroke="#FFA043" stroke-opacity="0.4" stroke-linecap="round" stroke-linejoin="round"/>
</svg>
