<svg width="50" height="50" viewBox="0 0 50 50" fill="none" xmlns="http://www.w3.org/2000/svg">
<circle cx="25" cy="25" r="25" fill="#6557FF" fill-opacity="0.1"/>
<path d="M24.8746 13.6738L13.8188 24.8972L25.3781 36.2882L36.2666 24.8972L24.8746 13.6738Z" fill="#6557FF"/>
<path d="M25.8227 26.7959V23.2038C26.3714 23.0098 26.8338 22.628 27.1283 22.1261C27.4228 21.6241 27.5303 21.0342 27.4319 20.4606C27.3335 19.887 27.0355 19.3666 26.5905 18.9915C26.1455 18.6164 25.5823 18.4106 25.0003 18.4106C24.4183 18.4106 23.8551 18.6164 23.4101 18.9915C22.9652 19.3666 22.6672 19.887 22.5687 20.4606C22.4703 21.0342 22.5779 21.6241 22.8723 22.1261C23.1668 22.628 23.6292 23.0098 24.1779 23.2038V26.7967C23.6292 26.9907 23.1668 27.3724 22.8723 27.8744C22.5779 28.3764 22.4703 28.9663 22.5687 29.5399C22.6672 30.1135 22.9652 30.6338 23.4101 31.0089C23.8551 31.3841 24.4183 31.5898 25.0003 31.5898C25.5823 31.5898 26.1455 31.3841 26.5905 31.0089C27.0355 30.6338 27.3335 30.1135 27.4319 29.5399C27.5303 28.9663 27.4228 28.3764 27.1283 27.8744C26.8338 27.3724 26.3714 26.9899 25.8227 26.7959ZM25.0003 20.0656C25.163 20.0656 25.322 20.1138 25.4572 20.2042C25.5924 20.2946 25.6978 20.423 25.7601 20.5733C25.8223 20.7235 25.8386 20.8889 25.8069 21.0484C25.7751 21.2079 25.6968 21.3545 25.5818 21.4695C25.4668 21.5845 25.3203 21.6628 25.1608 21.6945C25.0012 21.7263 24.8359 21.71 24.6856 21.6477C24.5353 21.5855 24.4069 21.4801 24.3165 21.3449C24.2262 21.2096 24.1779 21.0506 24.1779 20.888C24.1779 20.6699 24.2646 20.4607 24.4188 20.3065C24.573 20.1522 24.7822 20.0656 25.0003 20.0656ZM25.0003 29.934C24.8377 29.934 24.6787 29.8858 24.5434 29.7954C24.4082 29.7051 24.3028 29.5766 24.2405 29.4264C24.1783 29.2761 24.162 29.1107 24.1937 28.9512C24.2255 28.7917 24.3038 28.6452 24.4188 28.5301C24.5338 28.4151 24.6804 28.3368 24.8399 28.3051C24.9994 28.2734 25.1648 28.2896 25.315 28.3519C25.4653 28.4141 25.5937 28.5195 25.6841 28.6548C25.7745 28.79 25.8227 28.949 25.8227 29.1117C25.8227 29.3298 25.736 29.5389 25.5818 29.6932C25.4276 29.8474 25.2184 29.934 25.0003 29.934Z" fill="#FFC633"/>
<path d="M36.8547 26.1629C37.163 25.8545 37.3362 25.4362 37.3362 25.0001C37.3362 24.5639 37.163 24.1457 36.8547 23.8372L32.0956 19.0782L34.4805 16.7246C34.8322 16.8121 35.2031 16.7812 35.5354 16.6364C35.8678 16.4917 36.1431 16.2414 36.3187 15.9242C36.4942 15.607 36.5602 15.2408 36.5063 14.8823C36.4524 14.5238 36.2818 14.1931 36.0208 13.9416C35.7598 13.69 35.423 13.5316 35.0628 13.4909C34.7026 13.4503 34.339 13.5297 34.0285 13.7168C33.718 13.9038 33.478 14.1882 33.3456 14.5256C33.2131 14.8631 33.1958 15.2348 33.2963 15.5831L30.9328 17.9154L26.1639 13.1456C25.8554 12.8373 25.4372 12.6641 25.001 12.6641C24.5649 12.6641 24.1466 12.8373 23.8382 13.1456L19.0792 17.9063L16.7255 15.5198C16.8127 15.1679 16.7812 14.7972 16.6361 14.465C16.491 14.1329 16.2403 13.8579 15.923 13.6827C15.6056 13.5076 15.2394 13.442 14.881 13.4963C14.5226 13.5505 14.1921 13.7216 13.9408 13.9828C13.6896 14.244 13.5315 14.5809 13.4912 14.9411C13.4509 15.3014 13.5307 15.6648 13.718 15.9751C13.9054 16.2854 14.1899 16.5252 14.5275 16.6573C14.865 16.7894 15.2367 16.8064 15.5849 16.7057L17.9163 19.0683L13.1466 23.8372C12.8383 24.1457 12.665 24.5639 12.665 25.0001C12.665 25.4362 12.8383 25.8545 13.1466 26.1629L17.9163 30.9318L15.5849 33.2945C15.2375 33.1944 14.8667 33.2117 14.5301 33.3438C14.1935 33.4758 13.9098 33.7152 13.7231 34.0249C13.5364 34.3345 13.457 34.6971 13.4973 35.0565C13.5376 35.4158 13.6953 35.7518 13.9459 36.0124C14.1966 36.273 14.5262 36.4437 14.8837 36.4979C15.2412 36.5521 15.6066 36.4869 15.9233 36.3124C16.24 36.1378 16.4902 35.8637 16.6353 35.5325C16.7803 35.2012 16.812 34.8314 16.7255 34.4803L19.0792 32.0955L23.8382 36.8537C24.1466 37.162 24.5649 37.3352 25.001 37.3352C25.4372 37.3352 25.8554 37.162 26.1639 36.8537L30.9336 32.0848L33.2954 34.417C33.1954 34.7645 33.2127 35.1352 33.3448 35.4718C33.4768 35.8085 33.7162 36.0921 34.0259 36.2788C34.3355 36.4655 34.6981 36.5449 35.0574 36.5046C35.4168 36.4643 35.7528 36.3066 36.0134 36.056C36.274 35.8053 36.4446 35.4757 36.4989 35.1182C36.5531 34.7607 36.4879 34.3953 36.3133 34.0786C36.1388 33.7619 35.8647 33.5117 35.5334 33.3667C35.2022 33.2216 34.8324 33.1899 34.4813 33.2764L32.0964 30.9219L36.8547 26.1629ZM25.001 35.6908L14.3102 25.0001L25.001 14.3093L35.6918 25.0001L25.001 35.6908Z" fill="#6557FF"/>
</svg>
