<svg width="16" height="16" viewBox="0 0 16 16" fill="none" xmlns="http://www.w3.org/2000/svg">
<path fill-rule="evenodd" clip-rule="evenodd" d="M6.9741 5.33617C6.9887 5.14648 7.14687 5 7.33713 5C7.52418 5 7.6808 5.14174 7.69942 5.32787L7.99996 8.33333L10.1555 9.56508C10.2655 9.6279 10.3333 9.7448 10.3333 9.87141C10.3333 10.104 10.1121 10.273 9.88765 10.2118L7.06529 9.44206C6.83391 9.37896 6.67993 9.16045 6.69832 8.92133L6.9741 5.33617Z" fill="black"/>
<path opacity="0.3" fill-rule="evenodd" clip-rule="evenodd" d="M4.34703 1.19943C4.08292 0.884682 3.57298 1.00515 3.47765 1.40481L2.85411 4.01894C2.77643 4.34459 3.0345 4.65309 3.36875 4.63415L6.05794 4.48176C6.46884 4.45848 6.67722 3.97645 6.41267 3.66117L5.83256 2.96982C6.41499 2.7708 7.03259 2.66685 7.66675 2.66685C10.7964 2.66685 13.3334 5.2039 13.3334 8.33352C13.3334 11.4631 10.7964 14.0002 7.66675 14.0002C4.53713 14.0002 2.00008 11.4631 2.00008 8.33352C2.00008 7.80813 2.07123 7.29356 2.20996 6.79899L0.92617 6.43889C0.757144 7.04147 0.666748 7.67694 0.666748 8.33352C0.666748 12.1995 3.80076 15.3335 7.66675 15.3335C11.5327 15.3335 14.6667 12.1995 14.6667 8.33352C14.6667 4.46752 11.5327 1.33352 7.66675 1.33352C6.69431 1.33352 5.76819 1.5318 4.92661 1.89015L4.34703 1.19943Z" fill="black"/>
</svg>
