<svg width="48" height="48" viewBox="0 0 48 48" fill="none" xmlns="http://www.w3.org/2000/svg">
<rect width="48" height="48" rx="24" fill="#FEF0C7"/>
<path d="M31.5625 16.4375H16.4375C16.0728 16.4375 15.7231 16.5824 15.4652 16.8402C15.2074 17.0981 15.0625 17.4478 15.0625 17.8125V30.1875C15.0625 30.5522 15.2074 30.9019 15.4652 31.1598C15.7231 31.4176 16.0728 31.5625 16.4375 31.5625H31.5625C31.9272 31.5625 32.2769 31.4176 32.5348 31.1598C32.7926 30.9019 32.9375 30.5522 32.9375 30.1875V17.8125C32.9375 17.4478 32.7926 17.0981 32.5348 16.8402C32.2769 16.5824 31.9272 16.4375 31.5625 16.4375ZM28.8125 24.6875C28.8125 24.8698 28.7401 25.0447 28.6111 25.1736C28.4822 25.3026 28.3073 25.375 28.125 25.375H21.5336L22.4273 26.2602C22.5564 26.3905 22.6289 26.5665 22.6289 26.75C22.6289 26.9335 22.5564 27.1095 22.4273 27.2398C22.2959 27.3669 22.1203 27.4379 21.9375 27.4379C21.7547 27.4379 21.5791 27.3669 21.4477 27.2398L19.3852 25.1773C19.2561 25.047 19.1836 24.871 19.1836 24.6875C19.1836 24.504 19.2561 24.328 19.3852 24.1977L21.4477 22.1352C21.5812 22.0255 21.7508 21.9695 21.9234 21.978C22.096 21.9865 22.2593 22.0588 22.3815 22.181C22.5037 22.3032 22.576 22.4665 22.5845 22.6391C22.593 22.8117 22.537 22.9813 22.4273 23.1148L21.5336 24H27.4375V21.9375C27.4375 21.7552 27.5099 21.5803 27.6389 21.4514C27.7678 21.3224 27.9427 21.25 28.125 21.25C28.3073 21.25 28.4822 21.3224 28.6111 21.4514C28.7401 21.5803 28.8125 21.7552 28.8125 21.9375V24.6875Z" fill="#FFC633"/>
</svg>
