<svg width="22" height="22" viewBox="0 0 22 22" fill="none" xmlns="http://www.w3.org/2000/svg">
<path d="M6.02446 7.12404C5.96794 7.05369 5.89781 6.99548 5.81826 6.95289C5.73871 6.9103 5.65138 6.88422 5.5615 6.87619C5.47162 6.86817 5.38105 6.87837 5.29521 6.90619C5.20938 6.93401 5.13004 6.97888 5.06196 7.0381L0.936956 10.4756C0.859563 10.5393 0.797232 10.6193 0.754439 10.71C0.711646 10.8006 0.689453 10.8996 0.689453 10.9998C0.689453 11.1001 0.711646 11.199 0.754439 11.2897C0.797232 11.3803 0.859563 11.4603 0.936956 11.524L5.06196 14.9615C5.13004 15.0208 5.20938 15.0656 5.29521 15.0934C5.38105 15.1213 5.47162 15.1315 5.5615 15.1234C5.65138 15.1154 5.73871 15.0893 5.81826 15.0467C5.89781 15.0042 5.96794 14.9459 6.02446 14.8756C6.08368 14.8075 6.12854 14.7282 6.15637 14.6423C6.18419 14.5565 6.19439 14.4659 6.18637 14.3761C6.17834 14.2862 6.15225 14.1989 6.10966 14.1193C6.06708 14.0397 6.00886 13.9696 5.93852 13.9131L2.44946 10.9998L5.93852 8.08654C6.00886 8.03003 6.06708 7.95989 6.10966 7.88034C6.15225 7.80079 6.17834 7.71346 6.18637 7.62358C6.19439 7.5337 6.18419 7.44313 6.15637 7.35729C6.12854 7.27146 6.08368 7.19212 6.02446 7.12404V7.12404Z" fill="#4A495C" fill-opacity="0.8"/>
<path d="M21.0636 10.4757L16.9386 7.03818C16.7976 6.94465 16.6271 6.9064 16.4597 6.93074C16.2922 6.95508 16.1397 7.0403 16.0311 7.17011C15.9226 7.29991 15.8658 7.46518 15.8715 7.63428C15.8772 7.80337 15.945 7.96443 16.0621 8.08662L19.5511 10.9999L16.0621 13.9132C15.9551 14.0039 15.8785 14.1251 15.8425 14.2606C15.8064 14.3961 15.8126 14.5394 15.8603 14.6713C15.908 14.8031 15.9949 14.9173 16.1093 14.9983C16.2237 15.0794 16.3601 15.1236 16.5003 15.1249C16.6614 15.1256 16.8173 15.0676 16.9386 14.9616L21.0636 11.5241C21.141 11.4604 21.2034 11.3804 21.2461 11.2898C21.2889 11.1991 21.3111 11.1001 21.3111 10.9999C21.3111 10.8997 21.2889 10.8007 21.2461 10.71C21.2034 10.6194 21.141 10.5394 21.0636 10.4757V10.4757Z" fill="#4A495C" fill-opacity="0.8"/>
<path d="M13.9823 2.79297C13.8977 2.76166 13.8077 2.74751 13.7176 2.75135C13.6275 2.75519 13.5391 2.77695 13.4575 2.81535C13.3759 2.85375 13.3027 2.90803 13.2423 2.97501C13.1819 3.042 13.1355 3.12034 13.1057 3.20547L7.60572 18.3305C7.5744 18.4151 7.56025 18.505 7.56409 18.5951C7.56794 18.6852 7.58969 18.7737 7.6281 18.8553C7.6665 18.9369 7.72078 19.01 7.78776 19.0704C7.85474 19.1308 7.93309 19.1773 8.01822 19.207C8.09276 19.2337 8.1711 19.2482 8.25025 19.25C8.39175 19.2507 8.52994 19.2072 8.6455 19.1255C8.76105 19.0439 8.84821 18.9282 8.89478 18.7945L14.3948 3.66954C14.4261 3.58496 14.4402 3.49499 14.4364 3.40488C14.4326 3.31477 14.4108 3.22633 14.3724 3.14473C14.334 3.06312 14.2797 2.98999 14.2127 2.92959C14.1458 2.8692 14.0674 2.82275 13.9823 2.79297V2.79297Z" fill="#4A495C" fill-opacity="0.8"/>
</svg>
