<svg width="22" height="22" viewBox="0 0 22 22" fill="none" xmlns="http://www.w3.org/2000/svg">
<path d="M6.02397 7.12404C5.96746 7.05369 5.89732 6.99548 5.81777 6.95289C5.73822 6.9103 5.65089 6.88422 5.56101 6.87619C5.47113 6.86817 5.38056 6.87837 5.29472 6.90619C5.20889 6.93401 5.12955 6.97888 5.06147 7.0381L0.936468 10.4756C0.859075 10.5393 0.796744 10.6193 0.753951 10.71C0.711158 10.8006 0.688965 10.8996 0.688965 10.9998C0.688965 11.1001 0.711158 11.199 0.753951 11.2897C0.796744 11.3803 0.859075 11.4603 0.936468 11.524L5.06147 14.9615C5.12955 15.0208 5.20889 15.0656 5.29472 15.0934C5.38056 15.1213 5.47113 15.1315 5.56101 15.1234C5.65089 15.1154 5.73822 15.0893 5.81777 15.0467C5.89732 15.0042 5.96746 14.9459 6.02397 14.8756C6.08319 14.8075 6.12806 14.7282 6.15588 14.6423C6.1837 14.5565 6.1939 14.4659 6.18588 14.3761C6.17785 14.2862 6.15177 14.1989 6.10918 14.1193C6.06659 14.0397 6.00838 13.9696 5.93803 13.9131L2.44897 10.9998L5.93803 8.08654C6.00838 8.03003 6.06659 7.95989 6.10918 7.88034C6.15177 7.80079 6.17785 7.71346 6.18588 7.62358C6.1939 7.5337 6.1837 7.44313 6.15588 7.35729C6.12806 7.27146 6.08319 7.19212 6.02397 7.12404V7.12404Z" fill="#6557FF"/>
<path d="M21.0631 10.4757L16.9381 7.03818C16.7972 6.94465 16.6266 6.9064 16.4592 6.93074C16.2918 6.95508 16.1392 7.0403 16.0306 7.17011C15.9221 7.29991 15.8653 7.46518 15.871 7.63428C15.8767 7.80337 15.9445 7.96443 16.0616 8.08662L19.5506 10.9999L16.0616 13.9132C15.9547 14.0039 15.878 14.1251 15.842 14.2606C15.8059 14.3961 15.8121 14.5394 15.8598 14.6713C15.9075 14.8031 15.9944 14.9173 16.1088 14.9983C16.2232 15.0794 16.3597 15.1236 16.4999 15.1249C16.661 15.1256 16.8168 15.0676 16.9381 14.9616L21.0631 11.5241C21.1405 11.4604 21.2029 11.3804 21.2457 11.2898C21.2885 11.1991 21.3106 11.1001 21.3106 10.9999C21.3106 10.8997 21.2885 10.8007 21.2457 10.71C21.2029 10.6194 21.1405 10.5394 21.0631 10.4757V10.4757Z" fill="#6557FF"/>
<path d="M13.9818 2.79297C13.8972 2.76166 13.8072 2.74751 13.7171 2.75135C13.627 2.75519 13.5386 2.77695 13.457 2.81535C13.3754 2.85375 13.3022 2.90803 13.2418 2.97501C13.1815 3.042 13.135 3.12034 13.1052 3.20547L7.60523 18.3305C7.57391 18.4151 7.55976 18.505 7.5636 18.5951C7.56745 18.6852 7.5892 18.7737 7.62761 18.8553C7.66601 18.9369 7.72029 19.01 7.78727 19.0704C7.85425 19.1308 7.9326 19.1773 8.01773 19.207C8.09227 19.2337 8.17061 19.2482 8.24976 19.25C8.39126 19.2507 8.52945 19.2072 8.64501 19.1255C8.76057 19.0439 8.84772 18.9282 8.89429 18.7945L14.3943 3.66954C14.4256 3.58496 14.4398 3.49499 14.4359 3.40488C14.4321 3.31477 14.4103 3.22633 14.3719 3.14473C14.3335 3.06312 14.2792 2.98999 14.2122 2.92959C14.1453 2.8692 14.0669 2.82275 13.9818 2.79297V2.79297Z" fill="#FFC633"/>
</svg>
