<svg width="45" height="45" viewBox="0 0 45 45" fill="none" xmlns="http://www.w3.org/2000/svg">
<circle opacity="0.1" cx="22.5" cy="22.5" r="22.5" fill="#6557FF"/>
<path d="M32.75 20.833H13.25C12.6541 20.833 12.1666 21.3205 12.1666 21.9163V27.5388C12.1666 27.7555 12.1775 27.9722 12.1991 28.1888C12.4158 31.5255 14.4741 33.5838 17.8108 33.8005C18.0275 33.8222 18.2441 33.833 18.4608 33.833H27.5391C27.7558 33.833 27.9725 33.8222 28.1891 33.8005C31.5258 33.5838 33.5841 31.5255 33.8008 28.1888C33.8225 27.9722 33.8333 27.7555 33.8333 27.5388V21.9163C33.8333 21.3205 33.3458 20.833 32.75 20.833ZM18.6666 27.4955C19.035 28.0372 19.5333 28.4813 20.1075 28.7738C20.5191 28.9688 20.6816 29.4563 20.4758 29.868C20.335 30.1497 20.0425 30.3122 19.75 30.3122C19.6308 30.3122 19.5008 30.2797 19.3925 30.2255C18.5475 29.8138 17.8325 29.1747 17.3233 28.4055C16.89 27.7555 16.89 26.9105 17.3233 26.2605C17.8325 25.4913 18.5475 24.8522 19.3925 24.4405C19.7933 24.2347 20.2808 24.3972 20.4758 24.798C20.6816 25.2097 20.5191 25.6972 20.1075 25.8922C19.5333 26.1847 19.035 26.6288 18.6666 27.1705C18.6016 27.268 18.6016 27.398 18.6666 27.4955ZM28.9041 28.4055C28.3841 29.1747 27.6691 29.8138 26.835 30.2255C26.7158 30.2797 26.5966 30.3122 26.4775 30.3122C26.1741 30.3122 25.8925 30.1497 25.7516 29.868C25.5458 29.4563 25.7083 28.9688 26.1091 28.7738C26.6941 28.4813 27.1925 28.0372 27.55 27.4955C27.6258 27.398 27.6258 27.268 27.55 27.1705C27.1925 26.6288 26.6941 26.1847 26.1091 25.8922C25.7083 25.6972 25.5458 25.2097 25.7516 24.798C25.9466 24.3972 26.4341 24.2347 26.835 24.4405C27.6691 24.8522 28.3841 25.4913 28.9041 26.2605C29.3375 26.9105 29.3375 27.7555 28.9041 28.4055Z" fill="#6557FF"/>
<path d="M33.8333 18.4612V18.667C33.8333 19.2628 33.3458 19.7503 32.75 19.7503L13.25 19.7612C12.6541 19.7612 12.1666 19.2737 12.1666 18.6778V18.4612C12.1666 18.2445 12.1775 18.0278 12.1991 17.8112C12.4158 14.4745 14.4741 12.4162 17.8108 12.1995C18.0275 12.1778 18.2441 12.167 18.4608 12.167H27.5391C27.7558 12.167 27.9725 12.1778 28.1891 12.1995C31.5258 12.4162 33.5841 14.4745 33.8008 17.8112C33.8225 18.0278 33.8333 18.2445 33.8333 18.4612Z" fill="#6557FF"/>
</svg>
