<svg width="619" height="1024" viewBox="0 0 619 1024" fill="none" xmlns="http://www.w3.org/2000/svg">
<path d="M211.051 534C94.8212 534 0.598149 628.223 0.598154 744.453L0.598169 1100.11L421.504 1100.11L421.504 744.453C421.504 628.223 327.281 534 211.051 534V534Z" fill="#6557FF"/>
<path d="M211.051 534C94.8212 534 0.598149 628.223 0.598154 744.453L0.598169 1100.11L421.504 1100.11L421.504 744.453C421.504 628.223 327.281 534 211.051 534V534Z" fill="url(#paint0_linear_0_1)" fill-opacity="0.35"/>
<path d="M211.051 534C94.8212 534 0.598149 628.223 0.598154 744.453L0.598169 1100.11L421.504 1100.11L421.504 744.453C421.504 628.223 327.281 534 211.051 534V534Z" fill="url(#paint1_linear_0_1)" fill-opacity="0.75"/>
<path d="M3.32795 141.456C2.29585 142.049 2.29586 143.538 3.32795 144.131L342.062 338.74C343.09 339.331 344.373 338.589 344.373 337.403L344.373 -51.8165C344.373 -53.0024 343.09 -53.7447 342.062 -53.1539L3.32795 141.456Z" fill="#45E2C3"/>
<path d="M197.709 40C153.809 104.477 153.809 168.954 197.709 233.431C241.608 297.907 241.608 362.384 197.709 426.861C153.809 491.338 153.809 555.815 197.709 620.292C241.608 684.768 241.608 749.245 197.709 813.722" stroke="#3F3F3F" stroke-width="5.65715"/>
<path d="M338 458.145C415.467 458.145 478.267 395.848 478.267 319C478.267 395.848 541.066 458.145 618.534 458.145C541.066 458.145 478.267 520.441 478.267 597.289C478.267 520.441 415.467 458.145 338 458.145Z" fill="#FDECC2"/>
<defs>
<linearGradient id="paint0_linear_0_1" x1="258.665" y1="619.681" x2="268.803" y2="970.349" gradientUnits="userSpaceOnUse">
<stop stop-color="white"/>
<stop offset="1" stop-color="white" stop-opacity="0"/>
</linearGradient>
<linearGradient id="paint1_linear_0_1" x1="-40.8996" y1="452.492" x2="-55.7182" y2="1171.24" gradientUnits="userSpaceOnUse">
<stop stop-color="#4FE4C6"/>
<stop offset="1" stop-color="#4FE4C6" stop-opacity="0"/>
</linearGradient>
</defs>
</svg>
