<svg width="1357" height="1001" viewBox="0 0 1357 1001" fill="none" xmlns="http://www.w3.org/2000/svg">
<path d="M19.9839 226.407C72.1792 226.407 114.492 184.281 114.492 132.315C114.492 184.281 156.805 226.407 209 226.407C156.805 226.407 114.492 268.532 114.492 320.498C114.492 268.532 72.1792 226.407 19.9839 226.407Z" fill="#FDECC2"/>
<path d="M1.60147e-06 145.637C20.4642 145.637 37.0538 129.235 37.0538 109C37.0538 129.235 53.6433 145.637 74.1076 145.637C53.6433 145.637 37.0538 162.04 37.0538 182.275C37.0538 162.04 20.4642 145.637 1.60147e-06 145.637Z" fill="#FDECC2"/>
<path opacity="0.23" d="M1090.06 187.948C1089.02 187.355 1089.02 185.863 1090.06 185.27L1287.37 72.3496C1288.4 71.7611 1289.68 72.5035 1289.68 73.6883L1289.68 299.53C1289.68 300.714 1288.4 301.457 1287.37 300.868L1090.06 187.948Z" fill="#45E2C3"/>
<path opacity="0.99" d="M1072.33 119.444C1071.3 118.851 1071.3 117.362 1072.33 116.769L1245.74 17.1507C1246.76 16.56 1248.05 17.3023 1248.05 18.4882L1248.05 217.726C1248.05 218.911 1246.76 219.654 1245.74 219.063L1072.33 119.444Z" fill="#45E2C3"/>
<path d="M1172.5 649C1092.69 649 1028 713.695 1028 793.5L1028 1037L1317 1037L1317 793.5C1317 713.695 1252.31 649 1172.5 649Z" fill="#6557FF"/>
<path d="M1172.5 649C1092.69 649 1028 713.695 1028 793.5L1028 1037L1317 1037L1317 793.5C1317 713.695 1252.31 649 1172.5 649Z" fill="url(#paint0_linear_2673_8037)" fill-opacity="0.35"/>
<path d="M1172.5 649C1092.69 649 1028 713.695 1028 793.5L1028 1037L1317 1037L1317 793.5C1317 713.695 1252.31 649 1172.5 649Z" fill="url(#paint1_linear_2673_8037)" fill-opacity="0.75"/>
<path d="M1028.5 756C964.159 756 912 808.159 912 872.5L912 1068L1145 1068L1145 872.5C1145 808.159 1092.84 756 1028.5 756Z" fill="#6557FF"/>
<path d="M1028.5 756C964.159 756 912 808.159 912 872.5L912 1068L1145 1068L1145 872.5C1145 808.159 1092.84 756 1028.5 756Z" fill="url(#paint2_linear_2673_8037)" fill-opacity="0.35"/>
<path d="M1028.5 756C964.159 756 912 808.159 912 872.5L912 1068L1145 1068L1145 872.5C1145 808.159 1092.84 756 1028.5 756Z" fill="url(#paint3_linear_2673_8037)" fill-opacity="0.75"/>
<path d="M1172 310C1136 363.917 1136 417.833 1172 471.75C1208 525.667 1208 579.583 1172 633.5C1136 687.417 1136 741.333 1172 795.25C1208 849.167 1208 903.083 1172 957" stroke="#3F3F3F" stroke-width="5.65715"/>
<path d="M1189 668C1226.83 668 1257.5 637.556 1257.5 600C1257.5 637.556 1288.17 668 1326 668C1288.17 668 1257.5 698.444 1257.5 736C1257.5 698.444 1226.83 668 1189 668Z" fill="#FDECC2"/>
<defs>
<linearGradient id="paint0_linear_2673_8037" x1="1205.19" y1="707.724" x2="1212.13" y2="948.065" gradientUnits="userSpaceOnUse">
<stop stop-color="white"/>
<stop offset="1" stop-color="white" stop-opacity="0"/>
</linearGradient>
<linearGradient id="paint1_linear_2673_8037" x1="999.507" y1="593.136" x2="989.369" y2="1085.75" gradientUnits="userSpaceOnUse">
<stop stop-color="#4FE4C6"/>
<stop offset="1" stop-color="#4FE4C6" stop-opacity="0"/>
</linearGradient>
<linearGradient id="paint2_linear_2673_8037" x1="1054.86" y1="803.222" x2="1060.42" y2="996.486" gradientUnits="userSpaceOnUse">
<stop stop-color="white"/>
<stop offset="1" stop-color="white" stop-opacity="0"/>
</linearGradient>
<linearGradient id="paint3_linear_2673_8037" x1="889.028" y1="711.079" x2="880.897" y2="1107.21" gradientUnits="userSpaceOnUse">
<stop stop-color="#4FE4C6"/>
<stop offset="1" stop-color="#4FE4C6" stop-opacity="0"/>
</linearGradient>
</defs>
</svg>
