<svg width="21" height="21" viewBox="0 0 21 21" fill="none" xmlns="http://www.w3.org/2000/svg">
<g clip-path="url(#clip0_4581_12149)">
<path fill-rule="evenodd" clip-rule="evenodd" d="M7.69979 0C6.53894 0.000856269 5.59944 0.94104 5.6003 2.09957C5.59944 3.2581 6.53979 4.19829 7.70065 4.19914H9.80099V2.10043C9.80185 0.941896 8.8615 0.00171254 7.69979 0C7.70065 0 7.70065 0 7.69979 0M7.69979 5.6H2.10059C0.939738 5.60086 -0.000611498 6.54104 0.000246485 7.69957C-0.00146948 8.8581 0.93888 9.79829 2.09973 9.8H7.69979C8.86064 9.79914 9.80099 8.85896 9.80013 7.70043C9.80099 6.54104 8.86064 5.60086 7.69979 5.6Z" fill="#36C5F0"/>
<path fill-rule="evenodd" clip-rule="evenodd" d="M21.0002 7.69957C21.0011 6.54104 20.0607 5.60086 18.8999 5.6C17.739 5.60086 16.7987 6.54104 16.7995 7.69957V9.8H18.8999C20.0607 9.79914 21.0011 8.85896 21.0002 7.69957ZM15.4001 7.69957V2.09957C15.401 0.941896 14.4615 0.00171254 13.3007 0C12.1398 0.000856269 11.1995 0.94104 11.2003 2.09957V7.69957C11.1986 8.8581 12.139 9.79829 13.2998 9.8C14.4607 9.79914 15.401 8.85896 15.4001 7.69957Z" fill="#2EB67D"/>
<path fill-rule="evenodd" clip-rule="evenodd" d="M13.2998 21C14.4607 20.9991 15.401 20.0589 15.4001 18.9004C15.401 17.7418 14.4607 16.8017 13.2998 16.8008H11.1995V18.9004C11.1986 20.0581 12.139 20.9982 13.2998 21ZM13.2998 15.3991H18.8999C20.0607 15.3982 21.0011 14.4581 21.0002 13.2995C21.0019 12.141 20.0616 11.2008 18.9007 11.1991H13.3007C12.1398 11.2 11.1995 12.1401 11.2003 13.2987C11.1995 14.4581 12.139 15.3982 13.2998 15.3991Z" fill="#ECB22E"/>
<path fill-rule="evenodd" clip-rule="evenodd" d="M0.000244727 13.2995C-0.000613256 14.4581 0.939736 15.3982 2.10059 15.3991C3.26144 15.3982 4.20179 14.4581 4.20093 13.2995V11.2H2.10059C0.939736 11.2008 -0.000613256 12.141 0.000244727 13.2995ZM5.6003 13.2995V18.8995C5.59859 20.0581 6.53894 20.9982 7.69979 21C8.86064 20.9991 9.80099 20.0589 9.80013 18.9004V13.3012C9.80185 12.1427 8.8615 11.2025 7.70064 11.2008C6.53894 11.2008 5.59944 12.141 5.6003 13.2995C5.6003 13.2995 5.6003 13.3004 5.6003 13.2995Z" fill="#E01E5A"/>
</g>
<defs>
<clipPath id="clip0_4581_12149">
<rect width="21" height="21" fill="white"/>
</clipPath>
</defs>
</svg>
