<svg width="15" height="15" viewBox="0 0 15 15" fill="none" xmlns="http://www.w3.org/2000/svg">
<path d="M9.14062 5.39062V4.6875H8.4375C8.18886 4.6875 7.9504 4.78627 7.77459 4.96209C7.59877 5.1379 7.5 5.37636 7.5 5.625V9.375C7.5 9.62364 7.59877 9.8621 7.77459 10.0379C7.9504 10.2137 8.18886 10.3125 8.4375 10.3125H9.14062V9.60938C9.14062 9.36073 9.2394 9.12228 9.41521 8.94646C9.59103 8.77065 9.82948 8.67188 10.0781 8.67188H12.4219C12.6705 8.67188 12.909 8.77065 13.0848 8.94646C13.2606 9.12228 13.3594 9.36073 13.3594 9.60938V11.9531C13.3594 12.2018 13.2606 12.4402 13.0848 12.616C12.909 12.7919 12.6705 12.8906 12.4219 12.8906H10.0781C9.82948 12.8906 9.59103 12.7919 9.41521 12.616C9.2394 12.4402 9.14062 12.2018 9.14062 11.9531V11.25H8.4375C7.94069 11.2485 7.46468 11.0504 7.11338 10.6991C6.76209 10.3478 6.56405 9.87181 6.5625 9.375V7.96875H4.92188V8.4375C4.92188 8.68614 4.8231 8.9246 4.64729 9.10041C4.47147 9.27623 4.23302 9.375 3.98438 9.375H2.10938C1.86073 9.375 1.62228 9.27623 1.44646 9.10041C1.27065 8.9246 1.17188 8.68614 1.17188 8.4375V6.5625C1.17188 6.31386 1.27065 6.0754 1.44646 5.89959C1.62228 5.72377 1.86073 5.625 2.10938 5.625H3.98438C4.23302 5.625 4.47147 5.72377 4.64729 5.89959C4.8231 6.0754 4.92188 6.31386 4.92188 6.5625V7.03125H6.5625V5.625C6.56405 5.12819 6.76209 4.65218 7.11338 4.30088C7.46468 3.94959 7.94069 3.75155 8.4375 3.75H9.14062V3.04688C9.14062 2.79823 9.2394 2.55978 9.41521 2.38396C9.59103 2.20815 9.82948 2.10938 10.0781 2.10938H12.4219C12.6705 2.10938 12.909 2.20815 13.0848 2.38396C13.2606 2.55978 13.3594 2.79823 13.3594 3.04688V5.39062C13.3594 5.63927 13.2606 5.87772 13.0848 6.05354C12.909 6.22935 12.6705 6.32812 12.4219 6.32812H10.0781C9.82948 6.32812 9.59103 6.22935 9.41521 6.05354C9.2394 5.87772 9.14062 5.63927 9.14062 5.39062Z" fill="#6557FF"/>
</svg>
