<svg width="22" height="22" viewBox="0 0 22 22" fill="none" xmlns="http://www.w3.org/2000/svg">
<path d="M21.1061 10.5499C21.1084 10.8575 21.0148 11.1582 20.8384 11.4101C20.662 11.6621 20.4116 11.853 20.1218 11.9561L14.1311 14.1311L11.9561 20.1218C11.8496 20.4088 11.6577 20.6564 11.4064 20.8313C11.155 21.0061 10.8561 21.0998 10.5499 21.0998C10.2437 21.0998 9.94482 21.0061 9.69344 20.8313C9.44206 20.6564 9.2502 20.4088 9.14365 20.1218L6.96865 14.1311L0.978022 11.9561C0.690957 11.8496 0.443377 11.6577 0.268544 11.4064C0.0937112 11.155 0 10.8561 0 10.5499C0 10.2437 0.0937112 9.94483 0.268544 9.69344C0.443377 9.44206 0.690957 9.2502 0.978022 9.14365L6.96865 6.96865L9.14365 0.978022C9.2502 0.690957 9.44206 0.443377 9.69344 0.268544C9.94482 0.0937112 10.2437 0 10.5499 0C10.8561 0 11.155 0.0937112 11.4064 0.268544C11.6577 0.443377 11.8496 0.690957 11.9561 0.978022L14.1311 6.96865L20.1218 9.14365C20.4116 9.24682 20.662 9.43765 20.8384 9.68965C21.0148 9.94164 21.1084 10.2423 21.1061 10.5499Z" fill="#6557FF"/>
</svg>
