<svg width="18" height="18" viewBox="0 0 18 18" fill="none" xmlns="http://www.w3.org/2000/svg">
<circle cx="12.75" cy="6" r="3" fill="#737373"/>
<path fill-rule="evenodd" clip-rule="evenodd" d="M11.25 6C11.25 5.17157 11.9216 4.5 12.75 4.5C13.5784 4.5 14.25 5.17157 14.25 6H11.25ZM8.25 6C8.25 5.47405 8.34023 4.96917 8.50606 4.5H3.75C3.33579 4.5 3 4.83579 3 5.25C3 5.66421 3.33579 6 3.75 6H8.25ZM8.85202 8.25H3.75C3.33579 8.25 3 8.58579 3 9C3 9.41421 3.33579 9.75 3.75 9.75H10.2617C9.68408 9.36598 9.2003 8.85208 8.85202 8.25ZM3.75 12C3.33579 12 3 12.3358 3 12.75C3 13.1642 3.33579 13.5 3.75 13.5H14.25C14.6642 13.5 15 13.1642 15 12.75C15 12.3358 14.6642 12 14.25 12H3.75Z" fill="#737373"/>
</svg>
