<svg width="35" height="28" viewBox="0 0 35 28" fill="none" xmlns="http://www.w3.org/2000/svg">
<circle cx="19.3335" cy="12.5" r="12.5" fill="#FFC13C"/>
<circle cx="19.3335" cy="12.5" r="12.5" fill="url(#paint0_linear_0_1)" fill-opacity="0.45"/>
<path d="M6.57851 1.82033C6.72916 1.57418 7.08594 1.57195 7.23966 1.8162L13.6314 11.9725C13.7945 12.2316 13.6083 12.5688 13.3021 12.5688L0.694293 12.5688C0.390335 12.5688 0.203765 12.2359 0.36244 11.9766L6.57851 1.82033Z" fill="#44E2C3"/>
<path d="M6.57851 1.82033C6.72916 1.57418 7.08594 1.57195 7.23966 1.8162L13.6314 11.9725C13.7945 12.2316 13.6083 12.5688 13.3021 12.5688L0.694293 12.5688C0.390335 12.5688 0.203765 12.2359 0.36244 11.9766L6.57851 1.82033Z" fill="url(#paint1_linear_0_1)" fill-opacity="0.65"/>
<g filter="url(#filter0_d_0_1)">
<path d="M29.1016 14.2453C29.1016 14.1438 29.1832 14.0615 29.2838 14.0615L33.857 14.0615C33.9576 14.0615 34.0392 14.1438 34.0392 14.2453L34.0392 26.76C34.0392 26.8615 33.9576 26.9438 33.857 26.9438L29.2838 26.9438C29.1832 26.9438 29.1016 26.8615 29.1016 26.76L29.1016 14.2453Z" fill="#6557FF"/>
<path d="M24.8208 18.472C24.8208 18.3705 24.9023 18.2882 25.0029 18.2882L33.4016 18.2882C33.5022 18.2882 33.5837 18.3705 33.5837 18.472L33.5837 26.76C33.5837 26.8615 33.5022 26.9438 33.4016 26.9438L25.0029 26.9438C24.9023 26.9438 24.8208 26.8615 24.8208 26.76L24.8208 18.472Z" fill="#6557FF"/>
<path d="M20.9043 22.423C20.9043 22.3215 20.9859 22.2392 21.0865 22.2392L33.857 22.2392C33.9576 22.2392 34.0392 22.3215 34.0392 22.423L34.0392 26.76C34.0392 26.8615 33.9576 26.9438 33.857 26.9438L21.0865 26.9438C20.9859 26.9438 20.9043 26.8615 20.9043 26.76L20.9043 22.423Z" fill="#6557FF"/>
</g>
<defs>
<filter id="filter0_d_0_1" x="19.3887" y="12.7986" width="15.1555" height="14.9031" filterUnits="userSpaceOnUse" color-interpolation-filters="sRGB">
<feFlood flood-opacity="0" result="BackgroundImageFix"/>
<feColorMatrix in="SourceAlpha" type="matrix" values="0 0 0 0 0 0 0 0 0 0 0 0 0 0 0 0 0 0 127 0" result="hardAlpha"/>
<feOffset dx="-0.505187" dy="-0.252593"/>
<feGaussianBlur stdDeviation="0.505187"/>
<feComposite in2="hardAlpha" operator="out"/>
<feColorMatrix type="matrix" values="0 0 0 0 0.591667 0 0 0 0 0.561122 0 0 0 0 0.48566 0 0 0 0.03 0"/>
<feBlend mode="normal" in2="BackgroundImageFix" result="effect1_dropShadow_0_1"/>
<feBlend mode="normal" in="SourceGraphic" in2="effect1_dropShadow_0_1" result="shape"/>
</filter>
<linearGradient id="paint0_linear_0_1" x1="20.5184" y1="15.0347" x2="9.06002" y2="0.125482" gradientUnits="userSpaceOnUse">
<stop stop-color="white" stop-opacity="0"/>
<stop offset="1" stop-color="white"/>
</linearGradient>
<linearGradient id="paint1_linear_0_1" x1="0.126407" y1="3.72548" x2="6.60328" y2="10.1093" gradientUnits="userSpaceOnUse">
<stop stop-color="white"/>
<stop offset="1" stop-color="white" stop-opacity="0"/>
</linearGradient>
</defs>
</svg>
