<svg width="16" height="16" viewBox="0 0 16 16" fill="none" xmlns="http://www.w3.org/2000/svg">
<path d="M13 9H3C2.72386 9 2.5 9.22386 2.5 9.5V12.5C2.5 12.7761 2.72386 13 3 13H13C13.2761 13 13.5 12.7761 13.5 12.5V9.5C13.5 9.22386 13.2761 9 13 9Z" stroke="#84818A" stroke-linecap="round" stroke-linejoin="round"/>
<path d="M13 3H3C2.72386 3 2.5 3.22386 2.5 3.5V6.5C2.5 6.77614 2.72386 7 3 7H13C13.2761 7 13.5 6.77614 13.5 6.5V3.5C13.5 3.22386 13.2761 3 13 3Z" stroke="#84818A" stroke-linecap="round" stroke-linejoin="round"/>
<path d="M11.25 5.75C11.6642 5.75 12 5.41421 12 5C12 4.58579 11.6642 4.25 11.25 4.25C10.8358 4.25 10.5 4.58579 10.5 5C10.5 5.41421 10.8358 5.75 11.25 5.75Z" fill="#84818A"/>
<path d="M11.25 11.75C11.6642 11.75 12 11.4142 12 11C12 10.5858 11.6642 10.25 11.25 10.25C10.8358 10.25 10.5 10.5858 10.5 11C10.5 11.4142 10.8358 11.75 11.25 11.75Z" fill="#84818A"/>
</svg>
