<svg width="32" height="32" viewBox="0 0 32 32" fill="none" xmlns="http://www.w3.org/2000/svg">
<rect width="32" height="32" rx="16" fill="#27AE60" fill-opacity="0.1"/>
<path d="M16 7.66666C11.4083 7.66666 7.66666 11.4083 7.66666 16C7.66666 20.5917 11.4083 24.3333 16 24.3333C20.5917 24.3333 24.3333 20.5917 24.3333 16C24.3333 11.4083 20.5917 7.66666 16 7.66666ZM19.9833 14.0833L15.2583 18.8083C15.1417 18.925 14.9833 18.9917 14.8167 18.9917C14.65 18.9917 14.4917 18.925 14.375 18.8083L12.0167 16.45C11.775 16.2083 11.775 15.8083 12.0167 15.5667C12.2583 15.325 12.6583 15.325 12.9 15.5667L14.8167 17.4833L19.1 13.2C19.3417 12.9583 19.7417 12.9583 19.9833 13.2C20.225 13.4417 20.225 13.8333 19.9833 14.0833Z" fill="#27AE60"/>
</svg>
