<svg xmlns="http://www.w3.org/2000/svg" width="20" height="20" viewBox="0 0 20 20" fill="none">
    <path fill-rule="evenodd" clip-rule="evenodd" d="M10 1.04166C10.3452 1.04166 10.625 1.32148 10.625 1.66666V3.33332C10.625 3.6785 10.3452 3.95832 10 3.95832C9.65482 3.95832 9.375 3.6785 9.375 3.33332V1.66666C9.375 1.32148 9.65482 1.04166 10 1.04166ZM10 16.0417C10.3452 16.0417 10.625 16.3215 10.625 16.6667L10.625 18.3333C10.625 18.6785 10.3452 18.9583 10 18.9583C9.65482 18.9583 9.375 18.6785 9.375 18.3333L9.375 16.6667C9.375 16.3215 9.65482 16.0417 10 16.0417ZM10 5.20832C7.35363 5.20832 5.20833 7.35363 5.20833 9.99999C5.20833 12.6464 7.35363 14.7917 10 14.7917C12.6464 14.7917 14.7917 12.6464 14.7917 9.99999C14.7917 7.35363 12.6464 5.20832 10 5.20832ZM1.66666 9.37499C1.32149 9.37499 1.04166 9.65481 1.04166 9.99999C1.04166 10.3452 1.32149 10.625 1.66666 10.625H3.33333C3.67851 10.625 3.95833 10.3452 3.95833 9.99999C3.95833 9.65481 3.67851 9.37499 3.33333 9.37499H1.66666ZM16.6667 9.37499C16.3215 9.37499 16.0417 9.65481 16.0417 9.99999C16.0417 10.3452 16.3215 10.625 16.6667 10.625H18.3333C18.6785 10.625 18.9583 10.3452 18.9583 9.99999C18.9583 9.65481 18.6785 9.37499 18.3333 9.37499H16.6667ZM3.30806 3.30762C3.55214 3.06354 3.94787 3.06355 4.19194 3.30763L5.44196 4.55766C5.68604 4.80174 5.68604 5.19747 5.44196 5.44155C5.19788 5.68562 4.80215 5.68562 4.55807 5.44154L3.30805 4.1915C3.06398 3.94742 3.06398 3.55169 3.30806 3.30762ZM14.5581 14.5576C14.8021 14.3136 15.1979 14.3136 15.4419 14.5576L16.6919 15.8076C16.936 16.0517 16.936 16.4474 16.6919 16.6915C16.4479 16.9356 16.0521 16.9356 15.8081 16.6915L14.5581 15.4415C14.314 15.1974 14.314 14.8017 14.5581 14.5576ZM3.30806 15.808C3.06398 16.0521 3.06398 16.4479 3.30806 16.6919C3.55213 16.936 3.94786 16.936 4.19194 16.6919L5.44194 15.4419C5.68602 15.1979 5.68602 14.8021 5.44194 14.558C5.19786 14.314 4.80213 14.314 4.55806 14.558L3.30806 15.808ZM14.5581 4.55805C14.314 4.80213 14.314 5.19786 14.5581 5.44193C14.8021 5.68601 15.1979 5.68601 15.4419 5.44193L16.6919 4.19193C16.936 3.94786 16.936 3.55213 16.6919 3.30805C16.4479 3.06397 16.0521 3.06397 15.8081 3.30805L14.5581 4.55805Z" fill="#22272F"/>
</svg>