<svg width="16" height="16" viewBox="0 0 16 16" fill="none" xmlns="http://www.w3.org/2000/svg">
<path d="M8.16683 1.33301C4.9315 1.33301 3.00016 3.13967 3.00016 6.16634V7.34017C2.5825 7.64984 2.3335 8.13367 2.3335 8.66634C2.3335 9.45201 2.87979 10.1121 3.61279 10.2874C4.27713 12.9218 6.00883 14.6663 8.00016 14.6663C8.27616 14.6663 8.50016 14.4427 8.50016 14.1663C8.50016 13.89 8.27616 13.6663 8.00016 13.6663C6.4315 13.6663 4.99594 12.0469 4.50928 9.72819C4.46061 9.49686 4.25701 9.33105 4.02035 9.33105C4.00901 9.33105 3.99463 9.33136 3.98063 9.33236C3.62196 9.32236 3.3335 9.02734 3.3335 8.66634C3.3335 8.41134 3.47967 8.18426 3.71501 8.07259C3.88934 7.98959 4.00016 7.81377 4.00016 7.62077V6.72428C5.28516 6.38695 6.08971 5.70101 6.51904 5.22168C7.06604 5.55535 8.14383 5.99967 10.0002 5.99967C10.7157 5.99967 11.3367 5.93531 11.8322 5.85449C11.9106 6.08939 12.0002 6.43363 12.0002 6.83301V10.1663C12.0002 11.0008 11.3347 11.6663 10.5002 11.6663H9.88688C9.79232 11.467 9.64315 11.2985 9.4567 11.1805C9.27025 11.0625 9.05415 10.9998 8.8335 10.9997C8.68029 10.9997 8.52858 11.0299 8.38703 11.0885C8.24549 11.1471 8.11687 11.233 8.00854 11.3414C7.9002 11.4497 7.81427 11.5783 7.75564 11.7199C7.69701 11.8614 7.66683 12.0131 7.66683 12.1663C7.66683 12.3196 7.69701 12.4713 7.75564 12.6128C7.81427 12.7544 7.9002 12.883 8.00854 12.9913C8.11687 13.0996 8.24549 13.1856 8.38703 13.2442C8.52858 13.3028 8.68029 13.333 8.8335 13.333C9.05404 13.3328 9.27 13.27 9.45632 13.152C9.64265 13.034 9.79171 12.8656 9.88623 12.6663H10.5002C11.8187 12.6663 12.9048 11.6306 12.9917 10.333H13.0002C13.7365 10.333 14.3335 9.73601 14.3335 8.99967V8.33301C14.3335 7.59667 13.7365 6.99967 13.0002 6.99967V6.83301C13.0002 6.34712 12.9032 5.91549 12.8062 5.60514C13.0003 5.49703 13.1557 5.32877 13.2469 5.12207C13.3662 4.85107 13.3619 4.54268 13.2345 4.27702C12.3399 2.40568 10.4925 1.33301 8.16683 1.33301ZM6.3335 7.99967C6.15669 7.99967 5.98712 8.06991 5.86209 8.19494C5.73707 8.31996 5.66683 8.48953 5.66683 8.66634C5.66683 8.84315 5.73707 9.01272 5.86209 9.13775C5.98712 9.26277 6.15669 9.33301 6.3335 9.33301C6.51031 9.33301 6.67988 9.26277 6.8049 9.13775C6.92992 9.01272 7.00016 8.84315 7.00016 8.66634C7.00016 8.48953 6.92992 8.31996 6.8049 8.19494C6.67988 8.06991 6.51031 7.99967 6.3335 7.99967ZM9.66683 7.99967C9.49269 8.00005 9.32561 8.06854 9.20132 8.19051C9.07703 8.31248 9.00539 8.47824 9.00174 8.65234C8.99808 8.82644 9.06269 8.99506 9.18175 9.12214C9.30081 9.24922 9.46486 9.32467 9.63883 9.33236C9.64816 9.33277 9.65749 9.33299 9.66683 9.33301C9.84364 9.33301 10.0132 9.26277 10.1382 9.13775C10.2633 9.01272 10.3335 8.84315 10.3335 8.66634C10.3335 8.48953 10.2633 8.31996 10.1382 8.19494C10.0132 8.06991 9.84364 7.99967 9.66683 7.99967Z" fill="#4A495C" fill-opacity="0.8"/>
</svg>
