<svg width="16" height="16" viewBox="0 0 16 16" fill="none" xmlns="http://www.w3.org/2000/svg">
<path fill-rule="evenodd" clip-rule="evenodd" d="M7.99983 2.66732C5.83224 2.66732 4.20961 4.06389 4.01867 5.68107C4.10009 5.716 4.17857 5.75188 4.24968 5.78442C4.48712 5.89051 4.93482 6.09053 5.10534 6.59526C5.16735 6.77881 5.16687 6.97507 5.16642 7.15768V10.177C5.16687 10.3596 5.16735 10.5558 5.10534 10.7394C4.93482 11.2441 4.48712 11.4441 4.24968 11.5502C4.00774 11.6609 3.68056 11.8103 3.44209 11.8296C3.17718 11.851 2.90898 11.7944 2.67628 11.6638C2.46495 11.5452 2.30629 11.3516 2.14559 11.1556C2.08748 11.085 1.97748 10.9552 1.90022 10.8657L1.90019 10.8657C1.75895 10.702 1.59861 10.5162 1.46638 10.3431C1.24794 10.0573 1.02906 9.71472 0.920325 9.31671C0.803902 8.89054 0.803902 8.44409 0.920325 8.01792C0.999224 7.72911 1.14197 7.47424 1.33041 7.20674C1.5129 6.94768 1.8237 6.56797 2.12771 6.19873L2.12772 6.19871C2.17673 6.13656 2.24411 6.05111 2.29393 5.99404C2.38416 5.89069 2.50902 5.7647 2.67628 5.67082L2.67941 5.66907C2.87536 3.16699 5.2735 1.33398 7.99983 1.33398C10.7262 1.33398 13.1243 3.167 13.3202 5.66908L13.3234 5.67082C13.4906 5.7647 13.6155 5.89069 13.7057 5.99404C13.7556 6.05112 13.8229 6.13657 13.872 6.19873C14.176 6.56797 14.4868 6.94768 14.6692 7.20674C14.8577 7.47424 15.0004 7.72911 15.0793 8.01792C15.1958 8.44409 15.1958 8.89054 15.0793 9.31671C14.9706 9.71472 14.7517 10.0573 14.5333 10.3431C14.401 10.5162 14.2407 10.702 14.0995 10.8657L14.0994 10.8657C14.0222 10.9552 13.9122 11.085 13.8541 11.1556C13.6959 11.3486 13.5396 11.5392 13.3332 11.6582V11.8673C13.3332 13.5448 11.6943 14.6673 9.99983 14.6673H8.66649C8.29831 14.6673 7.99983 14.3688 7.99983 14.0007C7.99983 13.6325 8.29831 13.334 8.66649 13.334H9.99983C11.2509 13.334 11.9998 12.5462 11.9998 11.8673V11.6616C11.9117 11.6242 11.8266 11.5853 11.75 11.5502C11.5125 11.4441 11.0648 11.2441 10.8943 10.7394C10.8323 10.5558 10.8328 10.3596 10.8332 10.177V7.15768C10.8328 6.97507 10.8323 6.77881 10.8943 6.59526C11.0648 6.09053 11.5125 5.89051 11.75 5.78442C11.8211 5.75188 11.8996 5.716 11.981 5.68107C11.7901 4.06389 10.1674 2.66732 7.99983 2.66732Z" fill="#6557FF"/>
</svg>
