<svg width="16" height="16" viewBox="0 0 16 16" fill="none" xmlns="http://www.w3.org/2000/svg">
<path d="M14.6466 3.66683V6.3335C14.6466 7.45058 13.8626 8.38675 12.8096 8.61413C12.5397 8.67241 12.3132 8.44297 12.3132 8.16683C12.3132 5.68683 10.2999 3.66683 7.81323 3.66683C7.53709 3.66683 7.30768 3.44033 7.36635 3.1705C7.59446 2.12147 8.53017 1.3335 9.64657 1.3335H12.3132C13.6066 1.3335 14.6466 2.38016 14.6466 3.66683Z" fill="#4A3AFF"/>
<path d="M7.81323 4.6665H7.31323H4.64657C2.80657 4.6665 1.31323 6.15984 1.31323 7.99984V11.3332C1.31323 13.1732 2.80657 14.6665 4.64657 14.6665H7.9799C9.8199 14.6665 11.3132 13.1732 11.3132 11.3332V8.6665V8.1665C11.3132 6.23317 9.74656 4.6665 7.81323 4.6665Z" fill="#4A3AFF"/>
</svg>
