<svg width="45" height="45" viewBox="0 0 45 45" fill="none" xmlns="http://www.w3.org/2000/svg">
<circle opacity="0.1" cx="22.5" cy="22.5" r="22.5" fill="#6557FF"/>
<path d="M30.9578 19.2688L25.7309 14.0419C24.6347 12.9457 23.1232 12.3572 21.577 12.438L15.8078 12.7149C13.5001 12.8188 11.6655 14.6534 11.5501 16.9495L11.2732 22.7188C11.2039 24.2649 11.7809 25.7765 12.877 26.8726L18.1039 32.0996C20.2501 34.2457 23.7347 34.2457 25.8924 32.0996L30.9578 27.0342C33.1155 24.8995 33.1155 21.4149 30.9578 19.2688ZM19.0385 23.5149C17.2155 23.5149 15.7155 22.0265 15.7155 20.1919C15.7155 18.3572 17.2155 16.8688 19.0385 16.8688C20.8616 16.8688 22.3616 18.3572 22.3616 20.1919C22.3616 22.0265 20.8616 23.5149 19.0385 23.5149ZM28.3039 24.8419L23.6885 29.4572C23.5155 29.6303 23.2962 29.7111 23.077 29.7111C22.8578 29.7111 22.6385 29.6303 22.4655 29.4572C22.1309 29.1226 22.1309 28.5688 22.4655 28.2342L27.0809 23.6188C27.4155 23.2842 27.9693 23.2842 28.3039 23.6188C28.6385 23.9534 28.6385 24.5072 28.3039 24.8419Z" fill="#6557FF"/>
</svg>
