<svg width="29" height="30" viewBox="0 0 29 30" fill="none" xmlns="http://www.w3.org/2000/svg">
<rect y="0.5" width="29" height="29" rx="6" fill="#6557FF"/>
<path fill-rule="evenodd" clip-rule="evenodd" d="M11.3333 8.33301C9.12411 8.33301 7.33325 10.1239 7.33325 12.333V17.6663C7.33325 19.8755 9.12411 21.6663 11.3332 21.6663H16.6666C18.8757 21.6663 20.6666 19.8755 20.6666 17.6663V12.333C20.6666 10.1239 18.8757 8.33301 16.6666 8.33301H11.3333ZM13.3519 12.0284C13.2341 11.7632 12.9738 11.5898 12.6836 11.5832C12.3935 11.5766 12.1256 11.738 11.9958 11.9976L10.8697 14.2497H9.99992C9.58571 14.2497 9.24992 14.5855 9.24992 14.9997C9.24992 15.4139 9.58571 15.7497 9.99992 15.7497H11.3333C11.6173 15.7497 11.877 15.5892 12.0041 15.3351L12.6267 14.0899L14.6479 18.6376C14.7704 18.9132 15.0459 19.0886 15.3474 19.0829C15.6489 19.0772 15.9176 18.8915 16.0296 18.6116L17.1744 15.7497H17.9999C18.4141 15.7497 18.7499 15.4139 18.7499 14.9997C18.7499 14.5855 18.4141 14.2497 17.9999 14.2497H16.6666C16.3599 14.2497 16.0841 14.4364 15.9702 14.7211L15.2969 16.4045L13.3519 12.0284Z" fill="white"/>
</svg>
