<svg width="24" height="24" viewBox="0 0 24 24" fill="none" xmlns="http://www.w3.org/2000/svg">
<g id="align-box-middle-right">
<g id="elements">
<path id="Subtract" fill-rule="evenodd" clip-rule="evenodd" d="M16.4635 1.37373C15.3214 1.24999 13.8818 1.24999 12.0453 1.25H11.9547C10.1182 1.24999 8.67861 1.24999 7.53648 1.37373C6.37094 1.50001 5.42656 1.76232 4.62024 2.34815C4.13209 2.70281 3.70281 3.13209 3.34815 3.62024C2.76232 4.42656 2.50001 5.37094 2.37373 6.53648C2.24999 7.67861 2.24999 9.11822 2.25 10.9548V13.0453C2.24999 14.8818 2.24999 16.3214 2.37373 17.4635C2.50001 18.6291 2.76232 19.5734 3.34815 20.3798C3.70281 20.8679 4.13209 21.2972 4.62024 21.6518C5.42656 22.2377 6.37094 22.5 7.53648 22.6263C8.67859 22.75 10.1182 22.75 11.9547 22.75H12.0453C13.8818 22.75 15.3214 22.75 16.4635 22.6263C17.6291 22.5 18.5734 22.2377 19.3798 21.6518C19.8679 21.2972 20.2972 20.8679 20.6518 20.3798C21.2377 19.5734 21.5 18.6291 21.6263 17.4635C21.75 16.3214 21.75 14.8818 21.75 13.0453V10.9547C21.75 9.11824 21.75 7.67859 21.6263 6.53648C21.5 5.37094 21.2377 4.42656 20.6518 3.62024C20.2972 3.13209 19.8679 2.70281 19.3798 2.34815C18.5734 1.76232 17.6291 1.50001 16.4635 1.37373ZM8 9.5C8 8.94772 8.44772 8.5 9 8.5H17C17.5523 8.5 18 8.94772 18 9.5C18 10.0523 17.5523 10.5 17 10.5H9C8.44772 10.5 8 10.0523 8 9.5ZM13 14.5C13 13.9477 13.4477 13.5 14 13.5H17C17.5523 13.5 18 13.9477 18 14.5C18 15.0523 17.5523 15.5 17 15.5H14C13.4477 15.5 13 15.0523 13 14.5Z" fill="#6557FF"/>
</g>
</g>
</svg>
