<svg width="16" height="16" viewBox="0 0 16 16" fill="none" xmlns="http://www.w3.org/2000/svg">
<path d="M7.99967 1.33325C4.32634 1.33325 1.33301 4.32659 1.33301 7.99992C1.33301 11.6733 4.32634 14.6666 7.99967 14.6666C11.673 14.6666 14.6663 11.6733 14.6663 7.99992C14.6663 4.32659 11.673 1.33325 7.99967 1.33325ZM11.1863 6.46659L7.40634 10.2466C7.31301 10.3399 7.18634 10.3933 7.05301 10.3933C6.91967 10.3933 6.79301 10.3399 6.69967 10.2466L4.81301 8.35992C4.61967 8.16659 4.61967 7.84659 4.81301 7.65325C5.00634 7.45992 5.32634 7.45992 5.51967 7.65325L7.05301 9.18659L10.4797 5.75992C10.673 5.56659 10.993 5.56659 11.1863 5.75992C11.3797 5.95325 11.3797 6.26659 11.1863 6.46659Z" fill="white"/>
</svg>
