<svg width="16" height="16" viewBox="0 0 16 16" fill="none" xmlns="http://www.w3.org/2000/svg">
<g id="Time_fill">
<path id="Subtract" fill-rule="evenodd" clip-rule="evenodd" d="M8 14C11.3137 14 14 11.3137 14 8C14 4.68629 11.3137 2 8 2C4.68629 2 2 4.68629 2 8C2 11.3137 4.68629 14 8 14ZM8.66667 4.33333C8.66667 3.96514 8.36819 3.66667 8 3.66667C7.63181 3.66667 7.33333 3.96514 7.33333 4.33333V7.83333C7.33333 8.29357 7.70643 8.66667 8.16667 8.66667H10.3333C10.7015 8.66667 11 8.36819 11 8C11 7.63181 10.7015 7.33333 10.3333 7.33333H8.66667V4.33333Z" fill="#84818A"/>
</g>
</svg>
