<svg width="14" height="14" viewBox="0 0 14 14" fill="none" xmlns="http://www.w3.org/2000/svg">
<path fill-rule="evenodd" clip-rule="evenodd" d="M7 1.5C3.96243 1.5 1.5 3.96243 1.5 7C1.5 7.65109 1.65887 8.31943 1.87206 8.91886L1.87541 8.92827C2.04797 9.41344 2.18171 9.78949 2.2741 10.0789C2.36391 10.3602 2.43065 10.6063 2.44375 10.8146C2.4542 10.9808 2.45787 11.1262 2.43888 11.2797C2.41988 11.4331 2.38087 11.5733 2.3302 11.7319C2.26972 11.9213 2.17317 12.1049 2.05236 12.3046C2.01548 12.3655 1.97478 12.4305 1.93023 12.5H7C10.0376 12.5 12.5 10.0376 12.5 7C12.5 3.96243 10.0376 1.5 7 1.5ZM0.500001 7C0.500001 3.41015 3.41015 0.5 7 0.5C10.5899 0.5 13.5 3.41015 13.5 7C13.5 10.5899 10.5899 13.5 7 13.5H1C0.815603 13.5 0.646173 13.3985 0.559163 13.2359C0.472154 13.0734 0.48169 12.8761 0.583976 12.7227L0.733949 12.4977C0.94263 12.1847 1.09 11.9634 1.19673 11.787C1.30344 11.6106 1.35267 11.5058 1.37759 11.4277C1.42276 11.2863 1.43905 11.2167 1.44645 11.1568C1.45386 11.097 1.45504 11.0255 1.44572 10.8773C1.44119 10.8054 1.41144 10.6648 1.32146 10.383C1.23466 10.1111 1.10647 9.75047 0.929879 9.25395C0.694028 8.59082 0.500001 7.80403 0.500001 7ZM3.83333 5.66667C3.83333 5.39052 4.05719 5.16667 4.33333 5.16667H9.66667C9.94281 5.16667 10.1667 5.39052 10.1667 5.66667C10.1667 5.94281 9.94281 6.16667 9.66667 6.16667H4.33333C4.05719 6.16667 3.83333 5.94281 3.83333 5.66667ZM4.33333 7.83333C4.05719 7.83333 3.83333 8.05719 3.83333 8.33333C3.83333 8.60948 4.05719 8.83333 4.33333 8.83333H7C7.27614 8.83333 7.5 8.60948 7.5 8.33333C7.5 8.05719 7.27614 7.83333 7 7.83333H4.33333Z" fill="#20C9AC" fill-opacity="0.4"/>
</svg>
