<svg width="69" height="62" viewBox="0 0 69 62" fill="none" xmlns="http://www.w3.org/2000/svg">
<circle cx="38" cy="31" r="31" fill="#FFF6E0"/>
<path d="M10.6936 7C10.6936 12.2126 5.90598 16.4382 0 16.4382C5.90598 16.4382 10.6936 20.6638 10.6936 25.8764C10.6936 20.6638 15.4812 16.4382 21.3872 16.4382C15.4812 16.4382 10.6936 12.2126 10.6936 7Z" fill="#FFC13C"/>
<path d="M10.6936 7C10.6936 12.2126 5.90598 16.4382 0 16.4382C5.90598 16.4382 10.6936 20.6638 10.6936 25.8764C10.6936 20.6638 15.4812 16.4382 21.3872 16.4382C15.4812 16.4382 10.6936 12.2126 10.6936 7Z" fill="url(#paint0_linear_1604_18968)" fill-opacity="0.4"/>
<path d="M52.4368 37.9688L40.7626 17.7813C40.4831 17.2957 40.0806 16.8924 39.5956 16.612C39.1106 16.3316 38.5603 16.184 38.0001 16.184C37.4398 16.184 36.8895 16.3316 36.4045 16.612C35.9196 16.8924 35.517 17.2957 35.2376 17.7813L23.5633 37.9688C23.2797 38.4518 23.129 39.0013 23.1265 39.5615C23.124 40.1216 23.2697 40.6725 23.5489 41.1581C23.8282 41.6437 24.2309 42.0467 24.7163 42.3263C25.2017 42.6059 25.7524 42.7521 26.3126 42.75H49.6876C50.2477 42.7521 50.7984 42.6059 51.2838 42.3263C51.7692 42.0467 52.172 41.6437 52.4512 41.1581C52.7304 40.6725 52.8762 40.1216 52.8736 39.5615C52.8711 39.0013 52.7204 38.4518 52.4368 37.9688ZM36.9376 26.8125C36.9376 26.5307 37.0495 26.2605 37.2488 26.0612C37.448 25.8619 37.7183 25.75 38.0001 25.75C38.2819 25.75 38.5521 25.8619 38.7514 26.0612C38.9506 26.2605 39.0626 26.5307 39.0626 26.8125V32.125C39.0626 32.4068 38.9506 32.677 38.7514 32.8763C38.5521 33.0756 38.2819 33.1875 38.0001 33.1875C37.7183 33.1875 37.448 33.0756 37.2488 32.8763C37.0495 32.677 36.9376 32.4068 36.9376 32.125V26.8125ZM38.0001 38.5C37.6848 38.5 37.3767 38.4065 37.1146 38.2314C36.8525 38.0563 36.6483 37.8074 36.5276 37.5162C36.407 37.2249 36.3754 36.9045 36.4369 36.5953C36.4984 36.2862 36.6502 36.0022 36.8731 35.7793C37.096 35.5564 37.38 35.4046 37.6891 35.3431C37.9983 35.2816 38.3187 35.3132 38.61 35.4338C38.9012 35.5545 39.1501 35.7587 39.3252 36.0208C39.5003 36.2829 39.5938 36.591 39.5938 36.9063C39.5938 37.3289 39.4259 37.7343 39.127 38.0332C38.8281 38.3321 38.4227 38.5 38.0001 38.5Z" fill="#FFC633"/>
<defs>
<linearGradient id="paint0_linear_1604_18968" x1="6.74811" y1="12.0673" x2="17.9489" y2="24.8029" gradientUnits="userSpaceOnUse">
<stop stop-color="white" stop-opacity="0"/>
<stop offset="1" stop-color="white"/>
</linearGradient>
</defs>
</svg>
