<svg width="16" height="16" viewBox="0 0 16 16" fill="none" xmlns="http://www.w3.org/2000/svg">
<path fill-rule="evenodd" clip-rule="evenodd" d="M8 2.5C4.96243 2.5 2.5 4.96243 2.5 8C2.5 8.56376 2.61914 9.1415 2.79061 9.67774L2.82199 9.77589L2.822 9.77592C3.06282 10.529 3.19812 10.9521 3.23266 11.1073C3.33848 11.583 3.3979 11.9682 3.34275 12.3617C3.28921 12.7437 3.13401 13.0885 2.9123 13.5H8C11.0376 13.5 13.5 11.0376 13.5 8C13.5 4.96243 11.0376 2.5 8 2.5ZM1.58778 13.7169C1.53241 13.7974 1.5 13.8949 1.5 14C1.5 14.2761 1.72386 14.5 2 14.5H8C11.5899 14.5 14.5 11.5899 14.5 8C14.5 4.41015 11.5899 1.5 8 1.5C4.41015 1.5 1.5 4.41015 1.5 8C1.5 8.69811 1.64625 9.38225 1.83811 9.9823C2.11191 10.8386 2.2335 11.221 2.25653 11.3245C2.35837 11.7823 2.3811 12.0183 2.35243 12.2229C2.32376 12.4275 2.237 12.6482 2.01322 13.0603C1.96254 13.1536 1.85231 13.3201 1.58778 13.7169ZM4.83333 6.66667C4.83333 6.39052 5.05719 6.16667 5.33333 6.16667H10.6667C10.9428 6.16667 11.1667 6.39052 11.1667 6.66667C11.1667 6.94281 10.9428 7.16667 10.6667 7.16667H5.33333C5.05719 7.16667 4.83333 6.94281 4.83333 6.66667ZM5.33333 8.83333C5.05719 8.83333 4.83333 9.05719 4.83333 9.33333C4.83333 9.60948 5.05719 9.83333 5.33333 9.83333H8C8.27614 9.83333 8.5 9.60948 8.5 9.33333C8.5 9.05719 8.27614 8.83333 8 8.83333H5.33333Z" fill="#84818A"/>
</svg>
