<svg width="62" height="62" viewBox="0 0 62 62" fill="none" xmlns="http://www.w3.org/2000/svg">
<circle cx="31" cy="31" r="31" fill="#6557FF" fill-opacity="0.1"/>
<path fill-rule="evenodd" clip-rule="evenodd" d="M22.6095 31.0006C22.6095 26.3476 26.3665 22.5746 30.9998 22.5746C35.6331 22.5746 39.3901 26.3476 39.3901 31.0006C39.3901 35.6536 35.6331 39.4265 30.9998 39.4265C26.3665 39.4265 22.6095 35.6536 22.6095 31.0006ZM30.9998 18.6006C23.2394 18.6006 16.4036 23.5261 12.3998 31.0006C16.4032 38.4751 23.239 43.4006 30.9998 43.4006C38.7606 43.4006 45.596 38.4751 49.5998 31.0006C45.5964 23.5261 38.7606 18.6006 30.9998 18.6006Z" fill="#5E50FA"/>
<path fill-rule="evenodd" clip-rule="evenodd" d="M30.8036 25.7939C28.0478 25.7939 25.8127 28.0385 25.8127 30.8061C25.8127 33.5736 28.0478 35.8182 30.8036 35.8182C33.5595 35.8182 35.7946 33.5736 35.7946 30.8061C35.7946 28.0385 33.5595 25.7939 30.8036 25.7939Z" fill="#5E50FA"/>
<path d="M17.0667 31.9644C17.0667 37.1769 12.2791 41.4025 6.37317 41.4025C12.2791 41.4025 17.0667 45.6282 17.0667 50.8407C17.0667 45.6282 21.8544 41.4025 27.7603 41.4025C21.8544 41.4025 17.0667 37.1769 17.0667 31.9644Z" fill="#FFC13C"/>
<path d="M17.0667 31.9644C17.0667 37.1769 12.2791 41.4025 6.37317 41.4025C12.2791 41.4025 17.0667 45.6282 17.0667 50.8407C17.0667 45.6282 21.8544 41.4025 27.7603 41.4025C21.8544 41.4025 17.0667 37.1769 17.0667 31.9644Z" fill="url(#paint0_linear_3035_16286)" fill-opacity="0.4"/>
<path d="M44.64 13.8198C44.64 17.9432 41.309 21.2859 37.2 21.2859C41.309 21.2859 44.64 24.6286 44.64 28.752C44.64 24.6286 47.9709 21.2859 52.08 21.2859C47.9709 21.2859 44.64 17.9432 44.64 13.8198Z" fill="#61DFC6"/>
<path d="M44.64 13.8198C44.64 17.9432 41.309 21.2859 37.2 21.2859C41.309 21.2859 44.64 24.6286 44.64 28.752C44.64 24.6286 47.9709 21.2859 52.08 21.2859C47.9709 21.2859 44.64 17.9432 44.64 13.8198Z" fill="url(#paint1_linear_3035_16286)" fill-opacity="0.6"/>
<defs>
<linearGradient id="paint0_linear_3035_16286" x1="13.1213" y1="37.0317" x2="24.3221" y2="49.7672" gradientUnits="userSpaceOnUse">
<stop stop-color="white" stop-opacity="0"/>
<stop offset="1" stop-color="white"/>
</linearGradient>
<linearGradient id="paint1_linear_3035_16286" x1="37.3342" y1="17.0487" x2="45.6768" y2="23.6494" gradientUnits="userSpaceOnUse">
<stop stop-color="white"/>
<stop offset="1" stop-color="white" stop-opacity="0"/>
</linearGradient>
</defs>
</svg>
