<svg width="16" height="16" viewBox="0 0 16 16" fill="none" xmlns="http://www.w3.org/2000/svg">
<path d="M11.3335 6.66667H12.6668C14.0002 6.66667 14.6668 6 14.6668 4.66667V3.33334C14.6668 2 14.0002 1.33334 12.6668 1.33334H11.3335C10.0002 1.33334 9.3335 2 9.3335 3.33334V4.66667C9.3335 6 10.0002 6.66667 11.3335 6.66667Z" stroke="#292D32" stroke-width="1.2" stroke-miterlimit="10" stroke-linecap="round" stroke-linejoin="round"/>
<path d="M3.3335 14.6667H4.66683C6.00016 14.6667 6.66683 14 6.66683 12.6667V11.3333C6.66683 10 6.00016 9.33334 4.66683 9.33334H3.3335C2.00016 9.33334 1.3335 10 1.3335 11.3333V12.6667C1.3335 14 2.00016 14.6667 3.3335 14.6667Z" stroke="#292D32" stroke-width="1.2" stroke-miterlimit="10" stroke-linecap="round" stroke-linejoin="round"/>
<path d="M4.00016 6.66667C5.47292 6.66667 6.66683 5.47276 6.66683 4C6.66683 2.52724 5.47292 1.33334 4.00016 1.33334C2.5274 1.33334 1.3335 2.52724 1.3335 4C1.3335 5.47276 2.5274 6.66667 4.00016 6.66667Z" stroke="#292D32" stroke-width="1.2" stroke-miterlimit="10" stroke-linecap="round" stroke-linejoin="round"/>
<path d="M12.0002 14.6667C13.4729 14.6667 14.6668 13.4728 14.6668 12C14.6668 10.5272 13.4729 9.33334 12.0002 9.33334C10.5274 9.33334 9.3335 10.5272 9.3335 12C9.3335 13.4728 10.5274 14.6667 12.0002 14.6667Z" stroke="#292D32" stroke-width="1.2" stroke-miterlimit="10" stroke-linecap="round" stroke-linejoin="round"/>
</svg>
