<svg width="48" height="48" viewBox="0 0 48 48" fill="none" xmlns="http://www.w3.org/2000/svg">
<path d="M11.94 2H6.06C3.52 2 2 3.52 2 6.06V11.94C2 14.48 3.52 16 6.06 16H11.94C14.48 16 16 14.48 16 11.94V6.06C16 3.52 14.48 2 11.94 2ZM12.94 11.12C13.44 11.62 13.44 12.44 12.94 12.94C12.68 13.18 12.34 13.3 12.02 13.3C11.7 13.3 11.38 13.18 11.12 12.94L8.98 10.82L6.9 12.94C6.64 13.18 6.32 13.3 5.96 13.3C5.64 13.3 5.32 13.18 5.06 12.94C4.56 12.44 4.56 11.62 5.06 11.12L7.2 9L5.08 6.9C4.58 6.4 4.58 5.58 5.08 5.08C5.58 4.58 6.4 4.58 6.9 5.08L8.98 7.2L11.1 5.08C11.6 4.58 12.42 4.58 12.92 5.08C13.42 5.58 13.42 6.4 12.92 6.9L10.82 9L12.94 11.12Z" fill="#FFC633"/>
<path d="M42.9999 31.6404C42.9999 31.9404 42.8999 32.2404 42.6399 32.5004C39.7399 35.4204 34.5799 40.6203 31.6199 43.6003C31.3599 43.8803 31.0199 44.0004 30.6799 44.0004C30.0199 44.0004 29.3799 43.4804 29.3799 42.7204V35.7204C29.3799 32.8004 31.8599 30.3804 34.8999 30.3804C36.7999 30.3604 39.4399 30.3604 41.6999 30.3604C42.4799 30.3604 42.9999 30.9804 42.9999 31.6404Z" fill="#FFC633"/>
<path d="M42.9999 31.6404C42.9999 31.9404 42.8999 32.2404 42.6399 32.5004C39.7399 35.4204 34.5799 40.6203 31.6199 43.6003C31.3599 43.8803 31.0199 44.0004 30.6799 44.0004C30.0199 44.0004 29.3799 43.4804 29.3799 42.7204V35.7204C29.3799 32.8004 31.8599 30.3804 34.8999 30.3804C36.7999 30.3604 39.4399 30.3604 41.6999 30.3604C42.4799 30.3604 42.9999 30.9804 42.9999 31.6404Z" fill="#FFC633"/>
<path d="M33.26 4H21C19.9 4 19 4.9 19 6V13C19 16.32 16.32 19 13 19H7C5.9 19 5 19.9 5 21V34.26C5 39.64 9.36 44 14.74 44H24.38C25.48 44 26.38 43.1 26.38 42V35.72C26.38 31.12 30.2 27.38 34.9 27.38C35.96 27.36 38.54 27.36 41 27.36C42.1 27.36 43 26.48 43 25.36V13.74C43 8.36 38.64 4 33.26 4ZM17.44 34.02H12.16C11.34 34.02 10.66 33.34 10.66 32.52C10.66 31.68 11.34 31 12.16 31H17.44C18.3 31 18.94 31.68 18.94 32.52C18.94 33.34 18.3 34.02 17.44 34.02ZM23.02 26.6H12.16C11.34 26.6 10.66 25.92 10.66 25.1C10.66 24.26 11.34 23.58 12.16 23.58H23.02C23.84 23.58 24.54 24.26 24.54 25.1C24.54 25.92 23.84 26.6 23.02 26.6Z" fill="#FFC633"/>
</svg>
