<svg width="149" height="154" viewBox="0 0 149 154" fill="none" xmlns="http://www.w3.org/2000/svg">
<path d="M73.6829 137.794C104.151 137.794 128.811 113.021 128.811 82.4566C128.811 51.8919 104.151 27.2085 73.6829 27.2085C43.2152 27.2085 18.5551 51.981 18.5551 82.5457C18.5551 113.199 43.3045 137.794 73.6829 137.794Z" fill="#EAEEF9"/>
<path d="M100.015 137.673C91.6162 137.94 81.5198 137.673 74.372 137.584C67.3135 137.851 57.1277 137.94 48.729 137.673C57.0384 132.95 59.9869 124.128 60.3443 118.336H88.221C88.8464 124.039 91.7949 132.861 100.015 137.673Z" fill="#D5DDEA"/>
<g filter="url(#filter0_d_5726_13276)">
<path d="M126.998 44.5533V117.356C126.998 119.227 125.569 120.564 123.96 120.564H25.3198C23.6222 120.564 22.282 119.138 22.282 117.356V44.5533C22.282 42.8602 23.7116 41.3453 25.3198 41.3453H123.782C125.658 41.3453 126.998 42.8602 126.998 44.5533Z" fill="white"/>
</g>
<path d="M126.998 44.5533V107.197H22.282V44.5533C22.282 42.8602 23.7116 41.3453 25.3198 41.3453H123.782C125.658 41.3453 126.998 42.8602 126.998 44.5533Z" fill="#989FB0"/>
<path d="M127.245 43.7397V106.885H22.5968V43.7397C22.5968 42.0197 24.0621 40.5455 25.6496 40.5455H124.07C125.902 40.5455 127.245 42.0197 127.245 43.7397Z" fill="#989FB0"/>
<path d="M123.386 45.2173H26.3342V103.148H123.508V45.2173H123.386Z" fill="white"/>
<path d="M76.9632 49.0085H72.1384V67.9786H76.9632V49.0085Z" fill="#D5DDEA"/>
<path d="M74.4613 116.109C75.8909 116.109 77.0524 115.039 77.0524 113.524C77.0524 112.099 75.9803 110.94 74.4613 110.94C73.0318 110.94 71.8702 112.01 71.8702 113.524C71.8702 115.039 72.9424 116.109 74.4613 116.109Z" fill="#D6DDE8"/>
<path d="M2 137.762H143.17" stroke="#D6DDE8" stroke-width="2" stroke-miterlimit="10" stroke-linecap="round" stroke-linejoin="round"/>
<path d="M11.9433 75.9513C13.9983 75.9513 15.6066 74.3473 15.6066 72.2978C15.6066 70.2483 13.9983 68.6443 11.9433 68.6443C9.8883 68.6443 8.28003 70.2483 8.28003 72.2978C8.28003 74.2582 9.97765 75.9513 11.9433 75.9513Z" fill="#EAEEF9"/>
<path d="M8.28007 64.0998C9.6203 64.0998 10.7818 62.9413 10.7818 61.6047C10.7818 60.268 9.6203 59.1096 8.28007 59.1096C6.93985 59.1096 5.77832 60.268 5.77832 61.6047C5.77832 62.9413 6.93985 64.0998 8.28007 64.0998Z" fill="#EAEEF9"/>
<path d="M112.907 34.8717C114.247 34.8717 115.409 33.7133 115.409 32.3767C115.409 31.04 114.247 29.8816 112.907 29.8816C111.567 29.8816 110.405 31.04 110.405 32.3767C110.405 33.7133 111.477 34.8717 112.907 34.8717Z" fill="#EAEEF9"/>
<path d="M139.354 85.1297C141.945 85.1297 144 83.0802 144 80.496C144 77.9118 141.945 75.8623 139.354 75.8623C136.763 75.8623 134.708 77.9118 134.708 80.496C134.708 83.0802 136.763 85.1297 139.354 85.1297Z" fill="#EAEEF9"/>
<path d="M74.4538 98.476C84.5165 98.476 92.6739 90.3186 92.6739 80.2559C92.6739 70.1933 84.5165 62.0359 74.4538 62.0359C64.3912 62.0359 56.2338 70.1933 56.2338 80.2559C56.2338 90.3186 64.3912 98.476 74.4538 98.476Z" fill="#6557FF"/>
<path d="M54.8047 98.1081C50.0692 93.4744 47.3888 87.2367 47.2994 80.6426H48.8183C49.7118 80.6426 50.1586 79.6624 49.6225 78.9495L46.4059 74.8505C45.9592 74.3158 45.1551 74.3158 44.7083 74.8505L41.4918 78.9495C40.9557 79.6624 41.4918 80.6426 42.2959 80.6426H43.6361C43.7255 88.2169 46.8527 95.3457 52.3029 100.692C52.6603 101.049 53.1071 101.227 53.5538 101.227C54.0005 101.227 54.4473 101.049 54.8047 100.692C55.5195 99.8903 55.5195 98.821 54.8047 98.1081Z" fill="#FFC633"/>
<path d="M106.269 79.7517H104.84C104.751 72.1774 101.713 65.1377 96.3518 59.7911C95.637 59.0783 94.5648 59.0783 93.8501 59.7911C93.1353 60.504 93.1353 61.5733 93.8501 62.2862C98.5855 66.9199 101.177 73.1576 101.266 79.7517H99.8364C98.9429 79.7517 98.4962 80.7319 99.0323 81.4448L102.249 85.5439C102.696 86.0785 103.5 86.0785 103.946 85.5439L107.163 81.4448C107.61 80.7319 107.163 79.7517 106.269 79.7517Z" fill="#FFC633"/>
<g filter="url(#filter1_d_5726_13276)">
<path d="M107.624 41.0751C107.624 47.5762 102.366 52.8337 95.8084 52.8337C95.6953 52.8337 94.7343 52.8337 87.6678 52.8337C82.7495 52.8337 74.8915 52.8337 62.3414 52.8337H56.3491C48.4911 53.0033 42.2161 46.7283 42.2161 39.153C42.2161 31.5212 48.5476 25.1896 56.5187 25.5853C63.359 4.21621 94.6777 7.2124 97.3347 29.3164C103.214 30.0513 107.624 35.0261 107.624 41.0751Z" fill="url(#paint0_linear_5726_13276)"/>
</g>
<path d="M95.8086 52.8336C102.31 52.8336 107.624 47.5761 107.624 41.0749C107.624 34.5738 102.31 29.3163 95.8086 29.3163C89.3074 29.3163 83.9934 34.5738 83.9934 41.0749C83.9934 47.5761 89.3074 52.8336 95.8086 52.8336Z" fill="url(#paint1_linear_5726_13276)"/>
<path d="M76.5309 52.9467C88.1199 52.9467 97.5608 43.5624 97.5608 31.9734C97.5608 20.3843 88.1199 11 76.5309 11C64.9418 11 55.501 20.3843 55.501 31.9734C55.501 43.5624 64.8853 52.9467 76.5309 52.9467Z" fill="url(#paint2_linear_5726_13276)"/>
<path d="M71.1289 42C70.6453 42 70.1902 41.8262 69.8203 41.4495L63.5334 35.0464C62.8222 34.3221 62.8222 33.1052 63.5334 32.3809C64.2446 31.6566 65.4394 31.6566 66.1506 32.3809L71.1289 37.4512L82.8494 25.5432C83.5606 24.8189 84.7554 24.8189 85.4666 25.5432C86.1778 26.2676 86.1778 27.4844 85.4666 28.2088L72.4375 41.4495C72.0962 41.8262 71.6126 42 71.1289 42Z" fill="url(#paint3_linear_5726_13276)"/>
<path d="M85.1639 79.1799C85.1639 78.1515 84.2173 78.1515 83.4285 77.9933C82.6397 77.835 82.5608 77.2021 82.2453 76.4901C81.6143 75.2243 83.9807 74.5123 82.7186 73.3256C81.5354 72.139 80.8255 71.1105 79.8789 71.8225C79.2479 72.2972 78.7746 72.7719 78.0647 72.4554C77.3548 72.139 76.6449 72.0599 76.566 71.2687C76.2505 69.2118 76.1716 69.5283 73.4108 69.5283C71.6754 69.5283 72.8586 71.6643 71.5177 72.139C70.7289 72.3763 70.2556 72.851 69.6246 72.3763C67.9681 71.1105 68.1259 71.427 66.1539 73.4048C65.444 74.1168 65.9961 74.7497 66.5483 75.4617C67.0216 76.0946 66.6272 76.6484 66.3116 77.3604C65.8384 78.7053 63.7086 77.5186 63.7086 79.2591C63.7086 80.0502 63.7086 80.8413 63.7875 81.6324C64.103 82.5818 64.8918 82.1862 65.7595 82.5027C65.7595 82.5027 65.8384 82.5027 65.8384 82.5818C65.8384 82.5818 65.8384 82.5818 65.9172 82.5818C66.1539 82.74 66.2328 82.8982 66.3116 83.1356C66.3116 83.2147 66.4694 83.452 66.4694 83.5311C66.706 84.164 66.9427 84.4805 66.5483 85.0343C65.3651 86.6165 65.5228 86.5374 67.5737 88.5152C68.7569 89.7019 69.4668 87.4076 70.7289 88.0405C71.2022 88.2779 71.991 88.4361 72.1487 88.9899C72.3065 89.3854 72.2276 90.0183 72.4642 90.4139C72.8586 91.205 74.0418 90.9677 75.3828 90.9677C77.1181 90.9677 75.935 88.8316 77.2759 88.357C78.8535 87.8032 78.538 87.645 79.8789 88.5943C80.8255 89.3063 81.6143 88.1196 82.7186 87.0912C83.9018 85.9045 81.6143 85.1925 82.2453 83.9267C82.4031 83.6893 82.482 83.3729 82.5608 83.1356C82.7975 82.4236 83.5074 82.4236 84.2173 82.3444C85.4794 82.028 85.1639 80.8413 85.1639 79.1799ZM74.4362 83.9267C72.3854 83.9267 70.7289 82.2653 70.7289 80.2084C70.7289 78.1515 72.3854 76.4901 74.4362 76.4901C76.4871 76.4901 78.1436 78.1515 78.1436 80.2084C78.2225 82.2653 76.566 83.9267 74.4362 83.9267C74.5151 83.9267 74.4362 83.9267 74.4362 83.9267Z" fill="white"/>
<defs>
<filter id="filter0_d_5726_13276" x="0.281982" y="30.3453" width="148.716" height="123.219" filterUnits="userSpaceOnUse" color-interpolation-filters="sRGB">
<feFlood flood-opacity="0" result="BackgroundImageFix"/>
<feColorMatrix in="SourceAlpha" type="matrix" values="0 0 0 0 0 0 0 0 0 0 0 0 0 0 0 0 0 0 127 0" result="hardAlpha"/>
<feOffset dy="11"/>
<feGaussianBlur stdDeviation="11"/>
<feColorMatrix type="matrix" values="0 0 0 0 0.397708 0 0 0 0 0.47749 0 0 0 0 0.575 0 0 0 0.27 0"/>
<feBlend mode="normal" in2="BackgroundImageFix" result="effect1_dropShadow_5726_13276"/>
<feBlend mode="normal" in="SourceGraphic" in2="effect1_dropShadow_5726_13276" result="shape"/>
</filter>
<filter id="filter1_d_5726_13276" x="20.2161" y="0.0511475" width="109.407" height="85.7859" filterUnits="userSpaceOnUse" color-interpolation-filters="sRGB">
<feFlood flood-opacity="0" result="BackgroundImageFix"/>
<feColorMatrix in="SourceAlpha" type="matrix" values="0 0 0 0 0 0 0 0 0 0 0 0 0 0 0 0 0 0 127 0" result="hardAlpha"/>
<feOffset dy="11"/>
<feGaussianBlur stdDeviation="11"/>
<feColorMatrix type="matrix" values="0 0 0 0 0.397708 0 0 0 0 0.47749 0 0 0 0 0.575 0 0 0 0.27 0"/>
<feBlend mode="normal" in2="BackgroundImageFix" result="effect1_dropShadow_5726_13276"/>
<feBlend mode="normal" in="SourceGraphic" in2="effect1_dropShadow_5726_13276" result="shape"/>
</filter>
<linearGradient id="paint0_linear_5726_13276" x1="74.9198" y1="28.3187" x2="74.8985" y2="53.2875" gradientUnits="userSpaceOnUse">
<stop stop-color="white"/>
<stop offset="0.9964" stop-color="#ECF0F5"/>
</linearGradient>
<linearGradient id="paint1_linear_5726_13276" x1="82.7361" y1="26.7847" x2="93.2102" y2="38.2401" gradientUnits="userSpaceOnUse">
<stop stop-color="#BCCBE1"/>
<stop offset="0.9942" stop-color="white" stop-opacity="0"/>
</linearGradient>
<linearGradient id="paint2_linear_5726_13276" x1="53.5317" y1="22.3492" x2="70.0398" y2="28.8094" gradientUnits="userSpaceOnUse">
<stop stop-color="#E2E8F0"/>
<stop offset="0.9942" stop-color="white" stop-opacity="0"/>
</linearGradient>
<linearGradient id="paint3_linear_5726_13276" x1="74.5018" y1="25.5906" x2="74.5018" y2="35.1325" gradientUnits="userSpaceOnUse">
<stop stop-color="#B0BACC"/>
<stop offset="1" stop-color="#969EAE"/>
</linearGradient>
</defs>
</svg>
