<svg width="20" height="21" viewBox="0 0 20 21" fill="none" xmlns="http://www.w3.org/2000/svg">
<g clip-path="url(#clip0_2119_10280)">
<path d="M13.3337 18V16.3333C13.3337 15.4493 12.9826 14.6014 12.3574 13.9763C11.7323 13.3512 10.8845 13 10.0004 13H4.16707C3.28302 13 2.43517 13.3512 1.81005 13.9763C1.18493 14.6014 0.83374 15.4493 0.83374 16.3333V18" stroke="#2E2C34" stroke-width="1.81818" stroke-linecap="round" stroke-linejoin="round"/>
<path d="M14.1663 9.66667L15.8329 11.3333L19.1663 8" stroke="#2E2C34" stroke-width="1.81818" stroke-linecap="round" stroke-linejoin="round"/>
<path d="M7.08333 9.66667C8.92428 9.66667 10.4167 8.17428 10.4167 6.33333C10.4167 4.49238 8.92428 3 7.08333 3C5.24238 3 3.75 4.49238 3.75 6.33333C3.75 8.17428 5.24238 9.66667 7.08333 9.66667Z" stroke="#2E2C34" stroke-width="1.81818" stroke-linecap="round" stroke-linejoin="round"/>
</g>
<defs>
<clipPath id="clip0_2119_10280">
<rect width="20" height="20" fill="white" transform="translate(0 0.5)"/>
</clipPath>
</defs>
</svg>
