<svg width="62" height="50" viewBox="0 0 62 50" fill="none" xmlns="http://www.w3.org/2000/svg">
<rect x="19.6838" y="1.2124" width="22.77" height="47.265" rx="0.8625" fill="#FFC633" stroke="#FFC633" stroke-width="1.725"/>
<rect x="46.8781" y="6.97332" width="14.3094" height="35.7425" rx="1.225" stroke="#D8D8D8"/>
<rect x="0.449951" y="6.47332" width="15.3094" height="36.7425" rx="1.725" fill="#E3E0FF"/>
<path d="M6.03343 22.9388C5.92881 22.8312 5.78576 22.7696 5.63573 22.7675C5.4857 22.7655 5.34099 22.8231 5.23343 22.9277C5.12587 23.0323 5.06427 23.1753 5.06219 23.3254C5.0601 23.4754 5.1177 23.6201 5.22232 23.7277L6.52232 24.9999L5.22232 26.2721C5.17024 26.3238 5.12891 26.3852 5.10071 26.4529C5.0725 26.5206 5.05798 26.5932 5.05798 26.6666C5.05798 26.7399 5.0725 26.8125 5.10071 26.8802C5.12891 26.9479 5.17024 27.0094 5.22232 27.061C5.27396 27.1131 5.33541 27.1544 5.40311 27.1826C5.47081 27.2108 5.54342 27.2253 5.61676 27.2253C5.6901 27.2253 5.76271 27.2108 5.83041 27.1826C5.89811 27.1544 5.95956 27.1131 6.0112 27.061L7.67787 25.3943C7.72994 25.3427 7.77127 25.2812 7.79948 25.2135C7.82768 25.1458 7.8422 25.0732 7.8422 24.9999C7.8422 24.9265 7.82768 24.8539 7.79948 24.7862C7.77127 24.7185 7.72994 24.6571 7.67787 24.6054L6.03343 22.9388ZM10.7556 24.6054L9.08898 22.9388C8.98437 22.8342 8.84248 22.7754 8.69454 22.7754C8.54659 22.7754 8.40471 22.8342 8.30009 22.9388C8.19548 23.0434 8.13671 23.1853 8.13671 23.3332C8.13671 23.4812 8.19548 23.6231 8.30009 23.7277L9.57787 24.9999L8.30009 26.2721C8.24802 26.3238 8.20669 26.3852 8.17849 26.4529C8.15028 26.5206 8.13576 26.5932 8.13576 26.6666C8.13576 26.7399 8.15028 26.8125 8.17849 26.8802C8.20669 26.9479 8.24802 27.0094 8.30009 27.061C8.35174 27.1131 8.41318 27.1544 8.48088 27.1826C8.54858 27.2108 8.6212 27.2253 8.69454 27.2253C8.76788 27.2253 8.84049 27.2108 8.90819 27.1826C8.97589 27.1544 9.03734 27.1131 9.08898 27.061L10.7556 25.3943C10.8092 25.3442 10.8523 25.2839 10.8824 25.217C10.9125 25.1501 10.9291 25.0779 10.9312 25.0045C10.9333 24.9312 10.9208 24.8581 10.8945 24.7896C10.8681 24.7211 10.8285 24.6585 10.7779 24.6054H10.7556Z" fill="#6557FF"/>
</svg>
