<svg width="62" height="50" viewBox="0 0 62 50" fill="none" xmlns="http://www.w3.org/2000/svg">
<rect x="19.6838" y="1.2124" width="22.77" height="47.265" rx="0.8625" fill="#FFC633" stroke="#FFC633" stroke-width="1.725"/>
<rect x="46.3782" y="6.47332" width="15.3094" height="36.7425" rx="1.725" fill="#E3E0FF"/>
<rect x="0.949951" y="6.97332" width="14.3094" height="35.7425" rx="1.225" stroke="#D8D8D8"/>
<path d="M52.0333 22.9388C51.9287 22.8312 51.7856 22.7696 51.6356 22.7675C51.4856 22.7655 51.3409 22.8231 51.2333 22.9277C51.1257 23.0323 51.0641 23.1753 51.0621 23.3254C51.06 23.4754 51.1176 23.6201 51.2222 23.7277L52.5222 24.9999L51.2222 26.2721C51.1701 26.3238 51.1288 26.3852 51.1006 26.4529C51.0724 26.5206 51.0579 26.5932 51.0579 26.6666C51.0579 26.7399 51.0724 26.8125 51.1006 26.8802C51.1288 26.9479 51.1701 27.0094 51.2222 27.061C51.2738 27.1131 51.3353 27.1544 51.403 27.1826C51.4707 27.2108 51.5433 27.2253 51.6166 27.2253C51.69 27.2253 51.7626 27.2108 51.8303 27.1826C51.898 27.1544 51.9594 27.1131 52.0111 27.061L53.6777 25.3943C53.7298 25.3427 53.7712 25.2812 53.7994 25.2135C53.8276 25.1458 53.8421 25.0732 53.8421 24.9999C53.8421 24.9265 53.8276 24.8539 53.7994 24.7862C53.7712 24.7185 53.7298 24.6571 53.6777 24.6054L52.0333 22.9388ZM56.7555 24.6054L55.0889 22.9388C54.9842 22.8342 54.8424 22.7754 54.6944 22.7754C54.5465 22.7754 54.4046 22.8342 54.3 22.9388C54.1954 23.0434 54.1366 23.1853 54.1366 23.3332C54.1366 23.4812 54.1954 23.6231 54.3 23.7277L55.5777 24.9999L54.3 26.2721C54.2479 26.3238 54.2066 26.3852 54.1784 26.4529C54.1502 26.5206 54.1356 26.5932 54.1356 26.6666C54.1356 26.7399 54.1502 26.8125 54.1784 26.8802C54.2066 26.9479 54.2479 27.0094 54.3 27.061C54.3516 27.1131 54.4131 27.1544 54.4808 27.1826C54.5485 27.2108 54.6211 27.2253 54.6944 27.2253C54.7678 27.2253 54.8404 27.2108 54.9081 27.1826C54.9758 27.1544 55.0372 27.1131 55.0889 27.061L56.7555 25.3943C56.8091 25.3442 56.8522 25.2839 56.8823 25.217C56.9124 25.1501 56.929 25.0779 56.9311 25.0045C56.9331 24.9312 56.9206 24.8581 56.8943 24.7896C56.868 24.7211 56.8284 24.6585 56.7777 24.6054H56.7555Z" fill="#6557FF"/>
</svg>
