<svg width="32" height="32" viewBox="0 0 32 32" fill="none" xmlns="http://www.w3.org/2000/svg">
<rect width="32" height="32" rx="16" fill="#FFC633" fill-opacity="0.1"/>
<path fill-rule="evenodd" clip-rule="evenodd" d="M14.108 8.32719C15.018 6.9958 16.982 6.99581 17.892 8.32719L18.2519 8.85382C20.5069 12.1532 22.4444 15.6587 24.0383 19.3234L24.1135 19.4963C24.6752 20.7877 23.8266 22.2542 22.427 22.4106C18.1556 22.888 13.8444 22.888 9.57301 22.4106C8.17339 22.2542 7.32475 20.7877 7.88646 19.4963L7.96164 19.3234C9.55558 15.6587 11.4931 12.1532 13.7481 8.85381L14.108 8.32719ZM16.8333 12.5C16.8333 12.9602 16.4602 13.3333 16 13.3333C15.5398 13.3333 15.1667 12.9602 15.1667 12.5C15.1667 12.0398 15.5398 11.6667 16 11.6667C16.4602 11.6667 16.8333 12.0398 16.8333 12.5ZM16 14.7917C16.3452 14.7917 16.625 15.0715 16.625 15.4167V19.5833C16.625 19.9285 16.3452 20.2083 16 20.2083C15.6548 20.2083 15.375 19.9285 15.375 19.5833V15.4167C15.375 15.0715 15.6548 14.7917 16 14.7917Z" fill="#FFC633"/>
</svg>
