<svg width="20" height="20" viewBox="0 0 20 20" fill="none" xmlns="http://www.w3.org/2000/svg">
<circle cx="10" cy="10" r="10" fill="#E3E0FF"/>
<g clip-path="url(#clip0_9512_11787)">
<path d="M23.5941 7.65018C24.1039 7.65018 24.5137 7.82707 24.8235 8.18086C25.1384 8.52904 25.2958 9.0176 25.2958 9.64656V12.3842H24.2463V9.8066C24.2463 9.44158 24.1639 9.16361 23.9989 8.97267C23.834 8.77612 23.6091 8.67785 23.3243 8.67785C23.0394 8.67785 22.812 8.77612 22.6421 8.97267C22.4772 9.16361 22.3947 9.44158 22.3947 9.8066V12.3842H21.3453V9.8066C21.3453 9.44158 21.2628 9.16361 21.0979 8.97267C20.933 8.77612 20.7081 8.67785 20.4232 8.67785C20.1334 8.67785 19.9035 8.77612 19.7336 8.97267C19.5686 9.16361 19.4862 9.44158 19.4862 9.8066V12.3842H18.4367V7.71757H19.4862V8.28194C19.6211 8.0854 19.7935 7.93096 20.0034 7.81865C20.2183 7.70634 20.4532 7.65018 20.7081 7.65018C21.0329 7.65018 21.3228 7.7288 21.5776 7.88604C21.8325 8.03766 22.0299 8.25667 22.1698 8.54307C22.3048 8.27352 22.4997 8.05732 22.7546 7.89446C23.0144 7.73161 23.2943 7.65018 23.5941 7.65018Z" fill="#060606"/>
<path fill-rule="evenodd" clip-rule="evenodd" d="M20.7081 7.69226C20.459 7.69226 20.2303 7.74707 20.0213 7.85627C19.817 7.96563 19.6495 8.11568 19.5185 8.30664L19.4463 8.41173V7.75965H18.4766V12.3421H19.4463V9.8066C19.4463 9.43541 19.5302 9.1457 19.7041 8.94432C19.8827 8.73769 20.124 8.63577 20.4232 8.63577C20.7175 8.63577 20.9539 8.73778 21.1275 8.94455C21.3013 9.14591 21.3851 9.43555 21.3851 9.8066V12.3421H22.3549V9.8066C22.3549 9.43541 22.4387 9.1457 22.6126 8.94432C22.7911 8.73785 23.0298 8.63577 23.3243 8.63577C23.6186 8.63577 23.855 8.73778 24.0286 8.94455C24.2024 9.14592 24.2862 9.43556 24.2862 9.8066V12.3421H25.2559V9.64656C25.2559 9.02499 25.1005 8.54809 24.7947 8.20992L24.7943 8.20943C24.4929 7.86531 24.0942 7.69226 23.5941 7.69226C23.3016 7.69226 23.0288 7.77159 22.775 7.93056C22.5262 8.08959 22.3365 8.3002 22.2051 8.56273L22.1694 8.634L22.1344 8.56236C21.9979 8.28293 21.8059 8.07011 21.5581 7.9227L21.5575 7.92237C21.3093 7.76927 21.0266 7.69226 20.7081 7.69226ZM19.9857 7.78094C20.2065 7.66557 20.4475 7.6081 20.7081 7.6081C21.0391 7.6081 21.336 7.68828 21.5975 7.84955C21.8387 7.9931 22.0297 8.19548 22.1703 8.45575C22.3066 8.2105 22.4947 8.01131 22.7339 7.85846L22.7342 7.85828C23.0002 7.6916 23.2871 7.6081 23.5941 7.6081C24.1134 7.6081 24.5343 7.78876 24.8526 8.15205C25.1763 8.5102 25.3357 9.01035 25.3357 9.64656V12.4263H24.2064V9.8066C24.2064 9.44775 24.1254 9.18152 23.9695 9.00103L23.9691 9.00058C23.8129 8.8144 23.5996 8.71993 23.3243 8.71993C23.049 8.71993 22.8329 8.81441 22.6716 9.00103C22.5157 9.18152 22.4346 9.44775 22.4346 9.8066V12.4263H21.3054V9.8066C21.3054 9.44775 21.2243 9.18152 21.0684 9.00103L21.068 9.00058C20.9118 8.8144 20.6985 8.71993 20.4232 8.71993C20.1427 8.71993 19.9242 8.81457 19.763 9.00103C19.6071 9.18152 19.526 9.44775 19.526 9.8066V12.4263H18.3968V7.67549H19.526V8.16036C19.6525 8.00373 19.8057 7.87728 19.9854 7.78112L19.9857 7.78094Z" fill="#060606"/>
<path d="M30.2123 10.0263C30.2123 10.194 30.202 10.3449 30.1812 10.4791H27.0278C27.0538 10.8145 27.1628 11.0773 27.3548 11.2673C27.5469 11.4574 27.7831 11.5524 28.0634 11.5524C28.4683 11.5524 28.7563 11.3652 28.9276 10.9906H30.1033C29.9788 11.4378 29.74 11.8068 29.387 12.0975C29.034 12.3826 28.6006 12.5252 28.0867 12.5252C27.6715 12.5252 27.2977 12.4273 26.9655 12.2317C26.6385 12.0304 26.3816 11.7481 26.1947 11.3847C26.013 11.0214 25.9222 10.6021 25.9222 10.1269C25.9222 9.6461 26.013 9.22402 26.1947 8.86064C26.3764 8.49727 26.6307 8.21774 26.9578 8.02208C27.2848 7.82641 27.6611 7.72858 28.0867 7.72858C28.4968 7.72858 28.8628 7.82362 29.1846 8.01369C29.5116 8.20377 29.7633 8.4749 29.9398 8.8271C30.1215 9.17371 30.2123 9.57343 30.2123 10.0263ZM29.0834 9.69083C29.0782 9.38894 28.9769 9.14855 28.7797 8.96966C28.5825 8.78517 28.3411 8.69293 28.0556 8.69293C27.7857 8.69293 27.5573 8.78238 27.3704 8.96127C27.1887 9.13458 27.0771 9.37776 27.0356 9.69083H29.0834Z" fill="#060606"/>
<path d="M39.4705 8.4749C39.6106 8.26247 39.8027 8.08637 40.0467 7.94661C40.2958 7.80125 40.5787 7.72858 40.8953 7.72858C41.2639 7.72858 41.5961 7.82641 41.892 8.02208C42.193 8.21774 42.4292 8.49727 42.6005 8.86064C42.777 9.21843 42.8652 9.63492 42.8652 10.1101C42.8652 10.5853 42.777 11.0074 42.6005 11.3763C42.4292 11.7397 42.193 12.022 41.892 12.2233C41.5961 12.4246 41.2639 12.5252 40.8953 12.5252C40.5787 12.5252 40.2984 12.4553 40.0544 12.3155C39.8157 12.1758 39.621 11.9997 39.4705 11.7872V14.6635H38.3804V7.80405H39.4705V8.4749ZM41.7518 10.1101C41.7518 9.83059 41.6973 9.5902 41.5883 9.38894C41.4845 9.1821 41.3443 9.02556 41.1679 8.91934C40.9966 8.81313 40.8097 8.76002 40.6073 8.76002C40.41 8.76002 40.2231 8.81592 40.0467 8.92773C39.8754 9.03395 39.7352 9.19048 39.6262 9.39733C39.5224 9.60417 39.4705 9.84736 39.4705 10.1269C39.4705 10.4064 39.5224 10.6496 39.6262 10.8564C39.7352 11.0633 39.8754 11.2226 40.0467 11.3344C40.2231 11.4406 40.41 11.4937 40.6073 11.4937C40.8097 11.4937 40.9966 11.4378 41.1679 11.326C41.3443 11.2142 41.4845 11.0549 41.5883 10.848C41.6973 10.6412 41.7518 10.3952 41.7518 10.1101Z" fill="#060606"/>
<path d="M45.7751 7.73696C46.1022 7.73696 46.3928 7.81523 46.6472 7.97176C46.9015 8.12271 47.0988 8.34912 47.2389 8.651C47.3843 8.9473 47.4569 9.30509 47.4569 9.72437V12.4497H46.3669V9.8837C46.3669 9.51473 46.2812 9.23241 46.11 9.03674C45.9387 8.83549 45.7051 8.73486 45.4092 8.73486C45.1081 8.73486 44.8694 8.83549 44.6929 9.03674C44.5216 9.23241 44.4359 9.51473 44.4359 9.8837V12.4497H43.3459V5.37081H44.4359V8.38266C44.5761 8.1814 44.763 8.02487 44.9965 7.91306C45.2301 7.79566 45.4897 7.73696 45.7751 7.73696Z" fill="#060606"/>
<path d="M48.7349 7.2506C48.5428 7.2506 48.3819 7.18631 48.2522 7.05773C48.1276 6.92355 48.0653 6.75864 48.0653 6.56297C48.0653 6.36731 48.1276 6.20518 48.2522 6.0766C48.3819 5.94243 48.5428 5.87535 48.7349 5.87535C48.9269 5.87535 49.0853 5.94243 49.2098 6.0766C49.3396 6.20518 49.4045 6.36731 49.4045 6.56297C49.4045 6.75864 49.3396 6.92355 49.2098 7.05773C49.0853 7.18631 48.9269 7.2506 48.7349 7.2506ZM49.2721 7.80405V12.4497H48.1821V7.80405H49.2721Z" fill="#060606"/>
<path d="M51.6883 12.5252C51.3353 12.5252 51.0187 12.4581 50.7384 12.3239C50.4581 12.1842 50.2349 11.9969 50.0688 11.7621C49.9079 11.5273 49.8196 11.2673 49.8041 10.9822H50.9019C50.9227 11.1611 51.0031 11.3093 51.1433 11.4267C51.2886 11.5441 51.4677 11.6028 51.6805 11.6028C51.8881 11.6028 52.0491 11.558 52.1633 11.4686C52.2826 11.3791 52.3423 11.2645 52.3423 11.1248C52.3423 10.9738 52.2697 10.862 52.1243 10.7893C51.9842 10.7111 51.7584 10.6272 51.4469 10.5378C51.1251 10.4539 50.8604 10.3673 50.6528 10.2778C50.4503 10.1884 50.2738 10.0514 50.1233 9.86692C49.978 9.68244 49.9053 9.43367 49.9053 9.1206C49.9053 8.86344 49.9728 8.62864 50.1077 8.4162C50.2479 8.20377 50.4451 8.03605 50.6995 7.91306C50.959 7.79007 51.2627 7.72858 51.6104 7.72858C52.1243 7.72858 52.5344 7.86834 52.8406 8.14786C53.1469 8.42179 53.3156 8.79356 53.3467 9.26316H52.3034C52.2878 9.07867 52.2152 8.93332 52.0854 8.8271C51.9608 8.71529 51.7921 8.65939 51.5793 8.65939C51.3821 8.65939 51.2289 8.69852 51.1199 8.77679C51.0161 8.85505 50.9642 8.96407 50.9642 9.10383C50.9642 9.26036 51.0369 9.38056 51.1822 9.46441C51.3276 9.54268 51.5534 9.62374 51.8596 9.7076C52.171 9.79145 52.428 9.87811 52.6304 9.96755C52.8329 10.057 53.0068 10.1968 53.1521 10.3868C53.3026 10.5713 53.3805 10.8173 53.3857 11.1248C53.3857 11.3931 53.3156 11.6335 53.1754 11.8459C53.0405 12.0584 52.8432 12.2261 52.5837 12.3491C52.3294 12.4665 52.0309 12.5252 51.6883 12.5252Z" fill="#060606"/>
<path d="M36.0057 7.65015C36.5155 7.65015 36.9253 7.82705 37.2351 8.18084C37.55 8.52901 37.7074 9.01757 37.7074 9.64653V12.3842H36.6579V9.80658C36.6579 9.44156 36.5755 9.16358 36.4105 8.97265C36.2456 8.7761 36.0207 8.67783 35.7359 8.67783C35.451 8.67783 35.2236 8.7761 35.0537 8.97265C34.8888 9.16358 34.8063 9.44156 34.8063 9.80658V12.3842H33.7569V9.80658C33.7569 9.44156 33.6744 9.16358 33.5095 8.97265C33.3446 8.7761 33.1197 8.67783 32.8348 8.67783C32.545 8.67783 32.3151 8.7761 32.1451 8.97265C31.9802 9.16358 31.8978 9.44156 31.8978 9.80658V12.3842H30.8483V7.71754H31.8978V8.28192C32.0327 8.08537 32.2051 7.93094 32.415 7.81862C32.6299 7.70631 32.8648 7.65015 33.1197 7.65015C33.4445 7.65015 33.7344 7.72877 33.9892 7.88601C34.2441 8.03764 34.4415 8.25665 34.5814 8.54305C34.7164 8.2735 34.9113 8.05729 35.1662 7.89444C35.426 7.73158 35.7059 7.65015 36.0057 7.65015Z" fill="#060606"/>
<path fill-rule="evenodd" clip-rule="evenodd" d="M9.87193 14.2156C9.84169 14.3433 9.78094 14.4533 9.69189 14.5592C9.59497 14.6727 9.45967 14.7699 9.31498 14.8462C8.9856 15.0201 8.60354 15.0724 8.22669 15.0211L8.22421 15.0208L8.22173 15.0205C7.88017 14.9832 7.55156 14.8345 7.29399 14.5886L4.24582 11.399L4.24553 11.3987C4.15908 11.3074 4.10021 11.2315 4.06219 11.1412C4.02038 11.0419 4.00019 10.9457 4 10.8372L4.02651 9.07401L4.02608 9.06622C4.01636 8.89177 4.07248 8.72318 4.21128 8.56539L4.21233 8.5642L4.21336 8.56299C4.30987 8.4498 4.44456 8.35281 4.58871 8.27649C4.91331 8.1151 5.30982 8.05972 5.68634 8.1094C6.0649 8.15935 6.40265 8.31247 6.62112 8.54308L6.62158 8.54356L9.67764 11.7275L9.68151 11.7311C9.77073 11.8148 9.83375 11.9224 9.87795 12.0507C9.9082 12.1385 9.92639 12.2159 9.93189 12.2917L9.89244 14.0826V14.085C9.89244 14.1138 9.88444 14.1627 9.87193 14.2156Z" fill="#FFC633"/>
<path d="M11.1974 8.01331C11.2482 8.09546 11.289 8.18458 11.3183 8.27858C11.3563 8.40021 11.3845 8.58997 11.3823 8.71697L11.3722 9.34943L13.4073 11.4968C13.6649 11.7427 13.9935 11.8914 14.335 11.9287L14.3375 11.929L14.34 11.9293C14.7168 11.9806 15.0989 11.9283 15.4283 11.7544C15.573 11.6781 15.7083 11.5809 15.8052 11.4674C15.8942 11.3615 15.955 11.2515 15.9852 11.1238C15.9977 11.071 16.0057 11.022 16.0057 10.9932V10.9908L16.0452 9.19991C16.0439 9.18252 16.042 9.165 16.0394 9.14724L11.1974 8.01331Z" fill="#6557FF"/>
<path d="M16.0393 9.14683C16.0307 9.08829 16.0147 9.02707 15.9912 8.95891C15.947 8.83062 15.884 8.72305 15.7948 8.63934L15.7909 8.63571L12.7349 5.45177L12.7344 5.45128C12.5159 5.22067 12.1782 5.06756 11.7996 5.01761C11.4231 4.96793 11.0266 5.0233 10.702 5.1847C10.5578 5.26101 10.4232 5.35801 10.3267 5.4712L10.3256 5.47241L10.3246 5.4736C10.1858 5.63138 10.1296 5.79998 10.1394 5.97442L10.1398 5.98222L10.1132 7.32496C10.452 7.41266 10.7754 7.54033 11.0108 7.78499C11.0827 7.85228 11.1453 7.92915 11.1974 8.01331L16.0393 9.14683Z" fill="#6557FF"/>
<path d="M16.2435 9.19464L16.2435 9.19423Z" fill="#6557FF"/>
<path d="M16.2435 9.19464L16.2435 9.19505Z" fill="#6557FF"/>
<path d="M10.8912 11.1029C10.8968 11.0968 10.9023 11.0906 10.9078 11.0843C11.0145 10.9636 11.0904 10.8163 11.1285 10.6562C11.1428 10.596 11.1508 10.5342 11.1522 10.4721L11.184 8.66866C11.1828 8.72946 11.1634 8.62056 11.1497 8.67965C11.1619 8.62009 11.183 8.73301 11.184 8.67257L11.184 8.67243C11.1856 8.56905 11.1709 8.46566 11.14 8.36665C11.091 8.20971 11.003 8.06947 10.8854 7.96049C10.3675 7.418 9.35015 7.28134 8.62087 7.65369C8.45593 7.73553 8.30746 7.8501 8.18356 7.99117C8.00573 8.19641 7.92103 8.43761 7.93763 8.6793L7.93457 8.83397L10.8912 11.1029L10.8911 11.103L7.93457 8.83397L7.92032 9.55395L9.85887 11.5736C9.87014 11.5842 9.88105 11.595 9.89162 11.6061C10.0936 11.5747 10.29 11.5142 10.4692 11.4232C10.6271 11.3443 10.7701 11.2358 10.8911 11.103L10.8912 11.1029Z" fill="#61DFC6"/>
</g>
<defs>
<clipPath id="clip0_9512_11787">
<rect width="12" height="10" fill="white" transform="translate(4 5)"/>
</clipPath>
</defs>
</svg>
