<svg width="28" height="29" viewBox="0 0 28 29" fill="none" xmlns="http://www.w3.org/2000/svg">
<path fill-rule="evenodd" clip-rule="evenodd" d="M19.5839 15.5342C20.072 15.4651 20.4482 15.0284 20.4482 14.5C20.4482 13.9235 20.0005 13.4562 19.4482 13.4562L10.9728 13.4562L14.2761 10.0236L14.3732 9.90678C14.6645 9.49882 14.6334 8.91889 14.2791 8.54755C13.8894 8.13907 13.2563 8.13766 12.8649 8.5444L7.84624 13.7604L7.84357 13.7636C7.81089 13.7978 7.78048 13.8345 7.75258 13.8732L7.74892 13.8776C7.45695 14.2868 7.48939 14.8687 7.84624 15.2396L12.8649 20.4556L12.9773 20.5564C13.3694 20.8587 13.9249 20.8238 14.2791 20.4524L14.3757 20.3351C14.6653 19.9259 14.6319 19.3461 14.2761 18.9763L10.9747 15.5437L19.4482 15.5437L19.5839 15.5342Z" fill="#4F4F4F"/>
<path opacity="0.1" fill-rule="evenodd" clip-rule="evenodd" d="M27.3335 8.4685L27.3335 20.5329C27.3335 25.2696 24.0944 28.4167 19.4455 28.4167L8.55483 28.4167C3.91078 28.4167 0.66683 25.2602 0.66683 20.5329L0.66683 8.4685C0.66683 3.73156 3.90617 0.583313 8.55483 0.583313L19.4455 0.583313C24.0942 0.583313 27.3335 3.73156 27.3335 8.4685ZM25.3335 20.5329L25.3335 8.4685C25.3335 4.91905 23.0202 2.67081 19.4455 2.67081L8.55483 2.67081C4.98011 2.67081 2.66683 4.91905 2.66683 8.4685L2.66683 20.5329C2.66683 24.0733 4.9852 26.3292 8.55483 26.3292L19.4455 26.3292C23.0206 26.3292 25.3335 24.0819 25.3335 20.5329Z" fill="#4F4F4F"/>
</svg>
