<svg width="79" height="38" viewBox="0 0 79 38" fill="none" xmlns="http://www.w3.org/2000/svg">
<path fill-rule="evenodd" clip-rule="evenodd" d="M23.3043 34.6493C23.1843 35.1294 22.9432 35.5431 22.5897 35.9412C22.2051 36.3679 21.6681 36.7333 21.0939 37.0205C19.7867 37.6741 18.2703 37.871 16.7747 37.678L16.7649 37.6767L16.755 37.6757C15.3995 37.5355 14.0953 36.9763 13.0731 36.0519L0.975618 24.0592L0.974466 24.0581C0.631361 23.7149 0.397727 23.4295 0.246812 23.09C0.0808872 22.7166 0.000764052 22.355 0 21.9471L0.10523 15.3176L0.103506 15.2883C0.0649234 14.6324 0.287642 13.9985 0.838518 13.4053L0.842683 13.4008L0.846777 13.3963C1.22979 12.9707 1.76434 12.606 2.33645 12.3191C3.62469 11.7122 5.19836 11.504 6.69268 11.6908C8.19508 11.8786 9.53553 12.4543 10.4026 13.3214L10.4044 13.3232L22.5332 25.2945L22.5485 25.3081C22.9026 25.6229 23.1528 26.0273 23.3282 26.5096C23.4482 26.8398 23.5204 27.1307 23.5423 27.4158L23.3857 34.1493V34.1584C23.3857 34.2666 23.354 34.4507 23.3043 34.6493Z" fill="#FFC633"/>
<path d="M27.3497 22.946C27.3719 22.9229 27.3937 22.8996 27.4155 22.8762C27.8388 22.4223 28.14 21.8685 28.2911 21.2665C28.3482 21.04 28.3798 20.8079 28.3855 20.5744L28.5117 13.7936C28.5067 14.0222 28.4297 13.6127 28.3755 13.8349C28.4241 13.6109 28.5075 14.0355 28.5114 13.8083C28.5181 13.4196 28.4596 13.0303 28.3369 12.6581C28.1423 12.068 27.7934 11.5407 27.3263 11.1309C25.2709 9.09125 21.2335 8.5774 18.3391 9.9774C17.6845 10.2851 17.0953 10.7159 16.6035 11.2463C15.8978 12.018 15.5616 12.9248 15.6275 13.8336L15.5588 17.1221L23.2525 24.7159C23.2972 24.7556 23.3405 24.7963 23.3824 24.8379C24.1841 24.7198 24.9634 24.4925 25.6747 24.1504C26.3015 23.8538 26.8694 23.4454 27.3497 22.946Z" fill="#61DFC6"/>
<path d="M47.5762 14.885C47.6692 15.1413 47.7326 15.373 47.7668 15.5931C47.7771 15.6599 47.7848 15.7258 47.7898 15.7911L47.6336 22.5247V22.5338C47.6336 22.642 47.6019 22.8261 47.5524 23.0247C47.4326 23.5048 47.1921 23.9185 46.8394 24.3165C46.4556 24.7433 45.9199 25.1087 45.3469 25.3959C44.0426 26.0495 42.5297 26.2463 41.0375 26.0534L41.0276 26.0521L41.0178 26.0511C39.6653 25.9109 38.364 25.3517 37.3441 24.4273L29.2856 16.3533L29.3255 13.9753C29.334 13.4979 29.2226 12.7844 29.0722 12.3271C28.9559 11.9736 28.7946 11.6385 28.5933 11.3297C28.3871 11.0132 28.1389 10.7242 27.8545 10.4712C26.9221 9.55133 25.6416 9.07131 24.2998 8.74155L24.4053 3.69302L24.4036 3.66372C24.3651 3.00782 24.5873 2.37392 25.137 1.78067L25.1411 1.77619L25.1452 1.77164C25.5274 1.34606 26.0607 0.981375 26.6315 0.694443C27.9169 0.087617 29.487 -0.120589 30.978 0.0662001C32.477 0.254001 33.8145 0.829695 34.6796 1.69677L34.6814 1.69859L46.783 13.6698L46.7983 13.6835C47.1516 13.9982 47.4012 14.4027 47.5762 14.885Z" fill="#6557FF"/>
<path d="M57.2287 22.024C57.554 22.1467 57.7994 22.328 57.9647 22.568C58.13 22.8027 58.2127 23.0747 58.2127 23.384C58.2127 23.8853 58.0474 24.28 57.7167 24.568C57.3914 24.856 56.922 25 56.3087 25H53.7407V19.304H56.1967C56.7727 19.304 57.2127 19.44 57.5167 19.712C57.826 19.984 57.9807 20.3413 57.9807 20.784C57.9807 21.3387 57.73 21.752 57.2287 22.024ZM56.1407 20.04H54.5967V21.744H56.1407C56.8074 21.744 57.1407 21.448 57.1407 20.856C57.1407 20.6 57.0527 20.4 56.8767 20.256C56.706 20.112 56.4607 20.04 56.1407 20.04ZM54.5967 24.264H56.2607C56.6127 24.264 56.882 24.1867 57.0687 24.032C57.2554 23.8773 57.3487 23.656 57.3487 23.368C57.3487 22.76 56.986 22.456 56.2607 22.456H54.5967V24.264ZM64.9931 19.304V20.072H61.7851V21.68H64.6891V22.432H61.7851V24.232H64.9691V25H60.9291V19.304H64.9931ZM67.3437 19.304H71.9917V20.072H70.1037V25H69.2317V20.072H67.3437V19.304ZM78.6589 25H77.7549L77.1949 23.52H74.6349L74.0829 25H73.1949L75.4189 19.304H76.4029L78.6589 25ZM75.0269 22.464L74.9069 22.776H76.9149L76.7949 22.464C76.5122 21.76 76.2162 20.9813 75.9069 20.128C75.5389 21.1093 75.2455 21.888 75.0269 22.464Z" fill="black"/>
</svg>
