<svg width="16" height="16" viewBox="0 0 16 16" fill="none" xmlns="http://www.w3.org/2000/svg">
<path fill-rule="evenodd" clip-rule="evenodd" d="M6.00003 0.733398H5.97999H5.97999C5.31399 0.733396 4.78615 0.733394 4.35774 0.760208C3.92025 0.787591 3.5465 0.844592 3.19482 0.976956C2.17066 1.36242 1.36239 2.17069 0.976925 3.19485C0.844562 3.54653 0.78756 3.92028 0.760177 4.35777C0.733363 4.78618 0.733365 5.31402 0.733368 5.98002V5.98002V6.00006V6.02011V6.02011C0.733365 6.68611 0.733363 7.21395 0.760177 7.64236C0.78756 8.07985 0.844562 8.4536 0.976925 8.80528C1.36239 9.82944 2.17066 10.6377 3.19482 11.0232C3.5465 11.1555 3.92025 11.2125 4.35774 11.2399C4.47548 11.2473 4.60072 11.2526 4.73429 11.2565C4.73699 11.6096 4.74746 11.8713 4.78755 12.1062C5.05893 13.6959 6.3042 14.9412 7.89393 15.2125C8.21209 15.2669 8.57938 15.2668 9.1566 15.2667H9.15665L9.22225 15.2667H10H10.02H10.0201C10.6861 15.2667 11.2139 15.2667 11.6423 15.2399C12.0798 15.2125 12.4536 15.1555 12.8053 15.0232C13.8294 14.6377 14.6377 13.8294 15.0231 12.8053C15.1555 12.4536 15.2125 12.0798 15.2399 11.6424C15.2667 11.214 15.2667 10.6861 15.2667 10.0202V10.0201V10.0001V9.22229L15.2667 9.15665C15.2668 8.57942 15.2668 8.21212 15.2125 7.89396C14.9411 6.30424 13.6959 5.05896 12.1061 4.78759C11.8713 4.74749 11.6096 4.73702 11.2565 4.73432C11.2526 4.60076 11.2473 4.47551 11.2399 4.35777C11.2125 3.92028 11.1555 3.54653 11.0231 3.19485C10.6377 2.17069 9.82941 1.36242 8.80525 0.976956C8.45357 0.844592 8.07982 0.787591 7.64233 0.760208C7.21392 0.733394 6.68608 0.733396 6.02008 0.733398H6.02008H6.00003ZM11.2667 5.93473C11.2667 5.94977 11.2667 5.96488 11.2667 5.98006V6.00006V6.02007C11.2667 6.68609 11.2667 7.21394 11.2399 7.64236C11.2125 8.07985 11.1555 8.4536 11.0231 8.80528C10.6377 9.82944 9.82941 10.6377 8.80525 11.0232C8.45357 11.1555 8.07982 11.2125 7.64233 11.2399C7.21391 11.2667 6.68606 11.2667 6.02004 11.2667H6.00003H5.98003C5.96485 11.2667 5.94974 11.2667 5.9347 11.2667C5.93746 11.589 5.94577 11.7597 5.97044 11.9042C6.15612 12.9919 7.00815 13.844 8.09586 14.0297C8.30041 14.0646 8.55751 14.0667 9.22225 14.0667H10C10.6905 14.0667 11.1808 14.0665 11.5674 14.0423C11.9491 14.0184 12.1893 13.9728 12.3826 13.9001C13.0833 13.6363 13.6363 13.0833 13.9001 12.3826C13.9728 12.1893 14.0183 11.9491 14.0422 11.5674C14.0664 11.1809 14.0667 10.6906 14.0667 10.0001V9.22229C14.0667 8.55754 14.0645 8.30044 14.0296 8.09589C13.8439 7.00818 12.9919 6.15615 11.9042 5.97047C11.7597 5.9458 11.5889 5.93749 11.2667 5.93473ZM3.61752 2.10004C3.81078 2.02731 4.05098 1.98176 4.4327 1.95786C4.81922 1.93367 5.30955 1.9334 6.00003 1.9334C6.69052 1.9334 7.18085 1.93367 7.56737 1.95786C7.94909 1.98176 8.18929 2.02731 8.38255 2.10004C9.08329 2.36378 9.63632 2.91681 9.90006 3.61755C9.9728 3.81081 10.0183 4.05101 10.0422 4.43273C10.0664 4.81925 10.0667 5.30958 10.0667 6.00006C10.0667 6.69055 10.0664 7.18088 10.0422 7.5674C10.0183 7.94912 9.9728 8.18932 9.90006 8.38258C9.63632 9.08332 9.08329 9.63635 8.38255 9.90009C8.18929 9.97283 7.94909 10.0184 7.56737 10.0423C7.18085 10.0665 6.69052 10.0667 6.00003 10.0667C5.30955 10.0667 4.81922 10.0665 4.4327 10.0423C4.05098 10.0184 3.81078 9.97283 3.61752 9.90009C2.91678 9.63635 2.36375 9.08332 2.10001 8.38258C2.02728 8.18932 1.98173 7.94912 1.95783 7.5674C1.93364 7.18088 1.93337 6.69055 1.93337 6.00006C1.93337 5.30958 1.93364 4.81925 1.95783 4.43273C1.98173 4.05101 2.02728 3.81081 2.10001 3.61755C2.36375 2.91681 2.91678 2.36378 3.61752 2.10004Z" fill="#6557FF"/>
</svg>
