<svg width="12" height="14" viewBox="0 0 12 14" fill="none" xmlns="http://www.w3.org/2000/svg">
<path fill-rule="evenodd" clip-rule="evenodd" d="M8.43338 1.84193L8.97561 1.90947C10.2272 2.06534 11.1666 3.12906 11.1666 4.3903V11.3832C11.1666 12.6078 10.2545 13.6407 9.03926 13.792C7.02087 14.0434 4.97909 14.0434 2.9607 13.792C1.74548 13.6407 0.833313 12.6078 0.833313 11.3832V4.3903C0.833313 3.12906 1.77278 2.06534 3.02434 1.90947L3.56658 1.84193C3.78137 1.06804 4.491 0.5 5.33331 0.5H6.66665C7.50896 0.5 8.21859 1.06804 8.43338 1.84193ZM3.49998 2.85795L3.14793 2.9018C2.39699 2.99532 1.83331 3.63356 1.83331 4.3903V11.3832C1.83331 12.1034 2.3697 12.7107 3.08428 12.7997C5.0206 13.0408 6.97936 13.0408 8.91568 12.7997C9.63026 12.7107 10.1666 12.1034 10.1666 11.3832V4.3903C10.1666 3.63356 9.60297 2.99532 8.85203 2.9018L8.49998 2.85795V3.66667C8.49998 3.94281 8.27612 4.16667 7.99998 4.16667H3.99998C3.72384 4.16667 3.49998 3.94281 3.49998 3.66667V2.85795ZM4.49998 2.33333C4.49998 1.8731 4.87308 1.5 5.33331 1.5H6.66665C7.12688 1.5 7.49998 1.8731 7.49998 2.33333V3.16667H4.49998V2.33333Z" fill="#525556"/>
<path d="M8.49998 6.83333C8.49998 6.55719 8.27612 6.33333 7.99998 6.33333H3.99998C3.72384 6.33333 3.49998 6.55719 3.49998 6.83333C3.49998 7.10948 3.72384 7.33333 3.99998 7.33333H7.99998C8.27612 7.33333 8.49998 7.10948 8.49998 6.83333Z" fill="#525556"/>
<path d="M7.83331 8.83333C7.83331 8.55719 7.60946 8.33333 7.33331 8.33333H3.99998C3.72384 8.33333 3.49998 8.55719 3.49998 8.83333C3.49998 9.10948 3.72384 9.33333 3.99998 9.33333H7.33331C7.60946 9.33333 7.83331 9.10948 7.83331 8.83333Z" fill="#525556"/>
</svg>
