<svg width="23" height="22" viewBox="0 0 23 22" fill="none" xmlns="http://www.w3.org/2000/svg">
<path d="M11.4555 0C5.12963 0 0 5.04291 0 11.2638C0 16.2406 3.28235 20.4627 7.83402 21.9521C8.4065 22.0564 8.61673 21.7078 8.61673 21.4103C8.61673 21.1417 8.60604 20.2543 8.60119 19.3131C5.41416 19.9945 4.74168 17.9842 4.74168 17.9842C4.22059 16.6822 3.46977 16.3361 3.46977 16.3361C2.43045 15.6369 3.54811 15.6513 3.54811 15.6513C4.69847 15.7308 5.30419 16.8121 5.30419 16.8121C6.3259 18.5341 7.98405 18.0362 8.63776 17.7485C8.74054 17.0204 9.03747 16.5235 9.36504 16.2423C6.82067 15.9574 4.14584 14.9915 4.14584 10.6756C4.14584 9.44588 4.59335 8.44101 5.32621 7.65222C5.20725 7.36847 4.81518 6.22287 5.43716 4.67135C5.43716 4.67135 6.39912 4.36861 8.58825 5.82596C9.50197 5.57631 10.482 5.45122 11.4555 5.44698C12.4291 5.45122 13.4098 5.57631 14.3253 5.82596C16.5118 4.36861 17.4725 4.67135 17.4725 4.67135C18.096 6.22287 17.7037 7.36847 17.5848 7.65222C18.3192 8.44101 18.7637 9.44579 18.7637 10.6756C18.7637 15.0018 16.0838 15.9544 13.533 16.2332C13.9438 16.5828 14.31 17.2683 14.31 18.3191C14.31 19.8262 14.2967 21.0392 14.2967 21.4103C14.2967 21.71 14.5028 22.0612 15.0836 21.9506C19.6327 20.4595 22.911 16.2389 22.911 11.2638C22.911 5.04291 17.7821 0 11.4555 0Z" fill="#161614"/>
<path d="M4.28876 16.0457C4.2636 16.1017 4.17393 16.1184 4.09245 16.0801C4.00934 16.0434 3.96262 15.967 3.98957 15.9108C4.01428 15.8532 4.10395 15.8372 4.18687 15.8759C4.27016 15.9125 4.31759 15.9896 4.28876 16.0457ZM4.85226 16.5401C4.79763 16.5899 4.69081 16.5668 4.6183 16.4881C4.54337 16.4095 4.52936 16.3046 4.58479 16.254C4.64112 16.2042 4.74471 16.2275 4.81982 16.3061C4.89475 16.3855 4.90931 16.4898 4.85217 16.5402L4.85226 16.5401ZM5.23885 17.1726C5.1686 17.2206 5.05377 17.1756 4.98289 17.0754C4.91272 16.9753 4.91272 16.8552 4.98442 16.8071C5.05557 16.7589 5.1686 16.8022 5.24047 16.9016C5.31055 17.0034 5.31055 17.1236 5.23876 17.1727L5.23885 17.1726ZM5.89256 17.9052C5.82976 17.9732 5.69607 17.955 5.59814 17.8621C5.49805 17.7713 5.47011 17.6424 5.53309 17.5743C5.59661 17.5061 5.73111 17.5253 5.82976 17.6174C5.92921 17.708 5.95958 17.8379 5.89265 17.9052H5.89256ZM6.73745 18.1526C6.70987 18.2407 6.58103 18.2808 6.45129 18.2434C6.32174 18.2048 6.23693 18.1014 6.26307 18.0123C6.29003 17.9235 6.4194 17.8817 6.55012 17.9218C6.6795 17.9603 6.76449 18.0628 6.73754 18.1526H6.73745ZM7.69914 18.2574C7.70237 18.3504 7.59231 18.4274 7.45611 18.4291C7.3191 18.432 7.20832 18.3568 7.20688 18.2655C7.20688 18.1717 7.31442 18.0953 7.45135 18.0931C7.58755 18.0905 7.69914 18.1651 7.69914 18.2574ZM8.64375 18.2218C8.6601 18.3125 8.56541 18.4056 8.43019 18.4303C8.29723 18.4542 8.17414 18.3982 8.15716 18.3084C8.14063 18.2155 8.23712 18.1224 8.36982 18.0983C8.5053 18.0752 8.6265 18.1297 8.64375 18.2218Z" fill="#161614"/>
</svg>
