<svg width="14" height="14" viewBox="0 0 14 14" fill="none" xmlns="http://www.w3.org/2000/svg">
<path d="M6.99992 6.33337C6.82311 6.33337 6.65354 6.40361 6.52852 6.52864C6.40349 6.65366 6.33326 6.82323 6.33326 7.00004V9.66671C6.33326 9.84352 6.40349 10.0131 6.52852 10.1381C6.65354 10.2631 6.82311 10.3334 6.99992 10.3334C7.17673 10.3334 7.3463 10.2631 7.47133 10.1381C7.59635 10.0131 7.66659 9.84352 7.66659 9.66671V7.00004C7.66659 6.82323 7.59635 6.65366 7.47133 6.52864C7.3463 6.40361 7.17673 6.33337 6.99992 6.33337ZM7.25326 3.72004C7.09095 3.65336 6.9089 3.65336 6.74659 3.72004C6.66475 3.75177 6.58999 3.79935 6.52659 3.86004C6.4677 3.92484 6.42035 3.99925 6.38659 4.08004C6.34927 4.15916 6.331 4.24592 6.33326 4.33337C6.33275 4.42111 6.34957 4.50809 6.38274 4.58931C6.41592 4.67054 6.4648 4.74441 6.52659 4.80671C6.59139 4.86559 6.6658 4.91295 6.74659 4.94671C6.84759 4.9882 6.95723 5.00425 7.06589 4.99345C7.17454 4.98265 7.27888 4.94532 7.36973 4.88475C7.46058 4.82419 7.53517 4.74223 7.58693 4.64609C7.63869 4.54995 7.66604 4.44256 7.66659 4.33337C7.66413 4.15686 7.59508 3.9878 7.47326 3.86004C7.40985 3.79935 7.33509 3.75177 7.25326 3.72004ZM6.99992 0.333374C5.68138 0.333374 4.39245 0.724367 3.29612 1.45691C2.19979 2.18945 1.34531 3.23064 0.840725 4.44882C0.336141 5.66699 0.204118 7.00744 0.461353 8.30064C0.718588 9.59385 1.35353 10.7817 2.28588 11.7141C3.21823 12.6464 4.40611 13.2814 5.69932 13.5386C6.99253 13.7958 8.33297 13.6638 9.55115 13.1592C10.7693 12.6547 11.8105 11.8002 12.5431 10.7038C13.2756 9.60751 13.6666 8.31858 13.6666 7.00004C13.6666 6.12456 13.4942 5.25766 13.1591 4.44882C12.8241 3.63998 12.333 2.90505 11.714 2.286C11.0949 1.66694 10.36 1.17588 9.55115 0.840844C8.74231 0.505812 7.8754 0.333374 6.99992 0.333374ZM6.99992 12.3334C5.94509 12.3334 4.91394 12.0206 4.03688 11.4345C3.15982 10.8485 2.47623 10.0156 2.07256 9.04102C1.6689 8.06648 1.56328 6.99412 1.76907 5.95956C1.97485 4.92499 2.48281 3.97468 3.22869 3.2288C3.97457 2.48292 4.92487 1.97497 5.95944 1.76919C6.99401 1.5634 8.06636 1.66902 9.0409 2.07268C10.0154 2.47635 10.8484 3.15994 11.4344 4.037C12.0205 4.91406 12.3333 5.94521 12.3333 7.00004C12.3333 8.41453 11.7714 9.77108 10.7712 10.7713C9.77096 11.7715 8.41441 12.3334 6.99992 12.3334Z" fill="#B4B4B4"/>
</svg>
