<svg width="20" height="20" viewBox="0 0 20 20" fill="none" xmlns="http://www.w3.org/2000/svg">
<path d="M16.6662 15.95H3.33339C3.12204 15.95 2.94208 16.0206 2.81484 16.1478C2.68759 16.2751 2.61699 16.4551 2.61699 16.6664C2.61699 16.8777 2.68759 17.0577 2.81484 17.185C2.94208 17.3122 3.12204 17.3828 3.33339 17.3828H16.667C16.8783 17.3828 17.0583 17.3122 17.1855 17.185C17.3128 17.0577 17.3834 16.8777 17.3834 16.6664C17.3834 16.455 17.3126 16.275 17.1851 16.1478C17.0577 16.0206 16.8776 15.95 16.6662 15.95H16.6662Z" fill="#5A4FE5" stroke="#5A4FE5" stroke-width="0.1"/>
<path d="M15.2353 8.8975L15.2353 8.89745C14.9493 8.61149 14.5177 8.61157 14.231 8.89739L14.2309 8.89745L10.7163 12.4129V3.3336C10.7163 3.12225 10.6457 2.94229 10.5185 2.81504C10.3912 2.6878 10.2112 2.6172 9.9999 2.6172C9.78855 2.6172 9.60859 2.6878 9.48134 2.81504C9.3541 2.94229 9.2835 3.12225 9.2835 3.3336V12.4129L5.76885 8.89825C5.4829 8.61229 5.05128 8.61237 4.7646 8.89819L4.76454 8.89825C4.47859 9.1842 4.47866 9.61582 4.76449 9.9025L4.76455 9.90256L9.49814 14.6354C9.64174 14.779 9.85474 14.85 9.9999 14.85C10.1458 14.85 10.3588 14.779 10.5017 14.6353C10.5017 14.6353 10.5017 14.6353 10.5018 14.6353L15.2353 9.90176C15.5212 9.6158 15.5211 9.18418 15.2353 8.8975Z" fill="#5A4FE5" stroke="#5A4FE5" stroke-width="0.1"/>
</svg>
