<svg width="22" height="22" viewBox="0 0 22 22" fill="none" xmlns="http://www.w3.org/2000/svg">
<path fill-rule="evenodd" clip-rule="evenodd" d="M11 2.0792L8.78722 4.3687C8.55169 4.61239 8.22731 4.75 7.8884 4.75H4.75002V7.88839C4.75002 8.2273 4.61241 8.55167 4.36872 8.7872L2.07922 11L4.36872 13.2128C4.61241 13.4483 4.75002 13.7727 4.75002 14.1116V17.25H7.8884C8.22731 17.25 8.55169 17.3876 8.78721 17.6313L11 19.9208L13.2128 17.6313C13.4483 17.3876 13.7727 17.25 14.1116 17.25H17.25V14.1116C17.25 13.7727 17.3876 13.4483 17.6313 13.2128L19.9208 11L17.6313 8.78721C17.3876 8.55168 17.25 8.2273 17.25 7.8884V4.75H14.1116C13.7727 4.75 13.4483 4.61239 13.2128 4.3687L11 2.0792ZM10.1012 0.850768C10.5926 0.342367 11.4075 0.342367 11.8988 0.850768L14.2177 3.25H17.5C18.1904 3.25 18.75 3.80965 18.75 4.5V7.78234L21.1493 10.1012C21.6576 10.5926 21.6577 11.4074 21.1493 11.8988L18.75 14.2177V17.5C18.75 18.1904 18.1904 18.75 17.5 18.75H14.2177L11.8988 21.1492C11.4075 21.6576 10.5926 21.6576 10.1012 21.1492L7.78235 18.75H4.50002C3.80966 18.75 3.25002 18.1904 3.25002 17.5V14.2177L0.850783 11.8988C0.342383 11.4074 0.342382 10.5926 0.850783 10.1012L3.25002 7.78233V4.5C3.25002 3.80964 3.80966 3.25 4.50002 3.25H7.78235L10.1012 0.850768Z" fill="#6557FF"/>
<path fill-rule="evenodd" clip-rule="evenodd" d="M6.25002 11C6.25002 8.37665 8.37666 6.25 11 6.25C13.6234 6.25 15.75 8.37665 15.75 11C15.75 13.6234 13.6234 15.75 11 15.75C8.37666 15.75 6.25002 13.6234 6.25002 11ZM11 7.75C9.20509 7.75 7.75002 9.20508 7.75002 11C7.75002 12.7949 9.20509 14.25 11 14.25C12.7949 14.25 14.25 12.7949 14.25 11C14.25 9.20508 12.7949 7.75 11 7.75Z" fill="#6557FF"/>
</svg>
