<svg width="35" height="26" viewBox="0 0 35 26" fill="none" xmlns="http://www.w3.org/2000/svg">
<path fill-rule="evenodd" clip-rule="evenodd" d="M13.2336 10.0005C13.2336 6.24809 16.2635 3.20537 20 3.20537C23.7365 3.20537 26.7664 6.24809 26.7664 10.0005C26.7664 13.7529 23.7365 16.7956 20 16.7956C16.2635 16.7956 13.2336 13.7529 13.2336 10.0005ZM20 0.000488281C13.7416 0.000488281 8.22887 3.97265 5 10.0005C8.22853 16.0283 13.7413 20.0005 20 20.0005C26.2587 20.0005 31.7711 16.0283 35 10.0005C31.7715 3.97265 26.2587 0.000488281 20 0.000488281Z" fill="#5E50FA"/>
<path fill-rule="evenodd" clip-rule="evenodd" d="M19.8418 5.80176C17.6194 5.80176 15.8169 7.61188 15.8169 9.84379C15.8169 12.0757 17.6194 13.8858 19.8418 13.8858C22.0643 13.8858 23.8667 12.0757 23.8667 9.84379C23.8667 7.61188 22.0643 5.80176 19.8418 5.80176Z" fill="#5E50FA"/>
<path d="M8.7635 10.7778C8.7635 14.9815 4.90253 18.3893 0.139648 18.3893C4.90253 18.3893 8.7635 21.797 8.7635 26.0007C8.7635 21.797 12.6245 18.3893 17.3874 18.3893C12.6245 18.3893 8.7635 14.9815 8.7635 10.7778Z" fill="#FFC13C"/>
<path d="M8.7635 10.7778C8.7635 14.9815 4.90253 18.3893 0.139648 18.3893C4.90253 18.3893 8.7635 21.797 8.7635 26.0007C8.7635 21.797 12.6245 18.3893 17.3874 18.3893C12.6245 18.3893 8.7635 14.9815 8.7635 10.7778Z" fill="url(#paint0_linear_1615_1590)" fill-opacity="0.4"/>
<defs>
<linearGradient id="paint0_linear_1615_1590" x1="5.58168" y1="14.8644" x2="14.6146" y2="25.135" gradientUnits="userSpaceOnUse">
<stop stop-color="white" stop-opacity="0"/>
<stop offset="1" stop-color="white"/>
</linearGradient>
</defs>
</svg>
