<svg width="25" height="20" viewBox="0 0 25 20" fill="none" xmlns="http://www.w3.org/2000/svg">
<ellipse cx="6.50416" cy="7.18585" rx="3.34889" ry="3.20123" fill="#FFC633"/>
<path d="M10.6245 16.4339C11.4317 16.4339 12.1058 15.7667 11.8784 14.9922C11.8187 14.7886 11.7462 14.5882 11.6612 14.3921C11.3807 13.7448 10.9696 13.1566 10.4513 12.6612C9.933 12.1658 9.3177 11.7728 8.64052 11.5046C7.96335 11.2365 7.23755 11.0985 6.50458 11.0985C5.77161 11.0985 5.04582 11.2365 4.36864 11.5046C3.69146 11.7728 3.07616 12.1658 2.55787 12.6612C2.03959 13.1566 1.62846 13.7448 1.34796 14.3921C1.26298 14.5882 1.19049 14.7886 1.13073 14.9922C0.903336 15.7667 1.57745 16.4339 2.38463 16.4339L6.50458 16.4339H10.6245Z" fill="#FFC633"/>
<ellipse cx="16.792" cy="5.55388" rx="4.92484" ry="4.70769" fill="#6557FF"/>
<path d="M23.5344 19.1562C24.3416 19.1562 25.0102 18.4958 24.8541 17.7039C24.7497 17.1739 24.5881 16.6543 24.3712 16.1536C23.9587 15.2017 23.3541 14.3367 22.5919 13.6081C21.8297 12.8796 20.9248 12.3016 19.929 11.9073C18.9331 11.513 17.8658 11.3101 16.7879 11.3101C15.71 11.3101 14.6427 11.513 13.6468 11.9073C12.651 12.3016 11.7461 12.8796 10.9839 13.6081C10.2217 14.3367 9.61713 15.2017 9.20464 16.1536C8.98768 16.6543 8.82611 17.1739 8.72167 17.7039C8.56562 18.4958 9.23419 19.1562 10.0414 19.1562L16.7879 19.1562H23.5344Z" fill="#6557FF"/>
</svg>
