<svg width="25" height="24" viewBox="0 0 25 24" fill="none" xmlns="http://www.w3.org/2000/svg">
<path d="M15.23 2H9.77002V6.36H15.23V2Z" fill="#6557FF"/>
<path d="M16.73 2V6.36H22.37C21.86 3.61 19.83 2.01 16.73 2Z" fill="#6557FF"/>
<path d="M2.5 7.85999V16.19C2.5 19.83 4.67 22 8.31 22H16.69C20.33 22 22.5 19.83 22.5 16.19V7.85999H2.5ZM14.94 16.18L12.86 17.38C12.42 17.63 11.99 17.76 11.59 17.76C11.29 17.76 11.02 17.69 10.77 17.55C10.19 17.22 9.87 16.54 9.87 15.66V13.26C9.87 12.38 10.19 11.7 10.77 11.37C11.35 11.03 12.09 11.09 12.86 11.54L14.94 12.74C15.71 13.18 16.13 13.8 16.13 14.47C16.13 15.14 15.7 15.73 14.94 16.18Z" fill="#6557FF"/>
<path d="M8.27 2C5.17 2.01 3.14 3.61 2.63 6.36H8.27V2Z" fill="#6557FF"/>
</svg>
