<svg width="141" height="125" viewBox="0 0 141 125" fill="none" xmlns="http://www.w3.org/2000/svg">
<path d="M135.378 60.5446C135.378 76.2046 128.982 90.3206 118.725 100.467C108.69 110.502 94.7942 116.568 79.4651 116.568C64.2462 116.568 50.3507 110.392 40.2048 100.467C29.9486 90.3206 23.5522 76.2046 23.5522 60.5446C23.5522 29.5554 48.5862 4.52148 79.4651 4.52148C110.344 4.52148 135.378 29.6657 135.378 60.5446Z" fill="#6557FF"/>
<path d="M130.525 23.8204C133.022 23.8204 135.047 21.7961 135.047 19.2989C135.047 16.8017 133.022 14.7773 130.525 14.7773C128.028 14.7773 126.003 16.8017 126.003 19.2989C126.003 21.7961 128.028 23.8204 130.525 23.8204Z" fill="#FFC633"/>
<path d="M137.142 6.17577C138.847 6.17577 140.23 4.79328 140.23 3.08789C140.23 1.38249 138.847 0 137.142 0C135.437 0 134.054 1.38249 134.054 3.08789C134.054 4.79328 135.437 6.17577 137.142 6.17577Z" fill="#6557FF"/>
<path d="M25.3164 23.7104C27.0218 23.7104 28.4043 22.3279 28.4043 20.6226C28.4043 18.9172 27.0218 17.5347 25.3164 17.5347C23.611 17.5347 22.2285 18.9172 22.2285 20.6226C22.2285 22.3279 23.611 23.7104 25.3164 23.7104Z" fill="#6557FF"/>
<path d="M6.45804 83.2628C9.62519 83.2628 12.1927 80.6953 12.1927 77.5281C12.1927 74.361 9.62519 71.7935 6.45804 71.7935C3.29088 71.7935 0.723389 74.361 0.723389 77.5281C0.723389 80.6953 3.29088 83.2628 6.45804 83.2628Z" fill="#FFC633"/>
<path d="M103.879 31.5532C111.922 31.5532 118.442 38.0733 118.442 46.1163V101.768C118.442 105.376 117.157 108.916 114.485 111.339C105.005 119.937 92.8466 125 79.6069 125C66.4936 125 54.3735 119.87 44.833 111.365C42.0991 108.928 40.772 105.339 40.772 101.677V46.1163C40.772 38.0733 47.2921 31.5532 55.3351 31.5532H103.879Z" fill="white"/>
<path opacity="0.4" d="M95.9904 80.0972H62.0098C61.0045 80.0972 60.1895 80.9122 60.1895 81.9176C60.1895 82.9229 61.0045 83.7379 62.0098 83.7379H95.9904C96.9958 83.7379 97.8108 82.9229 97.8108 81.9176C97.8108 80.9122 96.9958 80.0972 95.9904 80.0972Z" fill="#D5DAE5"/>
<path opacity="0.4" d="M95.9904 88.5923H62.0098C61.0045 88.5923 60.1895 89.4073 60.1895 90.4127C60.1895 91.418 61.0045 92.2331 62.0098 92.2331H95.9904C96.9958 92.2331 97.8108 91.418 97.8108 90.4127C97.8108 89.4073 96.9958 88.5923 95.9904 88.5923Z" fill="#D5DAE5"/>
<path d="M79.6068 59.4661C83.2373 59.4661 86.1805 56.523 86.1805 52.8925C86.1805 49.262 83.2373 46.3188 79.6068 46.3188C75.9763 46.3188 73.0332 49.262 73.0332 52.8925C73.0332 56.523 75.9763 59.4661 79.6068 59.4661Z" fill="#FFC633"/>
<path d="M79.6069 62.7529C73.0201 62.7529 67.656 67.1704 67.656 72.6134C67.656 72.9815 67.9452 73.2707 68.3134 73.2707H90.9003C91.2685 73.2707 91.5577 72.9815 91.5577 72.6134C91.5577 67.1704 86.1936 62.7529 79.6069 62.7529Z" fill="#FFC633"/>
</svg>
