<svg width="26" height="24" viewBox="0 0 26 24" fill="none" xmlns="http://www.w3.org/2000/svg">
<path d="M20.839 5.90549C18.8592 4.43484 15.7272 4.18554 15.5931 4.17657C15.3852 4.16043 15.187 4.26804 15.1015 4.4456C15.0938 4.45636 15.0258 4.60163 14.95 4.82761C16.2595 5.03206 17.8683 5.44277 19.3235 6.27674C19.5567 6.40946 19.6286 6.69282 19.4848 6.90804C19.3896 7.04973 19.2283 7.12685 19.0612 7.12685C18.9719 7.12685 18.8805 7.10353 18.7989 7.0569C16.2964 5.62391 13.1722 5.55217 12.5699 5.55217C11.9676 5.55217 8.84139 5.62391 6.34083 7.0569C6.10768 7.19141 5.8007 7.12505 5.65692 6.90984C5.5112 6.69282 5.58309 6.41125 5.81624 6.27674C7.2715 5.44456 8.88025 5.03206 10.1898 4.8294C10.114 4.60163 10.046 4.45815 10.0402 4.4456C9.95275 4.26804 9.75651 4.15685 9.54668 4.17657C9.41261 4.18554 6.2806 4.43484 4.27355 5.92522C3.22631 6.82016 1.12988 12.0499 1.12988 16.5713C1.12988 16.652 1.1532 16.7291 1.19594 16.7991C2.64149 19.1449 6.58759 19.7583 7.48716 19.7852C7.49105 19.7852 7.49688 19.7852 7.50271 19.7852C7.66203 19.7852 7.81164 19.7153 7.9049 19.5969L8.81419 18.4419C6.36026 17.8572 5.10707 16.8636 5.03518 16.8045C4.82923 16.6377 4.8098 16.3471 4.99244 16.157C5.17313 15.9669 5.48789 15.949 5.69384 16.1158C5.72298 16.1409 8.03119 17.9487 12.5699 17.9487C17.1163 17.9487 19.4246 16.1337 19.4479 16.1158C19.6538 15.9508 19.9666 15.9669 20.1493 16.1588C20.33 16.3489 20.3105 16.6377 20.1046 16.8045C20.0327 16.8636 18.7795 17.8572 16.3256 18.4419L17.2349 19.5969C17.3281 19.7153 17.4777 19.7852 17.6371 19.7852C17.6429 19.7852 17.6487 19.7852 17.6526 19.7852C18.5522 19.7583 22.4983 19.1449 23.9438 16.7991C23.9866 16.7291 24.0099 16.652 24.0099 16.5713C24.0099 12.0499 21.9135 6.82016 20.839 5.90549ZM9.33684 14.7348C8.37509 14.7348 7.59597 13.9134 7.59597 12.8983C7.59597 11.8832 8.37509 11.0617 9.33684 11.0617C10.2986 11.0617 11.0777 11.8832 11.0777 12.8983C11.0777 13.9134 10.2986 14.7348 9.33684 14.7348ZM15.8029 14.7348C14.8412 14.7348 14.0621 13.9134 14.0621 12.8983C14.0621 11.8832 14.8412 11.0617 15.8029 11.0617C16.7647 11.0617 17.5438 11.8832 17.5438 12.8983C17.5438 13.9134 16.7647 14.7348 15.8029 14.7348Z" fill="black"/>
</svg>
