<svg width="100" height="100" viewBox="0 0 100 100" fill="none" xmlns="http://www.w3.org/2000/svg">
<path d="M40.625 64.5835H59.375C61.0833 64.5835 62.5 63.1668 62.5 61.4585C62.5 59.7502 61.0833 58.3335 59.375 58.3335H40.625C38.9167 58.3335 37.5 59.7502 37.5 61.4585C37.5 63.1668 38.9167 64.5835 40.625 64.5835Z" fill="#E9E9E9"/>
<path d="M64.5835 45.833C68.0353 45.833 70.8335 43.0348 70.8335 39.583C70.8335 36.1312 68.0353 33.333 64.5835 33.333C61.1317 33.333 58.3335 36.1312 58.3335 39.583C58.3335 43.0348 61.1317 45.833 64.5835 45.833Z" fill="#E9E9E9"/>
<path d="M35.4165 45.833C38.8683 45.833 41.6665 43.0348 41.6665 39.583C41.6665 36.1312 38.8683 33.333 35.4165 33.333C31.9647 33.333 29.1665 36.1312 29.1665 39.583C29.1665 43.0348 31.9647 45.833 35.4165 45.833Z" fill="#E9E9E9"/>
<path d="M49.9585 8.33301C26.9585 8.33301 8.3335 26.9997 8.3335 49.9997C8.3335 72.9997 26.9585 91.6663 49.9585 91.6663C73.0002 91.6663 91.6668 72.9997 91.6668 49.9997C91.6668 26.9997 73.0002 8.33301 49.9585 8.33301ZM50.0002 83.333C31.5835 83.333 16.6668 68.4163 16.6668 49.9997C16.6668 31.583 31.5835 16.6663 50.0002 16.6663C68.4168 16.6663 83.3335 31.583 83.3335 49.9997C83.3335 68.4163 68.4168 83.333 50.0002 83.333Z" fill="#E9E9E9"/>
</svg>
