<svg width="17" height="17" viewBox="0 0 17 17" fill="none" xmlns="http://www.w3.org/2000/svg">
<path d="M9.27724 12.1769C9.27724 12.4908 9.08842 12.7734 8.79845 12.893C8.50847 13.0131 8.17498 12.9469 7.95368 12.725C7.73176 12.5037 7.66556 12.1702 7.78571 11.8802C7.90525 11.5909 8.18848 11.4014 8.50174 11.4014C8.70711 11.4014 8.90451 11.4836 9.0498 11.6289C9.19509 11.7742 9.27724 11.9716 9.27724 12.1769ZM6.4806 6.5725C6.66451 6.66139 6.87662 6.67365 7.06973 6.60622C7.26284 6.53878 7.421 6.39779 7.50989 6.21326C7.69012 5.83378 8.07082 5.58979 8.49076 5.58551C9.0848 5.59286 9.57032 6.06122 9.60036 6.65404C9.61568 7.13772 9.31285 7.57421 8.8549 7.72931C8.19036 7.94694 7.73855 8.56366 7.73119 9.26252V9.87802C7.73119 10.3041 8.07633 10.6492 8.5024 10.6492C8.92847 10.6492 9.27422 10.3041 9.27422 9.87802V9.26252C9.27422 9.21716 9.35085 9.19018 9.35085 9.19018C9.88604 9.01057 10.3495 8.66358 10.672 8.19951C10.9944 7.73606 11.1593 7.18125 11.1416 6.61663C11.1164 5.93125 10.8277 5.28204 10.336 4.80321C9.84436 4.32503 9.18779 4.05408 8.50172 4.04733H8.48578C7.9929 4.0504 7.51044 4.19201 7.09357 4.45685C6.67732 4.72107 6.34383 5.09747 6.13171 5.54316C6.04282 5.72707 6.03056 5.93918 6.09799 6.13229C6.16543 6.3254 6.30704 6.48418 6.49156 6.57245L6.4806 6.5725ZM1 12.3792V4.62176C1.00123 3.66112 1.38376 2.74038 2.06301 2.06178C2.74225 1.38254 3.66299 1.00061 4.62361 1H12.3798C13.3398 1.00123 14.2606 1.38315 14.9393 2.06239C15.6186 2.74103 16.0005 3.66175 16.0017 4.6219V12.3781C16.0005 13.3381 15.6186 14.2588 14.9393 14.9376C14.2607 15.6169 13.34 15.9988 12.3798 16H4.62361C3.66359 15.9988 2.74286 15.6169 2.0641 14.9376C1.38486 14.259 1.00293 13.3382 1.00171 12.3781L1 12.3792ZM2.46577 12.3792C2.46761 13.5697 3.43315 14.534 4.62367 14.534H12.3799C13.5704 14.5334 14.5353 13.5684 14.5359 12.378V4.62176C14.5353 3.43124 13.5704 2.46637 12.3799 2.46574H4.62367C3.43315 2.46635 2.46828 3.43127 2.46766 4.62176L2.46577 12.3792Z" fill="#A9A9A9" stroke="white" stroke-width="0.2"/>
</svg>
