<svg width="22" height="25" viewBox="0 0 22 25" fill="none" xmlns="http://www.w3.org/2000/svg">
<circle cx="5.09955" cy="6.06" r="2.56" stroke="#D8D8D8"/>
<mask id="path-2-inside-1_1579_13406" fill="white">
<path d="M9.2 14.8998C9.75229 14.8998 10.2099 14.4479 10.1023 13.9062C10.0373 13.5789 9.94011 13.2579 9.81179 12.9481C9.55549 12.3294 9.17982 11.7671 8.70625 11.2936C8.23267 10.82 7.67045 10.4443 7.05169 10.188C6.43293 9.93172 5.76974 9.7998 5.1 9.7998C4.43026 9.7998 3.76708 9.93172 3.14831 10.188C2.52955 10.4443 1.96733 10.82 1.49376 11.2936C1.02018 11.7671 0.644513 12.3294 0.388214 12.9481C0.259888 13.2579 0.162744 13.5789 0.0977267 13.9062C-0.00987251 14.4479 0.447715 14.8998 1 14.8998L5.1 14.8998H9.2Z"/>
</mask>
<path d="M9.2 14.8998C9.75229 14.8998 10.2099 14.4479 10.1023 13.9062C10.0373 13.5789 9.94011 13.2579 9.81179 12.9481C9.55549 12.3294 9.17982 11.7671 8.70625 11.2936C8.23267 10.82 7.67045 10.4443 7.05169 10.188C6.43293 9.93172 5.76974 9.7998 5.1 9.7998C4.43026 9.7998 3.76708 9.93172 3.14831 10.188C2.52955 10.4443 1.96733 10.82 1.49376 11.2936C1.02018 11.7671 0.644513 12.3294 0.388214 12.9481C0.259888 13.2579 0.162744 13.5789 0.0977267 13.9062C-0.00987251 14.4479 0.447715 14.8998 1 14.8998L5.1 14.8998H9.2Z" stroke="#D8D8D8" stroke-width="2" mask="url(#path-2-inside-1_1579_13406)"/>
<circle cx="14.5" cy="4.5" r="4" stroke="#D8D8D8"/>
<mask id="path-4-inside-2_1579_13406" fill="white">
<path d="M21 17.5C21.5523 17.5 22.0069 17.0503 21.9334 16.503C21.8473 15.8608 21.6781 15.2311 21.4291 14.6299C21.0522 13.7199 20.4997 12.8931 19.8033 12.1967C19.1069 11.5003 18.2801 10.9478 17.3701 10.5709C16.4602 10.194 15.4849 10 14.5 10C13.5151 10 12.5398 10.194 11.6299 10.5709C10.7199 10.9478 9.89314 11.5003 9.1967 12.1967C8.50026 12.8931 7.94781 13.7199 7.5709 14.6299C7.32188 15.2311 7.1527 15.8608 7.06657 16.503C6.99315 17.0503 7.44772 17.5 8 17.5L14.5 17.5H21Z"/>
</mask>
<path d="M21 17.5C21.5523 17.5 22.0069 17.0503 21.9334 16.503C21.8473 15.8608 21.6781 15.2311 21.4291 14.6299C21.0522 13.7199 20.4997 12.8931 19.8033 12.1967C19.1069 11.5003 18.2801 10.9478 17.3701 10.5709C16.4602 10.194 15.4849 10 14.5 10C13.5151 10 12.5398 10.194 11.6299 10.5709C10.7199 10.9478 9.89314 11.5003 9.1967 12.1967C8.50026 12.8931 7.94781 13.7199 7.5709 14.6299C7.32188 15.2311 7.1527 15.8608 7.06657 16.503C6.99315 17.0503 7.44772 17.5 8 17.5L14.5 17.5H21Z" fill="#FCFCFC" stroke="#D8D8D8" stroke-width="2" mask="url(#path-4-inside-2_1579_13406)"/>
</svg>
