<svg width="103" height="84" viewBox="0 0 103 84" fill="none" xmlns="http://www.w3.org/2000/svg">
<path d="M51.4138 74.9999C71.9879 74.9999 88.6676 58.3201 88.6676 37.6725C88.6676 17.0249 71.9879 0.345215 51.4138 0.345215C30.8396 0.345215 14.1599 17.0249 14.1599 37.6725C14.1599 58.3201 30.8396 74.9999 51.4138 74.9999Z" fill="#EAEEF9"/>
<path d="M92.9294 22.3153C94.5932 22.3153 95.942 20.9665 95.942 19.3027C95.942 17.6388 94.5932 16.29 92.9294 16.29C91.2656 16.29 89.9167 17.6388 89.9167 19.3027C89.9167 20.9665 91.2656 22.3153 92.9294 22.3153Z" fill="#EAEEF9"/>
<path d="M97.3382 10.4854C98.4745 10.4854 99.3956 9.56429 99.3956 8.42802C99.3956 7.29174 98.4745 6.37061 97.3382 6.37061C96.2019 6.37061 95.2808 7.29174 95.2808 8.42802C95.2808 9.56429 96.2019 10.4854 97.3382 10.4854Z" fill="#EAEEF9"/>
<path d="M11.6617 24.4469C12.7979 24.4469 13.7191 23.5257 13.7191 22.3894C13.7191 21.2532 12.7979 20.332 11.6617 20.332C10.5254 20.332 9.60425 21.2532 9.60425 22.3894C9.60425 23.5257 10.5254 24.4469 11.6617 24.4469Z" fill="#EAEEF9"/>
<path d="M15.4825 69.195C17.5928 69.195 19.3034 67.4844 19.3034 65.3741C19.3034 63.2639 17.5928 61.5532 15.4825 61.5532C13.3723 61.5532 11.6616 63.2639 11.6616 65.3741C11.6616 67.4844 13.3723 69.195 15.4825 69.195Z" fill="#EAEEF9"/>
<g filter="url(#filter0_d_6004_17667)">
<path d="M81.038 61.2372H21.9368C18.3409 61.2372 15.4827 58.379 15.4827 54.7831V20.7607C15.4827 17.1649 18.3409 14.3066 21.9368 14.3066H81.038C84.6338 14.3066 87.4921 17.1649 87.4921 20.7607V54.7831C87.4921 58.379 84.6338 61.2372 81.038 61.2372Z" fill="url(#paint0_linear_6004_17667)"/>
</g>
<path d="M33.7387 50.6336H24.3341C23.5043 50.6336 22.8589 49.9881 22.8589 49.1583C22.8589 48.3285 23.5043 47.6831 24.3341 47.6831H33.7387C34.5685 47.6831 35.2139 48.3285 35.2139 49.1583C35.2139 49.9881 34.5685 50.6336 33.7387 50.6336Z" fill="#D5DDEA"/>
<path d="M48.9518 50.6336H39.5472C38.7174 50.6336 38.072 49.9881 38.072 49.1583C38.072 48.3285 38.7174 47.6831 39.5472 47.6831H48.9518C49.7816 47.6831 50.427 48.3285 50.427 49.1583C50.427 49.9881 49.7816 50.6336 48.9518 50.6336Z" fill="#D5DDEA"/>
<path d="M64.1649 50.6336H54.7604C53.9306 50.6336 53.2852 49.9881 53.2852 49.1583C53.2852 48.3285 53.9306 47.6831 54.7604 47.6831H64.1649C64.9948 47.6831 65.6402 48.3285 65.6402 49.1583C65.6402 49.9881 64.9948 50.6336 64.1649 50.6336Z" fill="#D5DDEA"/>
<path d="M79.3783 50.6336H69.9738C69.1439 50.6336 68.4985 49.9881 68.4985 49.1583C68.4985 48.3285 69.1439 47.6831 69.9738 47.6831H79.3783C80.2081 47.6831 80.8535 48.3285 80.8535 49.1583C80.8535 49.9881 80.2081 50.6336 79.3783 50.6336Z" fill="#D5DDEA"/>
<path d="M75.9669 32.9314C79.0222 32.9314 81.499 30.4546 81.499 27.3993C81.499 24.344 79.0222 21.8672 75.9669 21.8672C72.9116 21.8672 70.4348 24.344 70.4348 27.3993C70.4348 30.4546 72.9116 32.9314 75.9669 32.9314Z" fill="#989FB0"/>
<path d="M68.683 32.9314C71.7383 32.9314 74.2151 30.4546 74.2151 27.3993C74.2151 24.344 71.7383 21.8672 68.683 21.8672C65.6277 21.8672 63.1509 24.344 63.1509 27.3993C63.1509 30.4546 65.6277 32.9314 68.683 32.9314Z" fill="#D5DDEA"/>
<path d="M34.5685 34.6829H24.2419C23.5043 34.6829 22.8589 34.0375 22.8589 33.2999V26.6613C22.8589 25.9237 23.5043 25.2783 24.2419 25.2783H34.4763C35.2139 25.2783 35.8593 25.9237 35.8593 26.6613V33.2999C35.9515 34.0375 35.3061 34.6829 34.5685 34.6829Z" fill="#D5DDEA"/>
<path d="M93.1596 61.805C92.8657 63.0541 92.4248 64.3768 91.9104 65.4789C90.5143 68.1977 88.31 70.3285 85.5912 71.7246C82.799 73.1208 79.4925 73.7086 76.1859 72.9738C68.3971 71.3573 63.4006 63.7154 65.0171 55.9267C66.6337 48.1379 74.202 43.0679 81.9908 44.7579C84.783 45.3457 87.2078 46.7418 89.2652 48.6522C92.7187 52.1058 94.1883 57.1023 93.1596 61.805Z" fill="url(#paint1_linear_6004_17667)"/>
<path d="M83.6808 57.6167H80.3743V54.3102C80.3743 53.6489 79.8599 53.061 79.1252 53.061C78.4638 53.061 77.876 53.5754 77.876 54.3102V57.6167H74.5695C73.9081 57.6167 73.3203 58.1311 73.3203 58.8659C73.3203 59.6007 73.8347 60.115 74.5695 60.115H77.876V63.4216C77.876 64.0829 78.3904 64.6707 79.1252 64.6707C79.7865 64.6707 80.3743 64.1564 80.3743 63.4216V60.115H83.6808C84.3422 60.115 84.93 59.6007 84.93 58.8659C84.93 58.1311 84.3422 57.6167 83.6808 57.6167Z" fill="white"/>
<defs>
<filter id="filter0_d_6004_17667" x="0.900011" y="7.01531" width="101.175" height="76.096" filterUnits="userSpaceOnUse" color-interpolation-filters="sRGB">
<feFlood flood-opacity="0" result="BackgroundImageFix"/>
<feColorMatrix in="SourceAlpha" type="matrix" values="0 0 0 0 0 0 0 0 0 0 0 0 0 0 0 0 0 0 127 0" result="hardAlpha"/>
<feOffset dy="7.29133"/>
<feGaussianBlur stdDeviation="7.29133"/>
<feColorMatrix type="matrix" values="0 0 0 0 0.397708 0 0 0 0 0.47749 0 0 0 0 0.575 0 0 0 0.27 0"/>
<feBlend mode="normal" in2="BackgroundImageFix" result="effect1_dropShadow_6004_17667"/>
<feBlend mode="normal" in="SourceGraphic" in2="effect1_dropShadow_6004_17667" result="shape"/>
</filter>
<linearGradient id="paint0_linear_6004_17667" x1="51.4639" y1="13.2211" x2="51.4639" y2="61.7432" gradientUnits="userSpaceOnUse">
<stop stop-color="#FDFEFF"/>
<stop offset="0.9964" stop-color="#ECF0F5"/>
</linearGradient>
<linearGradient id="paint1_linear_6004_17667" x1="64.7002" y1="58.8654" x2="93.4871" y2="58.8654" gradientUnits="userSpaceOnUse">
<stop stop-color="#B0BACC"/>
<stop offset="1" stop-color="#969EAE"/>
</linearGradient>
</defs>
</svg>
