<svg width="30" height="20" viewBox="0 0 30 20" fill="none" xmlns="http://www.w3.org/2000/svg">
<path d="M8.52647 7.29692C8.52647 7.70351 8.56594 8.03318 8.63502 8.27494C8.71397 8.5167 8.81265 8.78044 8.95081 9.06615C9.00015 9.15406 9.01989 9.24197 9.01989 9.3189C9.01989 9.42879 8.96068 9.53868 8.83239 9.64857L8.21068 10.1101C8.12186 10.176 8.03305 10.209 7.9541 10.209C7.85542 10.209 7.75673 10.1541 7.65805 10.0552C7.51989 9.89033 7.40147 9.7145 7.30279 9.53868C7.2041 9.35186 7.10542 9.14307 6.99686 8.89033C6.22713 9.90131 5.26002 10.4068 4.09555 10.4068C3.2666 10.4068 2.60542 10.1431 2.12186 9.6156C1.63831 9.08813 1.3916 8.38483 1.3916 7.50571C1.3916 6.57164 1.68765 5.8134 2.28963 5.24197C2.8916 4.67055 3.69094 4.38483 4.70739 4.38483C5.04292 4.38483 5.38831 4.4178 5.75344 4.47274C6.11857 4.52769 6.49358 4.6156 6.88831 4.7145V3.9123C6.88831 3.07714 6.73042 2.49472 6.4245 2.15406C6.10871 1.8134 5.57581 1.64857 4.81594 1.64857C4.47055 1.64857 4.11529 1.69252 3.75015 1.79142C3.38502 1.89032 3.02976 2.0112 2.68436 2.16505C2.52647 2.24197 2.40805 2.28593 2.33897 2.30791C2.26989 2.32989 2.22055 2.34087 2.18108 2.34087C2.04292 2.34087 1.97384 2.23098 1.97384 2.00021V1.46175C1.97384 1.28593 1.99358 1.15406 2.04292 1.07714C2.09226 1.00021 2.18108 0.923292 2.31923 0.846368C2.66463 0.648566 3.0791 0.483731 3.56265 0.351863C4.04621 0.209006 4.55936 0.143072 5.10213 0.143072C6.27647 0.143072 7.13502 0.439775 7.68765 1.03318C8.23042 1.62659 8.50673 2.52769 8.50673 3.73648V7.29692H8.52647ZM4.51989 8.96725C4.84555 8.96725 5.18108 8.90131 5.53634 8.76945C5.8916 8.63758 6.20739 8.39582 6.47384 8.06615C6.63173 7.85736 6.75015 7.62659 6.80936 7.36285C6.86858 7.09912 6.90805 6.78044 6.90805 6.40681V5.94527C6.62186 5.86835 6.31594 5.80241 6.00015 5.75846C5.68436 5.7145 5.37844 5.69252 5.07252 5.69252C4.41134 5.69252 3.92779 5.83538 3.60213 6.13208C3.27647 6.42879 3.11858 6.84637 3.11858 7.39582C3.11858 7.9123 3.237 8.29692 3.48371 8.56066C3.72055 8.83538 4.06594 8.96725 4.51989 8.96725ZM12.4442 10.1541C12.2666 10.1541 12.1482 10.1211 12.0692 10.0442C11.9903 9.97824 11.9212 9.82439 11.862 9.6156L9.54292 1.12109C9.48371 0.901314 9.4541 0.758456 9.4541 0.681533C9.4541 0.505709 9.53305 0.406808 9.69094 0.406808H10.658C10.8455 0.406808 10.9738 0.439775 11.0429 0.516698C11.1219 0.582632 11.1811 0.736478 11.2403 0.94527L12.8982 8.22L14.4377 0.94527C14.487 0.725489 14.5462 0.582632 14.6252 0.516698C14.7041 0.450764 14.8423 0.406808 15.0199 0.406808H15.8094C15.9969 0.406808 16.1252 0.439775 16.2041 0.516698C16.283 0.582632 16.3521 0.736478 16.3916 0.94527L17.9508 8.30791L19.658 0.94527C19.7173 0.725489 19.7863 0.582632 19.8554 0.516698C19.9344 0.450764 20.0627 0.406808 20.2403 0.406808H21.158C21.3159 0.406808 21.4048 0.49472 21.4048 0.681533C21.4048 0.736478 21.3949 0.791423 21.385 0.857358C21.3752 0.923292 21.3554 1.0112 21.3159 1.13208L18.9377 9.62659C18.8784 9.84637 18.8094 9.98923 18.7304 10.0552C18.6515 10.1211 18.5232 10.1651 18.3554 10.1651H17.5067C17.3192 10.1651 17.1909 10.1321 17.112 10.0552C17.033 9.97824 16.964 9.83538 16.9245 9.6156L15.3949 2.52769L13.8752 9.60461C13.8258 9.82439 13.7666 9.96725 13.6877 10.0442C13.6087 10.1211 13.4705 10.1541 13.2929 10.1541H12.4442ZM25.1252 10.4508C24.612 10.4508 24.0988 10.3848 23.6054 10.253C23.112 10.1211 22.7271 9.97824 22.4705 9.8134C22.3127 9.7145 22.2041 9.60461 22.1646 9.50571C22.1252 9.40681 22.1054 9.29692 22.1054 9.19802V8.63758C22.1054 8.40681 22.1844 8.29692 22.3324 8.29692C22.3916 8.29692 22.4508 8.30791 22.51 8.32989C22.5692 8.35186 22.658 8.39582 22.7567 8.43978C23.0923 8.60461 23.4574 8.73648 23.8423 8.82439C24.237 8.9123 24.6219 8.95626 25.0166 8.95626C25.6383 8.95626 26.1219 8.83538 26.4574 8.59362C26.7929 8.35186 26.9705 8.00022 26.9705 7.54967C26.9705 7.24197 26.8817 6.98923 26.7041 6.78044C26.5265 6.57164 26.1909 6.38483 25.7074 6.20901L24.2765 5.7145C23.5561 5.46175 23.0232 5.08813 22.6975 4.59362C22.3719 4.11011 22.2041 3.57164 22.2041 3.00021C22.2041 2.53868 22.2929 2.13208 22.4705 1.78043C22.6482 1.42879 22.885 1.12109 23.1811 0.879336C23.4771 0.626588 23.8127 0.439775 24.2074 0.307907C24.6021 0.176039 25.0166 0.121094 25.4508 0.121094C25.6679 0.121094 25.8949 0.132083 26.112 0.16505C26.339 0.198017 26.5462 0.241973 26.7534 0.285929C26.9508 0.340874 27.1383 0.395819 27.3159 0.461753C27.4936 0.527687 27.6317 0.593621 27.7304 0.659555C27.8686 0.747467 27.9673 0.83538 28.0265 0.934281C28.0857 1.02219 28.1153 1.14307 28.1153 1.29692V1.8134C28.1153 2.04417 28.0363 2.16505 27.8883 2.16505C27.8094 2.16505 27.6811 2.12109 27.5133 2.03318C26.9508 1.74747 26.3192 1.60461 25.6186 1.60461C25.0561 1.60461 24.612 1.70351 24.3061 1.9123C24.0002 2.12109 23.8423 2.43978 23.8423 2.89032C23.8423 3.19802 23.9409 3.46175 24.1383 3.67054C24.3357 3.87934 24.7008 4.08813 25.2238 4.27494L26.6252 4.76945C27.3357 5.02219 27.8488 5.37384 28.1548 5.82439C28.4607 6.27494 28.6087 6.79142 28.6087 7.36285C28.6087 7.83538 28.5199 8.26395 28.3521 8.63758C28.1745 9.0112 27.9377 9.34087 27.6317 9.60461C27.3258 9.87934 26.9607 10.0771 26.5363 10.22C26.0923 10.3738 25.6284 10.4508 25.1252 10.4508Z" fill="#252F3E"/>
<path fill-rule="evenodd" clip-rule="evenodd" d="M26.9901 15.7913C23.7434 18.4617 19.0263 19.8793 14.9703 19.8793C9.28613 19.8793 4.16442 17.5386 0.296 13.6485C-0.00992121 13.3408 0.266395 12.9232 0.631526 13.165C4.81574 15.8683 9.97692 17.5056 15.3157 17.5056C18.9177 17.5056 22.8749 16.6705 26.5164 14.9562C27.0592 14.6815 27.523 15.3518 26.9901 15.7913Z" fill="#FF9900"/>
<path fill-rule="evenodd" clip-rule="evenodd" d="M28.342 14.0772C27.9275 13.4838 25.5986 13.7915 24.5427 13.9343C24.2269 13.9783 24.1775 13.6706 24.4637 13.4398C26.319 11.9893 29.3683 12.4068 29.7236 12.8904C30.0789 13.3849 29.6249 16.7805 27.8881 18.4068C27.6216 18.6596 27.365 18.5277 27.4835 18.1981C27.8782 17.1101 28.7565 14.6596 28.342 14.0772Z" fill="#FF9900"/>
</svg>
