<svg width="49" height="49" viewBox="0 0 49 49" fill="none" xmlns="http://www.w3.org/2000/svg">
<path d="M5.10414 7H43.8959C46.7148 7 49 9.44843 49 12.4687V36.5313C49 39.5516 46.7148 42 43.8959 42H5.10414C2.2852 42.0001 0 39.5517 0 36.5313V12.4688C0 9.44843 2.2852 7 5.10414 7Z" fill="#CAD8DD"/>
<path d="M49 14H0V21H49V14Z" fill="#455A64"/>
<path d="M15.3125 30.6252H7.14587C6.58208 30.6252 6.125 30.1682 6.125 29.6044C6.125 29.0406 6.58208 28.5835 7.14587 28.5835H15.3125C15.8763 28.5835 16.3334 29.0406 16.3334 29.6044C16.3334 30.1682 15.8763 30.6252 15.3125 30.6252Z" fill="#A1B9BF"/>
<path d="M21.4375 34.7087H7.14587C6.58208 34.7087 6.125 34.2516 6.125 33.6879C6.125 33.1241 6.58208 32.667 7.14587 32.667H21.4375C22.0013 32.667 22.4584 33.1241 22.4584 33.6879C22.4584 34.2516 22.0013 34.7087 21.4375 34.7087Z" fill="#A1B9BF"/>
<rect opacity="0.5" x="35" y="27" width="8" height="8" rx="2" fill="white"/>
</svg>
