<svg width="14" height="14" viewBox="0 0 14 14" fill="none" xmlns="http://www.w3.org/2000/svg">
<path d="M6.9987 9.97982C6.88759 9.97982 6.78342 9.96232 6.6862 9.92732C6.58897 9.89287 6.4987 9.83398 6.41536 9.75065L3.41536 6.75065C3.26259 6.59787 3.1862 6.40343 3.1862 6.16732C3.1862 5.93121 3.26259 5.73676 3.41536 5.58398C3.56814 5.43121 3.76592 5.35121 4.0087 5.34398C4.25203 5.33732 4.45009 5.41037 4.60286 5.56315L6.16536 7.12565V1.16732C6.16536 0.931207 6.24536 0.733151 6.40536 0.573151C6.56481 0.413707 6.76259 0.333984 6.9987 0.333984C7.23481 0.333984 7.43286 0.413707 7.59286 0.573151C7.75231 0.733151 7.83203 0.931207 7.83203 1.16732V7.12565L9.39453 5.56315C9.54731 5.41037 9.74536 5.33732 9.9887 5.34398C10.2315 5.35121 10.4293 5.43121 10.582 5.58398C10.7348 5.73676 10.8112 5.93121 10.8112 6.16732C10.8112 6.40343 10.7348 6.59787 10.582 6.75065L7.58203 9.75065C7.4987 9.83398 7.40842 9.89287 7.3112 9.92732C7.21397 9.96232 7.10981 9.97982 6.9987 9.97982ZM1.9987 13.6673C1.54036 13.6673 1.14814 13.5043 0.822031 13.1782C0.495364 12.8515 0.332031 12.459 0.332031 12.0007V10.334C0.332031 10.0979 0.411754 9.89982 0.571198 9.73982C0.731198 9.58037 0.929253 9.50065 1.16536 9.50065C1.40148 9.50065 1.59953 9.58037 1.75953 9.73982C1.91898 9.89982 1.9987 10.0979 1.9987 10.334V12.0007H11.9987V10.334C11.9987 10.0979 12.0787 9.89982 12.2387 9.73982C12.3981 9.58037 12.5959 9.50065 12.832 9.50065C13.0681 9.50065 13.2659 9.58037 13.4254 9.73982C13.5854 9.89982 13.6654 10.0979 13.6654 10.334V12.0007C13.6654 12.459 13.5023 12.8515 13.1762 13.1782C12.8495 13.5043 12.457 13.6673 11.9987 13.6673H1.9987Z" fill="#4A495C" fill-opacity="0.8"/>
</svg>
