<svg width="20" height="20" viewBox="0 0 20 20" fill="none" xmlns="http://www.w3.org/2000/svg">
<g clip-path="url(#clip0_6295_16804)">
<path d="M0.62207 13.4789C2.035 17.2869 5.70043 20.0007 10.0001 20.0007C14.2997 20.0007 17.9652 17.2869 19.3781 13.4789L10.0001 12.6094L0.62207 13.4789Z" fill="#FFDA44"/>
<path d="M10.0001 0.000488281C5.70043 0.000488281 2.035 2.71424 0.62207 6.52225L10.0001 7.39178L19.3781 6.52221C17.9652 2.71424 14.2997 0.000488281 10.0001 0.000488281Z" fill="black"/>
<path d="M0.621992 6.52148C0.220039 7.6048 0 8.77652 0 9.99973C0 11.2229 0.220039 12.3946 0.621992 13.478H19.378C19.78 12.3946 20 11.2229 20 9.99973C20 8.77652 19.78 7.6048 19.378 6.52148H0.621992Z" fill="#D80027"/>
</g>
<defs>
<clipPath id="clip0_6295_16804">
<rect width="20" height="20" fill="white"/>
</clipPath>
</defs>
</svg>
