<svg width="20" height="20" viewBox="0 0 20 20" fill="none" xmlns="http://www.w3.org/2000/svg">
<path d="M14.19 0H5.81C2.17 0 0 2.17 0 5.81V14.18C0 17.83 2.17 20 5.81 20H14.18C17.82 20 19.99 17.83 19.99 14.19V5.81C20 2.17 17.83 0 14.19 0ZM6.64 5.15C6.93 4.86 7.41 4.86 7.7 5.15L12.08 9.53V7.1C12.08 6.69 12.42 6.35 12.83 6.35C13.24 6.35 13.58 6.69 13.58 7.1V11.34C13.58 11.44 13.56 11.53 13.52 11.63C13.44 11.81 13.3 11.96 13.11 12.04C13.02 12.08 12.92 12.1 12.82 12.1H8.58C8.17 12.1 7.83 11.76 7.83 11.35C7.83 10.94 8.17 10.6 8.58 10.6H11.01L6.64 6.21C6.35 5.92 6.35 5.45 6.64 5.15ZM16.24 15.22C14.23 15.89 12.12 16.23 10 16.23C7.88 16.23 5.77 15.89 3.76 15.22C3.37 15.09 3.16 14.66 3.29 14.27C3.42 13.88 3.84 13.66 4.24 13.8C7.96 15.04 12.05 15.04 15.77 13.8C16.16 13.67 16.59 13.88 16.72 14.27C16.84 14.67 16.63 15.09 16.24 15.22Z" fill="#4A495C" fill-opacity="0.8"/>
</svg>
