<svg width="22" height="22" viewBox="0 0 22 22" fill="none" xmlns="http://www.w3.org/2000/svg">
<path fill-rule="evenodd" clip-rule="evenodd" d="M21.8332 4.1665C21.8332 1.95737 20.0423 0.166504 17.8332 0.166504H4.1665C1.95736 0.166504 0.166504 1.95736 0.166504 4.1665V10.2498H21.8332V4.1665ZM21.8332 11.7498H0.166504V17.8332C0.166504 20.0423 1.95736 21.8332 4.1665 21.8332H17.8332C20.0423 21.8332 21.8332 20.0423 21.8332 17.8332V11.7498ZM17.4998 2.604C17.9486 2.604 18.3123 2.96777 18.3123 3.4165V5.58317C18.3123 6.0319 17.9486 6.39567 17.4998 6.39567C17.0511 6.39567 16.6873 6.0319 16.6873 5.58317V3.4165C16.6873 2.96777 17.0511 2.604 17.4998 2.604ZM13.979 3.4165C13.979 2.96777 13.6152 2.604 13.1665 2.604C12.7178 2.604 12.354 2.96777 12.354 3.4165V5.58317C12.354 6.0319 12.7178 6.39567 13.1665 6.39567C13.6152 6.39567 13.979 6.0319 13.979 5.58317V3.4165ZM17.4998 14.5207C17.9486 14.5207 18.3123 14.8844 18.3123 15.3332V17.4998C18.3123 17.9486 17.9486 18.3123 17.4998 18.3123C17.0511 18.3123 16.6873 17.9486 16.6873 17.4998V15.3332C16.6873 14.8844 17.0511 14.5207 17.4998 14.5207ZM13.979 15.3332C13.979 14.8844 13.6152 14.5207 13.1665 14.5207C12.7178 14.5207 12.354 14.8844 12.354 15.3332V17.4998C12.354 17.9486 12.7178 18.3123 13.1665 18.3123C13.6152 18.3123 13.979 17.9486 13.979 17.4998V15.3332Z" fill="#6557FF"/>
</svg>
