<svg width="23" height="23" viewBox="0 0 23 23" fill="none" xmlns="http://www.w3.org/2000/svg">
<rect width="23" height="23" rx="11.5" fill="#6557FF"/>
<path d="M11.8438 13.797H12.1417C12.4396 13.797 12.6871 13.5311 12.6871 13.2103C12.6871 12.8116 12.545 12.7336 12.3113 12.6511L11.8483 12.4907V13.797H11.8438Z" fill="white"/>
<path d="M11.4864 7.3711C8.95636 7.38027 6.90761 9.43818 6.91678 11.9682C6.92595 14.4982 8.98386 16.5469 11.5139 16.5378C14.0439 16.5286 16.0926 14.4707 16.0834 11.9407C16.0743 9.41068 14.0164 7.36652 11.4864 7.3711ZM12.5359 12.0003C12.8934 12.124 13.3747 12.3899 13.3747 13.2103C13.3747 13.9161 12.8201 14.4844 12.1418 14.4844H11.8439V14.7503C11.8439 14.9382 11.688 15.094 11.5001 15.094C11.3122 15.094 11.1564 14.9382 11.1564 14.7503V14.4844H10.9914C10.2397 14.4844 9.63011 13.8519 9.63011 13.0728C9.63011 12.8849 9.78595 12.729 9.97386 12.729C10.1618 12.729 10.3176 12.8849 10.3176 13.0728C10.3176 13.4715 10.6201 13.7969 10.9914 13.7969H11.1564V12.2478L10.4643 12.0003C10.1068 11.8765 9.62553 11.6107 9.62553 10.7903C9.62553 10.0844 10.1801 9.5161 10.8584 9.5161H11.1564V9.25027C11.1564 9.06235 11.3122 8.90652 11.5001 8.90652C11.688 8.90652 11.8439 9.06235 11.8439 9.25027V9.5161H12.0089C12.7605 9.5161 13.3701 10.1486 13.3701 10.9278C13.3701 11.1157 13.2143 11.2715 13.0264 11.2715C12.8384 11.2715 12.6826 11.1157 12.6826 10.9278C12.6826 10.529 12.3801 10.2036 12.0089 10.2036H11.8439V11.7528L12.5359 12.0003Z" fill="white"/>
<path d="M10.3174 10.7944C10.3174 11.1931 10.4595 11.271 10.6932 11.3535L11.1561 11.514V10.2031H10.8582C10.5603 10.2031 10.3174 10.469 10.3174 10.7944Z" fill="white"/>
</svg>
