<svg width="23" height="23" viewBox="0 0 23 23" fill="none" xmlns="http://www.w3.org/2000/svg">
<rect width="23" height="23" rx="11.5" fill="#6557FF"/>
<path d="M13.3822 7.00781H9.61777C7.98262 7.00781 7.00781 7.98262 7.00781 9.61777V13.3777C7.00781 15.0174 7.98262 15.9922 9.61777 15.9922H13.3777C15.0129 15.9922 15.9877 15.0174 15.9877 13.3822V9.61777C15.9922 7.98262 15.0174 7.00781 13.3822 7.00781ZM9.99063 9.32129C10.1209 9.19102 10.3365 9.19102 10.4668 9.32129L12.4344 11.2889V10.1973C12.4344 10.0131 12.5871 9.86035 12.7713 9.86035C12.9555 9.86035 13.1082 10.0131 13.1082 10.1973V12.102C13.1082 12.1469 13.0992 12.1873 13.0813 12.2322C13.0453 12.3131 12.9824 12.3805 12.8971 12.4164C12.8566 12.4344 12.8117 12.4434 12.7668 12.4434H10.8621C10.6779 12.4434 10.5252 12.2906 10.5252 12.1064C10.5252 11.9223 10.6779 11.7695 10.8621 11.7695H11.9537L9.99063 9.79746C9.86035 9.66719 9.86035 9.45605 9.99063 9.32129ZM14.3031 13.8449C13.4002 14.1459 12.4523 14.2986 11.5 14.2986C10.5477 14.2986 9.5998 14.1459 8.69688 13.8449C8.52168 13.7865 8.42734 13.5934 8.48574 13.4182C8.54414 13.243 8.73281 13.1441 8.9125 13.207C10.5836 13.7641 12.4209 13.7641 14.092 13.207C14.2672 13.1486 14.4604 13.243 14.5188 13.4182C14.5727 13.5979 14.4783 13.7865 14.3031 13.8449Z" fill="white"/>
</svg>
