<svg width="16" height="16" viewBox="0 0 16 16" fill="none" xmlns="http://www.w3.org/2000/svg">
<path d="M11.3333 1.33325H4.66665C2.82665 1.33325 1.33331 2.81992 1.33331 4.65325V8.63992V9.30659C1.33331 11.1399 2.82665 12.6266 4.66665 12.6266H5.66665C5.84665 12.6266 6.08665 12.7466 6.19998 12.8933L7.19998 14.2199C7.63998 14.8066 8.35998 14.8066 8.79998 14.2199L9.79998 12.8933C9.92665 12.7266 10.1266 12.6266 10.3333 12.6266H11.3333C13.1733 12.6266 14.6666 11.1399 14.6666 9.30659V4.65325C14.6666 2.81992 13.1733 1.33325 11.3333 1.33325ZM8.66665 9.16659H4.66665C4.39331 9.16659 4.16665 8.93992 4.16665 8.66659C4.16665 8.39325 4.39331 8.16659 4.66665 8.16659H8.66665C8.93998 8.16659 9.16665 8.39325 9.16665 8.66659C9.16665 8.93992 8.93998 9.16659 8.66665 9.16659ZM11.3333 5.83325H4.66665C4.39331 5.83325 4.16665 5.60659 4.16665 5.33325C4.16665 5.05992 4.39331 4.83325 4.66665 4.83325H11.3333C11.6066 4.83325 11.8333 5.05992 11.8333 5.33325C11.8333 5.60659 11.6066 5.83325 11.3333 5.83325Z" fill="#737373"/>
</svg>
