<svg width="16" height="16" viewBox="0 0 16 16" fill="none" xmlns="http://www.w3.org/2000/svg">
<g clip-path="url(#clip0_6300_16816)">
<mask id="mask0_6300_16816" style="mask-type:luminance" maskUnits="userSpaceOnUse" x="-1" y="0" width="17" height="16">
<path d="M7.99951 16C12.4178 16 15.9995 12.4183 15.9995 8C15.9995 3.58172 12.4178 0 7.99951 0C3.58123 0 -0.000488281 3.58172 -0.000488281 8C-0.000488281 12.4183 3.58123 16 7.99951 16Z" fill="white"/>
</mask>
<g mask="url(#mask0_6300_16816)">
<path d="M7.99951 0H15.9995V2L14.9995 3L15.9995 4V6L14.9995 7L15.9995 8V10L14.9995 11L15.9995 12V14L7.99951 15L-0.000488281 14V12L0.999512 11L-0.000488281 10V8L7.99951 0Z" fill="#EEEEEE"/>
<path d="M6.99951 2H15.9995V4H6.99951V2ZM6.99951 6H15.9995V8H7.99951L6.99951 6ZM-0.000488281 10H15.9995V12H-0.000488281V10ZM-0.000488281 14H15.9995V16H-0.000488281V14Z" fill="#D80027"/>
<path d="M-0.000488281 0H7.99951V8H-0.000488281V0Z" fill="#0052B4"/>
<path d="M5.84326 7.59375L7.62451 6.3125H5.43701L7.21826 7.59375L6.53076 5.5L5.84326 7.59375ZM3.31201 7.59375L5.09326 6.3125H2.90576L4.68701 7.59375L3.99951 5.5L3.31201 7.59375ZM0.780762 7.59375L2.56201 6.3125H0.374512L2.15576 7.59375L1.46826 5.5L0.780762 7.59375ZM5.84326 5.0625L7.62451 3.78125H5.43701L7.21826 5.0625L6.53076 2.96875L5.84326 5.0625ZM3.31201 5.0625L5.09326 3.78125H2.90576L4.68701 5.0625L3.99951 2.96875L3.31201 5.0625ZM0.780762 5.0625L2.56201 3.78125H0.374512L2.15576 5.0625L1.46826 2.96875L0.780762 5.0625ZM5.84326 2.5L7.62451 1.21875H5.43701L7.21826 2.5L6.53076 0.40625L5.84326 2.5ZM3.31201 2.5L5.09326 1.21875H2.90576L4.68701 2.5L3.99951 0.40625L3.31201 2.5ZM0.780762 2.5L2.56201 1.21875H0.374512L2.15576 2.5L1.46826 0.40625L0.780762 2.5Z" fill="#EEEEEE"/>
</g>
</g>
<defs>
<clipPath id="clip0_6300_16816">
<rect width="16" height="16" fill="white"/>
</clipPath>
</defs>
</svg>
